<?xml version="1.0" encoding="UTF-8" standalone="no"?>
<!-- Created with Inkscape (http://www.inkscape.org/) -->

<svg
   width="196.959mm"
   height="62.412998mm"
   viewBox="0 0 196.95901 62.412998"
   version="1.1"
   id="svg1"
   xml:space="preserve"
   sodipodi:docname="researchbackground.svg"
   inkscape:version="1.4.3 (0d15f75, 2025-12-25)"
   xmlns:inkscape="http://www.inkscape.org/namespaces/inkscape"
   xmlns:sodipodi="http://sodipodi.sourceforge.net/DTD/sodipodi-0.dtd"
   xmlns="http://www.w3.org/2000/svg"
   xmlns:svg="http://www.w3.org/2000/svg"><sodipodi:namedview
     id="namedview1"
     pagecolor="#ffffff"
     bordercolor="#000000"
     borderopacity="0.25"
     inkscape:showpageshadow="2"
     inkscape:pageopacity="0.0"
     inkscape:pagecheckerboard="0"
     inkscape:deskcolor="#d1d1d1"
     inkscape:document-units="mm"
     inkscape:zoom="0.90830044"
     inkscape:cx="331.38815"
     inkscape:cy="90.828977"
     inkscape:window-width="1317"
     inkscape:window-height="976"
     inkscape:window-x="287"
     inkscape:window-y="25"
     inkscape:window-maximized="0"
     inkscape:current-layer="g1" /><defs
     id="defs1" /><g
     id="layer1"
     transform="translate(-13.269191,-107.60626)"><text
       xml:space="preserve"
       style="font-style:normal;font-variant:normal;font-weight:bold;font-stretch:normal;font-size:4.23333px;line-height:4.37444px;font-family:Georgia;-inkscape-font-specification:'Georgia Bold';text-align:center;writing-mode:lr-tb;direction:ltr;text-anchor:middle;fill:#ac3b61;fill-opacity:1;stroke-width:0.264582"
       x="45.40472"
       y="118.83725"
       id="text16"><tspan
         style="font-style:normal;font-variant:normal;font-weight:bold;font-stretch:normal;font-size:4.23333px;line-height:4.37444px;font-family:Georgia;-inkscape-font-specification:'Georgia Bold';fill:#ac3b61;fill-opacity:1;stroke-width:0.264582"
         x="45.40472"
         y="118.83725"
         id="tspan19">Philosophy &amp; Social Theory</tspan></text><text
       xml:space="preserve"
       style="font-style:normal;font-variant:normal;font-weight:bold;font-stretch:normal;font-size:4.23333px;line-height:4.37444px;font-family:Georgia;-inkscape-font-specification:'Georgia Bold';text-align:center;writing-mode:lr-tb;direction:ltr;text-anchor:middle;fill:#ac3b61;fill-opacity:1;stroke-width:0.264582"
       x="110.91814"
       y="118.86802"
       id="text16-3"><tspan
         style="font-style:normal;font-variant:normal;font-weight:bold;font-stretch:normal;font-size:4.23333px;line-height:4.37444px;font-family:Georgia;-inkscape-font-specification:'Georgia Bold';fill:#ac3b61;fill-opacity:1;stroke-width:0.264582"
         x="110.91814"
         y="118.86802"
         id="tspan19-6">Reflexive Methods</tspan></text><text
       xml:space="preserve"
       style="font-style:normal;font-variant:normal;font-weight:normal;font-stretch:normal;font-size:3.52778px;line-height:4.5376px;font-family:Monospace;-inkscape-font-specification:Monospace;text-align:center;letter-spacing:0px;writing-mode:lr-tb;direction:ltr;text-anchor:middle;white-space:pre;inline-size:79.8666;fill:#838383;fill-opacity:1;stroke-width:0.264583"
       x="45.268539"
       y="124.49709"
       id="text23"
       transform="translate(0,1.5875)"><tspan
         x="45.268539"
         y="124.49709"
         id="tspan16">epistemology · ethnography
</tspan><tspan
         x="45.268539"
         y="129.03469"
         id="tspan17">inductive reasoning
</tspan><tspan
         x="45.268539"
         y="133.57229"
         id="tspan18">interpretive methods</tspan></text><text
       xml:space="preserve"
       style="font-size:3.52778px;line-height:4.54px;text-align:center;writing-mode:lr-tb;direction:ltr;text-anchor:middle;white-space:pre;inline-size:90.7781;fill:#838383;fill-opacity:1;stroke-width:0.264583"
       x="111.18568"
       y="124.40876"
       id="text23-9"
       transform="translate(0,1.5875)"><tspan
         x="111.18568"
         y="124.40876"
         id="tspan21"><tspan
           style="font-family:Monospace;-inkscape-font-specification:Monospace"
           id="tspan20">action research
</tspan></tspan><tspan
         x="111.18568"
         y="128.98501"
         id="tspan23"><tspan
           style="font-family:Monospace;-inkscape-font-specification:Monospace"
           id="tspan22">participatory design
</tspan></tspan><tspan
         x="111.18568"
         y="133.56126"
         id="tspan25"><tspan
           style="font-family:Monospace;-inkscape-font-specification:Monospace"
           id="tspan24">qualitative methods</tspan></tspan></text><text
       xml:space="preserve"
       style="font-style:normal;font-variant:normal;font-weight:bold;font-stretch:normal;font-size:4.23333px;line-height:4.37444px;font-family:Georgia;-inkscape-font-specification:'Georgia Bold';text-align:center;writing-mode:lr-tb;direction:ltr;text-anchor:middle;fill:#ac3b61;fill-opacity:1;stroke-width:0.264582"
       x="174.18489"
       y="118.69572"
       id="text16-3-8"><tspan
         style="font-style:normal;font-variant:normal;font-weight:bold;font-stretch:normal;font-size:4.23333px;line-height:4.37444px;font-family:Georgia;-inkscape-font-specification:'Georgia Bold';fill:#ac3b61;fill-opacity:1;stroke-width:0.264582"
         x="174.18489"
         y="118.69572"
         id="tspan19-6-3">Sociotechnical Systems Design</tspan></text><text
       xml:space="preserve"
       style="font-size:3.52778px;line-height:4.5376px;text-align:center;writing-mode:lr-tb;direction:ltr;text-anchor:middle;white-space:pre;inline-size:58.4604;fill:#838383;fill-opacity:1;stroke-width:0.264583"
       x="174.18416"
       y="124.09119"
       id="text23-9-6"
       transform="translate(0,1.5875)"><tspan
         x="174.18416"
         y="124.09119"
         id="tspan27"><tspan
           style="font-family:Monospace;-inkscape-font-specification:Monospace"
           id="tspan26">responsible technologies
</tspan></tspan><tspan
         x="174.18416"
         y="128.66503"
         id="tspan29"><tspan
           style="font-family:Monospace;-inkscape-font-specification:Monospace"
           id="tspan28">community-centred design
</tspan></tspan><tspan
         x="174.18416"
         y="133.23887"
         id="tspan31"><tspan
           style="font-family:Monospace;-inkscape-font-specification:Monospace"
           id="tspan30">capacity building</tspan></tspan></text><text
       xml:space="preserve"
       style="font-style:normal;font-variant:normal;font-weight:normal;font-stretch:normal;font-size:3.88056px;line-height:4.0099px;font-family:Chalkduster;-inkscape-font-specification:Chalkduster;text-align:center;writing-mode:lr-tb;direction:ltr;text-anchor:middle;fill:#858585;fill-opacity:1;stroke-width:0.264582"
       x="113.61623"
       y="156.86414"
       id="text16-8"><tspan
         style="font-style:normal;font-variant:normal;font-weight:normal;font-stretch:normal;font-size:3.88056px;line-height:4.0099px;font-family:Monospace;-inkscape-font-specification:Monospace;fill:#858585;fill-opacity:1;stroke-width:0.264582"
         x="113.61623"
         y="156.86414"
         id="tspan19-5">Human-Computer Interaction Researcher</tspan></text></g><g
     id="g1"
     transform="matrix(0.26458332,0,0,0.26458334,214.1392,-111.31044)"><path
       id="path3"
       style="opacity:0.6;fill:#4a7c59;fill-opacity:1;fill-rule:nonzero;stroke:none;stroke-width:0.00422551"
       d="m -534.60065,433.97929 c -0.007,0.0197 -0.0142,0.0396 -0.0198,0.0605 -0.0865,0.32612 0.10454,0.66153 0.42579,0.7488 0.8509,0.23287 1.7119,0.48633 2.55905,0.75329 0.0596,0.0187 0.11974,0.0269 0.17886,0.0269 0.25667,0 0.49383,-0.16753 0.57393,-0.4298 0.008,-0.0265 0.014,-0.0528 0.0187,-0.0795 -0.0461,-0.01 -0.0914,-0.0209 -0.13718,-0.0324 -0.1042,-0.029 -0.21151,-0.0388 -0.31713,-0.0605 -0.10823,-0.0262 -0.21609,-0.0522 -0.31934,-0.0951 -0.0479,-0.0195 -0.0971,-0.0293 -0.14815,-0.0358 -0.0955,-0.0169 -0.18723,-0.0509 -0.28311,-0.0661 -0.0937,-0.007 -0.1824,-0.042 -0.27434,-0.0571 -0.13677,-0.0223 -0.27193,-0.0541 -0.40603,-0.0896 -0.13237,-0.0437 -0.265,-0.0903 -0.39506,-0.14102 -0.0998,-0.0417 -0.20602,-0.0594 -0.30944,-0.0884 -0.11267,-0.0258 -0.21778,-0.0753 -0.32703,-0.11192 -0.10663,-0.0477 -0.21404,-0.0931 -0.32152,-0.1388 -0.0893,-0.0394 -0.18111,-0.0738 -0.27544,-0.0985 -0.0771,-0.0121 -0.14882,-0.0414 -0.22277,-0.0649 z" /><path
       id="path4"
       style="opacity:0.6;fill:#4a7c59;fill-opacity:1;fill-rule:nonzero;stroke:none;stroke-width:0.00422551"
       d="m -548.03901,431.8392 c -0.17898,1.5e-4 -0.35764,4.3e-4 -0.53662,8.4e-4 -0.2173,0 -0.43454,0.002 -0.65183,0.005 -0.21782,0.004 -0.43561,0.006 -0.65293,0.0235 -0.23788,0.0182 -0.47561,0.0447 -0.71439,0.0426 -0.22512,2e-5 -0.45086,-1.1e-4 -0.67598,0 -0.23956,1.3e-4 -0.47922,3.7e-4 -0.71877,8.3e-4 -0.21061,0 -0.42039,-7e-5 -0.63099,0.004 -0.24183,0.005 -0.48392,0.009 -0.72535,0.0247 -0.25919,0.0162 -0.51816,0.0443 -0.77805,0.0426 -0.27803,0 -0.55597,1.6e-4 -0.83399,0.002 -0.31496,0.002 -0.63,0.003 -0.94484,0.0146 -0.32057,0.0111 -0.64121,0.0276 -0.96129,0.0492 -0.26704,0.0108 -0.53391,0.006 -0.80108,0.0146 -0.21894,0.007 -0.43823,0.0206 -0.65621,0.0436 -0.28844,0.0299 -0.57629,0.0689 -0.86584,0.0862 -0.1807,0.0152 -0.36152,0.0247 -0.5421,0.0381 -0.006,0.0446 -0.006,0.0912 8.3e-4,0.13767 0.0387,0.33549 0.33757,0.57574 0.66828,0.53614 v -8.4e-4 c 6.96324,-0.83017 14.00338,-0.51513 20.9268,0.93462 0.0412,0.009 0.0826,0.0134 0.1229,0.0134 0.27972,0 0.53057,-0.19894 0.58928,-0.48802 0.007,-0.0326 0.0107,-0.0651 0.0121,-0.0974 -0.0885,-0.0137 -0.17756,-0.0237 -0.26666,-0.0324 -0.0975,-0.007 -0.19626,-0.0113 -0.2941,-0.0134 -0.11043,-0.0103 -0.21726,-0.0396 -0.327,-0.0548 -0.0837,-0.0108 -0.16821,-0.0147 -0.25241,-0.0168 -0.12556,-0.0147 -0.25007,-0.0401 -0.372,-0.0739 -0.0682,-0.0199 -0.13489,-0.0474 -0.20521,-0.0582 -0.10928,-0.0309 -0.21901,-0.0598 -0.32702,-0.0951 -0.12791,-0.0309 -0.25169,-0.0734 -0.3753,-0.11864 -0.11567,-0.0431 -0.23896,-0.0575 -0.35883,-0.0828 -0.1339,-0.0311 -0.26891,-0.0533 -0.40164,-0.0895 -0.13442,-0.0392 -0.26244,-0.0979 -0.39615,-0.13879 -0.13619,-0.0427 -0.27261,-0.0863 -0.40822,-0.13096 -0.14518,-0.0621 -0.29815,-0.0999 -0.44992,-0.14103 -0.0251,-0.007 -0.0496,-0.0148 -0.0746,-0.0224 h -0.21728 -0.53222 -0.40054 -0.27873 -0.31714 -0.34788 c -0.14437,0.002 -0.28829,0.004 -0.43235,-0.007 -0.18744,-0.0164 -0.37283,-0.0453 -0.55856,-0.075 -0.17534,-0.0348 -0.34854,-0.0815 -0.52125,-0.1276 -0.12896,-0.0345 -0.22749,-0.0878 -0.29739,-0.14999 h -0.56076 -0.64854 c -0.17626,0 -0.35266,-2e-5 -0.52892,0 -0.15984,3e-5 -0.31971,-8e-5 -0.47956,0 z" /><path
       id="path5"
       style="opacity:0.6;fill:#4a7c59;fill-opacity:1;fill-rule:nonzero;stroke:none;stroke-width:0.00422551"
       d="m -526.31964,430.99969 c -0.0122,0.005 -0.0234,0.0114 -0.0352,0.0176 h -0.002 v 0.002 h -0.002 v 0.002 l -0.002,0.002 v 0.002 0.002 c 0.0137,-0.009 0.0278,-0.0179 0.041,-0.0274 z m 1.85351,1.28516 c -0.0335,0.06 -0.0712,0.11758 -0.11133,0.17383 -0.0429,0.0597 -0.077,0.12541 -0.11328,0.18945 v 0.002 l -0.002,0.002 c -0.006,0.0324 -0.0139,0.0646 -0.0234,0.0957 0.005,0.0105 0.009,0.0207 0.0137,0.0312 0.0283,0.0592 0.0656,0.11206 0.0996,0.16797 0.0442,0.0852 0.0637,0.12528 0.0996,0.19726 0.0282,0.0522 0.0404,0.10769 0.082,0.16407 0.0435,0.073 0.0934,0.1416 0.13282,0.21875 0.0318,0.0893 0.0582,0.13817 0.0918,0.23047 0.0389,0.10725 0.0487,0.22116 0.0566,0.33398 -10e-4,0.0807 0.006,0.11083 0.0215,0.16992 0.0236,0.0844 0.0347,0.17098 0.0449,0.25781 -0.001,0.0278 0.007,0.0571 0.01,0.0859 0.003,0.008 0.005,0.0256 0.008,0.0332 0.0182,0.086 0.042,0.13093 0.0703,0.21875 0.0317,0.10706 0.044,0.21917 0.0527,0.33008 0.0114,0.0563 0.0312,0.0978 0.0527,0.15039 0.0345,0.075 0.0468,0.16253 0.0879,0.23438 0.0424,0.10396 0.0833,0.20862 0.12109,0.31445 0.0282,0.0524 0.0337,0.15441 0.0625,0.21875 0.12148,0.13973 0.24284,0.27911 0.36524,0.41797 0.10297,0.12627 0.21237,0.24524 0.32226,0.36523 0.10352,0.10923 0.19836,0.22615 0.28516,0.34961 0.0786,0.0991 0.15417,0.20027 0.24023,0.29297 0.0513,0.0721 0.12442,0.12945 0.19141,0.18555 0.0997,0.0706 0.2102,0.12929 0.29883,0.21484 0.0738,0.0716 0.14922,0.14078 0.21875,0.2168 0.0592,0.0725 0.12234,0.15835 0.1582,0.23438 0.0382,0.0613 0.0789,0.12142 0.1211,0.17968 0.0471,0.067 0.0892,0.13815 0.13867,0.20313 0.0627,0.0849 0.11658,0.17767 0.1875,0.25586 0.0648,0.0769 0.12661,0.15446 0.18554,0.23633 0.0662,0.0765 0.0817,0.10823 0.14844,0.1914 0.0409,0.0606 0.0804,0.12187 0.11328,0.1875 0.0346,0.0589 0.052,0.0959 0.11719,0.16992 0.0326,0.0635 0.0826,0.12034 0.11914,0.18164 0.0689,0.0967 0.12564,0.1977 0.17383,0.30664 h -0.002 l -0.002,-0.002 -0.002,-0.002 v -0.002 h -0.002 v -0.002 h -0.002 -0.002 c 0.007,0.017 0.0832,0.11728 0.11719,0.16992 0.007,0.0119 0.0142,0.0241 0.0215,0.0371 0.0423,0.0712 0.0806,0.14573 0.12305,0.2168 0.0723,0.0331 0.14791,0.0862 0.22266,0.16602 0.0541,0.0578 0.11809,0.10776 0.16601,0.17187 0.0899,0.10408 0.18149,0.20899 0.25781,0.32422 0.067,0.10125 0.10597,0.19414 0.12305,0.27734 0.0284,0.0228 0.0589,0.049 0.0879,0.0781 0.11352,0.11395 0.18619,0.26194 0.29102,0.38281 0.008,0.009 0.0165,0.0207 0.0254,0.0293 0.47799,0.51662 -0.0308,1.01089 -0.50196,0.51562 -0.047,0.19033 -0.11694,0.30826 -0.27539,0.0742 -0.0549,-0.0812 -0.0506,-0.0797 -0.10742,-0.15625 -0.0131,-0.0192 -0.0735,-0.0973 -0.0781,-0.10937 -0.0499,-0.0506 -0.10071,-0.10143 -0.15235,-0.15039 -0.0366,-0.0337 -0.0747,-0.0665 -0.11328,-0.0977 -0.007,-0.004 -0.0122,-0.008 -0.0156,-0.01 -0.0967,-0.0682 -0.18417,-0.14838 -0.26367,-0.23632 -0.0508,-0.0624 -0.10488,-0.12661 -0.16993,-0.17383 -0.0987,-0.0572 -0.16666,-0.1514 -0.25195,-0.22461 -0.0756,-0.067 -0.14683,-0.13987 -0.23437,-0.19141 -0.0269,-0.0163 -0.0528,-0.0356 -0.0781,-0.0547 -0.0846,0.01 -0.16956,0.0128 -0.25586,0.01 -0.10298,-0.008 -0.20594,-0.0221 -0.30664,-0.0449 -0.11699,-0.0286 -0.20392,-0.11448 -0.30664,-0.17188 -0.10647,-0.0535 -0.20046,-0.13076 -0.30273,-0.1914 -0.11164,-0.0686 -0.2235,-0.13297 -0.32813,-0.21289 -0.0946,-0.0713 -0.19114,-0.13719 -0.28516,-0.20899 -0.0345,-0.009 -0.0693,-0.0193 -0.10351,-0.0293 -0.27221,-0.0795 -0.40354,-0.23821 -0.41992,-0.38868 v -0.002 h -0.002 c -6.60288,-2.85982 -13.37086,-4.69211 -20.18359,-5.46094 -6.84039,-0.77189 -13.73717,-0.47829 -20.5,0.87305 -6.01848,1.20228 -10.81715,3.03842 -13.78321,4.36719 -3.24315,1.45267 -5.05342,2.62092 -5.1289,2.66992 -0.57114,0.37083 -0.81218,1.069 -0.63867,1.69922 0.0316,-0.021 0.0668,-0.0419 0.10546,-0.0605 0.0504,-0.024 0.0947,-0.0584 0.14649,-0.0801 0.0674,-0.0344 0.13446,-0.0734 0.19531,-0.11914 0.0724,-0.052 0.15573,-0.11358 0.22266,-0.15429 0.0734,-0.0509 0.1469,-0.10056 0.22461,-0.14454 0.0517,-0.0271 0.10142,-0.0642 0.15625,-0.0859 0.0773,-0.0509 0.15767,-0.0958 0.23632,-0.14453 0.10501,-0.0567 0.20887,-0.12049 0.32618,-0.14649 0.0988,-0.0299 0.19657,-0.0659 0.29687,-0.0898 0.0819,-0.0574 0.16795,-0.10557 0.25391,-0.15625 v -0.002 -0.002 l 0.002,-0.002 0.002,-0.002 h 0.002 c 0.0378,-0.0246 0.18637,-0.0732 0.20508,-0.0859 v -0.002 c 0.0507,-0.0483 0.13126,-0.0873 0.19726,-0.125 0.0769,-0.0451 0.16459,-0.073 0.23633,-0.12695 0.10293,-0.0771 0.22835,-0.11646 0.33203,-0.19141 0.11188,-0.0778 0.22806,-0.14835 0.34766,-0.21289 0.14868,-0.0717 0.29537,-0.14573 0.44922,-0.20507 0.15292,-0.0652 0.31092,-0.1177 0.47265,-0.1543 0.10351,-0.0416 0.21519,-0.0531 0.32031,-0.0879 0.11049,-0.0282 0.2172,-0.0662 0.32618,-0.0996 0.13505,-0.0333 0.26999,-0.0715 0.40625,-0.0996 0.10438,-0.0347 0.21369,-0.0511 0.32031,-0.0762 0.0498,-0.0321 0.0968,-0.0697 0.15039,-0.0937 0.0614,-0.0318 0.12144,-0.0639 0.18164,-0.0977 0.0888,-0.0637 0.18053,-0.12033 0.27539,-0.17383 0.102,-0.0544 0.20666,-0.10363 0.30664,-0.16211 0.0628,-0.0318 0.12675,-0.0625 0.18555,-0.10156 0.097,-0.0754 0.19796,-0.14072 0.30664,-0.19726 0.10093,-0.062 0.20802,-0.11625 0.30078,-0.19141 0.11526,-0.0715 0.22557,-0.14835 0.34375,-0.21484 0.11742,-0.0751 0.23984,-0.14293 0.36133,-0.21094 0.0825,-0.0379 0.16157,-0.0832 0.24219,-0.125 0.10506,-0.0506 0.21505,-0.0866 0.32421,-0.12695 0.0987,-0.0267 0.19597,-0.0608 0.29688,-0.0781 0.12275,-0.0312 0.2448,-0.0639 0.36914,-0.0879 0.13889,-0.0375 0.27489,-0.0828 0.41406,-0.11914 0.0457,-0.0142 0.0927,-0.0281 0.13867,-0.041 -0.005,-0.0785 -0.007,-0.15627 -0.01,-0.23437 v -0.002 -0.002 -0.002 -0.002 h 0.002 l 0.002,-0.004 0.002,-0.002 0.002,-0.002 h 0.002 0.002 c 0.0169,-0.003 0.0436,8.7e-4 0.0586,-0.004 0.18229,-0.0409 0.35825,-0.11048 0.54688,-0.11914 0.2028,-0.006 0.405,-0.0152 0.60742,-0.0293 0.27664,-0.0652 0.55329,-0.13258 0.83008,-0.19727 0.0122,-0.16249 0.15946,-0.34196 0.45898,-0.42187 0.17576,-0.0467 0.35078,-0.0947 0.52734,-0.13867 0.22669,-0.0631 0.45588,-0.11099 0.6836,-0.16992 0.16096,-0.0377 0.32256,-0.0754 0.48047,-0.125 0.15626,-0.0416 0.31062,-0.0854 0.46679,-0.12696 0.14609,-0.0386 0.29501,-0.0759 0.44141,-0.11328 0.1595,-0.0392 0.31639,-0.0866 0.47656,-0.12305 0.15643,-0.0416 0.31216,-0.0766 0.4668,-0.125 0.19139,-0.06 0.39102,-0.0916 0.58594,-0.13671 0.15821,-0.0301 0.31133,-0.0756 0.46875,-0.10938 0.15123,-0.0372 0.30214,-0.0789 0.45312,-0.11719 0.18283,-0.0344 0.36565,-0.0727 0.54883,-0.10547 0.16366,-0.0173 0.32423,-0.0526 0.48633,-0.0801 0.15026,-0.0333 0.29834,-0.0708 0.44531,-0.11719 0.16287,-0.0678 0.32709,-0.13183 0.49609,-0.18164 0.21378,-0.06 0.43596,-0.0804 0.65625,-0.0977 0.12517,-0.009 0.2497,-0.0145 0.37501,-0.0176 0.12081,-0.0249 0.2409,-0.0519 0.36132,-0.0781 0.11124,-0.0162 0.21803,-0.0409 0.32618,-0.0703 0.11216,-0.0273 0.22374,-0.0641 0.33593,-0.0918 0.12094,-0.0284 0.24361,-0.0384 0.36719,-0.0449 0.11463,0.002 0.22649,-0.0163 0.33984,-0.0312 0.18309,-0.0234 0.3684,-0.0345 0.55274,-0.041 0.0328,-8.3e-4 0.0648,-5.3e-4 0.0976,-0.002 0.0381,-0.009 0.0771,-0.0172 0.11524,-0.0254 0.13601,-0.0199 0.26881,-0.0528 0.4043,-0.0762 0.13341,-0.0236 0.26929,-0.0344 0.40429,-0.043 0.13752,-0.004 0.27345,-0.006 0.41016,-0.0215 0.16842,-0.0219 0.3341,-0.0595 0.50195,-0.0859 0.11047,-0.0108 0.21645,-0.0293 0.32422,-0.0547 0.12196,-0.0277 0.24611,-0.0554 0.36914,-0.0781 0.0434,-0.008 0.084,-0.0118 0.12305,-0.0137 0.10638,-0.005 0.19648,0.0129 0.26758,0.0449 0.14845,-0.0272 0.2952,-0.0616 0.44531,-0.0781 0.15321,-0.0201 0.30669,-0.0209 0.46094,-0.0215 0.16639,-0.005 0.3336,-0.0127 0.49804,-0.041 0.22313,-0.0202 0.44579,-0.0337 0.66993,-0.0273 0.17692,0 0.35238,8.7e-4 0.52929,-0.002 0.16333,-0.002 0.3271,-0.007 0.49024,-0.0156 0.23259,-0.0119 0.4651,-0.0274 0.69726,-0.0469 0.20498,-0.0108 0.41003,-0.0107 0.61524,-0.0117 h 0.62695 0.7207 0.58789 c 0.18705,0 0.37543,10e-6 0.5625,0 0.2106,-3e-5 0.42024,-0.0117 0.63086,-0.0117 0.18881,-1.3e-4 0.37762,5.7e-4 0.56641,0 0.22266,-0.002 0.44534,-0.003 0.66797,-0.008 0.19596,-0.005 0.39247,-0.009 0.58789,-0.0234 0.19638,-0.0169 0.39241,-0.0463 0.58984,-0.0449 0.18155,-0.002 0.36357,-0.007 0.54492,-0.0156 0.19684,-0.0111 0.39153,-0.0276 0.5879,-0.0449 0.24981,-0.013 0.50006,1.6e-4 0.75,0.006 0.24234,0.007 0.48482,0.0196 0.72656,0.0391 0.21813,0.0175 0.43523,0.0302 0.65429,0.0215 0.2043,2e-5 0.40899,0.004 0.61329,0.008 0.19064,0.002 0.38179,0.006 0.57226,0.0156 0.17338,0.009 0.34612,0.0218 0.51758,0.0508 0.1536,0.0234 0.30868,0.0236 0.46289,0.041 0.11045,0.0158 0.21816,0.0456 0.32813,0.0586 0.16649,0.0191 0.33383,0.0443 0.49414,0.0957 0.16163,0.0565 0.32037,0.1219 0.47265,0.20117 0.0628,0.0312 0.12688,0.0601 0.19141,0.0879 0.026,-5.7e-4 0.0518,-0.008 0.0781,-0.008 0.0417,-3.4e-4 0.0851,8e-5 0.12696,0 0.0363,-5e-5 0.0712,0 0.10742,0 0.0344,0 0.069,10e-6 0.10351,0 h 0.12696 c 0.0555,-0.002 0.10958,6.5e-4 0.16406,0.0137 0.0341,0.009 0.0684,0.0113 0.10352,0.0156 0.0359,0.002 0.0732,0.0107 0.10937,0.0117 0.0586,-0.005 0.11628,0.004 0.17383,0.0156 0.0573,0.0106 0.11281,0.0302 0.16992,0.041 0.0593,0.0126 0.11759,0.0257 0.17578,0.043 0.0523,0.0187 0.10735,0.0315 0.16016,0.0488 0.0503,0.0137 0.0971,0.0375 0.14648,0.0547 0.0436,0.007 0.0848,0.0183 0.12696,0.0312 0.0408,0.0117 0.0821,0.0184 0.12304,0.0293 0.0439,0.013 0.0883,0.0237 0.13086,0.041 0.0131,0.005 0.0263,0.01 0.0391,0.0156 0.0353,0.007 0.07,0.0135 0.10547,0.0195 0.0931,0.008 0.1861,0.0194 0.27735,0.041 0.0851,0.0182 0.17315,0.0295 0.2539,0.0644 0.0738,0.0306 0.15133,0.0498 0.22461,0.082 0.0745,0.0321 0.15048,0.0597 0.22657,0.0879 0.0738,0.0275 0.14693,0.0526 0.2207,0.0801 0.0599,0.0247 0.12071,0.0512 0.18359,0.0664 0.0683,0.0164 0.13474,0.0394 0.20313,0.0566 0.007,0.002 0.0154,0.005 0.0234,0.006 0.0399,0.004 0.081,0.0117 0.1211,0.0117 0.0638,0.002 0.12761,0.005 0.1914,0.006 0.053,4.7e-4 0.10518,0.004 0.15821,0.004 0.0413,8e-5 0.0836,0 0.125,0 0.052,-0.002 0.1016,-9e-4 0.15234,0.0117 0.0245,0.009 0.0506,0.0155 0.0762,0.0176 0.0388,0.002 0.077,0.007 0.11524,0.0137 0.0389,0.0134 0.0771,0.0258 0.11523,0.041 0.0213,0.009 0.042,0.0132 0.0645,0.0176 0.0415,0.005 0.0831,0.008 0.12304,0.0215 0.0427,0.009 0.0833,0.0261 0.125,0.0391 0.0458,0.008 0.0886,0.0261 0.13281,0.0391 0.009,0.003 0.0134,0.005 0.0156,0.006 h 0.002 c 0.002,2.8e-4 0.004,8e-4 0.008,0.002 0.0786,0.0172 0.13407,0.0473 0.16992,0.0859 0.0295,0.002 0.0587,0.006 0.0879,0.01 0.0593,0.007 0.11815,0.0228 0.17773,0.0293 0.0652,0.009 0.12949,0.0226 0.18946,0.0508 0.0419,0.0184 0.0829,0.0375 0.125,0.0547 0.056,0.0184 0.11235,0.0391 0.16796,0.0586 0.0486,0.0203 0.0978,0.0395 0.14844,0.0547 0.0711,0.0242 0.14035,0.0543 0.21094,0.0801 0.0576,0.0241 0.1155,0.0434 0.17578,0.0586 0.0734,0.0234 0.14379,0.0541 0.21484,0.084 0.0682,0.0288 0.13593,0.0581 0.20508,0.084 0.0663,0.0249 0.13107,0.0547 0.19922,0.0742 0.0753,0.0242 0.15101,0.0512 0.22656,0.0742 0.071,0.0227 0.1401,0.0493 0.21289,0.0645 0.0895,0.0182 0.17988,0.0296 0.26954,0.0469 0.0691,0.0173 0.135,0.0441 0.20117,0.0703 0.0567,0.0217 0.11369,0.0392 0.17187,0.0566 0.0646,0.0191 0.13175,0.0298 0.19531,0.0527 0.0645,0.0223 0.1299,0.0416 0.19141,0.0723 0.0609,0.0245 0.12094,0.0511 0.18164,0.0762 0.057,0.0247 0.11618,0.0431 0.17578,0.0605 0.0579,0.018 0.11707,0.0348 0.17383,0.0566 0.0592,0.015 0.11733,0.0283 0.17774,0.0371 0.0746,0.013 0.15213,0.006 0.22656,0.0234 0.066,0.0117 0.13095,0.0283 0.19726,0.0391 0.0615,0.0134 0.12179,0.0299 0.1836,0.043 0.0615,0.0152 0.12366,0.0261 0.18554,0.0391 0.0626,0.0173 0.12562,0.0352 0.1875,0.0547 0.0567,0.0212 0.1121,0.0447 0.16797,0.0684 0.0513,0.018 0.10259,0.0383 0.15235,0.0605 0.0548,0.0184 0.10907,0.0374 0.16406,0.0547 0.0486,0.0191 0.0982,0.0353 0.14648,0.0547 0.0577,0.0184 0.11569,0.0412 0.17383,0.0586 0.0666,0.0197 0.1329,0.0339 0.19531,0.0664 0.0541,0.0212 0.10774,0.045 0.16211,0.0645 0.0707,0.0219 0.14367,0.0411 0.21485,0.0605 0.0807,0.0247 0.16026,0.0502 0.23633,0.0879 0.0275,0.0135 0.0549,0.0267 0.082,0.041 0.20025,0.0554 0.39951,0.11278 0.5957,0.18164 0.20831,0.0729 0.41563,0.14728 0.62305,0.22266 0.15323,0.0554 0.30899,0.10514 0.46093,0.16406 0.1401,0.0517 0.26605,0.13512 0.39649,0.20703 0.14127,0.0778 0.28013,0.16009 0.41797,0.24414 0.16198,0.10113 0.32312,0.2007 0.49023,0.29297 0.13993,0.0775 0.28098,0.15525 0.41797,0.23828 0.0346,0.006 0.0699,0.0143 0.10742,0.0254 0.15055,0.0448 0.30259,0.0854 0.45117,0.13672 0.11738,0.0467 0.23756,0.082 0.35547,0.12695 0.12261,0.0362 0.2405,0.0865 0.35352,0.14649 0.12058,0.072 0.23491,0.15421 0.35742,0.22265 0.12192,0.0712 0.23678,0.15206 0.35547,0.22852 0.10956,0.0784 0.22946,0.14098 0.3418,0.21484 0.11076,0.0648 0.21748,0.13773 0.32422,0.20899 0.10395,0.0681 0.21104,0.12622 0.31054,0.20117 0.0732,0.0615 0.15602,0.11187 0.23438,0.16602 0.0903,0.057 0.17377,0.12186 0.25976,0.18554 0.0634,0.0438 0.12643,0.0923 0.19532,0.12696 0.10394,0.0377 0.20086,0.0969 0.29296,0.1582 0.0735,0.0502 0.15803,0.0782 0.23633,0.11914 0.033,0.0205 0.0663,0.041 0.0996,0.0605 0.049,-0.0267 0.10733,-0.0441 0.17578,-0.0469 0.0923,-0.004 0.20134,0.0172 0.32227,0.0723 0.0512,0.0227 0.0308,0.0118 0.0606,0.0293 0.0969,0.0325 0.19628,0.0639 0.29296,0.0996 0.58907,0.21849 0.44986,0.76985 -0.0547,0.72461 -0.2173,0.1457 -0.45841,0.28549 -0.18164,0.33203 -0.0637,-0.008 -0.12567,-0.0183 -0.1875,-0.0371 -0.0793,-0.0258 -0.0883,-0.0367 -0.16797,-0.041 -0.0836,-0.0119 -0.16577,-0.0254 -0.24805,-0.0449 h -0.33789 c -0.0814,0.0194 -0.16316,0.0338 -0.24609,0.0449 -0.0963,0.003 -0.188,0.0175 -0.28125,0.0391 -0.0896,0.0102 -0.1739,0.0424 -0.25977,0.0684 -0.0337,0.01 -0.0667,0.0188 -0.10156,0.0254 -0.0408,0.0119 -0.0824,0.0205 -0.125,0.0273 -0.0177,0.002 -0.0352,0.004 -0.0527,0.006 -0.0759,0.0287 -0.16236,0.0281 -0.23828,0.0547 -0.0819,0.0319 -0.17034,0.0387 -0.25195,0.0703 -0.0957,0.0444 -0.20105,0.0519 -0.30078,0.0801 -0.089,0.028 -0.17987,0.0491 -0.27149,0.0664 -0.0673,0.008 -0.13156,0.0354 -0.19726,0.0527 -0.007,0.003 -0.0259,0.008 -0.0508,0.0137 -0.13927,0.15144 -0.31175,0.23478 -0.51758,0.26368 -0.063,0.0289 -0.12692,0.0556 -0.19141,0.0801 -0.0558,0.0708 -0.14379,0.13734 -0.26953,0.19141 -0.1254,0.0539 -0.25445,0.0999 -0.38476,0.14063 -0.10179,0.0346 -0.19939,0.0766 -0.29883,0.11718 -0.0973,0.0338 -0.19535,0.0649 -0.29297,0.0977 -0.0619,0.0404 -0.13751,0.0568 -0.20313,0.0898 -0.0623,0.0272 -0.12152,0.0633 -0.17968,0.0996 -0.0778,0.0458 -0.15609,0.0933 -0.23633,0.13477 -0.0601,0.0371 -0.12188,0.0752 -0.1836,0.11133 -0.0586,0.0347 -0.13446,0.0748 -0.21289,0.11914 -0.0845,0.0504 -0.17033,0.0978 -0.25586,0.14648 -0.0673,0.0315 -0.12854,0.0734 -0.19336,0.10938 -0.0742,0.0472 -0.15345,0.0845 -0.23632,0.11328 v 0.002 l -0.002,0.002 c -0.0216,0.0139 -0.12733,0.0602 -0.14453,0.0684 -0.0577,0.0373 -0.16046,0.0538 -0.20117,0.0781 -0.10337,0.0456 -0.21112,0.0823 -0.32031,0.11133 -0.10239,0.036 -0.20324,0.0742 -0.30664,0.10742 -0.0588,0.0157 -0.11747,0.0333 -0.17578,0.0508 -0.005,0.0611 -0.007,0.12198 -0.01,0.18359 0.003,0.11589 -0.007,0.22885 -0.0254,0.3418 1.2129,-0.25666 2.42555,-0.51298 3.63867,-0.76953 1.30186,-0.27514 2.60416,-0.55074 3.90625,-0.82617 0.045,-0.14032 0.19512,-0.2751 0.45899,-0.33008 0.16445,-0.0342 0.32154,-0.0926 0.48046,-0.14649 0.1998,-0.0761 0.39153,-0.16942 0.5879,-0.2539 0.17382,-0.0656 0.35314,-0.11922 0.5332,-0.16406 0.12627,-0.0288 0.24441,-0.0774 0.35742,-0.14063 0.14997,-0.0788 0.29167,-0.17267 0.44141,-0.25195 0.16031,-0.0845 0.32932,-0.14551 0.50195,-0.19727 0.25255,-0.0843 0.50793,-0.15832 0.76562,-0.22461 0.0235,-0.007 0.0422,-0.0116 0.0566,-0.0156 0.11195,-0.31146 0.13288,-0.64375 0.0664,-0.95899 -0.13361,-0.0119 -0.28275,-0.11228 -0.39258,-0.33007 -0.0222,-0.044 -0.0539,-0.0809 -0.0723,-0.12696 -0.0264,-0.0578 -0.0558,-0.0954 -0.0859,-0.15039 -0.0452,-0.0793 -0.0839,-0.16312 -0.13281,-0.24023 -0.0318,-0.0606 -0.0691,-0.1175 -0.10742,-0.17383 l -0.006,-0.008 c -0.003,-0.005 -0.006,-0.009 -0.0137,-0.0195 -0.0265,-0.0364 -0.0528,-0.0738 -0.0781,-0.11133 v -0.002 h -0.002 c -0.003,-0.004 -0.007,-0.009 -0.01,-0.0137 -0.0539,-0.0855 -0.10514,-0.174 -0.15234,-0.26367 -0.0394,-0.1 -0.0973,-0.19291 -0.12305,-0.29883 -0.0227,-0.0864 -0.0538,-0.1714 -0.0762,-0.25781 -2.19927,-3.06092 -4.39808,-6.12108 -6.59766,-9.18164 z m 2.48633,7.47851 c -0.006,0.0178 -0.0136,0.0342 -0.0215,0.0508 0.0142,0.007 0.0289,0.0143 0.043,0.0215 h 0.002 v 0.002 h 0.002 0.002 v 0.002 h 0.002 c 0.016,0.009 0.0301,0.0178 0.0469,0.0254 0.011,0.005 0.024,0.01 0.0352,0.0137 -0.0367,-0.039 -0.0741,-0.0767 -0.11133,-0.11524 z m -1.23242,2.95899 c 0.007,0.0158 0.0147,0.0308 0.0215,0.0469 0.0107,-0.007 0.0204,-0.0112 0.0312,-0.0156 -0.0162,-0.01 -0.0325,-0.0197 -0.0488,-0.0293 l -0.002,-0.002 z m -0.60547,0.63281 c 0.006,0.017 0.008,0.0284 0.008,0.0332 0.006,0.005 0.01,0.009 0.0137,0.0137 -0.006,-0.0186 -0.0128,-0.0306 -0.0176,-0.0469 l -0.002,0.002 z m 0.76953,0.2832 c 8.2e-4,0.0253 0.002,0.0508 0.004,0.0762 0.007,-0.0171 0.0144,-0.034 0.0215,-0.0527 -0.007,-0.007 -0.0156,-0.016 -0.0234,-0.0234 z m 1.38477,0.0879 c 0.006,0.0121 0.008,0.0247 0.0117,0.0371 0.0138,-0.002 0.0271,-0.002 0.041,-0.004 -0.0174,-0.0116 -0.0347,-0.0231 -0.0527,-0.0332 z m -7.63868,3.85546 c -0.0105,0.0114 -0.0209,0.0219 -0.0312,0.0332 -0.002,0.01 -0.005,0.0197 -0.008,0.0293 0.015,-0.005 0.0287,-0.0128 0.0352,-0.0254 0.007,-0.004 0.0131,-0.009 0.0195,-0.0137 -0.006,-0.008 -0.0105,-0.0155 -0.0156,-0.0234 z m -3.64843,0.13282 c -0.0227,0.0146 -0.0514,0.0356 -0.0605,0.0449 l -0.002,0.002 v 0.002 c 0.0291,-0.005 0.0488,-0.0233 0.0625,-0.0488 z" /><path
       id="path3-9"
       style="opacity:1;fill:#4a7c59;fill-opacity:1;fill-rule:nonzero;stroke:none;stroke-width:0.00516179"
       d="m -300.50298,536.52012 c -0.009,-0.025 -0.0168,-0.0501 -0.0234,-0.0766 -0.10176,-0.4133 0.1231,-0.83839 0.50133,-0.94899 1.00192,-0.29512 2.01573,-0.61635 3.01322,-0.95467 0.0701,-0.0238 0.14098,-0.0341 0.2106,-0.0341 0.30221,0 0.58147,0.21232 0.67579,0.54471 0.01,0.0336 0.0167,0.067 0.022,0.10065 -0.0542,0.0127 -0.10766,0.0265 -0.16153,0.041 -0.12269,0.0367 -0.24905,0.0492 -0.37341,0.0766 -0.12744,0.0331 -0.25445,0.0662 -0.376,0.12056 -0.0564,0.0247 -0.11431,0.0372 -0.17444,0.0454 -0.11251,0.0214 -0.22047,0.0645 -0.33337,0.0837 -0.1103,0.008 -0.21476,0.0532 -0.32304,0.0723 -0.16103,0.0283 -0.32018,0.0684 -0.47808,0.11348 -0.15585,0.0555 -0.31203,0.11449 -0.46514,0.17873 -0.11748,0.0527 -0.2426,0.0752 -0.36438,0.11207 -0.13265,0.0327 -0.25642,0.0954 -0.38505,0.14185 -0.12557,0.0604 -0.25203,0.11797 -0.37861,0.17589 -0.10519,0.0499 -0.21323,0.0935 -0.3243,0.12482 -0.0909,0.0153 -0.17523,0.0524 -0.26231,0.0822 z" /><path
       id="path4-2"
       style="opacity:1;fill:#4a7c59;fill-opacity:1;fill-rule:nonzero;stroke:none;stroke-width:0.00516179"
       d="m -316.32622,539.23233 c -0.21073,-1.9e-4 -0.4211,-5.3e-4 -0.63184,-9.1e-4 -0.25586,0 -0.51166,-0.004 -0.76751,-0.006 -0.25648,-0.006 -0.51293,-0.007 -0.76881,-0.0297 -0.28008,-0.023 -0.56,-0.0568 -0.84118,-0.0539 -0.26506,-4e-5 -0.53086,1.4e-4 -0.79593,0 -0.2821,-1.8e-4 -0.56426,-4.6e-4 -0.84634,-9.2e-4 -0.24797,0 -0.495,10e-5 -0.74296,-0.006 -0.28475,-0.006 -0.5698,-0.0121 -0.85409,-0.0312 -0.30518,-0.0205 -0.61011,-0.0562 -0.91613,-0.0539 -0.32736,0 -0.65462,-2.2e-4 -0.98198,-0.004 -0.37085,-0.004 -0.74182,-0.005 -1.11253,-0.0185 -0.37745,-0.014 -0.75499,-0.0349 -1.13189,-0.0625 -0.31441,-0.0137 -0.62865,-0.007 -0.94323,-0.0185 -0.25781,-0.01 -0.51601,-0.0261 -0.7727,-0.0554 -0.3396,-0.0379 -0.67853,-0.0873 -1.01946,-0.10923 -0.21279,-0.0191 -0.42569,-0.0314 -0.63832,-0.0482 -0.007,-0.0567 -0.007,-0.11561 8.3e-4,-0.17448 0.0456,-0.42518 0.39748,-0.72966 0.7869,-0.67948 v 9.2e-4 c 8.19898,1.05212 16.48851,0.65285 24.64062,-1.18447 0.0485,-0.0109 0.0973,-0.017 0.14471,-0.017 0.32934,0 0.62474,0.25211 0.69386,0.61847 0.008,0.0415 0.0126,0.0826 0.0142,0.12341 -0.1042,0.0173 -0.20908,0.0302 -0.31399,0.041 -0.11484,0.008 -0.23109,0.0144 -0.34628,0.017 -0.13004,0.0132 -0.25582,0.0503 -0.38505,0.0694 -0.0985,0.0137 -0.19805,0.0185 -0.29719,0.0213 -0.14785,0.0188 -0.29444,0.0508 -0.43802,0.0937 -0.0804,0.0252 -0.15882,0.0601 -0.24164,0.0738 -0.12867,0.0392 -0.25786,0.0758 -0.38504,0.12056 -0.15061,0.0392 -0.29635,0.093 -0.44191,0.15036 -0.1362,0.0545 -0.28137,0.0729 -0.42252,0.10496 -0.15765,0.0395 -0.31663,0.0676 -0.47291,0.11347 -0.15827,0.0498 -0.30902,0.12403 -0.46645,0.1759 -0.16036,0.0542 -0.32098,0.10942 -0.48066,0.16598 -0.17096,0.0788 -0.35106,0.12657 -0.52977,0.17873 -0.0294,0.01 -0.0585,0.0189 -0.088,0.0284 h -0.25585 -0.62667 -0.47163 -0.32819 -0.37342 -0.4096 c -0.17001,-0.004 -0.33946,-0.006 -0.5091,0.008 -0.2207,0.0208 -0.439,0.0574 -0.65768,0.0951 -0.20647,0.0442 -0.41039,0.10323 -0.61376,0.16171 -0.15185,0.0437 -0.26788,0.11129 -0.35016,0.1901 h -0.66027 -0.76364 c -0.20753,0 -0.41527,10e-6 -0.62278,0 -0.18824,-4e-5 -0.37647,1.1e-4 -0.56467,0 z" /><path
       id="path5-4"
       style="opacity:1;fill:#4a7c59;fill-opacity:1;fill-rule:nonzero;stroke:none;stroke-width:0.00431415"
       d="m -299.82744,524.51141 c 0.0938,0.0242 0.18662,0.0477 0.28125,0.0703 0.0891,0.0223 0.17931,0.0421 0.26953,0.0606 -0.0781,-0.0421 -0.13972,-0.0771 -0.23633,-0.0918 -0.10516,-0.0127 -0.20924,-0.0273 -0.31445,-0.0391 z m 3.53125,0.18164 c -0.0669,0.15032 -0.13779,0.29818 -0.2168,0.44336 -0.0211,0.0412 -0.043,0.082 -0.0645,0.12305 0.21927,0.0591 0.43835,0.11675 0.6582,0.17382 0.17189,0.0428 0.34547,0.084 0.51953,0.11719 0.22179,0.0473 0.44036,0.1067 0.66211,0.1543 0.20413,0.0519 0.41047,0.0955 0.61328,0.15234 0.20588,0.0553 0.41506,0.0956 0.62109,0.15039 0.18301,0.0429 0.36502,0.0901 0.54102,0.15625 0.18214,0.0586 0.36676,0.11513 0.54883,0.17383 0.20241,0.0656 0.40546,0.12824 0.59961,0.21484 0.21318,0.0291 0.39091,0.11321 0.53515,0.26563 0.0256,0.005 0.0457,0.01 0.0527,0.0137 0.068,0.0175 0.13342,0.0447 0.20312,0.0527 0.0949,0.0175 0.18915,0.0402 0.28125,0.0684 0.10329,0.0283 0.2133,0.0354 0.3125,0.0801 0.0845,0.0318 0.17672,0.0381 0.26172,0.0703 0.0786,0.027 0.1675,0.0257 0.2461,0.0547 0.0181,10e-4 0.0363,0.005 0.0547,0.008 0.0442,0.007 0.0867,0.0135 0.12891,0.0254 0.0362,0.007 0.0725,0.0154 0.10742,0.0254 0.0889,0.0261 0.17478,0.0582 0.26758,0.0684 0.0966,0.0218 0.19131,0.0351 0.29101,0.0391 0.0859,0.0113 0.17156,0.0274 0.25586,0.0469 h 0.34766 c 0.0852,-0.0197 0.17317,-0.0349 0.25977,-0.0469 0.0824,-0.005 0.0897,-0.0131 0.17187,-0.0391 0.064,-0.0188 0.12931,-0.0311 0.19531,-0.0391 -0.28664,0.0468 -0.0395,0.18735 0.18555,0.33399 0.52223,-0.0455 0.66859,0.51055 0.0586,0.73047 -0.10012,0.036 -0.20239,0.067 -0.30273,0.0996 -0.0307,0.0176 -0.0115,0.006 -0.0644,0.0293 -0.12526,0.0555 -0.23643,0.0773 -0.33203,0.0723 -0.0709,-0.003 -0.1329,-0.018 -0.1836,-0.0449 -0.0345,0.0197 -0.0693,0.038 -0.10351,0.0586 -0.0811,0.0412 -0.16609,0.0705 -0.24219,0.12109 -0.0954,0.0617 -0.19705,0.12021 -0.30469,0.15821 -0.0713,0.0349 -0.13732,0.0848 -0.20312,0.1289 -0.0891,0.0641 -0.17604,0.1302 -0.26954,0.1875 -0.0811,0.0545 -0.16443,0.10412 -0.24023,0.16602 -0.10307,0.0754 -0.21462,0.13472 -0.32227,0.20312 -0.11055,0.0717 -0.22122,0.14574 -0.33593,0.21094 -0.11635,0.0743 -0.24004,0.13595 -0.35352,0.21485 -0.12293,0.077 -0.24284,0.15886 -0.36914,0.23046 -0.12687,0.0689 -0.24425,0.15221 -0.36914,0.22461 -0.11706,0.0604 -0.24021,0.11009 -0.36719,0.14649 -0.12212,0.0453 -0.24561,0.0819 -0.36718,0.1289 -0.15387,0.0517 -0.31088,0.0915 -0.4668,0.13672 -0.0387,0.0112 -0.0774,0.0194 -0.11328,0.0254 -0.14186,0.0836 -0.28673,0.16214 -0.43164,0.24024 -0.17306,0.0929 -0.34006,0.19314 -0.50782,0.29492 -0.14277,0.0846 -0.28727,0.16779 -0.43359,0.24609 -0.13508,0.0724 -0.26506,0.15689 -0.41016,0.20899 -0.15736,0.0593 -0.31787,0.10836 -0.47656,0.16406 -0.21483,0.0759 -0.43073,0.15131 -0.64648,0.22461 -0.20319,0.0693 -0.40979,0.12594 -0.61719,0.18164 -0.0281,0.0145 -0.0555,0.0294 -0.084,0.043 -0.0788,0.0379 -0.1624,0.0632 -0.2461,0.0879 -0.0737,0.0196 -0.1474,0.0385 -0.2207,0.0606 -0.0563,0.0196 -0.11197,0.043 -0.16797,0.0644 -0.0647,0.0327 -0.13413,0.0485 -0.20313,0.0684 -0.0602,0.0174 -0.11998,0.038 -0.17968,0.0566 -0.05,0.0196 -0.10205,0.0374 -0.15235,0.0566 -0.057,0.0174 -0.11322,0.0361 -0.16992,0.0547 -0.0515,0.0224 -0.10315,0.0444 -0.15625,0.0625 -0.0579,0.0237 -0.11688,0.047 -0.17578,0.0684 -0.0641,0.0196 -0.12866,0.0352 -0.19336,0.0527 -0.0641,0.0132 -0.12771,0.0258 -0.19141,0.041 -0.064,0.0132 -0.1278,0.0295 -0.1914,0.043 -0.0687,0.0111 -0.13473,0.0274 -0.20313,0.0391 -0.0771,0.0165 -0.15717,0.0103 -0.23437,0.0234 -0.0626,0.009 -0.12425,0.022 -0.18555,0.0371 -0.0588,0.0218 -0.11979,0.0385 -0.17969,0.0566 -0.0617,0.0176 -0.12264,0.0358 -0.18164,0.0605 -0.0629,0.0254 -0.1244,0.0534 -0.1875,0.0781 -0.0637,0.031 -0.13242,0.0498 -0.19922,0.0723 -0.0658,0.0231 -0.13437,0.0336 -0.20117,0.0527 -0.0603,0.0174 -0.12088,0.0367 -0.17968,0.0586 -0.0685,0.0263 -0.13544,0.0509 -0.20704,0.0684 -0.0928,0.0174 -0.18659,0.0305 -0.27929,0.0488 -0.0754,0.0152 -0.14916,0.0416 -0.22266,0.0645 -0.0783,0.0232 -0.15452,0.0498 -0.23242,0.0742 -0.0706,0.0197 -0.13833,0.0512 -0.20703,0.0762 -0.0716,0.026 -0.14239,0.055 -0.21289,0.084 -0.0736,0.0299 -0.14666,0.0604 -0.22266,0.084 -0.0624,0.0152 -0.12214,0.0344 -0.18164,0.0586 -0.0731,0.0258 -0.14505,0.0576 -0.21875,0.082 -0.0524,0.0153 -0.1039,0.0343 -0.1543,0.0547 -0.0576,0.0196 -0.11397,0.038 -0.17187,0.0566 -0.0437,0.0174 -0.0875,0.038 -0.13086,0.0566 -0.0621,0.0283 -0.12987,0.0418 -0.19727,0.0508 -0.0617,0.006 -0.12014,0.0223 -0.18164,0.0293 -0.0303,0.003 -0.0613,0.007 -0.0918,0.01 -0.0371,0.0387 -0.0963,0.0706 -0.17774,0.0879 -0.004,0 -0.006,-9e-5 -0.008,0 h -0.002 c -0.002,7.5e-4 -0.006,0.003 -0.0156,0.006 -0.0457,0.0132 -0.0893,0.0311 -0.13672,0.0391 -0.0432,0.0132 -0.0866,0.0301 -0.13086,0.0391 -0.0412,0.0135 -0.082,0.0174 -0.125,0.0234 -0.0232,0.004 -0.0464,0.01 -0.0684,0.0176 -0.0395,0.0152 -0.0787,0.0275 -0.11914,0.041 -0.0396,0.008 -0.0789,0.0107 -0.11914,0.0137 -0.0265,0.002 -0.0527,0.008 -0.0781,0.0156 -0.0525,0.013 -0.10441,0.0167 -0.15821,0.0137 -0.0428,0 -0.0862,-10e-5 -0.1289,0 -0.0549,0 -0.11112,6.8e-4 -0.16602,0.002 -0.0661,0 -0.13116,0.003 -0.19726,0.006 -0.0416,0.001 -0.0837,0.007 -0.125,0.0117 -5e-4,6e-5 -0.005,4e-5 -0.006,0 l -0.002,0.002 -0.002,0.01 h -0.002 -0.002 -0.002 v 0.002 h -0.002 -0.002 -0.002 v 0.002 0.002 l -0.002,0.002 c -0.0709,0.0174 -0.14014,0.0382 -0.21094,0.0547 -0.0651,0.0153 -0.12735,0.04 -0.18945,0.0645 -0.0764,0.0276 -0.15202,0.0563 -0.22852,0.084 -0.0788,0.0284 -0.15913,0.0556 -0.23633,0.0879 -0.0759,0.0324 -0.15592,0.0513 -0.23242,0.082 -0.0836,0.0351 -0.17352,0.0481 -0.26172,0.0664 -0.0945,0.0219 -0.19061,0.033 -0.28711,0.041 -0.0367,0.006 -0.0747,0.0135 -0.11132,0.0195 -0.0133,0.006 -0.0255,0.008 -0.0391,0.0137 -0.044,0.0174 -0.0893,0.0318 -0.13476,0.0449 -0.0423,0.0109 -0.0848,0.0176 -0.12696,0.0293 -0.0437,0.0131 -0.0877,0.0235 -0.13281,0.0293 -0.0511,0.0174 -0.10024,0.041 -0.15234,0.0547 -0.0547,0.0174 -0.10996,0.0299 -0.16406,0.0488 -0.0602,0.0175 -0.1222,0.0343 -0.1836,0.0469 -0.0591,0.011 -0.11628,0.0303 -0.17578,0.041 -0.0596,0.0107 -0.11909,0.0197 -0.17969,0.0137 -0.0375,0 -0.076,0.003 -0.11328,0.006 -0.0364,0.004 -0.0721,0.01 -0.10742,0.0176 -0.0564,0.013 -0.11242,0.0147 -0.16992,0.0117 h -0.13086 c -0.0357,-2e-5 -0.0718,0 -0.10742,0 -0.0376,0 -0.0735,5e-5 -0.11133,0 -0.0434,-9e-5 -0.0876,3.3e-4 -0.13086,0 -0.0273,0 -0.055,5.8e-4 -0.082,0 -0.0669,0.028 -0.13412,0.0565 -0.19922,0.0879 -0.1577,0.0798 -0.32087,0.14632 -0.48828,0.20312 -0.16602,0.0518 -0.33927,0.0765 -0.51172,0.0957 -0.11386,0.0131 -0.22545,0.0427 -0.33984,0.0586 -0.15971,0.0174 -0.31944,0.0194 -0.47852,0.043 -0.17758,0.0292 -0.35757,0.0418 -0.53711,0.0508 -0.19729,0.009 -0.39437,0.009 -0.5918,0.0117 -0.2116,0.004 -0.42317,0.006 -0.63476,0.006 -0.22687,-0.009 -0.45377,0.004 -0.67969,0.0215 -0.25035,0.0196 -0.50098,0.0321 -0.75195,0.0391 -0.25886,0.003 -0.51666,0.0182 -0.77539,0.006 -0.20334,-0.0175 -0.40747,-0.0358 -0.61133,-0.0469 -0.18782,-0.009 -0.37449,-0.0107 -0.5625,-0.0137 -0.20446,10e-4 -0.40795,-0.0299 -0.61133,-0.0469 -0.20239,-0.0148 -0.40642,-0.0174 -0.60937,-0.0234 -0.23056,-0.003 -0.46082,-0.003 -0.69141,-0.006 -0.19554,-5.6e-4 -0.3904,1.3e-4 -0.58594,0 -0.21813,0 -0.43617,-0.006 -0.6543,-0.006 -0.19373,-2e-5 -0.38832,0 -0.58203,0 h -0.60937 -0.7461 -0.64843 c -0.21255,0 -0.42442,0.005 -0.63672,-0.006 -0.24044,-0.0196 -0.48179,-0.0368 -0.72266,-0.0488 -0.16896,-0.01 -0.33867,-0.0126 -0.50781,-0.0156 -0.18322,-0.004 -0.36559,-0.002 -0.54883,-0.002 -0.23212,0.006 -0.46228,-0.007 -0.69336,-0.0273 -0.1703,-0.0284 -0.34526,-0.037 -0.51758,-0.043 -0.15975,-5e-4 -0.31593,-0.003 -0.47461,-0.0234 -0.15547,-0.0165 -0.30916,-0.0487 -0.46289,-0.0762 -0.0736,0.0322 -0.16719,0.0509 -0.27734,0.0449 -0.0403,-0.002 -0.082,-0.006 -0.12695,-0.0137 -0.12743,-0.0229 -0.25456,-0.0501 -0.38086,-0.0781 -0.11161,-0.0254 -0.22154,-0.0457 -0.33594,-0.0566 -0.17383,-0.0266 -0.34707,-0.0619 -0.52148,-0.084 -0.14161,-0.0155 -0.28335,-0.0184 -0.42579,-0.0234 -0.1398,-0.009 -0.2798,-0.0193 -0.41796,-0.043 -0.14032,-0.0235 -0.27711,-0.0561 -0.41797,-0.0762 -0.0395,-0.008 -0.0797,-0.0195 -0.11914,-0.0273 -0.0341,-0.002 -0.0676,-6.3e-4 -0.10157,-0.002 -0.19092,-0.007 -0.38266,-0.0174 -0.57226,-0.041 -0.11742,-0.0153 -0.23281,-0.0313 -0.35156,-0.0293 -0.12798,-0.007 -0.25562,-0.0184 -0.38086,-0.0469 -0.1162,-0.0278 -0.2315,-0.0643 -0.34766,-0.0918 -0.112,-0.0297 -0.22269,-0.0559 -0.33789,-0.0723 -0.12471,-0.0263 -0.24987,-0.0531 -0.375,-0.0781 -0.12977,-0.003 -0.25904,-0.009 -0.38867,-0.0176 -0.22816,-0.0175 -0.45634,-0.0374 -0.67774,-0.0977 -0.17502,-0.0501 -0.345,-0.11334 -0.51367,-0.18164 -0.15224,-0.0467 -0.30727,-0.0855 -0.46289,-0.11915 -0.16789,-0.0277 -0.33439,-0.0626 -0.50391,-0.0801 -0.1897,-0.0329 -0.37902,-0.0727 -0.56836,-0.10743 -0.15636,-0.0386 -0.31016,-0.0798 -0.46679,-0.11718 -0.16302,-0.034 -0.32247,-0.0791 -0.48633,-0.10938 -0.20186,-0.0454 -0.40918,-0.0784 -0.60742,-0.13867 -0.16013,-0.0487 -0.32238,-0.0852 -0.48438,-0.12695 -0.16589,-0.0366 -0.32897,-0.0834 -0.49414,-0.12305 -0.15164,-0.0376 -0.30377,-0.0745 -0.45508,-0.11328 -0.16173,-0.0418 -0.32252,-0.0871 -0.48437,-0.12891 -0.16353,-0.0498 -0.32939,-0.087 -0.4961,-0.125 -0.23584,-0.0593 -0.47421,-0.10847 -0.70898,-0.17187 -0.18287,-0.0443 -0.36484,-0.0917 -0.54687,-0.13867 -0.31019,-0.0804 -0.46191,-0.26029 -0.47461,-0.42383 -0.28666,-0.0651 -0.57287,-0.13352 -0.85938,-0.19922 -0.20962,-0.0142 -0.42081,-0.0233 -0.63086,-0.0293 -0.19534,-0.009 -0.37566,-0.08 -0.56445,-0.12109 -0.0166,-0.003 -0.0473,6.2e-4 -0.0645,-0.004 -10e-6,0 -0.004,-0.002 -0.006,-0.002 h -0.002 -0.002 -0.002 v -0.0117 -0.002 -0.004 h -0.002 v -0.002 -0.004 h -0.002 v -0.002 c 3e-5,-0.001 -4e-5,-0.003 0,-0.004 0.003,-0.0786 0.008,-0.15733 0.0117,-0.23633 -0.0477,-0.0131 -0.0933,-0.0266 -0.14063,-0.041 -0.14415,-0.0365 -0.28584,-0.0814 -0.42968,-0.11914 -0.12876,-0.0241 -0.25567,-0.0565 -0.38282,-0.0879 -0.10448,-0.0175 -0.20448,-0.0512 -0.30664,-0.0781 -0.11306,-0.0406 -0.22908,-0.0779 -0.33789,-0.1289 -0.0835,-0.0421 -0.1646,-0.0868 -0.25,-0.125 -0.12581,-0.0684 -0.25143,-0.13719 -0.37304,-0.21289 -0.1224,-0.0669 -0.23607,-0.1449 -0.35547,-0.2168 -0.0961,-0.0757 -0.20799,-0.12901 -0.3125,-0.19141 -0.11256,-0.0569 -0.21784,-0.12332 -0.31836,-0.19922 -0.0609,-0.0392 -0.12631,-0.0695 -0.19141,-0.10156 -0.10354,-0.0589 -0.21075,-0.10936 -0.3164,-0.16406 -0.0982,-0.0538 -0.19511,-0.10973 -0.28711,-0.17383 -0.0623,-0.0339 -0.12596,-0.0675 -0.18946,-0.0996 -0.0556,-0.0241 -0.10269,-0.0634 -0.15429,-0.0957 -0.1104,-0.0253 -0.22393,-0.0413 -0.33204,-0.0762 -0.14112,-0.0285 -0.28004,-0.066 -0.41992,-0.0996 -0.11285,-0.0335 -0.22346,-0.0714 -0.33789,-0.0996 -0.10887,-0.0351 -0.22482,-0.0461 -0.33203,-0.0879 -0.16749,-0.0368 -0.3299,-0.0906 -0.48828,-0.15625 -0.15934,-0.0597 -0.31281,-0.13483 -0.4668,-0.20703 -0.12386,-0.065 -0.24352,-0.13655 -0.35937,-0.21485 -0.1074,-0.0754 -0.23715,-0.1138 -0.34375,-0.1914 -0.0743,-0.0544 -0.1664,-0.0817 -0.2461,-0.12696 -0.0684,-0.038 -0.15072,-0.0784 -0.20312,-0.12695 v -0.002 c -0.0201,-0.0132 -0.18627,-0.0661 -0.21875,-0.0898 v -0.002 -0.002 c -0.089,-0.051 -0.17877,-0.10041 -0.26367,-0.15821 -0.10388,-0.0242 -0.20434,-0.0578 -0.30664,-0.0879 -0.12149,-0.0262 -0.22912,-0.0913 -0.33789,-0.14844 -0.0814,-0.0491 -0.16405,-0.0953 -0.24415,-0.14648 -0.0568,-0.0217 -0.1086,-0.0587 -0.1621,-0.0859 -0.0805,-0.0442 -0.15643,-0.0933 -0.23243,-0.14453 -0.0693,-0.041 -0.15557,-0.10395 -0.23047,-0.15625 -0.063,-0.046 -0.13332,-0.0844 -0.20312,-0.11914 -0.0536,-0.0218 -0.10014,-0.0579 -0.15234,-0.082 -0.0401,-0.0187 -0.0746,-0.0375 -0.10743,-0.0586 -0.17971,0.63433 0.0686,1.33573 0.66016,1.70898 0.0782,0.0493 1.95372,1.22538 5.3125,2.6875 3.07183,1.33741 8.0423,3.18637 14.27539,4.39648 7.004,1.36013 14.14616,1.65582 21.23047,0.87891 7.05567,-0.77382 14.064,-2.61962 20.90235,-5.49805 h 0.002 c 0.017,-0.15146 0.15363,-0.31267 0.43555,-0.39257 0.0355,-0.01 0.0718,-0.0203 0.10742,-0.0293 0.0974,-0.0723 0.19702,-0.13924 0.29492,-0.21094 0.10835,-0.0805 0.2262,-0.14574 0.3418,-0.21484 0.10592,-0.061 0.20224,-0.13761 0.3125,-0.19141 0.10638,-0.0578 0.19719,-0.14513 0.31836,-0.17383 0.1043,-0.0229 0.20974,-0.0369 0.3164,-0.0449 0.0894,-0.004 0.17597,10e-4 0.26367,0.0117 0.0261,-0.0193 0.0542,-0.0382 0.082,-0.0547 0.0907,-0.0519 0.16388,-0.12606 0.24218,-0.19336 0.0883,-0.0737 0.15949,-0.16886 0.26172,-0.22656 0.0674,-0.0475 0.12338,-0.11113 0.17578,-0.17383 0.0823,-0.0885 0.17134,-0.16958 0.27149,-0.23828 0.003,-0.002 0.01,-0.007 0.0176,-0.0117 0.0399,-0.0313 0.0792,-0.0638 0.11718,-0.0977 0.0535,-0.0493 0.10455,-0.10145 0.15625,-0.15235 0.005,-0.0121 0.0684,-0.0901 0.082,-0.10937 0.0587,-0.077 0.0544,-0.0765 0.11132,-0.15821 0.16408,-0.23546 0.23646,-0.11555 0.28516,0.0762 0.48795,-0.49849 1.01651,-4.5e-4 0.52148,0.51953 -0.009,0.009 -0.0182,0.0203 -0.0273,0.0293 -0.10857,0.12165 -0.18515,0.27009 -0.30273,0.38477 -0.03,0.0292 -0.0605,0.0551 -0.0898,0.0781 -0.0177,0.0838 -0.0576,0.17935 -0.12695,0.28125 -0.079,0.11598 -0.17448,0.21945 -0.26758,0.32421 -0.0496,0.0645 -0.11577,0.11368 -0.17187,0.17188 -0.0774,0.0803 -0.15567,0.13477 -0.23047,0.16797 -0.044,0.0715 -0.0831,0.14715 -0.12696,0.21875 -0.007,0.0131 -0.0154,0.0251 -0.0234,0.0371 -0.0339,0.0508 -0.10238,0.14325 -0.11524,0.16601 h 0.002 l 0.002,-0.002 h 0.002 c -0.0497,0.10876 -0.10685,0.212 -0.17773,0.30859 -0.0379,0.0617 -0.0893,0.11784 -0.12305,0.18164 -0.0674,0.0745 -0.0871,0.11268 -0.12305,0.17188 -0.0341,0.0661 -0.0728,0.1264 -0.11523,0.1875 -0.0692,0.0837 -0.0857,0.11636 -0.1543,0.19336 -0.061,0.0824 -0.12626,0.16088 -0.19336,0.23828 -0.0734,0.0787 -0.12836,0.17241 -0.19336,0.25781 -0.0513,0.0654 -0.0938,0.13583 -0.14258,0.20313 -0.0438,0.0586 -0.0855,0.11994 -0.125,0.18164 -0.0371,0.0765 -0.10471,0.16343 -0.16601,0.23633 -0.072,0.0765 -0.15006,0.14665 -0.22656,0.21875 -0.0918,0.0861 -0.20535,0.14374 -0.3086,0.21484 -0.0694,0.0565 -0.14416,0.1149 -0.19726,0.1875 -0.0891,0.0933 -0.16665,0.19512 -0.24805,0.29492 -0.0899,0.12427 -0.18966,0.24163 -0.29687,0.35156 -0.1138,0.12077 -0.22735,0.2401 -0.33399,0.36719 -0.12854,0.14171 -0.25721,0.28515 -0.38476,0.42774 -0.11376,0.11359 -0.22018,0.2346 -0.32813,0.35351 -0.0172,0.0188 -0.0339,0.0376 -0.0508,0.0566 -0.0411,0.0648 -0.0823,0.13021 -0.12305,0.19531 -0.0728,0.12031 -0.11164,0.19523 -0.14844,0.23243 -0.0199,0.0379 -0.0408,0.0755 -0.0644,0.11328 -0.0241,-0.0153 -0.0477,-0.0291 -0.0703,-0.043 -0.0145,0.0223 -0.0304,0.044 -0.0449,0.0664 -0.0629,0.0911 -0.1231,0.18444 -0.1836,0.27734 -0.061,0.0853 -0.1208,0.17075 -0.1875,0.25195 -0.0493,0.0791 -0.0981,0.15944 -0.14453,0.24024 -0.0456,0.0766 -0.094,0.15128 -0.14453,0.22461 0.0189,0.0181 0.0392,0.0387 0.0605,0.0605 0.0593,0.0606 0.1155,0.12381 0.16797,0.19141 0.0633,-0.0735 0.14746,-0.14463 0.2539,-0.21094 0.10091,-0.0629 0.20643,-0.11916 0.31641,-0.16406 0.0737,-0.0328 0.18247,-0.0794 0.24219,-0.084 0.0748,-0.0315 0.20617,-0.089 0.30859,-0.0976 0.0525,-0.008 0.10396,-0.0192 0.15234,-0.043 0.0646,-0.0319 0.13334,-0.0584 0.19532,-0.0859 0.0915,-0.0679 0.18601,-0.13233 0.29297,-0.17383 0.0609,-0.0361 0.12211,-0.0807 0.1875,-0.11132 0.0835,-0.064 0.17013,-0.12498 0.25781,-0.1836 0.0771,-0.0359 0.14032,-0.10279 0.21289,-0.14648 0.096,-0.0769 0.1974,-0.14764 0.28906,-0.23047 l 0.008,-0.006 c 1.50047,-2.02851 2.99999,-4.05698 4.5,-6.08594 0.0233,-0.087 0.0526,-0.17286 0.0762,-0.25976 0.0266,-0.10662 0.0861,-0.20013 0.12695,-0.30078 0.0489,-0.0903 0.1025,-0.17758 0.1582,-0.26368 0.004,-0.006 0.0119,-0.0126 0.0156,-0.0176 0.0261,-0.0377 0.0527,-0.0746 0.0801,-0.11133 0.0104,-0.0148 0.0185,-0.0234 0.0215,-0.0274 l -0.0117,0.008 c 0.0416,-0.0593 0.0827,-0.1198 0.11719,-0.1836 0.0506,-0.0776 0.0919,-0.16239 0.13867,-0.24219 0.031,-0.0554 0.0606,-0.0941 0.0879,-0.15234 0.019,-0.0464 0.055,-0.0828 0.0781,-0.12695 0.11375,-0.2192 0.2679,-0.32003 0.40625,-0.33203 0.0689,-0.31729 0.0457,-0.65135 -0.0703,-0.96485 -0.0148,-0.004 -0.0343,-0.01 -0.0586,-0.0156 -0.26686,-0.0667 -0.5314,-0.14166 -0.79297,-0.22656 -0.17878,-0.0521 -0.35349,-0.11227 -0.51953,-0.19727 -0.15508,-0.0798 -0.30171,-0.17451 -0.45703,-0.25391 -0.11704,-0.0637 -0.24032,-0.11357 -0.3711,-0.14257 -0.18647,-0.0451 -0.37077,-0.098 -0.55078,-0.16407 -0.20337,-0.085 -0.40244,-0.17926 -0.60937,-0.25586 -0.16459,-0.0542 -0.32968,-0.11198 -0.5,-0.14648 -0.27328,-0.0553 -0.42606,-0.19276 -0.47266,-0.33399 -1.34854,-0.27722 -2.69859,-0.55511 -4.04687,-0.83203 -0.19673,-0.0404 -0.3951,-0.0807 -0.5918,-0.12109 h -0.42773 -0.57422 -0.40821 -0.38476 -0.40821 -0.36718 -0.33985 z m 7.0039,3.35156 c -0.004,0.0127 -0.006,0.0246 -0.0117,0.0371 v 0.002 c 0.0189,-0.0102 0.0366,-0.0214 0.0547,-0.0332 -0.0144,-0.002 -0.0288,-0.004 -0.043,-0.006 z m -1.4414,0.0488 c -1.6e-4,0.0248 -0.003,0.0507 -0.004,0.0762 0.008,-0.007 0.0174,-0.0145 0.0254,-0.0215 -0.007,-0.0182 -0.0145,-0.038 -0.0215,-0.0547 z m -0.78321,0.32031 c -4.3e-4,3.5e-4 -0.003,0.003 -0.004,0.004 h -0.002 c -0.001,9.4e-4 -0.003,0.003 -0.004,0.004 v 0.002 0.002 c -9.4e-4,0.006 -0.002,0.0173 -0.006,0.0293 h 0.002 c 0.004,-0.0133 0.008,-0.0265 0.0137,-0.041 z m 0.63086,0.63086 c -0.007,0.0166 -0.0154,0.0327 -0.0234,0.0488 h 0.002 l 0.002,-0.002 h 0.002 c 0.0169,-0.01 0.0341,-0.0193 0.0508,-0.0293 -0.0113,-0.004 -0.0221,-0.0116 -0.0332,-0.0176 z m 1.36914,2.91016 c -0.0115,0.004 -0.0246,0.008 -0.0351,0.0137 -0.0173,0.008 -0.0343,0.0183 -0.0508,0.0273 h -0.002 -0.002 -0.002 v 0.002 c -0.0148,0.007 -0.0301,0.0145 -0.0449,0.0215 0.008,0.0168 0.0147,0.035 0.0215,0.0527 0.0385,-0.0386 0.0774,-0.0781 0.11523,-0.11719 z" /><path
       style="opacity:1;fill:#4d4d4d;fill-opacity:0.65625;stroke-width:1.36991"
       d="m -786.98068,580.54807 411.09427,0.80884 271.24089,-1.02392"
       id="path7"
       inkscape:transform-center-x="0.32394265"
       inkscape:transform-center-y="0.0074808181" /></g></svg>
