<?xml version="1.0" encoding="UTF-8" standalone="no"?>
<!-- Created with Inkscape (http://www.inkscape.org/) -->

<svg
   width="196.959mm"
   height="113.413mm"
   viewBox="0 0 196.95901 113.413"
   version="1.1"
   id="svg1"
   xml:space="preserve"
   sodipodi:docname="researchbackground.svg"
   inkscape:version="1.4.3 (0d15f75, 2025-12-25)"
   xmlns:inkscape="http://www.inkscape.org/namespaces/inkscape"
   xmlns:sodipodi="http://sodipodi.sourceforge.net/DTD/sodipodi-0.dtd"
   xmlns="http://www.w3.org/2000/svg"
   xmlns:svg="http://www.w3.org/2000/svg"><sodipodi:namedview
     id="namedview1"
     pagecolor="#ffffff"
     bordercolor="#000000"
     borderopacity="0.25"
     inkscape:showpageshadow="2"
     inkscape:pageopacity="0.0"
     inkscape:pagecheckerboard="0"
     inkscape:deskcolor="#d1d1d1"
     inkscape:document-units="mm"
     inkscape:zoom="1.2845308"
     inkscape:cx="391.19342"
     inkscape:cy="68.896752"
     inkscape:window-width="1317"
     inkscape:window-height="976"
     inkscape:window-x="287"
     inkscape:window-y="25"
     inkscape:window-maximized="0"
     inkscape:current-layer="g1" /><defs
     id="defs1" /><g
     id="layer1"
     transform="translate(-13.269191,-107.60626)"><text
       xml:space="preserve"
       style="font-style:normal;font-variant:normal;font-weight:bold;font-stretch:normal;font-size:4.23333px;line-height:4.37444px;font-family:Georgia;-inkscape-font-specification:'Georgia Bold';text-align:center;writing-mode:lr-tb;direction:ltr;text-anchor:middle;fill:#ac3b61;fill-opacity:1;stroke-width:0.264582"
       x="45.40472"
       y="118.83725"
       id="text16"><tspan
         style="font-style:normal;font-variant:normal;font-weight:bold;font-stretch:normal;font-size:4.23333px;line-height:4.37444px;font-family:Georgia;-inkscape-font-specification:'Georgia Bold';fill:#ac3b61;fill-opacity:1;stroke-width:0.264582"
         x="45.40472"
         y="118.83725"
         id="tspan19">Philosophy &amp; Social Theory</tspan></text><text
       xml:space="preserve"
       style="font-style:normal;font-variant:normal;font-weight:bold;font-stretch:normal;font-size:4.23333px;line-height:4.37444px;font-family:Georgia;-inkscape-font-specification:'Georgia Bold';text-align:center;writing-mode:lr-tb;direction:ltr;text-anchor:middle;fill:#ac3b61;fill-opacity:1;stroke-width:0.264582"
       x="106.26249"
       y="143.0455"
       id="text16-3"><tspan
         style="font-style:normal;font-variant:normal;font-weight:bold;font-stretch:normal;font-size:4.23333px;line-height:4.37444px;font-family:Georgia;-inkscape-font-specification:'Georgia Bold';fill:#ac3b61;fill-opacity:1;stroke-width:0.264582"
         x="106.26249"
         y="143.0455"
         id="tspan19-6">Reflexive Research</tspan></text><text
       xml:space="preserve"
       style="font-style:normal;font-variant:normal;font-weight:normal;font-stretch:normal;font-size:3.52778px;line-height:4.5376px;font-family:Monospace;-inkscape-font-specification:Monospace;text-align:center;letter-spacing:0px;writing-mode:lr-tb;direction:ltr;text-anchor:middle;white-space:pre;inline-size:79.8666;fill:#838383;fill-opacity:1;stroke-width:0.264583"
       x="45.268539"
       y="124.49709"
       id="text23"
       transform="translate(0,1.5875)"><tspan
         x="45.268539"
         y="124.49709"
         id="tspan22">epistemology · ethnography
</tspan><tspan
         x="45.268539"
         y="129.03469"
         id="tspan23">inductive reasoning
</tspan><tspan
         x="45.268539"
         y="133.57229"
         id="tspan24">interpretive methods</tspan></text><text
       xml:space="preserve"
       style="font-style:normal;font-variant:normal;font-weight:bold;font-stretch:normal;font-size:4.23333px;line-height:4.37444px;font-family:Georgia;-inkscape-font-specification:'Georgia Bold';text-align:center;writing-mode:lr-tb;direction:ltr;text-anchor:middle;fill:#ac3b61;fill-opacity:1;stroke-width:0.264582"
       x="46.419575"
       y="166.16611"
       id="text16-83"><tspan
         style="font-style:normal;font-variant:normal;font-weight:bold;font-stretch:normal;font-size:4.23333px;line-height:4.37444px;font-family:Georgia;-inkscape-font-specification:'Georgia Bold';fill:#ac3b61;fill-opacity:1;stroke-width:0.264582"
         x="46.419575"
         y="166.16611"
         id="tspan19-8">Community Practitioner</tspan></text><text
       xml:space="preserve"
       style="font-style:normal;font-variant:normal;font-weight:normal;font-stretch:normal;font-size:3.52778px;line-height:4.5376px;font-family:Monospace;-inkscape-font-specification:Monospace;text-align:center;letter-spacing:0px;writing-mode:lr-tb;direction:ltr;text-anchor:middle;white-space:pre;inline-size:79.8666;fill:#838383;fill-opacity:1;stroke-width:0.264583"
       x="45.268539"
       y="124.49709"
       id="text23-1"
       transform="translate(1.0148618,48.202784)"><tspan
         x="45.268539"
         y="124.49709"
         id="tspan25">cooperative organizing
</tspan><tspan
         x="45.268539"
         y="129.03469"
         id="tspan26">technology appropriation</tspan></text><text
       xml:space="preserve"
       style="font-size:3.52778px;line-height:4.54px;text-align:center;writing-mode:lr-tb;direction:ltr;text-anchor:middle;white-space:pre;inline-size:90.7781;fill:#838383;fill-opacity:1;stroke-width:0.264583"
       x="111.18568"
       y="124.40876"
       id="text23-9"
       transform="translate(-4.6556537,25.764981)"><tspan
         x="111.18568"
         y="124.40876"
         id="tspan28"><tspan
           style="font-family:Monospace;-inkscape-font-specification:Monospace"
           id="tspan27">action research
</tspan></tspan><tspan
         x="111.18568"
         y="128.98501"
         id="tspan30"><tspan
           style="font-family:Monospace;-inkscape-font-specification:Monospace"
           id="tspan29">participatory design
</tspan></tspan><tspan
         x="111.18568"
         y="133.56126"
         id="tspan32"><tspan
           style="font-family:Monospace;-inkscape-font-specification:Monospace"
           id="tspan31">qualitative methods</tspan></tspan></text><text
       xml:space="preserve"
       style="font-style:normal;font-variant:normal;font-weight:bold;font-stretch:normal;font-size:4.23333px;line-height:4.37444px;font-family:Georgia;-inkscape-font-specification:'Georgia Bold';text-align:center;writing-mode:lr-tb;direction:ltr;text-anchor:middle;white-space:pre;inline-size:57.6061;fill:#ac3b61;fill-opacity:1;stroke-width:0.264582"
       x="175.35007"
       y="142.8732"
       id="text16-3-8"
       transform="translate(0,-2.6458334)"><tspan
         x="175.35007"
         y="142.8732"
         id="tspan33">Sociotechnical
</tspan><tspan
         x="175.35007"
         y="147.24764"
         id="tspan34">Systems Design</tspan></text><text
       xml:space="preserve"
       style="font-size:3.52778px;line-height:4.5376px;text-align:center;writing-mode:lr-tb;direction:ltr;text-anchor:middle;white-space:pre;inline-size:58.4604;fill:#838383;fill-opacity:1;stroke-width:0.264583"
       x="174.18416"
       y="124.09119"
       id="text23-9-6"
       transform="translate(1.1651798,28.410816)"><tspan
         x="174.18416"
         y="124.09119"
         id="tspan36"><tspan
           style="font-family:Monospace;-inkscape-font-specification:Monospace"
           id="tspan35">responsible technologies
</tspan></tspan><tspan
         x="174.18416"
         y="128.66503"
         id="tspan38"><tspan
           style="font-family:Monospace;-inkscape-font-specification:Monospace"
           id="tspan37">community-centred design
</tspan></tspan><tspan
         x="174.18416"
         y="133.23887"
         id="tspan40"><tspan
           style="font-family:Monospace;-inkscape-font-specification:Monospace"
           id="tspan39">capacity building</tspan></tspan></text><text
       xml:space="preserve"
       style="font-style:normal;font-variant:normal;font-weight:normal;font-stretch:normal;font-size:3.88056px;line-height:4.0099px;font-family:Chalkduster;-inkscape-font-specification:Chalkduster;text-align:center;writing-mode:lr-tb;direction:ltr;text-anchor:middle;fill:#858585;fill-opacity:1;stroke-width:0.264582"
       x="113.61623"
       y="205.98611"
       id="text16-8"><tspan
         style="font-style:normal;font-variant:normal;font-weight:normal;font-stretch:normal;font-size:3.88056px;line-height:4.0099px;font-family:Monospace;-inkscape-font-specification:Monospace;fill:#858585;fill-opacity:1;stroke-width:0.264582"
         x="113.61623"
         y="205.98611"
         id="tspan19-5">Participatory Design for Responsible Technologies</tspan></text></g><g
     id="g1"
     transform="matrix(0.26458332,0,0,0.26458334,214.1392,-111.31044)"><path
       id="path3"
       style="opacity:0.6;fill:#ac3b61;fill-opacity:1;fill-rule:nonzero;stroke:none;stroke-width:0.00338176"
       d="m -549.20326,513.15634 c -0.0108,0.0159 -0.0217,0.032 -0.0322,0.0497 -0.16231,0.27466 -0.17767,0.66099 -0.0347,0.86219 0.37821,0.53457 0.75458,1.09226 1.11867,1.6575 0.0256,0.0398 0.0554,0.0697 0.0873,0.0916 0.13895,0.0952 0.32666,0.0255 0.46289,-0.19142 0.0137,-0.022 0.0263,-0.0446 0.0383,-0.0678 -0.0214,-0.0265 -0.0421,-0.0535 -0.0628,-0.0813 -0.0462,-0.0659 -0.10077,-0.11492 -0.15027,-0.1745 -0.0493,-0.0647 -0.0985,-0.12923 -0.13922,-0.20787 -0.0191,-0.036 -0.0422,-0.0635 -0.0675,-0.0886 -0.0456,-0.0512 -0.0833,-0.11731 -0.12985,-0.16715 -0.0483,-0.0414 -0.0839,-0.10714 -0.12831,-0.15545 -0.0661,-0.0717 -0.12806,-0.15173 -0.18808,-0.23484 -0.0562,-0.0902 -0.11149,-0.18321 -0.16395,-0.27915 -0.0393,-0.0762 -0.0905,-0.13227 -0.13622,-0.19788 -0.0518,-0.066 -0.0912,-0.1516 -0.13741,-0.22655 -0.0409,-0.0844 -0.0829,-0.16694 -0.12491,-0.24979 -0.0344,-0.0702 -0.072,-0.13658 -0.11424,-0.19478 -0.0375,-0.04 -0.0659,-0.0941 -0.0976,-0.14366 z"
       inkscape:transform-center-x="-2.3177294"
       inkscape:transform-center-y="1.2343516" /><path
       id="path4"
       style="opacity:0.6;fill:#ac3b61;fill-opacity:1;fill-rule:nonzero;stroke:none;stroke-width:0.00338176"
       d="m -555.72066,506.16003 c -0.0969,-0.0663 -0.19377,-0.13223 -0.29082,-0.19821 -0.11763,-0.0806 -0.23595,-0.15927 -0.35465,-0.23702 -0.11934,-0.077 -0.23795,-0.15588 -0.3618,-0.22002 -0.13522,-0.0711 -0.27332,-0.13434 -0.40183,-0.22485 -0.12189,-0.0835 -0.24406,-0.1673 -0.36597,-0.25068 -0.12973,-0.0887 -0.25957,-0.17738 -0.38941,-0.26577 -0.11401,-0.0781 -0.22756,-0.15596 -0.34302,-0.23023 -0.13269,-0.085 -0.26517,-0.17099 -0.40144,-0.24575 -0.14606,-0.0809 -0.2962,-0.15049 -0.4363,-0.24846 -0.15051,-0.10311 -0.30104,-0.20602 -0.45221,-0.30739 -0.17121,-0.11491 -0.34213,-0.23082 -0.51668,-0.33664 -0.17748,-0.10846 -0.35691,-0.21183 -0.53784,-0.3102 -0.1484,-0.0889 -0.29118,-0.19237 -0.43885,-0.28336 -0.12102,-0.0746 -0.24455,-0.14313 -0.3707,-0.20233 -0.16674,-0.0789 -0.33639,-0.14891 -0.49927,-0.24001 -0.10322,-0.0527 -0.20446,-0.11083 -0.30697,-0.16519 -0.0191,0.0396 -0.0355,0.0836 -0.0484,0.12975 -0.0978,0.3299 -0.0211,0.6667 0.17195,0.7521 l 2.3e-4,-5.8e-4 c 4.06369,1.80138 7.76349,4.70842 10.99831,8.63946 0.0191,0.0237 0.04,0.0432 0.0618,0.0581 0.15143,0.10374 0.35769,0.01 0.49183,-0.24048 0.0153,-0.028 0.0289,-0.0573 0.041,-0.0871 -0.043,-0.0456 -0.0877,-0.0881 -0.1329,-0.12934 -0.0503,-0.0427 -0.10225,-0.0834 -0.15447,-0.12169 -0.0561,-0.0506 -0.10359,-0.11781 -0.15762,-0.1728 -0.0415,-0.0412 -0.0859,-0.0762 -0.13071,-0.1094 -0.0627,-0.0604 -0.12117,-0.13046 -0.17522,-0.20746 -0.0299,-0.044 -0.0562,-0.0946 -0.0905,-0.13084 -0.0483,-0.0696 -0.0974,-0.13747 -0.14336,-0.21072 -0.0583,-0.0765 -0.11028,-0.16237 -0.16117,-0.25078 -0.0474,-0.0834 -0.10901,-0.14268 -0.16495,-0.21093 -0.0615,-0.0789 -0.12671,-0.14984 -0.18575,-0.23312 -0.0589,-0.0867 -0.10741,-0.1894 -0.16531,-0.27743 -0.0587,-0.0907 -0.11704,-0.18228 -0.17464,-0.27458 -0.0566,-0.11224 -0.12603,-0.20451 -0.19362,-0.29949 -0.011,-0.0159 -0.0217,-0.0323 -0.0326,-0.0487 l -0.11764,-0.0806 -0.28812,-0.19737 -0.21684,-0.14854 -0.1509,-0.10336 -0.17169,-0.11761 -0.18834,-0.12901 c -0.0789,-0.0516 -0.15748,-0.10314 -0.23158,-0.16691 -0.0957,-0.0849 -0.1858,-0.18087 -0.27583,-0.27768 -0.0826,-0.0978 -0.15983,-0.20589 -0.23701,-0.31331 -0.0575,-0.0802 -0.0921,-0.16694 -0.1079,-0.25136 l -0.30357,-0.20794 -0.3511,-0.24051 c -0.0954,-0.0653 -0.19091,-0.13079 -0.28634,-0.19614 -0.0866,-0.0592 -0.17307,-0.11863 -0.25963,-0.17784 z"
       inkscape:transform-center-x="-0.22488211"
       inkscape:transform-center-y="-0.75095138" /><path
       id="path5"
       style="opacity:0.6;fill:#ac3b61;fill-opacity:1;fill-rule:nonzero;stroke:none;stroke-width:0.00338176"
       inkscape:transform-center-x="1.0173967"
       inkscape:transform-center-y="1.6678182"
       d="m -572.91591,502.60108 c -0.65405,-8e-4 -1.24523,0.0239 -1.76429,0.0614 -2.27017,0.16366 -3.66405,0.59134 -3.72228,0.60944 -0.4405,0.137 -0.81818,0.70349 -0.9474,1.3606 0.0246,-0.008 0.0511,-0.0143 0.0786,-0.0173 0.0357,-0.003 0.0709,-0.0193 0.10667,-0.0205 0.0487,-0.007 0.0997,-0.0189 0.14878,-0.0393 0.0575,-0.0221 0.12481,-0.0495 0.17544,-0.063 0.0578,-0.0206 0.11501,-0.0394 0.17264,-0.0519 0.0376,-0.006 0.0777,-0.0236 0.1151,-0.0236 0.0599,-0.0193 0.11842,-0.032 0.17826,-0.0488 0.077,-0.0144 0.15605,-0.0348 0.22876,-0.0157 0.0641,0.008 0.12954,0.0104 0.1923,0.0252 0.0647,-0.0236 0.12781,-0.0377 0.19229,-0.0535 l 0.002,-0.002 v -0.003 h 0.002 0.002 0.002 c 0.0274,-0.009 0.11607,-0.002 0.13896,-0.005 h 0.002 l 0.002,-0.003 c 0.0446,-0.0269 0.10112,-0.0331 0.15018,-0.0441 0.0576,-0.014 0.1161,-0.007 0.17405,-0.0315 0.083,-0.0344 0.16436,-0.0246 0.24703,-0.0567 0.0881,-0.0315 0.17626,-0.0544 0.26387,-0.0709 0.10588,-0.0123 0.2115,-0.028 0.3158,-0.0268 0.10587,-0.005 0.20968,0.005 0.31019,0.0299 0.0708,-5.8e-4 0.13568,0.0299 0.20492,0.0362 0.0698,0.0145 0.1411,0.0179 0.21194,0.0268 0.0849,0.0189 0.17033,0.034 0.25404,0.0583 0.0688,0.006 0.1341,0.0312 0.20071,0.0472 0.0384,-0.0116 0.0775,-0.0303 0.11509,-0.0331 0.0446,-0.007 0.0888,-0.0159 0.13335,-0.0251 0.0707,-0.027 0.14024,-0.0462 0.21054,-0.0614 0.0745,-0.0133 0.14831,-0.0199 0.22316,-0.0378 0.0453,-0.006 0.0905,-0.0118 0.13615,-0.0268 0.0792,-0.0349 0.15695,-0.0595 0.2358,-0.0725 0.0766,-0.021 0.15335,-0.0329 0.23018,-0.0693 0.0877,-0.0245 0.17494,-0.0553 0.26247,-0.074 0.0901,-0.0272 0.18102,-0.0456 0.27089,-0.0646 0.0581,-0.005 0.117,-0.0173 0.17544,-0.0268 0.0748,-0.008 0.14698,-0.002 0.22036,0 0.0629,0.0115 0.12733,0.0151 0.18808,0.0362 0.0775,0.0161 0.15578,0.0315 0.23159,0.0551 0.0885,0.0162 0.17707,0.0235 0.26527,0.041 0.0297,0.003 0.0604,0.008 0.0898,0.0126 0.0251,-0.0757 0.0512,-0.14905 0.0772,-0.22361 l 0.002,-0.003 v -0.002 -0.003 l 0.002,-0.002 0.003,-0.003 h 0.002 l 0.002,-0.002 0.002,0.002 c 0.009,0.002 0.0216,0.014 0.0309,0.0173 h 0.002 0.002 c 0.11318,0.029 0.23305,0.0295 0.33825,0.0913 0.11191,0.0696 0.22369,0.13661 0.33826,0.19842 0.17285,0.0413 0.34658,0.0794 0.51932,0.12125 0.0642,-0.14831 0.20817,-0.26268 0.39862,-0.22676 0.11169,0.0214 0.22289,0.0419 0.33405,0.0661 0.14507,0.0247 0.28674,0.0639 0.4309,0.0929 0.10048,0.0243 0.20153,0.0495 0.30457,0.0614 0.0993,0.0189 0.19829,0.0347 0.29755,0.0535 0.0928,0.0178 0.18682,0.0376 0.27932,0.0567 0.10022,0.0222 0.20074,0.0364 0.30036,0.0614 0.0994,0.0189 0.19669,0.0432 0.29755,0.0552 0.12486,0.0145 0.24484,0.0599 0.36633,0.0898 0.0963,0.0303 0.19476,0.0443 0.29195,0.0709 0.0951,0.0211 0.19103,0.0366 0.28633,0.0567 0.11117,0.0353 0.22468,0.0685 0.33545,0.10551 0.0947,0.0444 0.19304,0.0697 0.29054,0.10394 0.0931,0.0244 0.18753,0.0442 0.28352,0.0552 0.11219,-0.003 0.22352,-0.003 0.33265,0.0126 0.13698,0.0228 0.26482,0.0873 0.39019,0.15276 0.0709,0.038 0.14019,0.0776 0.20913,0.12125 0.0742,0.0214 0.1487,0.0414 0.22316,0.0614 0.0659,0.026 0.13174,0.0427 0.20072,0.0552 0.0704,0.0159 0.14419,0.0223 0.21475,0.0378 0.0755,0.0181 0.14555,0.0548 0.21474,0.0945 0.0614,0.0444 0.12846,0.0681 0.1951,0.0961 0.1074,0.0459 0.2123,0.10468 0.31439,0.16692 0.0181,0.0114 0.0351,0.0222 0.0534,0.0331 0.0238,0.005 0.0481,0.014 0.0716,0.0205 0.0807,0.0318 0.164,0.0489 0.24563,0.0772 0.0806,0.0272 0.15686,0.0683 0.23298,0.11023 0.0759,0.0473 0.1507,0.0946 0.2302,0.13071 0.0989,0.0418 0.20155,0.068 0.30176,0.10551 0.0637,0.0308 0.12776,0.0532 0.19509,0.0693 0.0758,0.0193 0.15273,0.0387 0.22738,0.063 0.0263,0.009 0.0498,0.0204 0.0716,0.0331 0.0594,0.0347 0.10199,0.0853 0.12914,0.14173 0.09,0.0295 0.18237,0.0512 0.26948,0.0913 0.0901,0.038 0.17314,0.0946 0.25685,0.15118 0.0919,0.0569 0.18448,0.11209 0.28352,0.14645 0.12795,0.0638 0.25428,0.1329 0.37335,0.22205 0.0958,0.0656 0.18955,0.13081 0.28633,0.1937 0.0891,0.0588 0.17953,0.11609 0.27089,0.1685 0.13012,0.0751 0.2618,0.14642 0.3944,0.21417 0.11479,0.0658 0.22541,0.14216 0.33685,0.21732 l 0.33967,0.23149 0.39019,0.26771 0.31861,0.21732 c 0.10127,0.0693 0.20329,0.14008 0.30457,0.20944 0.11403,0.078 0.23126,0.14393 0.34528,0.22204 0.10226,0.0699 0.20497,0.14154 0.30739,0.21102 0.12124,0.0807 0.24122,0.16151 0.36352,0.23937 0.10785,0.068 0.21614,0.13791 0.32703,0.19684 0.1123,0.0571 0.22906,0.10185 0.33545,0.17638 0.099,0.0654 0.19915,0.12823 0.30037,0.18739 0.11051,0.0626 0.22161,0.11983 0.33405,0.17638 0.13984,0.0804 0.27097,0.18527 0.40423,0.28346 0.12871,0.0964 0.255,0.19751 0.37897,0.3055 0.11189,0.0974 0.225,0.18994 0.34667,0.26299 0.1106,0.0758 0.22064,0.15513 0.32984,0.23464 0.1025,0.0726 0.20348,0.14712 0.30317,0.22677 0.0907,0.0728 0.17992,0.15008 0.26247,0.24094 0.0749,0.0789 0.15849,0.13589 0.2358,0.20944 0.0542,0.0559 0.10226,0.12337 0.1572,0.17638 0.0834,0.0797 0.16582,0.16619 0.23439,0.274 0.0675,0.11308 0.1295,0.23275 0.18387,0.36378 0.023,0.0526 0.0479,0.10427 0.073,0.15433 0.0143,0.009 0.0308,0.0122 0.0449,0.0221 0.0228,0.0151 0.046,0.0316 0.0687,0.0472 0.0197,0.0134 0.0379,0.026 0.0575,0.0393 0.0186,0.0128 0.0375,0.0249 0.0561,0.0378 l 0.0687,0.0472 c 0.0308,0.0187 0.0594,0.0416 0.0842,0.074 0.0152,0.0211 0.033,0.0365 0.0505,0.0535 0.0188,0.0151 0.0355,0.036 0.0548,0.0504 0.0335,0.017 0.0613,0.0481 0.0884,0.0803 0.0272,0.0312 0.0515,0.0694 0.0786,0.10078 0.0276,0.0337 0.0547,0.0677 0.08,0.10551 0.0218,0.0369 0.0462,0.0697 0.0687,0.10551 0.0223,0.0315 0.0397,0.071 0.0604,0.10551 0.0211,0.0228 0.0392,0.0494 0.0575,0.0772 0.018,0.0261 0.0378,0.0469 0.0562,0.0724 0.0192,0.0284 0.0392,0.0545 0.0561,0.0866 0.005,0.01 0.0104,0.0198 0.0155,0.0299 0.0167,0.0197 0.0334,0.038 0.0505,0.0567 0.0476,0.0421 0.0944,0.0876 0.13616,0.14173 0.0396,0.0486 0.0823,0.0931 0.11368,0.1559 0.0293,0.0562 0.0644,0.10157 0.0926,0.15905 0.029,0.0577 0.06,0.1122 0.0912,0.16693 0.0302,0.0532 0.061,0.10425 0.0912,0.15748 0.0237,0.0453 0.0471,0.0931 0.0758,0.13071 0.0312,0.0407 0.0602,0.0876 0.0912,0.12912 0.003,0.005 0.006,0.0102 0.01,0.0142 0.0201,0.0186 0.0401,0.0404 0.0617,0.0552 0.0338,0.0255 0.0668,0.0525 0.10106,0.0772 0.0284,0.0201 0.0555,0.0432 0.0842,0.063 0.0223,0.0154 0.0449,0.0303 0.0674,0.0456 0.0289,0.0175 0.0556,0.0372 0.0786,0.0677 0.0101,0.0176 0.0219,0.0326 0.0351,0.0441 0.0202,0.0164 0.0392,0.0362 0.0575,0.0567 0.0163,0.0272 0.0324,0.0518 0.0477,0.0803 0.008,0.0164 0.0189,0.0285 0.0295,0.041 0.0208,0.0201 0.0422,0.0386 0.0589,0.0661 0.02,0.0243 0.0353,0.0556 0.0534,0.0835 0.022,0.0244 0.0383,0.0565 0.0575,0.085 0.003,0.006 0.005,0.009 0.006,0.0111 l 0.002,0.002 0.002,0.002 v 0.002 h 0.002 v 0.002 c 0.0364,0.0453 0.0561,0.0937 0.0617,0.1433 0.0152,0.0128 0.0305,0.028 0.0449,0.0425 0.0297,0.0285 0.0557,0.0647 0.0856,0.0929 0.0322,0.0327 0.0617,0.0693 0.0842,0.11811 0.0161,0.0329 0.0311,0.0658 0.0477,0.0976 0.0238,0.0381 0.0471,0.0792 0.0702,0.1181 0.0191,0.0372 0.0397,0.0725 0.0617,0.10551 0.03,0.0491 0.0566,0.10389 0.0856,0.15433 0.0226,0.044 0.0471,0.083 0.0744,0.11968 0.0314,0.0493 0.0592,0.10458 0.087,0.15906 0.0268,0.0524 0.0532,0.10432 0.0814,0.15433 0.027,0.0481 0.0515,0.10127 0.0814,0.14487 0.0322,0.0507 0.0628,0.10312 0.0954,0.15276 0.0304,0.0477 0.0586,0.0989 0.0926,0.14015 0.042,0.0503 0.0867,0.0954 0.12912,0.14488 0.0313,0.0419 0.0577,0.091 0.0842,0.14015 0.023,0.0414 0.0477,0.0786 0.073,0.11654 0.0283,0.0419 0.0608,0.0778 0.087,0.12283 0.027,0.0449 0.0562,0.0869 0.0786,0.13858 0.0243,0.0456 0.0476,0.0925 0.0716,0.13858 0.0222,0.0444 0.0468,0.0844 0.073,0.12283 0.0251,0.0384 0.0515,0.075 0.0744,0.11653 0.0268,0.036 0.0533,0.0702 0.0828,0.10079 0.0359,0.0398 0.081,0.063 0.11509,0.10708 0.0316,0.0355 0.0606,0.0755 0.0926,0.11024 0.0286,0.0353 0.0554,0.0734 0.0842,0.10866 0.0279,0.0371 0.0581,0.0703 0.087,0.10551 0.0277,0.0395 0.0548,0.0784 0.0814,0.11968 0.0231,0.0409 0.0455,0.0846 0.0674,0.12756 0.0214,0.0359 0.0413,0.0741 0.0603,0.11338 0.0231,0.0376 0.0467,0.0751 0.0702,0.11181 0.0196,0.036 0.0396,0.0693 0.0589,0.10551 0.0247,0.0387 0.0491,0.0818 0.0744,0.11968 0.029,0.0431 0.0591,0.0817 0.0814,0.13543 0.0218,0.0401 0.042,0.0827 0.0646,0.12126 0.0305,0.0468 0.0638,0.0908 0.0954,0.13543 0.035,0.0531 0.069,0.10642 0.0969,0.17008 0.0102,0.0229 0.0199,0.0457 0.0295,0.0693 0.0888,0.12637 0.17642,0.2546 0.25826,0.39212 0.087,0.1458 0.17266,0.2931 0.25826,0.44094 0.0634,0.10892 0.13088,0.21264 0.19228,0.3244 0.0575,0.10058 0.0952,0.22572 0.14036,0.34172 0.049,0.12556 0.0955,0.25564 0.14036,0.38582 0.0519,0.15517 0.10361,0.30792 0.16141,0.45668 0.0483,0.12477 0.097,0.25064 0.14176,0.37952 0.0167,0.0184 0.0326,0.0385 0.0492,0.063 0.0657,0.098 0.13423,0.1927 0.19651,0.29606 0.047,0.0874 0.0994,0.16597 0.14737,0.25196 0.0536,0.0795 0.099,0.16939 0.13896,0.26771 0.0397,0.11242 0.073,0.2335 0.11508,0.3433 0.0409,0.11218 0.0751,0.23053 0.11229,0.34646 0.0316,0.11437 0.0734,0.218 0.10808,0.32912 0.037,0.10204 0.07,0.20993 0.10245,0.31653 0.0322,0.10261 0.0695,0.19654 0.0968,0.30393 0.0178,0.085 0.0442,0.16251 0.0674,0.24251 0.0287,0.0871 0.0517,0.17909 0.0758,0.27087 0.0188,0.0647 0.0353,0.13397 0.0603,0.19212 0.0429,0.074 0.0743,0.16644 0.10246,0.25826 0.0222,0.0745 0.0578,0.13089 0.0856,0.19842 0.0106,0.0315 0.021,0.0639 0.0322,0.0945 0.036,-0.006 0.0742,-0.003 0.11228,0.0205 0.0513,0.0305 0.10281,0.0907 0.14878,0.18741 0.0197,0.0405 0.0126,0.0228 0.0224,0.0504 0.0409,0.0665 0.0838,0.1337 0.12351,0.20314 0.24155,0.42396 -0.0292,0.89107 -0.28633,0.66141 -0.16923,0.0564 -0.3495,0.0977 -0.21615,0.24409 -0.0317,-0.0311 -0.0616,-0.0634 -0.0884,-0.10394 -0.0338,-0.0536 -0.0342,-0.0672 -0.0758,-0.10078 -0.041,-0.0422 -0.0817,-0.085 -0.11931,-0.13386 l -0.18246,-0.12598 c -0.0509,-0.012 -0.0999,-0.0285 -0.14878,-0.0488 -0.0533,-0.0327 -0.10889,-0.0535 -0.16702,-0.0677 -0.0521,-0.0236 -0.10852,-0.0242 -0.16422,-0.0315 -0.0218,-0.003 -0.0434,-0.008 -0.0646,-0.0142 -0.0263,-0.003 -0.0517,-0.011 -0.0772,-0.0205 -0.0102,-0.005 -0.0207,-0.01 -0.0309,-0.0142 -0.0513,-8.1e-4 -0.0969,-0.0331 -0.14738,-0.0362 -0.0556,-3.2e-4 -0.10604,-0.0277 -0.16141,-0.0284 -0.0675,0.006 -0.12831,-0.0257 -0.19229,-0.0362 -0.0581,-0.006 -0.11411,-0.02 -0.16983,-0.0378 -0.0393,-0.0174 -0.0832,-0.0156 -0.12492,-0.0236 h -0.002 c -0.006,-5.1e-4 -0.0173,-0.003 -0.0309,-0.006 -0.12904,0.0909 -0.25308,0.10581 -0.37475,0.0567 -0.0443,0.003 -0.0883,0.006 -0.13193,0.003 -0.0554,0.0459 -0.12614,0.0761 -0.21335,0.0803 -0.087,0.003 -0.17329,-6.6e-4 -0.25825,-0.011 -0.0674,-0.005 -0.13532,-0.002 -0.20352,0 -0.0647,-0.005 -0.12783,-0.012 -0.19229,-0.0173 -0.0478,0.015 -0.0946,0.002 -0.14177,0.009 -0.0434,0.003 -0.089,0.0142 -0.13334,0.0268 -0.0583,0.0143 -0.1173,0.0302 -0.17544,0.0394 -0.0456,0.0126 -0.0928,0.0251 -0.13896,0.0362 -0.044,0.011 -0.099,0.0204 -0.1572,0.0331 -0.0637,0.0161 -0.12733,0.0301 -0.19088,0.0441 -0.0475,0.003 -0.0953,0.02 -0.14316,0.0299 -0.0569,0.0168 -0.11196,0.0225 -0.16703,0.0189 l -0.002,0.003 h -0.002 c -0.0168,0.006 -0.0902,0.009 -0.10246,0.011 -0.0444,0.0136 -0.10551,-0.008 -0.13615,0 -0.0721,0.005 -0.14395,-6.3e-4 -0.21334,-0.0142 -0.0682,-0.005 -0.13578,-0.006 -0.20352,-0.0126 -0.0373,-0.007 -0.0759,-0.0121 -0.11369,-0.0173 -0.0242,0.0556 -0.0467,0.11167 -0.0702,0.1685 -0.0394,0.11011 -0.0848,0.21239 -0.13475,0.31181 0.74752,0.20838 1.49531,0.41819 2.24291,0.62675 0.80222,0.22399 1.60468,0.44706 2.40712,0.67086 0.0741,-0.1153 0.20259,-0.18627 0.36493,-0.14016 0.10113,0.0289 0.20647,0.0328 0.31159,0.041 0.13511,0.003 0.27222,-0.0157 0.40844,-0.022 0.11733,0.003 0.23333,0.0195 0.34668,0.0441 0.0786,0.0197 0.16066,0.0175 0.24422,0 0.1091,-0.0185 0.21789,-0.0534 0.32703,-0.0724 0.11672,-0.0201 0.23069,-0.0153 0.34248,0 0.16657,0.0144 0.33107,0.0392 0.49406,0.0724 0.0151,0.002 0.0259,0.005 0.0351,0.006 0.17088,-0.25143 0.3005,-0.55599 0.37615,-0.87715 -0.0681,-0.0608 -0.11308,-0.21113 -0.0955,-0.45668 0.003,-0.0496 -7.1e-4,-0.0947 0.006,-0.14488 0.006,-0.0642 0.006,-0.11033 0.008,-0.17322 0.003,-0.0913 0.0119,-0.18492 0.0127,-0.27558 0.005,-0.0688 0.005,-0.13598 0.004,-0.20316 l -0.002,-0.009 c 1.5e-4,-0.006 3.3e-4,-0.0108 0,-0.0236 -0.002,-0.044 -0.003,-0.0892 -0.003,-0.13386 v -0.003 -0.002 c -4.2e-4,-0.003 -0.002,-0.0104 -0.003,-0.0142 v -0.002 c 5.9e-4,-0.10042 0.006,-0.20211 0.0112,-0.30393 0.0142,-0.10868 0.0157,-0.21682 0.0393,-0.32598 0.0184,-0.0897 0.0321,-0.18128 0.0505,-0.27086 -0.0759,-2.62635 -0.15002,-5.25537 -0.22597,-7.88173 -0.009,0.0185 -0.0188,0.0367 -0.0281,0.0552 -0.0205,0.0378 -0.0233,0.0492 -0.0309,0.0788 -0.0492,0.11951 -0.0629,0.14324 -0.11088,0.24094 -0.0282,0.061 -0.0524,0.11622 -0.0884,0.1811 -0.0264,0.064 -0.0612,0.12169 -0.0968,0.17952 0.005,-0.008 0.008,-0.0123 0.01,-0.0142 h 0.002 v 0.002 c -0.01,0.0247 -0.0749,0.14708 -0.0772,0.15118 -0.002,0.003 -0.006,0.0105 -0.008,0.0157 0.0307,-0.0672 -0.0409,0.0817 -0.0534,0.10708 -0.006,0.01 -0.011,0.0194 -0.0168,0.0284 0.006,0.10285 0.005,0.20279 -0.0112,0.30551 -0.0117,0.0821 -0.0252,0.16389 -0.0492,0.24252 -0.002,0.0441 -0.004,0.14514 -0.007,0.15432 -0.008,0.0982 -0.02,0.19627 -0.0492,0.28976 -0.005,0.0156 -0.01,0.0272 -0.0127,0.0347 -5.4e-4,0.0102 -0.002,0.0229 -0.003,0.0394 -0.003,0.0784 -0.007,0.15688 -0.0168,0.23464 -0.013,0.11887 -0.0271,0.23707 -0.0492,0.35432 -0.0137,0.0729 -0.0322,0.13735 -0.0547,0.19371 0.0195,0.0607 0.0371,0.12291 0.0477,0.19054 0.0147,0.0947 0.0298,0.18787 0.0407,0.28503 0.006,0.0901 0.01,0.19391 0.003,0.27874 -5.9e-4,0.0718 0.003,0.14372 0.006,0.21417 0.002,0.0806 -7.2e-4,0.16305 0.003,0.24251 0.004,0.10309 5e-4,0.21039 0.0112,0.31024 0.008,0.0964 0.0139,0.19088 0.0168,0.28975 0.009,0.0965 0.006,0.13323 0.0127,0.23622 4.9e-4,0.0722 -0.003,0.14339 -0.008,0.21731 -0.002,0.0683 -0.002,0.11096 0.007,0.20473 -0.005,0.0718 0.002,0.14295 0,0.21416 0.003,0.11651 -7.2e-4,0.2324 -0.014,0.35275 h -0.003 c -6.5e-4,0.029 0.004,0.1323 0.004,0.19055 -4.9e-4,0.0136 -2.5e-4,0.0278 -0.002,0.0425 -0.003,0.0826 -0.008,0.16622 -0.01,0.24882 0.0274,0.058 0.0481,0.13655 0.0604,0.23936 0.009,0.0743 0.0262,0.14557 0.0295,0.22362 0.0118,0.13126 0.0234,0.2633 0.0239,0.39999 5e-4,0.12008 -0.012,0.2225 -0.0322,0.30708 0.007,0.0322 0.0129,0.0674 0.0183,0.10551 0.021,0.14932 0.007,0.31516 0.021,0.46771 5.9e-4,0.0115 0.006,0.0262 0.008,0.0378 0.0758,0.66316 -0.37506,0.93815 -0.45477,0.29763 -0.058,0.10098 -0.11236,0.17074 -0.14457,0.14173 -0.0179,-0.0196 -0.0312,-0.073 -0.0322,-0.17323 -5.9e-4,-0.0967 -4.1e-4,-0.0943 -0.004,-0.18739 -2.6e-4,-0.023 -0.006,-0.11923 -0.004,-0.13228 -0.009,-0.0661 -0.0188,-0.13163 -0.0295,-0.19685 -0.008,-0.0452 -0.0168,-0.0902 -0.0267,-0.13386 -0.003,-0.006 -0.005,-0.0125 -0.006,-0.0157 -0.0283,-0.1 -0.047,-0.20749 -0.0589,-0.31968 -0.005,-0.0775 -0.0111,-0.15819 -0.0295,-0.22677 -0.0331,-0.0904 -0.0372,-0.20344 -0.0575,-0.30393 -0.0172,-0.0911 -0.0298,-0.18677 -0.0589,-0.26771 -0.009,-0.0252 -0.0156,-0.053 -0.0224,-0.0803 -0.0493,-0.0219 -0.0974,-0.0504 -0.14317,-0.085 -0.0529,-0.0458 -0.10373,-0.0971 -0.15018,-0.1559 -0.0532,-0.0703 -0.0686,-0.1835 -0.10386,-0.27558 -0.0388,-0.0898 -0.0629,-0.19795 -0.0969,-0.29292 -0.0361,-0.10592 -0.0741,-0.20728 -0.10246,-0.32125 -0.0259,-0.10214 -0.0546,-0.19996 -0.08,-0.30235 -0.0155,-0.0214 -0.0313,-0.0441 -0.0463,-0.0661 -0.11922,-0.17572 -0.13283,-0.37366 -0.0884,-0.52125 v -0.003 h -0.002 c -2.56198,-5.13842 -5.57667,-9.37226 -8.99266,-12.62178 -3.42991,-3.26268 -7.26707,-5.5441 -11.40681,-6.78097 -2.763,-0.82578 -5.2817,-1.0614 -7.24383,-1.06454 z m 29.25038,10.82341 c -0.008,5.8e-4 -0.0168,0.002 -0.0253,0.003 v 0.002 h -0.002 v 0.003 h -0.002 l -0.002,0.002 v 0.003 c 0.0106,-0.003 0.0217,-0.007 0.0322,-0.0111 z m -0.75371,9.85334 c -0.009,0.0138 -0.0197,0.0272 -0.0295,0.0394 0.005,0.0118 0.0103,0.0241 0.0155,0.0362 h 0.002 l -0.002,0.003 h 0.002 v 0.003 c 0.005,0.0143 0.0103,0.0276 0.0168,0.041 0.004,0.009 0.009,0.0192 0.014,0.0268 -0.006,-0.05 -0.0118,-0.0998 -0.0182,-0.14961 z m -1.71517,2.32436 c -0.002,0.0174 -0.002,0.0345 -0.004,0.052 0.008,-0.003 0.015,-0.003 0.0224,-0.003 -0.005,-0.0156 -0.0113,-0.0306 -0.0168,-0.0456 v -0.003 z m -0.5516,0.37165 c -0.002,0.0136 -0.003,0.0255 -0.006,0.0315 l -0.002,0.002 v 0.002 c 0.002,0.007 0.002,0.0116 0.003,0.0173 0.003,-0.0197 0.004,-0.0332 0.007,-0.0504 h -0.002 z m -6.48729,0.71338 c -0.0175,0.005 -0.0409,0.0151 -0.0492,0.0205 h -0.002 v 0.002 c 0.0175,0.006 0.034,-0.002 0.0505,-0.022 z m 7.52312,0.43463 c -0.002,0.0132 -0.006,0.0268 -0.007,0.0394 0.008,0.003 0.0156,0.008 0.0238,0.011 -0.005,-0.0168 -0.011,-0.0348 -0.0168,-0.0504 z m -5.50199,0.79526 c -0.009,0.006 -0.019,0.0109 -0.0281,0.0173 -0.005,0.008 -0.009,0.0172 -0.014,0.0252 0.01,5.9e-4 0.0201,-6.6e-4 0.0281,-0.011 0.005,-8.1e-4 0.0102,-0.003 0.0155,-0.005 -3.1e-4,-0.009 -0.002,-0.0179 -0.002,-0.0268 z" /><path
       id="path5-6"
       style="opacity:0.6;fill:#ac3b61;fill-opacity:1;fill-rule:nonzero;stroke:none;stroke-width:0.00308238"
       d="m -567.56662,593.75771 c -0.004,0.008 -0.005,0.0154 -0.009,0.0233 l -6.9e-4,2.9e-4 0.002,10e-4 -6.8e-4,2.8e-4 0.002,10e-4 -1.3e-4,10e-4 0.002,10e-4 0.002,10e-4 c 0.002,-0.0104 0.004,-0.0209 0.005,-0.0317 z m 1.69407,0.24554 c 0.0172,0.051 0.0307,0.10168 0.0424,0.15227 0.0121,0.0538 0.0323,0.1088 0.0504,0.16331 l 0.002,10e-4 -1.5e-4,10e-4 c 0.0155,0.0236 0.0301,0.0476 0.0429,0.0714 0.009,0.006 0.0164,0.0111 0.0251,0.0162 0.0488,0.0295 0.0981,0.0531 0.14804,0.0786 0.072,0.0417 0.10481,0.0624 0.16462,0.0986 0.0443,0.0257 0.0826,0.0583 0.13648,0.0823 0.0641,0.0348 0.12944,0.0636 0.19433,0.10145 0.0676,0.0489 0.10938,0.0728 0.17967,0.12317 0.0817,0.0585 0.15211,0.13116 0.22095,0.20364 0.0457,0.0541 0.0668,0.0718 0.10865,0.10601 0.0606,0.0484 0.11605,0.10238 0.1712,0.1567 0.0155,0.0189 0.0364,0.0355 0.0546,0.0538 0.007,0.005 0.0172,0.0155 0.0232,0.0195 0.0588,0.0512 0.0968,0.0734 0.16187,0.12242 0.0779,0.0608 0.14855,0.13134 0.21671,0.20232 0.0381,0.0337 0.0722,0.0549 0.11353,0.0828 0.0608,0.0385 0.11745,0.0928 0.17991,0.12705 0.0816,0.0552 0.16273,0.11146 0.24298,0.16947 0.0445,0.0258 0.10603,0.0917 0.15783,0.125 0.14291,0.053 0.28555,0.10578 0.42841,0.15797 0.1256,0.0502 0.25035,0.0933 0.37591,0.13712 0.11621,0.0384 0.23219,0.0853 0.34784,0.13886 0.0974,0.0401 0.1945,0.0826 0.29211,0.11596 0.0681,0.0305 0.1385,0.0455 0.20533,0.0602 0.092,0.0141 0.18269,0.0168 0.27751,0.0446 0.0792,0.023 0.15791,0.0444 0.23721,0.0725 0.0721,0.0288 0.15401,0.0652 0.21626,0.10374 0.0552,0.0279 0.11043,0.0548 0.16542,0.0802 0.0628,0.0294 0.12541,0.0624 0.18805,0.0898 0.0813,0.0355 0.16211,0.08 0.24364,0.10858 0.0775,0.0298 0.154,0.0611 0.2314,0.0962 0.0781,0.0292 0.10421,0.0453 0.1865,0.0785 0.0558,0.0271 0.11144,0.0547 0.16608,0.0875 0.052,0.0273 0.082,0.0467 0.15815,0.0743 0.0532,0.0317 0.11141,0.0535 0.16572,0.0818 0.091,0.0419 0.17855,0.0898 0.26572,0.14688 l -6.9e-4,3e-4 -0.003,-7e-4 -0.003,-6.9e-4 -0.002,-10e-4 -6.9e-4,2.9e-4 -0.002,-10e-4 -6.8e-4,2.9e-4 -6.9e-4,3e-4 c 0.0137,0.008 0.11029,0.0506 0.15814,0.0743 0.0103,0.006 0.0214,0.0112 0.0323,0.0176 0.0624,0.0339 0.12525,0.0704 0.18799,0.10373 0.0563,-10e-4 0.12577,0.009 0.21018,0.0373 0.061,0.0209 0.12269,0.0332 0.18422,0.06 0.10619,0.0396 0.21362,0.0794 0.31916,0.13097 0.0927,0.0453 0.16614,0.0943 0.2227,0.1441 0.0278,0.006 0.0585,0.0135 0.0903,0.0229 0.12394,0.0387 0.24643,0.11304 0.36991,0.159 0.009,0.003 0.0201,0.009 0.0301,0.011 0.54319,0.18658 0.5645,0.68282 0.0372,0.50823 0.085,0.14211 0.11663,0.24358 -0.0996,0.13993 -0.0748,-0.0363 -0.0721,-0.0361 -0.14513,-0.0686 -0.0177,-0.009 -0.0937,-0.0408 -0.1031,-0.0471 -0.0548,-0.0172 -0.11021,-0.0344 -0.1649,-0.0502 -0.0381,-0.0106 -0.0766,-0.02 -0.11453,-0.0277 -0.007,10e-5 -0.011,-6e-4 -0.0137,-10e-4 -0.0891,-0.0135 -0.18019,-0.0382 -0.27169,-0.0706 -0.062,-0.0248 -0.1268,-0.0497 -0.18745,-0.0599 -0.0837,-0.006 -0.17288,-0.046 -0.25895,-0.0666 -0.0776,-0.0195 -0.15614,-0.0445 -0.23079,-0.0503 -0.0231,-0.002 -0.0478,-0.006 -0.0717,-0.0107 -0.0378,0.0344 -0.0802,0.0643 -0.12626,0.0908 -0.0578,0.0285 -0.11892,0.0531 -0.18396,0.071 -0.0767,0.0194 -0.17093,-0.009 -0.25688,-0.0136 -0.0856,-5.3e-4 -0.17849,-0.0211 -0.26607,-0.0278 -0.097,-0.009 -0.19164,-0.0149 -0.29152,-0.0337 -0.0897,-0.0163 -0.17737,-0.0284 -0.26709,-0.0453 -0.023,0.006 -0.0468,0.01 -0.0702,0.0145 -0.18607,0.0366 -0.34495,-0.0258 -0.43978,-0.12053 l -0.002,-10e-4 -6.8e-4,2.9e-4 c -5.04829,0.26877 -9.59181,1.27559 -13.54782,3.00477 -3.97207,1.73625 -7.36148,4.20005 -10.07448,7.32364 -2.41461,2.77959 -3.836,5.57973 -4.60325,7.4395 -0.83909,2.03335 -1.10228,3.40614 -1.11303,3.46359 -0.0818,0.43461 0.19474,0.97848 0.64609,1.34077 0.004,-0.0245 0.0105,-0.0498 0.02,-0.0748 0.013,-0.0321 0.0155,-0.07 0.0297,-0.10144 0.0149,-0.0451 0.0271,-0.0931 0.0323,-0.14351 0.008,-0.0584 0.0152,-0.12681 0.0263,-0.17589 0.009,-0.058 0.018,-0.11523 0.0329,-0.17005 0.0116,-0.0348 0.0154,-0.0761 0.0313,-0.10856 0.0107,-0.0593 0.0264,-0.11557 0.0389,-0.17389 0.0213,-0.0724 0.0386,-0.14887 0.0842,-0.20475 0.0337,-0.0524 0.0636,-0.10851 0.10158,-0.15739 0.009,-0.0652 0.026,-0.1255 0.0412,-0.1875 l -0.002,-10e-4 -0.002,-10e-4 1.5e-4,-0.001 1.4e-4,-10e-4 6.9e-4,-3e-4 c 0.005,-0.0288 0.0538,-0.11013 0.0564,-0.12465 l -0.002,-10e-4 c -7.6e-4,-0.0489 0.0177,-0.10126 0.0301,-0.14801 0.0137,-0.0553 0.0433,-0.10258 0.0489,-0.16225 0.009,-0.0852 0.051,-0.15259 0.0614,-0.23659 0.0132,-0.0885 0.0325,-0.1737 0.057,-0.25602 0.0355,-0.0966 0.0686,-0.19415 0.11395,-0.28424 0.0413,-0.0938 0.093,-0.18051 0.15531,-0.25811 0.0297,-0.0617 0.0805,-0.10609 0.11486,-0.1638 0.0409,-0.0551 0.0741,-0.11548 0.11104,-0.1736 0.0507,-0.0666 0.0982,-0.13641 0.15248,-0.19985 0.0336,-0.0576 0.0809,-0.10431 0.12155,-0.15604 0.008,-0.0377 0.01,-0.0782 0.0238,-0.11184 0.0133,-0.0414 0.026,-0.0824 0.0372,-0.1249 0.009,-0.0716 0.0241,-0.13945 0.0422,-0.20629 0.0214,-0.0697 0.0468,-0.13703 0.065,-0.20874 0.0146,-0.0417 0.0298,-0.0832 0.0376,-0.12855 0.007,-0.0821 0.0213,-0.15875 0.0449,-0.23213 0.0162,-0.0745 0.0409,-0.14569 0.0452,-0.22631 0.0185,-0.0855 0.0312,-0.17292 0.054,-0.25603 0.0174,-0.0886 0.0417,-0.17398 0.0653,-0.25922 0.0208,-0.0523 0.0356,-0.10848 0.0534,-0.16274 0.0252,-0.0682 0.0618,-0.12802 0.0942,-0.19122 0.0356,-0.0502 0.0661,-0.10492 0.10827,-0.14962 0.0454,-0.0611 0.0896,-0.12305 0.14002,-0.17989 0.05,-0.0707 0.0942,-0.14554 0.14524,-0.21546 0.0152,-0.0245 0.0319,-0.0491 0.0479,-0.0729 -0.0477,-0.0506 -0.0934,-0.10165 -0.13972,-0.15266 l -0.002,-10e-4 -0.002,-10e-4 -0.002,-0.001 -0.002,-10e-4 7e-4,-3e-4 -7e-4,-0.004 1.6e-4,-10e-4 1.4e-4,-0.001 7e-4,-2.9e-4 6.9e-4,-2.9e-4 c 0.007,-0.008 0.023,-0.0138 0.028,-0.0219 0.0705,-0.0872 0.12143,-0.19134 0.21374,-0.25917 0.10119,-0.0707 0.2002,-0.14331 0.29655,-0.21928 0.10528,-0.13436 0.20931,-0.27021 0.31497,-0.40428 -0.087,-0.11216 -0.11407,-0.28 -0.005,-0.43168 0.0639,-0.0888 0.12657,-0.17841 0.19245,-0.26572 0.0807,-0.11655 0.17145,-0.22379 0.25511,-0.3379 0.0614,-0.078 0.12311,-0.15627 0.17611,-0.2412 0.0568,-0.0791 0.11123,-0.15899 0.168,-0.23798 0.0532,-0.0738 0.10864,-0.14753 0.1627,-0.22056 0.0597,-0.0785 0.1136,-0.16165 0.17517,-0.23864 0.0569,-0.0791 0.11697,-0.15369 0.16906,-0.23671 0.0643,-0.10288 0.14914,-0.18955 0.22378,-0.28369 0.0644,-0.0721 0.11717,-0.15272 0.17902,-0.22697 0.0566,-0.0745 0.11053,-0.1519 0.16649,-0.22701 0.0745,-0.0831 0.14691,-0.16864 0.22258,-0.2507 0.0745,-0.0654 0.13704,-0.14166 0.20491,-0.21326 0.0585,-0.0716 0.11322,-0.14525 0.1625,-0.22441 0.0452,-0.0986 0.0927,-0.19552 0.15152,-0.2841 0.0758,-0.11025 0.17875,-0.1969 0.28246,-0.28086 0.0594,-0.0471 0.12047,-0.0918 0.18336,-0.13506 0.048,-0.0564 0.0945,-0.11376 0.1416,-0.1708 0.0481,-0.0473 0.0891,-0.0989 0.12789,-0.15408 0.0421,-0.055 0.0787,-0.11622 0.12064,-0.17156 0.0461,-0.0587 0.10365,-0.10566 0.16364,-0.15064 0.0602,-0.0364 0.10752,-0.0853 0.1574,-0.13254 0.0811,-0.0758 0.17026,-0.14413 0.26162,-0.20908 0.0164,-0.0114 0.0332,-0.0217 0.0493,-0.0335 0.0139,-0.0188 0.0299,-0.0368 0.0449,-0.0548 0.0588,-0.0579 0.10833,-0.12356 0.16479,-0.1837 0.0553,-0.0596 0.11922,-0.11145 0.18388,-0.16159 0.0686,-0.0479 0.13762,-0.0939 0.19923,-0.14922 0.0743,-0.07 0.13818,-0.1495 0.20965,-0.22226 0.0509,-0.0436 0.0949,-0.0907 0.13585,-0.14303 0.0472,-0.0585 0.0951,-0.11783 0.14555,-0.17342 0.0177,-0.0196 0.0366,-0.0355 0.0556,-0.0496 0.052,-0.0383 0.10875,-0.056 0.16381,-0.0581 0.061,-0.0669 0.11691,-0.13809 0.18488,-0.19844 0.0675,-0.0638 0.14623,-0.11478 0.22546,-0.16591 0.0829,-0.0581 0.1648,-0.11818 0.23339,-0.1911 0.10354,-0.0868 0.21064,-0.16906 0.32993,-0.23851 0.0912,-0.0582 0.18229,-0.11532 0.2719,-0.17543 0.0832,-0.055 0.16474,-0.11224 0.24396,-0.17161 0.11317,-0.0844 0.22421,-0.17121 0.33279,-0.26056 0.0995,-0.0746 0.20538,-0.14197 0.31067,-0.21013 l 0.32345,-0.20622 0.37178,-0.23705 0.3033,-0.19336 c 0.0965,-0.0615 0.19369,-0.12346 0.29019,-0.18501 0.10861,-0.0693 0.21007,-0.146 0.31873,-0.21528 0.0974,-0.0622 0.19514,-0.12382 0.29221,-0.1863 0.11371,-0.0746 0.22802,-0.14848 0.33999,-0.22504 0.0982,-0.0678 0.19731,-0.13507 0.28987,-0.20892 0.0917,-0.0758 0.17585,-0.15989 0.27851,-0.22389 0.0924,-0.0611 0.18354,-0.12423 0.27215,-0.1896 0.0952,-0.0721 0.18616,-0.14714 0.27752,-0.22325 0.1214,-0.0908 0.25808,-0.16436 0.39037,-0.2427 0.12904,-0.075 0.26136,-0.14642 0.39727,-0.21296 0.12259,-0.0601 0.24187,-0.12305 0.34988,-0.20089 0.10541,-0.0672 0.2133,-0.13184 0.32098,-0.19639 0.0995,-0.0614 0.20042,-0.12158 0.30419,-0.17784 0.0947,-0.051 0.19108,-0.0993 0.29617,-0.13644 0.0926,-0.035 0.1728,-0.0858 0.26234,-0.12496 0.0661,-0.0257 0.13873,-0.0414 0.20293,-0.0689 0.0968,-0.0421 0.19763,-0.0803 0.30986,-0.0988 0.11582,-0.0156 0.23526,-0.0243 0.35933,-0.0216 0.0502,1.6e-4 0.1,-0.001 0.14923,-0.004 0.0132,-0.009 0.0221,-0.0225 0.0357,-0.0309 0.0212,-0.014 0.044,-0.028 0.0656,-0.0417 0.0187,-0.0121 0.0368,-0.0234 0.0554,-0.0354 0.0177,-0.0113 0.0355,-0.0228 0.0534,-0.034 l 0.0654,-0.0418 c 0.0275,-0.0195 0.057,-0.0357 0.0925,-0.0448 0.0228,-0.005 0.0418,-0.015 0.0623,-0.0237 0.0196,-0.0106 0.044,-0.017 0.0632,-0.0282 0.0274,-0.0227 0.0624,-0.0355 0.0987,-0.0468 0.0356,-0.0118 0.0755,-0.017 0.11119,-0.0286 0.0377,-0.0111 0.0756,-0.0216 0.11537,-0.0292 0.0376,-0.005 0.0735,-0.0143 0.11063,-0.0202 0.0339,-0.007 0.0716,-0.007 0.10699,-0.0118 0.0265,-0.01 0.0541,-0.0156 0.0834,-0.021 0.0277,-0.006 0.053,-0.0147 0.0804,-0.021 0.03,-0.006 0.0591,-0.0132 0.091,-0.0158 0.01,-6.1e-4 0.0193,-0.002 0.0291,-0.003 0.0222,-0.007 0.044,-0.014 0.0655,-0.0218 0.0526,-0.0253 0.10716,-0.0483 0.16661,-0.0639 0.0543,-0.0159 0.10629,-0.0373 0.16798,-0.0407 0.0557,-0.004 0.10666,-0.0166 0.16296,-0.0193 0.0568,-0.003 0.11189,-0.01 0.16733,-0.0161 0.0538,-0.006 0.10602,-0.0133 0.15986,-0.0193 0.0449,-0.003 0.0917,-0.006 0.13283,-0.0162 0.0446,-0.0115 0.0921,-0.0181 0.13728,-0.0291 0.005,-5.2e-4 0.0109,-0.001 0.0155,-0.003 0.0228,-0.0104 0.0485,-0.0188 0.0691,-0.032 0.034,-0.0196 0.0685,-0.0387 0.10217,-0.059 0.0276,-0.017 0.0565,-0.032 0.0839,-0.0494 0.0214,-0.0136 0.0432,-0.0275 0.0645,-0.0411 0.0258,-0.0184 0.052,-0.034 0.0853,-0.0423 0.0177,-0.002 0.035,-0.006 0.0494,-0.0133 0.0212,-0.0113 0.0437,-0.0207 0.0673,-0.0288 0.0279,-0.004 0.0545,-0.008 0.083,-0.0106 0.0163,-10e-4 0.0292,-0.005 0.0434,-0.009 0.0243,-0.0104 0.0476,-0.022 0.0758,-0.0261 0.0272,-0.008 0.0578,-0.0101 0.087,-0.0152 0.0282,-0.01 0.0608,-0.0118 0.0909,-0.0177 0.007,-6.9e-4 0.01,-6e-4 0.0112,-6.9e-4 l 6.9e-4,-3e-4 c 6.9e-4,-2.8e-4 0.003,1.8e-4 0.005,-10e-4 0.0504,-0.0144 0.0963,-0.0127 0.13696,10e-4 0.0163,-0.008 0.0337,-0.0153 0.0509,-0.0223 0.0345,-0.0149 0.074,-0.0237 0.10851,-0.0389 0.0389,-0.0154 0.0797,-0.0275 0.12691,-0.0285 0.0322,-10e-4 0.0643,-0.002 0.0959,-0.005 0.0393,-0.006 0.0805,-0.011 0.12028,-0.0163 0.0367,-0.003 0.0732,-0.006 0.10801,-0.0125 0.0505,-0.007 0.10358,-0.01 0.15479,-0.0161 0.0436,-0.003 0.0845,-0.009 0.12433,-0.0188 0.0513,-0.008 0.10525,-0.0113 0.15907,-0.0148 0.0517,-0.003 0.10349,-0.006 0.15403,-0.0116 0.0485,-0.005 0.0991,-0.007 0.14537,-0.0161 0.0527,-0.009 0.10733,-0.0156 0.15948,-0.0252 0.0497,-0.008 0.10057,-0.0133 0.14686,-0.0271 0.0566,-0.0173 0.1098,-0.0395 0.16599,-0.0574 0.0456,-0.0112 0.095,-0.0151 0.14415,-0.0194 0.0417,-0.004 0.0812,-0.0113 0.12117,-0.0189 0.0443,-0.009 0.0851,-0.0235 0.13101,-0.0292 0.0461,-0.006 0.0909,-0.0151 0.14026,-0.0149 0.0456,-0.003 0.0917,-0.006 0.13744,-0.009 0.0436,-0.002 0.0847,-0.01 0.12543,-0.0175 0.0402,-0.007 0.0804,-0.0154 0.12216,-0.0195 0.0392,-0.01 0.0768,-0.0198 0.113,-0.0338 0.0459,-0.016 0.0819,-0.046 0.13033,-0.059 0.0408,-0.014 0.0837,-0.0242 0.12422,-0.0389 0.0393,-0.0114 0.08,-0.0202 0.11939,-0.0318 0.0404,-0.0101 0.0788,-0.0233 0.11816,-0.035 0.0422,-0.009 0.085,-0.0179 0.12814,-0.0253 0.0412,-0.005 0.0835,-0.007 0.12595,-0.01 0.0367,-0.005 0.075,-0.008 0.11334,-0.01 0.0388,-0.006 0.0778,-0.0111 0.11602,-0.0175 0.036,-0.003 0.0709,-0.009 0.10696,-0.0118 0.0404,-0.007 0.0834,-0.0106 0.12334,-0.0182 0.0457,-0.009 0.0881,-0.0212 0.13888,-0.02 0.0402,-0.003 0.0814,-0.006 0.12064,-0.0104 0.0491,-0.009 0.0977,-0.0199 0.14558,-0.0304 0.0559,-0.0102 0.1115,-0.0193 0.17238,-0.0193 0.0221,-3e-4 0.0436,-2.7e-4 0.0659,3.7e-4 0.13511,-0.029 0.27087,-0.0563 0.41161,-0.0751 0.14931,-0.02 0.29897,-0.0387 0.44928,-0.0567 0.11084,-0.0136 0.21975,-0.0316 0.33197,-0.0424 0.10197,-0.0117 0.21481,0.002 0.3234,0.007 0.11759,0.005 0.23641,0.0144 0.35578,0.025 0.14162,0.014 0.28194,0.0272 0.42112,0.0337 0.11667,0.006 0.2341,0.0109 0.35243,0.0211 0.0212,-0.008 0.0442,-0.0134 0.0701,-0.0185 0.1034,-0.0197 0.20513,-0.0427 0.31125,-0.0574 0.0873,-0.008 0.16964,-0.0236 0.25626,-0.0325 0.084,-0.0163 0.17374,-0.0216 0.26648,-0.0188 0.10353,0.008 0.20973,0.0254 0.31222,0.0306 0.10379,0.007 0.20946,0.0233 0.31458,0.0351 0.10158,0.0161 0.19932,0.0184 0.29968,0.0305 0.0943,0.007 0.19129,0.0201 0.28724,0.0325 0.0927,0.0111 0.18135,0.0146 0.27571,0.0318 0.073,0.0167 0.14473,0.0231 0.21624,0.0334 0.0792,0.008 0.1596,0.0239 0.24053,0.038 0.0578,0.008 0.11819,0.0199 0.17366,0.0202 0.0752,-0.009 0.15926,-10e-4 0.24196,0.009 0.0669,0.009 0.12644,10e-6 0.19031,10e-4 0.0289,0.003 0.0578,0.006 0.0862,0.007 0.0103,-0.0337 0.0295,-0.0649 0.0637,-0.089 0.0452,-0.033 0.11375,-0.0548 0.20776,-0.0579 0.0397,-10e-4 0.0227,-0.002 0.0481,-3.9e-4 0.0686,-0.0103 0.13792,-0.022 0.2083,-0.0301 0.42933,-0.0483 0.67409,0.36429 0.38781,0.50015 -0.0284,0.16842 -0.0726,0.34076 0.0969,0.2807 -0.0375,0.0156 -0.0754,0.0292 -0.11803,0.037 -0.0557,0.009 -0.0666,0.005 -0.11019,0.028 -0.05,0.0195 -0.10011,0.0376 -0.15373,0.0517 l -0.17433,0.11113 c -0.0309,0.0397 -0.0648,0.0762 -0.1012,0.11081 -0.048,0.0338 -0.087,0.0735 -0.12269,0.11851 -0.0403,0.0362 -0.0654,0.0854 -0.0948,0.13094 -0.0121,0.0176 -0.0238,0.0344 -0.0377,0.0503 -0.0133,0.0218 -0.0307,0.0407 -0.0488,0.0592 -0.009,0.007 -0.0159,0.0142 -0.0238,0.0213 -0.0224,0.0442 -0.0676,0.0721 -0.0916,0.11475 -0.0239,0.0482 -0.0656,0.0818 -0.0897,0.12962 -0.0237,0.0611 -0.074,0.10066 -0.10918,0.15223 -0.0296,0.048 -0.0645,0.0918 -0.10201,0.13343 -0.0301,0.0275 -0.0476,0.0668 -0.0715,0.1 -0.002,0.004 -0.009,0.0138 -0.0181,0.0259 0.0152,0.14664 -0.026,0.25876 -0.11547,0.34576 -0.0162,0.0398 -0.0333,0.0789 -0.0537,0.11582 0.0119,0.0655 0.004,0.1387 -0.0291,0.21603 -0.0345,0.0768 -0.0738,0.1502 -0.11779,0.22011 -0.0323,0.0566 -0.0593,0.11635 -0.0869,0.17626 -0.0313,0.0543 -0.0634,0.10745 -0.095,0.16139 -0.009,0.0471 -0.0383,0.083 -0.0532,0.12662 -0.0159,0.0389 -0.0264,0.0821 -0.0359,0.12527 -0.014,0.056 -0.0269,0.11343 -0.0445,0.16742 -0.01,0.0444 -0.0197,0.0901 -0.0308,0.13441 -0.0104,0.0423 -0.0267,0.0939 -0.0412,0.14936 -0.0149,0.0613 -0.0317,0.12114 -0.048,0.18163 -0.0177,0.0426 -0.0244,0.091 -0.0372,0.13633 -0.011,0.0558 -0.0307,0.10668 -0.0569,0.15312 l 0.002,10e-4 -1.4e-4,10e-4 c -0.003,0.0166 -0.0316,0.0817 -0.0351,0.0931 -0.009,0.0437 -0.052,0.0886 -0.0587,0.11826 -0.0269,0.0644 -0.0615,0.12432 -0.10127,0.17946 -0.0328,0.0574 -0.0624,0.1162 -0.0964,0.17239 -0.0215,0.0296 -0.0415,0.0608 -0.0615,0.0916 0.0325,0.0423 0.0664,0.0834 0.10024,0.12546 0.0681,0.0761 0.12778,0.15458 0.18314,0.23579 0.47837,-0.56973 0.95678,-1.13914 1.43533,-1.70886 0.51365,-0.61128 1.02726,-1.22301 1.54086,-1.83457 -0.0573,-0.10819 -0.0573,-0.24721 0.0472,-0.37062 0.0653,-0.0768 0.11271,-0.16736 0.1637,-0.25552 0.06,-0.11609 0.10452,-0.24162 0.15757,-0.3623 0.0525,-0.10063 0.1138,-0.19546 0.18092,-0.28452 0.0485,-0.0608 0.0817,-0.13191 0.10369,-0.21112 0.0321,-0.10175 0.0513,-0.21085 0.0831,-0.31284 0.0341,-0.10897 0.0864,-0.20514 0.14565,-0.29637 0.0819,-0.13917 0.17113,-0.27243 0.26602,-0.40129 0.009,-0.0122 0.0152,-0.0216 0.0203,-0.0289 -0.12108,-0.24407 -0.30105,-0.47206 -0.51634,-0.65998 -0.0758,0.036 -0.21034,0.0183 -0.39203,-0.0905 -0.0367,-0.022 -0.0742,-0.0362 -0.11023,-0.0606 -0.047,-0.0295 -0.0835,-0.0451 -0.13077,-0.0715 -0.0689,-0.0378 -0.1369,-0.0811 -0.20647,-0.11616 -0.0509,-0.0305 -0.10303,-0.0556 -0.1551,-0.0805 l -0.008,-0.003 c -0.004,-0.002 -0.009,-0.004 -0.0182,-0.009 -0.0345,-0.0154 -0.0698,-0.0314 -0.10422,-0.0484 l -0.002,-10e-4 -6.8e-4,3e-4 c -0.004,-0.002 -0.009,-0.004 -0.013,-0.006 -0.0771,-0.0387 -0.154,-0.0815 -0.22998,-0.12532 -0.0778,-0.0537 -0.16095,-0.0964 -0.23504,-0.15841 -0.0613,-0.0501 -0.12613,-0.0964 -0.18731,-0.14654 -2.89196,-1.31345 -5.78324,-2.62654 -8.67516,-3.93963 z m 5.57632,4.1586 c 0.008,0.0138 0.0127,0.0273 0.018,0.0409 0.0113,-4e-5 0.0231,-5e-5 0.0345,10e-5 l 6.9e-4,-2.8e-4 0.002,10e-4 6.9e-4,-3e-4 7e-4,-2.9e-4 0.002,10e-4 7.1e-4,-2.9e-4 c 0.0131,10e-4 0.0258,10e-4 0.0389,10e-4 0.009,-1.6e-4 0.0184,-10e-4 0.026,-0.003 -0.0414,-0.0139 -0.0822,-0.0266 -0.12365,-0.04 z m 1.06309,2.37436 c 0.0129,0.008 0.0253,0.0156 0.0378,0.0241 7.5e-4,-0.008 0.004,-0.0142 0.008,-0.0207 -0.0141,-0.001 -0.0282,-0.002 -0.042,-0.003 l -0.003,-7e-4 z m 0.051,0.6202 c 0.0129,0.009 0.0208,0.0156 0.0232,0.0195 0.007,10e-4 0.01,0.003 0.0151,0.004 -0.0136,-0.0109 -0.0239,-0.0165 -0.036,-0.0255 l -1.5e-4,10e-4 z m 0.55959,-0.0647 c 0.0149,0.0165 0.0301,0.0332 0.0457,0.0494 -0.007,-0.0137 -0.0121,-0.0273 -0.0191,-0.0421 -0.008,-0.002 -0.0173,-0.006 -0.0258,-0.007 z m 0.76485,-0.39698 c 0.01,0.007 0.018,0.0143 0.0276,0.0206 0.007,-0.006 0.0128,-0.0103 0.0189,-0.0161 -0.0156,-0.002 -0.0312,-0.004 -0.0463,-0.005 z m -1.72716,5.07797 c 7.5e-4,0.0112 0.002,0.0215 0.003,0.0324 0.004,0.007 0.009,0.0147 0.0127,0.0221 0.004,-0.008 0.008,-0.0177 0.004,-0.0286 7.6e-4,-0.005 7.6e-4,-0.01 0.003,-0.0152 -0.008,-0.003 -0.0143,-0.007 -0.0215,-0.0105 z m -1.80592,1.28839 c -0.004,0.0169 -0.007,0.0406 -0.005,0.0498 l -1.6e-4,10e-4 0.002,10e-4 c 0.0125,-0.0127 0.012,-0.0314 0.004,-0.0531 z"
       inkscape:transform-center-x="-0.94115544"
       inkscape:transform-center-y="0.90164974" /><path
       style="opacity:1;fill:#4d4d4d;fill-opacity:0.65625;stroke-width:1.36991"
       d="m -779.27398,762.2974 411.09427,0.80884 271.240891,-1.02392"
       id="path7"
       inkscape:transform-center-x="0.32394265"
       inkscape:transform-center-y="0.0074808181" /><path
       id="path6-6"
       style="fill:#ac3b61;fill-opacity:1;fill-rule:nonzero;stroke:none;stroke-width:0.00290685"
       d="m -322.1671,581.44897 -0.002,0.002 -0.002,0.002 -0.002,0.002 -0.002,0.002 -0.002,0.002 -0.002,0.002 -0.002,0.002 -0.002,0.002 -0.0205,10e-4 c 0.007,0.0531 0.0112,0.10402 0.012,0.15769 -2.4e-4,0.0157 -1.2e-4,0.0306 -7.4e-4,0.0464 h 0.002 l 0.002,2e-5 0.002,10e-6 0.002,1e-5 c 0.003,2.6e-4 0.009,10e-4 0.0115,0.002 l 0.002,2e-5 0.002,1e-5 0.002,10e-6 0.002,2e-5 -3e-5,0.002 h 0.002 l -3e-5,0.002 0.002,10e-6 -2e-5,0.002 0.002,2e-5 -3e-5,0.002 -2e-5,0.002 -4e-5,0.002 -2e-5,0.002 -0.002,0.002 -4e-5,0.002 c -0.003,0.012 -0.017,0.0256 -0.0297,0.0325 -0.003,0.0209 -0.003,0.0416 -0.005,0.0626 0.006,0.0147 0.0124,0.0301 0.021,0.0464 0.0152,0.0401 0.0357,0.0756 0.049,0.11594 0.0154,0.0386 0.0343,0.0731 0.0507,0.11123 0.0185,0.0419 0.0414,0.0784 0.0577,0.1229 0.007,0.0291 0.0272,0.0484 0.0352,0.0765 0.0126,0.0233 0.0286,0.0579 0.0423,0.0859 0.0194,0.0367 0.0387,0.0741 0.055,0.1136 0.0117,0.0293 0.0377,0.0547 0.054,0.0836 0.0312,0.0477 0.0637,0.0924 0.0953,0.13914 0.0355,0.0483 0.0725,0.0958 0.10834,0.14377 0.0337,0.0414 0.0672,0.0788 0.10148,0.11828 0.034,0.0426 0.0675,0.0864 0.0998,0.13218 0.0375,0.0503 0.0772,0.0972 0.11559,0.14608 0.0317,0.0473 0.0591,0.10091 0.0923,0.14609 0.0389,0.0511 0.0789,0.10013 0.11545,0.15536 0.0306,0.0426 0.06,0.0866 0.0926,0.12521 0.0354,0.0452 0.0697,0.0913 0.10708,0.13218 0.0543,0.0606 0.11145,0.11462 0.16308,0.18087 0.0528,0.0661 0.10661,0.12974 0.15994,0.19478 0.0431,0.0539 0.0879,0.10425 0.13295,0.15303 0.0508,0.0513 0.10013,0.10685 0.14882,0.1623 0.0256,0.0373 0.0537,0.0671 0.0813,0.10199 0.028,0.0336 0.0551,0.0703 0.0828,0.10436 0.032,0.0375 0.0652,0.0715 0.10027,0.10199 0.0393,0.0494 0.0719,0.10527 0.10362,0.16696 0.0146,0.0241 0.0282,0.0496 0.0425,0.0742 0.0613,0.0408 0.12208,0.0845 0.18133,0.13217 0.0289,0.0259 0.0414,0.0401 0.0488,0.0487 l 0.002,2e-5 c 0.003,-1.8e-4 0.011,-7.1e-4 0.0232,0.005 0.10048,0.0474 0.19078,0.13088 0.27897,0.21797 0.0305,0.0313 0.0804,0.0516 0.14676,0.10903 0.0391,0.0366 0.0777,0.0631 0.13493,0.12058 0.014,-3.3e-4 0.0303,0.003 0.0493,0.0139 0.0276,0.0152 0.0528,0.0363 0.0806,0.0557 0.0256,0.0196 0.0496,0.0411 0.0748,0.0626 0.0214,0.0175 0.0423,0.0364 0.0617,0.058 0.0152,0.0157 0.032,0.0326 0.0458,0.0486 0.0134,0.0126 0.0263,0.0274 0.0401,0.0418 0.011,0.0131 0.0247,0.0283 0.0357,0.0417 0.0131,0.0122 0.0275,0.0247 0.0386,0.037 0.0158,0.0193 0.0319,0.0374 0.0487,0.0557 0.0213,0.0255 0.0423,0.0475 0.0644,0.0718 0.0218,0.0234 0.0437,0.0467 0.0658,0.0696 0.0213,0.0245 0.0422,0.048 0.0644,0.0718 0.026,0.0271 0.0509,0.0561 0.0758,0.0858 0.0179,0.0231 0.0379,0.0428 0.0573,0.0625 0.0192,0.0202 0.0363,0.0392 0.0559,0.0603 0.0156,0.0167 0.0335,0.0334 0.0472,0.0511 0.01,0.0103 0.0176,0.0137 0.0289,0.0209 l 0.002,10e-6 c 0.006,0.004 0.0256,0.0248 0.0316,0.0301 h 0.002 c 0.0152,0.0111 0.0271,0.0283 0.0431,0.0394 0.0122,0.013 0.0264,0.0189 0.0404,0.0278 0.0158,0.0104 0.0293,0.0221 0.0461,0.0324 0.0354,0.0224 0.0422,0.0474 0.0363,0.0927 0.008,0.0131 0.0143,0.0295 0.0227,0.0464 0.0274,0.0506 0.019,0.077 0.009,0.14144 -0.0157,0.0365 -0.0385,0.0483 -0.0634,0.0533 l -0.002,-2e-5 -4e-5,0.002 c -0.005,0.004 -0.0201,0.009 -0.0235,0.0119 -0.0197,0.013 -0.0417,0.0165 -0.0616,0.0256 -0.0258,0.0119 -0.0535,0.0171 -0.0789,0.0209 -0.0217,0.003 -0.0431,0.006 -0.0656,0.006 -0.0276,0.001 -0.0548,-10e-4 -0.0828,-0.007 -0.0278,-0.003 -0.0531,-0.0141 -0.0812,-0.021 -0.0306,-0.006 -0.0621,-0.01 -0.093,-0.0125 -0.0312,1.7e-4 -0.0621,-0.008 -0.093,-0.0144 -0.0261,-0.005 -0.0532,-0.006 -0.0785,-0.007 -0.0335,-10e-4 -0.0671,-0.007 -0.1002,-0.0162 -0.0236,-0.007 -0.0463,-0.0172 -0.0695,-0.0278 -0.008,7e-5 -0.0174,-5e-5 -0.0262,-1e-5 -0.0299,1e-4 -0.059,-5.6e-4 -0.0888,-3.5e-4 l -0.0902,-3.9e-4 -0.0815,-1.6e-4 -0.0743,2e-5 c -0.0293,2.3e-4 -0.0575,-0.008 -0.0856,-0.0186 -0.0276,-0.0153 -0.0543,-0.0326 -0.0822,-0.051 -0.0142,-0.0111 -0.0293,-0.0215 -0.0433,-0.0278 -0.0143,-0.004 -0.028,-0.008 -0.0419,-0.0139 -0.0224,-0.007 -0.0425,-0.0214 -0.062,-0.0395 -3.3e-4,-0.0132 -0.002,-0.0264 -0.004,-0.0394 -0.0705,-0.0312 -0.14057,-0.0661 -0.20939,-0.10665 -0.0491,-0.0292 -0.10121,-0.0447 -0.15347,-0.0533 -0.0696,-0.01 -0.13812,-0.0137 -0.20795,-0.0162 -0.0806,-0.002 -0.16106,-0.004 -0.2416,-0.005 -0.10482,0.01 -0.20726,-0.0162 -0.30773,-0.058 -0.0416,-0.0215 -0.0836,-0.0363 -0.12746,-0.0418 -0.0782,-0.002 -0.15384,-0.0192 -0.22773,-0.0534 l -31.52594,0.003 c -0.0751,0.11313 -0.18788,0.20852 -0.34198,0.26209 -0.0952,0.0331 -0.18656,0.0909 -0.28024,0.13453 -0.0653,0.0199 -0.12533,0.0565 -0.18094,0.1159 -0.0819,0.0953 -0.17219,0.17002 -0.26023,0.24817 -0.0303,0.025 -0.0595,0.0518 -0.0886,0.0789 0.0284,0.0599 0.0553,0.12112 0.083,0.18319 0.0367,0.086 0.0735,0.19178 0.098,0.24581 0.0298,0.0572 0.0601,0.11314 0.089,0.17159 0.0767,-0.005 0.15373,-0.007 0.2302,-0.01 0.15821,-0.006 0.31514,-0.004 0.47326,-0.005 0.0718,-0.0502 0.16032,-0.0858 0.26513,-0.0998 0.12442,-0.0165 0.2484,-0.0125 0.37268,0.003 0.10501,0.0147 0.2108,0.0376 0.31492,0.0626 0.11461,0.0269 0.22773,0.0436 0.34454,0.0324 0.11383,-9.8e-4 0.22688,2e-5 0.34074,-9.7e-4 0.0845,2.4e-4 0.16909,4.9e-4 0.2534,-0.003 0.0927,-0.004 0.18552,-0.008 0.27838,-0.0185 0.088,-0.012 0.17489,-0.0312 0.26157,-0.0603 0.10468,-0.0282 0.20975,-0.0388 0.31501,-0.0324 0.071,-1.2e-4 0.14129,-2.6e-4 0.21258,-3.7e-4 0.0987,6.2e-4 0.19842,-0.002 0.29707,-0.003 0.10171,6.9e-4 0.20259,3.7e-4 0.30429,6e-5 0.0851,-0.002 0.17122,-0.003 0.25644,-0.0118 0.0827,-0.01 0.16436,-0.0188 0.2467,-0.0395 0.11948,-0.0333 0.23911,-0.0756 0.36061,-0.0626 0.12287,-7.4e-4 0.24553,-4.9e-4 0.36838,-2.3e-4 0.13504,-4.2e-4 0.26981,-8.5e-4 0.40474,3e-5 0.11879,10e-4 0.23782,-7e-4 0.35664,0.004 0.13911,0.005 0.2773,0.0134 0.41597,0.0278 0.16816,0.0178 0.33692,0.0405 0.50402,0.0742 0.14466,0.0241 0.29118,-0.003 0.43669,0.007 0.15537,-8.8e-4 0.31064,10e-4 0.46591,5e-5 0.14658,-10e-4 0.29325,-0.004 0.4398,-0.007 0.17086,-0.003 0.34198,-0.0135 0.51251,-1.2e-4 0.12827,0.0251 0.26066,-0.004 0.39011,0.006 l 0.37854,3e-5 0.37563,-4e-5 0.44699,-5e-5 0.47755,-4e-5 c 0.13113,-5.2e-4 0.2621,-5e-5 0.39312,-2.8e-4 0.14762,-8e-5 0.29641,8.6e-4 0.44406,-1.2e-4 0.15136,-9.9e-4 0.30149,9.9e-4 0.45282,-10e-5 0.13931,-10e-4 0.27872,-0.003 0.41801,-0.01 0.10094,-0.005 0.20297,-0.009 0.30336,-0.0325 0.13304,-0.033 0.26531,-0.0828 0.40011,-0.0742 0.16283,-6.8e-4 0.32635,6.5e-4 0.48921,-1.3e-4 0.17599,-3.4e-4 0.35128,-6.9e-4 0.52706,-3e-5 0.16723,-5.7e-4 0.33523,8.9e-4 0.50234,-0.002 0.14331,-0.002 0.28648,-0.006 0.42982,-0.0185 0.16336,-0.0141 0.32626,-0.0323 0.48877,-0.065 0.15075,-0.0266 0.30061,-0.034 0.45179,-0.0278 l 0.41496,3e-4 0.38003,-6.3e-4 c 0.13113,-5.2e-4 0.26181,-6e-5 0.3931,-2.7e-4 0.1629,-6.9e-4 0.32639,-10e-4 0.48921,-1.4e-4 0.18919,2e-5 0.37872,0.003 0.56776,0.004 0.23137,0.004 0.46162,0.006 0.69274,0.0185 0.19863,0.0123 0.39748,0.0319 0.59433,0.0717 0.15243,0.0282 0.3059,0.0224 0.45971,0.0229 0.18016,0.003 0.36008,0.004 0.53995,0.0138 0.18124,0.0108 0.36234,0.0258 0.54206,0.0625 0.16265,0.0296 0.32568,0.046 0.49012,0.0347 0.16897,-5.2e-4 0.33765,-10e-4 0.50668,-7e-5 0.1934,1.3e-4 0.3859,-4.7e-4 0.57942,0.002 0.18637,9.4e-4 0.37287,-8.2e-4 0.559,0.007 0.1464,0.006 0.29415,0.01 0.43897,0.0439 0.0881,0.0234 0.17823,0.0498 0.26198,0.0974 0.13754,0.0233 0.27442,0.054 0.4073,0.11357 0.0131,0.006 0.0258,0.0107 0.039,0.0162 0.0232,-3.9e-4 0.0467,-0.003 0.0699,-0.003 0.0465,-7.7e-4 0.0933,-0.003 0.13982,-0.002 0.0462,2.3e-4 0.0921,4.5e-4 0.13833,-3.3e-4 0.0509,-6.5e-4 0.10186,7e-4 0.15278,0.005 0.0602,0.004 0.12164,0.005 0.1819,0.007 0.0732,10e-4 0.14654,0.003 0.21982,0.002 0.0741,9.6e-4 0.14749,-9e-5 0.22132,-1.4e-4 0.0743,-3e-5 0.14838,-6e-5 0.22277,-9e-5 0.0842,2.3e-4 0.16909,-5.2e-4 0.25333,-2.8e-4 l 0.25917,-1.3e-4 0.24313,4.4e-4 0.23877,3.3e-4 c 0.0687,8.9e-4 0.1365,0.003 0.20538,-0.005 0.0598,-0.005 0.12104,-0.0151 0.18092,-0.0232 0.059,-0.008 0.11714,-0.009 0.17635,-0.0118 0.0609,-0.002 0.12236,-0.003 0.18348,-0.002 0.0662,-2.5e-4 0.13327,-4.7e-4 0.19945,2.9e-4 0.0543,-5.6e-4 0.10868,8.8e-4 0.16312,-0.003 0.0488,-0.004 0.0969,-0.007 0.14575,-0.01 0.0402,-0.003 0.0795,-0.003 0.11945,-0.003 0.0394,5e-5 0.0785,-0.003 0.11798,-0.003 0.0132,-1.4e-4 0.025,-3e-4 0.035,0.002 l 0.002,2e-5 c 0.11034,-0.002 0.22174,-0.002 0.33197,-0.002 0.12385,-0.0107 0.24922,0.0245 0.37284,-0.007 0.13009,-0.0291 0.25924,-0.0582 0.38998,-0.0766 0.11185,-0.0157 0.22452,-0.0211 0.33674,-0.0255 0.0967,-0.003 0.19317,-0.006 0.28984,-0.007 0.0974,-10e-4 0.19545,1.9e-4 0.29266,-2.4e-4 0.0792,10e-5 0.15845,-8e-4 0.23731,2.9e-4 0.0876,3.3e-4 0.17418,-3.8e-4 0.26208,-5e-5 l 0.16453,-6.4e-4 c 0.012,-0.0368 0.0428,-0.0672 0.0913,-0.0672 l 0.0859,2.8e-4 0.11358,-9.9e-4 0.10626,8.2e-4 0.099,6.2e-4 0.0844,2.4e-4 0.0859,2.8e-4 0.0641,7e-4 0.0597,5.8e-4 0.0684,-1.8e-4 0.067,-2.3e-4 c 0.024,-3.6e-4 0.0488,-7e-4 0.0727,0.004 0.10074,-0.0264 0.20207,-0.0338 0.30351,-0.0419 0.0759,-0.006 0.15291,-0.007 0.22874,-0.01 0.0242,-3.5e-4 0.0473,-7.4e-4 0.0699,0.002 0.006,-0.0366 0.0315,-0.0694 0.0725,-0.0765 0.007,-8.1e-4 0.0154,-3e-4 0.0232,-1e-5 0.0324,0.001 0.0639,0.008 0.0959,0.0125 0.0346,0.003 0.069,0.004 0.10317,0.0127 0.0247,0.006 0.05,0.0113 0.0754,0.0139 0.0237,0.002 0.0488,-7.1e-4 0.0713,0.002 0.0217,4.7e-4 0.0415,10e-5 0.0641,7e-4 0.0278,0.003 0.0546,0.0122 0.0827,0.0208 0.0261,0.008 0.0515,0.0197 0.0767,0.0278 0.0209,0.007 0.0414,0.007 0.064,0.01 0.0325,0.007 0.0658,0.0148 0.0987,0.0185 0.0266,0.003 0.0518,0.003 0.08,0.004 0.0214,8e-4 0.0415,0.005 0.064,0.006 0.0276,1.7e-4 0.0548,4.6e-4 0.083,2e-4 0.0316,2e-5 0.063,6.7e-4 0.0946,5.1e-4 0.0333,10e-6 0.066,7.5e-4 0.099,6.3e-4 l 0.0917,4.3e-4 0.0975,5.9e-4 c 0.0259,0.002 0.0532,0.008 0.0784,0.0121 0.032,0.003 0.0639,0.0124 0.0959,0.0144 0.0318,8e-4 0.0627,-3.3e-4 0.0946,5.1e-4 0.0292,1.1e-4 0.0584,5.5e-4 0.0873,3.2e-4 0.0281,2e-5 0.0563,4.9e-4 0.0844,2.4e-4 l 0.0713,-1.1e-4 0.0597,5.8e-4 0.0684,-1.9e-4 c 0.002,-0.008 0.003,-0.0136 0.007,-0.0208 l 0.002,-0.0138 3e-5,-0.002 2e-5,-0.002 0.002,-0.002 0.002,-0.002 0.004,-0.007 0.002,-0.002 4e-5,-0.002 0.002,10e-6 3e-5,-0.002 2e-5,-0.002 h 0.002 l 0.002,-0.002 0.002,-0.002 0.002,2e-5 0.002,-0.002 0.002,2e-5 0.006,-1e-5 0.009,1e-5 0.006,-0.002 0.009,10e-6 0.009,1e-5 0.002,10e-6 0.002,10e-6 0.002,2e-5 c 7e-4,5e-5 0.003,1e-5 0.004,-2e-5 l 0.002,2e-5 3e-5,-0.002 c 0.006,-0.002 0.0231,-0.006 0.0249,-0.007 0.007,-0.002 0.0299,-0.006 0.0365,-0.007 l 0.002,2e-5 3e-5,-0.002 c 0.0133,-0.005 0.0212,-0.0101 0.0265,-0.0139 0.0174,-0.0102 0.0372,-0.0182 0.0542,-0.0232 0.0156,-0.004 0.0297,-0.004 0.0466,-0.005 0.0147,-5.7e-4 0.0296,1.3e-4 0.0436,1.6e-4 0.016,-1.1e-4 0.0311,0 0.048,2.7e-4 0.008,-10e-6 0.0149,-4.2e-4 0.0218,0.003 0.008,-0.002 0.0178,-0.005 0.0278,-0.005 l 0.0233,-10e-6 0.0582,5.5e-4 0.0669,7.7e-4 0.008,2e-5 c 0.0174,-0.006 0.0354,-0.0119 0.0526,-0.0139 0.008,-7.9e-4 0.0141,-6.2e-4 0.0219,0 0.0231,0.003 0.0485,0.008 0.0696,0.0163 0.002,-2e-5 0.003,3e-5 0.004,0 0.0117,-2.4e-4 0.0241,-3.6e-4 0.0364,-2e-5 0.021,0.003 0.0442,0.007 0.0639,0.0139 0.0151,0.006 0.0294,0.0146 0.0435,0.0209 0.0219,0.0125 0.0407,0.0298 0.0543,0.0604 l -2e-5,0.002 0.002,1e-5 0.002,0.002 c 0.0176,0.018 0.0261,0.0451 0.025,0.0742 0.003,0.0108 0.002,0.023 0.005,0.0349 1.8e-4,0.0191 0.002,0.0388 0.001,0.0579 0.002,0.0357 -0.001,0.0716 -0.0148,0.102 l -5e-5,0.002 c -8.1e-4,0.005 -0.003,0.0145 -0.007,0.0231 -0.006,0.0133 -0.0152,0.0254 -0.021,0.0371 -0.008,0.0149 -0.0168,0.0285 -0.0255,0.0439 -0.0119,0.021 -0.0243,0.0419 -0.036,0.0626 -0.0109,0.0151 -0.0198,0.031 -0.0312,0.0441 l -3e-5,0.002 -0.002,-0.002 -2e-5,0.002 c -0.003,0.006 -0.007,0.0151 -0.008,0.0163 -0.007,0.0181 -0.0136,0.0345 -0.0212,0.0533 -0.0111,0.0239 -0.0216,0.0457 -0.0361,0.0673 -0.002,0.002 -0.0126,0.0194 -0.0164,0.0256 l -0.002,0.002 c -0.009,0.0224 -0.015,0.0456 -0.0257,0.0648 -0.0121,0.0205 -0.0241,0.038 -0.0302,0.0625 -0.0158,0.0399 -0.0341,0.0789 -0.057,0.10897 -0.0207,0.0317 -0.0396,0.067 -0.0599,0.0997 -0.0231,0.0342 -0.0464,0.0669 -0.0713,0.0973 -0.0199,0.0256 -0.038,0.0518 -0.058,0.0789 -0.0161,0.0192 -0.0303,0.041 -0.0475,0.0603 -0.0201,0.0265 -0.0423,0.0518 -0.0623,0.0765 -0.0236,0.0286 -0.0469,0.0581 -0.0699,0.0881 -0.0273,0.0347 -0.053,0.0694 -0.0818,0.1044 -0.033,0.0414 -0.0671,0.0815 -0.10237,0.11827 -0.0343,0.0348 -0.0677,0.0709 -0.10073,0.109 -0.0387,0.0429 -0.0773,0.0896 -0.11711,0.12986 -0.0323,0.0337 -0.064,0.0649 -0.0977,0.095 -0.0301,0.0298 -0.0608,0.0575 -0.0916,0.0858 -0.0396,0.0343 -0.0811,0.0625 -0.12368,0.0859 -0.0372,0.0178 -0.0757,0.0307 -0.11285,0.0464 -0.0339,0.0206 -0.0619,0.0617 -0.0946,0.0859 -0.0354,0.03 -0.0692,0.0614 -0.10344,0.0951 -0.048,0.045 -0.096,0.091 -0.14343,0.13684 -0.0445,0.0449 -0.0876,0.0945 -0.12901,0.1461 -0.0405,0.047 -0.0791,0.0983 -0.12023,0.14378 -0.0441,0.0439 -0.0857,0.092 -0.13028,0.13452 -0.0421,0.0409 -0.0869,0.0759 -0.12994,0.11369 -0.0396,0.0315 -0.0777,0.0644 -0.11521,0.10196 -0.0341,0.035 -0.0681,0.0731 -0.10078,0.11126 -0.0399,0.0498 -0.0801,0.0974 -0.1217,0.1438 -0.032,0.0357 -0.064,0.0747 -0.0978,0.10658 -0.0274,0.0279 -0.0542,0.0538 -0.0828,0.0812 -0.0245,0.0284 -0.0411,0.0666 -0.0613,0.10196 -0.0222,0.0353 -0.0442,0.0693 -0.0701,0.0997 -0.0201,0.0229 -0.0393,0.045 -0.0594,0.0695 -0.0218,0.0247 -0.0437,0.0503 -0.0667,0.0719 -0.0304,0.0309 -0.0603,0.0631 -0.0904,0.0951 -0.0356,0.0365 -0.0718,0.0726 -0.10798,0.10667 -0.0295,0.0298 -0.0579,0.0627 -0.0874,0.0927 -0.0265,0.0278 -0.0514,0.0561 -0.0799,0.0813 -0.0235,0.0232 -0.0492,0.044 -0.0709,0.0672 -0.0192,0.0172 -0.0376,0.033 -0.0576,0.0511 -0.0124,0.0122 -0.0271,0.0227 -0.0413,0.0348 -0.0158,0.0158 -0.0302,0.0312 -0.0473,0.0464 -0.0163,0.0145 -0.0315,0.0307 -0.0488,0.0441 -0.0131,0.0103 -0.0259,0.0197 -0.0398,0.0278 -0.007,0.0121 -0.0146,0.0247 -0.021,0.0371 -0.0201,0.0425 -0.0456,0.078 -0.0659,0.1206 -0.0202,0.0443 -0.0472,0.0807 -0.0676,0.12291 -0.0203,0.0361 -0.0354,0.0787 -0.0529,0.11826 -0.0229,0.0559 -0.0478,0.10946 -0.0739,0.16234 -0.0171,0.0347 -0.0335,0.0709 -0.0496,0.10667 0.0364,0.056 0.069,0.11909 0.0975,0.18551 0.30469,-0.2908 0.61051,-0.5833 0.91526,-0.87434 l 0.002,-0.002 c 0.005,-0.008 0.0109,-0.016 0.0164,-0.0231 0.0118,-0.0149 0.0256,-0.0302 0.0371,-0.044 0.0107,-0.0118 0.0226,-0.0259 0.0341,-0.0371 0.0114,-0.0119 0.0195,-0.0161 0.028,-0.0278 0.008,-0.01 0.017,-0.0201 0.0252,-0.0302 0.0104,-0.0141 0.017,-0.0302 0.0312,-0.0441 0.012,-0.0119 0.0169,-0.0187 0.034,-0.0347 0.006,-0.005 0.0151,-0.0142 0.0237,-0.0232 0.008,-0.008 0.0188,-0.018 0.0192,-0.0185 0.0103,-0.0121 0.0226,-0.0264 0.0311,-0.0395 0.013,-0.0172 0.0272,-0.0326 0.0415,-0.0487 0.009,-0.0105 0.0211,-0.0222 0.0297,-0.0347 0.0114,-0.0126 0.0168,-0.0274 0.0283,-0.0394 0.0114,-0.0122 0.0165,-0.019 0.0222,-0.0278 0.0121,-0.0186 0.0272,-0.0329 0.0414,-0.0464 0.008,-0.01 0.0137,-0.014 0.0252,-0.0302 0.0126,-0.0153 0.027,-0.0256 0.0385,-0.0416 0.0132,-0.01 0.0228,-0.0296 0.037,-0.0394 0.008,-0.008 0.0202,-0.0211 0.0222,-0.0232 0.0111,-0.012 0.0225,-0.0217 0.031,-0.0348 0.0141,-0.0165 0.0258,-0.0329 0.04,-0.0464 0.0114,-0.0104 0.0227,-0.0281 0.0341,-0.0394 0.0112,-0.0135 0.0257,-0.0346 0.037,-0.0418 0.012,-0.0104 0.021,-0.0175 0.0324,-0.0277 0.0135,-0.013 0.0299,-0.0272 0.0443,-0.0348 0.0111,-0.007 0.0196,-0.0196 0.031,-0.0232 0.0121,-0.01 0.0196,-0.0157 0.0309,-0.0256 0.0103,-0.01 0.0224,-0.0162 0.0309,-0.0278 0.0143,-0.013 0.0255,-0.0257 0.037,-0.0418 0.0107,-0.013 0.0256,-0.0242 0.0371,-0.037 0.0107,-0.012 0.0211,-0.024 0.0326,-0.0348 0.0135,-0.0151 0.0257,-0.0315 0.04,-0.044 0.0152,-0.0147 0.0273,-0.0329 0.0444,-0.0464 0.0162,-0.0163 0.0331,-0.0328 0.0503,-0.0464 0.0106,-0.0125 0.0256,-0.0242 0.0371,-0.037 0.0148,-0.0172 0.03,-0.0308 0.0445,-0.0487 0.0158,-0.0161 0.0316,-0.033 0.0459,-0.0487 0.0158,-0.0152 0.033,-0.032 0.0474,-0.0487 0.0171,-0.0184 0.0332,-0.0395 0.0505,-0.058 0.008,-0.0105 0.0195,-0.0203 0.0282,-0.0324 0.0108,-0.0134 0.0241,-0.0286 0.0356,-0.0395 0.0123,-0.0127 0.027,-0.021 0.0384,-0.0371 0.0125,-0.0131 0.0271,-0.0256 0.0414,-0.0394 0.0149,-0.0148 0.0301,-0.0291 0.0445,-0.0441 0.015,-0.0173 0.0288,-0.0358 0.046,-0.0511 0.0143,-0.0134 0.0299,-0.0247 0.0414,-0.0418 0.0129,-0.0164 0.0272,-0.0316 0.0414,-0.0464 0.004,-0.005 0.024,-0.0318 0.0326,-0.0394 0.014,-0.0103 0.0228,-0.0286 0.037,-0.0394 0.003,-0.004 0.011,-0.01 0.0133,-0.0118 l 0.002,2e-5 c 0.0143,-0.0239 0.0304,-0.0434 0.0476,-0.0626 0.0197,-0.0203 0.0394,-0.0429 0.0619,-0.0487 0.0187,-0.007 0.0359,-0.0198 0.0557,-0.0255 0.0153,-0.004 0.0302,-0.007 0.0454,-0.01 0.0195,-0.0215 0.0388,-0.0439 0.0593,-0.065 0.0386,-0.0405 0.078,-0.0784 0.11691,-0.11828 0.0353,-0.0383 0.0703,-0.0778 0.10665,-0.11359 0.0263,-0.0272 0.0527,-0.0567 0.0785,-0.0859 0.0147,-0.0139 0.0286,-0.0296 0.043,-0.044 0.0188,-0.0204 0.0389,-0.0393 0.0562,-0.0603 0.0171,-0.019 0.0347,-0.0358 0.0517,-0.0532 0.0163,-0.0198 0.0347,-0.0396 0.0518,-0.0557 0.0177,-0.0167 0.0332,-0.0403 0.0504,-0.0557 0.0136,-0.0163 0.0275,-0.0334 0.0415,-0.0487 0.007,-0.0205 0.0174,-0.0344 0.0285,-0.0487 0.009,-0.006 0.0166,-0.0181 0.0251,-0.0209 l 0.002,10e-6 c 6.7e-4,2e-5 0.003,-1.5e-4 0.004,-2e-5 l 0.002,3e-5 h 0.002 l 0.002,2e-5 0.002,2e-5 h 0.002 l 0.002,0.002 c 0.004,-0.005 0.0123,-0.0135 0.0163,-0.0164 l 0.002,2e-5 4e-5,-0.002 0.002,3e-5 0.002,-0.002 c 4.7e-4,-8.9e-4 8e-4,-0.004 0.002,-0.005 l 0.002,3e-5 c 0.002,-0.0353 0.0159,-0.0763 0.0455,-0.11368 0.0147,-0.0188 0.0317,-0.0367 0.0459,-0.0533 0.0197,-0.0205 0.0406,-0.0396 0.0606,-0.0603 0.0132,-0.0153 0.0272,-0.0304 0.0414,-0.0417 0.0171,-0.0181 0.0346,-0.0341 0.0517,-0.0532 0.0217,-0.0208 0.0423,-0.047 0.0651,-0.0649 0.0203,-0.0152 0.042,-0.0279 0.0618,-0.0419 0.0192,-0.0179 0.0405,-0.0355 0.0576,-0.0557 0.0221,-0.0219 0.0452,-0.0436 0.0651,-0.0672 0.0183,-0.0208 0.039,-0.0402 0.0563,-0.0603 0.0232,-0.0272 0.0468,-0.0524 0.0697,-0.0788 0.0258,-0.0286 0.0514,-0.06 0.0772,-0.0905 0.0225,-0.0281 0.0425,-0.0619 0.0683,-0.0835 0.0166,-0.0164 0.0303,-0.0377 0.0474,-0.0533 0.0149,-0.0182 0.0301,-0.0351 0.0446,-0.0557 0.0144,-0.0234 0.029,-0.0484 0.0433,-0.0719 0.0133,-0.0229 0.0231,-0.0495 0.0375,-0.0719 0.0133,-0.0219 0.0272,-0.0421 0.039,-0.0649 0.0151,-0.0269 0.032,-0.0524 0.0463,-0.0788 0.0178,-0.0301 0.035,-0.0595 0.0525,-0.0904 0.02,-0.0338 0.0411,-0.0665 0.0614,-0.0997 0.0237,-0.0359 0.0499,-0.0699 0.0702,-0.10898 0.0224,-0.0379 0.046,-0.0743 0.0716,-0.10668 0.003,-0.0394 0.005,-0.0803 0.006,-0.12058 0.002,-0.16944 -0.0144,-0.33443 -0.0489,-0.4893 -0.004,0.006 -0.0107,0.0118 -0.0177,0.0185 -0.0162,0.0154 -0.0371,0.003 -0.0568,-0.002 l -0.002,-0.002 -0.002,-0.007 c -0.003,-0.004 -0.008,-0.007 -0.0101,-0.0103 l -0.002,-0.005 5e-5,-0.002 c -0.01,-0.008 -0.0209,-0.0171 -0.0317,-0.0231 -0.0193,-0.0124 -0.0367,-0.0262 -0.0532,-0.044 -0.01,-0.011 -0.0217,-0.0223 -0.03,-0.0394 -0.0168,-0.0214 -0.0317,-0.0451 -0.0455,-0.0717 -0.012,-0.0239 -0.0244,-0.0507 -0.038,-0.0742 -0.0137,-0.0268 -0.033,-0.0483 -0.0438,-0.0789 -0.01,-0.0252 -0.0186,-0.0511 -0.0294,-0.0764 -0.0111,-0.0307 -0.0213,-0.0622 -0.032,-0.0927 -0.0162,-0.038 -0.0403,-0.067 -0.0596,-0.0997 -0.0281,-0.04 -0.0555,-0.0792 -0.084,-0.1183 -0.0196,-0.0263 -0.0421,-0.0494 -0.0615,-0.0743 -0.0196,-0.0233 -0.0392,-0.0454 -0.0586,-0.0695 -0.0232,-0.0274 -0.0466,-0.0547 -0.0715,-0.0812 -0.0254,-0.0293 -0.0493,-0.0595 -0.0742,-0.0905 -0.0205,-0.024 -0.0408,-0.0488 -0.0629,-0.0719 -0.0218,-0.0276 -0.0421,-0.0519 -0.0642,-0.0811 -0.0257,-0.0335 -0.0536,-0.067 -0.0785,-0.0997 -0.0259,-0.0301 -0.0525,-0.0579 -0.0801,-0.0882 -0.0235,-0.0234 -0.0497,-0.0444 -0.0718,-0.0696 -0.0325,-0.0358 -0.0481,-0.0768 -0.0505,-0.11361 -1.44074,-1.41818 -2.88125,-2.83662 -4.32151,-4.25488 z m -0.45647,0.86503 c -0.0155,0.0269 -0.032,0.0541 -0.0449,0.0835 l 0.002,10e-6 0.002,-0.002 c 0.0135,-0.027 0.0289,-0.0531 0.0422,-0.0812 z m 3.54519,4.54483 -3e-5,0.002 0.002,2e-5 2e-5,-0.002 z m -2.01542,5.10892 -1e-5,0.002 h 0.002 l 2e-5,-0.002 z m -3.58732,3.35126 -3e-5,0.002 -3e-5,0.002 0.002,2e-5 4e-5,-0.002 2e-5,-0.002 z"
       inkscape:transform-center-y="0.79367156"
       inkscape:transform-center-x="0.0068243428" /><path
       style="fill:#ac3b61"
       d="m -317.92048,588.95296 c -0.0649,0.0324 -0.22706,0.0324 -0.19462,0.0973 0.0324,0.0649 0.24591,-0.1486 0.19462,-0.0973 -0.13075,0.13076 -0.3552,0.17519 -0.4379,0.34059 -0.0144,0.0287 -0.0812,0.17848 -0.0973,0.19462 -0.0115,0.0115 -0.0372,-0.0115 -0.0487,0 -0.0115,0.0115 0.0115,0.0372 0,0.0487 -0.10067,0.10067 0.004,-0.15384 -0.0973,0.0487 -0.007,0.0145 0.0115,0.0372 0,0.0487 -0.0115,0.0115 -0.0372,-0.0115 -0.0486,0 -0.0115,0.0115 0.0115,0.0372 0,0.0487 -0.0115,0.0115 -0.0372,-0.0115 -0.0487,0 -0.0487,0.0487 0.0487,0.0486 0,0.0973 -0.0115,0.0115 -0.0342,-0.007 -0.0487,0 -0.20249,0.10124 0.052,-0.003 -0.0487,0.0973 -0.0115,0.0115 -0.0342,-0.007 -0.0487,0 -0.0772,0.0386 -0.11386,0.16251 -0.14597,0.19462 -0.0243,0.0243 -0.073,0.0243 -0.0973,0.0487 -0.0127,0.0127 -0.12437,0.22168 -0.14597,0.24328 -0.0115,0.0115 -0.0372,-0.0115 -0.0487,0 -0.0115,0.0115 0.0115,0.0372 0,0.0487 -0.0107,0.0107 -0.2157,0.13218 -0.24328,0.14597 -0.041,0.0205 -0.0563,0.0768 -0.0973,0.0973 -0.0145,0.007 -0.0372,-0.0115 -0.0487,0 -0.0115,0.0115 0.0115,0.0372 0,0.0487 -0.0115,0.0115 -0.0372,-0.0115 -0.0487,0 -0.0115,0.0115 0.0115,0.0372 0,0.0486 -0.0107,0.0107 -0.2157,0.13218 -0.24328,0.14597 -0.0707,0.0353 -0.0555,0.15286 -0.0973,0.19463 -0.0162,0.0162 -0.12974,0.0324 -0.14596,0.0487 -0.0195,0.0195 -0.0263,0.0618 -0.0973,0.0973 -0.0294,0.0147 -0.12347,-0.0225 -0.14596,0 -0.0115,0.0115 0.007,0.0342 0,0.0487 -0.0353,0.0707 -0.15286,0.0556 -0.19463,0.0973 -0.0115,0.0115 0.007,0.0342 0,0.0487 -0.0538,0.10758 -0.0302,0.0151 -0.0973,0.0486 -0.20249,0.10125 0.052,-0.003 -0.0487,0.0973 -0.0426,0.0426 -0.24931,0.10333 -0.29194,0.14596 -0.0162,0.0162 -0.0324,0.12975 -0.0487,0.14597 -0.0319,0.0319 -0.17024,0.0243 -0.19462,0.0487 -0.0243,0.0243 -0.0243,0.073 -0.0487,0.0973 -0.10068,0.10067 0.004,-0.15384 -0.0973,0.0487 -0.007,0.0145 0.0115,0.0372 0,0.0487 -0.0243,0.0243 -0.073,0.0243 -0.0973,0.0487 -0.0162,0.0162 -0.0324,0.12975 -0.0487,0.14596 -0.0115,0.0115 -0.0372,-0.0115 -0.0487,0 -0.0975,0.0975 0.12272,0.41682 0.14597,0.48656 0.0214,0.0644 0,0.17485 0,0.24328"
       id="path21" /><path
       style="fill:#ac3b61"
       d="m -321.76429,592.2129 -0.14597,0.7785"
       id="path22" /><path
       style="fill:#ac3b61"
       d="m -321.4237,592.9914 -0.29194,-0.43791"
       id="path23" /><path
       style="fill:#ac3b61"
       d="m -321.56967,592.40753 c -0.0487,0.0649 -0.21084,0.14596 -0.14597,0.19462 0.0649,0.0487 0.18224,-0.26716 0.14597,-0.19462 -0.0684,0.13685 -0.16897,0.25549 -0.24328,0.38924 -0.0124,0.0224 -0.0158,0.27619 0,0.29194 0.0603,0.0603 0.38685,0.0997 0.48656,0"
       id="path24" /><path
       style="fill:#ac3b61"
       d="m -321.56967,582.91963 c -0.0649,-0.0487 -0.14597,-0.21085 -0.19462,-0.14597 -0.0487,0.0649 0.25196,0.20331 0.19462,0.14597 -0.12191,-0.12191 -0.26734,-0.21869 -0.38925,-0.3406 -0.0204,-0.0204 -0.0339,-0.11648 -0.0486,-0.14596 -0.10125,-0.2025 0.003,0.052 -0.0973,-0.0487 -0.0387,-0.0387 -0.0624,-0.20832 -0.0973,-0.24328 -0.0115,-0.0115 -0.0372,0.0115 -0.0487,0 -0.0243,-0.0243 0.0243,-0.12164 0,-0.14597 -0.0649,-0.0649 -0.0487,0.0811 -0.0487,-0.0486 0,-0.10963 -0.0342,-0.38925 0.0973,-0.38925"
       id="path25" /><path
       style="fill:#ac3b61"
       d="m -320.9858,591.53172 c 0.0324,-0.0649 0.16219,-0.16219 0.0973,-0.19462 -0.0649,-0.0324 -0.12974,0.25949 -0.0973,0.19462 0.0649,-0.12975 0.12975,-0.2595 0.19463,-0.38925 0.0162,0 0.0372,0.0115 0.0487,0 0.0162,-0.0162 0.0324,-0.12975 0.0487,-0.14597 0.0319,-0.0319 0.17024,-0.0243 0.19462,-0.0486 0.0243,-0.0243 0.0243,-0.073 0.0487,-0.0973 0.0282,-0.0282 0.16642,-0.0691 0.19462,-0.0973 0.0243,-0.0243 0.0243,-0.073 0.0487,-0.0973 0.0115,-0.0115 0.0372,0.0115 0.0487,0 0.0162,-0.0162 0.0324,-0.12975 0.0487,-0.14596 0.0115,-0.0115 0.0342,0.007 0.0487,0 0.0584,-0.0292 0.0876,-0.11678 0.14597,-0.14597 0.0287,-0.0144 0.17849,-0.0812 0.19463,-0.0973 0.003,-0.003 0.0947,-0.14334 0.0973,-0.14597 0.0115,-0.0115 0.0372,0.0115 0.0487,0 0.0162,-0.0162 0.0324,-0.12975 0.0487,-0.14597 0.0115,-0.0115 0.0372,0.0115 0.0487,0 0.0115,-0.0115 -0.007,-0.0341 0,-0.0487 0.0112,-0.0224 0.32527,-0.25994 0.38924,-0.29193 0.0919,-0.0459 0.10708,-0.15574 0.14597,-0.19462 0.0243,-0.0243 0.12164,0.0243 0.14597,0 0.0243,-0.0243 0.0243,-0.073 0.0487,-0.0973 0.0229,-0.0229 0.0744,0.0229 0.0973,0 0.0243,-0.0243 0.0243,-0.073 0.0486,-0.0973 0.0302,-0.0302 0.17127,-0.0739 0.19462,-0.0973 0.0115,-0.0115 -0.0115,-0.0372 0,-0.0487 0.0229,-0.0229 0.0744,0.0229 0.0973,0 0.0115,-0.0115 -0.0115,-0.0372 0,-0.0486 0.0115,-0.0115 0.0342,0.007 0.0487,0 0.0383,-0.0191 0.17226,-0.0749 0.19463,-0.0973 0.0115,-0.0115 -0.0115,-0.0372 0,-0.0487 0.0168,-0.0168 0.24328,-0.0378 0.24328,-0.14597"
       id="path26" /><path
       style="fill:#ac3b61"
       d="m -321.13177,591.62903 c 0.0649,-0.0486 0.24328,-0.0811 0.19463,-0.14597 -0.0487,-0.0649 -0.2595,0.19463 -0.19463,0.14597 0.26884,-0.20163 0.30022,-0.24742 0.48656,-0.34059 0.0575,-0.0287 0.0923,-0.11018 0.14597,-0.14597 0.0563,-0.0376 0.26323,-0.11726 0.29194,-0.14597 0.0243,-0.0243 0.0243,-0.073 0.0487,-0.0973 0.0319,-0.0319 0.17025,-0.0243 0.19463,-0.0487 0.0243,-0.0243 0.0243,-0.073 0.0487,-0.0973 0.0229,-0.0229 0.0683,0.0145 0.0973,0 0.041,-0.0205 0.0563,-0.0768 0.0973,-0.0973 0.0145,-0.007 0.0372,0.0115 0.0487,0 0.0115,-0.0115 -0.0115,-0.0372 0,-0.0487 0.0193,-0.0193 0.25868,-0.11271 0.29194,-0.14597 0.0115,-0.0115 -0.0115,-0.0372 0,-0.0487 0.0162,-0.0162 0.12975,-0.0324 0.14596,-0.0487 0.0115,-0.0115 -0.0115,-0.0372 0,-0.0487 0.0115,-0.0115 0.0372,0.0115 0.0487,0 0.003,-0.003 0.0947,-0.14333 0.0973,-0.14597 0.0243,-0.0243 0.073,-0.0243 0.0973,-0.0487 0.0115,-0.0115 -0.0115,-0.0372 0,-0.0487 0.0115,-0.0115 0.0372,0.0115 0.0487,0 0.0229,-0.0229 -0.0229,-0.0744 0,-0.0973 0.10067,-0.10067 -0.004,0.15384 0.0973,-0.0487 0.0145,-0.029 -0.0229,-0.0744 0,-0.0973 0.0115,-0.0115 0.0372,0.0115 0.0487,0 0.0229,-0.0229 -0.0229,-0.0744 0,-0.0973 0.0243,-0.0243 0.073,-0.0243 0.0973,-0.0486 0.0455,-0.0455 0.0519,-0.19784 0.0973,-0.24328 0.0115,-0.0115 0.0372,0.0115 0.0487,0 0.0115,-0.0115 -0.0115,-0.0372 0,-0.0487 0.008,-0.008 0.2217,-0.14597 0.24328,-0.14597"
       id="path27" /><path
       style="fill:#ac3b61"
       d="m -320.79117,591.43441 c 0.0487,-0.0649 0.21084,-0.14597 0.14596,-0.19463 -0.0649,-0.0486 -0.2155,0.23635 -0.14596,0.19463 0.26929,-0.16158 0.29638,-0.29416 0.48655,-0.38925 0.0584,-0.0292 0.0876,-0.11677 0.14597,-0.14597 0.0145,-0.007 0.0372,0.0115 0.0487,0 0.0115,-0.0115 -0.0115,-0.0372 0,-0.0487 0.0115,-0.0115 0.0372,0.0115 0.0487,0 0.0115,-0.0115 -0.0115,-0.0372 0,-0.0487 0.0112,-0.0112 0.1732,-0.0379 0.19463,-0.0487 0.0324,-0.0162 0.023,-0.0717 0.0487,-0.0973 0.0345,-0.0345 0.13733,-0.0887 0.14597,-0.0973 0.0115,-0.0115 -0.007,-0.0342 0,-0.0487 0.10125,-0.2025 -0.003,0.052 0.0973,-0.0487 0.0486,-0.0486 0.0335,-0.14597 0.14597,-0.14597"
       id="path28" /><path
       style="fill:#ac3b61"
       d="m -319.62343,590.46129 c -0.0487,0.0649 -0.21084,0.14597 -0.14597,0.19462 0.0649,0.0487 0.2155,-0.23634 0.14597,-0.19462 -0.16747,0.10048 -0.35057,0.21457 -0.43791,0.38925 -0.007,0.0145 0.0115,0.0372 0,0.0487 -0.0204,0.0204 -0.11647,0.0339 -0.14596,0.0487 -0.041,0.0205 -0.0563,0.0768 -0.0973,0.0973 -0.029,0.0145 -0.0744,-0.0229 -0.0973,0 -0.0106,0.0106 -0.0392,0.0926 -0.0487,0.0973 -0.029,0.0145 -0.0683,-0.0145 -0.0973,0 -0.0145,0.007 0.0115,0.0372 0,0.0487 -0.0652,0.0652 -0.24328,0.0396 -0.24328,0.24328"
       id="path29" /><path
       style="fill:#ac3b61"
       d="m -319.3315,590.50995 c -0.0649,0.0324 -0.22706,0.0324 -0.19462,0.0973 0.0324,0.0649 0.25265,-0.14083 0.19462,-0.0973 -0.11727,0.088 -0.38124,0.2636 -0.53521,0.34059 -0.041,0.0205 -0.0563,0.0768 -0.0973,0.0973 -0.0295,0.0147 -0.12558,0.0283 -0.14597,0.0486 -0.0115,0.0115 0.0115,0.0372 0,0.0487 -0.0229,0.0229 -0.0744,-0.0229 -0.0973,0 -0.0115,0.0115 0.0115,0.0372 0,0.0487 -0.0115,0.0115 -0.0342,-0.007 -0.0487,0 -0.041,0.0205 -0.0563,0.0768 -0.0973,0.0973 -0.029,0.0145 -0.0683,-0.0145 -0.0973,0 -0.11529,0.0576 -0.22531,0.18563 -0.34059,0.24328 -0.0383,0.0191 -0.19463,0.0824 -0.19463,0.14597"
       id="path30" /><path
       style="fill:#ac3b61"
       d="m -320.74252,591.62903 c 0.0487,-0.0649 0.21084,-0.14597 0.14597,-0.19462 -0.0649,-0.0487 -0.18223,0.26715 -0.14597,0.19462 0.0811,-0.12975 0.16219,-0.2595 0.24328,-0.38925 0.0162,0 0.0372,0.0115 0.0487,0 0.0362,-0.0362 0.0698,-0.16713 0.0973,-0.19462 0.0229,-0.0229 0.0744,0.0229 0.0973,0 0.0243,-0.0243 0.0243,-0.073 0.0487,-0.0973 0.0229,-0.0229 0.0744,0.0229 0.0973,0 0.0115,-0.0115 -0.0115,-0.0372 0,-0.0487 0.0229,-0.0229 0.0744,0.0229 0.0973,0 0.0115,-0.0115 -0.0115,-0.0372 0,-0.0487 0.0162,-0.0162 0.12975,-0.0324 0.14597,-0.0487 0.0115,-0.0115 -0.0115,-0.0372 0,-0.0487 0.0229,-0.0229 0.0683,0.0145 0.0973,0 0.041,-0.0205 0.0563,-0.0768 0.0973,-0.0973 0.0287,-0.0144 0.17848,-0.0812 0.19463,-0.0973 0.10067,-0.10067 -0.15384,0.004 0.0487,-0.0973 0.029,-0.0145 0.0744,0.0229 0.0973,0 0.0115,-0.0115 -0.0115,-0.0372 0,-0.0487 0.0282,-0.0282 0.16643,-0.0691 0.19463,-0.0973 0.0243,-0.0243 0.0243,-0.073 0.0486,-0.0973 0.0229,-0.0229 0.0744,0.0229 0.0973,0 0.0162,-0.0162 0.0324,-0.12975 0.0487,-0.14597 0.0418,-0.0418 0.15929,-0.0266 0.19462,-0.0973 0.0147,-0.0295 0.0283,-0.12558 0.0487,-0.14597 0.10067,-0.10067 -0.004,0.15384 0.0973,-0.0487 0.0148,-0.0295 0.0283,-0.12558 0.0487,-0.14597 0.0243,-0.0243 0.073,-0.0243 0.0973,-0.0487 0.0229,-0.0229 -0.0229,-0.0744 0,-0.0973 0.0115,-0.0115 0.0372,0.0115 0.0487,0 0.0225,-0.0225 -0.0147,-0.11659 0,-0.14597 0.0103,-0.0205 0.0384,-0.0281 0.0487,-0.0487 0.0195,-0.0389 -0.0195,-0.10705 0,-0.14597 0.0493,-0.0985 0.0973,-0.14249 0.0973,-0.24328"
       id="path31" /><path
       style="fill:#ac3b61"
       d="m -320.49924,591.43441 c 0.0487,-0.0649 0.21084,-0.14597 0.14597,-0.19463 -0.0649,-0.0486 -0.18223,0.26716 -0.14597,0.19463 0.0785,-0.15691 0.13503,-0.35945 0.29194,-0.43791 0.0145,-0.007 0.0372,0.0115 0.0487,0 0.0282,-0.0282 0.0691,-0.16642 0.0973,-0.19462 0.10068,-0.10067 -0.004,0.15384 0.0973,-0.0487 0.007,-0.0145 -0.0115,-0.0372 0,-0.0486 0.0162,-0.0162 0.12975,-0.0324 0.14596,-0.0487 0.0115,-0.0115 -0.0115,-0.0372 0,-0.0487 0.0229,-0.0229 0.0683,0.0145 0.0973,0 0.20249,-0.10125 -0.052,0.003 0.0487,-0.0973 0.0649,-0.0649 0.0487,0.0811 0.0487,-0.0487"
       id="path32" /><path
       style="fill:#ac3b61"
       d="m -320.45058,591.3371 c 0.0487,-0.0649 0.21084,-0.14597 0.14596,-0.19463 -0.0649,-0.0487 -0.2155,0.23635 -0.14596,0.19463 0.12975,-0.11353 0.2595,-0.22707 0.38924,-0.3406 0,-0.0162 -0.0115,-0.0372 0,-0.0486 0.0405,-0.0406 0.15408,-0.008 0.19463,-0.0487 0.0243,-0.0243 0.0243,-0.073 0.0487,-0.0973 0.0229,-0.0229 0.0744,0.0229 0.0973,0 0.0243,-0.0243 0.0243,-0.073 0.0487,-0.0973 0.0256,-0.0256 0.0717,-0.023 0.0973,-0.0487"
       id="path33" /><path
       style="fill:#ac3b61"
       d="m -321.13177,591.87231 c -0.0162,-0.0649 0.0162,-0.21084 -0.0487,-0.19462 -0.0649,0.0162 0.0487,0.26149 0.0487,0.19462 -0.13194,-1.0556 -0.127,-0.18389 0,-0.4379 0.0145,-0.029 -0.0229,-0.0744 0,-0.0973 0.10068,-0.10068 -0.004,0.15383 0.0973,-0.0487 0.0251,-0.0502 0.0286,-0.11163 0.0973,-0.14597 0.0753,-0.0377 0.0701,0.0272 0.14597,-0.0487"
       id="path34" /><path
       style="fill:#ac3b61"
       d="m -320.49924,591.48306 c -0.0649,0.0487 -0.24328,0.0811 -0.19462,0.14597 0.0487,0.0649 0.2595,-0.19462 0.19462,-0.14597 -0.12975,0.0973 -0.26122,0.19237 -0.38925,0.29194 -0.0181,0.0141 -0.0281,0.0384 -0.0487,0.0487 -0.0145,0.007 -0.0487,-0.0162 -0.0487,0 0,0.0844 0.0894,-0.13805 0.0973,-0.14596 0.0115,-0.0115 0.0341,0.007 0.0487,0 0.11695,-0.0585 0.22706,-0.12975 0.34059,-0.19463 z"
       id="path35" /><path
       style="fill:#ac3b61"
       d="m -320.54789,591.28844 c -0.0649,0.0324 -0.22707,0.0324 -0.19463,0.0973 0.0324,0.0649 0.24591,-0.1486 0.19463,-0.0973 -0.0922,0.0922 -0.58388,0.4334 -0.58388,0.53521"
       id="path36" /><path
       style="fill:#ac3b61"
       d="m -318.35838,589.29355 c 0.0649,-0.0487 0.24328,-0.0811 0.19462,-0.14597 -0.0487,-0.0649 -0.24528,0.20929 -0.19462,0.14597 0.11463,-0.14329 0.26734,-0.2521 0.38925,-0.38925 0.0108,-0.0121 -0.0115,-0.0372 0,-0.0487 0.0115,-0.0115 0.0372,0.0115 0.0487,0 0.0162,-0.0162 0.0324,-0.12974 0.0487,-0.14596 0.0243,-0.0243 0.073,-0.0243 0.0973,-0.0487 0.0548,-0.0548 -0.0747,-0.14597 0.0487,-0.14597"
       id="path37" /><path
       style="fill:#ac3b61"
       d="m -318.45569,589.05027 c 0.0649,-0.0324 0.22706,-0.0324 0.19462,-0.0973 -0.0324,-0.0649 -0.2595,0.12975 -0.19462,0.0973 0.12975,-0.0649 0.25669,-0.13571 0.38925,-0.19463 0.0148,-0.007 0.0372,0.0115 0.0487,0 0.0115,-0.0115 -0.0115,-0.0372 0,-0.0486 0.0115,-0.0115 0.0372,0.0115 0.0487,0 0.0115,-0.0115 -0.0115,-0.0372 0,-0.0487 0.0162,-0.0162 0.12975,-0.0324 0.14597,-0.0487 0.0233,-0.0234 0.0672,-0.16447 0.0973,-0.19463 0.0264,-0.0264 0.0936,-0.0449 0.14597,-0.0973"
       id="path38" /><path
       style="fill:#ac3b61"
       d="m -319.62343,590.5586 c -0.7037,0.28252 0.85225,-0.42613 -0.38925,0.19462 -0.11346,0.0567 -0.15763,0.1518 -0.24328,0.19463 -0.0231,0.0115 -0.24023,0.14292 -0.24328,0.14597 -0.0115,0.0115 0.0115,0.0372 0,0.0487 -0.18989,0.18989 -0.0261,-0.0113 -0.14597,0.0487 -0.20249,0.10125 0.052,-0.003 -0.0487,0.0973 -0.0282,0.0282 -0.16643,0.0691 -0.19463,0.0973 -0.0115,0.0115 0.0115,0.0372 0,0.0487 -0.10067,0.10067 0.004,-0.15384 -0.0973,0.0486 -0.007,0.0145 0.0115,0.0372 0,0.0487 -0.0162,0.0162 -0.0649,0.0324 -0.0486,0.0487 0.01,0.01 0.23341,0.01 0.24328,0 0.10067,-0.10068 -0.15384,0.004 0.0487,-0.0973 0.0287,-0.0144 0.17849,-0.0812 0.19463,-0.0973 0.0115,-0.0115 -0.0115,-0.0372 0,-0.0487 0.0115,-0.0115 0.0341,0.007 0.0486,0 0.041,-0.0205 0.0563,-0.0768 0.0973,-0.0973 0.0485,-0.0242 0.2645,-0.11852 0.29194,-0.14596 0.0115,-0.0115 -0.0115,-0.0372 0,-0.0487 0.0229,-0.0229 0.0744,0.0229 0.0973,0 0.0115,-0.0115 -0.0115,-0.0372 0,-0.0487 0.0368,-0.0368 0.0973,-0.0211 0.0973,-0.0973"
       id="path39" /></g></svg>
