<?xml version="1.0" encoding="UTF-8" standalone="no"?>
<!-- Created with Inkscape (http://www.inkscape.org/) -->

<svg
   width="196.959mm"
   height="113.413mm"
   viewBox="0 0 196.95901 113.413"
   version="1.1"
   id="svg1"
   xml:space="preserve"
   sodipodi:docname="researchbackground.svg"
   inkscape:version="1.4.3 (0d15f75, 2025-12-25)"
   xmlns:inkscape="http://www.inkscape.org/namespaces/inkscape"
   xmlns:sodipodi="http://sodipodi.sourceforge.net/DTD/sodipodi-0.dtd"
   xmlns="http://www.w3.org/2000/svg"
   xmlns:svg="http://www.w3.org/2000/svg"><sodipodi:namedview
     id="namedview1"
     pagecolor="#ffffff"
     bordercolor="#000000"
     borderopacity="0.25"
     inkscape:showpageshadow="2"
     inkscape:pageopacity="0.0"
     inkscape:pagecheckerboard="0"
     inkscape:deskcolor="#d1d1d1"
     inkscape:document-units="mm"
     inkscape:zoom="0.90830044"
     inkscape:cx="342.9482"
     inkscape:cy="45.689728"
     inkscape:window-width="1317"
     inkscape:window-height="976"
     inkscape:window-x="287"
     inkscape:window-y="25"
     inkscape:window-maximized="0"
     inkscape:current-layer="g1" /><defs
     id="defs1" /><g
     id="layer1"
     transform="translate(-13.269191,-107.60626)"><text
       xml:space="preserve"
       style="font-style:normal;font-variant:normal;font-weight:bold;font-stretch:normal;font-size:4.23333px;line-height:4.37444px;font-family:Georgia;-inkscape-font-specification:'Georgia Bold';text-align:center;writing-mode:lr-tb;direction:ltr;text-anchor:middle;fill:#ac3b61;fill-opacity:1;stroke-width:0.264582"
       x="45.40472"
       y="118.83725"
       id="text16"><tspan
         style="font-style:normal;font-variant:normal;font-weight:bold;font-stretch:normal;font-size:4.23333px;line-height:4.37444px;font-family:Georgia;-inkscape-font-specification:'Georgia Bold';fill:#ac3b61;fill-opacity:1;stroke-width:0.264582"
         x="45.40472"
         y="118.83725"
         id="tspan19">Philosophy &amp; Social Theory</tspan></text><text
       xml:space="preserve"
       style="font-style:normal;font-variant:normal;font-weight:bold;font-stretch:normal;font-size:4.23333px;line-height:4.37444px;font-family:Georgia;-inkscape-font-specification:'Georgia Bold';text-align:center;writing-mode:lr-tb;direction:ltr;text-anchor:middle;fill:#ac3b61;fill-opacity:1;stroke-width:0.264582"
       x="106.26249"
       y="143.0455"
       id="text16-3"><tspan
         style="font-style:normal;font-variant:normal;font-weight:bold;font-stretch:normal;font-size:4.23333px;line-height:4.37444px;font-family:Georgia;-inkscape-font-specification:'Georgia Bold';fill:#ac3b61;fill-opacity:1;stroke-width:0.264582"
         x="106.26249"
         y="143.0455"
         id="tspan19-6">Reflexive Research</tspan></text><text
       xml:space="preserve"
       style="font-style:normal;font-variant:normal;font-weight:normal;font-stretch:normal;font-size:3.52778px;line-height:4.5376px;font-family:Monospace;-inkscape-font-specification:Monospace;text-align:center;letter-spacing:0px;writing-mode:lr-tb;direction:ltr;text-anchor:middle;white-space:pre;inline-size:79.8666;fill:#838383;fill-opacity:1;stroke-width:0.264583"
       x="45.268539"
       y="124.49709"
       id="text23"
       transform="translate(0,1.5875)"><tspan
         x="45.268539"
         y="124.49709"
         id="tspan2">epistemology · ethnography
</tspan><tspan
         x="45.268539"
         y="129.03469"
         id="tspan3">inductive reasoning
</tspan><tspan
         x="45.268539"
         y="133.57229"
         id="tspan4">interpretive methods</tspan></text><text
       xml:space="preserve"
       style="font-style:normal;font-variant:normal;font-weight:bold;font-stretch:normal;font-size:4.23333px;line-height:4.37444px;font-family:Georgia;-inkscape-font-specification:'Georgia Bold';text-align:center;writing-mode:lr-tb;direction:ltr;text-anchor:middle;fill:#ac3b61;fill-opacity:1;stroke-width:0.264582"
       x="46.419575"
       y="166.16611"
       id="text16-83"><tspan
         style="font-style:normal;font-variant:normal;font-weight:bold;font-stretch:normal;font-size:4.23333px;line-height:4.37444px;font-family:Georgia;-inkscape-font-specification:'Georgia Bold';fill:#ac3b61;fill-opacity:1;stroke-width:0.264582"
         x="46.419575"
         y="166.16611"
         id="tspan19-8">Community Practitioner</tspan></text><text
       xml:space="preserve"
       style="font-style:normal;font-variant:normal;font-weight:normal;font-stretch:normal;font-size:3.52778px;line-height:4.5376px;font-family:Monospace;-inkscape-font-specification:Monospace;text-align:center;letter-spacing:0px;writing-mode:lr-tb;direction:ltr;text-anchor:middle;white-space:pre;inline-size:79.8666;fill:#838383;fill-opacity:1;stroke-width:0.264583"
       x="45.268539"
       y="124.49709"
       id="text23-1"
       transform="translate(1.0148618,48.202784)"><tspan
         x="45.268539"
         y="124.49709"
         id="tspan5">cooperative organizing
</tspan><tspan
         x="45.268539"
         y="129.03469"
         id="tspan6">technology appropriation</tspan></text><text
       xml:space="preserve"
       style="font-size:3.52778px;line-height:4.54px;text-align:center;writing-mode:lr-tb;direction:ltr;text-anchor:middle;white-space:pre;inline-size:90.7781;fill:#838383;fill-opacity:1;stroke-width:0.264583"
       x="111.18568"
       y="124.40876"
       id="text23-9"
       transform="translate(-4.6556537,25.764981)"><tspan
         x="111.18568"
         y="124.40876"
         id="tspan8"><tspan
           style="font-family:Monospace;-inkscape-font-specification:Monospace"
           id="tspan7">action research
</tspan></tspan><tspan
         x="111.18568"
         y="128.98501"
         id="tspan10"><tspan
           style="font-family:Monospace;-inkscape-font-specification:Monospace"
           id="tspan9">participatory design
</tspan></tspan><tspan
         x="111.18568"
         y="133.56126"
         id="tspan12"><tspan
           style="font-family:Monospace;-inkscape-font-specification:Monospace"
           id="tspan11">qualitative methods</tspan></tspan></text><text
       xml:space="preserve"
       style="font-style:normal;font-variant:normal;font-weight:bold;font-stretch:normal;font-size:4.23333px;line-height:4.37444px;font-family:Georgia;-inkscape-font-specification:'Georgia Bold';text-align:center;writing-mode:lr-tb;direction:ltr;text-anchor:middle;fill:#ac3b61;fill-opacity:1;stroke-width:0.264582"
       x="175.35007"
       y="142.8732"
       id="text16-3-8"><tspan
         style="font-style:normal;font-variant:normal;font-weight:bold;font-stretch:normal;font-size:4.23333px;line-height:4.37444px;font-family:Georgia;-inkscape-font-specification:'Georgia Bold';fill:#ac3b61;fill-opacity:1;stroke-width:0.264582"
         x="175.35007"
         y="142.8732"
         id="tspan19-6-3">Sociotechnical Systems Design</tspan></text><text
       xml:space="preserve"
       style="font-size:3.52778px;line-height:4.5376px;text-align:center;writing-mode:lr-tb;direction:ltr;text-anchor:middle;white-space:pre;inline-size:58.4604;fill:#838383;fill-opacity:1;stroke-width:0.264583"
       x="174.18416"
       y="124.09119"
       id="text23-9-6"
       transform="translate(1.1651798,25.764981)"><tspan
         x="174.18416"
         y="124.09119"
         id="tspan14"><tspan
           style="font-family:Monospace;-inkscape-font-specification:Monospace"
           id="tspan13">responsible technologies
</tspan></tspan><tspan
         x="174.18416"
         y="128.66503"
         id="tspan16"><tspan
           style="font-family:Monospace;-inkscape-font-specification:Monospace"
           id="tspan15">community-centred design
</tspan></tspan><tspan
         x="174.18416"
         y="133.23887"
         id="tspan18"><tspan
           style="font-family:Monospace;-inkscape-font-specification:Monospace"
           id="tspan17">capacity building</tspan></tspan></text><text
       xml:space="preserve"
       style="font-style:normal;font-variant:normal;font-weight:normal;font-stretch:normal;font-size:3.88056px;line-height:4.0099px;font-family:Chalkduster;-inkscape-font-specification:Chalkduster;text-align:center;writing-mode:lr-tb;direction:ltr;text-anchor:middle;fill:#858585;fill-opacity:1;stroke-width:0.264582"
       x="113.61623"
       y="205.98611"
       id="text16-8"><tspan
         style="font-style:normal;font-variant:normal;font-weight:normal;font-stretch:normal;font-size:3.88056px;line-height:4.0099px;font-family:Monospace;-inkscape-font-specification:Monospace;fill:#858585;fill-opacity:1;stroke-width:0.264582"
         x="113.61623"
         y="205.98611"
         id="tspan19-5">Participatory Design for Responsible Technologies</tspan></text></g><g
     id="g1"
     transform="matrix(0.26458332,0,0,0.26458334,214.1392,-111.31044)"><path
       id="path3"
       style="opacity:0.6;fill:#ac3b61;fill-opacity:1;fill-rule:nonzero;stroke:none;stroke-width:0.0037672"
       d="m -536.7472,511.15634 c -0.0134,0.0159 -0.0269,0.032 -0.0399,0.0497 -0.20142,0.27466 -0.22049,0.66099 -0.043,0.86219 0.46933,0.53457 0.93639,1.09226 1.38821,1.6575 0.0318,0.0398 0.0687,0.0697 0.10835,0.0916 0.17243,0.0952 0.40537,0.0255 0.57443,-0.19142 0.017,-0.022 0.0326,-0.0446 0.0475,-0.0678 -0.0266,-0.0265 -0.0523,-0.0535 -0.0779,-0.0813 -0.0573,-0.0659 -0.12505,-0.11492 -0.18647,-0.1745 -0.0612,-0.0647 -0.12224,-0.12923 -0.17276,-0.20787 -0.0237,-0.036 -0.0524,-0.0635 -0.0838,-0.0886 -0.0566,-0.0512 -0.10341,-0.11731 -0.16113,-0.16715 -0.0599,-0.0414 -0.10409,-0.10714 -0.15923,-0.15545 -0.082,-0.0717 -0.15891,-0.15173 -0.2334,-0.23484 -0.0697,-0.0902 -0.13835,-0.18321 -0.20345,-0.27915 -0.0488,-0.0762 -0.11229,-0.13227 -0.16904,-0.19788 -0.0643,-0.066 -0.11322,-0.1516 -0.17052,-0.22655 -0.0507,-0.0844 -0.10288,-0.16694 -0.15501,-0.24979 -0.0427,-0.0702 -0.0893,-0.13658 -0.14176,-0.19478 -0.0465,-0.04 -0.0818,-0.0941 -0.12116,-0.14366 z"
       inkscape:transform-center-x="-2.8762009"
       inkscape:transform-center-y="1.2343516" /><path
       id="path4"
       style="opacity:0.6;fill:#ac3b61;fill-opacity:1;fill-rule:nonzero;stroke:none;stroke-width:0.0037672"
       d="m -544.83494,504.16003 c -0.12031,-0.0663 -0.24046,-0.13223 -0.36089,-0.19821 -0.14597,-0.0806 -0.29281,-0.15927 -0.44011,-0.23702 -0.14809,-0.077 -0.29528,-0.15588 -0.44897,-0.22002 -0.1678,-0.0711 -0.33917,-0.13434 -0.49865,-0.22485 -0.15126,-0.0835 -0.30286,-0.1673 -0.45415,-0.25068 -0.16099,-0.0887 -0.32211,-0.17738 -0.48324,-0.26577 -0.14148,-0.0781 -0.28239,-0.15596 -0.42567,-0.23023 -0.16466,-0.085 -0.32906,-0.17099 -0.49816,-0.24575 -0.18125,-0.0809 -0.36757,-0.15049 -0.54142,-0.24846 -0.18678,-0.10311 -0.37358,-0.20602 -0.56117,-0.30739 -0.21247,-0.11491 -0.42457,-0.23082 -0.64118,-0.33664 -0.22024,-0.10846 -0.4429,-0.21183 -0.66743,-0.3102 -0.18415,-0.0889 -0.36133,-0.19237 -0.54459,-0.28336 -0.15017,-0.0746 -0.30347,-0.14313 -0.46002,-0.20233 -0.20691,-0.0789 -0.41744,-0.14891 -0.61956,-0.24001 -0.12809,-0.0527 -0.25373,-0.11083 -0.38094,-0.16519 -0.0237,0.0396 -0.0441,0.0836 -0.06,0.12975 -0.12141,0.3299 -0.0262,0.6667 0.21338,0.7521 l 2.9e-4,-5.8e-4 c 5.04282,1.80138 9.63408,4.70842 13.64832,8.63946 0.0237,0.0237 0.0496,0.0432 0.0767,0.0581 0.18791,0.10374 0.44387,0.01 0.61033,-0.24048 0.019,-0.028 0.0359,-0.0573 0.0509,-0.0871 -0.0534,-0.0456 -0.10889,-0.0881 -0.16493,-0.12934 -0.0624,-0.0427 -0.12688,-0.0834 -0.19169,-0.12169 -0.0696,-0.0506 -0.12855,-0.11781 -0.1956,-0.1728 -0.0515,-0.0412 -0.10655,-0.0762 -0.1622,-0.1094 -0.0778,-0.0604 -0.15036,-0.13046 -0.21744,-0.20746 -0.0371,-0.044 -0.0697,-0.0946 -0.11228,-0.13084 -0.0599,-0.0696 -0.12086,-0.13747 -0.1779,-0.21072 -0.0723,-0.0765 -0.13685,-0.16237 -0.20001,-0.25078 -0.0588,-0.0834 -0.13527,-0.14268 -0.20469,-0.21093 -0.0763,-0.0789 -0.15724,-0.14984 -0.2305,-0.23312 -0.0731,-0.0867 -0.13329,-0.1894 -0.20515,-0.27743 -0.0728,-0.0907 -0.14523,-0.18228 -0.21671,-0.27458 -0.0703,-0.11224 -0.1564,-0.20451 -0.24028,-0.29949 -0.0137,-0.0159 -0.0269,-0.0323 -0.0404,-0.0487 l -0.14598,-0.0806 -0.35755,-0.19737 -0.26908,-0.14854 -0.18726,-0.10336 -0.21306,-0.11761 -0.23372,-0.12901 c -0.0979,-0.0516 -0.19542,-0.10314 -0.28738,-0.16691 -0.11872,-0.0849 -0.23057,-0.18087 -0.34229,-0.27768 -0.10251,-0.0978 -0.19834,-0.20589 -0.29412,-0.31331 -0.0714,-0.0802 -0.11425,-0.16694 -0.13389,-0.25136 l -0.37672,-0.20794 -0.4357,-0.24051 c -0.11841,-0.0653 -0.23691,-0.13079 -0.35533,-0.19614 -0.10741,-0.0592 -0.21477,-0.11863 -0.32218,-0.17784 z"
       inkscape:transform-center-x="-0.27908348"
       inkscape:transform-center-y="-0.75095138" /><path
       id="path5"
       style="opacity:0.6;fill:#ac3b61;fill-opacity:1;fill-rule:nonzero;stroke:none;stroke-width:0.0037672"
       inkscape:transform-center-x="1.2633509"
       inkscape:transform-center-y="1.6678182"
       d="m -566.17333,500.60108 c -0.81164,-8e-4 -1.54526,0.0239 -2.18939,0.0614 -2.81715,0.16366 -4.54689,0.59134 -4.61914,0.60944 -0.54664,0.137 -1.01532,0.70349 -1.17568,1.3606 0.0305,-0.008 0.0634,-0.0143 0.0975,-0.0173 0.0443,-0.003 0.088,-0.0193 0.13238,-0.0205 0.0604,-0.007 0.12367,-0.0189 0.18462,-0.0393 0.0714,-0.0221 0.15489,-0.0495 0.21772,-0.063 0.0717,-0.0206 0.14271,-0.0394 0.21423,-0.0519 0.0466,-0.006 0.0964,-0.0236 0.14283,-0.0236 0.0743,-0.0193 0.14696,-0.032 0.22121,-0.0488 0.0955,-0.0144 0.19365,-0.0348 0.28389,-0.0157 0.0795,0.008 0.16075,0.0104 0.23863,0.0252 0.0803,-0.0236 0.1586,-0.0377 0.23862,-0.0535 l 0.002,-0.002 v -0.003 h 0.002 0.002 0.002 c 0.034,-0.009 0.14404,-0.002 0.17244,-0.005 h 0.002 l 0.002,-0.003 c 0.0554,-0.0269 0.12549,-0.0331 0.18637,-0.0441 0.0715,-0.014 0.14407,-0.007 0.21598,-0.0315 0.10304,-0.0344 0.20396,-0.0246 0.30655,-0.0567 0.10934,-0.0315 0.21873,-0.0544 0.32745,-0.0709 0.13139,-0.0123 0.26246,-0.028 0.39189,-0.0268 0.13138,-0.005 0.2602,0.005 0.38493,0.0299 0.0878,-5.8e-4 0.16837,0.0299 0.2543,0.0362 0.0866,0.0145 0.17509,0.0179 0.263,0.0268 0.10535,0.0189 0.21137,0.034 0.31526,0.0583 0.0854,0.006 0.16641,0.0312 0.24907,0.0472 0.0476,-0.0116 0.0962,-0.0303 0.14282,-0.0331 0.0553,-0.007 0.11018,-0.0159 0.16547,-0.0251 0.0877,-0.027 0.17403,-0.0462 0.26127,-0.0614 0.0924,-0.0133 0.18405,-0.0199 0.27693,-0.0378 0.0562,-0.006 0.11227,-0.0118 0.16896,-0.0268 0.0983,-0.0349 0.19476,-0.0595 0.29261,-0.0725 0.0951,-0.021 0.1903,-0.0329 0.28564,-0.0693 0.10886,-0.0245 0.21709,-0.0553 0.32571,-0.074 0.11187,-0.0272 0.22464,-0.0456 0.33616,-0.0646 0.0721,-0.005 0.1452,-0.0173 0.21772,-0.0268 0.0928,-0.008 0.18239,-0.002 0.27345,0 0.078,0.0115 0.15801,0.0151 0.2334,0.0362 0.0962,0.0161 0.19331,0.0315 0.28739,0.0551 0.10979,0.0162 0.21973,0.0235 0.32919,0.041 0.0369,0.003 0.0749,0.008 0.11148,0.0126 0.0311,-0.0757 0.0635,-0.14905 0.0958,-0.22361 l 0.002,-0.003 v -0.002 -0.003 l 0.002,-0.002 0.004,-0.003 h 0.002 l 0.002,-0.002 0.002,0.002 c 0.0111,0.002 0.0268,0.014 0.0383,0.0173 h 0.002 0.002 c 0.14046,0.029 0.28921,0.0295 0.41976,0.0913 0.13887,0.0696 0.27758,0.13661 0.41976,0.19842 0.2145,0.0413 0.43009,0.0794 0.64445,0.12125 0.0796,-0.14831 0.25833,-0.26268 0.49466,-0.22676 0.1386,0.0214 0.2766,0.0419 0.41454,0.0661 0.18002,0.0247 0.35583,0.0639 0.53472,0.0929 0.1247,0.0243 0.25009,0.0495 0.37796,0.0614 0.12327,0.0189 0.24607,0.0347 0.36925,0.0535 0.11511,0.0178 0.23183,0.0376 0.34661,0.0567 0.12437,0.0222 0.24911,0.0364 0.37273,0.0614 0.12337,0.0189 0.24409,0.0432 0.36925,0.0552 0.15495,0.0145 0.30383,0.0599 0.4546,0.0898 0.11953,0.0303 0.24168,0.0443 0.36229,0.0709 0.11795,0.0211 0.23706,0.0366 0.35532,0.0567 0.13795,0.0353 0.27881,0.0685 0.41627,0.10551 0.11757,0.0444 0.23956,0.0697 0.36055,0.10394 0.11557,0.0244 0.23271,0.0442 0.35183,0.0552 0.13923,-0.003 0.27738,-0.003 0.4128,0.0126 0.16999,0.0228 0.32863,0.0873 0.48421,0.15276 0.088,0.038 0.17397,0.0776 0.25952,0.12125 0.0921,0.0214 0.18453,0.0414 0.27693,0.0614 0.0818,0.026 0.16348,0.0427 0.24908,0.0552 0.0873,0.0159 0.17893,0.0223 0.26649,0.0378 0.0937,0.0181 0.18062,0.0548 0.26649,0.0945 0.0762,0.0444 0.15941,0.0681 0.2421,0.0961 0.13328,0.0459 0.26346,0.10468 0.39015,0.16692 0.0225,0.0114 0.0435,0.0222 0.0662,0.0331 0.0295,0.005 0.0597,0.014 0.0888,0.0205 0.10012,0.0318 0.20351,0.0489 0.30481,0.0772 0.10001,0.0272 0.19466,0.0683 0.28912,0.11023 0.0942,0.0473 0.18701,0.0946 0.28566,0.13071 0.12278,0.0418 0.25012,0.068 0.37447,0.10551 0.079,0.0308 0.15855,0.0532 0.2421,0.0693 0.0941,0.0193 0.18953,0.0387 0.28217,0.063 0.0327,0.009 0.0618,0.0204 0.0888,0.0331 0.0737,0.0347 0.12656,0.0853 0.16025,0.14173 0.11169,0.0295 0.22632,0.0512 0.33441,0.0913 0.11177,0.038 0.21486,0.0946 0.31874,0.15118 0.11399,0.0569 0.22893,0.11209 0.35184,0.14645 0.15878,0.0638 0.31554,0.1329 0.4633,0.22205 0.11886,0.0656 0.23522,0.13081 0.35532,0.1937 0.11061,0.0588 0.22279,0.11609 0.33616,0.1685 0.16148,0.0751 0.32488,0.14642 0.48943,0.21417 0.14245,0.0658 0.27972,0.14216 0.41802,0.21732 l 0.42151,0.23149 0.4842,0.26771 0.39538,0.21732 c 0.12567,0.0693 0.25227,0.14008 0.37796,0.20944 0.1415,0.078 0.28698,0.14393 0.42847,0.22204 0.1269,0.0699 0.25436,0.14154 0.38145,0.21102 0.15046,0.0807 0.29934,0.16151 0.45111,0.23937 0.13384,0.068 0.26822,0.13791 0.40583,0.19684 0.13936,0.0571 0.28425,0.10185 0.41628,0.17638 0.12285,0.0654 0.24713,0.12823 0.37274,0.18739 0.13713,0.0626 0.27501,0.11983 0.41453,0.17638 0.17354,0.0804 0.33627,0.18527 0.50163,0.28346 0.15972,0.0964 0.31644,0.19751 0.47028,0.3055 0.13885,0.0974 0.27922,0.18994 0.43021,0.26299 0.13724,0.0758 0.2738,0.15513 0.40931,0.23464 0.12719,0.0726 0.2525,0.14712 0.37622,0.22677 0.11254,0.0728 0.22327,0.15008 0.32571,0.24094 0.0929,0.0789 0.19667,0.13589 0.29261,0.20944 0.0672,0.0559 0.1269,0.12337 0.19508,0.17638 0.10346,0.0797 0.20577,0.16619 0.29087,0.274 0.0837,0.11308 0.1607,0.23275 0.22817,0.36378 0.0285,0.0526 0.0594,0.10427 0.0906,0.15433 0.0177,0.009 0.0382,0.0122 0.0557,0.0221 0.0283,0.0151 0.0571,0.0316 0.0853,0.0472 0.0245,0.0134 0.047,0.026 0.0714,0.0393 0.0231,0.0128 0.0465,0.0249 0.0696,0.0378 l 0.0853,0.0472 c 0.0382,0.0187 0.0737,0.0416 0.10451,0.074 0.0189,0.0211 0.0409,0.0365 0.0627,0.0535 0.0233,0.0151 0.0441,0.036 0.068,0.0504 0.0416,0.017 0.0761,0.0481 0.10973,0.0803 0.0337,0.0312 0.0639,0.0694 0.0975,0.10078 0.0342,0.0337 0.0679,0.0677 0.0993,0.10551 0.027,0.0369 0.0574,0.0697 0.0853,0.10551 0.0277,0.0315 0.0493,0.071 0.0749,0.10551 0.0262,0.0228 0.0487,0.0494 0.0714,0.0772 0.0223,0.0261 0.0469,0.0469 0.0697,0.0724 0.0238,0.0284 0.0486,0.0545 0.0696,0.0866 0.006,0.01 0.0129,0.0198 0.0192,0.0299 0.0207,0.0197 0.0415,0.038 0.0627,0.0567 0.059,0.0421 0.11715,0.0876 0.16896,0.14173 0.0491,0.0486 0.10216,0.0931 0.14108,0.1559 0.0363,0.0562 0.0799,0.10157 0.11495,0.15905 0.036,0.0577 0.0745,0.1122 0.11322,0.16693 0.0375,0.0532 0.0757,0.10425 0.11321,0.15748 0.0294,0.0453 0.0585,0.0931 0.0941,0.13071 0.0387,0.0407 0.0747,0.0876 0.11321,0.12912 0.004,0.005 0.007,0.0102 0.0122,0.0142 0.025,0.0186 0.0498,0.0404 0.0766,0.0552 0.0419,0.0255 0.0829,0.0525 0.12541,0.0772 0.0353,0.0201 0.0689,0.0432 0.1045,0.063 0.0277,0.0154 0.0557,0.0303 0.0836,0.0456 0.0358,0.0175 0.069,0.0372 0.0975,0.0677 0.0125,0.0176 0.0272,0.0326 0.0435,0.0441 0.0251,0.0164 0.0487,0.0362 0.0714,0.0567 0.0202,0.0272 0.0402,0.0518 0.0592,0.0803 0.0104,0.0164 0.0234,0.0285 0.0366,0.041 0.0258,0.0201 0.0524,0.0386 0.0731,0.0661 0.0248,0.0243 0.0438,0.0556 0.0662,0.0835 0.0273,0.0244 0.0475,0.0565 0.0714,0.085 0.004,0.006 0.006,0.009 0.007,0.0111 l 0.002,0.002 0.002,0.002 v 0.002 h 0.002 v 0.002 c 0.0452,0.0453 0.0696,0.0937 0.0766,0.1433 0.0189,0.0128 0.0379,0.028 0.0557,0.0425 0.0368,0.0285 0.0691,0.0647 0.10624,0.0929 0.0399,0.0327 0.0766,0.0693 0.10451,0.11811 0.02,0.0329 0.0386,0.0658 0.0592,0.0976 0.0295,0.0381 0.0584,0.0792 0.0871,0.1181 0.0237,0.0372 0.0493,0.0725 0.0766,0.10551 0.0372,0.0491 0.0702,0.10389 0.10625,0.15433 0.0281,0.044 0.0585,0.083 0.0923,0.11968 0.039,0.0493 0.0735,0.10458 0.10799,0.15906 0.0332,0.0524 0.066,0.10432 0.10102,0.15433 0.0335,0.0481 0.0639,0.10127 0.10103,0.14487 0.0399,0.0507 0.0779,0.10312 0.11843,0.15276 0.0377,0.0477 0.0727,0.0989 0.11496,0.14015 0.0521,0.0503 0.1076,0.0954 0.16024,0.14488 0.0388,0.0419 0.0716,0.091 0.1045,0.14015 0.0285,0.0414 0.0592,0.0786 0.0906,0.11654 0.0351,0.0419 0.0754,0.0778 0.108,0.12283 0.0335,0.0449 0.0697,0.0869 0.0975,0.13858 0.0301,0.0456 0.059,0.0925 0.0888,0.13858 0.0275,0.0444 0.0581,0.0844 0.0906,0.12283 0.0311,0.0384 0.0639,0.075 0.0923,0.11653 0.0333,0.036 0.0661,0.0702 0.10276,0.10079 0.0445,0.0398 0.10046,0.063 0.14282,0.10708 0.0392,0.0355 0.0752,0.0755 0.11496,0.11024 0.0355,0.0353 0.0688,0.0734 0.10451,0.10866 0.0346,0.0371 0.0721,0.0703 0.10799,0.10551 0.0344,0.0395 0.068,0.0784 0.10102,0.11968 0.0287,0.0409 0.0564,0.0846 0.0836,0.12756 0.0266,0.0359 0.0512,0.0741 0.0749,0.11338 0.0287,0.0376 0.0579,0.0751 0.0871,0.11181 0.0243,0.036 0.0492,0.0693 0.0731,0.10551 0.0307,0.0387 0.0609,0.0818 0.0923,0.11968 0.036,0.0431 0.0734,0.0817 0.10102,0.13543 0.027,0.0401 0.0521,0.0827 0.0801,0.12126 0.0379,0.0468 0.0792,0.0908 0.11844,0.13543 0.0434,0.0531 0.0856,0.10642 0.12018,0.17008 0.0126,0.0229 0.0247,0.0457 0.0366,0.0693 0.11019,0.12637 0.21892,0.2546 0.32048,0.39212 0.10791,0.1458 0.21426,0.2931 0.32049,0.44094 0.0787,0.10892 0.16241,0.21264 0.23861,0.3244 0.0714,0.10058 0.11814,0.22572 0.17418,0.34172 0.0608,0.12556 0.11851,0.25564 0.17418,0.38582 0.0644,0.15517 0.12857,0.30792 0.2003,0.45668 0.0599,0.12477 0.12036,0.25064 0.17591,0.37952 0.0207,0.0184 0.0405,0.0385 0.061,0.063 0.0815,0.098 0.16657,0.1927 0.24385,0.29606 0.0583,0.0874 0.12341,0.16597 0.18288,0.25196 0.0665,0.0795 0.12286,0.16939 0.17244,0.26771 0.0493,0.11242 0.0906,0.2335 0.14282,0.3433 0.0507,0.11218 0.0932,0.23053 0.13934,0.34646 0.0392,0.11437 0.0911,0.218 0.13412,0.32912 0.0459,0.10204 0.0868,0.20993 0.12714,0.31653 0.04,0.10261 0.0863,0.19654 0.12018,0.30393 0.0221,0.085 0.0548,0.16251 0.0836,0.24251 0.0356,0.0871 0.0642,0.17909 0.0941,0.27087 0.0234,0.0647 0.0438,0.13397 0.0749,0.19212 0.0532,0.074 0.0922,0.16644 0.12715,0.25826 0.0275,0.0745 0.0717,0.13089 0.10625,0.19842 0.0131,0.0315 0.0261,0.0639 0.04,0.0945 0.0447,-0.006 0.0921,-0.003 0.13934,0.0205 0.0637,0.0305 0.12758,0.0907 0.18462,0.18741 0.0245,0.0405 0.0156,0.0228 0.0278,0.0504 0.0508,0.0665 0.10401,0.1337 0.15327,0.20314 0.29975,0.42396 -0.0362,0.89107 -0.35532,0.66141 -0.21,0.0564 -0.43371,0.0977 -0.26823,0.24409 -0.0393,-0.0311 -0.0765,-0.0634 -0.10973,-0.10394 -0.0419,-0.0536 -0.0424,-0.0672 -0.0941,-0.10078 -0.0509,-0.0422 -0.10134,-0.085 -0.14805,-0.13386 l -0.22643,-0.12598 c -0.0632,-0.012 -0.12403,-0.0285 -0.18462,-0.0488 -0.0661,-0.0327 -0.13513,-0.0535 -0.20727,-0.0677 -0.0647,-0.0236 -0.13466,-0.0242 -0.20379,-0.0315 -0.027,-0.003 -0.0538,-0.008 -0.0801,-0.0142 -0.0327,-0.003 -0.0642,-0.011 -0.0958,-0.0205 -0.0127,-0.005 -0.0257,-0.01 -0.0383,-0.0142 -0.0637,-8.1e-4 -0.1202,-0.0331 -0.18289,-0.0362 -0.069,-3.2e-4 -0.13158,-0.0277 -0.2003,-0.0284 -0.0838,0.006 -0.15922,-0.0257 -0.23862,-0.0362 -0.0721,-0.006 -0.1416,-0.02 -0.21075,-0.0378 -0.0488,-0.0174 -0.10328,-0.0156 -0.15502,-0.0236 h -0.002 c -0.007,-5.1e-4 -0.0215,-0.003 -0.0384,-0.006 -0.16014,0.0909 -0.31406,0.10581 -0.46505,0.0567 -0.055,0.003 -0.10964,0.006 -0.16372,0.003 -0.0687,0.0459 -0.15653,0.0761 -0.26475,0.0803 -0.10794,0.003 -0.21504,-6.6e-4 -0.32048,-0.011 -0.0836,-0.005 -0.16792,-0.002 -0.25255,0 -0.0803,-0.005 -0.15863,-0.012 -0.23863,-0.0173 -0.0593,0.015 -0.11734,0.002 -0.17592,0.009 -0.0539,0.003 -0.11045,0.0142 -0.16547,0.0268 -0.0724,0.0143 -0.14557,0.0302 -0.21771,0.0394 -0.0566,0.0126 -0.11511,0.0251 -0.17244,0.0362 -0.0546,0.011 -0.12291,0.0204 -0.19508,0.0331 -0.079,0.0161 -0.15801,0.0301 -0.23687,0.0441 -0.059,0.003 -0.11828,0.02 -0.17766,0.0299 -0.0706,0.0168 -0.13894,0.0225 -0.20727,0.0189 l -0.002,0.003 h -0.002 c -0.0208,0.006 -0.11199,0.009 -0.12715,0.011 -0.0551,0.0136 -0.13093,-0.008 -0.16895,0 -0.0895,0.005 -0.17863,-6.3e-4 -0.26474,-0.0142 -0.0846,-0.005 -0.1685,-0.006 -0.25256,-0.0126 -0.0463,-0.007 -0.0942,-0.0121 -0.14108,-0.0173 -0.0301,0.0556 -0.058,0.11167 -0.0871,0.1685 -0.0489,0.11011 -0.10522,0.21239 -0.16721,0.31181 0.92763,0.20838 1.8556,0.41819 2.78333,0.62675 0.99551,0.22399 1.99132,0.44706 2.98711,0.67086 0.0919,-0.1153 0.2514,-0.18627 0.45285,-0.14016 0.1255,0.0289 0.25622,0.0328 0.38667,0.041 0.16767,0.003 0.33781,-0.0157 0.50685,-0.022 0.1456,0.003 0.28955,0.0195 0.43021,0.0441 0.0975,0.0197 0.19937,0.0175 0.30307,0 0.13538,-0.0185 0.27039,-0.0534 0.40583,-0.0724 0.14484,-0.0201 0.28627,-0.0153 0.42499,0 0.20671,0.0144 0.41085,0.0392 0.6131,0.0724 0.0188,0.002 0.0322,0.005 0.0435,0.006 0.21206,-0.25143 0.37291,-0.55599 0.46678,-0.87715 -0.0845,-0.0608 -0.14032,-0.21113 -0.11844,-0.45668 0.004,-0.0496 -8.9e-4,-0.0947 0.007,-0.14488 0.007,-0.0642 0.007,-0.11033 0.0104,-0.17322 0.004,-0.0913 0.0148,-0.18492 0.0157,-0.27558 0.006,-0.0688 0.006,-0.13598 0.005,-0.20316 l -0.002,-0.009 c 1.8e-4,-0.006 4e-4,-0.0108 0,-0.0236 -0.002,-0.044 -0.004,-0.0892 -0.004,-0.13386 v -0.003 -0.002 c -5.2e-4,-0.003 -0.003,-0.0104 -0.004,-0.0142 v -0.002 c 7.3e-4,-0.10042 0.007,-0.20211 0.0139,-0.30393 0.0176,-0.10868 0.0195,-0.21682 0.0488,-0.32598 0.0228,-0.0897 0.0398,-0.18128 0.0627,-0.27086 -0.0942,-2.62635 -0.18617,-5.25537 -0.28042,-7.88173 -0.0114,0.0185 -0.0233,0.0367 -0.0349,0.0552 -0.0255,0.0378 -0.0289,0.0492 -0.0384,0.0788 -0.0611,0.11951 -0.0781,0.14324 -0.1376,0.24094 -0.035,0.061 -0.065,0.11622 -0.10974,0.1811 -0.0328,0.064 -0.0759,0.12169 -0.12017,0.17952 0.006,-0.008 0.0101,-0.0123 0.0122,-0.0142 h 0.002 v 0.002 c -0.0121,0.0247 -0.093,0.14708 -0.0958,0.15118 -0.003,0.003 -0.007,0.0105 -0.0104,0.0157 0.0381,-0.0672 -0.0508,0.0817 -0.0662,0.10708 -0.007,0.01 -0.0136,0.0194 -0.0209,0.0284 0.008,0.10285 0.006,0.20279 -0.0139,0.30551 -0.0145,0.0821 -0.0313,0.16389 -0.061,0.24252 -0.002,0.0441 -0.005,0.14514 -0.009,0.15432 -0.01,0.0982 -0.0248,0.19627 -0.061,0.28976 -0.006,0.0156 -0.0119,0.0272 -0.0157,0.0347 -6.8e-4,0.0102 -0.002,0.0229 -0.004,0.0394 -0.004,0.0784 -0.009,0.15688 -0.0209,0.23464 -0.0161,0.11887 -0.0336,0.23707 -0.061,0.35432 -0.017,0.0729 -0.0399,0.13735 -0.0679,0.19371 0.0242,0.0607 0.0461,0.12291 0.0592,0.19054 0.0182,0.0947 0.037,0.18787 0.0505,0.28503 0.008,0.0901 0.0119,0.19391 0.004,0.27874 -7.3e-4,0.0718 0.004,0.14372 0.007,0.21417 0.002,0.0806 -9e-4,0.16305 0.004,0.24251 0.005,0.10309 6.2e-4,0.21039 0.0139,0.31024 0.01,0.0964 0.0173,0.19088 0.0209,0.28975 0.0109,0.0965 0.007,0.13323 0.0157,0.23622 6.1e-4,0.0722 -0.004,0.14339 -0.0104,0.21731 -0.002,0.0683 -0.003,0.11096 0.009,0.20473 -0.006,0.0718 0.002,0.14295 0,0.21416 0.004,0.11651 -8.9e-4,0.2324 -0.0174,0.35275 h -0.004 c -8e-4,0.029 0.005,0.1323 0.005,0.19055 -6.2e-4,0.0136 -3.2e-4,0.0278 -0.002,0.0425 -0.004,0.0826 -0.01,0.16622 -0.0122,0.24882 0.034,0.058 0.0597,0.13655 0.0749,0.23936 0.0111,0.0743 0.0325,0.14557 0.0366,0.22362 0.0146,0.13126 0.029,0.2633 0.0296,0.39999 6.2e-4,0.12008 -0.0149,0.2225 -0.04,0.30708 0.009,0.0322 0.016,0.0674 0.0227,0.10551 0.026,0.14932 0.009,0.31516 0.0261,0.46771 7.4e-4,0.0115 0.008,0.0262 0.0104,0.0378 0.0941,0.66316 -0.46543,0.93815 -0.56434,0.29763 -0.072,0.10098 -0.13944,0.17074 -0.1794,0.14173 -0.0222,-0.0196 -0.0387,-0.073 -0.04,-0.17323 -7.3e-4,-0.0967 -5.1e-4,-0.0943 -0.005,-0.18739 -3.3e-4,-0.023 -0.007,-0.11923 -0.005,-0.13228 -0.0113,-0.0661 -0.0233,-0.13163 -0.0366,-0.19685 -0.01,-0.0452 -0.0209,-0.0902 -0.0331,-0.13386 -0.004,-0.006 -0.006,-0.0125 -0.007,-0.0157 -0.0351,-0.1 -0.0583,-0.20749 -0.0731,-0.31968 -0.006,-0.0775 -0.0138,-0.15819 -0.0366,-0.22677 -0.0411,-0.0904 -0.0462,-0.20344 -0.0714,-0.30393 -0.0213,-0.0911 -0.037,-0.18677 -0.0731,-0.26771 -0.011,-0.0252 -0.0194,-0.053 -0.0278,-0.0803 -0.0612,-0.0219 -0.12093,-0.0504 -0.17766,-0.085 -0.0657,-0.0458 -0.12873,-0.0971 -0.18637,-0.1559 -0.066,-0.0703 -0.0851,-0.1835 -0.12889,-0.27558 -0.0481,-0.0898 -0.0781,-0.19795 -0.12018,-0.29292 -0.0448,-0.10592 -0.092,-0.20728 -0.12715,-0.32125 -0.0322,-0.10214 -0.0677,-0.19996 -0.0993,-0.30235 -0.0192,-0.0214 -0.0389,-0.0441 -0.0574,-0.0661 -0.14795,-0.17572 -0.16484,-0.37366 -0.10973,-0.52125 v -0.003 h -0.002 c -3.17928,-5.13842 -6.92035,-9.37226 -11.15941,-12.62178 -4.25633,-3.26268 -9.01804,-5.5441 -14.15524,-6.78097 -3.42873,-0.82578 -6.55431,-1.0614 -8.9892,-1.06454 z m 36.29816,10.82341 c -0.0105,5.8e-4 -0.0208,0.002 -0.0314,0.003 v 0.002 h -0.002 v 0.003 h -0.002 l -0.002,0.002 v 0.003 c 0.0131,-0.003 0.0269,-0.007 0.04,-0.0111 z m -0.93532,9.85334 c -0.0113,0.0138 -0.0244,0.0272 -0.0366,0.0394 0.006,0.0118 0.0128,0.0241 0.0192,0.0362 h 0.002 l -0.002,0.003 h 0.002 v 0.003 c 0.006,0.0143 0.0128,0.0276 0.0209,0.041 0.005,0.009 0.0115,0.0192 0.0174,0.0268 -0.007,-0.05 -0.0147,-0.0998 -0.0226,-0.14961 z m -2.12843,2.32436 c -0.002,0.0174 -0.003,0.0345 -0.005,0.052 0.0103,-0.003 0.0186,-0.003 0.0278,-0.003 -0.006,-0.0156 -0.014,-0.0306 -0.0209,-0.0456 v -0.003 z m -0.68451,0.37165 c -0.003,0.0136 -0.004,0.0255 -0.007,0.0315 l -0.002,0.002 v 0.002 c 0.002,0.007 0.002,0.0116 0.004,0.0173 0.004,-0.0197 0.005,-0.0332 0.009,-0.0504 h -0.002 z m -8.05038,0.71338 c -0.0217,0.005 -0.0508,0.0151 -0.061,0.0205 h -0.002 v 0.002 c 0.0217,0.006 0.0422,-0.002 0.0627,-0.022 z m 9.3358,0.43463 c -0.002,0.0132 -0.007,0.0268 -0.009,0.0394 0.0102,0.003 0.0194,0.008 0.0296,0.011 -0.006,-0.0168 -0.0137,-0.0348 -0.0209,-0.0504 z m -6.82768,0.79526 c -0.0113,0.006 -0.0236,0.0109 -0.0349,0.0173 -0.006,0.008 -0.0112,0.0172 -0.0174,0.0252 0.0122,5.9e-4 0.025,-6.6e-4 0.0349,-0.011 0.006,-8.1e-4 0.0127,-0.003 0.0192,-0.005 -3.9e-4,-0.009 -0.002,-0.0179 -0.002,-0.0268 z" /><path
       id="path5-6"
       style="opacity:0.6;fill:#ac3b61;fill-opacity:1;fill-rule:nonzero;stroke:none;stroke-width:0.00328009"
       d="m -569.24456,593.75771 c -0.004,0.008 -0.006,0.0154 -0.01,0.0233 l -7.8e-4,2.9e-4 0.002,10e-4 -7.8e-4,2.8e-4 0.002,10e-4 -1.5e-4,10e-4 0.002,10e-4 0.002,10e-4 c 0.002,-0.0104 0.004,-0.0209 0.006,-0.0317 z m 1.91837,0.24554 c 0.0195,0.051 0.0348,0.10168 0.048,0.15227 0.0137,0.0538 0.0366,0.1088 0.0571,0.16331 l 0.002,10e-4 -1.7e-4,10e-4 c 0.0176,0.0236 0.0341,0.0476 0.0486,0.0714 0.01,0.006 0.0186,0.0111 0.0284,0.0162 0.0553,0.0295 0.1111,0.0531 0.16764,0.0786 0.0815,0.0417 0.11868,0.0624 0.18641,0.0986 0.0502,0.0257 0.0936,0.0583 0.15455,0.0823 0.0726,0.0348 0.14658,0.0636 0.22006,0.10145 0.0766,0.0489 0.12386,0.0728 0.20346,0.12317 0.0925,0.0585 0.17225,0.13116 0.2502,0.20364 0.0518,0.0541 0.0756,0.0718 0.12304,0.10601 0.0686,0.0484 0.13142,0.10238 0.19387,0.1567 0.0176,0.0189 0.0412,0.0355 0.0618,0.0538 0.008,0.005 0.0195,0.0155 0.0263,0.0195 0.0666,0.0512 0.10963,0.0734 0.1833,0.12242 0.0882,0.0608 0.16822,0.13134 0.2454,0.20232 0.0432,0.0337 0.0818,0.0549 0.12856,0.0828 0.0689,0.0385 0.13301,0.0928 0.20374,0.12705 0.0924,0.0552 0.18427,0.11146 0.27515,0.16947 0.0504,0.0258 0.12007,0.0917 0.17872,0.125 0.16183,0.053 0.32336,0.10578 0.48514,0.15797 0.14223,0.0502 0.28349,0.0933 0.42568,0.13712 0.13159,0.0384 0.26293,0.0853 0.39389,0.13886 0.11035,0.0401 0.22025,0.0826 0.33079,0.11596 0.0771,0.0305 0.15683,0.0455 0.23251,0.0602 0.10414,0.0141 0.20688,0.0168 0.31426,0.0446 0.0897,0.023 0.17881,0.0444 0.26861,0.0725 0.0817,0.0288 0.1744,0.0652 0.2449,0.10374 0.0625,0.0279 0.12505,0.0548 0.18732,0.0802 0.0711,0.0294 0.14201,0.0624 0.21295,0.0898 0.0921,0.0355 0.18357,0.08 0.27589,0.10858 0.0878,0.0298 0.17439,0.0611 0.26204,0.0962 0.0884,0.0292 0.11801,0.0453 0.2112,0.0785 0.0632,0.0271 0.12619,0.0547 0.18807,0.0875 0.0589,0.0273 0.0928,0.0467 0.17908,0.0743 0.0602,0.0317 0.12617,0.0535 0.18767,0.0818 0.10308,0.0419 0.20219,0.0898 0.3009,0.14688 l -7.8e-4,3e-4 -0.003,-7e-4 -0.003,-6.9e-4 -0.002,-10e-4 -7.8e-4,2.9e-4 -0.002,-10e-4 -7.8e-4,2.9e-4 -7.8e-4,3e-4 c 0.0155,0.008 0.1249,0.0506 0.17908,0.0743 0.0117,0.006 0.0242,0.0112 0.0366,0.0176 0.0707,0.0339 0.14184,0.0704 0.21288,0.10373 0.0638,-10e-4 0.14242,0.009 0.23801,0.0373 0.0691,0.0209 0.13893,0.0332 0.20861,0.06 0.12025,0.0396 0.2419,0.0794 0.36142,0.13097 0.10499,0.0453 0.18814,0.0943 0.25218,0.1441 0.0315,0.006 0.0662,0.0135 0.10224,0.0229 0.14035,0.0387 0.27905,0.11304 0.41888,0.159 0.0106,0.003 0.0228,0.009 0.0341,0.011 0.61511,0.18658 0.63924,0.68282 0.0421,0.50823 0.0963,0.14211 0.13208,0.24358 -0.11275,0.13993 -0.0847,-0.0363 -0.0816,-0.0361 -0.16435,-0.0686 -0.0201,-0.009 -0.10605,-0.0408 -0.11675,-0.0471 -0.0621,-0.0172 -0.1248,-0.0344 -0.18673,-0.0502 -0.0431,-0.0106 -0.0868,-0.02 -0.12969,-0.0277 -0.008,10e-5 -0.0125,-6e-4 -0.0155,-10e-4 -0.10087,-0.0135 -0.20404,-0.0382 -0.30766,-0.0706 -0.0702,-0.0248 -0.14359,-0.0497 -0.21226,-0.0599 -0.0948,-0.006 -0.19577,-0.046 -0.29324,-0.0666 -0.0879,-0.0195 -0.17681,-0.0445 -0.26135,-0.0503 -0.0262,-0.002 -0.0541,-0.006 -0.0812,-0.0107 -0.0428,0.0344 -0.0908,0.0643 -0.14298,0.0908 -0.0655,0.0285 -0.13467,0.0531 -0.20832,0.071 -0.0869,0.0194 -0.19356,-0.009 -0.29089,-0.0136 -0.0969,-5.3e-4 -0.20212,-0.0211 -0.3013,-0.0278 -0.10982,-0.009 -0.21701,-0.0149 -0.33011,-0.0337 -0.1016,-0.0163 -0.20086,-0.0284 -0.30246,-0.0453 -0.026,0.006 -0.053,0.01 -0.0795,0.0145 -0.21071,0.0366 -0.39062,-0.0258 -0.49801,-0.12053 l -0.002,-10e-4 -7.8e-4,2.9e-4 c -5.71669,0.26877 -10.86178,1.27559 -15.34157,3.00477 -4.49798,1.73625 -8.33615,4.20005 -11.40836,7.32364 -2.73431,2.77959 -4.34389,5.57973 -5.21273,7.4395 -0.95018,2.03335 -1.24822,3.40614 -1.2604,3.46359 -0.0926,0.43461 0.22053,0.97848 0.73164,1.34077 0.004,-0.0245 0.0119,-0.0498 0.0226,-0.0748 0.0147,-0.0321 0.0176,-0.07 0.0336,-0.10144 0.0169,-0.0451 0.0307,-0.0931 0.0366,-0.14351 0.009,-0.0584 0.0172,-0.12681 0.0298,-0.17589 0.01,-0.058 0.0204,-0.11523 0.0372,-0.17005 0.0131,-0.0348 0.0175,-0.0761 0.0354,-0.10856 0.0121,-0.0593 0.0299,-0.11557 0.0441,-0.17389 0.0241,-0.0724 0.0437,-0.14887 0.0954,-0.20475 0.0382,-0.0524 0.072,-0.10851 0.11503,-0.15739 0.0105,-0.0652 0.0294,-0.1255 0.0467,-0.1875 l -0.002,-10e-4 -0.002,-10e-4 1.7e-4,-0.001 1.6e-4,-10e-4 7.8e-4,-3e-4 c 0.006,-0.0288 0.0609,-0.11013 0.0639,-0.12465 l -0.002,-10e-4 c -8.6e-4,-0.0489 0.02,-0.10126 0.0341,-0.14801 0.0155,-0.0553 0.049,-0.10258 0.0554,-0.16225 0.01,-0.0852 0.0577,-0.15259 0.0695,-0.23659 0.0149,-0.0885 0.0368,-0.1737 0.0645,-0.25602 0.0402,-0.0966 0.0777,-0.19415 0.12904,-0.28424 0.0468,-0.0938 0.10531,-0.18051 0.17588,-0.25811 0.0336,-0.0617 0.0912,-0.10609 0.13006,-0.1638 0.0463,-0.0551 0.0839,-0.11548 0.12574,-0.1736 0.0574,-0.0666 0.11116,-0.13641 0.17267,-0.19985 0.0381,-0.0576 0.0916,-0.10431 0.13765,-0.15604 0.009,-0.0377 0.0113,-0.0782 0.0269,-0.11184 0.0151,-0.0414 0.0294,-0.0824 0.0421,-0.1249 0.0105,-0.0716 0.0273,-0.13945 0.0478,-0.20629 0.0242,-0.0697 0.053,-0.13703 0.0736,-0.20874 0.0165,-0.0417 0.0337,-0.0832 0.0426,-0.12855 0.008,-0.0821 0.0241,-0.15875 0.0508,-0.23213 0.0183,-0.0745 0.0463,-0.14569 0.0512,-0.22631 0.0209,-0.0855 0.0353,-0.17292 0.0612,-0.25603 0.0197,-0.0886 0.0472,-0.17398 0.0739,-0.25922 0.0236,-0.0523 0.0403,-0.10848 0.0605,-0.16274 0.0285,-0.0682 0.07,-0.12802 0.10662,-0.19122 0.0403,-0.0502 0.0749,-0.10492 0.12261,-0.14962 0.0514,-0.0611 0.1015,-0.12305 0.15856,-0.17989 0.0566,-0.0707 0.10668,-0.14554 0.16446,-0.21546 0.0172,-0.0245 0.0361,-0.0491 0.0543,-0.0729 -0.054,-0.0506 -0.10573,-0.10165 -0.15822,-0.15266 l -0.002,-10e-4 -0.002,-10e-4 -0.002,-0.001 -0.002,-10e-4 7.9e-4,-3e-4 -7.9e-4,-0.004 1.8e-4,-10e-4 1.6e-4,-0.001 7.9e-4,-2.9e-4 7.8e-4,-2.9e-4 c 0.008,-0.008 0.026,-0.0138 0.0317,-0.0219 0.0798,-0.0872 0.13751,-0.19134 0.24204,-0.25917 0.11459,-0.0707 0.22671,-0.14331 0.33581,-0.21928 0.11922,-0.13436 0.23703,-0.27021 0.35667,-0.40428 -0.0985,-0.11216 -0.12917,-0.28 -0.006,-0.43168 0.0724,-0.0888 0.14333,-0.17841 0.21793,-0.26572 0.0914,-0.11655 0.19415,-0.22379 0.28889,-0.3379 0.0695,-0.078 0.13941,-0.15627 0.19943,-0.2412 0.0643,-0.0791 0.12595,-0.15899 0.19024,-0.23798 0.0602,-0.0738 0.12302,-0.14753 0.18424,-0.22056 0.0676,-0.0785 0.12864,-0.16165 0.19837,-0.23864 0.0644,-0.0791 0.13245,-0.15369 0.19144,-0.23671 0.0728,-0.10288 0.16889,-0.18955 0.25341,-0.28369 0.0729,-0.0721 0.13268,-0.15272 0.20272,-0.22697 0.0641,-0.0745 0.12517,-0.1519 0.18853,-0.22701 0.0844,-0.0831 0.16637,-0.16864 0.25206,-0.2507 0.0844,-0.0654 0.15518,-0.14166 0.23204,-0.21326 0.0662,-0.0716 0.1282,-0.14525 0.18401,-0.22441 0.0512,-0.0986 0.10499,-0.19552 0.17158,-0.2841 0.0858,-0.11025 0.20242,-0.1969 0.31986,-0.28086 0.0673,-0.0471 0.13642,-0.0918 0.20764,-0.13506 0.0544,-0.0564 0.10703,-0.11376 0.16034,-0.1708 0.0545,-0.0473 0.10086,-0.0989 0.14483,-0.15408 0.0477,-0.055 0.0891,-0.11622 0.13661,-0.17156 0.0522,-0.0587 0.11737,-0.10566 0.18531,-0.15064 0.0682,-0.0364 0.12175,-0.0853 0.17824,-0.13254 0.0918,-0.0758 0.1928,-0.14413 0.29626,-0.20908 0.0186,-0.0114 0.0376,-0.0217 0.0558,-0.0335 0.0157,-0.0188 0.0339,-0.0368 0.0509,-0.0548 0.0666,-0.0579 0.12268,-0.12356 0.18661,-0.1837 0.0626,-0.0596 0.13501,-0.11145 0.20823,-0.16159 0.0777,-0.0479 0.15584,-0.0939 0.22561,-0.14922 0.0841,-0.07 0.15647,-0.1495 0.2374,-0.22226 0.0576,-0.0436 0.10743,-0.0907 0.15384,-0.14303 0.0534,-0.0585 0.10774,-0.11783 0.16482,-0.17342 0.0201,-0.0196 0.0414,-0.0355 0.063,-0.0496 0.0589,-0.0383 0.12314,-0.056 0.18549,-0.0581 0.0691,-0.0669 0.1324,-0.13809 0.20936,-0.19844 0.0765,-0.0638 0.16559,-0.11478 0.25531,-0.16591 0.0939,-0.0581 0.18663,-0.11818 0.2643,-0.1911 0.11724,-0.0868 0.23852,-0.16906 0.37361,-0.23851 0.10329,-0.0582 0.20643,-0.11532 0.3079,-0.17543 0.0942,-0.055 0.18655,-0.11224 0.27626,-0.17161 0.12815,-0.0844 0.2539,-0.17121 0.37685,-0.26056 0.11266,-0.0746 0.23258,-0.14197 0.35181,-0.21013 l 0.36627,-0.20622 0.42101,-0.23705 0.34345,-0.19336 c 0.10926,-0.0615 0.21934,-0.12346 0.32861,-0.18501 0.12299,-0.0693 0.23789,-0.146 0.36093,-0.21528 0.11024,-0.0622 0.22098,-0.12382 0.3309,-0.1863 0.12877,-0.0746 0.25822,-0.14848 0.38501,-0.22504 0.11125,-0.0678 0.22343,-0.13507 0.32825,-0.20892 0.10382,-0.0758 0.19913,-0.15989 0.31538,-0.22389 0.10468,-0.0611 0.20784,-0.12423 0.30819,-0.1896 0.10779,-0.0721 0.2108,-0.14714 0.31426,-0.22325 0.13747,-0.0908 0.29225,-0.16436 0.44206,-0.2427 0.14612,-0.075 0.29596,-0.14642 0.44987,-0.21296 0.13882,-0.0601 0.27389,-0.12305 0.3962,-0.20089 0.11937,-0.0672 0.24154,-0.13184 0.36348,-0.19639 0.11266,-0.0614 0.22696,-0.12158 0.34446,-0.17784 0.10719,-0.051 0.21638,-0.0993 0.33539,-0.13644 0.10488,-0.035 0.19568,-0.0858 0.29707,-0.12496 0.0748,-0.0257 0.1571,-0.0414 0.2298,-0.0689 0.10965,-0.0421 0.2238,-0.0803 0.35089,-0.0988 0.13115,-0.0156 0.2664,-0.0243 0.4069,-0.0216 0.0569,1.6e-4 0.11321,-0.001 0.16899,-0.004 0.0149,-0.009 0.025,-0.0225 0.0404,-0.0309 0.024,-0.014 0.0498,-0.028 0.0743,-0.0417 0.0212,-0.0121 0.0417,-0.0234 0.0627,-0.0354 0.0201,-0.0113 0.0402,-0.0228 0.0605,-0.034 l 0.0741,-0.0418 c 0.0311,-0.0195 0.0645,-0.0357 0.10478,-0.0448 0.0258,-0.005 0.0473,-0.015 0.0706,-0.0237 0.0222,-0.0106 0.0498,-0.017 0.0716,-0.0282 0.031,-0.0227 0.0706,-0.0355 0.11173,-0.0468 0.0403,-0.0118 0.0855,-0.017 0.12591,-0.0286 0.0427,-0.0111 0.0856,-0.0216 0.13065,-0.0292 0.0426,-0.005 0.0832,-0.0143 0.12528,-0.0202 0.0384,-0.007 0.0811,-0.007 0.12115,-0.0118 0.03,-0.01 0.0613,-0.0156 0.0945,-0.021 0.0314,-0.006 0.06,-0.0147 0.091,-0.021 0.034,-0.006 0.0669,-0.0132 0.10309,-0.0158 0.0108,-6.1e-4 0.0219,-0.002 0.033,-0.003 0.0252,-0.007 0.0498,-0.014 0.0742,-0.0218 0.0596,-0.0253 0.12134,-0.0483 0.18867,-0.0639 0.0615,-0.0159 0.12036,-0.0373 0.19022,-0.0407 0.0631,-0.004 0.12078,-0.0166 0.18453,-0.0193 0.0643,-0.003 0.12671,-0.01 0.18949,-0.0161 0.0609,-0.006 0.12006,-0.0133 0.18102,-0.0193 0.0509,-0.003 0.10382,-0.006 0.15042,-0.0162 0.0505,-0.0115 0.10426,-0.0181 0.15546,-0.0291 0.006,-5.2e-4 0.0123,-0.001 0.0176,-0.003 0.0258,-0.0104 0.0549,-0.0188 0.0782,-0.032 0.0385,-0.0196 0.0776,-0.0387 0.1157,-0.059 0.0313,-0.017 0.064,-0.032 0.095,-0.0494 0.0242,-0.0136 0.0489,-0.0275 0.073,-0.0411 0.0292,-0.0184 0.0589,-0.034 0.0966,-0.0423 0.0201,-0.002 0.0396,-0.006 0.0559,-0.0133 0.024,-0.0113 0.0495,-0.0207 0.0762,-0.0288 0.0316,-0.004 0.0617,-0.008 0.094,-0.0106 0.0185,-10e-4 0.0331,-0.005 0.0491,-0.009 0.0275,-0.0104 0.0539,-0.022 0.0858,-0.0261 0.0308,-0.008 0.0655,-0.0101 0.0985,-0.0152 0.0319,-0.01 0.0688,-0.0118 0.10298,-0.0177 0.008,-6.9e-4 0.0108,-6e-4 0.0127,-6.9e-4 l 7.9e-4,-3e-4 c 7.8e-4,-2.8e-4 0.003,1.8e-4 0.006,-10e-4 0.0571,-0.0144 0.10909,-0.0127 0.15509,10e-4 0.0185,-0.008 0.0382,-0.0153 0.0577,-0.0223 0.0391,-0.0149 0.0838,-0.0237 0.12288,-0.0389 0.044,-0.0154 0.0903,-0.0275 0.14371,-0.0285 0.0364,-10e-4 0.0728,-0.002 0.10857,-0.005 0.0445,-0.006 0.0911,-0.011 0.13621,-0.0163 0.0416,-0.003 0.0829,-0.006 0.12231,-0.0125 0.0572,-0.007 0.11729,-0.01 0.17528,-0.0161 0.0494,-0.003 0.0957,-0.009 0.14079,-0.0188 0.0581,-0.008 0.11919,-0.0113 0.18014,-0.0148 0.0585,-0.003 0.11719,-0.006 0.17442,-0.0116 0.0549,-0.005 0.11217,-0.007 0.16462,-0.0161 0.0597,-0.009 0.12154,-0.0156 0.18059,-0.0252 0.0563,-0.008 0.11389,-0.0133 0.16631,-0.0271 0.0641,-0.0173 0.12434,-0.0395 0.18796,-0.0574 0.0516,-0.0112 0.10755,-0.0151 0.16324,-0.0194 0.0472,-0.004 0.0919,-0.0113 0.13721,-0.0189 0.0502,-0.009 0.0964,-0.0235 0.14836,-0.0292 0.0522,-0.006 0.10297,-0.0151 0.15883,-0.0149 0.0516,-0.003 0.10382,-0.006 0.15564,-0.009 0.0494,-0.002 0.0959,-0.01 0.14203,-0.0175 0.0455,-0.007 0.091,-0.0154 0.13834,-0.0195 0.0444,-0.01 0.087,-0.0198 0.12796,-0.0338 0.052,-0.016 0.0927,-0.046 0.14759,-0.059 0.0462,-0.014 0.0948,-0.0242 0.14066,-0.0389 0.0445,-0.0114 0.0906,-0.0202 0.1352,-0.0318 0.0458,-0.0101 0.0892,-0.0233 0.13381,-0.035 0.0478,-0.009 0.0962,-0.0179 0.1451,-0.0253 0.0467,-0.005 0.0946,-0.007 0.14263,-0.01 0.0416,-0.005 0.0849,-0.008 0.12834,-0.01 0.0439,-0.006 0.0881,-0.0111 0.13138,-0.0175 0.0408,-0.003 0.0803,-0.009 0.12113,-0.0118 0.0457,-0.007 0.0944,-0.0106 0.13967,-0.0182 0.0517,-0.009 0.0997,-0.0212 0.15726,-0.02 0.0455,-0.003 0.0922,-0.006 0.13662,-0.0104 0.0556,-0.009 0.11067,-0.0199 0.16485,-0.0304 0.0633,-0.0102 0.12627,-0.0193 0.19521,-0.0193 0.025,-3e-4 0.0494,-2.7e-4 0.0746,3.7e-4 0.153,-0.029 0.30673,-0.0563 0.46611,-0.0751 0.16908,-0.02 0.33855,-0.0387 0.50876,-0.0567 0.12552,-0.0136 0.24885,-0.0316 0.37592,-0.0424 0.11548,-0.0117 0.24326,0.002 0.36622,0.007 0.13316,0.005 0.26772,0.0144 0.40289,0.025 0.16037,0.014 0.31927,0.0272 0.47688,0.0337 0.13211,0.006 0.26509,0.0109 0.39909,0.0211 0.024,-0.008 0.05,-0.0134 0.0794,-0.0185 0.11709,-0.0197 0.23229,-0.0427 0.35246,-0.0574 0.0989,-0.008 0.1921,-0.0236 0.29019,-0.0325 0.0951,-0.0163 0.19675,-0.0216 0.30177,-0.0188 0.11723,0.008 0.23749,0.0254 0.35355,0.0306 0.11753,0.007 0.2372,0.0233 0.35624,0.0351 0.11502,0.0161 0.22571,0.0184 0.33935,0.0305 0.10683,0.007 0.21662,0.0201 0.32527,0.0325 0.10499,0.0111 0.20537,0.0146 0.31222,0.0318 0.0827,0.0167 0.16389,0.0231 0.24487,0.0334 0.0897,0.008 0.18073,0.0239 0.27238,0.038 0.0654,0.008 0.13383,0.0199 0.19665,0.0202 0.0852,-0.009 0.18034,-10e-4 0.27399,0.009 0.0757,0.009 0.14318,10e-6 0.21551,10e-4 0.0327,0.003 0.0654,0.006 0.0976,0.007 0.0117,-0.0337 0.0334,-0.0649 0.0721,-0.089 0.0512,-0.033 0.12881,-0.0548 0.23527,-0.0579 0.0449,-10e-4 0.0257,-0.002 0.0545,-3.9e-4 0.0777,-0.0103 0.15618,-0.022 0.23588,-0.0301 0.48618,-0.0483 0.76334,0.36429 0.43916,0.50015 -0.0322,0.16842 -0.0822,0.34076 0.10976,0.2807 -0.0425,0.0156 -0.0854,0.0292 -0.13365,0.037 -0.0631,0.009 -0.0754,0.005 -0.12478,0.028 -0.0566,0.0195 -0.11337,0.0376 -0.17409,0.0517 l -0.19741,0.11113 c -0.035,0.0397 -0.0734,0.0762 -0.1146,0.11081 -0.0543,0.0338 -0.0985,0.0735 -0.13893,0.11851 -0.0457,0.0362 -0.0741,0.0854 -0.10731,0.13094 -0.0137,0.0176 -0.0269,0.0344 -0.0427,0.0503 -0.0151,0.0218 -0.0348,0.0407 -0.0553,0.0592 -0.01,0.007 -0.018,0.0142 -0.0269,0.0213 -0.0254,0.0442 -0.0766,0.0721 -0.10372,0.11475 -0.0271,0.0482 -0.0743,0.0818 -0.1016,0.12962 -0.0268,0.0611 -0.0838,0.10066 -0.12363,0.15223 -0.0335,0.048 -0.0731,0.0918 -0.11552,0.13343 -0.0341,0.0275 -0.0539,0.0668 -0.081,0.1 -0.002,0.004 -0.01,0.0138 -0.0205,0.0259 0.0172,0.14664 -0.0294,0.25876 -0.13076,0.34576 -0.0183,0.0398 -0.0377,0.0789 -0.0608,0.11582 0.0135,0.0655 0.005,0.1387 -0.033,0.21603 -0.0391,0.0768 -0.0836,0.1502 -0.13339,0.22011 -0.0366,0.0566 -0.0672,0.11635 -0.0984,0.17626 -0.0354,0.0543 -0.0718,0.10745 -0.10759,0.16139 -0.0105,0.0471 -0.0434,0.083 -0.0602,0.12662 -0.018,0.0389 -0.0299,0.0821 -0.0407,0.12527 -0.0159,0.056 -0.0305,0.11343 -0.0504,0.16742 -0.0109,0.0444 -0.0223,0.0901 -0.0349,0.13441 -0.0118,0.0423 -0.0302,0.0939 -0.0467,0.14936 -0.0169,0.0613 -0.0359,0.12114 -0.0543,0.18163 -0.0201,0.0426 -0.0276,0.091 -0.0421,0.13633 -0.0125,0.0558 -0.0348,0.10668 -0.0644,0.15312 l 0.002,10e-4 -1.6e-4,10e-4 c -0.003,0.0166 -0.0358,0.0817 -0.0398,0.0931 -0.01,0.0437 -0.0589,0.0886 -0.0665,0.11826 -0.0304,0.0644 -0.0696,0.12432 -0.11468,0.17946 -0.0371,0.0574 -0.0706,0.1162 -0.1092,0.17239 -0.0244,0.0296 -0.047,0.0608 -0.0696,0.0916 0.0368,0.0423 0.0752,0.0834 0.11351,0.12546 0.0771,0.0761 0.1447,0.15458 0.20739,0.23579 0.5417,-0.56973 1.08346,-1.13914 1.62537,-1.70886 0.58165,-0.61128 1.16327,-1.22301 1.74487,-1.83457 -0.0649,-0.10819 -0.0649,-0.24721 0.0535,-0.37062 0.0739,-0.0768 0.12764,-0.16736 0.18538,-0.25552 0.0679,-0.11609 0.11836,-0.24162 0.17843,-0.3623 0.0594,-0.10063 0.12887,-0.19546 0.20487,-0.28452 0.0549,-0.0608 0.0925,-0.13191 0.11742,-0.21112 0.0364,-0.10175 0.0581,-0.21085 0.0941,-0.31284 0.0386,-0.10897 0.0978,-0.20514 0.16493,-0.29637 0.0927,-0.13917 0.19379,-0.27243 0.30124,-0.40129 0.01,-0.0122 0.0172,-0.0216 0.023,-0.0289 -0.13711,-0.24407 -0.34091,-0.47206 -0.5847,-0.65998 -0.0858,0.036 -0.23819,0.0183 -0.44394,-0.0905 -0.0416,-0.022 -0.084,-0.0362 -0.12482,-0.0606 -0.0532,-0.0295 -0.0946,-0.0451 -0.14809,-0.0715 -0.078,-0.0378 -0.15502,-0.0811 -0.2338,-0.11616 -0.0576,-0.0305 -0.11668,-0.0556 -0.17564,-0.0805 l -0.009,-0.003 c -0.005,-0.002 -0.01,-0.004 -0.0206,-0.009 -0.0391,-0.0154 -0.079,-0.0314 -0.11802,-0.0484 l -0.002,-10e-4 -7.8e-4,3e-4 c -0.004,-0.002 -0.01,-0.004 -0.0147,-0.006 -0.0873,-0.0387 -0.1744,-0.0815 -0.26043,-0.12532 -0.0881,-0.0537 -0.18227,-0.0964 -0.26616,-0.15841 -0.0694,-0.0501 -0.14284,-0.0964 -0.21211,-0.14654 -3.27486,-1.31345 -6.54896,-2.62654 -9.82377,-3.93963 z m 6.31464,4.1586 c 0.009,0.0138 0.0144,0.0273 0.0204,0.0409 0.0128,-4e-5 0.0262,-5e-5 0.0391,10e-5 l 7.9e-4,-2.8e-4 0.002,10e-4 7.8e-4,-3e-4 7.9e-4,-2.9e-4 0.002,10e-4 8e-4,-2.9e-4 c 0.0148,10e-4 0.0292,10e-4 0.044,10e-4 0.01,-1.6e-4 0.0208,-10e-4 0.0294,-0.003 -0.0469,-0.0139 -0.0931,-0.0266 -0.14002,-0.04 z m 1.20384,2.37436 c 0.0146,0.008 0.0286,0.0156 0.0428,0.0241 8.5e-4,-0.008 0.004,-0.0142 0.009,-0.0207 -0.016,-0.001 -0.0319,-0.002 -0.0476,-0.003 l -0.003,-7e-4 z m 0.0577,0.6202 c 0.0146,0.009 0.0235,0.0156 0.0263,0.0195 0.008,10e-4 0.0113,0.003 0.0171,0.004 -0.0154,-0.0109 -0.0271,-0.0165 -0.0408,-0.0255 l -1.7e-4,10e-4 z m 0.63368,-0.0647 c 0.0169,0.0165 0.0341,0.0332 0.0518,0.0494 -0.008,-0.0137 -0.0137,-0.0273 -0.0216,-0.0421 -0.009,-0.002 -0.0196,-0.006 -0.0292,-0.007 z m 0.86611,-0.39698 c 0.0111,0.007 0.0204,0.0143 0.0312,0.0206 0.008,-0.006 0.0145,-0.0103 0.0214,-0.0161 -0.0177,-0.002 -0.0353,-0.004 -0.0524,-0.005 z m -1.95584,5.07797 c 8.6e-4,0.0112 0.002,0.0215 0.003,0.0324 0.004,0.007 0.01,0.0147 0.0144,0.0221 0.005,-0.008 0.009,-0.0177 0.004,-0.0286 8.6e-4,-0.005 8.6e-4,-0.01 0.003,-0.0152 -0.009,-0.003 -0.0162,-0.007 -0.0244,-0.0105 z m -2.04502,1.28839 c -0.004,0.0169 -0.008,0.0406 -0.006,0.0498 l -1.8e-4,10e-4 0.002,10e-4 c 0.0141,-0.0127 0.0136,-0.0314 0.004,-0.0531 z"
       inkscape:transform-center-x="-1.0663538"
       inkscape:transform-center-y="0.90164974" /><path
       style="opacity:1;fill:#4d4d4d;fill-opacity:0.65625;stroke-width:1.36991"
       d="m -779.27398,762.2974 411.09427,0.80884 271.240891,-1.02392"
       id="path7"
       inkscape:transform-center-x="0.32394265"
       inkscape:transform-center-y="0.0074808181" /><path
       id="path6-6"
       style="fill:#ac3b61;fill-opacity:1;fill-rule:nonzero;stroke:none;stroke-width:0.00315536"
       d="m -325.30157,581.10816 -0.002,0.002 -0.002,0.002 -0.002,0.002 -0.002,0.002 -0.002,0.002 -0.002,0.002 -0.002,0.002 -0.002,0.002 -0.024,0.002 c 0.009,0.0529 0.0164,0.10368 0.0191,0.15731 1.9e-4,0.0157 8.1e-4,0.0306 5.7e-4,0.0464 l 0.002,-5e-5 0.002,-3e-5 0.002,-4e-5 0.002,-5e-5 c 0.004,1.8e-4 0.0104,8.9e-4 0.0137,0.002 l 0.002,-4e-5 0.002,-4e-5 0.002,-4e-5 0.002,-4e-5 2e-5,0.002 0.002,-5e-5 3e-5,0.002 0.002,-4e-5 4e-5,0.002 0.002,-4e-5 2e-5,0.002 4e-5,0.002 2e-5,0.002 3e-5,0.002 -0.002,0.002 1e-5,0.002 c -0.004,0.0121 -0.0192,0.026 -0.0339,0.0333 -0.002,0.021 -0.002,0.0417 -0.004,0.0627 0.007,0.0145 0.0156,0.0298 0.0262,0.0458 0.0192,0.0397 0.0444,0.0746 0.0614,0.1146 0.0193,0.0382 0.0427,0.0722 0.0631,0.10985 0.0231,0.0414 0.0513,0.0773 0.0718,0.12133 0.009,0.0289 0.0336,0.0477 0.0439,0.0755 0.0156,0.023 0.0355,0.0571 0.0525,0.0847 0.024,0.0362 0.0479,0.073 0.0683,0.1121 0.0147,0.029 0.0461,0.0537 0.0662,0.0821 0.0382,0.0468 0.0779,0.0907 0.11662,0.13656 0.0434,0.0473 0.0884,0.0938 0.13211,0.14085 0.041,0.0405 0.0816,0.077 0.12322,0.11555 0.0413,0.0417 0.0823,0.0846 0.12168,0.12948 0.0457,0.0493 0.094,0.0951 0.14072,0.14297 0.0388,0.0464 0.0728,0.0993 0.11327,0.14359 0.0474,0.05 0.096,0.098 0.14083,0.15225 0.0373,0.0418 0.0734,0.085 0.11302,0.12271 0.0431,0.0442 0.085,0.0894 0.13026,0.12929 0.0658,0.0591 0.13485,0.11163 0.19773,0.17648 0.0642,0.0647 0.12963,0.12687 0.19448,0.19047 0.0525,0.0527 0.10669,0.10189 0.16138,0.14946 0.0614,0.0499 0.12127,0.10415 0.18036,0.15829 0.0313,0.0366 0.0654,0.0657 0.099,0.0998 0.034,0.0329 0.0671,0.0688 0.10075,0.10213 0.0389,0.0366 0.0791,0.0697 0.1213,0.0993 0.0478,0.0483 0.088,0.10332 0.12726,0.16415 0.0179,0.0237 0.0348,0.0488 0.0523,0.073 0.0735,0.0392 0.14643,0.0812 0.21771,0.12732 0.0349,0.0251 0.0501,0.039 0.059,0.0474 l 0.002,-4e-5 c 0.004,-2.6e-4 0.013,-0.001 0.0274,0.004 0.11983,0.0447 0.2288,0.12577 0.3354,0.21049 0.0369,0.0305 0.0963,0.0495 0.17627,0.1051 0.0471,0.0356 0.0934,0.061 0.1627,0.11697 0.0165,-7.1e-4 0.0358,0.002 0.0585,0.0126 0.033,0.0145 0.0633,0.0349 0.0967,0.0536 0.0308,0.0189 0.0598,0.0398 0.09,0.0606 0.0258,0.0169 0.051,0.0353 0.0745,0.0563 0.0184,0.0153 0.0387,0.0317 0.0555,0.0474 0.0161,0.0122 0.0318,0.0267 0.0486,0.0407 0.0134,0.0128 0.0299,0.0276 0.0433,0.0407 0.0158,0.0119 0.0332,0.024 0.0467,0.036 0.0192,0.0189 0.0388,0.0365 0.0591,0.0544 0.0259,0.0249 0.0512,0.0464 0.0781,0.0701 0.0264,0.0228 0.0529,0.0455 0.0797,0.0678 0.0258,0.0239 0.0512,0.0469 0.0781,0.0701 0.0315,0.0264 0.0618,0.0547 0.0919,0.0838 0.0218,0.0226 0.046,0.0418 0.0694,0.061 0.0232,0.0197 0.044,0.0382 0.0677,0.0588 0.0188,0.0163 0.0405,0.0325 0.0572,0.0498 0.0121,0.01 0.0212,0.0132 0.0346,0.0201 l 0.002,-4e-5 c 0.007,0.004 0.0309,0.0241 0.0382,0.0293 l 0.002,-5e-5 c 0.0183,0.0107 0.0327,0.0276 0.0519,0.0382 0.0147,0.0127 0.0317,0.0182 0.0484,0.0267 0.019,0.01 0.0352,0.0213 0.0553,0.0312 0.0424,0.0215 0.0513,0.0463 0.0457,0.0917 0.01,0.0129 0.0178,0.0291 0.0281,0.0458 0.0338,0.0499 0.0247,0.0765 0.0155,0.14115 -0.0173,0.0369 -0.0438,0.0493 -0.0731,0.055 l -0.002,3e-5 3e-5,0.002 c -0.006,0.004 -0.0233,0.01 -0.0273,0.0125 -0.0227,0.0135 -0.0487,0.0176 -0.0717,0.0272 -0.0301,0.0126 -0.0625,0.0185 -0.0923,0.023 -0.0254,0.004 -0.0505,0.007 -0.0771,0.008 -0.0325,0.002 -0.0646,4.3e-4 -0.0978,-0.005 -0.0329,-0.002 -0.063,-0.0127 -0.0963,-0.0188 -0.0362,-0.005 -0.0734,-0.008 -0.1099,-0.01 -0.0368,0.001 -0.0734,-0.006 -0.10992,-0.0119 -0.0309,-0.004 -0.0629,-0.005 -0.0927,-0.005 -0.0395,-2.9e-4 -0.0793,-0.005 -0.11854,-0.0135 -0.0281,-0.006 -0.055,-0.016 -0.0827,-0.0259 -0.01,2.8e-4 -0.0205,4.1e-4 -0.0309,6.9e-4 -0.0352,8.9e-4 -0.0695,0.001 -0.10462,0.002 l -0.10631,0.002 -0.096,0.002 -0.0875,0.002 c -0.0345,10e-4 -0.068,-0.006 -0.10142,-0.0163 -0.033,-0.0146 -0.0649,-0.0312 -0.0984,-0.0488 -0.0171,-0.0107 -0.0352,-0.0207 -0.0519,-0.0266 -0.017,-0.004 -0.0332,-0.007 -0.0499,-0.0128 -0.0266,-0.006 -0.0508,-0.0203 -0.0742,-0.0378 -8.1e-4,-0.0132 -0.003,-0.0263 -0.006,-0.0393 -0.084,-0.0293 -0.16765,-0.0624 -0.24998,-0.10106 -0.0588,-0.0279 -0.12061,-0.042 -0.18243,-0.0492 -0.0822,-0.008 -0.16311,-0.01 -0.24544,-0.0107 -0.095,-2.4e-4 -0.18982,7.3e-4 -0.28474,0.001 -0.12317,0.0123 -0.24464,-0.0107 -0.36428,-0.0498 -0.0497,-0.0204 -0.0996,-0.0341 -0.15143,-0.0384 -0.0921,-2.8e-4 -0.18181,-0.0151 -0.26991,-0.0473 l -37.13347,0.83895 c -0.085,0.11508 -0.21479,0.21342 -0.39462,0.27106 -0.1111,0.0356 -0.21692,0.0958 -0.3259,0.14191 -0.0764,0.0216 -0.14586,0.0598 -0.2095,0.12066 -0.0934,0.0974 -0.19751,0.17452 -0.29876,0.25498 -0.0349,0.0258 -0.0685,0.0534 -0.10193,0.0812 0.0353,0.0591 0.0689,0.11961 0.10344,0.18093 0.0459,0.085 0.0926,0.18976 0.12308,0.24312 0.0369,0.0564 0.0744,0.11151 0.11017,0.16917 0.0901,-0.007 0.18087,-0.0107 0.27084,-0.0156 0.18617,-0.01 0.37109,-0.012 0.5573,-0.0173 0.0829,-0.0521 0.18615,-0.09 0.30917,-0.10676 0.14604,-0.0198 0.29219,-0.0191 0.43906,-0.007 0.12415,0.0119 0.24947,0.032 0.3729,0.0542 0.13583,0.0239 0.26959,0.0376 0.40684,0.0233 0.13404,-0.004 0.26723,-0.006 0.40131,-0.01 0.0995,-0.002 0.19918,-0.004 0.29836,-0.01 0.10914,-0.006 0.21827,-0.0133 0.32733,-0.0259 0.10339,-0.0143 0.20503,-0.0358 0.30622,-0.0672 0.12241,-0.031 0.24583,-0.0443 0.37003,-0.0407 0.0836,-0.002 0.16641,-0.004 0.25037,-0.006 0.11635,-0.002 0.23367,-0.007 0.34982,-0.0107 0.11983,-0.002 0.23864,-0.005 0.35843,-0.008 0.1002,-0.004 0.20157,-0.008 0.30167,-0.0186 0.0971,-0.0119 0.19302,-0.0232 0.28935,-0.046 0.1397,-0.0365 0.27928,-0.0819 0.42281,-0.0721 0.14469,-0.004 0.28919,-0.007 0.43389,-0.01 0.15905,-0.004 0.31777,-0.008 0.47674,-0.0107 0.13996,-0.002 0.2801,-0.007 0.42021,-0.005 0.16401,10e-4 0.32704,0.006 0.49083,0.0168 0.19863,0.0133 0.39812,0.0316 0.59599,0.0608 0.17114,0.0203 0.34288,-0.0107 0.51457,-0.005 0.18299,-0.005 0.36594,-0.007 0.54878,-0.0123 0.17262,-0.005 0.34529,-0.0119 0.51782,-0.0189 0.20113,-0.008 0.40238,-0.0226 0.60365,-0.0137 0.15187,0.0217 0.30692,-0.0107 0.4597,-0.004 l 0.44588,-0.01 0.44245,-0.01 0.52649,-0.0119 0.56249,-0.0127 c 0.15444,-0.004 0.30872,-0.007 0.46304,-0.0107 0.17387,-0.004 0.34916,-0.007 0.52305,-0.0119 0.17825,-0.005 0.35515,-0.007 0.53335,-0.0121 0.16405,-0.005 0.3282,-0.0107 0.49206,-0.0207 0.11874,-0.008 0.23878,-0.0148 0.35631,-0.0405 0.15567,-0.0365 0.30992,-0.0898 0.46897,-0.0848 0.19176,-0.005 0.38441,-0.008 0.57622,-0.0131 0.20728,-0.005 0.41374,-0.01 0.62081,-0.014 0.19695,-0.005 0.39488,-0.008 0.59162,-0.0157 0.16873,-0.006 0.33725,-0.0135 0.50568,-0.0299 0.19198,-0.0184 0.38329,-0.0409 0.57369,-0.0779 0.17673,-0.0306 0.35301,-0.042 0.53128,-0.0398 l 0.48878,-0.0107 0.4476,-0.0107 c 0.15444,-0.004 0.30839,-0.007 0.46302,-0.0107 0.19185,-0.005 0.38441,-0.01 0.57622,-0.0131 0.22285,-0.005 0.44618,-0.007 0.66889,-0.0107 0.27266,-0.002 0.54392,-0.006 0.81654,9e-5 0.23434,0.007 0.46917,0.0214 0.70229,0.0559 0.18041,0.0242 0.361,0.0143 0.54219,0.0107 0.21229,-0.002 0.42424,-0.006 0.63642,-4.9e-4 0.21382,0.006 0.4276,0.0162 0.64044,0.0481 0.19249,0.0253 0.38504,0.0373 0.57837,0.0217 0.19902,-0.005 0.39769,-0.01 0.5968,-0.0135 0.22782,-0.005 0.45454,-0.0107 0.68256,-0.0131 0.21955,-0.004 0.43917,-0.0107 0.65864,-0.008 0.17263,0.002 0.34679,0.002 0.51844,0.0323 0.10451,0.0211 0.21148,0.0451 0.31161,0.0904 0.16274,0.0197 0.32492,0.0467 0.4833,0.10273 0.0157,0.006 0.0307,0.01 0.0464,0.0152 0.0273,-10e-4 0.0549,-0.004 0.0822,-0.005 0.0548,-0.002 0.10985,-0.005 0.16461,-0.006 0.0544,-10e-4 0.1085,-0.002 0.16293,-0.004 0.06,-0.002 0.12,-0.002 0.18011,6.9e-4 0.071,0.002 0.14343,0.002 0.21446,0.002 0.0863,-7.7e-4 0.1727,-0.001 0.25898,-0.004 0.0873,-10e-4 0.17372,-0.004 0.26068,-0.006 0.0876,-0.002 0.17477,-0.004 0.26239,-0.006 0.0992,-0.002 0.19916,-0.005 0.29839,-0.007 l 0.30526,-0.007 0.28639,-0.006 0.28125,-0.006 c 0.0809,-9.3e-4 0.16086,-10e-4 0.24175,-0.0107 0.0702,-0.007 0.1421,-0.0183 0.21237,-0.028 0.0693,-0.01 0.13769,-0.0126 0.20736,-0.0165 0.0716,-0.004 0.14403,-0.006 0.21604,-0.007 0.078,-0.002 0.15697,-0.004 0.23494,-0.005 0.064,-0.002 0.12804,-0.002 0.19205,-0.007 0.0574,-0.005 0.114,-0.01 0.17138,-0.0134 0.0472,-0.004 0.0935,-0.005 0.1406,-0.006 0.0464,-10e-4 0.0924,-0.005 0.13888,-0.006 0.0156,-4.9e-4 0.0294,-9.6e-4 0.0412,10e-4 l 0.002,-3e-5 c 0.12991,-0.005 0.26113,-0.008 0.39097,-0.0107 0.14554,-0.014 0.29432,0.0179 0.43894,-0.017 0.15231,-0.0325 0.30352,-0.0651 0.45695,-0.0869 0.13125,-0.0187 0.2638,-0.027 0.39584,-0.0344 0.11385,-0.006 0.22736,-0.0107 0.34117,-0.0149 0.11461,-0.004 0.23022,-0.005 0.34471,-0.008 0.0933,-0.002 0.18661,-0.005 0.27953,-0.006 0.10321,-0.002 0.20515,-0.005 0.30869,-0.007 l 0.19378,-0.005 c 0.013,-0.0371 0.0483,-0.0683 0.1055,-0.0696 l 0.10118,-0.002 0.13376,-0.004 0.12519,-0.002 0.11662,-0.002 0.0995,-0.002 0.10118,-0.002 0.0755,-0.001 0.0703,-10e-4 0.0806,-0.002 0.079,-0.002 c 0.0283,-10e-4 0.0575,-0.002 0.0858,0.002 0.11782,-0.0291 0.23695,-0.0392 0.35618,-0.0499 0.0892,-0.008 0.1799,-0.0107 0.26914,-0.0156 0.0285,-10e-4 0.0557,-0.002 0.0823,5.3e-4 0.006,-0.0367 0.0349,-0.0702 0.083,-0.0784 0.008,-10e-4 0.0181,-7.1e-4 0.0273,-6.3e-4 0.0382,3.3e-4 0.0755,0.006 0.11333,0.01 0.0409,0.002 0.0814,0.002 0.12191,0.01 0.0293,0.005 0.0593,0.01 0.0893,0.0119 0.0279,0.001 0.0575,-0.002 0.084,4.9e-4 0.0256,-10e-5 0.0489,-10e-4 0.0755,-10e-4 0.0329,0.002 0.0647,0.0107 0.098,0.0186 0.031,0.007 0.0613,0.0183 0.0912,0.0258 0.0249,0.006 0.049,0.006 0.0756,0.008 0.0385,0.006 0.078,0.0131 0.11684,0.0159 0.0315,0.002 0.0611,0.002 0.0944,0.002 0.0252,2.4e-4 0.049,0.004 0.0755,0.004 0.0325,-5.7e-4 0.0646,-10e-4 0.0978,-0.002 0.0372,-8.2e-4 0.0743,-0.001 0.11147,-0.002 0.0392,-8.8e-4 0.0778,-10e-4 0.11661,-0.002 l 0.10805,-0.002 0.1149,-0.002 c 0.0305,10e-4 0.0629,0.007 0.0927,0.01 0.0378,0.002 0.0756,0.0107 0.11336,0.0119 0.0375,-5e-5 0.0739,-0.002 0.11147,-0.002 0.0344,-6.7e-4 0.0688,-10e-4 0.10289,-0.002 0.0331,-7.2e-4 0.0663,-10e-4 0.0995,-0.002 l 0.084,-0.002 0.0703,-0.001 0.0806,-0.002 c 0.002,-0.008 0.004,-0.0137 0.007,-0.021 l 0.002,-0.0139 -2e-5,-0.002 -4e-5,-0.002 0.002,-0.002 0.002,-0.002 0.005,-0.007 0.002,-0.002 -2e-5,-0.002 0.002,-4e-5 -3e-5,-0.002 -3e-5,-0.002 0.002,-5e-5 0.002,-0.002 0.002,-0.002 0.002,-4e-5 0.002,-0.002 0.002,-3e-5 0.007,-1.7e-4 0.0103,-2.3e-4 0.007,-0.002 0.0103,-2.3e-4 0.0103,-2.3e-4 0.002,-4e-5 0.002,-4e-5 0.002,-4e-5 c 8.2e-4,4e-5 0.004,-7e-5 0.005,-1.2e-4 l 0.002,-4e-5 -3e-5,-0.002 c 0.007,-0.002 0.027,-0.007 0.0291,-0.008 0.008,-0.002 0.035,-0.007 0.0428,-0.008 l 0.002,-3e-5 -2e-5,-0.002 c 0.0156,-0.005 0.0246,-0.0107 0.0307,-0.0146 0.0202,-0.0107 0.0433,-0.0192 0.0632,-0.0246 0.0183,-0.004 0.0349,-0.005 0.0548,-0.006 0.0173,-9.6e-4 0.0349,-6.6e-4 0.0514,-10e-4 0.0189,-5.3e-4 0.0366,-8.2e-4 0.0566,-10e-4 0.009,-2.2e-4 0.0176,-8.2e-4 0.0258,0.002 0.01,-0.002 0.0209,-0.005 0.0325,-0.006 l 0.0274,-6.2e-4 0.0686,-10e-4 0.0788,-10e-4 0.009,-1.9e-4 c 0.0203,-0.006 0.0413,-0.0128 0.0615,-0.0153 0.009,-0.001 0.0166,-0.001 0.0258,-5.8e-4 0.0273,0.002 0.0574,0.007 0.0825,0.0144 0.002,-8e-5 0.004,-5e-5 0.005,-1.1e-4 0.0138,-5.5e-4 0.0284,-10e-4 0.0429,-9.8e-4 0.0249,0.002 0.0523,0.006 0.0757,0.0122 0.018,0.006 0.0351,0.0138 0.0518,0.0197 0.0261,0.0119 0.0489,0.0287 0.0659,0.0589 l 4e-5,0.002 0.002,-5e-5 0.002,0.002 c 0.0213,0.0175 0.0322,0.0444 0.0318,0.0735 0.003,0.0107 0.004,0.0229 0.007,0.0347 8.1e-4,0.0191 0.003,0.0387 0.004,0.0578 0.004,0.0356 8.1e-4,0.0716 -0.0142,0.10236 l 10e-6,0.002 c -8e-4,0.005 -0.004,0.0146 -0.007,0.0233 -0.007,0.0135 -0.0171,0.0258 -0.0236,0.0376 -0.01,0.0151 -0.0189,0.0289 -0.0286,0.0446 -0.0133,0.0213 -0.0273,0.0425 -0.0404,0.0635 -0.0124,0.0154 -0.0224,0.0315 -0.0354,0.0449 l 3e-5,0.002 -0.002,-0.002 4e-5,0.002 c -0.003,0.006 -0.008,0.0153 -0.009,0.0165 -0.008,0.0183 -0.015,0.0348 -0.0233,0.0538 -0.0124,0.0242 -0.0241,0.0463 -0.0404,0.0682 -0.002,0.002 -0.0143,0.0197 -0.0185,0.026 l -0.002,0.002 c -0.009,0.0226 -0.0163,0.046 -0.0283,0.0655 -0.0137,0.0208 -0.0272,0.0386 -0.0336,0.0633 -0.0173,0.0403 -0.0377,0.0798 -0.0638,0.11044 -0.0234,0.0322 -0.0445,0.068 -0.0674,0.1013 -0.0261,0.0348 -0.0525,0.0681 -0.081,0.0992 -0.0226,0.0261 -0.0431,0.0528 -0.0659,0.0804 -0.0184,0.0196 -0.0344,0.0418 -0.0541,0.0615 -0.0229,0.027 -0.0482,0.0529 -0.071,0.0781 -0.0269,0.0292 -0.0534,0.0593 -0.0795,0.0899 -0.0311,0.0354 -0.0602,0.0708 -0.0931,0.10653 -0.0376,0.0423 -0.0765,0.0832 -0.11686,0.12094 -0.0393,0.0357 -0.0775,0.0727 -0.11526,0.11163 -0.0442,0.0439 -0.0883,0.0916 -0.13389,0.13292 -0.037,0.0346 -0.0733,0.0666 -0.112,0.0976 -0.0345,0.0306 -0.0699,0.0591 -0.10527,0.0882 -0.0456,0.0353 -0.0935,0.0646 -0.143,0.0891 -0.0432,0.0188 -0.0882,0.0327 -0.13147,0.0494 -0.0392,0.0215 -0.0709,0.0633 -0.1087,0.0884 -0.0408,0.0309 -0.0795,0.0632 -0.11886,0.0978 -0.0552,0.0462 -0.11015,0.0935 -0.16467,0.14059 -0.051,0.0461 -0.10024,0.0968 -0.14739,0.14947 -0.0462,0.048 -0.0902,0.10035 -0.13713,0.14692 -0.0506,0.045 -0.098,0.0942 -0.14926,0.13792 -0.0483,0.042 -0.0999,0.0782 -0.1495,0.1171 -0.0457,0.0325 -0.0895,0.0664 -0.13251,0.10498 -0.0391,0.0359 -0.0779,0.0749 -0.11525,0.11389 -0.0455,0.0508 -0.0913,0.0995 -0.13884,0.14697 -0.0367,0.0365 -0.0731,0.0764 -0.11186,0.10914 -0.0315,0.0286 -0.0622,0.0552 -0.095,0.0834 -0.0279,0.029 -0.0463,0.0677 -0.0691,0.10355 -0.0251,0.0359 -0.0499,0.0704 -0.0794,0.10154 -0.023,0.0234 -0.0449,0.046 -0.0677,0.0711 -0.0249,0.0253 -0.05,0.0514 -0.0763,0.0736 -0.0349,0.0317 -0.069,0.0647 -0.10344,0.0975 -0.0408,0.0374 -0.0822,0.0745 -0.12386,0.1095 -0.0338,0.0306 -0.0662,0.0642 -0.10004,0.095 -0.0303,0.0285 -0.0588,0.0574 -0.0916,0.0834 -0.027,0.0238 -0.0565,0.0453 -0.0814,0.0691 -0.022,0.0177 -0.0432,0.034 -0.0662,0.0526 -0.0142,0.0125 -0.0312,0.0234 -0.0476,0.0359 -0.0181,0.0162 -0.0346,0.032 -0.0543,0.0476 -0.0187,0.0149 -0.0362,0.0315 -0.0561,0.0454 -0.0151,0.0107 -0.0299,0.0204 -0.046,0.0289 -0.008,0.0123 -0.0164,0.0251 -0.0236,0.0376 -0.0224,0.043 -0.0512,0.0792 -0.0739,0.12231 -0.0224,0.0448 -0.053,0.0819 -0.0757,0.12466 -0.0228,0.0366 -0.0392,0.0796 -0.0586,0.11962 -0.0252,0.0565 -0.0529,0.11068 -0.082,0.16424 -0.0191,0.0351 -0.0372,0.0718 -0.0552,0.10795 0.0447,0.055 0.085,0.11722 0.12061,0.18286 0.3498,-0.29878 0.70088,-0.59928 1.05075,-0.8983 l 0.002,-0.002 c 0.006,-0.008 0.0124,-0.0163 0.0186,-0.0235 0.0134,-0.0152 0.0292,-0.0309 0.0423,-0.045 0.0122,-0.0121 0.0258,-0.0265 0.039,-0.038 0.0131,-0.0122 0.0225,-0.0166 0.0322,-0.0285 0.009,-0.01 0.0194,-0.0205 0.0288,-0.0309 0.0115,-0.0144 0.0191,-0.0306 0.0354,-0.0449 0.0138,-0.0122 0.0193,-0.0191 0.039,-0.0356 0.007,-0.005 0.0173,-0.0146 0.0272,-0.0238 0.01,-0.008 0.0216,-0.0185 0.022,-0.019 0.0117,-0.0124 0.0258,-0.027 0.0354,-0.0403 0.0147,-0.0175 0.031,-0.0333 0.0474,-0.0498 0.0109,-0.0107 0.0241,-0.0228 0.0339,-0.0355 0.0131,-0.0129 0.019,-0.0278 0.0321,-0.0401 0.0131,-0.0125 0.0188,-0.0194 0.0253,-0.0284 0.0137,-0.0189 0.031,-0.0336 0.0474,-0.0475 0.01,-0.01 0.0157,-0.0144 0.0288,-0.0309 0.0144,-0.0156 0.031,-0.0263 0.0441,-0.0426 0.0152,-0.01 0.0259,-0.0302 0.0423,-0.0404 0.01,-0.008 0.0231,-0.0216 0.0254,-0.0238 0.0127,-0.0123 0.0258,-0.0223 0.0355,-0.0356 0.0161,-0.0169 0.0293,-0.0336 0.0457,-0.0475 0.0131,-0.0107 0.0258,-0.0287 0.0389,-0.0403 0.0127,-0.0138 0.0292,-0.0353 0.0423,-0.0428 0.0138,-0.0107 0.0242,-0.0181 0.0374,-0.0286 0.0154,-0.0134 0.0344,-0.028 0.0511,-0.036 0.0128,-0.007 0.0225,-0.0201 0.0358,-0.024 0.0139,-0.01 0.0226,-0.0162 0.0356,-0.0264 0.0118,-0.01 0.0259,-0.0168 0.0356,-0.0286 0.0164,-0.0134 0.0292,-0.0264 0.0423,-0.0428 0.0122,-0.0133 0.0293,-0.0249 0.0425,-0.038 0.0122,-0.0123 0.0242,-0.0246 0.0373,-0.0356 0.0154,-0.0155 0.0293,-0.0322 0.0457,-0.0451 0.0174,-0.0151 0.0311,-0.0336 0.0509,-0.0476 0.0186,-0.0167 0.038,-0.0337 0.0577,-0.0477 0.0122,-0.0128 0.0293,-0.0249 0.0425,-0.038 0.0168,-0.0176 0.0344,-0.0316 0.0509,-0.0499 0.0181,-0.0165 0.0362,-0.0338 0.0525,-0.0499 0.0181,-0.0156 0.0378,-0.0329 0.0543,-0.0499 0.0196,-0.0188 0.0378,-0.0404 0.0576,-0.0593 0.01,-0.0107 0.0224,-0.0208 0.0322,-0.0331 0.0122,-0.0137 0.0275,-0.0292 0.0407,-0.0404 0.0141,-0.013 0.0311,-0.0217 0.0441,-0.0381 0.0144,-0.0134 0.0311,-0.0263 0.0475,-0.0405 0.0171,-0.0152 0.0345,-0.0299 0.051,-0.0453 0.0171,-0.0177 0.0328,-0.0365 0.0525,-0.0523 0.0164,-0.0138 0.0344,-0.0255 0.0475,-0.0429 0.0147,-0.0167 0.031,-0.0323 0.0474,-0.0475 0.005,-0.005 0.0273,-0.0324 0.0372,-0.0403 0.0161,-0.0107 0.0259,-0.0292 0.0423,-0.0404 0.004,-0.004 0.0126,-0.01 0.0153,-0.0122 l 0.002,-4e-5 c 0.0162,-0.0243 0.0344,-0.0442 0.0541,-0.0638 0.0226,-0.0208 0.045,-0.0439 0.0714,-0.0503 0.0218,-0.007 0.0417,-0.0207 0.0648,-0.027 0.0179,-0.004 0.0353,-0.008 0.0531,-0.0107 0.0223,-0.022 0.0443,-0.0449 0.0678,-0.0665 0.0442,-0.0415 0.0894,-0.0804 0.13402,-0.12134 0.0404,-0.0392 0.0804,-0.0796 0.12207,-0.11638 0.0302,-0.0279 0.0603,-0.0581 0.0898,-0.0879 0.0168,-0.0143 0.0328,-0.0304 0.0492,-0.0451 0.0216,-0.0209 0.0447,-0.0403 0.0644,-0.0618 0.0196,-0.0194 0.0397,-0.0367 0.0593,-0.0546 0.0186,-0.0202 0.0396,-0.0405 0.0593,-0.057 0.0203,-0.0172 0.0378,-0.0412 0.0576,-0.057 0.0155,-0.0166 0.0313,-0.0341 0.0474,-0.0498 0.007,-0.0207 0.0194,-0.0348 0.032,-0.0494 0.0105,-0.006 0.019,-0.0185 0.0289,-0.0216 l 0.002,-5e-5 c 7.9e-4,0 0.004,-2.3e-4 0.005,-1.2e-4 l 0.002,-3e-5 0.002,-5e-5 0.002,-3e-5 0.002,-4e-5 0.002,-5e-5 0.002,0.002 c 0.005,-0.005 0.014,-0.0138 0.0187,-0.0168 l 0.002,-3e-5 -2e-5,-0.002 0.002,-3e-5 0.002,-0.002 c 5.3e-4,-9e-4 8.2e-4,-0.004 0.002,-0.005 l 0.002,-3e-5 c 8.2e-4,-0.0353 0.0164,-0.0767 0.0501,-0.11484 0.0167,-0.0192 0.0362,-0.0375 0.0524,-0.0545 0.0226,-0.021 0.0465,-0.0407 0.0695,-0.0619 0.0151,-0.0156 0.0311,-0.0311 0.0475,-0.0428 0.0196,-0.0186 0.0397,-0.035 0.0593,-0.0546 0.0249,-0.0214 0.0483,-0.0481 0.0747,-0.0666 0.0234,-0.0157 0.0485,-0.029 0.0715,-0.0435 0.022,-0.0184 0.0465,-0.0366 0.0661,-0.0572 0.0253,-0.0225 0.0518,-0.0448 0.0746,-0.0689 0.0209,-0.0213 0.0447,-0.0412 0.0644,-0.0618 0.0265,-0.0278 0.0535,-0.0536 0.0797,-0.0806 0.0295,-0.0293 0.0587,-0.0613 0.0881,-0.0925 0.0256,-0.0287 0.0481,-0.063 0.0779,-0.0853 0.0191,-0.0168 0.0345,-0.0385 0.0542,-0.0545 0.017,-0.0186 0.0344,-0.0359 0.0508,-0.0569 0.0163,-0.0238 0.0326,-0.0492 0.0488,-0.073 0.015,-0.0232 0.0257,-0.0501 0.042,-0.0729 0.015,-0.0222 0.0308,-0.0428 0.0439,-0.0659 0.017,-0.0273 0.036,-0.0532 0.0521,-0.08 0.02,-0.0306 0.0394,-0.0604 0.059,-0.0918 0.0225,-0.0343 0.0463,-0.0676 0.0691,-0.1013 0.0268,-0.0365 0.0565,-0.0712 0.0793,-0.1108 0.0252,-0.0385 0.0519,-0.0755 0.0809,-0.10854 0.002,-0.0395 0.004,-0.0804 0.004,-0.12071 -0.002,-0.16944 -0.0275,-0.33393 -0.0729,-0.48783 -0.005,0.006 -0.0123,0.0121 -0.0203,0.019 -0.0186,0.0158 -0.0436,0.004 -0.0669,-8.6e-4 l -0.002,-0.002 -0.002,-0.007 c -0.004,-0.004 -0.01,-0.007 -0.0122,-0.01 l -0.002,-0.005 -10e-6,-0.002 c -0.0115,-0.008 -0.0251,-0.0165 -0.0381,-0.0223 -0.0231,-0.0119 -0.044,-0.0252 -0.064,-0.0426 -0.0117,-0.0107 -0.0263,-0.0217 -0.0365,-0.0386 -0.0205,-0.021 -0.0388,-0.0442 -0.0558,-0.0705 -0.0148,-0.0236 -0.0303,-0.05 -0.0471,-0.0732 -0.017,-0.0264 -0.0404,-0.0474 -0.0541,-0.0777 -0.0125,-0.0249 -0.0234,-0.0506 -0.037,-0.0756 -0.014,-0.0304 -0.027,-0.0616 -0.0406,-0.0918 -0.0203,-0.0376 -0.0496,-0.0659 -0.0733,-0.0981 -0.0344,-0.0392 -0.0679,-0.0777 -0.10264,-0.11603 -0.0239,-0.0258 -0.0511,-0.0483 -0.0747,-0.0726 -0.0238,-0.0228 -0.0476,-0.0443 -0.0712,-0.0679 -0.0281,-0.0268 -0.0566,-0.0534 -0.0867,-0.0793 -0.0309,-0.0286 -0.06,-0.0582 -0.0903,-0.0885 -0.0249,-0.0235 -0.0496,-0.0477 -0.0763,-0.0702 -0.0265,-0.027 -0.0512,-0.0508 -0.0781,-0.0794 -0.0313,-0.0328 -0.0653,-0.0656 -0.0956,-0.0976 -0.0315,-0.0294 -0.0636,-0.0565 -0.0971,-0.086 -0.0284,-0.0228 -0.06,-0.0431 -0.0867,-0.0677 -0.0393,-0.0349 -0.059,-0.0755 -0.0631,-0.11223 -1.74131,-1.37949 -3.48235,-2.75924 -5.2231,-4.13882 z m -0.51064,0.87683 c -0.0174,0.0273 -0.036,0.0549 -0.0503,0.0847 l 0.002,-4e-5 0.002,-0.002 c 0.0151,-0.0274 0.0324,-0.0539 0.0471,-0.0823 z m 4.31776,4.44925 2e-5,0.002 0.002,-3e-5 -3e-5,-0.002 z m -2.21433,5.16055 5e-5,0.002 0.002,-5e-5 -3e-5,-0.002 z m -4.12073,3.44519 3e-5,0.002 3e-5,0.002 0.002,-4e-5 -2e-5,-0.002 -3e-5,-0.002 z"
       inkscape:transform-center-y="0.7116957"
       inkscape:transform-center-x="-0.0081329881" /></g></svg>
