<?xml version="1.0" encoding="UTF-8" standalone="no"?>
<!-- Created with Inkscape (http://www.inkscape.org/) -->

<svg
   width="196.95901mm"
   height="113.413mm"
   viewBox="0 0 196.95903 113.413"
   version="1.1"
   id="svg1"
   xml:space="preserve"
   sodipodi:docname="researchbackground_details.svg"
   inkscape:export-filename="researchbackground_details.svg"
   inkscape:export-xdpi="96"
   inkscape:export-ydpi="96"
   inkscape:version="1.4.3 (0d15f75, 2025-12-25)"
   xmlns:inkscape="http://www.inkscape.org/namespaces/inkscape"
   xmlns:sodipodi="http://sodipodi.sourceforge.net/DTD/sodipodi-0.dtd"
   xmlns="http://www.w3.org/2000/svg"
   xmlns:svg="http://www.w3.org/2000/svg"><sodipodi:namedview
     id="namedview1"
     pagecolor="#ffffff"
     bordercolor="#000000"
     borderopacity="0.25"
     inkscape:showpageshadow="2"
     inkscape:pageopacity="0.0"
     inkscape:pagecheckerboard="0"
     inkscape:deskcolor="#d1d1d1"
     inkscape:document-units="mm"
     inkscape:export-bgcolor="#faf8f500"
     inkscape:zoom="1.182141"
     inkscape:cx="370.93714"
     inkscape:cy="119.69807"
     inkscape:window-width="1620"
     inkscape:window-height="970"
     inkscape:window-x="165"
     inkscape:window-y="25"
     inkscape:window-maximized="0"
     inkscape:current-layer="layer1" /><defs
     id="defs1"><inkscape:path-effect
       effect="bspline"
       id="path-effect10"
       is_visible="true"
       lpeversion="1.3"
       weight="33.333333"
       steps="2"
       helper_size="0"
       apply_no_weight="true"
       apply_with_weight="true"
       only_selected="false"
       uniform="false" /><inkscape:path-effect
       effect="bspline"
       id="path-effect9"
       is_visible="true"
       lpeversion="1.3"
       weight="33.333333"
       steps="2"
       helper_size="0"
       apply_no_weight="true"
       apply_with_weight="true"
       only_selected="false"
       uniform="false" /><inkscape:path-effect
       effect="bspline"
       id="path-effect8"
       is_visible="true"
       lpeversion="1.3"
       weight="33.333333"
       steps="2"
       helper_size="0"
       apply_no_weight="true"
       apply_with_weight="true"
       only_selected="false"
       uniform="false" /><inkscape:path-effect
       effect="bspline"
       id="path-effect7"
       is_visible="true"
       lpeversion="1.3"
       weight="33.333333"
       steps="2"
       helper_size="0"
       apply_no_weight="true"
       apply_with_weight="true"
       only_selected="false"
       uniform="false" /><inkscape:path-effect
       effect="bspline"
       id="path-effect6"
       is_visible="true"
       lpeversion="1.3"
       weight="33.333333"
       steps="2"
       helper_size="0"
       apply_no_weight="true"
       apply_with_weight="true"
       only_selected="false"
       uniform="false" /><inkscape:path-effect
       effect="spiro"
       id="path-effect5"
       is_visible="true"
       lpeversion="1" /><inkscape:path-effect
       effect="bspline"
       id="path-effect4"
       is_visible="true"
       lpeversion="1.3"
       weight="33.333333"
       steps="2"
       helper_size="0"
       apply_no_weight="true"
       apply_with_weight="true"
       only_selected="false"
       uniform="false" /></defs><g
     id="layer1"
     transform="translate(-13.269191,-107.60626)"><text
       xml:space="preserve"
       style="font-style:normal;font-variant:normal;font-weight:bold;font-stretch:normal;font-size:4.23333px;line-height:4.37444px;font-family:Georgia;-inkscape-font-specification:'Georgia Bold';text-align:center;writing-mode:lr-tb;direction:ltr;text-anchor:middle;fill:#ac3b61;fill-opacity:1;stroke-width:0.264582"
       x="44.875553"
       y="118.83725"
       id="text16"><tspan
         style="font-style:normal;font-variant:normal;font-weight:bold;font-stretch:normal;font-size:4.23333px;line-height:4.37444px;font-family:Georgia;-inkscape-font-specification:'Georgia Bold';fill:#ac3b61;fill-opacity:1;stroke-width:0.264582"
         x="44.875553"
         y="118.83725"
         id="tspan19">Philosophy &amp; Social Theory</tspan></text><text
       xml:space="preserve"
       style="font-style:normal;font-variant:normal;font-weight:bold;font-stretch:normal;font-size:4.23333px;line-height:4.37444px;font-family:Georgia;-inkscape-font-specification:'Georgia Bold';text-align:center;writing-mode:lr-tb;direction:ltr;text-anchor:middle;fill:#ac3b61;fill-opacity:1;stroke-width:0.264582"
       x="112.61249"
       y="143.0455"
       id="text16-3"><tspan
         style="font-style:normal;font-variant:normal;font-weight:bold;font-stretch:normal;font-size:4.23333px;line-height:4.37444px;font-family:Georgia;-inkscape-font-specification:'Georgia Bold';fill:#ac3b61;fill-opacity:1;stroke-width:0.264582"
         x="112.61249"
         y="143.0455"
         id="tspan19-6">Reflexive Research</tspan></text><text
       xml:space="preserve"
       style="font-style:normal;font-variant:normal;font-weight:normal;font-stretch:normal;font-size:3.52778px;line-height:4.5376px;font-family:Monospace;-inkscape-font-specification:Monospace;text-align:center;letter-spacing:0px;writing-mode:lr-tb;direction:ltr;text-anchor:middle;white-space:pre;inline-size:79.8666;display:inline;fill:#838383;fill-opacity:1;stroke-width:0.264583"
       x="45.268539"
       y="124.49709"
       id="text23"
       transform="translate(0,1.5875)"><tspan
         x="45.268539"
         y="124.49709"
         id="tspan1">epistemology · ethnography
</tspan><tspan
         x="45.268539"
         y="129.03469"
         id="tspan2">interpretive methods</tspan></text><text
       xml:space="preserve"
       style="font-style:normal;font-variant:normal;font-weight:bold;font-stretch:normal;font-size:4.23333px;line-height:4.37444px;font-family:Georgia;-inkscape-font-specification:'Georgia Bold';text-align:center;writing-mode:lr-tb;direction:ltr;text-anchor:middle;fill:#ac3b61;fill-opacity:1;stroke-width:0.264582"
       x="44.302906"
       y="176.22014"
       id="text16-83"><tspan
         style="font-style:normal;font-variant:normal;font-weight:bold;font-stretch:normal;font-size:4.23333px;line-height:4.37444px;font-family:Georgia;-inkscape-font-specification:'Georgia Bold';fill:#ac3b61;fill-opacity:1;stroke-width:0.264582"
         x="44.302906"
         y="176.22014"
         id="tspan19-8">Community Practitioner</tspan></text><text
       xml:space="preserve"
       style="font-style:normal;font-variant:normal;font-weight:normal;font-stretch:normal;font-size:3.52778px;line-height:4.5376px;font-family:Monospace;-inkscape-font-specification:Monospace;text-align:center;letter-spacing:0px;writing-mode:lr-tb;direction:ltr;text-anchor:middle;white-space:pre;inline-size:79.8666;display:inline;fill:#838383;fill-opacity:1;stroke-width:0.264583"
       x="45.268539"
       y="124.49709"
       id="text23-1"
       transform="translate(-1.6309716,58.256957)"><tspan
         x="45.268539"
         y="124.49709"
         id="tspan3">cooperative organizing
</tspan><tspan
         x="45.268539"
         y="129.03469"
         id="tspan4">technology appropriation</tspan></text><text
       xml:space="preserve"
       style="font-size:3.52778px;line-height:4.54px;text-align:center;writing-mode:lr-tb;direction:ltr;text-anchor:middle;white-space:pre;inline-size:90.7781;display:inline;fill:#838383;fill-opacity:1;stroke-width:0.264583"
       x="111.18568"
       y="124.40876"
       id="text23-9"
       transform="translate(2.2235132,25.764981)"><tspan
         x="111.18568"
         y="124.40876"
         id="tspan6"><tspan
           style="font-family:Monospace;-inkscape-font-specification:Monospace"
           id="tspan5">action research
</tspan></tspan><tspan
         x="111.18568"
         y="128.98501"
         id="tspan8"><tspan
           style="font-family:Monospace;-inkscape-font-specification:Monospace"
           id="tspan7">participatory design
</tspan></tspan><tspan
         x="111.18568"
         y="133.56126"
         id="tspan10"><tspan
           style="font-family:Monospace;-inkscape-font-specification:Monospace"
           id="tspan9">prefigurative design</tspan></tspan></text><text
       xml:space="preserve"
       style="font-style:normal;font-variant:normal;font-weight:bold;font-stretch:normal;font-size:4.23333px;line-height:4.37444px;font-family:Georgia;-inkscape-font-specification:'Georgia Bold';text-align:center;writing-mode:lr-tb;direction:ltr;text-anchor:middle;white-space:pre;inline-size:57.6061;display:inline;fill:#ac3b61;fill-opacity:1;stroke-width:0.264582"
       x="175.35007"
       y="142.8732"
       id="text16-3-8"
       transform="translate(5.8208336,-2.6458334)"><tspan
         x="175.35007"
         y="142.8732"
         id="tspan11">Sociotechnical
</tspan><tspan
         x="175.35007"
         y="147.24764"
         id="tspan12">Systems Design</tspan></text><text
       xml:space="preserve"
       style="font-size:3.52778px;line-height:4.5376px;text-align:center;writing-mode:lr-tb;direction:ltr;text-anchor:middle;white-space:pre;inline-size:58.4604;display:inline;fill:#838383;fill-opacity:1;stroke-width:0.264583"
       x="174.18416"
       y="124.09119"
       id="text23-9-6"
       transform="translate(6.9860135,28.410816)"><tspan
         x="174.18416"
         y="124.09119"
         id="tspan14"><tspan
           style="font-family:Monospace;-inkscape-font-specification:Monospace"
           id="tspan13">responsible technologies
</tspan></tspan><tspan
         x="174.18416"
         y="128.66503"
         id="tspan16"><tspan
           style="font-family:Monospace;-inkscape-font-specification:Monospace"
           id="tspan15">community-centred design
</tspan></tspan><tspan
         x="174.18416"
         y="133.23887"
         id="tspan18"><tspan
           style="font-family:Monospace;-inkscape-font-specification:Monospace"
           id="tspan17">capacity building</tspan></tspan></text><text
       xml:space="preserve"
       style="font-style:normal;font-variant:normal;font-weight:normal;font-stretch:normal;font-size:3.88056px;line-height:4.0099px;font-family:Chalkduster;-inkscape-font-specification:Chalkduster;text-align:center;writing-mode:lr-tb;direction:ltr;text-anchor:middle;fill:#858585;fill-opacity:1;stroke-width:0.264582"
       x="113.61623"
       y="205.98611"
       id="text16-8"><tspan
         style="font-style:normal;font-variant:normal;font-weight:normal;font-stretch:normal;font-size:3.88056px;line-height:4.0099px;font-family:Monospace;-inkscape-font-specification:Monospace;fill:#858585;fill-opacity:1;stroke-width:0.264582"
         x="113.61623"
         y="205.98611"
         id="tspan19-5">Participatory Design for Responsible Technologies</tspan></text></g><g
     id="g1"
     transform="matrix(0.26458332,0,0,0.26458334,214.1392,-111.31044)"><path
       style="opacity:1;fill:#4d4d4d;fill-opacity:0.65625;stroke-width:1.36991"
       d="m -779.27398,762.2974 411.09427,0.80884 271.240891,-1.02392"
       id="path7" /><path
       style="fill:#ac3b61"
       d="m -568.28748,459.58111 21.53368,-0.59815"
       id="path2" /><path
       style="fill:#ac3b61"
       d="m -568.88564,459.58111 h 22.13184 z"
       id="path3" /><path
       style="fill:none;stroke:#ac3b61;stroke-width:1px;stroke-linecap:butt;stroke-linejoin:miter;stroke-opacity:1"
       d="m -570.08195,458.98296 c 6.97851,0 13.95701,0 17.54596,14.95424 3.58895,14.95424 3.78833,44.86153 7.87582,60.01486 4.08749,15.15334 12.06277,15.5521 20.03821,15.95087"
       id="path6"
       inkscape:path-effect="#path-effect7"
       inkscape:original-d="m -570.08195,458.98296 c 6.97851,0 13.95701,0 20.93552,0 0.19939,29.90848 0.39877,59.81577 0.59816,89.72366 7.97559,0.39878 15.95087,0.79754 23.92631,1.19631"
       transform="matrix(1.079044,0,0,0.99993332,45.058385,0.03363779)" /><path
       style="fill:none;stroke:#ac3b61;stroke-width:1px;stroke-linecap:butt;stroke-linejoin:miter;stroke-opacity:1"
       d="m -581.44695,677.31053 c 46.25753,-0.19938 92.51507,-0.39877 115.54414,-9.17192 23.02907,-8.77316 22.82969,-26.11938 22.6303,-43.46596"
       id="path8"
       inkscape:path-effect="#path-effect8"
       inkscape:original-d="m -581.44695,677.31053 c 46.25753,-0.19938 92.51507,-0.39877 138.7726,-0.59815 -0.19939,-17.34693 -0.39877,-34.69315 -0.59816,-52.03973"
       transform="matrix(1.0692236,0,0,0.94314288,40.234124,38.522951)" /><path
       style="fill:none;stroke:#ac3b61;stroke-width:1px;stroke-linecap:butt;stroke-linejoin:miter;stroke-opacity:1"
       d="m -337.99675,549.90293 c 18.94167,-0.19938 37.88333,-0.39877 56.82499,-0.59815"
       id="path9"
       inkscape:path-effect="#path-effect10"
       inkscape:original-d="m -337.99675,549.90293 c 18.94167,-0.19938 37.88333,-0.39877 56.82499,-0.59815"
       transform="matrix(1.2739043,0,0,0.99150265,92.572523,4.6701761)" /><path
       style="fill:#ac3b61;stroke:#ac3b61;stroke-width:0.762923;stroke-opacity:1"
       d="m -523.12927,545.09807 c 0.10967,0.0594 0.22503,0.10769 0.32901,0.17801 0.10362,0.0701 0.16513,0.2377 0.27419,0.2967 0.37924,0.2052 0.70972,0.53122 1.04188,0.83076 0.11488,0.1036 0.33168,0.20985 0.43869,0.2967 0.6794,0.55139 -0.1263,-0.0773 0.21935,0.2967 0.0324,0.1985 0.23582,0.1365 0.32902,0.23735 0.0135,0.0146 0.13558,0.24976 0.16451,0.2967 0.0168,0.0273 0.39461,0.38358 0.43869,0.41538 0.0381,0.0275 0.12201,0.0364 0.16451,0.0594 0.0734,0.0398 0.076,0.14156 0.10967,0.17802 0.12355,0.13368 0.29634,0.194 0.43869,0.2967 0.22619,0.16317 0.33931,0.39127 0.6032,0.53406 0.14111,0.0763 0.29824,0.2207 0.43869,0.29669 0.10967,0.0594 0.16451,0.23736 0.27418,0.2967 0.0164,0.009 0.0419,-0.014 0.0549,0 0.0129,0.014 -0.0129,0.0454 0,0.0594 0.0183,0.0198 0.14623,0.0396 0.1645,0.0594 0.0259,0.028 0.0164,0.0833 0,0.11868 -0.0515,0.11137 -0.17651,0.0853 -0.21933,0.17802 -0.0235,0.0508 -0.0314,0.12728 -0.0549,0.17802 -0.11411,0.24696 0.004,-0.0634 -0.10968,0.0594 -0.0289,0.0313 -0.026,0.0874 -0.0548,0.11868 -0.0129,0.014 -0.042,-0.014 -0.0549,0 -0.0289,0.0313 -0.0322,0.0819 -0.0549,0.11868 -0.005,0.008 -0.51861,0.45861 -0.54837,0.47472 -0.0163,0.009 -0.0365,0 -0.0548,0 -0.0365,0.0198 -0.0757,0.0348 -0.10968,0.0594 -0.0605,0.0436 -0.0997,0.14296 -0.16451,0.17802 -0.056,0.0303 -0.29034,0.13617 -0.32902,0.17802 -0.0129,0.014 0.0129,0.0453 0,0.0594 -0.0697,0.0754 -0.10876,0.0885 -0.16451,0.11868 -0.22821,0.12348 0.0586,-0.004 -0.0548,0.11868 -0.0762,0.0824 -0.24206,0.0246 -0.32902,0.11868 -0.0129,0.014 0.0129,0.0454 0,0.0594 -0.0317,0.0344 -0.18756,0.0843 -0.21934,0.11868 -0.0129,0.014 0.0129,0.0454 0,0.0594 -0.0129,0.014 -0.0385,-0.009 -0.0549,0 -0.0463,0.025 -0.0634,0.0937 -0.10967,0.11868 -0.06,0.0325 -0.16276,0.0575 -0.21935,0.11868 -0.0413,0.0447 -0.13467,0.26441 -0.16451,0.2967 -0.0466,0.0504 -0.11791,0.0683 -0.16451,0.11868 -0.0294,0.0318 -0.0453,0.10837 -0.0549,0.11868 -0.0129,0.014 -0.0419,-0.014 -0.0548,0 -0.0668,0.0723 -0.0977,0.22439 -0.16451,0.2967 -0.0182,0.0197 -0.18697,0.10115 -0.21935,0.11868 -0.0306,0.0165 -0.2045,0.16196 -0.21935,0.17802 -0.0129,0.014 0.0129,0.0453 0,0.0594 -0.11345,0.12278 0.004,-0.18762 -0.10966,0.0594 -0.008,0.0177 0.0129,0.0453 0,0.0594 -0.0129,0.014 -0.0419,-0.014 -0.0549,0 -0.0129,0.014 0.0129,0.0454 0,0.0594 -0.0318,0.0344 -0.18757,0.0843 -0.21935,0.11868 -0.0129,0.014 0.0129,0.0454 0,0.0594 -0.0481,0.0521 -0.39056,0.18528 -0.43869,0.23736 -0.0129,0.014 0.0129,0.0454 0,0.0594 -0.0183,0.0198 -0.14623,0.0395 -0.16451,0.0594 -0.0129,0.014 0.0129,0.0454 0,0.0594 -0.0129,0.014 -0.0385,-0.009 -0.0549,0 -0.13563,0.0734 -0.16068,0.17802 -0.32901,0.17802"
       id="path10" /><path
       style="fill:#ac3b61;stroke:#ac3b61;stroke-width:0.762923;stroke-opacity:1"
       d="m -266.15425,544.90336 c 0.10967,0.0594 0.22503,0.10769 0.32901,0.17801 0.10362,0.0701 0.16513,0.2377 0.27419,0.2967 0.37924,0.2052 0.70972,0.53122 1.04188,0.83076 0.11488,0.1036 0.33168,0.20985 0.43869,0.2967 0.6794,0.55139 -0.1263,-0.0773 0.21935,0.2967 0.0324,0.1985 0.23582,0.1365 0.32902,0.23735 0.0135,0.0146 0.13558,0.24976 0.16451,0.2967 0.0168,0.0273 0.39461,0.38358 0.43869,0.41538 0.0381,0.0275 0.12201,0.0364 0.16451,0.0594 0.0734,0.0398 0.076,0.14156 0.10967,0.17802 0.12355,0.13368 0.29634,0.194 0.43869,0.2967 0.22619,0.16317 0.33931,0.39127 0.6032,0.53406 0.14111,0.0763 0.29824,0.2207 0.43869,0.29669 0.10967,0.0594 0.16451,0.23736 0.27418,0.2967 0.0164,0.009 0.0419,-0.014 0.0549,0 0.0129,0.014 -0.0129,0.0454 0,0.0594 0.0183,0.0198 0.14623,0.0396 0.1645,0.0594 0.0259,0.028 0.0164,0.0833 0,0.11868 -0.0515,0.11137 -0.17651,0.0853 -0.21933,0.17802 -0.0235,0.0508 -0.0314,0.12728 -0.0549,0.17802 -0.11411,0.24696 0.004,-0.0634 -0.10968,0.0594 -0.0289,0.0313 -0.026,0.0874 -0.0548,0.11868 -0.0129,0.014 -0.042,-0.014 -0.0549,0 -0.0289,0.0313 -0.0322,0.0819 -0.0549,0.11868 -0.005,0.008 -0.51861,0.45861 -0.54837,0.47472 -0.0163,0.009 -0.0365,0 -0.0548,0 -0.0365,0.0198 -0.0757,0.0348 -0.10968,0.0594 -0.0605,0.0436 -0.0997,0.14296 -0.16451,0.17802 -0.056,0.0303 -0.29034,0.13617 -0.32902,0.17802 -0.0129,0.014 0.0129,0.0453 0,0.0594 -0.0697,0.0754 -0.10876,0.0885 -0.16451,0.11868 -0.22821,0.12348 0.0586,-0.004 -0.0548,0.11868 -0.0762,0.0824 -0.24206,0.0246 -0.32902,0.11868 -0.0129,0.014 0.0129,0.0454 0,0.0594 -0.0317,0.0344 -0.18756,0.0843 -0.21934,0.11868 -0.0129,0.014 0.0129,0.0454 0,0.0594 -0.0129,0.014 -0.0385,-0.009 -0.0549,0 -0.0463,0.025 -0.0634,0.0937 -0.10967,0.11868 -0.06,0.0325 -0.16276,0.0575 -0.21935,0.11868 -0.0413,0.0447 -0.13467,0.26441 -0.16451,0.2967 -0.0466,0.0504 -0.11791,0.0683 -0.16451,0.11868 -0.0294,0.0318 -0.0453,0.10837 -0.0549,0.11868 -0.0129,0.014 -0.0419,-0.014 -0.0548,0 -0.0668,0.0723 -0.0977,0.22439 -0.16451,0.2967 -0.0182,0.0197 -0.18697,0.10115 -0.21935,0.11868 -0.0306,0.0165 -0.2045,0.16196 -0.21935,0.17802 -0.0129,0.014 0.0129,0.0453 0,0.0594 -0.11345,0.12278 0.004,-0.18762 -0.10966,0.0594 -0.008,0.0177 0.0129,0.0453 0,0.0594 -0.0129,0.014 -0.0419,-0.014 -0.0549,0 -0.0129,0.014 0.0129,0.0454 0,0.0594 -0.0318,0.0344 -0.18757,0.0843 -0.21935,0.11868 -0.0129,0.014 0.0129,0.0454 0,0.0594 -0.0481,0.0521 -0.39056,0.18528 -0.43869,0.23736 -0.0129,0.014 0.0129,0.0454 0,0.0594 -0.0183,0.0198 -0.14623,0.0395 -0.16451,0.0594 -0.0129,0.014 0.0129,0.0454 0,0.0594 -0.0129,0.014 -0.0385,-0.009 -0.0549,0 -0.13563,0.0734 -0.16068,0.17802 -0.32901,0.17802"
       id="path10-5" /><path
       style="fill:#ac3b61;stroke:#ac3b61;stroke-width:0.762923;stroke-opacity:1"
       d="m -438.69082,628.3059 c 0.0596,-0.10956 0.10812,-0.22482 0.17863,-0.32867 0.0703,-0.10349 0.23801,-0.16468 0.29722,-0.27363 0.20592,-0.37885 0.53257,-0.70871 0.83274,-1.0403 0.10383,-0.11468 0.21048,-0.33128 0.29753,-0.43812 0.55268,-0.67835 -0.0775,0.12615 0.29712,-0.21879 0.19856,-0.032 0.13694,-0.23556 0.23797,-0.32857 0.0146,-0.0135 0.25003,-0.1351 0.29701,-0.16394 0.0273,-0.0168 0.38434,-0.39388 0.41622,-0.4379 0.0276,-0.038 0.0366,-0.12194 0.0597,-0.1644 0.0399,-0.0733 0.1417,-0.0757 0.17823,-0.10933 0.13391,-0.1233 0.19456,-0.29597 0.29753,-0.43813 0.1636,-0.22588 0.39191,-0.33856 0.5352,-0.60218 0.0766,-0.14097 0.22127,-0.29782 0.29753,-0.43813 0.0596,-0.10955 0.23767,-0.16405 0.29722,-0.27361 0.009,-0.0164 -0.0139,-0.0419 1e-4,-0.0549 0.014,-0.0129 0.0454,0.013 0.0594,1.1e-4 0.0198,-0.0183 0.0399,-0.14615 0.0597,-0.16439 0.0281,-0.0258 0.0833,-0.0162 0.11868,2.3e-4 0.11128,0.0517 0.085,0.17667 0.17761,0.21967 0.0507,0.0236 0.12722,0.0316 0.17791,0.0552 0.24674,0.11457 -0.0634,-0.004 0.0592,0.10979 0.0312,0.029 0.0874,0.0262 0.11858,0.055 0.014,0.0129 -0.0141,0.042 -1.1e-4,0.0549 0.0312,0.029 0.0818,0.0324 0.11858,0.0551 0.008,0.005 0.45762,0.51948 0.47368,0.54927 0.009,0.0163 -7e-5,0.0365 -1.1e-4,0.0548 0.0197,0.0365 0.0347,0.0758 0.0592,0.10979 0.0435,0.0606 0.14277,0.1 0.1777,0.16485 0.0302,0.0561 0.13562,0.2906 0.1774,0.32936 0.014,0.0129 0.0453,-0.0128 0.0594,1.1e-4 0.0753,0.0698 0.0883,0.10893 0.11836,0.16474 0.12305,0.22844 -0.004,-0.0586 0.11858,0.055 0.0823,0.0764 0.0241,0.24211 0.11805,0.32925 0.014,0.0129 0.0454,-0.0128 0.0594,1.1e-4 0.0343,0.0318 0.0839,0.18772 0.11827,0.21956 0.014,0.0129 0.0454,-0.0128 0.0594,1.2e-4 0.014,0.0129 -0.009,0.0385 -1.1e-4,0.0549 0.0249,0.0463 0.0936,0.0636 0.11847,0.10989 0.0324,0.0601 0.0572,0.16287 0.11827,0.21958 0.0446,0.0414 0.26415,0.13517 0.29639,0.16507 0.0503,0.0467 0.0681,0.11804 0.11836,0.16473 0.0317,0.0295 0.10829,0.0455 0.11858,0.0551 0.014,0.0129 -0.0141,0.0419 -1.1e-4,0.0548 0.0722,0.0669 0.22421,0.0981 0.29639,0.16507 0.0197,0.0182 0.1008,0.18716 0.11827,0.21958 0.0165,0.0306 0.16158,0.20481 0.1776,0.21969 0.014,0.0129 0.0453,-0.0128 0.0594,1.1e-4 0.12256,0.11368 -0.18762,-0.004 0.0592,0.10977 0.0177,0.008 0.0453,-0.0128 0.0594,1.1e-4 0.014,0.0129 -0.0141,0.0419 -1.1e-4,0.0549 0.014,0.0129 0.0454,-0.0128 0.0594,1.2e-4 0.0343,0.0319 0.0839,0.18773 0.11827,0.21957 0.014,0.0129 0.0454,-0.0128 0.0594,1.1e-4 0.052,0.0482 0.18453,0.39092 0.23652,0.43914 0.014,0.0129 0.0454,-0.0128 0.0594,1.2e-4 0.0198,0.0183 0.0392,0.1463 0.0591,0.16462 0.014,0.0129 0.0454,-0.0128 0.0594,1.1e-4 0.014,0.0129 -0.009,0.0385 -10e-5,0.0549 0.0731,0.13577 0.17771,0.16102 0.17739,0.32935"
       id="path10-7" /></g></svg>
