<?xml version="1.0" encoding="UTF-8" standalone="no"?>
<!-- Created with Inkscape (http://www.inkscape.org/) -->

<svg
   width="196.959mm"
   height="113.413mm"
   viewBox="0 0 196.95901 113.413"
   version="1.1"
   id="svg1"
   xml:space="preserve"
   sodipodi:docname="researchbackground.svg"
   inkscape:version="1.4.3 (0d15f75, 2025-12-25)"
   xmlns:inkscape="http://www.inkscape.org/namespaces/inkscape"
   xmlns:sodipodi="http://sodipodi.sourceforge.net/DTD/sodipodi-0.dtd"
   xmlns="http://www.w3.org/2000/svg"
   xmlns:svg="http://www.w3.org/2000/svg"><sodipodi:namedview
     id="namedview1"
     pagecolor="#ffffff"
     bordercolor="#000000"
     borderopacity="0.25"
     inkscape:showpageshadow="2"
     inkscape:pageopacity="0.0"
     inkscape:pagecheckerboard="0"
     inkscape:deskcolor="#d1d1d1"
     inkscape:document-units="mm"
     inkscape:zoom="0.90830044"
     inkscape:cx="388.63793"
     inkscape:cy="153.58354"
     inkscape:window-width="1317"
     inkscape:window-height="976"
     inkscape:window-x="287"
     inkscape:window-y="25"
     inkscape:window-maximized="0"
     inkscape:current-layer="layer1" /><defs
     id="defs1" /><g
     id="layer1"
     transform="translate(-13.269191,-107.60626)"><text
       xml:space="preserve"
       style="font-style:normal;font-variant:normal;font-weight:bold;font-stretch:normal;font-size:4.23333px;line-height:4.37444px;font-family:Georgia;-inkscape-font-specification:'Georgia Bold';text-align:center;writing-mode:lr-tb;direction:ltr;text-anchor:middle;fill:#ac3b61;fill-opacity:1;stroke-width:0.264582"
       x="45.40472"
       y="118.83725"
       id="text16"><tspan
         style="font-style:normal;font-variant:normal;font-weight:bold;font-stretch:normal;font-size:4.23333px;line-height:4.37444px;font-family:Georgia;-inkscape-font-specification:'Georgia Bold';fill:#ac3b61;fill-opacity:1;stroke-width:0.264582"
         x="45.40472"
         y="118.83725"
         id="tspan19">Philosophy &amp; Social Theory</tspan></text><text
       xml:space="preserve"
       style="font-style:normal;font-variant:normal;font-weight:bold;font-stretch:normal;font-size:4.23333px;line-height:4.37444px;font-family:Georgia;-inkscape-font-specification:'Georgia Bold';text-align:center;writing-mode:lr-tb;direction:ltr;text-anchor:middle;fill:#ac3b61;fill-opacity:1;stroke-width:0.264582"
       x="106.26249"
       y="143.0455"
       id="text16-3"><tspan
         style="font-style:normal;font-variant:normal;font-weight:bold;font-stretch:normal;font-size:4.23333px;line-height:4.37444px;font-family:Georgia;-inkscape-font-specification:'Georgia Bold';fill:#ac3b61;fill-opacity:1;stroke-width:0.264582"
         x="106.26249"
         y="143.0455"
         id="tspan19-6">Reflexive Research</tspan></text><text
       xml:space="preserve"
       style="font-style:normal;font-variant:normal;font-weight:normal;font-stretch:normal;font-size:3.52778px;line-height:4.5376px;font-family:Monospace;-inkscape-font-specification:Monospace;text-align:center;letter-spacing:0px;writing-mode:lr-tb;direction:ltr;text-anchor:middle;white-space:pre;inline-size:79.8666;fill:#838383;fill-opacity:1;stroke-width:0.264583"
       x="45.268539"
       y="124.49709"
       id="text23"
       transform="translate(0,1.5875)"><tspan
         x="45.268539"
         y="124.49709"
         id="tspan2">epistemology · ethnography
</tspan><tspan
         x="45.268539"
         y="129.03469"
         id="tspan3">inductive reasoning
</tspan><tspan
         x="45.268539"
         y="133.57229"
         id="tspan4">interpretive methods</tspan></text><text
       xml:space="preserve"
       style="font-style:normal;font-variant:normal;font-weight:bold;font-stretch:normal;font-size:4.23333px;line-height:4.37444px;font-family:Georgia;-inkscape-font-specification:'Georgia Bold';text-align:center;writing-mode:lr-tb;direction:ltr;text-anchor:middle;fill:#ac3b61;fill-opacity:1;stroke-width:0.264582"
       x="46.419575"
       y="166.16611"
       id="text16-83"><tspan
         style="font-style:normal;font-variant:normal;font-weight:bold;font-stretch:normal;font-size:4.23333px;line-height:4.37444px;font-family:Georgia;-inkscape-font-specification:'Georgia Bold';fill:#ac3b61;fill-opacity:1;stroke-width:0.264582"
         x="46.419575"
         y="166.16611"
         id="tspan19-8">Community Practitioner</tspan></text><text
       xml:space="preserve"
       style="font-style:normal;font-variant:normal;font-weight:normal;font-stretch:normal;font-size:3.52778px;line-height:4.5376px;font-family:Monospace;-inkscape-font-specification:Monospace;text-align:center;letter-spacing:0px;writing-mode:lr-tb;direction:ltr;text-anchor:middle;white-space:pre;inline-size:79.8666;fill:#838383;fill-opacity:1;stroke-width:0.264583"
       x="45.268539"
       y="124.49709"
       id="text23-1"
       transform="translate(1.0148618,48.202784)"><tspan
         x="45.268539"
         y="124.49709"
         id="tspan5">cooperative organizing
</tspan><tspan
         x="45.268539"
         y="129.03469"
         id="tspan6">technology appropriation</tspan></text><text
       xml:space="preserve"
       style="font-size:3.52778px;line-height:4.54px;text-align:center;writing-mode:lr-tb;direction:ltr;text-anchor:middle;white-space:pre;inline-size:90.7781;fill:#838383;fill-opacity:1;stroke-width:0.264583"
       x="111.18568"
       y="124.40876"
       id="text23-9"
       transform="translate(-4.6556537,25.764981)"><tspan
         x="111.18568"
         y="124.40876"
         id="tspan8"><tspan
           style="font-family:Monospace;-inkscape-font-specification:Monospace"
           id="tspan7">action research
</tspan></tspan><tspan
         x="111.18568"
         y="128.98501"
         id="tspan10"><tspan
           style="font-family:Monospace;-inkscape-font-specification:Monospace"
           id="tspan9">participatory design
</tspan></tspan><tspan
         x="111.18568"
         y="133.56126"
         id="tspan12"><tspan
           style="font-family:Monospace;-inkscape-font-specification:Monospace"
           id="tspan11">qualitative methods</tspan></tspan></text><text
       xml:space="preserve"
       style="font-style:normal;font-variant:normal;font-weight:bold;font-stretch:normal;font-size:4.23333px;line-height:4.37444px;font-family:Georgia;-inkscape-font-specification:'Georgia Bold';text-align:center;writing-mode:lr-tb;direction:ltr;text-anchor:middle;fill:#ac3b61;fill-opacity:1;stroke-width:0.264582"
       x="175.35007"
       y="142.8732"
       id="text16-3-8"><tspan
         style="font-style:normal;font-variant:normal;font-weight:bold;font-stretch:normal;font-size:4.23333px;line-height:4.37444px;font-family:Georgia;-inkscape-font-specification:'Georgia Bold';fill:#ac3b61;fill-opacity:1;stroke-width:0.264582"
         x="175.35007"
         y="142.8732"
         id="tspan19-6-3">Sociotechnical Systems Design</tspan></text><text
       xml:space="preserve"
       style="font-size:3.52778px;line-height:4.5376px;text-align:center;writing-mode:lr-tb;direction:ltr;text-anchor:middle;white-space:pre;inline-size:58.4604;fill:#838383;fill-opacity:1;stroke-width:0.264583"
       x="174.18416"
       y="124.09119"
       id="text23-9-6"
       transform="translate(1.1651798,25.764981)"><tspan
         x="174.18416"
         y="124.09119"
         id="tspan14"><tspan
           style="font-family:Monospace;-inkscape-font-specification:Monospace"
           id="tspan13">responsible technologies
</tspan></tspan><tspan
         x="174.18416"
         y="128.66503"
         id="tspan16"><tspan
           style="font-family:Monospace;-inkscape-font-specification:Monospace"
           id="tspan15">community-centred design
</tspan></tspan><tspan
         x="174.18416"
         y="133.23887"
         id="tspan18"><tspan
           style="font-family:Monospace;-inkscape-font-specification:Monospace"
           id="tspan17">capacity building</tspan></tspan></text><text
       xml:space="preserve"
       style="font-style:normal;font-variant:normal;font-weight:normal;font-stretch:normal;font-size:3.88056px;line-height:4.0099px;font-family:Chalkduster;-inkscape-font-specification:Chalkduster;text-align:center;writing-mode:lr-tb;direction:ltr;text-anchor:middle;fill:#858585;fill-opacity:1;stroke-width:0.264582"
       x="113.61623"
       y="205.98611"
       id="text16-8"><tspan
         style="font-style:normal;font-variant:normal;font-weight:normal;font-stretch:normal;font-size:3.88056px;line-height:4.0099px;font-family:Monospace;-inkscape-font-specification:Monospace;fill:#858585;fill-opacity:1;stroke-width:0.264582"
         x="113.61623"
         y="205.98611"
         id="tspan19-5">Participatory Design for Responsible Technologies</tspan></text></g><g
     id="g1"
     transform="matrix(0.26458332,0,0,0.26458334,214.1392,-111.31044)"><path
       id="path3"
       style="opacity:0.6;fill:#ac3b61;fill-opacity:1;fill-rule:nonzero;stroke:none;stroke-width:0.00444269"
       d="m -526.20727,511.79016 c -0.015,0.0197 -0.0302,0.0397 -0.0448,0.0616 -0.22586,0.34064 -0.24724,0.81979 -0.0482,1.06933 0.52628,0.66301 1.05002,1.35469 1.55667,2.05573 0.0357,0.0493 0.077,0.0864 0.1215,0.11365 0.19336,0.11804 0.45457,0.0316 0.64414,-0.23741 0.0191,-0.0273 0.0365,-0.0553 0.0533,-0.0841 -0.0298,-0.0329 -0.0586,-0.0664 -0.0873,-0.1009 -0.0642,-0.0817 -0.14022,-0.14253 -0.2091,-0.21642 -0.0686,-0.0803 -0.13707,-0.16028 -0.19372,-0.25782 -0.0266,-0.0447 -0.0587,-0.0788 -0.094,-0.1099 -0.0635,-0.0635 -0.11596,-0.14549 -0.18069,-0.20731 -0.0672,-0.0514 -0.11672,-0.13288 -0.17855,-0.19279 -0.092,-0.0889 -0.17819,-0.18819 -0.26172,-0.29127 -0.0782,-0.11187 -0.15514,-0.22722 -0.22814,-0.34621 -0.0547,-0.0945 -0.12592,-0.16405 -0.18956,-0.24543 -0.0721,-0.0819 -0.12696,-0.18802 -0.19121,-0.28098 -0.0568,-0.10469 -0.11537,-0.20705 -0.17382,-0.3098 -0.0479,-0.087 -0.10009,-0.16939 -0.15897,-0.24158 -0.0521,-0.0496 -0.0917,-0.11674 -0.13586,-0.17817 z"
       inkscape:transform-center-x="-3.2252335"
       inkscape:transform-center-y="1.5309114" /><path
       id="path4"
       style="opacity:0.6;fill:#ac3b61;fill-opacity:1;fill-rule:nonzero;stroke:none;stroke-width:0.00444269"
       d="m -535.2765,503.11292 c -0.1349,-0.0822 -0.26963,-0.164 -0.40468,-0.24583 -0.16369,-0.0999 -0.32834,-0.19753 -0.49352,-0.29396 -0.16606,-0.0955 -0.33111,-0.19334 -0.50345,-0.27289 -0.18817,-0.0882 -0.38033,-0.16661 -0.55917,-0.27887 -0.16961,-0.10353 -0.33961,-0.20749 -0.50926,-0.3109 -0.18053,-0.11005 -0.3612,-0.22 -0.54189,-0.32963 -0.15865,-0.0969 -0.31666,-0.19343 -0.47732,-0.28554 -0.18465,-0.10539 -0.369,-0.21207 -0.55862,-0.3048 -0.20324,-0.10031 -0.41217,-0.18664 -0.60712,-0.30815 -0.20945,-0.12788 -0.41892,-0.25552 -0.62927,-0.38125 -0.23826,-0.14252 -0.47609,-0.28627 -0.71899,-0.41752 -0.24697,-0.13451 -0.49665,-0.26272 -0.74843,-0.38473 -0.2065,-0.11024 -0.40518,-0.23858 -0.61068,-0.35143 -0.16839,-0.0925 -0.3403,-0.17752 -0.51584,-0.25095 -0.23202,-0.0978 -0.4681,-0.18468 -0.69475,-0.29767 -0.14363,-0.0654 -0.28452,-0.13746 -0.42717,-0.20488 -0.0266,0.0491 -0.0495,0.10362 -0.0673,0.16092 -0.13615,0.40916 -0.0294,0.82689 0.23927,0.9328 l 3.3e-4,-7.2e-4 c 5.65479,2.23418 10.80322,5.83967 15.30461,10.71517 0.0266,0.0294 0.0556,0.0536 0.086,0.0721 0.21071,0.12867 0.49773,0.012 0.68439,-0.29826 0.0213,-0.0347 0.0402,-0.071 0.0571,-0.10802 -0.0599,-0.0566 -0.1221,-0.1093 -0.18494,-0.16042 -0.07,-0.053 -0.14228,-0.10346 -0.21495,-0.15092 -0.0781,-0.0628 -0.14416,-0.14612 -0.21934,-0.21432 -0.0577,-0.0511 -0.11948,-0.0945 -0.18188,-0.13569 -0.0873,-0.0749 -0.16861,-0.1618 -0.24383,-0.2573 -0.0416,-0.0546 -0.0782,-0.11734 -0.12591,-0.16228 -0.0672,-0.0863 -0.13553,-0.17049 -0.19949,-0.26135 -0.0811,-0.0949 -0.15345,-0.20137 -0.22428,-0.31102 -0.0659,-0.10345 -0.15169,-0.17697 -0.22953,-0.26161 -0.0855,-0.0979 -0.17632,-0.18584 -0.25847,-0.28913 -0.082,-0.10755 -0.14947,-0.23491 -0.23005,-0.34409 -0.0816,-0.11246 -0.16285,-0.22607 -0.24301,-0.34055 -0.0788,-0.1392 -0.17538,-0.25365 -0.26944,-0.37145 -0.0154,-0.0197 -0.0302,-0.0401 -0.0453,-0.0604 l -0.16369,-0.0999 -0.40094,-0.24479 -0.30174,-0.18422 -0.20998,-0.1282 -0.23892,-0.14587 -0.26208,-0.16 c -0.10974,-0.064 -0.21914,-0.12792 -0.32226,-0.20701 -0.13312,-0.10534 -0.25855,-0.22433 -0.38383,-0.3444 -0.11495,-0.12123 -0.22241,-0.25536 -0.32981,-0.38859 -0.0801,-0.0995 -0.12811,-0.20704 -0.15014,-0.31174 l -0.42243,-0.25791 -0.48858,-0.29829 c -0.13278,-0.081 -0.26566,-0.16222 -0.39845,-0.24326 -0.12044,-0.0734 -0.24083,-0.14714 -0.36128,-0.22057 z"
       inkscape:transform-center-x="-0.31294617"
       inkscape:transform-center-y="-0.93137791" /><path
       id="path5"
       style="opacity:0.6;fill:#ac3b61;fill-opacity:1;fill-rule:nonzero;stroke:none;stroke-width:0.00444269"
       inkscape:transform-center-x="1.4168247"
       inkscape:transform-center-y="2.0682205"
       d="m -559.20441,498.69891 c -0.91013,-0.001 -1.73278,0.0297 -2.45508,0.0762 -3.15902,0.20298 -5.09868,0.73341 -5.17969,0.75586 -0.61298,0.16991 -1.13854,0.87251 -1.31836,1.6875 0.0342,-0.0103 0.0711,-0.0177 0.10938,-0.0215 0.0497,-0.004 0.0987,-0.0239 0.14844,-0.0254 0.0677,-0.009 0.13868,-0.0235 0.20703,-0.0488 0.0801,-0.0274 0.17368,-0.0614 0.24414,-0.0781 0.0804,-0.0256 0.16003,-0.0488 0.24023,-0.0644 0.0523,-0.007 0.10814,-0.0292 0.16016,-0.0293 0.0833,-0.0239 0.16479,-0.0397 0.24805,-0.0605 0.10704,-0.0179 0.21715,-0.0432 0.31835,-0.0195 0.0891,0.0105 0.18025,0.0129 0.26758,0.0312 0.0901,-0.0293 0.17785,-0.0468 0.26758,-0.0664 l 0.002,-0.002 v -0.004 h 0.002 0.002 0.002 c 0.0381,-0.0106 0.16152,-0.002 0.19336,-0.006 h 0.002 l 0.002,-0.004 c 0.0621,-0.0333 0.14072,-0.0411 0.20898,-0.0547 0.0802,-0.0174 0.16156,-0.009 0.24219,-0.0391 0.11555,-0.0427 0.22871,-0.0305 0.34375,-0.0703 0.12261,-0.0391 0.24528,-0.0675 0.36719,-0.0879 0.14734,-0.0153 0.29431,-0.0347 0.43945,-0.0332 0.14732,-0.006 0.29178,0.006 0.43164,0.0371 0.0985,-7.2e-4 0.18881,0.0371 0.28516,0.0449 0.0971,0.018 0.19634,0.0222 0.29492,0.0332 0.11814,0.0234 0.23702,0.0422 0.35352,0.0723 0.0958,0.007 0.1866,0.0387 0.27929,0.0586 0.0534,-0.0144 0.10794,-0.0376 0.16016,-0.041 0.062,-0.009 0.12355,-0.0197 0.18555,-0.0312 0.0983,-0.0335 0.19515,-0.0573 0.29297,-0.0762 0.10363,-0.0165 0.20639,-0.0247 0.31054,-0.0469 0.063,-0.008 0.1259,-0.0146 0.18946,-0.0332 0.11021,-0.0433 0.2184,-0.0738 0.32812,-0.0899 0.10659,-0.026 0.2134,-0.0408 0.32031,-0.0859 0.12207,-0.0304 0.24343,-0.0686 0.36524,-0.0918 0.12544,-0.0337 0.2519,-0.0566 0.37695,-0.0801 0.0808,-0.006 0.16282,-0.0215 0.24414,-0.0332 0.10409,-0.0104 0.20452,-0.002 0.30664,0 0.0875,0.0143 0.17718,0.0187 0.26172,0.0449 0.10786,0.02 0.21677,0.0391 0.32227,0.0684 0.12311,0.0201 0.24639,0.0291 0.36914,0.0508 0.0414,0.004 0.084,0.01 0.125,0.0156 0.0349,-0.0939 0.0712,-0.18486 0.10742,-0.27734 l 0.002,-0.004 v -0.002 -0.004 l 0.002,-0.002 0.004,-0.004 h 0.002 l 0.002,-0.002 0.002,0.002 c 0.0125,0.003 0.0301,0.0174 0.043,0.0215 h 0.002 0.002 c 0.1575,0.036 0.32431,0.0366 0.4707,0.11328 0.15572,0.0863 0.31126,0.16943 0.4707,0.24609 0.24053,0.0512 0.48228,0.0985 0.72266,0.15039 0.0893,-0.18395 0.28968,-0.3258 0.55469,-0.28125 0.15542,0.0265 0.31016,0.052 0.46484,0.082 0.20187,0.0306 0.39902,0.0792 0.59961,0.11523 0.13984,0.0301 0.28044,0.0614 0.42383,0.0762 0.13823,0.0234 0.27593,0.043 0.41406,0.0664 0.12908,0.0221 0.25996,0.0466 0.38867,0.0703 0.13947,0.0276 0.27935,0.0452 0.41797,0.0762 0.13834,0.0235 0.27371,0.0536 0.41406,0.0684 0.17375,0.018 0.3407,0.0743 0.50977,0.11133 0.13403,0.0376 0.27101,0.0549 0.40625,0.0879 0.13226,0.0262 0.26583,0.0454 0.39844,0.0703 0.15469,0.0438 0.31265,0.0849 0.46679,0.13086 0.13183,0.0551 0.26863,0.0864 0.4043,0.12891 0.1296,0.0303 0.26095,0.0548 0.39453,0.0684 0.15612,-0.004 0.31104,-0.004 0.46289,0.0156 0.19062,0.0283 0.36851,0.10833 0.54297,0.18946 0.0987,0.0471 0.19509,0.0963 0.29102,0.15039 0.10329,0.0265 0.20692,0.0514 0.31054,0.0762 0.0917,0.0323 0.18332,0.053 0.2793,0.0684 0.0979,0.0197 0.20065,0.0276 0.29883,0.0469 0.1051,0.0225 0.20254,0.068 0.29883,0.11719 0.0854,0.0551 0.17876,0.0844 0.27148,0.11914 0.14946,0.0569 0.29543,0.12984 0.4375,0.20703 0.0252,0.0141 0.0488,0.0276 0.0742,0.041 0.0331,0.006 0.0669,0.0173 0.0996,0.0254 0.11227,0.0394 0.22821,0.0607 0.3418,0.0957 0.11214,0.0338 0.21828,0.0847 0.32421,0.13672 0.10557,0.0586 0.2097,0.11733 0.32032,0.16211 0.13768,0.0519 0.28047,0.0844 0.41992,0.13086 0.0886,0.0382 0.17779,0.066 0.27148,0.0859 0.10552,0.0239 0.21253,0.048 0.31641,0.0781 0.0367,0.0106 0.0693,0.0253 0.0996,0.041 0.0826,0.043 0.14191,0.10573 0.17969,0.17578 0.12525,0.0366 0.25379,0.0635 0.375,0.11328 0.12533,0.0471 0.24093,0.11726 0.35742,0.1875 0.12782,0.0706 0.25671,0.13902 0.39453,0.18164 0.17805,0.0791 0.35384,0.16483 0.51953,0.27539 0.13328,0.0813 0.26376,0.16224 0.39844,0.24024 0.12403,0.0729 0.24982,0.14398 0.37695,0.20898 0.18108,0.0931 0.36431,0.18161 0.54883,0.26563 0.15973,0.0816 0.31366,0.17632 0.46875,0.26953 l 0.47266,0.28711 0.54296,0.33203 0.44336,0.26953 c 0.14092,0.086 0.28289,0.17374 0.42383,0.25976 0.15867,0.0968 0.3218,0.17852 0.48047,0.27539 0.1423,0.0867 0.28522,0.17555 0.42773,0.26172 0.16872,0.10007 0.33567,0.20032 0.50586,0.29688 0.15008,0.0843 0.30077,0.17105 0.45508,0.24414 0.15627,0.0708 0.31875,0.12632 0.4668,0.21875 0.13776,0.0811 0.27712,0.15904 0.41797,0.23242 0.15377,0.0776 0.30838,0.14862 0.46484,0.21875 0.1946,0.0997 0.37707,0.22979 0.5625,0.35156 0.1791,0.11961 0.35484,0.24497 0.52735,0.37891 0.1557,0.12075 0.31311,0.23557 0.48242,0.32617 0.1539,0.094 0.30703,0.1924 0.45898,0.29102 0.14263,0.09 0.28314,0.18246 0.42188,0.28125 0.1262,0.0903 0.25036,0.18614 0.36523,0.29883 0.10419,0.0979 0.22054,0.16854 0.32813,0.25976 0.0754,0.0693 0.1423,0.15301 0.21875,0.21875 0.11601,0.0988 0.23074,0.20612 0.32617,0.33984 0.0939,0.14024 0.1802,0.28867 0.25586,0.45118 0.0319,0.0653 0.0666,0.12932 0.10156,0.1914 0.0199,0.0113 0.0428,0.0151 0.0625,0.0274 0.0317,0.0187 0.064,0.0392 0.0957,0.0586 0.0275,0.0166 0.0527,0.0323 0.0801,0.0488 0.0259,0.0159 0.0522,0.0309 0.0781,0.0469 l 0.0957,0.0586 c 0.0428,0.0232 0.0826,0.0516 0.11719,0.0918 0.0212,0.0262 0.0459,0.0453 0.0703,0.0664 0.0261,0.0187 0.0495,0.0447 0.0762,0.0625 0.0467,0.0211 0.0854,0.0596 0.12305,0.0996 0.0378,0.0387 0.0717,0.0861 0.10937,0.125 0.0384,0.0418 0.0761,0.084 0.11133,0.13086 0.0303,0.0458 0.0644,0.0864 0.0957,0.13086 0.0311,0.0391 0.0553,0.0881 0.084,0.13086 0.0294,0.0283 0.0546,0.0612 0.0801,0.0957 0.025,0.0324 0.0526,0.0582 0.0781,0.0898 0.0267,0.0352 0.0545,0.0676 0.0781,0.10743 0.007,0.012 0.0145,0.0246 0.0215,0.0371 0.0232,0.0245 0.0465,0.0471 0.0703,0.0703 0.0662,0.0522 0.13137,0.10862 0.18946,0.17578 0.0551,0.0603 0.11456,0.11552 0.1582,0.19336 0.0407,0.0697 0.0896,0.12597 0.12891,0.19726 0.0404,0.0716 0.0835,0.13915 0.12695,0.20704 0.0421,0.066 0.0849,0.12929 0.12695,0.19531 0.033,0.0562 0.0656,0.11546 0.10547,0.16211 0.0434,0.0505 0.0838,0.10862 0.12695,0.16015 0.004,0.006 0.008,0.0127 0.0137,0.0176 0.028,0.023 0.0558,0.0501 0.0859,0.0684 0.047,0.0316 0.093,0.0651 0.14063,0.0957 0.0396,0.0249 0.0773,0.0536 0.11719,0.0781 0.0311,0.0191 0.0625,0.0376 0.0937,0.0566 0.0402,0.0217 0.0774,0.0461 0.10937,0.084 0.014,0.0218 0.0305,0.0405 0.0488,0.0547 0.0282,0.0203 0.0546,0.0449 0.0801,0.0703 0.0227,0.0337 0.0451,0.0642 0.0664,0.0996 0.0117,0.0204 0.0262,0.0353 0.041,0.0508 0.0289,0.0249 0.0587,0.0479 0.082,0.082 0.0278,0.0301 0.0491,0.069 0.0742,0.10351 0.0306,0.0303 0.0533,0.0701 0.0801,0.10547 0.005,0.008 0.007,0.0116 0.008,0.0137 l 0.002,0.002 0.002,0.002 v 0.002 h 0.002 v 0.002 c 0.0507,0.0562 0.078,0.11622 0.0859,0.17773 0.0212,0.0159 0.0425,0.0347 0.0625,0.0527 0.0413,0.0354 0.0775,0.0802 0.11914,0.11524 0.0447,0.0406 0.0859,0.086 0.11719,0.14648 0.0224,0.0408 0.0433,0.0816 0.0664,0.1211 0.0331,0.0472 0.0655,0.0982 0.0977,0.14648 0.0266,0.0461 0.0553,0.0899 0.0859,0.13086 0.0417,0.0609 0.0787,0.12884 0.11914,0.19141 0.0315,0.0546 0.0656,0.10298 0.10351,0.14843 0.0437,0.0611 0.0824,0.1297 0.1211,0.19727 0.0372,0.065 0.074,0.12939 0.11328,0.19141 0.0376,0.0596 0.0717,0.1256 0.11328,0.17968 0.0448,0.0629 0.0873,0.12789 0.13281,0.18946 0.0423,0.0592 0.0815,0.12261 0.12891,0.17382 0.0584,0.0624 0.12066,0.11827 0.17968,0.17969 0.0435,0.052 0.0803,0.11281 0.11719,0.17383 0.032,0.0514 0.0664,0.0975 0.10156,0.14453 0.0394,0.052 0.0845,0.0965 0.1211,0.15235 0.0376,0.0557 0.0782,0.10775 0.10937,0.17187 0.0338,0.0566 0.0662,0.11468 0.0996,0.17188 0.0308,0.0551 0.0652,0.10463 0.10156,0.15234 0.0349,0.0476 0.0716,0.093 0.10352,0.14453 0.0373,0.0447 0.0741,0.087 0.11523,0.125 0.0499,0.0494 0.11265,0.0782 0.16016,0.13281 0.044,0.044 0.0843,0.0936 0.12891,0.13672 0.0398,0.0438 0.0771,0.0911 0.11719,0.13477 0.0388,0.046 0.0809,0.0872 0.12109,0.13086 0.0386,0.049 0.0763,0.0972 0.11328,0.14843 0.0322,0.0507 0.0633,0.10487 0.0937,0.15821 0.0298,0.0445 0.0574,0.0919 0.084,0.14062 0.0322,0.0466 0.0649,0.0932 0.0977,0.13867 0.0272,0.0446 0.0552,0.086 0.082,0.13086 0.0344,0.048 0.0683,0.10141 0.10352,0.14844 0.0404,0.0535 0.0823,0.10136 0.11328,0.16797 0.0303,0.0497 0.0584,0.10262 0.0898,0.15039 0.0425,0.058 0.0888,0.11259 0.13282,0.16797 0.0487,0.0659 0.096,0.13199 0.13476,0.21094 0.0141,0.0284 0.0277,0.0567 0.041,0.0859 0.12356,0.15674 0.24548,0.31577 0.35937,0.48633 0.121,0.18084 0.24026,0.36353 0.35938,0.54688 0.0882,0.13509 0.18212,0.26373 0.26757,0.40234 0.0801,0.12475 0.13248,0.27996 0.19532,0.42383 0.0682,0.15572 0.13289,0.31706 0.19531,0.47851 0.0722,0.19245 0.14418,0.38191 0.22461,0.56641 0.0672,0.15474 0.13497,0.31085 0.19726,0.4707 0.0232,0.0228 0.0454,0.0478 0.0684,0.0781 0.0914,0.12152 0.18679,0.23899 0.27344,0.36719 0.0654,0.10845 0.13839,0.20584 0.20508,0.3125 0.0746,0.0986 0.13777,0.21008 0.19336,0.33203 0.0553,0.13943 0.10159,0.2896 0.16016,0.42578 0.0568,0.13913 0.10451,0.28591 0.15625,0.42969 0.044,0.14185 0.10216,0.27038 0.15039,0.4082 0.0515,0.12655 0.0973,0.26037 0.14257,0.39258 0.0448,0.12726 0.0968,0.24376 0.13477,0.37695 0.0248,0.1054 0.0614,0.20156 0.0937,0.30078 0.0399,0.10801 0.072,0.22212 0.10547,0.33594 0.0262,0.0802 0.0491,0.16616 0.084,0.23828 0.0597,0.0918 0.10341,0.20643 0.14258,0.32031 0.0308,0.0924 0.0804,0.16234 0.11914,0.2461 0.0147,0.0391 0.0293,0.0792 0.0449,0.11718 0.0501,-0.008 0.10333,-0.004 0.15625,0.0254 0.0714,0.0378 0.14307,0.11254 0.20703,0.23243 0.0275,0.0502 0.0175,0.0283 0.0312,0.0625 0.057,0.0825 0.11664,0.16582 0.17188,0.25195 0.33612,0.52581 -0.0406,1.10515 -0.39844,0.82031 -0.23549,0.07 -0.48635,0.12115 -0.30078,0.30274 -0.0441,-0.0386 -0.0858,-0.0786 -0.12305,-0.12891 -0.047,-0.0665 -0.0475,-0.0833 -0.10546,-0.125 -0.0571,-0.0523 -0.11364,-0.10545 -0.16602,-0.16602 l -0.25391,-0.15625 c -0.0709,-0.0149 -0.13908,-0.0353 -0.20703,-0.0605 -0.0741,-0.0406 -0.15152,-0.0663 -0.23242,-0.084 -0.0725,-0.0293 -0.151,-0.03 -0.22852,-0.0391 -0.0303,-0.004 -0.0603,-0.01 -0.0898,-0.0176 -0.0367,-0.004 -0.072,-0.0137 -0.10742,-0.0254 -0.0143,-0.006 -0.0288,-0.012 -0.043,-0.0176 -0.0714,-10e-4 -0.13478,-0.041 -0.20508,-0.0449 -0.0774,-4e-4 -0.14755,-0.0344 -0.22461,-0.0352 -0.094,0.008 -0.17854,-0.0319 -0.26758,-0.0449 -0.0808,-0.008 -0.15878,-0.0248 -0.23632,-0.0469 -0.0547,-0.0216 -0.11581,-0.0193 -0.17383,-0.0293 h -0.002 c -0.008,-6.3e-4 -0.0241,-0.004 -0.043,-0.008 -0.17958,0.11271 -0.35218,0.13124 -0.52149,0.0703 -0.0617,0.004 -0.12295,0.007 -0.18359,0.004 -0.077,0.0569 -0.17552,0.0944 -0.29688,0.0996 -0.12104,0.004 -0.24113,-8.2e-4 -0.35937,-0.0137 -0.0937,-0.006 -0.1883,-0.002 -0.2832,0 -0.09,-0.006 -0.17788,-0.0149 -0.26758,-0.0215 -0.0665,0.0186 -0.13159,0.003 -0.19727,0.0117 -0.0604,0.004 -0.12386,0.0176 -0.18555,0.0332 -0.0812,0.0177 -0.16324,0.0374 -0.24414,0.0488 -0.0635,0.0156 -0.12907,0.0312 -0.19336,0.0449 -0.0612,0.0136 -0.13783,0.0253 -0.21875,0.041 -0.0886,0.02 -0.17719,0.0373 -0.26562,0.0547 -0.0662,0.004 -0.13263,0.0248 -0.19922,0.0371 -0.0792,0.0209 -0.1558,0.0279 -0.23242,0.0234 l -0.002,0.004 h -0.002 c -0.0233,0.007 -0.12558,0.0112 -0.14258,0.0137 -0.0618,0.0169 -0.14682,-0.0101 -0.18945,0 -0.10035,0.006 -0.20031,-7.8e-4 -0.29687,-0.0176 -0.0949,-0.006 -0.18894,-0.007 -0.28321,-0.0156 -0.0519,-0.009 -0.10566,-0.015 -0.1582,-0.0215 -0.0338,0.069 -0.065,0.1385 -0.0977,0.20899 -0.0548,0.13656 -0.11799,0.26342 -0.1875,0.38672 1.0402,0.25845 2.08078,0.51866 3.1211,0.77734 1.11632,0.2778 2.23297,0.55447 3.34961,0.83203 0.10306,-0.143 0.28191,-0.23102 0.50781,-0.17383 0.14073,0.0358 0.28731,0.0407 0.43359,0.0508 0.18802,0.004 0.3788,-0.0195 0.56836,-0.0273 0.16327,0.004 0.32469,0.0242 0.48242,0.0547 0.10934,0.0244 0.22356,0.0217 0.33985,0 0.1518,-0.0229 0.3032,-0.0662 0.45508,-0.0898 0.16241,-0.0249 0.321,-0.019 0.47656,0 0.2318,0.0178 0.46071,0.0486 0.6875,0.0898 0.0211,0.003 0.0361,0.006 0.0488,0.008 0.2378,-0.31184 0.41817,-0.68958 0.52343,-1.08789 -0.0948,-0.0754 -0.15735,-0.26186 -0.13281,-0.56641 0.005,-0.0615 -0.001,-0.11748 0.008,-0.17968 0.008,-0.0796 0.008,-0.13684 0.0117,-0.21485 0.005,-0.11328 0.0166,-0.22934 0.0176,-0.34179 0.007,-0.0853 0.007,-0.16864 0.006,-0.25196 l -0.002,-0.0117 c 2e-4,-0.008 4.5e-4,-0.0134 0,-0.0293 -0.002,-0.0546 -0.004,-0.1106 -0.004,-0.16602 v -0.004 -0.002 c -5.8e-4,-0.004 -0.003,-0.0129 -0.004,-0.0176 v -0.002 c 8.2e-4,-0.12454 0.008,-0.25066 0.0156,-0.37695 0.0197,-0.13479 0.0219,-0.26891 0.0547,-0.4043 0.0256,-0.11122 0.0446,-0.22483 0.0703,-0.33594 -0.1056,-3.25735 -0.20877,-6.51802 -0.31445,-9.77539 -0.0128,0.023 -0.0261,0.0455 -0.0391,0.0684 -0.0286,0.0469 -0.0324,0.061 -0.043,0.0977 -0.0685,0.14823 -0.0876,0.17766 -0.1543,0.29883 -0.0393,0.0757 -0.0729,0.14414 -0.12305,0.22461 -0.0368,0.0794 -0.0851,0.15093 -0.13476,0.22265 0.007,-0.0104 0.0113,-0.0152 0.0137,-0.0176 h 0.002 v 0.002 c -0.0136,0.0306 -0.10432,0.18242 -0.10742,0.1875 -0.003,0.004 -0.008,0.013 -0.0117,0.0195 0.0427,-0.0833 -0.057,0.10132 -0.0742,0.13281 -0.008,0.0121 -0.0152,0.024 -0.0234,0.0352 0.009,0.12755 0.007,0.25151 -0.0156,0.3789 -0.0162,0.10186 -0.0351,0.20327 -0.0684,0.30079 -0.002,0.0547 -0.006,0.18002 -0.01,0.1914 -0.011,0.12178 -0.0278,0.24342 -0.0684,0.35938 -0.007,0.0193 -0.0133,0.0337 -0.0176,0.043 -7.7e-4,0.0127 -0.002,0.0284 -0.004,0.0488 -0.004,0.0972 -0.0102,0.19457 -0.0234,0.29102 -0.0181,0.14743 -0.0377,0.29402 -0.0684,0.43945 -0.0191,0.0904 -0.0448,0.17035 -0.0762,0.24024 0.0271,0.0753 0.0517,0.15245 0.0664,0.23632 0.0204,0.11739 0.0415,0.23301 0.0566,0.35352 0.009,0.11179 0.0134,0.24049 0.004,0.3457 -8.2e-4,0.0891 0.005,0.17826 0.008,0.26563 0.002,0.0999 -0.001,0.20222 0.004,0.30078 0.006,0.12786 6.9e-4,0.26093 0.0156,0.38477 0.0109,0.1195 0.0194,0.23675 0.0234,0.35937 0.0122,0.11969 0.008,0.16524 0.0176,0.29297 6.9e-4,0.0895 -0.004,0.17785 -0.0117,0.26953 -0.002,0.0847 -0.003,0.13762 0.01,0.25391 -0.007,0.0891 0.002,0.1773 0,0.26562 0.004,0.1445 -0.001,0.28824 -0.0195,0.4375 h -0.004 c -8.9e-4,0.0359 0.006,0.16408 0.006,0.23633 -6.9e-4,0.0169 -3.5e-4,0.0345 -0.002,0.0527 -0.004,0.1025 -0.0108,0.20616 -0.0137,0.3086 0.0381,0.0719 0.067,0.16936 0.084,0.29687 0.0124,0.0922 0.0364,0.18054 0.041,0.27735 0.0164,0.16279 0.0325,0.32655 0.0332,0.49609 6.9e-4,0.14893 -0.0167,0.27595 -0.0449,0.38086 0.01,0.0399 0.0179,0.0836 0.0254,0.13086 0.0292,0.18519 0.01,0.39087 0.0293,0.58008 8.2e-4,0.0143 0.009,0.0325 0.0117,0.0469 0.10554,0.82249 -0.52191,1.16355 -0.63282,0.36914 -0.0807,0.12525 -0.15636,0.21177 -0.20117,0.17578 -0.0249,-0.0243 -0.0434,-0.0905 -0.0449,-0.21484 -8.2e-4,-0.11998 -5.8e-4,-0.11701 -0.006,-0.23242 -3.7e-4,-0.0285 -0.008,-0.14787 -0.006,-0.16406 -0.0127,-0.082 -0.0261,-0.16326 -0.041,-0.24414 -0.0107,-0.0561 -0.0234,-0.11189 -0.0371,-0.16602 -0.004,-0.008 -0.007,-0.0155 -0.008,-0.0195 -0.0394,-0.12403 -0.0654,-0.25735 -0.082,-0.39649 -0.007,-0.0961 -0.0155,-0.1962 -0.041,-0.28125 -0.0461,-0.11214 -0.0518,-0.25232 -0.0801,-0.37695 -0.0239,-0.11295 -0.0415,-0.23165 -0.082,-0.33203 -0.0123,-0.0313 -0.0217,-0.0658 -0.0312,-0.0996 -0.0686,-0.0272 -0.1356,-0.0625 -0.19922,-0.10547 -0.0737,-0.0568 -0.14435,-0.12045 -0.20899,-0.19336 -0.074,-0.0872 -0.0954,-0.22758 -0.14453,-0.34179 -0.0539,-0.11135 -0.0876,-0.24551 -0.13476,-0.36329 -0.0503,-0.13137 -0.10314,-0.25708 -0.14258,-0.39843 -0.0361,-0.12669 -0.0759,-0.24801 -0.11133,-0.375 -0.0215,-0.0265 -0.0436,-0.0547 -0.0644,-0.082 -0.1659,-0.21794 -0.18485,-0.46344 -0.12305,-0.64649 v -0.004 h -0.002 c -3.56511,-6.37298 -7.76017,-11.62404 -12.51367,-15.65429 -4.77285,-4.04657 -10.11242,-6.87612 -15.87305,-8.41016 -3.84482,-1.02418 -7.3497,-1.31641 -10.08008,-1.32031 z m 40.70313,13.42383 c -0.0118,7.2e-4 -0.0233,0.003 -0.0352,0.004 v 0.002 h -0.002 v 0.004 h -0.002 l -0.002,0.002 v 0.004 c 0.0147,-0.004 0.0302,-0.009 0.0449,-0.0137 z m -1.04883,12.2207 c -0.0127,0.0171 -0.0274,0.0338 -0.041,0.0488 0.007,0.0147 0.0143,0.0299 0.0215,0.0449 h 0.002 l -0.002,0.004 h 0.002 v 0.004 c 0.007,0.0177 0.0144,0.0342 0.0234,0.0508 0.006,0.0111 0.0129,0.0238 0.0195,0.0332 -0.008,-0.062 -0.0165,-0.12384 -0.0254,-0.18555 z m -2.38672,2.88281 c -0.002,0.0216 -0.003,0.0428 -0.006,0.0645 0.0115,-0.004 0.0208,-0.004 0.0312,-0.004 -0.007,-0.0193 -0.0157,-0.038 -0.0234,-0.0566 v -0.004 z m -0.76758,0.46094 c -0.003,0.0169 -0.005,0.0316 -0.008,0.0391 l -0.002,0.002 v 0.002 c 0.002,0.009 0.002,0.0144 0.004,0.0215 0.005,-0.0244 0.006,-0.0412 0.01,-0.0625 h -0.002 z m -9.02734,0.88477 c -0.0243,0.006 -0.057,0.0187 -0.0684,0.0254 h -0.002 v 0.002 c 0.0243,0.008 0.0473,-0.003 0.0703,-0.0273 z m 10.46875,0.53906 c -0.002,0.0164 -0.008,0.0332 -0.01,0.0488 0.0114,0.004 0.0218,0.01 0.0332,0.0137 -0.007,-0.0209 -0.0154,-0.0431 -0.0234,-0.0625 z m -7.65625,0.98633 c -0.0127,0.008 -0.0265,0.0135 -0.0391,0.0215 -0.007,0.0102 -0.0126,0.0213 -0.0195,0.0312 0.0137,7.3e-4 0.028,-8.2e-4 0.0391,-0.0137 0.007,-10e-4 0.0143,-0.004 0.0215,-0.006 -4.3e-4,-0.0114 -0.002,-0.0222 -0.002,-0.0332 z" /><path
       id="path5-6"
       style="opacity:0.6;fill:#ac3b61;fill-opacity:1;fill-rule:nonzero;stroke:none;stroke-width:0.00354089"
       d="m -565.01191,593.75771 c -0.005,0.008 -0.007,0.0154 -0.0111,0.0233 l -9.1e-4,2.9e-4 0.002,10e-4 -9.1e-4,2.8e-4 0.002,10e-4 -1.8e-4,10e-4 0.002,10e-4 0.002,10e-4 c 0.002,-0.0104 0.005,-0.0209 0.007,-0.0317 z m 2.23556,0.24554 c 0.0227,0.051 0.0406,0.10168 0.0559,0.15227 0.016,0.0538 0.0427,0.1088 0.0665,0.16331 l 0.002,10e-4 -2e-4,10e-4 c 0.0205,0.0236 0.0397,0.0476 0.0566,0.0714 0.0111,0.006 0.0217,0.0111 0.0331,0.0162 0.0645,0.0295 0.12947,0.0531 0.19536,0.0786 0.095,0.0417 0.1383,0.0624 0.21723,0.0986 0.0585,0.0257 0.10903,0.0583 0.18011,0.0823 0.0846,0.0348 0.17081,0.0636 0.25644,0.10145 0.0893,0.0489 0.14434,0.0728 0.2371,0.12317 0.10779,0.0585 0.20073,0.13116 0.29157,0.20364 0.0604,0.0541 0.0881,0.0718 0.14339,0.10601 0.08,0.0484 0.15314,0.10238 0.22592,0.1567 0.0205,0.0189 0.048,0.0355 0.072,0.0538 0.009,0.005 0.0227,0.0155 0.0307,0.0195 0.0776,0.0512 0.12776,0.0734 0.21361,0.12242 0.10274,0.0608 0.19603,0.13134 0.28597,0.20232 0.0503,0.0337 0.0953,0.0549 0.14982,0.0828 0.0803,0.0385 0.155,0.0928 0.23743,0.12705 0.10767,0.0552 0.21474,0.11146 0.32064,0.16947 0.0587,0.0258 0.13993,0.0917 0.20827,0.125 0.18859,0.053 0.37683,0.10578 0.56536,0.15797 0.16574,0.0502 0.33036,0.0933 0.49606,0.13712 0.15335,0.0384 0.3064,0.0853 0.45902,0.13886 0.12859,0.0401 0.25667,0.0826 0.38548,0.11596 0.0899,0.0305 0.18276,0.0455 0.27096,0.0602 0.12136,0.0141 0.24108,0.0168 0.36622,0.0446 0.10458,0.023 0.20837,0.0444 0.31302,0.0725 0.0952,0.0288 0.20323,0.0652 0.28539,0.10374 0.0728,0.0279 0.14573,0.0548 0.2183,0.0802 0.0828,0.0294 0.16549,0.0624 0.24816,0.0898 0.1073,0.0355 0.21392,0.08 0.3215,0.10858 0.10237,0.0298 0.20322,0.0611 0.30537,0.0962 0.10298,0.0292 0.13752,0.0453 0.24612,0.0785 0.0736,0.0271 0.14705,0.0547 0.21917,0.0875 0.0686,0.0273 0.10817,0.0467 0.20868,0.0743 0.0702,0.0317 0.14704,0.0535 0.2187,0.0818 0.12013,0.0419 0.23562,0.0898 0.35066,0.14688 l -9.1e-4,3e-4 -0.004,-7e-4 -0.004,-6.9e-4 -0.002,-10e-4 -9.1e-4,2.9e-4 -0.002,-10e-4 -9.1e-4,2.9e-4 -9.1e-4,3e-4 c 0.0181,0.008 0.14555,0.0506 0.20869,0.0743 0.0136,0.006 0.0282,0.0112 0.0426,0.0176 0.0824,0.0339 0.16529,0.0704 0.24808,0.10373 0.0743,-10e-4 0.16597,0.009 0.27736,0.0373 0.0805,0.0209 0.16191,0.0332 0.24311,0.06 0.14013,0.0396 0.28189,0.0794 0.42117,0.13097 0.12235,0.0453 0.21925,0.0943 0.29388,0.1441 0.0367,0.006 0.0772,0.0135 0.11914,0.0229 0.16356,0.0387 0.3252,0.11304 0.48815,0.159 0.0123,0.003 0.0266,0.009 0.0397,0.011 0.71681,0.18658 0.74493,0.68282 0.049,0.50823 0.11223,0.14211 0.15392,0.24358 -0.13139,0.13993 -0.0987,-0.0363 -0.0951,-0.0361 -0.19153,-0.0686 -0.0234,-0.009 -0.12358,-0.0408 -0.13605,-0.0471 -0.0724,-0.0172 -0.14544,-0.0344 -0.21761,-0.0502 -0.0502,-0.0106 -0.10114,-0.02 -0.15113,-0.0277 -0.009,10e-5 -0.0146,-6e-4 -0.0181,-10e-4 -0.11754,-0.0135 -0.23777,-0.0382 -0.35852,-0.0706 -0.0818,-0.0248 -0.16734,-0.0497 -0.24736,-0.0599 -0.11051,-0.006 -0.22814,-0.046 -0.34173,-0.0666 -0.10237,-0.0195 -0.20604,-0.0445 -0.30456,-0.0503 -0.0305,-0.002 -0.063,-0.006 -0.0946,-0.0107 -0.0499,0.0344 -0.10582,0.0643 -0.16662,0.0908 -0.0763,0.0285 -0.15694,0.0531 -0.24277,0.071 -0.10126,0.0194 -0.22556,-0.009 -0.33898,-0.0136 -0.11297,-5.3e-4 -0.23554,-0.0211 -0.35112,-0.0278 -0.12798,-0.009 -0.25289,-0.0149 -0.38469,-0.0337 -0.1184,-0.0163 -0.23407,-0.0284 -0.35247,-0.0453 -0.0303,0.006 -0.0618,0.01 -0.0926,0.0145 -0.24555,0.0366 -0.45521,-0.0258 -0.58035,-0.12053 l -0.002,-10e-4 -9.1e-4,2.9e-4 c -6.6619,0.26877 -12.6577,1.27559 -17.8782,3.00477 -5.24169,1.73625 -9.71447,4.20005 -13.29466,7.32364 -3.1864,2.77959 -5.06212,5.57973 -6.07461,7.4395 -1.10729,2.03335 -1.45461,3.40614 -1.46881,3.46359 -0.10792,0.43461 0.257,0.97848 0.85262,1.34077 0.005,-0.0245 0.0139,-0.0498 0.0263,-0.0748 0.0171,-0.0321 0.0205,-0.07 0.0392,-0.10144 0.0197,-0.0451 0.0358,-0.0931 0.0427,-0.14351 0.01,-0.0584 0.02,-0.12681 0.0347,-0.17589 0.0111,-0.058 0.0238,-0.11523 0.0434,-0.17005 0.0153,-0.0348 0.0204,-0.0761 0.0413,-0.10856 0.0141,-0.0593 0.0348,-0.11557 0.0514,-0.17389 0.0281,-0.0724 0.0509,-0.14887 0.11113,-0.20475 0.0445,-0.0524 0.0839,-0.10851 0.13405,-0.15739 0.0123,-0.0652 0.0343,-0.1255 0.0544,-0.1875 l -0.002,-10e-4 -0.002,-10e-4 2e-4,-0.001 1.9e-4,-10e-4 9.1e-4,-3e-4 c 0.007,-0.0288 0.071,-0.11013 0.0745,-0.12465 l -0.002,-10e-4 c -10e-4,-0.0489 0.0233,-0.10126 0.0397,-0.14801 0.0181,-0.0553 0.0571,-0.10258 0.0646,-0.16225 0.0111,-0.0852 0.0672,-0.15259 0.081,-0.23659 0.0174,-0.0885 0.0429,-0.1737 0.0752,-0.25602 0.0469,-0.0966 0.0906,-0.19415 0.15038,-0.28424 0.0545,-0.0938 0.12272,-0.18051 0.20496,-0.25811 0.0392,-0.0617 0.10631,-0.10609 0.15157,-0.1638 0.0539,-0.0551 0.0978,-0.11548 0.14653,-0.1736 0.0669,-0.0666 0.12954,-0.13641 0.20122,-0.19985 0.0444,-0.0576 0.10669,-0.10431 0.16041,-0.15604 0.01,-0.0377 0.0131,-0.0782 0.0313,-0.11184 0.0176,-0.0414 0.0343,-0.0824 0.0491,-0.1249 0.0123,-0.0716 0.0318,-0.13945 0.0557,-0.20629 0.0282,-0.0697 0.0618,-0.13703 0.0858,-0.20874 0.0192,-0.0417 0.0393,-0.0832 0.0496,-0.12855 0.009,-0.0821 0.0281,-0.15875 0.0592,-0.23213 0.0213,-0.0745 0.0539,-0.14569 0.0597,-0.22631 0.0243,-0.0855 0.0411,-0.17292 0.0713,-0.25603 0.0229,-0.0886 0.055,-0.17398 0.0861,-0.25922 0.0275,-0.0523 0.047,-0.10848 0.0705,-0.16274 0.0332,-0.0682 0.0816,-0.12802 0.12425,-0.19122 0.047,-0.0502 0.0873,-0.10492 0.14289,-0.14962 0.0599,-0.0611 0.11828,-0.12305 0.18477,-0.17989 0.066,-0.0707 0.12432,-0.14554 0.19165,-0.21546 0.02,-0.0245 0.0421,-0.0491 0.0633,-0.0729 -0.0629,-0.0506 -0.12321,-0.10165 -0.18438,-0.15266 l -0.002,-10e-4 -0.002,-10e-4 -0.002,-0.001 -0.002,-10e-4 9.2e-4,-3e-4 -9.2e-4,-0.004 2.1e-4,-10e-4 1.8e-4,-0.001 9.2e-4,-2.9e-4 9.1e-4,-2.9e-4 c 0.009,-0.008 0.0303,-0.0138 0.0369,-0.0219 0.093,-0.0872 0.16024,-0.19134 0.28206,-0.25917 0.13353,-0.0707 0.26419,-0.14331 0.39133,-0.21928 0.13894,-0.13436 0.27622,-0.27021 0.41565,-0.40428 -0.11483,-0.11216 -0.15053,-0.28 -0.007,-0.43168 0.0844,-0.0888 0.16703,-0.17841 0.25397,-0.26572 0.10656,-0.11655 0.22625,-0.22379 0.33665,-0.3379 0.081,-0.078 0.16246,-0.15627 0.23241,-0.2412 0.0749,-0.0791 0.14677,-0.15899 0.22169,-0.23798 0.0702,-0.0738 0.14336,-0.14753 0.2147,-0.22056 0.0788,-0.0785 0.14991,-0.16165 0.23118,-0.23864 0.075,-0.0791 0.15434,-0.15369 0.22309,-0.23671 0.0848,-0.10288 0.19681,-0.18955 0.29531,-0.28369 0.0849,-0.0721 0.15462,-0.15272 0.23624,-0.22697 0.0747,-0.0745 0.14586,-0.1519 0.2197,-0.22701 0.0983,-0.0831 0.19388,-0.16864 0.29373,-0.2507 0.0984,-0.0654 0.18084,-0.14166 0.27041,-0.21326 0.0771,-0.0716 0.1494,-0.14525 0.21444,-0.22441 0.0597,-0.0986 0.12234,-0.19552 0.19994,-0.2841 0.10003,-0.11025 0.2359,-0.1969 0.37275,-0.28086 0.0784,-0.0471 0.15898,-0.0918 0.24198,-0.13506 0.0634,-0.0564 0.12472,-0.11376 0.18684,-0.1708 0.0635,-0.0473 0.11754,-0.0989 0.16878,-0.15408 0.0556,-0.055 0.10385,-0.11622 0.1592,-0.17156 0.0608,-0.0587 0.13678,-0.10566 0.21595,-0.15064 0.0795,-0.0364 0.14188,-0.0853 0.20771,-0.13254 0.10693,-0.0758 0.22468,-0.14413 0.34524,-0.20908 0.0217,-0.0114 0.0438,-0.0217 0.065,-0.0335 0.0183,-0.0188 0.0395,-0.0368 0.0593,-0.0548 0.0776,-0.0579 0.14297,-0.12356 0.21746,-0.1837 0.073,-0.0596 0.15734,-0.11145 0.24266,-0.16159 0.0906,-0.0479 0.18161,-0.0939 0.26292,-0.14922 0.098,-0.07 0.18234,-0.1495 0.27665,-0.22226 0.0671,-0.0436 0.12519,-0.0907 0.17928,-0.14303 0.0622,-0.0585 0.12555,-0.11783 0.19207,-0.17342 0.0234,-0.0196 0.0483,-0.0355 0.0734,-0.0496 0.0686,-0.0383 0.14351,-0.056 0.21616,-0.0581 0.0805,-0.0669 0.15429,-0.13809 0.24398,-0.19844 0.0892,-0.0638 0.19297,-0.11478 0.29752,-0.16591 0.1094,-0.0581 0.21749,-0.11818 0.30801,-0.1911 0.13662,-0.0868 0.27795,-0.16906 0.43538,-0.23851 0.12037,-0.0582 0.24056,-0.11532 0.35881,-0.17543 0.10977,-0.055 0.21739,-0.11224 0.32194,-0.17161 0.14933,-0.0844 0.29588,-0.17121 0.43915,-0.26056 0.13129,-0.0746 0.27104,-0.14197 0.40998,-0.21013 l 0.42683,-0.20622 0.49063,-0.23705 0.40023,-0.19336 c 0.12733,-0.0615 0.25561,-0.12346 0.38295,-0.18501 0.14332,-0.0693 0.27722,-0.146 0.4206,-0.21528 0.12847,-0.0622 0.25752,-0.12382 0.38562,-0.1863 0.15006,-0.0746 0.30091,-0.14848 0.44867,-0.22504 0.12964,-0.0678 0.26037,-0.13507 0.38252,-0.20892 0.12099,-0.0758 0.23206,-0.15989 0.36753,-0.22389 0.12198,-0.0611 0.2422,-0.12423 0.35914,-0.1896 0.12562,-0.0721 0.24566,-0.14714 0.36622,-0.22325 0.1602,-0.0908 0.34057,-0.16436 0.51515,-0.2427 0.17028,-0.075 0.3449,-0.14642 0.52426,-0.21296 0.16177,-0.0601 0.31917,-0.12305 0.46171,-0.20089 0.1391,-0.0672 0.28147,-0.13184 0.42358,-0.19639 0.13129,-0.0614 0.26448,-0.12158 0.40141,-0.17784 0.12491,-0.051 0.25216,-0.0993 0.39085,-0.13644 0.12222,-0.035 0.22803,-0.0858 0.34618,-0.12496 0.0872,-0.0257 0.18308,-0.0414 0.2678,-0.0689 0.12778,-0.0421 0.26081,-0.0803 0.40891,-0.0988 0.15283,-0.0156 0.31044,-0.0243 0.47418,-0.0216 0.0663,1.6e-4 0.13192,-0.001 0.19693,-0.004 0.0174,-0.009 0.0291,-0.0225 0.0471,-0.0309 0.028,-0.014 0.058,-0.028 0.0866,-0.0417 0.0247,-0.0121 0.0486,-0.0234 0.0731,-0.0354 0.0234,-0.0113 0.0469,-0.0228 0.0705,-0.034 l 0.0863,-0.0418 c 0.0363,-0.0195 0.0752,-0.0357 0.1221,-0.0448 0.0301,-0.005 0.0551,-0.015 0.0823,-0.0237 0.0259,-0.0106 0.058,-0.017 0.0834,-0.0282 0.0361,-0.0227 0.0823,-0.0355 0.13021,-0.0468 0.047,-0.0118 0.0996,-0.017 0.14672,-0.0286 0.0498,-0.0111 0.0997,-0.0216 0.15226,-0.0292 0.0497,-0.005 0.0969,-0.0143 0.14599,-0.0202 0.0447,-0.007 0.0945,-0.007 0.14118,-0.0118 0.035,-0.01 0.0714,-0.0156 0.11014,-0.021 0.0366,-0.006 0.0699,-0.0147 0.10606,-0.021 0.0396,-0.006 0.0779,-0.0132 0.12013,-0.0158 0.0126,-6.1e-4 0.0255,-0.002 0.0385,-0.003 0.0294,-0.007 0.058,-0.014 0.0865,-0.0218 0.0694,-0.0253 0.1414,-0.0483 0.21986,-0.0639 0.0717,-0.0159 0.14026,-0.0373 0.22167,-0.0407 0.0735,-0.004 0.14075,-0.0166 0.21504,-0.0193 0.0749,-0.003 0.14766,-0.01 0.22083,-0.0161 0.071,-0.006 0.1399,-0.0133 0.21094,-0.0193 0.0593,-0.003 0.12099,-0.006 0.1753,-0.0162 0.0588,-0.0115 0.12149,-0.0181 0.18116,-0.0291 0.007,-5.2e-4 0.0143,-0.001 0.0205,-0.003 0.0301,-0.0104 0.064,-0.0188 0.0911,-0.032 0.0449,-0.0196 0.0905,-0.0387 0.13483,-0.059 0.0365,-0.017 0.0746,-0.032 0.11075,-0.0494 0.0282,-0.0136 0.057,-0.0275 0.0851,-0.0411 0.034,-0.0184 0.0686,-0.034 0.11261,-0.0423 0.0234,-0.002 0.0462,-0.006 0.0652,-0.0133 0.028,-0.0113 0.0577,-0.0207 0.0888,-0.0288 0.0368,-0.004 0.0719,-0.008 0.10952,-0.0106 0.0216,-10e-4 0.0386,-0.005 0.0572,-0.009 0.0321,-0.0104 0.0628,-0.022 0.10002,-0.0261 0.0359,-0.008 0.0763,-0.0101 0.11482,-0.0152 0.0372,-0.01 0.0802,-0.0118 0.12001,-0.0177 0.009,-6.9e-4 0.0126,-6e-4 0.0148,-6.9e-4 l 9.1e-4,-3e-4 c 9.1e-4,-2.8e-4 0.004,1.8e-4 0.007,-10e-4 0.0665,-0.0144 0.12712,-0.0127 0.18073,10e-4 0.0216,-0.008 0.0445,-0.0153 0.0673,-0.0223 0.0456,-0.0149 0.0977,-0.0237 0.1432,-0.0389 0.0513,-0.0154 0.10521,-0.0275 0.16747,-0.0285 0.0424,-10e-4 0.0848,-0.002 0.12652,-0.005 0.0519,-0.006 0.10619,-0.011 0.15873,-0.0163 0.0485,-0.003 0.0966,-0.006 0.14253,-0.0125 0.0667,-0.007 0.13669,-0.01 0.20427,-0.0161 0.0575,-0.003 0.1115,-0.009 0.16406,-0.0188 0.0677,-0.008 0.1389,-0.0113 0.20993,-0.0148 0.0682,-0.003 0.13657,-0.006 0.20326,-0.0116 0.064,-0.005 0.13072,-0.007 0.19184,-0.0161 0.0696,-0.009 0.14163,-0.0156 0.21045,-0.0252 0.0656,-0.008 0.13272,-0.0133 0.19381,-0.0271 0.0747,-0.0173 0.14489,-0.0395 0.21903,-0.0574 0.0601,-0.0112 0.12534,-0.0151 0.19023,-0.0194 0.055,-0.004 0.10705,-0.0113 0.1599,-0.0189 0.0585,-0.009 0.11235,-0.0235 0.17289,-0.0292 0.0608,-0.006 0.12,-0.0151 0.18509,-0.0149 0.0601,-0.003 0.12099,-0.006 0.18138,-0.009 0.0576,-0.002 0.11174,-0.01 0.16551,-0.0175 0.053,-0.007 0.10607,-0.0154 0.16121,-0.0195 0.0517,-0.01 0.10138,-0.0198 0.14912,-0.0338 0.0606,-0.016 0.10804,-0.046 0.17199,-0.059 0.0538,-0.014 0.11051,-0.0242 0.16392,-0.0389 0.0519,-0.0114 0.10558,-0.0202 0.15755,-0.0318 0.0534,-0.0101 0.10397,-0.0233 0.15594,-0.035 0.0557,-0.009 0.11211,-0.0179 0.16909,-0.0253 0.0544,-0.005 0.11026,-0.007 0.16621,-0.01 0.0485,-0.005 0.0989,-0.008 0.14956,-0.01 0.0512,-0.006 0.10262,-0.0111 0.15311,-0.0175 0.0476,-0.003 0.0936,-0.009 0.14116,-0.0118 0.0532,-0.007 0.11002,-0.0106 0.16276,-0.0182 0.0602,-0.009 0.11618,-0.0212 0.18326,-0.02 0.053,-0.003 0.10742,-0.006 0.15921,-0.0104 0.0648,-0.009 0.12897,-0.0199 0.19211,-0.0304 0.0738,-0.0102 0.14715,-0.0193 0.22748,-0.0193 0.0291,-3e-4 0.0576,-2.7e-4 0.087,3.7e-4 0.17829,-0.029 0.35744,-0.0563 0.54317,-0.0751 0.19704,-0.02 0.39453,-0.0387 0.59288,-0.0567 0.14628,-0.0136 0.29,-0.0316 0.43808,-0.0424 0.13457,-0.0117 0.28348,0.002 0.42677,0.007 0.15518,0.005 0.31199,0.0144 0.46951,0.025 0.18688,0.014 0.37206,0.0272 0.55573,0.0337 0.15395,0.006 0.30892,0.0109 0.46507,0.0211 0.028,-0.008 0.0583,-0.0134 0.0925,-0.0185 0.13645,-0.0197 0.2707,-0.0427 0.41073,-0.0574 0.11532,-0.008 0.22387,-0.0236 0.33818,-0.0325 0.11088,-0.0163 0.22928,-0.0216 0.35166,-0.0188 0.13661,0.008 0.27676,0.0254 0.41201,0.0306 0.13696,0.007 0.27642,0.0233 0.41514,0.0351 0.13404,0.0161 0.26303,0.0184 0.39546,0.0305 0.12449,0.007 0.25244,0.0201 0.37905,0.0325 0.12235,0.0111 0.23933,0.0146 0.36385,0.0318 0.0964,0.0167 0.19098,0.0231 0.28535,0.0334 0.10459,0.008 0.21061,0.0239 0.31742,0.038 0.0762,0.008 0.15596,0.0199 0.22916,0.0202 0.0993,-0.009 0.21016,-10e-4 0.3193,0.009 0.0882,0.009 0.16685,10e-6 0.25114,10e-4 0.0381,0.003 0.0762,0.006 0.11371,0.007 0.0136,-0.0337 0.0389,-0.0649 0.084,-0.089 0.0597,-0.033 0.15011,-0.0548 0.27417,-0.0579 0.0523,-10e-4 0.0299,-0.002 0.0635,-3.9e-4 0.0906,-0.0103 0.182,-0.022 0.27488,-0.0301 0.56657,-0.0483 0.88956,0.36429 0.51178,0.50015 -0.0375,0.16842 -0.0958,0.34076 0.1279,0.2807 -0.0495,0.0156 -0.0995,0.0292 -0.15575,0.037 -0.0735,0.009 -0.0879,0.005 -0.14541,0.028 -0.066,0.0195 -0.13211,0.0376 -0.20287,0.0517 l -0.23005,0.11113 c -0.0408,0.0397 -0.0855,0.0762 -0.13355,0.11081 -0.0633,0.0338 -0.11483,0.0735 -0.1619,0.11851 -0.0533,0.0362 -0.0863,0.0854 -0.12506,0.13094 -0.016,0.0176 -0.0313,0.0344 -0.0498,0.0503 -0.0176,0.0218 -0.0406,0.0407 -0.0645,0.0592 -0.0111,0.007 -0.021,0.0142 -0.0313,0.0213 -0.0296,0.0442 -0.0893,0.0721 -0.12087,0.11475 -0.0316,0.0482 -0.0866,0.0818 -0.1184,0.12962 -0.0312,0.0611 -0.0976,0.10066 -0.14407,0.15223 -0.0391,0.048 -0.0852,0.0918 -0.13462,0.13343 -0.0397,0.0275 -0.0628,0.0668 -0.0944,0.1 -0.002,0.004 -0.0111,0.0138 -0.0239,0.0259 0.02,0.14664 -0.0343,0.25876 -0.15238,0.34576 -0.0213,0.0398 -0.0439,0.0789 -0.0708,0.11582 0.0157,0.0655 0.006,0.1387 -0.0385,0.21603 -0.0455,0.0768 -0.0974,0.1502 -0.15544,0.22011 -0.0427,0.0566 -0.0783,0.11635 -0.1147,0.17626 -0.0412,0.0543 -0.0837,0.10745 -0.12537,0.16139 -0.0123,0.0471 -0.0506,0.083 -0.0701,0.12662 -0.021,0.0389 -0.0348,0.0821 -0.0474,0.12527 -0.0185,0.056 -0.0355,0.11343 -0.0587,0.16742 -0.0127,0.0444 -0.026,0.0901 -0.0407,0.13441 -0.0137,0.0423 -0.0352,0.0939 -0.0544,0.14936 -0.0197,0.0613 -0.0418,0.12114 -0.0633,0.18163 -0.0234,0.0426 -0.0321,0.091 -0.0491,0.13633 -0.0146,0.0558 -0.0406,0.10668 -0.0751,0.15312 l 0.002,10e-4 -1.8e-4,10e-4 c -0.004,0.0166 -0.0417,0.0817 -0.0464,0.0931 -0.0111,0.0437 -0.0686,0.0886 -0.0775,0.11826 -0.0354,0.0644 -0.0811,0.12432 -0.13364,0.17946 -0.0432,0.0574 -0.0823,0.1162 -0.12726,0.17239 -0.0284,0.0296 -0.0548,0.0608 -0.0811,0.0916 0.0429,0.0423 0.0877,0.0834 0.13228,0.12546 0.0899,0.0761 0.16863,0.15458 0.24168,0.23579 0.63127,-0.56973 1.26261,-1.13914 1.89412,-1.70886 0.67782,-0.61128 1.35561,-1.22301 2.03337,-1.83457 -0.0756,-0.10819 -0.0756,-0.24721 0.0624,-0.37062 0.0861,-0.0768 0.14874,-0.16736 0.21603,-0.25552 0.0791,-0.11609 0.13793,-0.24162 0.20793,-0.3623 0.0692,-0.10063 0.15017,-0.19546 0.23874,-0.28452 0.064,-0.0608 0.10779,-0.13191 0.13684,-0.21112 0.0424,-0.10175 0.0677,-0.21085 0.10964,-0.31284 0.045,-0.10897 0.11396,-0.20514 0.1922,-0.29637 0.10804,-0.13917 0.22583,-0.27243 0.35105,-0.40129 0.0111,-0.0122 0.0201,-0.0216 0.0268,-0.0289 -0.15977,-0.24407 -0.39727,-0.47206 -0.68137,-0.65998 -0.10002,0.036 -0.27757,0.0183 -0.51734,-0.0905 -0.0485,-0.022 -0.0979,-0.0362 -0.14546,-0.0606 -0.062,-0.0295 -0.11026,-0.0451 -0.17258,-0.0715 -0.0909,-0.0378 -0.18065,-0.0811 -0.27245,-0.11616 -0.0671,-0.0305 -0.13598,-0.0556 -0.20469,-0.0805 l -0.01,-0.003 c -0.006,-0.002 -0.0111,-0.004 -0.024,-0.009 -0.0456,-0.0154 -0.0921,-0.0314 -0.13753,-0.0484 l -0.002,-10e-4 -9.1e-4,3e-4 c -0.005,-0.002 -0.0111,-0.004 -0.0171,-0.006 -0.10175,-0.0387 -0.20324,-0.0815 -0.3035,-0.12532 -0.10261,-0.0537 -0.2124,-0.0964 -0.31016,-0.15841 -0.0809,-0.0501 -0.16646,-0.0964 -0.24718,-0.14654 -3.81634,-1.31345 -7.63179,-2.62654 -11.44807,-3.93963 z m 7.35873,4.1586 c 0.01,0.0138 0.0168,0.0273 0.0238,0.0409 0.0149,-4e-5 0.0305,-5e-5 0.0456,10e-5 l 9.2e-4,-2.8e-4 0.002,10e-4 9.1e-4,-3e-4 9.2e-4,-2.9e-4 0.002,10e-4 9.3e-4,-2.9e-4 c 0.0173,10e-4 0.034,10e-4 0.0513,10e-4 0.0111,-1.6e-4 0.0242,-10e-4 0.0343,-0.003 -0.0546,-0.0139 -0.10853,-0.0266 -0.16317,-0.04 z m 1.40288,2.37436 c 0.017,0.008 0.0333,0.0156 0.0499,0.0241 10e-4,-0.008 0.005,-0.0142 0.01,-0.0207 -0.0186,-0.001 -0.0372,-0.002 -0.0555,-0.003 l -0.004,-7e-4 z m 0.0672,0.6202 c 0.017,0.009 0.0274,0.0156 0.0307,0.0195 0.009,10e-4 0.0132,0.003 0.0199,0.004 -0.0179,-0.0109 -0.0316,-0.0165 -0.0475,-0.0255 l -2e-4,10e-4 z m 0.73845,-0.0647 c 0.0197,0.0165 0.0397,0.0332 0.0604,0.0494 -0.009,-0.0137 -0.016,-0.0273 -0.0252,-0.0421 -0.01,-0.002 -0.0228,-0.006 -0.034,-0.007 z m 1.00932,-0.39698 c 0.0129,0.007 0.0238,0.0143 0.0363,0.0206 0.009,-0.006 0.0169,-0.0103 0.0249,-0.0161 -0.0206,-0.002 -0.0411,-0.004 -0.0611,-0.005 z m -2.27922,5.07797 c 10e-4,0.0112 0.002,0.0215 0.004,0.0324 0.005,0.007 0.0111,0.0147 0.0168,0.0221 0.006,-0.008 0.01,-0.0177 0.005,-0.0286 10e-4,-0.005 10e-4,-0.01 0.004,-0.0152 -0.01,-0.003 -0.0189,-0.007 -0.0284,-0.0105 z m -2.38316,1.28839 c -0.005,0.0169 -0.009,0.0406 -0.007,0.0498 l -2.1e-4,10e-4 0.002,10e-4 c 0.0164,-0.0127 0.0159,-0.0314 0.005,-0.0531 z"
       inkscape:transform-center-x="-1.2428257"
       inkscape:transform-center-y="0.90164974" /><path
       id="path3-9"
       style="opacity:1;fill:#ac3b61;fill-opacity:1;fill-rule:nonzero;stroke:none;stroke-width:0.00329318"
       d="m -325.36792,588.00484 c -0.006,0.0148 -0.0113,0.0293 -0.0156,0.0448 -0.0674,0.2416 0.0934,0.48847 0.35821,0.55114 0.70162,0.16728 1.41177,0.34974 2.11069,0.54224 0.0492,0.0135 0.0987,0.0192 0.14723,0.0188 0.21084,-0.002 0.40378,-0.12668 0.46659,-0.32107 0.008,-0.0196 0.0111,-0.039 0.0146,-0.0588 -0.0378,-0.007 -0.0754,-0.0149 -0.11309,-0.0231 -0.086,-0.0208 -0.17419,-0.0274 -0.26121,-0.0428 -0.0892,-0.0186 -0.17811,-0.0374 -0.26339,-0.0685 -0.0394,-0.0143 -0.0801,-0.0212 -0.12206,-0.0257 -0.0788,-0.012 -0.15441,-0.0366 -0.23336,-0.0471 -0.0769,-0.004 -0.15027,-0.03 -0.22601,-0.0406 -0.11258,-0.0157 -0.22399,-0.0383 -0.33451,-0.0639 -0.10923,-0.0317 -0.2187,-0.0653 -0.32615,-0.10195 -0.0824,-0.0301 -0.16991,-0.0428 -0.25519,-0.0636 -0.0928,-0.0185 -0.17975,-0.0544 -0.2699,-0.0809 -0.0883,-0.0344 -0.17685,-0.0676 -0.26568,-0.10082 -0.0738,-0.0286 -0.14981,-0.0532 -0.2274,-0.0712 -0.0636,-0.008 -0.12269,-0.0297 -0.18373,-0.0466 z"
       inkscape:transform-center-x="-3.2373683"
       inkscape:transform-center-y="-0.56440267" /><path
       id="path4-2"
       style="opacity:1;fill:#ac3b61;fill-opacity:1;fill-rule:nonzero;stroke:none;stroke-width:0.00329318"
       d="m -336.43134,586.4998 c -0.14703,9.4e-4 -0.29376,0.002 -0.4408,0.004 -0.1785,9.4e-4 -0.35694,0.005 -0.53541,0.007 -0.17888,0.005 -0.35779,0.007 -0.5361,0.0212 -0.1952,0.0148 -0.3902,0.0359 -0.58638,0.0355 -0.18494,9.3e-4 -0.37037,0.003 -0.5553,0.004 -0.1968,0.002 -0.39366,0.003 -0.59045,0.005 -0.17299,9.3e-4 -0.34535,0.002 -0.51828,0.007 -0.1986,0.005 -0.39741,0.0102 -0.59559,0.0224 -0.21274,0.0135 -0.42515,0.0358 -0.63867,0.036 -0.22839,0.002 -0.4567,0.004 -0.68506,0.007 -0.2587,0.004 -0.51747,0.007 -0.77601,0.0162 -0.26319,0.0103 -0.52641,0.024 -0.78912,0.042 -0.21923,0.01 -0.43852,0.007 -0.65788,0.0154 -0.17979,0.008 -0.35978,0.0177 -0.5386,0.0361 -0.2366,0.0238 -0.47262,0.0542 -0.71027,0.0687 -0.14829,0.0122 -0.29671,0.0204 -0.44489,0.0312 -0.004,0.0331 -0.004,0.0674 0.002,0.1018 0.0356,0.24782 0.2838,0.42372 0.55502,0.39256 l -10e-6,-5.5e-4 c 5.71076,-0.65373 11.49762,-0.46123 17.2014,0.57084 0.0338,0.006 0.068,0.009 0.10107,0.008 0.22978,-0.002 0.43362,-0.15011 0.47855,-0.36419 0.006,-0.0243 0.008,-0.0481 0.009,-0.072 -0.0728,-0.0101 -0.14612,-0.0166 -0.21941,-0.0224 -0.0801,-0.004 -0.16138,-0.007 -0.24175,-0.007 -0.0908,-0.007 -0.17891,-0.028 -0.26922,-0.0387 -0.0689,-0.008 -0.13833,-0.01 -0.20752,-0.0109 -0.10336,-0.0102 -0.20587,-0.0282 -0.30645,-0.0525 -0.0564,-0.0143 -0.11134,-0.0343 -0.16924,-0.0419 -0.0901,-0.0223 -0.18055,-0.043 -0.26972,-0.0684 -0.10543,-0.0221 -0.20761,-0.0528 -0.30967,-0.0856 -0.0955,-0.0311 -0.19697,-0.0411 -0.29572,-0.0592 -0.11035,-0.0222 -0.22152,-0.0378 -0.33096,-0.064 -0.11084,-0.0284 -0.21671,-0.0709 -0.32702,-0.10033 -0.11234,-0.0309 -0.22494,-0.0622 -0.33681,-0.0945 -0.11994,-0.0451 -0.24604,-0.0721 -0.37116,-0.10167 -0.0202,-0.007 -0.0408,-0.011 -0.0617,-0.0162 l -0.17849,9.4e-4 -0.4372,0.003 -0.32905,0.002 -0.22897,0.002 -0.26051,0.002 -0.28575,0.002 c -0.11858,0.003 -0.2368,0.006 -0.35526,-0.002 -0.15415,-0.011 -0.30678,-0.0313 -0.45969,-0.0522 -0.14444,-0.0248 -0.28724,-0.0582 -0.42964,-0.0914 -0.10632,-0.0247 -0.18792,-0.0636 -0.24599,-0.10918 l -0.46062,0.004 -0.53278,0.004 c -0.14479,9.4e-4 -0.28971,0.002 -0.43449,0.003 -0.13132,9.4e-4 -0.26264,0.002 -0.39395,0.003 z"
       inkscape:transform-center-x="0.20631349"
       inkscape:transform-center-y="-0.92774442" /><path
       id="path5-4"
       style="opacity:1;fill:#ac3b61;fill-opacity:1;fill-rule:nonzero;stroke:none;stroke-width:0.00275238"
       d="m -324.72102,595.07575 c 0.0652,-0.0145 0.1298,-0.0287 0.19559,-0.0424 0.062,-0.0134 0.12474,-0.0255 0.1875,-0.0367 -0.0541,0.0249 -0.0968,0.0457 -0.1641,0.0547 -0.0732,0.007 -0.1457,0.017 -0.21902,0.0244 z m 2.46201,-0.12317 c -0.0481,-0.0874 -0.0988,-0.17329 -0.1552,-0.25758 -0.0151,-0.0239 -0.0308,-0.0476 -0.046,-0.0714 0.15242,-0.0356 0.30478,-0.0703 0.45766,-0.10459 0.11954,-0.0258 0.24027,-0.0507 0.36141,-0.0709 0.15431,-0.0288 0.30628,-0.0643 0.46056,-0.0933 0.14199,-0.0313 0.28553,-0.0577 0.42651,-0.0919 0.14316,-0.0333 0.28872,-0.0578 0.43198,-0.0907 0.1273,-0.0258 0.25384,-0.0544 0.37605,-0.0937 0.12656,-0.035 0.25486,-0.069 0.38136,-0.10406 0.14061,-0.0392 0.28173,-0.0768 0.41641,-0.12824 0.14846,-0.0181 0.27172,-0.068 0.371,-0.15759 0.0178,-0.004 0.0317,-0.007 0.0366,-0.008 0.0473,-0.0109 0.0927,-0.0267 0.14126,-0.0317 0.0661,-0.0111 0.13159,-0.0244 0.1956,-0.0413 0.0719,-0.0171 0.1485,-0.0217 0.21731,-0.0483 0.0586,-0.019 0.12293,-0.0231 0.18197,-0.0423 0.0545,-0.0162 0.11663,-0.0159 0.17123,-0.0331 0.0128,-4.6e-4 0.0252,-0.004 0.0382,-0.004 0.0308,-0.004 0.0604,-0.007 0.0897,-0.0154 0.0252,-0.004 0.0505,-0.008 0.0747,-0.0154 0.0618,-0.0156 0.1214,-0.0348 0.18608,-0.0412 0.067,-0.0132 0.13314,-0.0213 0.20266,-0.0243 0.0598,-0.007 0.11945,-0.0168 0.1781,-0.0287 l 0.24254,-0.002 c 0.0596,0.011 0.12116,0.0195 0.18162,0.0262 0.0576,0.003 0.0626,0.007 0.12027,0.0221 0.045,0.0105 0.0905,0.0174 0.13655,0.0219 -0.20038,-0.0259 -0.0292,-0.1091 0.12649,-0.19574 0.36475,0.024 0.4619,-0.30111 0.0345,-0.42641 -0.07,-0.0207 -0.1418,-0.038 -0.21207,-0.0566 -0.0217,-0.0103 -0.008,-0.004 -0.0451,-0.0169 -0.088,-0.0317 -0.16561,-0.044 -0.23227,-0.0406 -0.0495,0.003 -0.0925,0.0112 -0.12772,0.0272 -0.0243,-0.0113 -0.0485,-0.0219 -0.0726,-0.0338 -0.0568,-0.0237 -0.11644,-0.0404 -0.16989,-0.0696 -0.0671,-0.0355 -0.13853,-0.0692 -0.21397,-0.0907 -0.0502,-0.0199 -0.0966,-0.0487 -0.14285,-0.0743 -0.0627,-0.0371 -0.1242,-0.075 -0.18968,-0.1081 -0.0568,-0.0315 -0.11564,-0.0599 -0.16907,-0.0957 -0.0725,-0.0436 -0.15089,-0.0776 -0.22664,-0.11692 -0.0777,-0.0412 -0.15563,-0.0839 -0.23619,-0.12144 -0.0819,-0.0428 -0.1687,-0.0782 -0.24855,-0.12361 -0.0865,-0.0442 -0.17083,-0.0915 -0.25957,-0.13266 -0.0892,-0.0394 -0.17172,-0.0876 -0.25954,-0.12923 -0.0822,-0.0347 -0.16856,-0.063 -0.25747,-0.0836 -0.0856,-0.0259 -0.17209,-0.0465 -0.2573,-0.0734 -0.10784,-0.0294 -0.2177,-0.0519 -0.32689,-0.0775 -0.0273,-0.006 -0.0542,-0.0109 -0.0793,-0.0142 -0.0997,-0.048 -0.20149,-0.0932 -0.30327,-0.13803 -0.12158,-0.0533 -0.23899,-0.11099 -0.35692,-0.16957 -0.10036,-0.0487 -0.20191,-0.0965 -0.30469,-0.14145 -0.0949,-0.0416 -0.1863,-0.0903 -0.28798,-0.11992 -0.1103,-0.0339 -0.22273,-0.0616 -0.33394,-0.0934 -0.15055,-0.0432 -0.30184,-0.0862 -0.45305,-0.12786 -0.14242,-0.0394 -0.287,-0.0714 -0.43221,-0.10295 -0.0197,-0.008 -0.0389,-0.0169 -0.0591,-0.0246 -0.0553,-0.0217 -0.1139,-0.036 -0.17248,-0.0502 -0.0516,-0.011 -0.10318,-0.0217 -0.15448,-0.0343 -0.0396,-0.011 -0.0785,-0.0246 -0.11776,-0.0368 -0.0455,-0.0187 -0.094,-0.0276 -0.14227,-0.0389 -0.0423,-0.0101 -0.0842,-0.0216 -0.12588,-0.0321 -0.0351,-0.0113 -0.0715,-0.0213 -0.10678,-0.0322 -0.0398,-0.0105 -0.0794,-0.0205 -0.11902,-0.0312 -0.0364,-0.0126 -0.0723,-0.0256 -0.10947,-0.0358 -0.0406,-0.0135 -0.0821,-0.0267 -0.12323,-0.039 -0.0449,-0.011 -0.09,-0.0199 -0.13536,-0.0298 -0.0448,-0.007 -0.0893,-0.0144 -0.13393,-0.0229 -0.0447,-0.007 -0.0895,-0.0166 -0.13392,-0.0242 -0.048,-0.006 -0.0942,-0.0154 -0.14209,-0.0219 -0.0539,-0.009 -0.10974,-0.006 -0.16371,-0.0125 -0.0439,-0.005 -0.0869,-0.0122 -0.12977,-0.0207 -0.0411,-0.0124 -0.0839,-0.0219 -0.12587,-0.0321 -0.0431,-0.0104 -0.0859,-0.0203 -0.12725,-0.0344 -0.0439,-0.0148 -0.0872,-0.0306 -0.13132,-0.0448 -0.0447,-0.0177 -0.0929,-0.0285 -0.13963,-0.0413 -0.0463,-0.0129 -0.094,-0.0189 -0.14082,-0.0298 -0.0424,-0.0101 -0.0847,-0.0208 -0.12591,-0.0333 -0.048,-0.015 -0.0949,-0.0291 -0.14506,-0.0389 -0.0649,-0.0101 -0.13047,-0.0169 -0.19529,-0.0272 -0.0526,-0.008 -0.10443,-0.0235 -0.15589,-0.0366 -0.0548,-0.0132 -0.10824,-0.0284 -0.16279,-0.0421 -0.0495,-0.0112 -0.097,-0.0292 -0.14511,-0.0435 -0.05,-0.0151 -0.0998,-0.0314 -0.14927,-0.048 -0.0517,-0.017 -0.10281,-0.0345 -0.15609,-0.0479 -0.0438,-0.008 -0.0855,-0.0195 -0.12727,-0.0332 -0.0511,-0.0148 -0.10171,-0.0329 -0.15338,-0.0467 -0.0367,-0.008 -0.0727,-0.0196 -0.1081,-0.0313 -0.0402,-0.0114 -0.0799,-0.0215 -0.12045,-0.0321 -0.0307,-0.0104 -0.0612,-0.0221 -0.0918,-0.0324 -0.0435,-0.0162 -0.091,-0.0237 -0.13812,-0.0287 -0.0431,-0.003 -0.084,-0.0125 -0.12696,-0.0163 -0.0213,-0.002 -0.0428,-0.004 -0.0642,-0.006 -0.0261,-0.0225 -0.068,-0.0406 -0.12487,-0.0504 -0.002,-6e-5 -0.003,-1.3e-4 -0.006,3.1e-4 l -8.5e-4,7e-5 c -0.002,-4e-4 -0.003,-0.003 -0.0109,-0.004 -0.0322,-0.007 -0.0626,-0.0179 -0.0958,-0.0222 -0.03,-0.007 -0.0607,-0.0171 -0.0916,-0.0221 -0.029,-0.007 -0.0574,-0.0102 -0.0875,-0.0131 -0.0163,-0.003 -0.0326,-0.006 -0.0478,-0.0103 -0.0275,-0.008 -0.055,-0.0157 -0.0835,-0.0233 -0.0278,-0.004 -0.0551,-0.006 -0.0833,-0.007 -0.0184,-9.4e-4 -0.0368,-0.004 -0.0546,-0.009 -0.0367,-0.008 -0.0731,-0.009 -0.11047,-0.008 -0.0298,1.9e-4 -0.0602,4.4e-4 -0.0899,5.8e-4 -0.0383,2.5e-4 -0.0775,1.5e-4 -0.11579,-3.6e-4 -0.0461,3.5e-4 -0.0915,-0.002 -0.13766,-0.002 -0.029,-3.9e-4 -0.0584,-0.004 -0.0874,-0.006 -2.7e-4,-3e-5 -0.002,-7e-5 -0.003,-1.4e-4 l -0.002,-9.4e-4 -0.002,-0.006 -8.4e-4,7e-5 -8.5e-4,7e-5 -8.4e-4,7e-5 -1.1e-4,-5.8e-4 -8.4e-4,6e-5 -8.5e-4,8e-5 -8.4e-4,6e-5 -1.1e-4,-5.8e-4 -10e-5,-5.8e-4 -0.002,-9.3e-4 c -0.0495,-0.0102 -0.0981,-0.0215 -0.14761,-0.0309 -0.0456,-0.008 -0.0892,-0.0229 -0.13272,-0.0367 -0.0535,-0.0157 -0.10655,-0.032 -0.16021,-0.0478 -0.0552,-0.0164 -0.11154,-0.0317 -0.16562,-0.0502 -0.0534,-0.0184 -0.10919,-0.0293 -0.16284,-0.0467 -0.0585,-0.0203 -0.12152,-0.0272 -0.18317,-0.0376 -0.0662,-0.0124 -0.13329,-0.0183 -0.20064,-0.0225 -0.0258,-0.003 -0.0522,-0.007 -0.0778,-0.011 -0.009,-0.004 -0.0182,-0.004 -0.0273,-0.008 -0.0308,-0.0105 -0.0627,-0.0179 -0.0944,-0.0255 -0.0296,-0.006 -0.0593,-0.0101 -0.0888,-0.0165 -0.0308,-0.007 -0.0613,-0.0133 -0.0929,-0.0165 -0.0359,-0.0103 -0.0701,-0.0234 -0.10674,-0.0312 -0.0381,-0.0106 -0.077,-0.017 -0.11495,-0.0276 -0.0423,-0.0101 -0.0856,-0.0195 -0.12851,-0.0264 -0.0414,-0.006 -0.0814,-0.0171 -0.12299,-0.023 -0.0416,-0.006 -0.0832,-0.0109 -0.12551,-0.007 -0.0262,1.9e-4 -0.0532,-0.002 -0.079,-0.003 -0.0254,-0.002 -0.0503,-0.006 -0.0751,-0.01 -0.0394,-0.007 -0.0786,-0.007 -0.11865,-0.006 l -0.0913,5.9e-4 c -0.0248,1.5e-4 -0.0502,3e-4 -0.075,5.1e-4 -0.0262,1.9e-4 -0.0512,3.4e-4 -0.0776,5.6e-4 -0.0302,3e-4 -0.0611,2.6e-4 -0.0913,5.8e-4 -0.019,10e-5 -0.0383,-4e-5 -0.0572,4.4e-4 -0.0469,-0.0159 -0.0939,-0.0326 -0.13996,-0.0501 -0.11082,-0.0457 -0.22505,-0.084 -0.34248,-0.1161 -0.11628,-0.0295 -0.23736,-0.043 -0.35786,-0.0534 -0.0796,-0.007 -0.15763,-0.0238 -0.23764,-0.0325 -0.11155,-0.01 -0.22304,-0.01 -0.33421,-0.0227 -0.12412,-0.0162 -0.24985,-0.0226 -0.37519,-0.0271 -0.1377,-0.004 -0.27521,-0.004 -0.41297,-0.004 -0.14767,-9.4e-4 -0.29528,-9.4e-4 -0.44289,-4e-4 -0.15821,0.007 -0.31662,-1.3e-4 -0.47439,-0.009 -0.17486,-0.0102 -0.34981,-0.0163 -0.52497,-0.0192 -0.18062,-9.4e-4 -0.36061,-0.008 -0.54101,2.8e-4 -0.14171,0.0115 -0.28396,0.0228 -0.42608,0.0304 -0.13096,0.007 -0.26118,0.008 -0.39232,0.0112 -0.14266,4.3e-4 -0.28433,0.0194 -0.42608,0.0303 -0.14108,0.009 -0.28338,0.0125 -0.42493,0.0167 -0.16081,0.004 -0.32146,0.005 -0.4823,0.007 -0.13642,9.4e-4 -0.27239,0.002 -0.40879,0.003 -0.1522,9.4e-4 -0.30425,0.006 -0.45643,0.007 -0.13517,9.4e-4 -0.27092,0.002 -0.40606,0.003 l -0.42514,0.003 -0.52054,0.004 -0.45238,0.003 c -0.14828,9.3e-4 -0.29614,-9.4e-4 -0.44415,0.007 -0.16757,0.0126 -0.33581,0.0238 -0.50375,0.032 -0.1178,0.007 -0.23616,0.009 -0.35413,0.012 -0.1278,0.004 -0.25504,0.003 -0.38289,0.004 -0.16197,-0.002 -0.32245,0.007 -0.48348,0.0193 -0.11858,0.0174 -0.24053,0.0233 -0.36072,0.0276 -0.11148,9.4e-4 -0.22037,0.004 -0.33091,0.016 -0.1083,0.0103 -0.21525,0.0299 -0.32226,0.0467 -0.0517,-0.0185 -0.11712,-0.0288 -0.19388,-0.0249 -0.0281,9.4e-4 -0.0571,0.004 -0.0884,0.009 -0.0887,0.014 -0.17717,0.0304 -0.26504,0.0475 -0.0776,0.0154 -0.15416,0.0277 -0.23386,0.0347 -0.12104,0.0164 -0.24159,0.0378 -0.36307,0.0515 -0.0986,0.0102 -0.19752,0.0122 -0.29685,0.0157 -0.0975,0.006 -0.19504,0.0125 -0.29122,0.0272 -0.0977,0.0144 -0.19282,0.0341 -0.29092,0.0465 -0.0275,0.004 -0.0554,0.0118 -0.0829,0.0164 -0.0238,9.3e-4 -0.0471,5.9e-4 -0.0708,0.002 -0.13314,0.006 -0.26681,0.0124 -0.39888,0.0267 -0.0818,0.009 -0.16215,0.0194 -0.24502,0.0187 -0.0892,0.005 -0.17816,0.012 -0.26527,0.0293 -0.0808,0.0168 -0.16095,0.0386 -0.24175,0.0553 -0.078,0.0179 -0.15487,0.0336 -0.23508,0.0438 -0.0868,0.0159 -0.17386,0.0322 -0.26093,0.0475 -0.0905,0.003 -0.18064,0.007 -0.271,0.0124 -0.15902,0.0117 -0.31806,0.0241 -0.47197,0.0604 -0.12163,0.0302 -0.23968,0.0678 -0.35675,0.10848 -0.10581,0.028 -0.21362,0.0514 -0.3219,0.0717 -0.11688,0.0169 -0.23272,0.0381 -0.35083,0.0493 -0.13206,0.02 -0.2638,0.0444 -0.39558,0.0654 -0.10877,0.0233 -0.21568,0.048 -0.32461,0.0706 -0.11341,0.0206 -0.22426,0.0478 -0.33832,0.0662 -0.14045,0.0274 -0.28477,0.0477 -0.42254,0.0838 -0.11132,0.0291 -0.22416,0.0513 -0.33681,0.0764 -0.11545,0.0222 -0.22877,0.0503 -0.34366,0.0742 -0.10548,0.0226 -0.21126,0.045 -0.31648,0.0683 -0.11243,0.0252 -0.22424,0.0523 -0.33679,0.0776 -0.11365,0.0298 -0.22902,0.0524 -0.34498,0.0754 -0.16403,0.0357 -0.32988,0.0657 -0.49311,0.10367 -0.12717,0.0267 -0.25371,0.0553 -0.38029,0.0836 -0.2157,0.0483 -0.31997,0.15409 -0.32734,0.24957 -0.19941,0.0393 -0.39848,0.0807 -0.59779,0.12041 -0.14612,0.01 -0.29337,0.0156 -0.43987,0.0202 -0.13618,0.007 -0.26138,0.0485 -0.39271,0.0733 -0.0117,0.002 -0.033,-1.5e-4 -0.045,0.003 0,0 -0.003,9.4e-4 -0.003,9.4e-4 l -8.4e-4,7e-5 -8.4e-4,7e-5 -8.5e-4,7e-5 5.6e-4,0.007 1e-4,5.8e-4 -1.8e-4,0.002 -8.5e-4,6e-5 10e-5,5.9e-4 -1.9e-4,0.002 -8.4e-4,7e-5 10e-5,5.9e-4 c 3e-5,5.8e-4 -1.9e-4,0.002 -1.9e-4,0.002 0.003,0.0458 0.008,0.0917 0.01,0.13781 -0.0332,0.007 -0.0649,0.016 -0.0978,0.0246 -0.10023,0.022 -0.1987,0.049 -0.29872,0.0716 -0.0896,0.0146 -0.17786,0.0343 -0.26628,0.0532 -0.0727,0.011 -0.1422,0.0309 -0.21324,0.047 -0.0785,0.0243 -0.15916,0.0465 -0.2346,0.0769 -0.0579,0.025 -0.11405,0.0514 -0.17333,0.0741 -0.0872,0.0405 -0.17418,0.0813 -0.25836,0.12602 -0.0848,0.0396 -0.16341,0.0857 -0.24607,0.12821 -0.0663,0.0446 -0.14396,0.0762 -0.21634,0.11317 -0.0781,0.0337 -0.15086,0.073 -0.22036,0.11776 -0.0421,0.0231 -0.0875,0.0411 -0.13264,0.0602 -0.0717,0.0348 -0.14611,0.0648 -0.21927,0.0973 -0.0681,0.0318 -0.13514,0.065 -0.19873,0.10278 -0.0432,0.02 -0.0872,0.04 -0.13129,0.059 -0.0385,0.0143 -0.0711,0.0375 -0.10679,0.0566 -0.0768,0.0153 -0.15587,0.0253 -0.23098,0.0461 -0.0982,0.0172 -0.19477,0.0399 -0.29208,0.0601 -0.0784,0.02 -0.15524,0.0428 -0.23485,0.0597 -0.0757,0.0211 -0.1564,0.028 -0.23086,0.053 -0.1165,0.0223 -0.22936,0.0544 -0.33927,0.0935 -0.11056,0.0356 -0.21705,0.0802 -0.32382,0.12304 -0.0858,0.0385 -0.16868,0.0809 -0.24879,0.1271 -0.0746,0.0444 -0.16442,0.0675 -0.23814,0.11333 -0.0516,0.032 -0.11533,0.0484 -0.17055,0.0753 -0.0474,0.0224 -0.10452,0.0463 -0.1406,0.0751 l 1e-4,5.9e-4 c -0.0134,0.007 -0.12941,0.0394 -0.15179,0.0535 l 10e-5,5.8e-4 1.2e-4,5.8e-4 c -0.0616,0.0301 -0.1238,0.0595 -0.18257,0.0935 -0.0723,0.0145 -0.14205,0.0347 -0.21315,0.0528 -0.0846,0.0159 -0.15904,0.0544 -0.23439,0.0882 -0.0563,0.029 -0.11363,0.0564 -0.16907,0.0867 -0.0395,0.013 -0.0752,0.0347 -0.11231,0.0508 -0.0558,0.0261 -0.10832,0.0552 -0.16086,0.0855 -0.048,0.0242 -0.10763,0.0614 -0.15942,0.0922 -0.0435,0.0272 -0.0923,0.0498 -0.14067,0.0705 -0.0372,0.0129 -0.0693,0.0343 -0.10549,0.0486 -0.0281,0.011 -0.0518,0.0222 -0.0744,0.0347 -0.13102,-0.36916 0.0359,-0.77953 0.44537,-1.00016 0.0539,-0.0293 1.35214,-0.72436 3.68244,-1.59369 2.13122,-0.79516 5.58249,-1.89801 9.92032,-2.63433 4.87435,-0.82759 9.85453,-1.03491 14.80391,-0.61623 4.92936,0.41701 9.83523,1.45961 14.63169,3.10543 l 8.4e-4,-6e-5 c 0.0132,0.0883 0.10997,0.18164 0.30738,0.22686 0.0247,0.006 0.0504,0.0115 0.0752,0.0166 0.0685,0.0418 0.13868,0.0803 0.2076,0.12165 0.0765,0.0463 0.15909,0.0839 0.24039,0.12364 0.0744,0.0351 0.14235,0.0793 0.21972,0.11013 0.0748,0.0332 0.13889,0.0837 0.22364,0.0998 0.073,0.0128 0.14666,0.0205 0.22115,0.0247 0.0624,0.002 0.12279,-9.4e-4 0.18385,-0.008 0.0185,0.011 0.038,0.0222 0.058,0.0315 0.0639,0.0298 0.11568,0.0726 0.17049,0.11175 0.0622,0.0425 0.11277,0.0977 0.1845,0.13096 0.0473,0.0275 0.0872,0.0642 0.12419,0.1005 0.0582,0.0511 0.12101,0.0981 0.1915,0.13772 0.003,9.4e-4 0.007,0.004 0.0125,0.007 0.0281,0.0181 0.0559,0.0369 0.0828,0.0563 0.0377,0.0286 0.0739,0.0586 0.11038,0.0881 0.003,0.007 0.0484,0.0523 0.0582,0.0634 0.0417,0.0446 0.0386,0.0444 0.079,0.0918 0.11656,0.13657 0.16611,0.0661 0.19826,-0.0459 0.34488,0.28842 0.70919,-0.005 0.35919,-0.30562 -0.007,-0.006 -0.0127,-0.0119 -0.0192,-0.0169 -0.0768,-0.0705 -0.13159,-0.15665 -0.2146,-0.223 -0.0214,-0.0168 -0.0426,-0.0319 -0.0635,-0.0449 -0.0131,-0.0488 -0.0418,-0.10439 -0.0911,-0.16345 -0.0562,-0.0672 -0.1237,-0.12715 -0.18957,-0.18785 -0.0351,-0.0374 -0.0818,-0.0657 -0.12143,-0.0994 -0.0547,-0.0464 -0.10994,-0.0777 -0.16227,-0.0969 -0.0313,-0.0415 -0.0593,-0.0854 -0.0905,-0.12699 -0.005,-0.007 -0.0109,-0.0146 -0.0166,-0.0216 -0.0242,-0.0295 -0.0727,-0.0832 -0.0819,-0.0963 l 8.5e-4,-7e-5 0.002,9.4e-4 8.4e-4,-6e-5 c -0.0356,-0.0633 -0.0764,-0.12316 -0.12674,-0.17916 -0.027,-0.0358 -0.0635,-0.0684 -0.0875,-0.10535 -0.0477,-0.0433 -0.0619,-0.0653 -0.0873,-0.0996 -0.0244,-0.0384 -0.052,-0.0734 -0.082,-0.10884 -0.049,-0.0484 -0.0608,-0.0674 -0.10936,-0.11206 -0.0433,-0.0477 -0.0895,-0.0933 -0.13702,-0.13805 -0.0519,-0.0456 -0.0911,-0.1 -0.13717,-0.14947 -0.0364,-0.038 -0.0666,-0.0788 -0.10128,-0.1178 -0.031,-0.034 -0.0608,-0.0695 -0.0888,-0.10536 -0.0265,-0.0445 -0.0745,-0.0949 -0.1179,-0.13706 -0.0509,-0.0444 -0.10599,-0.0847 -0.16,-0.12651 -0.0648,-0.0499 -0.14455,-0.0828 -0.2172,-0.12383 -0.0489,-0.0327 -0.10152,-0.0664 -0.13931,-0.10841 -0.0631,-0.0539 -0.118,-0.11301 -0.17569,-0.17083 -0.0638,-0.072 -0.13447,-0.14003 -0.21022,-0.20365 -0.0805,-0.0699 -0.16077,-0.13895 -0.23628,-0.21258 -0.0909,-0.082 -0.18202,-0.16506 -0.27225,-0.24764 -0.0804,-0.0657 -0.15569,-0.13579 -0.23205,-0.20464 -0.0123,-0.0108 -0.0239,-0.0217 -0.0359,-0.0327 -0.0293,-0.0375 -0.0586,-0.0756 -0.0875,-0.11334 -0.052,-0.0698 -0.0796,-0.11333 -0.1056,-0.1349 -0.0143,-0.022 -0.0291,-0.0438 -0.0459,-0.0657 -0.0162,0.008 -0.0327,0.0174 -0.049,0.0252 -0.0105,-0.0127 -0.0215,-0.0256 -0.0319,-0.0385 -0.0446,-0.0528 -0.0876,-0.10698 -0.13056,-0.16088 -0.0433,-0.0494 -0.0858,-0.099 -0.13306,-0.14606 -0.0351,-0.0459 -0.0699,-0.0925 -0.10295,-0.13944 -0.0325,-0.0444 -0.067,-0.0878 -0.10284,-0.13033 0.0128,-0.0107 0.0269,-0.0229 0.0414,-0.0358 0.041,-0.0356 0.0795,-0.0728 0.11549,-0.11249 0.0449,0.0426 0.10417,0.0836 0.17923,0.12165 0.0709,0.0362 0.14506,0.0685 0.22218,0.0941 0.052,0.0185 0.12797,0.0456 0.16972,0.0479 0.0525,0.0181 0.14442,0.0511 0.21614,0.0554 0.0367,0.004 0.0727,0.0107 0.10667,0.0244 0.0451,0.0186 0.0934,0.0336 0.1371,0.049 0.0645,0.0391 0.13097,0.0762 0.20598,0.0999 0.0431,0.0205 0.0859,0.0465 0.13177,0.064 0.0588,0.0369 0.11985,0.072 0.18149,0.10584 0.0541,0.0205 0.0986,0.0595 0.14983,0.0844 0.0675,0.0445 0.13921,0.085 0.20362,0.13311 l 0.006,0.004 c 1.06486,1.17603 2.12907,2.35206 3.1936,3.52835 0.0169,0.0507 0.0383,0.1006 0.0555,0.15115 0.0195,0.0621 0.0619,0.11634 0.0913,0.17486 0.0349,0.0524 0.0731,0.1031 0.1127,0.15303 0.002,0.004 0.009,0.008 0.0107,0.0108 0.0186,0.0219 0.0374,0.0433 0.0568,0.0646 0.007,0.008 0.013,0.0137 0.0152,0.0159 l -0.008,-0.004 c 0.0296,0.0345 0.0589,0.0694 0.0834,0.10654 0.036,0.045 0.0656,0.0943 0.0989,0.14059 0.0222,0.0322 0.0431,0.0547 0.0628,0.0885 0.0136,0.027 0.039,0.048 0.0557,0.0737 0.0813,0.12731 0.18972,0.1854 0.28638,0.19171 0.051,0.18476 0.0376,0.37974 -0.0405,0.56319 -0.0106,0.002 -0.0238,0.007 -0.0408,0.01 -0.18559,0.0403 -0.36948,0.0852 -0.55121,0.13604 -0.12421,0.0313 -0.24562,0.0672 -0.3607,0.11762 -0.10748,0.0473 -0.20893,0.10329 -0.31657,0.15035 -0.0811,0.0377 -0.16664,0.0674 -0.25764,0.085 -0.12967,0.0273 -0.2578,0.059 -0.38279,0.0983 -0.14115,0.0506 -0.27919,0.10653 -0.42289,0.15224 -0.11435,0.0324 -0.22899,0.0669 -0.34752,0.0878 -0.19016,0.0336 -0.29553,0.11452 -0.32677,0.19715 -0.93837,0.16829 -1.87777,0.33698 -2.81594,0.5051 -0.13691,0.0245 -0.27494,0.049 -0.41182,0.0734 l -0.2984,0.002 -0.40062,0.003 -0.28479,0.002 -0.26844,0.002 -0.28478,0.002 -0.25618,0.002 -0.2371,0.002 z m 4.85655,-1.98932 c -0.003,-0.007 -0.003,-0.0144 -0.008,-0.0216 l -1.2e-4,-5.8e-4 c 0.013,0.007 0.0256,0.0124 0.0383,0.0193 -0.0102,0.002 -0.0201,0.002 -0.03,0.004 z m -1.00604,-0.0214 c -2.9e-4,-0.0145 -0.003,-0.0297 -0.003,-0.0445 0.006,0.005 0.0124,0.008 0.018,0.0123 -0.005,0.0107 -0.01,0.0223 -0.0145,0.032 z m -0.54927,-0.18304 c -2.8e-4,-2e-4 -0.003,-0.002 -0.003,-0.002 l -8.5e-4,8e-5 c -5.6e-4,-4.5e-4 -0.003,-0.002 -0.003,-0.002 l -1.1e-4,-5.8e-4 -1e-4,-5.9e-4 c -8.4e-4,-0.004 -0.002,-0.0106 -0.003,-0.017 l 8.5e-4,-6e-5 c 0.003,0.007 0.006,0.0154 0.01,0.0239 z m 0.43449,-0.37111 c -0.005,-0.009 -0.0111,-0.0189 -0.0167,-0.0284 l 8.5e-4,-8e-5 0.002,9.4e-4 8.4e-4,-7e-5 c 0.0115,0.007 0.0239,0.0111 0.0362,0.0165 -0.007,0.003 -0.0152,0.007 -0.023,0.0108 z m 0.92931,-1.70435 c -0.008,-0.002 -0.0172,-0.004 -0.0249,-0.008 -0.0121,-0.004 -0.024,-0.0106 -0.0357,-0.0156 l -8.5e-4,8e-5 -8.5e-4,7e-5 -8.4e-4,7e-5 -1.1e-4,-5.9e-4 c -0.0107,-0.004 -0.0211,-0.008 -0.0315,-0.0123 0.006,-0.01 0.0101,-0.0205 0.0146,-0.0308 0.0272,0.0224 0.0547,0.0451 0.0814,0.0678 z"
       inkscape:transform-center-y="0.091106588"
       inkscape:transform-center-x="0.51583628" /><path
       style="opacity:1;fill:#4d4d4d;fill-opacity:0.65625;stroke-width:1.36991"
       d="m -779.27398,762.2974 411.09427,0.80884 271.240891,-1.02392"
       id="path7"
       inkscape:transform-center-x="0.32394265"
       inkscape:transform-center-y="0.0074808181" /></g></svg>
