<?xml version="1.0" encoding="UTF-8" standalone="no"?>
<!-- Created with Inkscape (http://www.inkscape.org/) -->

<svg
   width="196.959mm"
   height="113.413mm"
   viewBox="0 0 196.95901 113.413"
   version="1.1"
   id="svg1"
   xml:space="preserve"
   sodipodi:docname="researchbackground.svg"
   inkscape:version="1.4.3 (0d15f75, 2025-12-25)"
   xmlns:inkscape="http://www.inkscape.org/namespaces/inkscape"
   xmlns:sodipodi="http://sodipodi.sourceforge.net/DTD/sodipodi-0.dtd"
   xmlns="http://www.w3.org/2000/svg"
   xmlns:svg="http://www.w3.org/2000/svg"><sodipodi:namedview
     id="namedview1"
     pagecolor="#ffffff"
     bordercolor="#000000"
     borderopacity="0.25"
     inkscape:showpageshadow="2"
     inkscape:pageopacity="0.0"
     inkscape:pagecheckerboard="0"
     inkscape:deskcolor="#d1d1d1"
     inkscape:document-units="mm"
     inkscape:zoom="0.6422654"
     inkscape:cx="398.58912"
     inkscape:cy="59.944067"
     inkscape:window-width="1317"
     inkscape:window-height="976"
     inkscape:window-x="287"
     inkscape:window-y="25"
     inkscape:window-maximized="0"
     inkscape:current-layer="layer1" /><defs
     id="defs1" /><g
     id="layer1"
     transform="translate(-13.269191,-107.60626)"><text
       xml:space="preserve"
       style="font-style:normal;font-variant:normal;font-weight:bold;font-stretch:normal;font-size:4.23333px;line-height:4.37444px;font-family:Georgia;-inkscape-font-specification:'Georgia Bold';text-align:center;writing-mode:lr-tb;direction:ltr;text-anchor:middle;fill:#ac3b61;fill-opacity:1;stroke-width:0.264582"
       x="44.875553"
       y="118.83725"
       id="text16"><tspan
         style="font-style:normal;font-variant:normal;font-weight:bold;font-stretch:normal;font-size:4.23333px;line-height:4.37444px;font-family:Georgia;-inkscape-font-specification:'Georgia Bold';fill:#ac3b61;fill-opacity:1;stroke-width:0.264582"
         x="44.875553"
         y="118.83725"
         id="tspan19">Philosophy &amp; Social Theory</tspan></text><text
       xml:space="preserve"
       style="font-style:normal;font-variant:normal;font-weight:bold;font-stretch:normal;font-size:4.23333px;line-height:4.37444px;font-family:Georgia;-inkscape-font-specification:'Georgia Bold';text-align:center;writing-mode:lr-tb;direction:ltr;text-anchor:middle;fill:#ac3b61;fill-opacity:1;stroke-width:0.264582"
       x="112.61249"
       y="143.0455"
       id="text16-3"><tspan
         style="font-style:normal;font-variant:normal;font-weight:bold;font-stretch:normal;font-size:4.23333px;line-height:4.37444px;font-family:Georgia;-inkscape-font-specification:'Georgia Bold';fill:#ac3b61;fill-opacity:1;stroke-width:0.264582"
         x="112.61249"
         y="143.0455"
         id="tspan19-6">Reflexive Research</tspan></text><text
       xml:space="preserve"
       style="font-style:normal;font-variant:normal;font-weight:bold;font-stretch:normal;font-size:4.23333px;line-height:4.37444px;font-family:Georgia;-inkscape-font-specification:'Georgia Bold';text-align:center;writing-mode:lr-tb;direction:ltr;text-anchor:middle;fill:#ac3b61;fill-opacity:1;stroke-width:0.264582"
       x="43.773739"
       y="166.16611"
       id="text16-83"><tspan
         style="font-style:normal;font-variant:normal;font-weight:bold;font-stretch:normal;font-size:4.23333px;line-height:4.37444px;font-family:Georgia;-inkscape-font-specification:'Georgia Bold';fill:#ac3b61;fill-opacity:1;stroke-width:0.264582"
         x="43.773739"
         y="166.16611"
         id="tspan19-8">Community Practitioner</tspan></text><text
       xml:space="preserve"
       style="font-style:normal;font-variant:normal;font-weight:bold;font-stretch:normal;font-size:4.23333px;line-height:4.37444px;font-family:Georgia;-inkscape-font-specification:'Georgia Bold';text-align:center;writing-mode:lr-tb;direction:ltr;text-anchor:middle;white-space:pre;inline-size:57.6061;fill:#ac3b61;fill-opacity:1;stroke-width:0.264582"
       x="175.35007"
       y="142.8732"
       id="text16-3-8"
       transform="translate(5.8208336,-2.6458334)"><tspan
         x="175.35007"
         y="142.8732"
         id="tspan1">Sociotechnical
</tspan><tspan
         x="175.35007"
         y="147.24764"
         id="tspan2">Systems Design</tspan></text><text
       xml:space="preserve"
       style="font-style:normal;font-variant:normal;font-weight:normal;font-stretch:normal;font-size:3.88056px;line-height:4.0099px;font-family:Chalkduster;-inkscape-font-specification:Chalkduster;text-align:center;writing-mode:lr-tb;direction:ltr;text-anchor:middle;fill:#858585;fill-opacity:1;stroke-width:0.264582"
       x="113.61623"
       y="205.98611"
       id="text16-8"><tspan
         style="font-style:normal;font-variant:normal;font-weight:normal;font-stretch:normal;font-size:3.88056px;line-height:4.0099px;font-family:Monospace;-inkscape-font-specification:Monospace;fill:#858585;fill-opacity:1;stroke-width:0.264582"
         x="113.61623"
         y="205.98611"
         id="tspan19-5">Participatory Design for Responsible Technologies</tspan></text></g><g
     id="g1"
     transform="matrix(0.26458332,0,0,0.26458334,214.1392,-111.31044)"><path
       id="path3"
       style="opacity:0.6;fill:#ac3b61;fill-opacity:1;fill-rule:nonzero;stroke:none;stroke-width:0.00564742"
       d="m -519.94256,481.16534 c -0.0147,0.0326 -0.0295,0.0656 -0.0438,0.10178 -0.22106,0.56238 -0.24198,1.35343 -0.0473,1.7654 0.51511,1.0946 1.02772,2.23652 1.5236,3.39391 0.0349,0.0815 0.0755,0.14272 0.11891,0.18756 0.18924,0.19493 0.4449,0.0522 0.63044,-0.39195 0.0187,-0.045 0.0359,-0.0913 0.0522,-0.13883 -0.0291,-0.0542 -0.0573,-0.10954 -0.0856,-0.16647 -0.063,-0.13493 -0.13726,-0.23531 -0.20467,-0.35729 -0.0671,-0.13249 -0.13416,-0.26462 -0.18962,-0.42565 -0.026,-0.0737 -0.0575,-0.13002 -0.0919,-0.18141 -0.0621,-0.10484 -0.11345,-0.2402 -0.17686,-0.34226 -0.0657,-0.0848 -0.11427,-0.21938 -0.17475,-0.3183 -0.09,-0.14681 -0.17441,-0.31069 -0.25615,-0.48087 -0.0765,-0.18469 -0.15185,-0.37514 -0.2233,-0.57158 -0.0536,-0.15602 -0.12326,-0.27084 -0.18552,-0.40517 -0.0706,-0.13515 -0.12422,-0.31043 -0.18717,-0.4639 -0.0557,-0.17281 -0.1129,-0.34182 -0.17012,-0.51147 -0.0468,-0.14373 -0.0981,-0.27965 -0.15558,-0.39882 -0.0511,-0.0819 -0.0898,-0.19269 -0.13294,-0.29415 z"
       inkscape:transform-center-x="-3.1567038"
       inkscape:transform-center-y="2.5274609" /><path
       id="path4"
       style="opacity:0.6;fill:#ac3b61;fill-opacity:1;fill-rule:nonzero;stroke:none;stroke-width:0.00564742"
       d="m -528.81909,466.83967 c -0.13198,-0.13574 -0.26391,-0.27075 -0.39609,-0.40586 -0.16022,-0.16502 -0.32136,-0.32611 -0.48303,-0.48531 -0.16253,-0.15766 -0.32408,-0.31918 -0.49275,-0.45052 -0.18418,-0.14558 -0.37226,-0.27507 -0.54729,-0.4604 -0.16602,-0.17097 -0.33242,-0.34257 -0.49844,-0.5133 -0.1767,-0.18162 -0.35353,-0.3632 -0.53037,-0.54418 -0.15529,-0.15992 -0.30994,-0.31935 -0.4672,-0.47142 -0.18071,-0.17405 -0.36114,-0.35012 -0.54674,-0.5032 -0.19893,-0.16565 -0.40341,-0.30815 -0.59422,-0.50875 -0.205,-0.21113 -0.41002,-0.42184 -0.6159,-0.62941 -0.2332,-0.23529 -0.46597,-0.47263 -0.70371,-0.6893 -0.24173,-0.22209 -0.4861,-0.43375 -0.73252,-0.63518 -0.20213,-0.18202 -0.39658,-0.3939 -0.5977,-0.5802 -0.16484,-0.15275 -0.33307,-0.29307 -0.5049,-0.41429 -0.22708,-0.16157 -0.45815,-0.30492 -0.67998,-0.49145 -0.14059,-0.10791 -0.27847,-0.22693 -0.4181,-0.33825 -0.026,0.0811 -0.0484,0.17119 -0.0659,0.26568 -0.13321,0.67552 -0.0288,1.36514 0.23419,1.54002 l 3e-4,-8.4e-4 c 5.53466,3.6885 10.57369,9.64096 14.97942,17.69016 0.026,0.0486 0.0544,0.0885 0.0842,0.11897 0.20624,0.21242 0.48715,0.0204 0.66986,-0.4924 0.0209,-0.0573 0.0394,-0.11733 0.0558,-0.17835 -0.0586,-0.0934 -0.11945,-0.18039 -0.18102,-0.26484 -0.0685,-0.0874 -0.13925,-0.17076 -0.21038,-0.24917 -0.0764,-0.10361 -0.14109,-0.24122 -0.21468,-0.35381 -0.0565,-0.0844 -0.11699,-0.15604 -0.17802,-0.22402 -0.0854,-0.12368 -0.16502,-0.26713 -0.23864,-0.42479 -0.0407,-0.09 -0.0765,-0.19371 -0.12327,-0.26792 -0.0657,-0.14251 -0.13265,-0.28149 -0.19524,-0.43146 -0.0794,-0.15664 -0.15021,-0.33247 -0.21951,-0.5135 -0.0645,-0.17078 -0.14847,-0.29216 -0.22466,-0.4319 -0.0837,-0.16156 -0.17259,-0.30682 -0.25298,-0.47735 -0.0802,-0.17752 -0.1463,-0.38782 -0.22517,-0.56806 -0.0799,-0.18571 -0.1594,-0.37323 -0.23785,-0.56223 -0.077,-0.22981 -0.17164,-0.41875 -0.26369,-0.61323 -0.015,-0.0326 -0.0295,-0.0661 -0.0444,-0.0997 l -0.16022,-0.16505 -0.39241,-0.40413 -0.29533,-0.30416 -0.20552,-0.21164 -0.23385,-0.24082 -0.2565,-0.26415 c -0.10747,-0.10566 -0.2145,-0.2112 -0.31542,-0.34177 -0.13034,-0.17384 -0.25305,-0.37035 -0.37567,-0.56858 -0.1125,-0.20025 -0.21767,-0.42158 -0.32279,-0.64153 -0.0783,-0.16422 -0.12546,-0.34183 -0.14696,-0.51468 l -0.41346,-0.42579 -0.4782,-0.49246 c -0.12992,-0.13371 -0.26,-0.26782 -0.38998,-0.40162 -0.11794,-0.12122 -0.23572,-0.24291 -0.3536,-0.36414 z"
       inkscape:transform-center-x="-0.30628124"
       inkscape:transform-center-y="-1.5376077" /><path
       id="path5"
       style="opacity:0.6;fill:#ac3b61;fill-opacity:1;fill-rule:nonzero;stroke:none;stroke-width:0.00564742"
       inkscape:transform-center-x="1.3852826"
       inkscape:transform-center-y="3.4151935"
       d="m -552.2259,459.54657 v 0.002 0.002 l -0.0117,0.002 c -0.89081,-0.002 -1.69736,0.0483 -2.4043,0.125 -3.09192,0.33511 -4.98905,1.21097 -5.06836,1.24804 -0.59995,0.28051 -1.11503,1.44161 -1.29102,2.78711 0.0335,-0.0164 0.07,-0.0292 0.10743,-0.0351 0.0487,-0.006 0.0959,-0.0406 0.14453,-0.043 0.0664,-0.0143 0.13628,-0.0384 0.20312,-0.0801 0.0783,-0.0452 0.16931,-0.10131 0.23828,-0.12891 0.0787,-0.0422 0.15783,-0.0819 0.23633,-0.10742 0.0512,-0.0123 0.10531,-0.0469 0.15625,-0.0469 0.0816,-0.0395 0.16069,-0.0653 0.24219,-0.0996 0.10487,-0.0294 0.21348,-0.0723 0.3125,-0.0332 0.0873,0.0164 0.17623,0.0224 0.26172,0.0527 0.0881,-0.0484 0.1739,-0.079 0.26172,-0.11133 l 0.002,-0.004 v -0.006 h 0.004 0.002 0.004 c 0.0373,-0.0185 0.15828,-0.004 0.18945,-0.01 h 0.002 l 0.004,-0.008 c 0.0607,-0.055 0.13826,-0.0673 0.20508,-0.0899 0.0785,-0.0286 0.15739,-0.0143 0.23632,-0.0645 0.11305,-0.0704 0.22334,-0.0495 0.33594,-0.11523 0.11999,-0.0645 0.24005,-0.11271 0.35938,-0.14649 0.14421,-0.0251 0.28959,-0.0572 0.43164,-0.0547 0.1442,-0.0103 0.28497,0.0115 0.42187,0.0625 0.0964,-8.4e-4 0.185,0.0613 0.2793,0.0742 0.0951,0.0297 0.19258,0.0365 0.28906,0.0547 0.11563,0.0387 0.23168,0.0695 0.3457,0.11914 0.0937,0.0123 0.18272,0.063 0.27344,0.0957 0.0523,-0.0237 0.10506,-0.0608 0.15625,-0.0664 0.0608,-0.0143 0.12096,-0.0338 0.18164,-0.0527 0.0963,-0.0553 0.19136,-0.0939 0.28711,-0.125 0.10147,-0.0273 0.2008,-0.0415 0.30274,-0.0781 0.0617,-0.0122 0.12337,-0.024 0.18554,-0.0547 0.10786,-0.0715 0.21487,-0.12182 0.32227,-0.14844 0.10433,-0.0429 0.20786,-0.066 0.3125,-0.14062 0.11945,-0.0501 0.2382,-0.11406 0.35742,-0.15235 0.12271,-0.0557 0.24674,-0.0939 0.36914,-0.13281 0.0792,-0.0102 0.15868,-0.0353 0.23828,-0.0547 0.10187,-0.0164 0.20084,-0.005 0.30078,0 0.0856,0.0236 0.17312,0.0309 0.25586,0.0742 0.10556,0.033 0.21315,0.065 0.31641,0.11328 0.12052,0.0331 0.24121,0.0483 0.36133,0.084 0.0404,0.006 0.081,0.016 0.12109,0.0254 0.0342,-0.155 0.07,-0.30436 0.10547,-0.45703 l 0.004,-0.006 v -0.0117 -0.01 l 0.002,-0.006 0.004,-0.006 h 0.004 l 0.002,-0.004 0.004,0.004 0.002,0.002 0.0117,0.002 c 0.01,0.007 0.023,0.0238 0.0332,0.0312 l 0.002,0.002 h 0.002 0.002 0.002 0.004 c 0.15415,0.0594 0.3157,0.059 0.45898,0.18555 0.15242,0.14252 0.3049,0.27969 0.46094,0.40625 0.23542,0.0846 0.47176,0.16235 0.70703,0.24805 0.0874,-0.30369 0.28359,-0.53644 0.54297,-0.46289 0.15212,0.0438 0.30368,0.0852 0.45508,0.13476 0.19757,0.0506 0.39155,0.13007 0.58789,0.18946 0.13686,0.0498 0.27372,0.10261 0.41406,0.12695 0.13524,0.0387 0.27106,0.0708 0.40625,0.10937 0.12639,0.0365 0.25488,0.0761 0.38086,0.11524 0.13649,0.0454 0.27253,0.0757 0.4082,0.12695 0.13538,0.0387 0.26693,0.0868 0.4043,0.11133 0.17005,0.0297 0.33453,0.12433 0.5,0.18555 0.13115,0.0621 0.2641,0.0901 0.39648,0.14453 0.12952,0.0432 0.26084,0.074 0.39063,0.11523 0.15141,0.0723 0.30617,0.14101 0.45703,0.2168 0.12897,0.091 0.26368,0.14278 0.39648,0.21289 0.12679,0.05 0.25403,0.0908 0.38477,0.11328 0.15279,-0.006 0.30448,-0.006 0.45312,0.0254 0.18654,0.0466 0.36049,0.17847 0.53125,0.3125 0.0966,0.0777 0.19127,0.15867 0.28516,0.24805 0.10106,0.0439 0.20328,0.086 0.30469,0.12695 0.0898,0.0532 0.17949,0.0877 0.27344,0.11328 0.0959,0.0326 0.19685,0.0444 0.29296,0.0762 0.10283,0.037 0.19679,0.11206 0.29102,0.19335 0.0836,0.091 0.17485,0.13994 0.26562,0.19727 0.14628,0.094 0.29064,0.21436 0.42969,0.3418 0.0246,0.0233 0.0473,0.0461 0.0723,0.0684 0.0324,0.0103 0.0657,0.0277 0.0976,0.041 0.10991,0.0651 0.22281,0.10023 0.33399,0.15821 0.10977,0.0556 0.21469,0.14069 0.31836,0.22656 0.10336,0.0968 0.20421,0.19365 0.3125,0.26758 0.13469,0.0856 0.27562,0.13804 0.41211,0.21484 0.0868,0.0631 0.17392,0.10961 0.26562,0.14258 0.10324,0.0395 0.20693,0.079 0.3086,0.1289 0.0358,0.0185 0.0679,0.0425 0.0977,0.0684 0.0809,0.071 0.13881,0.17352 0.17578,0.28907 0.12259,0.0604 0.24853,0.10538 0.36719,0.1875 0.12271,0.0777 0.2356,0.19274 0.34961,0.30859 0.12517,0.11652 0.25183,0.23042 0.38672,0.30078 0.17426,0.13063 0.34564,0.27253 0.50781,0.45508 0.13047,0.13431 0.25881,0.26772 0.39063,0.39648 0.12136,0.1204 0.24471,0.23643 0.36914,0.34375 0.17721,0.15377 0.35652,0.30072 0.53711,0.43946 0.15634,0.13472 0.30721,0.29142 0.45898,0.44531 l 0.46289,0.47461 0.53125,0.54687 0.4336,0.44532 c 0.13793,0.14191 0.27612,0.28767 0.41406,0.42968 0.15533,0.15972 0.3154,0.29319 0.4707,0.45313 0.13926,0.14313 0.27847,0.29133 0.41797,0.43359 0.16511,0.16525 0.32952,0.33081 0.49609,0.49024 0.14689,0.13923 0.29428,0.28168 0.44532,0.40234 0.15295,0.11692 0.31214,0.20873 0.45703,0.36133 0.13483,0.13391 0.27034,0.26168 0.4082,0.38281 0.15051,0.12818 0.30195,0.24554 0.45508,0.36133 0.19046,0.16462 0.36928,0.37903 0.55078,0.58008 0.1753,0.19739 0.34679,0.40583 0.51563,0.62695 0.15239,0.19944 0.30693,0.38754 0.47265,0.53711 0.15064,0.15522 0.3005,0.31768 0.44922,0.48047 0.1396,0.14867 0.27633,0.30176 0.41211,0.46484 0.12352,0.14906 0.24694,0.30808 0.35937,0.49414 0.10202,0.16155 0.21503,0.27714 0.32032,0.42774 0.0738,0.11446 0.14001,0.25276 0.21484,0.36132 0.1136,0.16318 0.22497,0.33981 0.31836,0.56055 0.0919,0.23155 0.17595,0.47779 0.25,0.7461 0.0313,0.1077 0.0654,0.21389 0.0996,0.3164 0.0195,0.0185 0.0413,0.0245 0.0605,0.0449 0.031,0.0309 0.0632,0.0638 0.0937,0.0957 0.0268,0.0275 0.0514,0.0528 0.0781,0.0801 0.0253,0.0262 0.0529,0.0519 0.0781,0.0781 l 0.0918,0.0977 c 0.0419,0.0383 0.0814,0.084 0.11524,0.15039 0.0207,0.0432 0.0445,0.0745 0.0684,0.10937 0.0256,0.0309 0.05,0.074 0.0762,0.10352 0.0457,0.0347 0.0822,0.0981 0.11914,0.16406 0.0371,0.0638 0.0705,0.14278 0.10742,0.20703 0.0376,0.0691 0.0749,0.13743 0.10938,0.21484 0.0297,0.0755 0.0634,0.14347 0.0937,0.2168 0.0303,0.0645 0.0539,0.14613 0.082,0.2168 0.0288,0.0466 0.0532,0.10124 0.0781,0.1582 0.0245,0.0535 0.0512,0.0962 0.0762,0.14844 0.0261,0.0582 0.0531,0.11006 0.0762,0.17578 0.007,0.0205 0.0146,0.0418 0.0215,0.0625 0.0227,0.0404 0.045,0.0768 0.0684,0.11523 0.0648,0.0861 0.12868,0.18019 0.18555,0.29102 0.0539,0.0995 0.11351,0.18976 0.15625,0.31836 0.0399,0.11507 0.0866,0.20849 0.125,0.32617 0.0394,0.11816 0.0825,0.22973 0.125,0.3418 0.0411,0.10893 0.0819,0.21326 0.12304,0.32226 0.0323,0.0928 0.0645,0.19057 0.10352,0.26758 0.0425,0.0834 0.0828,0.17865 0.125,0.26367 0.004,0.0102 0.008,0.0211 0.0137,0.0293 0.0274,0.0381 0.0545,0.083 0.084,0.11328 0.046,0.0522 0.0901,0.10764 0.13672,0.15821 0.0387,0.0412 0.0761,0.0884 0.11523,0.1289 0.0303,0.0315 0.0611,0.0625 0.0918,0.0937 0.0394,0.0357 0.0761,0.0762 0.10742,0.13867 0.0138,0.036 0.0289,0.0663 0.0469,0.0899 0.0275,0.0336 0.0532,0.0753 0.0781,0.11718 0.0222,0.0556 0.0455,0.10571 0.0664,0.16407 0.0109,0.0336 0.0247,0.0585 0.0391,0.084 0.0283,0.0412 0.0574,0.0784 0.0801,0.13477 0.0273,0.0498 0.0494,0.11475 0.0742,0.17187 0.03,0.05 0.052,0.11548 0.0781,0.17383 0.004,0.0122 0.007,0.0173 0.008,0.0215 l 0.002,0.006 0.004,0.006 v 0.008 h 0.002 v 0.0117 c 0.0496,0.0928 0.0764,0.19142 0.084,0.29297 0.0207,0.0261 0.0429,0.0562 0.0625,0.0859 0.0404,0.0584 0.0744,0.13367 0.11523,0.19141 0.0438,0.0669 0.0847,0.14224 0.11524,0.24218 0.0219,0.0673 0.0417,0.13412 0.0645,0.19922 0.0324,0.078 0.0643,0.16254 0.0957,0.24219 0.026,0.0762 0.054,0.14725 0.084,0.21484 0.0408,0.10059 0.0777,0.21313 0.11719,0.31641 0.0308,0.09 0.0644,0.17098 0.10156,0.24609 0.0428,0.101 0.0813,0.21266 0.11914,0.32422 0.0365,0.1073 0.0709,0.21401 0.10937,0.31641 0.0367,0.0985 0.0706,0.2076 0.11133,0.29687 0.0438,0.10382 0.0865,0.21086 0.13086,0.3125 0.0414,0.0976 0.0787,0.20265 0.125,0.28711 0.0572,0.103 0.11802,0.19558 0.17578,0.29688 0.0426,0.0858 0.0791,0.18647 0.11524,0.28711 0.0313,0.0848 0.0652,0.1606 0.0996,0.23828 0.0386,0.0858 0.0835,0.15975 0.11914,0.25195 0.0368,0.092 0.0749,0.17741 0.10547,0.28321 0.0331,0.0934 0.065,0.18885 0.0976,0.2832 0.0302,0.0909 0.0639,0.17327 0.0996,0.25195 0.0342,0.0786 0.0703,0.15324 0.10156,0.23828 0.0365,0.0737 0.0731,0.14439 0.11328,0.20703 0.0489,0.0815 0.10982,0.12848 0.15625,0.21875 0.043,0.0727 0.0833,0.15544 0.12696,0.22657 0.0389,0.0723 0.0741,0.15046 0.11328,0.22265 0.038,0.076 0.0798,0.14275 0.11914,0.21485 0.0377,0.0809 0.0751,0.16157 0.11133,0.24609 0.0315,0.0838 0.062,0.17375 0.0918,0.26172 0.0291,0.0735 0.0562,0.15004 0.082,0.23047 0.0315,0.077 0.0638,0.1553 0.0957,0.23047 0.0266,0.0737 0.0538,0.14069 0.0801,0.21484 0.0337,0.0791 0.0671,0.16853 0.10156,0.24609 0.0395,0.0882 0.081,0.16733 0.11133,0.27735 0.0297,0.0821 0.0571,0.16909 0.0879,0.24804 0.0415,0.0958 0.0859,0.18597 0.1289,0.27735 0.0477,0.10873 0.0948,0.21731 0.13282,0.34765 0.0139,0.0468 0.0261,0.0943 0.0391,0.14258 0.12095,0.25875 0.24009,0.52116 0.35156,0.80274 0.11849,0.29854 0.23499,0.59962 0.35156,0.90234 0.0864,0.22302 0.1781,0.43521 0.26172,0.66406 0.0783,0.20595 0.12991,0.46168 0.19141,0.69922 0.0667,0.25709 0.13032,0.52447 0.19141,0.79102 0.0707,0.31772 0.14197,0.63094 0.2207,0.93554 0.0657,0.25548 0.1324,0.51345 0.19336,0.77735 0.0227,0.0376 0.0438,0.0787 0.0664,0.1289 0.0895,0.20066 0.18276,0.39383 0.26758,0.60547 0.064,0.17897 0.13583,0.33956 0.20117,0.51563 0.073,0.16279 0.13503,0.34751 0.18946,0.54883 0.0541,0.23019 0.0989,0.47828 0.15625,0.70312 0.0557,0.22969 0.10168,0.47162 0.15234,0.70899 0.043,0.23419 0.10125,0.44629 0.14844,0.67382 0.0504,0.20893 0.0944,0.43016 0.13867,0.64844 0.0438,0.2101 0.0957,0.4012 0.13281,0.6211 0.0243,0.17405 0.0602,0.33422 0.0918,0.49804 0.0391,0.17833 0.0687,0.36677 0.10156,0.55469 0.0256,0.13248 0.0479,0.27351 0.082,0.39258 0.0585,0.15152 0.10228,0.34127 0.14063,0.52929 0.0302,0.15254 0.0793,0.26798 0.11719,0.40625 0.0145,0.0645 0.0278,0.13071 0.043,0.19336 0.049,-0.0122 0.10048,-0.009 0.15234,0.0391 0.0699,0.0625 0.14051,0.18869 0.20312,0.38672 0.0268,0.0829 0.0182,0.0449 0.0312,0.10156 0.0558,0.13616 0.11389,0.27578 0.16797,0.41797 0.329,0.86809 -0.0405,1.82182 -0.39062,1.35156 -0.23049,0.11548 -0.47654,0.20025 -0.29492,0.5 -0.0432,-0.0637 -0.0827,-0.12987 -0.11914,-0.21289 -0.046,-0.10974 -0.0469,-0.13827 -0.10352,-0.20703 -0.0558,-0.0864 -0.11088,-0.1734 -0.16211,-0.27344 l -0.25,-0.25781 c -0.0693,-0.0246 -0.13459,-0.0561 -0.20117,-0.0977 -0.0726,-0.067 -0.14935,-0.10959 -0.22852,-0.13867 -0.071,-0.0483 -0.1468,-0.0515 -0.22265,-0.0664 -0.0297,-0.006 -0.059,-0.0166 -0.0879,-0.0293 -0.0359,-0.006 -0.0707,-0.0235 -0.10547,-0.043 -0.0139,-0.0102 -0.0291,-0.0207 -0.043,-0.0293 -0.0699,-0.002 -0.13046,-0.0679 -0.19922,-0.0742 -0.0757,-6.6e-4 -0.14529,-0.0571 -0.2207,-0.0586 -0.0919,0.0123 -0.17457,-0.0507 -0.26172,-0.0723 -0.0792,-0.0122 -0.15653,-0.0417 -0.23242,-0.0781 -0.0536,-0.0357 -0.11312,-0.0325 -0.16993,-0.0488 h -0.002 c -0.008,-8.4e-4 -0.0245,-0.006 -0.043,-0.0117 -0.17575,0.18612 -0.34405,0.21774 -0.50976,0.11719 -0.0603,0.006 -0.12027,0.0135 -0.17969,0.008 -0.0755,0.094 -0.17224,0.15547 -0.29102,0.16406 -0.11849,0.006 -0.23583,-0.002 -0.35156,-0.0234 -0.0918,-0.0103 -0.18445,-0.005 -0.27734,0 -0.0881,-0.0103 -0.17395,-0.0244 -0.26172,-0.0352 -0.0651,0.0307 -0.12912,0.006 -0.19336,0.0195 -0.0591,0.006 -0.12124,0.0289 -0.18164,0.0547 -0.0794,0.0294 -0.15908,0.0613 -0.23828,0.0801 -0.0621,0.0258 -0.1266,0.0514 -0.18946,0.0742 -0.06,0.0225 -0.13559,0.0424 -0.21484,0.0684 -0.0868,0.033 -0.17322,0.0609 -0.25977,0.0899 -0.0647,0.006 -0.13012,0.0403 -0.19531,0.0605 -0.0775,0.0344 -0.15155,0.0464 -0.22656,0.0391 l -0.004,0.006 h -0.002 c -0.0229,0.0123 -0.12392,0.0194 -0.14062,0.0234 -0.0605,0.0279 -0.14381,-0.0163 -0.18555,0 -0.0982,0.0102 -0.19455,-9.5e-4 -0.28906,-0.0293 -0.0929,-0.0103 -0.1851,-0.0118 -0.27735,-0.0254 -0.0508,-0.0143 -0.10282,-0.0245 -0.15429,-0.0352 -0.033,0.11384 -0.0637,0.22739 -0.0957,0.34375 -0.0537,0.22547 -0.11556,0.43509 -0.18359,0.63867 1.01812,0.42668 2.03648,0.85615 3.05469,1.28321 1.0926,0.45863 2.18444,0.91478 3.27734,1.37304 0.10092,-0.23609 0.27695,-0.37955 0.49805,-0.28515 0.13774,0.0592 0.28065,0.0652 0.42382,0.082 0.18401,0.006 0.37112,-0.032 0.55665,-0.0449 0.15979,0.006 0.31826,0.0416 0.47265,0.0918 0.10704,0.0403 0.21822,0.0357 0.33203,0 0.1486,-0.0379 0.29668,-0.10955 0.44532,-0.14844 0.15897,-0.0411 0.31453,-0.0313 0.46679,0 0.22686,0.0294 0.44988,0.0804 0.67188,0.14844 0.0206,0.005 0.0362,0.01 0.0488,0.0117 0.23273,-0.51483 0.40868,-1.13926 0.51171,-1.79687 -0.0927,-0.12449 -0.1548,-0.43081 -0.13085,-0.9336 0.004,-0.10156 -1.9e-4,-0.19413 0.01,-0.29687 0.008,-0.13147 0.007,-0.22669 0.01,-0.35547 0.004,-0.18694 0.0165,-0.37883 0.0176,-0.56445 0.007,-0.14089 0.008,-0.27847 0.006,-0.41602 l -0.004,-0.0176 c 2.1e-4,-0.0123 4.5e-4,-0.0226 0,-0.0488 -0.003,-0.09 -0.004,-0.18199 -0.004,-0.27343 v -0.006 -0.01 c -5.7e-4,-0.006 -0.003,-0.0214 -0.004,-0.0293 v -0.0117 c 7.8e-4,-0.20562 0.008,-0.41262 0.0156,-0.6211 0.0194,-0.22254 0.0205,-0.44444 0.0527,-0.66797 0.0251,-0.18365 0.0433,-0.37126 0.0684,-0.55468 -0.0443,-2.3079 -0.087,-4.61672 -0.13086,-6.92579 -0.0154,0.03 -0.0321,0.0605 -0.0488,0.0899 -0.0757,0.16738 -0.15174,0.33644 -0.26172,0.48437 -0.003,0.004 -0.005,0.01 -0.008,0.0137 -0.0112,0.0262 -0.0222,0.0518 -0.0332,0.0781 -0.0281,0.0565 -0.0484,0.11877 -0.0703,0.17773 -0.0174,0.0888 -0.0394,0.17609 -0.0742,0.25977 -0.0193,0.0605 -0.024,0.12509 -0.0508,0.18359 -0.0203,0.0475 -0.0234,0.0553 -0.0469,0.125 -0.025,0.059 -0.053,0.1108 -0.0723,0.17188 -0.0208,0.0464 -0.0394,0.0997 -0.0644,0.14453 -0.001,0.0365 -0.003,0.0728 -0.008,0.10937 -0.009,0.0647 -0.0222,0.12935 -0.043,0.19141 -0.0128,0.0434 -0.0186,0.11462 -0.0371,0.17188 -0.0155,0.0466 -0.034,0.0894 -0.0469,0.13671 -0.018,0.0493 -0.0431,0.0964 -0.0586,0.14649 -0.025,0.0686 -0.0571,0.1334 -0.084,0.20117 -0.003,0.008 -0.005,0.0158 -0.008,0.0234 -0.003,0.0606 -0.007,0.1201 -0.0117,0.18164 h -0.004 c -7.8e-4,0.0594 0.004,0.27134 0.004,0.39062 -6.7e-4,0.0279 9.4e-4,0.0578 -0.002,0.0879 -0.004,0.16914 -0.011,0.33869 -0.0137,0.50782 0.0373,0.11876 0.0653,0.27972 0.082,0.49023 0.0123,0.15214 0.0347,0.29917 0.0391,0.45899 0.016,0.26878 0.0326,0.53846 0.0332,0.81836 6.7e-4,0.24587 -0.0155,0.45572 -0.043,0.6289 0.01,0.0659 0.016,0.13877 0.0234,0.2168 0.0286,0.30575 0.0107,0.64467 0.0293,0.95703 7.8e-4,0.0235 0.009,0.0543 0.0117,0.0781 0.10323,1.35789 -0.51253,1.92091 -0.6211,0.60938 -0.0617,0.16153 -0.12237,0.28519 -0.16601,0.30273 h -0.002 -0.002 c -10e-4,-4e-5 -0.003,-5e-5 -0.004,0 h -0.002 -0.002 -0.002 l -0.002,0.002 -0.006,-0.002 v -0.002 h -0.002 l -0.002,-0.002 -0.002,-0.002 -0.002,-0.002 h -0.002 v -0.002 l -0.002,-0.002 v -0.002 c -0.0244,-0.0402 -0.0436,-0.14827 -0.0449,-0.35351 -7.8e-4,-0.198 0.001,-0.19417 -0.004,-0.38477 -3.5e-4,-0.0471 -0.0104,-0.24281 -0.008,-0.26953 -0.0123,-0.13536 -0.0264,-0.27076 -0.041,-0.4043 -0.0109,-0.0926 -0.0217,-0.18403 -0.0352,-0.27343 -0.004,-0.0123 -0.007,-0.0267 -0.008,-0.0332 -0.0386,-0.20476 -0.0639,-0.42456 -0.0801,-0.65429 -0.007,-0.15869 -0.0159,-0.32247 -0.041,-0.4629 -0.0451,-0.18511 -0.0505,-0.41728 -0.0781,-0.62304 -0.0234,-0.18654 -0.0405,-0.3831 -0.0801,-0.54883 -0.0123,-0.0516 -0.0222,-0.10814 -0.0312,-0.16406 -0.0672,-0.0448 -0.13297,-0.10297 -0.19531,-0.17383 -0.0721,-0.0938 -0.13988,-0.19991 -0.20313,-0.32031 -0.0724,-0.14395 -0.0945,-0.37396 -0.14257,-0.5625 -0.0529,-0.18389 -0.0845,-0.40711 -0.13086,-0.60157 -0.0492,-0.21689 -0.10201,-0.42289 -0.14063,-0.65625 -0.0352,-0.20915 -0.0728,-0.40947 -0.10742,-0.61914 -0.0211,-0.0439 -0.0439,-0.0918 -0.0645,-0.13672 -0.16236,-0.35981 -0.17964,-0.7642 -0.11914,-1.0664 v -0.006 h -0.008 c -3.48934,-10.52144 -7.59554,-19.19004 -12.24804,-25.84375 -4.67144,-6.68069 -9.89695,-11.35214 -15.53516,-13.88477 -3.76314,-1.69086 -7.19287,-2.17325 -9.86524,-2.17968 z m 39.82618,22.16797 c -0.0109,8.4e-4 -0.0237,0.005 -0.0352,0.006 v 0.006 h -0.002 v 0.006 h -0.004 l -0.004,0.004 v 0.006 c 0.0145,-0.006 0.0306,-0.0131 0.0449,-0.0215 z m 0.34375,21.26171 c -3.2e-4,0.025 -0.001,0.0494 -0.002,0.0742 0.004,-0.0305 0.005,-0.0547 0.002,-0.0742 z m -3.70703,3.67383 c -0.003,0.0357 -0.002,0.0697 -0.004,0.10547 0.004,-0.002 0.01,-0.003 0.0137,-0.004 0.005,-7.5e-4 0.0106,-0.002 0.0156,-0.002 -0.007,-0.0319 -0.0159,-0.063 -0.0234,-0.0937 v -0.006 z m -0.75196,0.76758 c -0.002,0.0244 -0.004,0.0456 -0.008,0.0566 l -0.002,0.006 v 0.004 c 0.003,0.0143 0.003,0.0254 0.004,0.0371 0.004,-0.0403 0.005,-0.0683 0.01,-0.10352 z m -8.83593,1.45508 c -0.0236,0.0105 -0.0554,0.0302 -0.0664,0.041 h -0.002 v 0.004 c 0.0238,0.0123 0.0459,-0.005 0.0684,-0.0449 z m 10.24804,0.89062 c -0.003,0.0255 -0.008,0.0542 -0.01,0.0781 0.0109,0.006 0.02,0.0173 0.0312,0.0234 -0.007,-0.0323 -0.0142,-0.071 -0.0215,-0.10157 z m -7.49414,1.62696 c -0.0121,0.0118 -0.027,0.0223 -0.0391,0.0352 -0.007,0.0164 -0.0109,0.0344 -0.0176,0.0508 0.005,2.8e-4 0.0127,-8e-4 0.0176,-0.002 h 0.002 l 0.002,-0.002 0.002,-0.002 0.002,-0.002 0.002,-0.002 h 0.002 l 0.002,-0.002 c 0.002,-0.003 0.004,-0.006 0.006,-0.01 6e-5,-2e-5 0.005,-0.002 0.006,-0.002 0.005,-0.003 0.0102,-0.007 0.0156,-0.01 -4.1e-4,-0.018 -0.002,-0.035 -0.002,-0.0527 z" /><path
       id="path5-6"
       style="opacity:0.6;fill:#ac3b61;fill-opacity:1;fill-rule:nonzero;stroke:none;stroke-width:0.00558753"
       inkscape:transform-center-x="-1.3156756"
       inkscape:transform-center-y="2.120278"
       d="m -557.04425,552.95086 c -0.004,0.0165 -0.007,0.0324 -0.0117,0.0488 v 0.002 h 0.002 l 0.002,0.002 -0.002,0.002 0.002,0.002 0.002,0.002 c 0.002,-0.0193 0.004,-0.0388 0.006,-0.0586 z m 4.65234,3.79688 c 0.01,0.0511 0.0217,0.1 0.0352,0.15039 0.0344,0.10395 0.0756,0.20536 0.11718,0.30664 0.0987,0.13475 0.18976,0.28787 0.27735,0.4414 0.0168,0.0251 0.0327,0.0479 0.0488,0.0684 -0.003,-0.005 -0.005,-0.0107 -0.008,-0.0156 -0.0794,-0.15048 -0.20962,-0.34727 -0.3125,-0.58399 -0.057,-0.12055 -0.11096,-0.24144 -0.1582,-0.36718 z m 2.3418,0.31836 v 0.002 0.002 0.002 c 0.0521,0.0888 0.1061,0.1763 0.15234,0.26757 0.0678,0.13571 0.17541,0.27756 0.22266,0.39453 0.11622,0.20698 0.24091,0.41148 0.32422,0.63477 0.058,0.18206 0.0986,0.36749 0.17578,0.54297 0.079,0.19503 0.15092,0.3915 0.24023,0.58203 0.0855,0.21233 0.144,0.43424 0.24805,0.63867 0.026,0.0511 0.0507,0.10086 0.0723,0.15039 0.104,0.0209 0.20667,0.0347 0.31446,0.0879 0.11063,0.0541 0.22122,0.10579 0.33203,0.17188 0.1007,0.0677 0.21576,0.15154 0.30273,0.24219 0.0772,0.0656 0.15365,0.12971 0.23047,0.18945 0.0878,0.0691 0.17615,0.1465 0.26367,0.21094 0.11354,0.0835 0.22594,0.18864 0.33985,0.25586 0.10829,0.07 0.21607,0.14402 0.32422,0.22656 0.1091,0.0687 0.14478,0.1055 0.25976,0.18359 0.0779,0.0638 0.15607,0.12989 0.23242,0.20703 0.0727,0.0642 0.11433,0.10893 0.22071,0.17383 0.0744,0.0746 0.15459,0.12681 0.23046,0.19336 0.12715,0.0986 0.25124,0.20951 0.37305,0.34375 l -0.002,0.002 -0.004,-0.002 -0.006,-0.002 -0.002,-0.002 -0.004,-0.002 v 0.002 c 0.0191,0.0188 0.15386,0.1181 0.22071,0.17383 0.0144,0.0141 0.0297,0.0259 0.0449,0.041 0.0872,0.0797 0.17404,0.16575 0.26172,0.24414 0.0786,-0.002 0.17698,0.0212 0.29492,0.0879 0.0852,0.0492 0.16989,0.0796 0.25586,0.14258 0.14836,0.0931 0.2998,0.18536 0.44726,0.30664 0.12951,0.10654 0.23152,0.22272 0.31055,0.33984 0.0388,0.0141 0.0825,0.0305 0.12695,0.0527 0.17318,0.091 0.3431,0.2669 0.51563,0.375 0.0126,0.007 0.029,0.0206 0.043,0.0254 0.75895,0.43881 0.7874,1.60591 0.0508,1.19531 0.11875,0.33421 0.16344,0.57385 -0.13867,0.33008 -0.10456,-0.0854 -0.10106,-0.0857 -0.20313,-0.16211 -0.0247,-0.0211 -0.12943,-0.0966 -0.14258,-0.11133 -0.0766,-0.0405 -0.15403,-0.08 -0.23046,-0.11719 -0.0532,-0.0249 -0.10716,-0.0484 -0.16016,-0.0664 -0.007,1.7e-4 -0.0156,-8.4e-4 -0.0195,-0.002 -0.1245,-0.0317 -0.25105,-0.0899 -0.37891,-0.16601 -0.0866,-0.0583 -0.17892,-0.11664 -0.26367,-0.14063 -0.11694,-0.014 -0.24105,-0.10781 -0.36133,-0.15625 -0.1084,-0.0459 -0.21796,-0.10355 -0.32226,-0.11718 -0.0323,-0.005 -0.0663,-0.0142 -0.0996,-0.0254 -0.0528,0.0808 -0.11138,0.15057 -0.17578,0.2129 -0.0808,0.067 -0.16693,0.12391 -0.25782,0.16601 -0.10711,0.0457 -0.23927,-0.0204 -0.35937,-0.0312 -0.1196,-9.3e-4 -0.24875,-0.0489 -0.3711,-0.0644 -0.13554,-0.0211 -0.26864,-0.0359 -0.4082,-0.0801 -0.12534,-0.0384 -0.2477,-0.0677 -0.37305,-0.10742 -0.0322,0.014 -0.065,0.0245 -0.0976,0.0351 -0.25999,0.0861 -0.48274,-0.0603 -0.61524,-0.2832 l -0.002,-0.002 c -7.05354,0.63211 -13.40229,2.99965 -18.92969,7.0664 -5.54984,4.08339 -10.28552,9.87842 -14.07617,17.22461 -3.37373,6.53715 -5.35963,13.12221 -6.43164,17.4961 -1.17238,4.78212 -1.53967,8.01137 -1.55469,8.14648 -0.11436,1.02213 0.27172,2.3003 0.90234,3.15234 0.006,-0.0576 0.0141,-0.11699 0.0273,-0.17578 0.0182,-0.0755 0.0232,-0.16434 0.043,-0.23828 0.0208,-0.10607 0.0377,-0.21933 0.0449,-0.33789 0.0116,-0.13735 0.0198,-0.29668 0.0352,-0.41211 0.0126,-0.13641 0.0261,-0.27146 0.0469,-0.40039 0.0163,-0.0818 0.0208,-0.17953 0.043,-0.25586 0.015,-0.13947 0.0372,-0.27104 0.0547,-0.4082 0.0298,-0.17027 0.0534,-0.35099 0.11718,-0.48242 0.047,-0.12323 0.0895,-0.25418 0.14258,-0.36914 0.0126,-0.15335 0.0373,-0.2956 0.0586,-0.44141 l -0.002,-0.002 -0.002,-0.002 v -0.002 -0.002 -0.002 c 0.007,-0.0677 0.0765,-0.25881 0.0801,-0.29296 l -0.002,-0.002 c -8.7e-4,-0.11501 0.0237,-0.23771 0.041,-0.34765 0.0191,-0.13006 0.0607,-0.24052 0.0684,-0.38086 0.0126,-0.20037 0.0715,-0.35908 0.0859,-0.55664 0.0184,-0.20813 0.0458,-0.40992 0.0801,-0.60352 0.0496,-0.22719 0.0948,-0.45609 0.1582,-0.66797 0.0577,-0.22061 0.12973,-0.42492 0.2168,-0.60742 0.0416,-0.14511 0.11216,-0.24904 0.16015,-0.38477 0.0571,-0.12958 0.10462,-0.2715 0.15625,-0.4082 0.0709,-0.15662 0.13705,-0.3215 0.21289,-0.4707 0.0469,-0.13547 0.11316,-0.24358 0.16992,-0.36524 0.0116,-0.0887 0.014,-0.18455 0.0332,-0.26367 0.0185,-0.0974 0.037,-0.19497 0.0527,-0.29492 0.0126,-0.1684 0.0334,-0.32717 0.0586,-0.48438 0.0299,-0.16392 0.0644,-0.32158 0.0898,-0.49023 0.0204,-0.0981 0.0419,-0.19607 0.0527,-0.30273 0.009,-0.19307 0.0296,-0.37429 0.0625,-0.54688 0.0227,-0.17521 0.0584,-0.34166 0.0645,-0.53125 0.0259,-0.2011 0.0424,-0.4061 0.0742,-0.60156 0.0244,-0.20838 0.0588,-0.41086 0.0918,-0.61133 0.0291,-0.12299 0.0494,-0.25325 0.0742,-0.38086 0.0353,-0.16039 0.0855,-0.30254 0.13086,-0.45117 0.0498,-0.11807 0.0935,-0.24643 0.15234,-0.35156 0.0634,-0.14369 0.12486,-0.29015 0.19532,-0.42383 0.0698,-0.16628 0.13181,-0.34142 0.20312,-0.50586 0.0213,-0.0576 0.0439,-0.11591 0.0664,-0.17188 -0.0666,-0.11901 -0.13059,-0.23939 -0.19531,-0.35937 l -0.002,-0.002 -0.002,-0.002 -0.002,-0.002 v -0.002 l -0.004,-0.0117 v -0.002 -0.002 h 0.004 c 0.008,-0.0176 0.0307,-0.0354 0.0391,-0.0527 0.0985,-0.20508 0.16985,-0.44987 0.29883,-0.60938 0.14138,-0.16629 0.27943,-0.33694 0.41406,-0.51562 0.1471,-0.31599 0.29378,-0.63586 0.44141,-0.95117 -0.12156,-0.26379 -0.16375,-0.65889 -0.0117,-1.01563 0.0893,-0.20884 0.17748,-0.41771 0.26953,-0.62305 0.11272,-0.27411 0.23858,-0.52655 0.35547,-0.79492 0.0857,-0.18345 0.17203,-0.36861 0.24609,-0.56836 0.0793,-0.18604 0.15702,-0.37282 0.23633,-0.55859 0.0743,-0.17357 0.15103,-0.34776 0.22656,-0.51953 0.0834,-0.18461 0.15811,-0.37949 0.24414,-0.56055 0.0795,-0.18603 0.16354,-0.36139 0.23633,-0.55664 0.0899,-0.24196 0.20823,-0.44657 0.3125,-0.66797 0.09,-0.16957 0.16359,-0.35857 0.25,-0.5332 0.0791,-0.1752 0.15424,-0.35852 0.23242,-0.53516 0.1041,-0.19544 0.20676,-0.3949 0.3125,-0.58789 0.10409,-0.15381 0.19033,-0.33355 0.28516,-0.50195 0.0817,-0.16838 0.15966,-0.34118 0.22851,-0.52735 0.0632,-0.2319 0.12875,-0.46159 0.21094,-0.66992 0.10597,-0.25929 0.24962,-0.46269 0.39453,-0.66015 0.083,-0.11077 0.16799,-0.21467 0.25586,-0.31641 0.0671,-0.13264 0.13145,-0.26819 0.19727,-0.40234 0.0672,-0.11124 0.12547,-0.2335 0.17968,-0.36328 0.0588,-0.12934 0.10933,-0.27219 0.16797,-0.40235 0.0644,-0.13805 0.1447,-0.24969 0.22852,-0.35547 0.0841,-0.0856 0.151,-0.19944 0.2207,-0.31054 0.11331,-0.17828 0.23759,-0.33944 0.36524,-0.49219 0.0229,-0.0269 0.0478,-0.0504 0.0703,-0.0781 0.0195,-0.0442 0.0416,-0.0865 0.0625,-0.1289 0.0822,-0.13618 0.15158,-0.2902 0.23047,-0.43164 0.0773,-0.14017 0.16747,-0.26293 0.25781,-0.38086 0.0958,-0.11264 0.19126,-0.22146 0.27734,-0.35157 0.10387,-0.16463 0.19309,-0.35037 0.29297,-0.52148 0.0711,-0.10254 0.1342,-0.21483 0.19141,-0.33789 0.0659,-0.1376 0.13264,-0.27551 0.20312,-0.40625 0.0247,-0.0461 0.0497,-0.084 0.0762,-0.11719 0.0727,-0.0901 0.15353,-0.13179 0.23046,-0.13672 0.0853,-0.15734 0.16285,-0.32486 0.25782,-0.46679 0.0943,-0.15006 0.20375,-0.27038 0.31445,-0.39063 0.11587,-0.13664 0.23032,-0.27773 0.32617,-0.44922 0.14467,-0.20413 0.29426,-0.39721 0.46094,-0.56054 0.12743,-0.13688 0.25565,-0.27074 0.38086,-0.41211 0.11621,-0.12935 0.22916,-0.26467 0.33984,-0.4043 0.15813,-0.1985 0.31314,-0.40314 0.46485,-0.61328 0.13902,-0.17545 0.28843,-0.33384 0.43554,-0.49414 l 0.45118,-0.48438 0.51953,-0.55859 0.42383,-0.45313 c 0.13483,-0.14464 0.26947,-0.29079 0.40429,-0.43554 0.15175,-0.16299 0.29347,-0.34293 0.44531,-0.50586 0.13608,-0.14628 0.27258,-0.29251 0.40821,-0.43946 0.15889,-0.17545 0.32011,-0.34924 0.47656,-0.52929 0.1372,-0.15947 0.27498,-0.31656 0.4043,-0.49024 0.12812,-0.17827 0.24523,-0.37684 0.38867,-0.52734 0.12911,-0.14371 0.25705,-0.29157 0.38086,-0.44531 0.133,-0.16958 0.26102,-0.3464 0.38867,-0.52539 0.16963,-0.21355 0.36008,-0.38607 0.54492,-0.57032 0.1803,-0.17639 0.3648,-0.34546 0.55469,-0.50195 0.17129,-0.14134 0.33737,-0.28958 0.48828,-0.47266 0.14728,-0.15804 0.29877,-0.30911 0.44922,-0.46093 0.13902,-0.1444 0.2808,-0.28565 0.42578,-0.41797 0.13231,-0.11995 0.26527,-0.23296 0.41211,-0.32031 0.12937,-0.0823 0.24209,-0.20283 0.36719,-0.29493 0.0924,-0.0604 0.19348,-0.0975 0.2832,-0.16211 0.13525,-0.099 0.27678,-0.18891 0.43359,-0.23242 0.16182,-0.0366 0.32861,-0.0572 0.50196,-0.0508 0.0702,3.8e-4 0.1402,1.4e-4 0.20898,-0.008 0.0184,-0.0211 0.0298,-0.0545 0.0488,-0.0742 0.0296,-0.0329 0.0616,-0.0655 0.0918,-0.0977 0.0261,-0.0284 0.0521,-0.0558 0.0781,-0.084 0.0247,-0.0267 0.0473,-0.0537 0.0723,-0.0801 l 0.0918,-0.0977 c 0.0385,-0.0459 0.0794,-0.0841 0.1289,-0.10547 0.0318,-0.0117 0.0592,-0.0362 0.0879,-0.0566 0.0273,-0.0249 0.0631,-0.0383 0.0898,-0.0645 0.0382,-0.0533 0.086,-0.0848 0.13671,-0.11133 0.0498,-0.0278 0.10639,-0.039 0.15625,-0.0664 0.0527,-0.0261 0.10457,-0.0525 0.16016,-0.0703 0.0525,-0.0117 0.10437,-0.035 0.15625,-0.0488 0.0474,-0.0165 0.099,-0.018 0.14844,-0.0293 0.0371,-0.0235 0.0761,-0.0341 0.11719,-0.0469 0.0387,-0.0142 0.0731,-0.034 0.11132,-0.0488 0.0419,-0.0141 0.0823,-0.0291 0.12696,-0.0352 0.014,-9.2e-4 0.0255,-0.01 0.0391,-0.0117 0.031,-0.0165 0.0617,-0.0323 0.0918,-0.0508 0.0735,-0.0595 0.14935,-0.11371 0.23242,-0.15039 0.0759,-0.0374 0.14818,-0.0876 0.23437,-0.0957 0.0778,-0.009 0.15181,-0.0386 0.23047,-0.0449 0.0793,-0.007 0.15495,-0.0247 0.23242,-0.0391 0.0752,-0.014 0.14938,-0.0309 0.22461,-0.0449 0.0627,-0.007 0.12612,-0.0133 0.1836,-0.0371 0.0623,-0.027 0.12828,-0.0426 0.1914,-0.0684 v -0.002 h 0.002 0.002 c 0.004,-0.002 0.009,-0.005 0.0117,-0.006 h 0.002 l 0.002,-0.002 h 0.002 l 0.004,-0.002 c 0.0318,-0.0245 0.069,-0.0451 0.0977,-0.0762 0.0475,-0.0461 0.0955,-0.0909 0.14258,-0.13867 0.0386,-0.04 0.079,-0.0743 0.11719,-0.11523 0.0299,-0.032 0.06,-0.0638 0.0898,-0.0957 0.0361,-0.0434 0.0727,-0.0801 0.11914,-0.0996 0.0247,-0.005 0.0483,-0.014 0.0684,-0.0312 0.0296,-0.0266 0.0626,-0.0494 0.0957,-0.0684 0.0389,-0.009 0.0753,-0.0193 0.11524,-0.0254 0.0228,-0.002 0.0407,-0.0121 0.0605,-0.0215 0.0339,-0.0245 0.0662,-0.0511 0.10547,-0.0606 0.038,-0.0188 0.0803,-0.0231 0.1211,-0.0351 0.0394,-0.0234 0.0868,-0.0291 0.1289,-0.043 h 0.002 0.002 l 0.002,-0.002 h 0.002 0.002 0.002 0.002 0.002 0.002 0.002 0.002 v -0.002 h 0.002 c 0.0704,-0.0339 0.13461,-0.0301 0.19141,0.002 0.0228,-0.0188 0.0463,-0.0364 0.0703,-0.0527 0.0482,-0.0351 0.10413,-0.056 0.15234,-0.0918 0.0544,-0.0363 0.10978,-0.0641 0.17578,-0.0664 0.045,-0.002 0.0907,-0.005 0.13477,-0.0117 0.0549,-0.0141 0.1124,-0.0266 0.16797,-0.0391 0.0513,-0.007 0.1017,-0.014 0.15039,-0.0293 0.0705,-0.0165 0.14525,-0.0227 0.2168,-0.0371 0.0609,-0.007 0.11818,-0.0218 0.17382,-0.0449 0.0717,-0.0188 0.14747,-0.025 0.22266,-0.0332 0.0722,-0.007 0.14422,-0.0142 0.21484,-0.0273 0.0678,-0.0117 0.13848,-0.0178 0.20313,-0.0391 0.0736,-0.0211 0.1498,-0.0359 0.22266,-0.0586 0.0695,-0.0188 0.1404,-0.0322 0.20507,-0.0644 0.0791,-0.0407 0.15392,-0.0927 0.23243,-0.13476 0.0638,-0.0263 0.1325,-0.0347 0.20117,-0.0449 0.0583,-0.009 0.11404,-0.0269 0.16992,-0.0449 0.0619,-0.0211 0.1175,-0.0549 0.18164,-0.0684 0.0644,-0.014 0.12831,-0.0356 0.19727,-0.0351 0.0638,-0.007 0.12747,-0.0145 0.1914,-0.0215 0.0609,-0.005 0.11887,-0.0232 0.17578,-0.041 0.0562,-0.0165 0.11161,-0.0374 0.16992,-0.0469 0.0548,-0.0234 0.10768,-0.0453 0.15821,-0.0781 0.0641,-0.0376 0.11401,-0.10811 0.18164,-0.13868 0.057,-0.0328 0.11722,-0.0571 0.17383,-0.0918 0.0549,-0.0269 0.111,-0.0468 0.16601,-0.0742 0.0564,-0.0238 0.11108,-0.0544 0.16602,-0.082 0.059,-0.0211 0.11941,-0.043 0.17969,-0.0606 0.0576,-0.0117 0.11647,-0.0164 0.17578,-0.0234 0.0513,-0.0117 0.10464,-0.0188 0.1582,-0.0234 0.0543,-0.014 0.10878,-0.026 0.16211,-0.041 0.0502,-0.007 0.0981,-0.0207 0.14844,-0.0273 0.0564,-0.0165 0.11806,-0.0251 0.17382,-0.043 0.0639,-0.0211 0.12241,-0.0497 0.19336,-0.0469 0.0562,-0.007 0.11316,-0.015 0.16797,-0.0254 0.0686,-0.0211 0.13624,-0.0457 0.20313,-0.0703 0.0781,-0.024 0.15713,-0.0469 0.24219,-0.0469 0.0309,-7.1e-4 0.0606,2.1e-4 0.0918,0.002 0.18878,-0.0682 0.37757,-0.13352 0.57422,-0.17774 0.20861,-0.0471 0.41888,-0.0904 0.62891,-0.13281 0.15486,-0.032 0.3061,-0.0742 0.46289,-0.0996 0.14247,-0.0275 0.30138,0.006 0.45312,0.0176 0.1643,0.0117 0.32931,0.0337 0.4961,0.0586 0.19788,0.0329 0.39342,0.0627 0.58789,0.0781 0.16301,0.014 0.32686,0.0268 0.49219,0.0508 0.0297,-0.0188 0.0634,-0.0329 0.0996,-0.0449 0.14448,-0.0463 0.28533,-0.10018 0.4336,-0.13477 0.12199,-0.0188 0.23835,-0.0553 0.35937,-0.0762 0.11738,-0.0384 0.24153,-0.0515 0.3711,-0.0449 0.14465,0.0188 0.2943,0.06 0.4375,0.0723 0.14503,0.0165 0.29256,0.0561 0.43945,0.084 0.14192,0.0378 0.27774,0.0418 0.41797,0.0703 0.13176,0.0165 0.26828,0.0489 0.40234,0.0781 0.12953,0.0261 0.25294,0.0337 0.38477,0.0742 0.102,0.0393 0.20086,0.0539 0.30078,0.0781 0.11062,0.0188 0.22481,0.0566 0.33789,0.0898 0.0807,0.0188 0.16469,0.0462 0.24219,0.0469 0.10502,-0.0211 0.22234,-0.002 0.33789,0.0215 0.0935,0.0211 0.17638,-2.6e-4 0.26562,0.002 0.0404,0.007 0.0815,0.0133 0.1211,0.0156 0.0145,-0.0793 0.04,-0.1523 0.0879,-0.20898 0.0632,-0.0776 0.15965,-0.12942 0.29101,-0.13672 0.0277,-0.001 0.0377,-0.002 0.043,-0.002 0.004,1.3e-4 0.0101,2.7e-4 0.0234,0.002 0.0958,-0.0242 0.19268,-0.0512 0.29102,-0.0703 0.59986,-0.11359 0.94294,0.85625 0.54296,1.17578 -0.0397,0.3961 -0.10203,0.8014 0.13477,0.66015 -0.0523,0.0366 -0.10453,0.0696 -0.16406,0.0879 -0.0778,0.0211 -0.0933,0.0105 -0.1543,0.0645 -0.0698,0.0459 -0.13992,0.0899 -0.21484,0.12304 l -0.24414,0.25977 c -0.0432,0.0933 -0.0898,0.18032 -0.14063,0.26172 -0.0671,0.0794 -0.12201,0.17149 -0.17187,0.27734 -0.0563,0.0852 -0.0918,0.20149 -0.13282,0.30859 -0.0169,0.0414 -0.0333,0.0817 -0.0527,0.11915 -0.0185,0.0513 -0.0431,0.0951 -0.0684,0.13867 -0.0126,0.0165 -0.0221,0.0341 -0.0332,0.0508 -0.0312,0.10395 -0.0934,0.16922 -0.12696,0.26953 -0.0334,0.11335 -0.0932,0.19222 -0.12695,0.30469 -0.0331,0.14369 -0.10319,0.23615 -0.15234,0.35742 -0.0413,0.1129 -0.0901,0.21654 -0.14258,0.31445 -0.042,0.0647 -0.0662,0.15629 -0.0996,0.23438 -0.002,0.009 -0.0127,0.0321 -0.0254,0.0605 0.0213,0.34487 -0.0352,0.60985 -0.16016,0.81446 -0.0227,0.0936 -0.0477,0.18465 -0.0762,0.27148 0.0166,0.15405 0.008,0.32595 -0.0391,0.50781 -0.0482,0.18062 -0.1046,0.35316 -0.16602,0.51758 -0.0451,0.13311 -0.0826,0.27512 -0.12109,0.41602 -0.0437,0.12771 -0.0887,0.25204 -0.13281,0.3789 -0.0126,0.11077 -0.0534,0.19624 -0.0742,0.29883 -0.0222,0.0915 -0.0376,0.19143 -0.0508,0.29297 -0.0196,0.13169 -0.0359,0.26755 -0.0605,0.39453 -0.014,0.10442 -0.0276,0.2122 -0.043,0.31641 -0.0145,0.0995 -0.0383,0.22111 -0.0586,0.35156 -0.0208,0.14416 -0.0436,0.28353 -0.0664,0.42578 -0.0247,0.1002 -0.0348,0.21566 -0.0527,0.32227 -0.0153,0.13124 -0.0435,0.25016 -0.0801,0.35937 l 0.002,0.002 v 0.002 c -0.002,0.0158 -0.009,0.0507 -0.0176,0.0879 0.0218,-0.0129 0.0417,-0.0273 0.0645,-0.0391 0.0546,-0.0286 0.10594,-0.0537 0.14843,-0.0742 0.0899,-0.0685 0.18633,-0.12312 0.28711,-0.16992 0.0867,-0.097 0.17709,-0.19171 0.26953,-0.26758 0.20198,-0.22105 0.41352,-0.43294 0.66993,-0.5918 0.0337,-0.0188 0.0658,-0.039 0.0977,-0.0606 0.0328,-0.17285 0.12278,-0.33294 0.16016,-0.5039 0.13512,-0.61785 0.44301,-0.97074 0.77539,-1.10156 0.53622,-1.07366 1.07164,-2.14878 1.60742,-3.22266 -0.08,-0.25443 -0.0815,-0.5828 0.0644,-0.87305 0.0913,-0.18061 0.15728,-0.39228 0.22852,-0.59961 0.0838,-0.27303 0.14657,-0.56969 0.2207,-0.85351 0.0734,-0.23667 0.16013,-0.45851 0.25391,-0.66797 0.0678,-0.143 0.11378,-0.30981 0.14453,-0.49609 0.0449,-0.23931 0.0708,-0.49647 0.11523,-0.73633 0.0476,-0.25628 0.12035,-0.48271 0.20313,-0.69727 0.11447,-0.32731 0.24047,-0.64031 0.37305,-0.94336 0.0126,-0.0286 0.0201,-0.0513 0.0273,-0.0684 -0.16917,-0.57402 -0.41989,-1.11077 -0.7207,-1.55273 -0.10595,0.0847 -0.29498,0.043 -0.54883,-0.21289 -0.0513,-0.0518 -0.10194,-0.0852 -0.15234,-0.14258 -0.0657,-0.0694 -0.11756,-0.10589 -0.1836,-0.16797 -0.0963,-0.0889 -0.19185,-0.19098 -0.28906,-0.27344 -0.0711,-0.0718 -0.14405,-0.13089 -0.2168,-0.18945 l -0.0117,-0.006 c -0.006,-0.005 -0.0126,-0.009 -0.0254,-0.0215 -0.0482,-0.0363 -0.0965,-0.0734 -0.14453,-0.11328 l -0.002,-0.002 h -0.002 c -0.006,-0.005 -0.012,-0.009 -0.0176,-0.0137 -0.10771,-0.091 -0.21416,-0.19185 -0.32032,-0.29492 -0.10876,-0.1263 -0.22655,-0.22722 -0.33007,-0.37305 -0.0856,-0.11782 -0.17624,-0.22583 -0.26172,-0.34375 -2.49616,-1.90826 -4.99273,-3.81494 -7.48828,-5.72265 z m 3.16601,6.23632 c 0.0116,0.0325 0.0179,0.0637 0.0254,0.0957 0.0159,-1e-4 0.031,-3.6e-4 0.0469,0 h 0.002 l 0.002,0.002 0.002,-0.002 0.002,0.002 c 0.0183,0.002 0.0364,0.002 0.0547,0.002 0.0126,-3.9e-4 0.0265,-0.003 0.0371,-0.008 -0.057,-0.0323 -0.11475,-0.0609 -0.17188,-0.0918 z m 1.48633,5.58204 -0.002,0.002 c 0.0181,0.0188 0.0353,0.0366 0.0527,0.0566 8.8e-4,-0.0188 0.006,-0.0335 0.0117,-0.0488 -0.0197,-0.002 -0.0393,-0.006 -0.0586,-0.008 z m 1.91992,0.37304 v 0.002 c 0.014,0.0165 0.0257,0.034 0.0391,0.0488 0.009,-0.0142 0.0189,-0.0255 0.0274,-0.0391 -0.0219,-0.005 -0.0453,-0.009 -0.0664,-0.0117 z m -1.06836,0.93555 c 0.0208,0.0387 0.0426,0.0772 0.0645,0.11523 -0.009,-0.0322 -0.0175,-0.0627 -0.0273,-0.0976 -0.0116,-0.005 -0.0231,-0.0151 -0.0352,-0.0176 z m -0.77929,0.14844 -0.002,0.004 c 0.018,0.0211 0.0279,0.0356 0.0312,0.0449 h 0.002 0.002 l 0.002,0.002 c 0.001,3.7e-4 0.006,0.002 0.008,0.002 h 0.002 c -0.0161,-0.0205 -0.0302,-0.0343 -0.0449,-0.0527 z m -3.08789,13.89062 c -0.006,0.0398 -0.01,0.0955 -0.008,0.11719 v 0.002 l 0.002,0.002 c 0.0171,-0.0291 0.0153,-0.0718 0.006,-0.12109 z" /><path
       style="opacity:1;fill:#4d4d4d;fill-opacity:0.65625;stroke-width:1.36991"
       d="m -779.27398,762.2974 411.09427,0.80884 271.240891,-1.02392"
       id="path7"
       inkscape:transform-center-x="0.32394265"
       inkscape:transform-center-y="0.0074808181" /><path
       id="path6-6"
       style="fill:#ac3b61;fill-opacity:1;fill-rule:nonzero;stroke:none;stroke-width:0.00455927"
       d="m -286.03509,538.63825 -0.003,0.004 -0.003,0.004 -0.003,0.004 -0.003,0.004 -0.003,0.004 -0.003,0.004 -0.003,0.004 -0.003,0.004 -0.0274,0.002 c 0.009,0.0978 0.015,0.19153 0.016,0.29034 -3.2e-4,0.0289 -1.6e-4,0.0563 -9.9e-4,0.0854 h 0.003 l 0.003,3e-5 0.003,2e-5 0.003,2e-5 c 0.004,4.8e-4 0.012,0.002 0.0154,0.004 l 0.003,4e-5 0.003,2e-5 0.003,2e-5 0.003,3e-5 -4e-5,0.004 h 0.003 l -4e-5,0.004 0.003,2e-5 -3e-5,0.004 0.003,3e-5 -4e-5,0.004 -2e-5,0.004 -6e-5,0.004 -2e-5,0.004 -0.003,0.004 -5e-5,0.004 c -0.004,0.0221 -0.0227,0.0471 -0.0397,0.0598 -0.004,0.0385 -0.004,0.0766 -0.007,0.11526 0.008,0.0271 0.0166,0.0554 0.0281,0.0854 0.0203,0.0738 0.0477,0.1392 0.0655,0.21347 0.0206,0.0711 0.0458,0.13459 0.0677,0.2048 0.0247,0.0771 0.0553,0.14435 0.0771,0.22628 0.009,0.0536 0.0363,0.0891 0.047,0.14085 0.0168,0.0429 0.0382,0.10661 0.0565,0.15816 0.0259,0.0676 0.0517,0.13644 0.0735,0.20916 0.0156,0.0539 0.0504,0.10072 0.0722,0.15393 0.0417,0.0878 0.0851,0.17013 0.12734,0.25618 0.0474,0.0889 0.0969,0.17639 0.14475,0.26471 0.045,0.0762 0.0898,0.14509 0.13559,0.21778 0.0454,0.0784 0.0902,0.15908 0.13334,0.24337 0.0501,0.0926 0.10315,0.17897 0.15444,0.26897 0.0424,0.0871 0.079,0.18579 0.12333,0.26898 0.052,0.0941 0.10542,0.18436 0.15425,0.28605 0.0409,0.0784 0.0802,0.15945 0.12372,0.23054 0.0473,0.0832 0.0931,0.1681 0.14308,0.24337 0.0725,0.11157 0.1489,0.21104 0.21789,0.33302 0.0705,0.1217 0.14244,0.23887 0.2137,0.35863 0.0576,0.0992 0.11744,0.19194 0.17763,0.28176 0.0679,0.0945 0.13379,0.19673 0.19884,0.29882 0.0342,0.0687 0.0718,0.12355 0.10863,0.18779 0.0374,0.0619 0.0736,0.12943 0.11063,0.19215 0.0428,0.069 0.0871,0.13164 0.13397,0.18778 0.0525,0.091 0.0961,0.19382 0.13845,0.30741 0.0195,0.0444 0.0377,0.0913 0.0568,0.13662 0.0819,0.0751 0.16311,0.15558 0.24228,0.24335 0.0386,0.0477 0.0553,0.0738 0.0652,0.0897 l 0.003,4e-5 c 0.004,-3.3e-4 0.0147,-0.001 0.031,0.009 0.13425,0.0873 0.2549,0.24097 0.37274,0.40133 0.0408,0.0576 0.10742,0.095 0.19608,0.20074 0.0523,0.0674 0.10382,0.11618 0.18029,0.22201 0.0187,-6e-4 0.0405,0.006 0.0659,0.0256 0.0369,0.028 0.0705,0.0668 0.10769,0.10255 0.0342,0.0361 0.0663,0.0757 0.0999,0.11526 0.0286,0.0322 0.0565,0.067 0.0824,0.10679 0.0203,0.0289 0.0428,0.06 0.0612,0.0895 0.0179,0.0232 0.0351,0.0504 0.0536,0.077 0.0147,0.0241 0.033,0.0521 0.0477,0.0768 0.0175,0.0225 0.0367,0.0455 0.0516,0.0681 0.0211,0.0355 0.0426,0.0689 0.0651,0.10256 0.0285,0.047 0.0565,0.0874 0.086,0.13219 0.0291,0.0431 0.0584,0.086 0.0879,0.12815 0.0285,0.0451 0.0564,0.0884 0.0861,0.1322 0.0347,0.0499 0.068,0.10329 0.10127,0.15798 0.0239,0.0425 0.0506,0.0788 0.0766,0.11507 0.0257,0.0372 0.0485,0.0722 0.0747,0.11103 0.0208,0.0307 0.0448,0.0615 0.0631,0.0941 0.0134,0.019 0.0235,0.0252 0.0386,0.0385 l 0.003,2e-5 c 0.008,0.007 0.0342,0.0457 0.0422,0.0554 h 0.003 c 0.0203,0.0204 0.0362,0.0521 0.0576,0.0725 0.0163,0.0239 0.0353,0.0348 0.054,0.0512 0.0211,0.0191 0.0392,0.0407 0.0616,0.0597 0.0473,0.0412 0.0564,0.0873 0.0485,0.17068 0.0107,0.0241 0.0191,0.0543 0.0303,0.0854 0.0366,0.0932 0.0254,0.14177 0.012,0.26042 -0.021,0.0672 -0.0514,0.0889 -0.0847,0.0981 l -0.003,-3e-5 -5e-5,0.004 c -0.007,0.007 -0.0269,0.0166 -0.0314,0.0219 -0.0263,0.0239 -0.0557,0.0304 -0.0823,0.0471 -0.0345,0.0219 -0.0715,0.0315 -0.10542,0.0385 -0.029,0.006 -0.0576,0.011 -0.0876,0.011 -0.0369,0.002 -0.0732,-0.002 -0.11063,-0.0129 -0.0371,-0.006 -0.0709,-0.026 -0.10849,-0.0387 -0.0409,-0.0111 -0.083,-0.0184 -0.12426,-0.023 -0.0417,3.2e-4 -0.083,-0.0147 -0.12425,-0.0265 -0.0349,-0.009 -0.0711,-0.0111 -0.10489,-0.0129 -0.0448,-0.002 -0.0897,-0.0129 -0.13388,-0.0298 -0.0315,-0.0129 -0.0619,-0.0317 -0.0929,-0.0512 -0.0107,1.3e-4 -0.0233,-9e-5 -0.035,-2e-5 -0.0399,1.9e-4 -0.0788,-0.001 -0.11865,-6.4e-4 l -0.12052,-7.2e-4 -0.10889,-3e-4 -0.0993,4e-5 c -0.0392,4.2e-4 -0.0768,-0.0147 -0.11437,-0.0343 -0.0369,-0.0282 -0.0726,-0.06 -0.10983,-0.0939 -0.019,-0.0204 -0.0392,-0.0396 -0.0579,-0.0512 -0.0191,-0.007 -0.0374,-0.0147 -0.056,-0.0256 -0.0299,-0.0129 -0.0568,-0.0394 -0.0828,-0.0727 -4.4e-4,-0.0243 -0.003,-0.0486 -0.005,-0.0725 -0.0942,-0.0574 -0.18782,-0.1217 -0.27977,-0.19636 -0.0656,-0.0538 -0.13523,-0.0823 -0.20505,-0.0981 -0.093,-0.0184 -0.18455,-0.0252 -0.27785,-0.0298 -0.10769,-0.004 -0.21519,-0.007 -0.3228,-0.009 -0.14005,0.0184 -0.27693,-0.0298 -0.41116,-0.10679 -0.0556,-0.0396 -0.1117,-0.0668 -0.17031,-0.077 -0.10448,-0.004 -0.20554,-0.0353 -0.30427,-0.0983 l -42.12216,0.006 c -0.10035,0.2083 -0.25103,0.38393 -0.45693,0.48256 -0.12719,0.0609 -0.24926,0.16737 -0.37443,0.2477 -0.0872,0.0366 -0.16745,0.10403 -0.24175,0.21339 -0.10943,0.17547 -0.23007,0.31305 -0.3477,0.45694 -0.0405,0.046 -0.0795,0.0954 -0.11838,0.14527 0.0379,0.11029 0.0739,0.22301 0.1109,0.33729 0.049,0.15834 0.0982,0.35311 0.13094,0.45259 0.0398,0.10531 0.0803,0.20831 0.11891,0.31593 0.10248,-0.009 0.2054,-0.0129 0.30757,-0.0184 0.21139,-0.011 0.42106,-0.007 0.63233,-0.009 0.0959,-0.0924 0.21421,-0.15798 0.35424,-0.18375 0.16624,-0.0304 0.33189,-0.023 0.49795,0.006 0.1403,0.0271 0.28165,0.0692 0.42076,0.11526 0.15314,0.0495 0.30428,0.0803 0.46035,0.0597 0.15209,-0.002 0.30313,3e-5 0.45526,-0.002 0.11291,4.4e-4 0.22593,9e-4 0.33857,-0.006 0.12386,-0.007 0.24788,-0.0147 0.37195,-0.0341 0.11758,-0.0221 0.23367,-0.0574 0.34949,-0.11102 0.13986,-0.0519 0.28025,-0.0714 0.42089,-0.0597 0.0949,-2.2e-4 0.18878,-4.7e-4 0.28403,-6.8e-4 0.13187,0.001 0.26511,-0.004 0.39692,-0.006 0.13589,10e-4 0.27068,6.8e-4 0.40656,1.1e-4 0.1137,-0.004 0.22877,-0.006 0.34263,-0.0217 0.1105,-0.0184 0.21961,-0.0346 0.32962,-0.0727 0.15964,-0.0613 0.31948,-0.1392 0.48182,-0.11526 0.16417,-10e-4 0.32805,-9.1e-4 0.49219,-4.3e-4 0.18043,-7.7e-4 0.3605,-0.002 0.54078,6e-5 0.15872,0.002 0.31776,-10e-4 0.47651,0.007 0.18587,0.009 0.37051,0.0247 0.55578,0.0512 0.22468,0.0328 0.45017,0.0746 0.67343,0.13662 0.19328,0.0444 0.38905,-0.006 0.58347,0.0129 0.20759,-0.002 0.41505,0.002 0.62251,10e-5 0.19584,-0.002 0.39181,-0.007 0.58762,-0.0129 0.22829,-0.006 0.45692,-0.0249 0.68477,-2.2e-4 0.17138,0.0462 0.34827,-0.007 0.52123,0.011 l 0.50577,6e-5 0.50188,-7e-5 0.59723,-10e-5 0.63806,-7e-5 c 0.17521,-9.6e-4 0.3502,-9e-5 0.52525,-5.2e-4 0.19724,-1.4e-4 0.39604,0.002 0.59332,-2.2e-4 0.20223,-0.002 0.40282,0.002 0.60501,-1.8e-4 0.18614,-0.002 0.37241,-0.006 0.55851,-0.0184 0.13487,-0.009 0.27119,-0.0166 0.40533,-0.0598 0.17775,-0.0608 0.35448,-0.15245 0.53459,-0.13662 0.21756,-10e-4 0.43604,10e-4 0.65364,-2.4e-4 0.23514,-6.2e-4 0.46935,-10e-4 0.70421,-5e-5 0.22343,-10e-4 0.4479,0.002 0.67118,-0.004 0.19148,-0.004 0.38277,-0.011 0.57429,-0.0341 0.21826,-0.026 0.43592,-0.0595 0.65305,-0.11968 0.20142,-0.049 0.40165,-0.0626 0.60364,-0.0512 l 0.55443,5.5e-4 0.50776,-10e-4 c 0.17521,-9.6e-4 0.34981,-1.1e-4 0.52523,-5e-4 0.21765,-0.001 0.43609,-0.002 0.65364,-2.5e-4 0.25278,3e-5 0.50601,0.006 0.75859,0.007 0.30914,0.007 0.61678,0.011 0.92558,0.0341 0.26539,0.0226 0.53107,0.0587 0.79409,0.13202 0.20366,0.0519 0.40871,0.0412 0.61422,0.0422 0.24072,0.006 0.48111,0.007 0.72144,0.0254 0.24215,0.0199 0.48412,0.0475 0.72425,0.11507 0.21732,0.0545 0.43514,0.0847 0.65485,0.0639 0.22577,-9.5e-4 0.45114,-0.002 0.67698,-1.2e-4 0.25841,2.3e-4 0.51561,-8.7e-4 0.77417,0.004 0.24901,0.002 0.4982,-0.002 0.74689,0.0129 0.19561,0.011 0.39302,0.0184 0.58651,0.0808 0.11771,0.0431 0.23814,0.0917 0.35004,0.17933 0.18377,0.0429 0.36665,0.0994 0.54419,0.2091 0.0175,0.011 0.0345,0.0197 0.0521,0.0298 0.031,-7.2e-4 0.0624,-0.006 0.0934,-0.006 0.0621,-10e-4 0.12466,-0.006 0.18681,-0.004 0.0617,4.2e-4 0.12306,8.2e-4 0.18483,-6.1e-4 0.068,-10e-4 0.13609,10e-4 0.20413,0.009 0.0804,0.007 0.16252,0.009 0.24304,0.0129 0.0978,0.002 0.19579,0.006 0.2937,0.004 0.099,0.002 0.19706,-1.7e-4 0.29571,-2.6e-4 0.0993,-6e-5 0.19825,-1.1e-4 0.29764,-1.7e-4 0.1125,4.3e-4 0.22593,-9.6e-4 0.33848,-5.1e-4 l 0.34628,-2.4e-4 0.32485,8.1e-4 0.31902,6e-4 c 0.0918,0.002 0.18238,0.006 0.27441,-0.009 0.0799,-0.009 0.16173,-0.0278 0.24173,-0.0427 0.0788,-0.0147 0.15652,-0.0166 0.23563,-0.0217 0.0814,-0.004 0.16348,-0.006 0.24515,-0.004 0.0884,-4.6e-4 0.17806,-8.6e-4 0.26648,5.4e-4 0.0725,-10e-4 0.14521,0.002 0.21795,-0.006 0.0652,-0.007 0.12947,-0.0129 0.19474,-0.0184 0.0537,-0.006 0.10622,-0.006 0.1596,-0.006 0.0526,9e-5 0.10488,-0.006 0.15763,-0.006 0.0176,-2.6e-4 0.0334,-5.6e-4 0.0468,0.004 l 0.003,3e-5 c 0.14742,-0.004 0.29627,-0.004 0.44355,-0.004 0.16547,-0.0197 0.33298,0.0451 0.49815,-0.0129 0.17382,-0.0536 0.34638,-0.10715 0.52106,-0.14103 0.14944,-0.0289 0.29998,-0.0389 0.44992,-0.047 0.1292,-0.006 0.2581,-0.011 0.38726,-0.0129 0.13014,-0.002 0.26114,3.5e-4 0.39103,-4.4e-4 0.10582,1.8e-4 0.2117,-10e-4 0.31707,5.3e-4 0.11704,6.1e-4 0.23272,-7e-4 0.35017,-9e-5 l 0.21983,-10e-4 c 0.016,-0.0678 0.0572,-0.12373 0.12198,-0.12373 l 0.11478,5.2e-4 0.15175,-0.002 0.14198,0.002 0.13227,10e-4 0.11277,4.5e-4 0.11477,5.1e-4 0.0857,10e-4 0.0798,0.001 0.0914,-3.3e-4 0.0895,-4.3e-4 c 0.0321,-6.6e-4 0.0652,-0.001 0.0971,0.007 0.1346,-0.0486 0.26998,-0.0622 0.40552,-0.0771 0.10141,-0.011 0.2043,-0.0129 0.30562,-0.0184 0.0323,-6.4e-4 0.0632,-10e-4 0.0934,0.004 0.008,-0.0674 0.0421,-0.12778 0.0969,-0.14085 0.009,-10e-4 0.0206,-5.5e-4 0.031,-2e-5 0.0433,0.002 0.0854,0.0147 0.12813,0.023 0.0462,0.006 0.0922,0.007 0.13785,0.0234 0.033,0.011 0.0668,0.0208 0.10074,0.0256 0.0317,0.004 0.0652,-0.001 0.0953,0.004 0.029,8.6e-4 0.0555,1.8e-4 0.0856,0.001 0.0371,0.006 0.073,0.0225 0.1105,0.0383 0.0349,0.0147 0.0688,0.0363 0.10248,0.0512 0.0279,0.0129 0.0553,0.0129 0.0855,0.0184 0.0434,0.0129 0.0879,0.0272 0.13188,0.0341 0.0355,0.006 0.0692,0.006 0.10688,0.007 0.0286,10e-4 0.0555,0.009 0.0855,0.011 0.0369,3.2e-4 0.0732,8.5e-4 0.11089,3.7e-4 0.0422,4e-5 0.0842,10e-4 0.1264,9.4e-4 0.0445,2e-5 0.0882,10e-4 0.13227,10e-4 l 0.12252,7.9e-4 0.13028,10e-4 c 0.0346,0.004 0.0711,0.0147 0.10475,0.0223 0.0428,0.006 0.0854,0.0228 0.12813,0.0265 0.0425,10e-4 0.0838,-6.1e-4 0.1264,9.4e-4 0.039,2e-4 0.078,10e-4 0.11664,5.9e-4 0.0375,4e-5 0.0752,9e-4 0.11277,4.4e-4 l 0.0953,-2e-4 0.0798,10e-4 0.0914,-3.5e-4 c 0.003,-0.0147 0.004,-0.025 0.009,-0.0383 l 0.003,-0.0254 4e-5,-0.004 3e-5,-0.004 0.003,-0.004 0.003,-0.004 0.005,-0.0129 0.003,-0.004 5e-5,-0.004 0.003,2e-5 4e-5,-0.004 2e-5,-0.004 h 0.003 l 0.003,-0.004 0.003,-0.004 0.003,3e-5 0.003,-0.004 0.003,4e-5 0.008,-2e-5 0.012,2e-5 0.008,-0.004 0.012,1e-5 0.012,2e-5 0.003,2e-5 0.003,2e-5 0.003,4e-5 c 9.4e-4,9e-5 0.004,10e-6 0.005,-4e-5 l 0.003,4e-5 4e-5,-0.004 c 0.008,-0.004 0.0309,-0.011 0.0333,-0.0129 0.009,-0.004 0.04,-0.011 0.0488,-0.0129 l 0.003,3e-5 4e-5,-0.004 c 0.0178,-0.009 0.0283,-0.0186 0.0354,-0.0256 0.0233,-0.0188 0.0497,-0.0335 0.0724,-0.0427 0.0208,-0.007 0.0397,-0.007 0.0623,-0.009 0.0196,-10e-4 0.0396,2.4e-4 0.0583,2.9e-4 0.0214,-2e-4 0.0415,0 0.0641,5e-4 0.0107,-2e-5 0.0199,-7.8e-4 0.0291,0.006 0.0107,-0.004 0.0238,-0.009 0.0371,-0.009 l 0.0311,-2e-5 0.0778,10e-4 0.0894,10e-4 0.0107,3e-5 c 0.0233,-0.011 0.0473,-0.0219 0.0703,-0.0256 0.0107,-10e-4 0.0188,-10e-4 0.0293,0 0.0309,0.006 0.0648,0.0147 0.093,0.03 0.003,-3e-5 0.004,6e-5 0.005,0 0.0156,-4.4e-4 0.0322,-6.6e-4 0.0486,-3e-5 0.0281,0.006 0.0591,0.0129 0.0854,0.0256 0.0202,0.011 0.0393,0.0269 0.0581,0.0385 0.0293,0.023 0.0544,0.0549 0.0725,0.11121 l -2e-5,0.004 0.003,2e-5 0.003,0.004 c 0.0235,0.0331 0.0349,0.083 0.0334,0.13662 0.004,0.0199 0.003,0.0424 0.007,0.0643 2.4e-4,0.0352 0.003,0.0714 0.001,0.1066 0.003,0.0657 -0.001,0.13183 -0.0198,0.18781 l -7e-5,0.004 c -10e-4,0.009 -0.004,0.0267 -0.009,0.0425 -0.008,0.0245 -0.0203,0.0468 -0.0281,0.0683 -0.0107,0.0274 -0.0224,0.0525 -0.0341,0.0808 -0.0159,0.0387 -0.0325,0.0771 -0.0481,0.11526 -0.0146,0.0278 -0.0265,0.0571 -0.0417,0.0812 l -4e-5,0.004 -0.003,-0.004 -3e-5,0.004 c -0.004,0.011 -0.009,0.0278 -0.0107,0.03 -0.009,0.0333 -0.0182,0.0635 -0.0283,0.0981 -0.0148,0.044 -0.0289,0.0841 -0.0482,0.12391 -0.003,0.004 -0.0168,0.0357 -0.0219,0.0471 l -0.003,0.004 c -0.012,0.0412 -0.02,0.084 -0.0343,0.11931 -0.0162,0.0377 -0.0322,0.07 -0.0403,0.11507 -0.0211,0.0735 -0.0456,0.14527 -0.0762,0.20064 -0.0277,0.0584 -0.0529,0.12336 -0.08,0.18357 -0.0309,0.063 -0.062,0.12317 -0.0953,0.17915 -0.0266,0.0471 -0.0508,0.0954 -0.0775,0.14527 -0.0215,0.0353 -0.0405,0.0755 -0.0635,0.11102 -0.0268,0.0488 -0.0565,0.0954 -0.0832,0.14085 -0.0315,0.0527 -0.0627,0.10698 -0.0934,0.16221 -0.0365,0.0639 -0.0708,0.12778 -0.10929,0.19223 -0.0441,0.0762 -0.0897,0.15005 -0.13678,0.21776 -0.0458,0.0641 -0.0905,0.13054 -0.13459,0.20069 -0.0517,0.079 -0.10328,0.16497 -0.15647,0.2391 -0.0432,0.062 -0.0855,0.11949 -0.13054,0.17491 -0.0402,0.0549 -0.0812,0.10587 -0.12239,0.15798 -0.0529,0.0631 -0.10835,0.11507 -0.16525,0.15816 -0.0497,0.0328 -0.10114,0.0565 -0.15078,0.0854 -0.0453,0.0379 -0.0827,0.1136 -0.12639,0.15816 -0.0473,0.0552 -0.0925,0.11305 -0.13821,0.1751 -0.0641,0.0828 -0.12827,0.16755 -0.19164,0.25195 -0.0595,0.0827 -0.11704,0.17399 -0.17237,0.269 -0.0541,0.0865 -0.10569,0.18099 -0.16064,0.26473 -0.0589,0.0808 -0.11451,0.16939 -0.17407,0.24767 -0.0562,0.0753 -0.11611,0.13975 -0.17361,0.20933 -0.0529,0.058 -0.10382,0.11858 -0.15394,0.18773 -0.0456,0.0644 -0.091,0.13459 -0.13465,0.20485 -0.0533,0.0917 -0.10702,0.17934 -0.16261,0.26477 -0.0427,0.0657 -0.0855,0.13754 -0.13067,0.19623 -0.0366,0.0514 -0.0724,0.0991 -0.11063,0.14951 -0.0327,0.0523 -0.0549,0.12262 -0.0819,0.18773 -0.0297,0.065 -0.0591,0.1276 -0.0937,0.18357 -0.0269,0.0422 -0.0525,0.0829 -0.0794,0.12796 -0.0291,0.0455 -0.0584,0.0926 -0.0891,0.13238 -0.0406,0.0569 -0.0806,0.11618 -0.12078,0.1751 -0.0476,0.0672 -0.0959,0.13368 -0.14427,0.19641 -0.0394,0.0549 -0.0774,0.11544 -0.11678,0.17067 -0.0354,0.0512 -0.0687,0.1033 -0.10675,0.14969 -0.0314,0.0427 -0.0657,0.081 -0.0947,0.12373 -0.0257,0.0317 -0.0502,0.0608 -0.077,0.0941 -0.0166,0.0225 -0.0362,0.0418 -0.0552,0.0641 -0.0211,0.0291 -0.0404,0.0575 -0.0632,0.0854 -0.0218,0.0267 -0.0421,0.0565 -0.0652,0.0812 -0.0175,0.019 -0.0346,0.0363 -0.0532,0.0512 -0.009,0.0223 -0.0195,0.0455 -0.0281,0.0683 -0.0269,0.0782 -0.0609,0.14361 -0.0881,0.22205 -0.027,0.0816 -0.0631,0.14858 -0.0903,0.2263 -0.0271,0.0665 -0.0473,0.1449 -0.0707,0.21774 -0.0306,0.10292 -0.0639,0.20154 -0.0987,0.2989 -0.0229,0.0639 -0.0448,0.13054 -0.0663,0.1964 0.0486,0.10311 0.0922,0.21927 0.13027,0.34157 0.4071,-0.53543 0.81571,-1.07398 1.22289,-1.60984 l 0.003,-0.004 c 0.007,-0.0147 0.0146,-0.0295 0.0219,-0.0425 0.0158,-0.0274 0.0342,-0.0556 0.0496,-0.081 0.0143,-0.0217 0.0302,-0.0477 0.0456,-0.0683 0.0152,-0.0219 0.0261,-0.0296 0.0374,-0.0512 0.0107,-0.0184 0.0227,-0.037 0.0337,-0.0556 0.0139,-0.026 0.0227,-0.0556 0.0417,-0.0812 0.016,-0.0219 0.0226,-0.0344 0.0454,-0.0639 0.008,-0.009 0.0202,-0.0261 0.0317,-0.0427 0.0107,-0.0147 0.0251,-0.0331 0.0257,-0.0341 0.0138,-0.0223 0.0302,-0.0486 0.0416,-0.0727 0.0174,-0.0317 0.0363,-0.06 0.0555,-0.0897 0.012,-0.0193 0.0282,-0.0409 0.0397,-0.0639 0.0152,-0.0232 0.0224,-0.0504 0.0378,-0.0725 0.0152,-0.0225 0.0221,-0.035 0.0297,-0.0512 0.0162,-0.0343 0.0363,-0.0606 0.0553,-0.0854 0.0107,-0.0184 0.0183,-0.0258 0.0337,-0.0556 0.0168,-0.0282 0.0361,-0.0471 0.0514,-0.0766 0.0176,-0.0184 0.0305,-0.0545 0.0494,-0.0725 0.0107,-0.0147 0.027,-0.0389 0.0297,-0.0427 0.0148,-0.0221 0.0301,-0.0399 0.0414,-0.0641 0.0188,-0.0304 0.0345,-0.0606 0.0534,-0.0854 0.0152,-0.0191 0.0303,-0.0517 0.0456,-0.0725 0.015,-0.0249 0.0343,-0.0637 0.0494,-0.077 0.016,-0.0191 0.0281,-0.0322 0.0433,-0.051 0.018,-0.0239 0.04,-0.0501 0.0592,-0.0641 0.0148,-0.0129 0.0262,-0.0361 0.0414,-0.0427 0.0162,-0.0184 0.0262,-0.0289 0.0413,-0.0471 0.0138,-0.0184 0.0299,-0.0298 0.0413,-0.0512 0.0191,-0.0239 0.0341,-0.0473 0.0494,-0.077 0.0143,-0.0239 0.0342,-0.0445 0.0496,-0.0681 0.0143,-0.0221 0.0282,-0.0442 0.0435,-0.0641 0.018,-0.0278 0.0343,-0.058 0.0534,-0.081 0.0203,-0.0271 0.0365,-0.0606 0.0593,-0.0854 0.0217,-0.03 0.0442,-0.0604 0.0672,-0.0854 0.0142,-0.023 0.0342,-0.0446 0.0496,-0.0681 0.0198,-0.0317 0.0401,-0.0567 0.0594,-0.0897 0.0211,-0.0297 0.0422,-0.0608 0.0613,-0.0897 0.0211,-0.028 0.0441,-0.0589 0.0633,-0.0897 0.0229,-0.0339 0.0444,-0.0727 0.0675,-0.10679 0.0107,-0.0193 0.0261,-0.0374 0.0377,-0.0596 0.0144,-0.0247 0.0322,-0.0527 0.0476,-0.0727 0.0164,-0.0234 0.0361,-0.0387 0.0513,-0.0683 0.0167,-0.0241 0.0362,-0.0471 0.0553,-0.0725 0.0199,-0.0272 0.0402,-0.0536 0.0595,-0.0812 0.02,-0.0318 0.0385,-0.0659 0.0615,-0.0941 0.0191,-0.0247 0.0399,-0.0455 0.0553,-0.077 0.0172,-0.0302 0.0363,-0.0582 0.0553,-0.0854 0.005,-0.009 0.0321,-0.0585 0.0436,-0.0725 0.0187,-0.019 0.0305,-0.0527 0.0494,-0.0725 0.004,-0.007 0.0147,-0.0184 0.0178,-0.0217 l 0.003,3e-5 c 0.0191,-0.044 0.0406,-0.0799 0.0636,-0.11525 0.0263,-0.0374 0.0526,-0.079 0.0827,-0.0897 0.025,-0.0129 0.048,-0.0365 0.0744,-0.047 0.0204,-0.007 0.0403,-0.0129 0.0607,-0.0184 0.0261,-0.0396 0.0518,-0.0808 0.0792,-0.11968 0.0516,-0.0746 0.10422,-0.14435 0.15621,-0.21778 0.0472,-0.0705 0.0939,-0.14325 0.14249,-0.20914 0.0351,-0.0501 0.0704,-0.1044 0.10489,-0.15816 0.0196,-0.0256 0.0382,-0.0545 0.0575,-0.081 0.0251,-0.0376 0.052,-0.0724 0.0751,-0.11102 0.0229,-0.035 0.0464,-0.0659 0.0691,-0.0979 0.0218,-0.0365 0.0464,-0.0729 0.0692,-0.10256 0.0237,-0.0308 0.0444,-0.0742 0.0673,-0.10255 0.0182,-0.03 0.0367,-0.0615 0.0555,-0.0897 0.009,-0.0377 0.0233,-0.0633 0.0381,-0.0897 0.012,-0.011 0.0222,-0.0333 0.0335,-0.0385 l 0.003,2e-5 c 8.9e-4,4e-5 0.004,-2.8e-4 0.005,-4e-5 l 0.003,6e-5 h 0.003 l 0.003,4e-5 0.003,3e-5 h 0.003 l 0.003,0.004 c 0.005,-0.009 0.0164,-0.0249 0.0218,-0.0302 l 0.003,4e-5 6e-5,-0.004 0.003,6e-5 0.003,-0.004 c 6.3e-4,-0.002 0.001,-0.007 0.003,-0.009 l 0.003,6e-5 c 0.003,-0.065 0.0212,-0.14049 0.0608,-0.20931 0.0196,-0.0346 0.0423,-0.0676 0.0613,-0.0981 0.0263,-0.0377 0.0542,-0.0729 0.081,-0.11102 0.0176,-0.0282 0.0364,-0.056 0.0553,-0.0768 0.0229,-0.0333 0.0462,-0.0628 0.0691,-0.098 0.029,-0.0383 0.0565,-0.0865 0.087,-0.1195 0.0271,-0.028 0.0561,-0.0514 0.0826,-0.0771 0.0257,-0.033 0.0541,-0.0654 0.077,-0.10256 0.0295,-0.0403 0.0604,-0.0803 0.087,-0.12373 0.0245,-0.0383 0.0521,-0.074 0.0752,-0.11102 0.031,-0.0501 0.0625,-0.0965 0.0931,-0.14509 0.0345,-0.0527 0.0687,-0.11047 0.10315,-0.16663 0.0301,-0.0517 0.0568,-0.11397 0.0913,-0.15374 0.0222,-0.0302 0.0405,-0.0694 0.0633,-0.0981 0.0199,-0.0335 0.0402,-0.0646 0.0596,-0.10255 0.0192,-0.0431 0.0387,-0.0891 0.0578,-0.13239 0.0178,-0.0422 0.0309,-0.0911 0.0501,-0.13238 0.0178,-0.0403 0.0363,-0.0775 0.0521,-0.11949 0.0202,-0.0495 0.0428,-0.0965 0.0619,-0.14509 0.0238,-0.0554 0.0468,-0.10955 0.0701,-0.16644 0.0267,-0.0622 0.0549,-0.12244 0.082,-0.18357 0.0317,-0.0661 0.0667,-0.1287 0.0938,-0.20066 0.0299,-0.0698 0.0615,-0.1368 0.0957,-0.19642 0.004,-0.0725 0.007,-0.14785 0.008,-0.22201 0.003,-0.31197 -0.0192,-0.61575 -0.0653,-0.9009 -0.005,0.011 -0.0143,0.0217 -0.0236,0.0341 -0.0216,0.0284 -0.0496,0.006 -0.0759,-0.004 l -0.003,-0.004 -0.003,-0.0129 c -0.004,-0.007 -0.0107,-0.0129 -0.0135,-0.019 l -0.003,-0.009 6e-5,-0.004 c -0.0134,-0.0147 -0.0279,-0.0315 -0.0423,-0.0425 -0.0258,-0.0228 -0.049,-0.0482 -0.0711,-0.081 -0.0134,-0.0202 -0.029,-0.0411 -0.0401,-0.0725 -0.0224,-0.0394 -0.0424,-0.083 -0.0608,-0.13202 -0.016,-0.044 -0.0326,-0.0934 -0.0508,-0.13662 -0.0183,-0.0493 -0.0441,-0.0889 -0.0585,-0.14527 -0.0134,-0.0464 -0.0249,-0.0941 -0.0393,-0.14067 -0.0148,-0.0565 -0.0285,-0.11452 -0.0428,-0.17068 -0.0216,-0.07 -0.0538,-0.12336 -0.0796,-0.18356 -0.0376,-0.0736 -0.0742,-0.14583 -0.11223,-0.21782 -0.0262,-0.0484 -0.0562,-0.091 -0.0822,-0.1368 -0.0262,-0.0429 -0.0524,-0.0836 -0.0783,-0.12796 -0.031,-0.0504 -0.0623,-0.10072 -0.0955,-0.14951 -0.0339,-0.0539 -0.0659,-0.10955 -0.0991,-0.16663 -0.0274,-0.0442 -0.0545,-0.0898 -0.084,-0.13238 -0.0291,-0.0508 -0.0562,-0.0956 -0.0858,-0.14932 -0.0343,-0.0617 -0.0716,-0.12336 -0.10489,-0.18357 -0.0346,-0.0554 -0.0701,-0.10661 -0.10702,-0.1624 -0.0314,-0.0431 -0.0664,-0.0817 -0.0959,-0.12814 -0.0434,-0.0659 -0.0643,-0.14141 -0.0675,-0.20918 -1.92499,-2.61117 -3.84967,-5.22281 -5.77401,-7.83412 z m -0.60989,1.5927 c -0.0207,0.0495 -0.0428,0.0996 -0.06,0.15374 l 0.003,2e-5 0.003,-0.004 c 0.018,-0.0497 0.0386,-0.0978 0.0564,-0.14951 z m 4.73677,8.36797 -4e-5,0.004 0.003,4e-5 3e-5,-0.004 z m -2.69283,9.40658 -10e-6,0.004 h 0.003 l 3e-5,-0.004 z m -4.79306,6.17036 -4e-5,0.004 -4e-5,0.004 0.003,4e-5 6e-5,-0.004 2e-5,-0.004 z"
       inkscape:transform-center-y="1.4613111"
       inkscape:transform-center-x="0.007557617" /><path
       style="fill:#ac3b61;stroke-width:1.56846"
       d="m -280.36113,552.45465 c -0.0867,0.0597 -0.30338,0.0597 -0.26003,0.17915 0.0433,0.11949 0.32856,-0.27361 0.26003,-0.17915 -0.1747,0.24075 -0.47459,0.32256 -0.58508,0.62709 -0.0192,0.0529 -0.1085,0.32862 -0.13001,0.35834 -0.0154,0.0212 -0.0497,-0.0212 -0.0651,0 -0.0154,0.0212 0.0154,0.0685 0,0.0897 -0.1345,0.18535 0.005,-0.28326 -0.13,0.0897 -0.009,0.0267 0.0154,0.0685 0,0.0897 -0.0154,0.0212 -0.0497,-0.0212 -0.0649,0 -0.0154,0.0212 0.0154,0.0685 0,0.0897 -0.0154,0.0212 -0.0497,-0.0212 -0.0651,0 -0.0651,0.0897 0.0651,0.0895 0,0.17915 -0.0154,0.0212 -0.0457,-0.0129 -0.0651,0 -0.27055,0.1864 0.0695,-0.006 -0.0651,0.17914 -0.0154,0.0212 -0.0457,-0.0129 -0.0651,0 -0.10315,0.0711 -0.15213,0.29922 -0.19503,0.35834 -0.0325,0.0447 -0.0975,0.0447 -0.13,0.0897 -0.017,0.0234 -0.16618,0.40816 -0.19504,0.44793 -0.0154,0.0212 -0.0497,-0.0212 -0.0651,0 -0.0154,0.0212 0.0154,0.0685 0,0.0897 -0.0143,0.0197 -0.2882,0.24337 -0.32505,0.26876 -0.0548,0.0378 -0.0752,0.14141 -0.13001,0.17915 -0.0194,0.0129 -0.0497,-0.0212 -0.0651,0 -0.0154,0.0212 0.0154,0.0685 0,0.0897 -0.0154,0.0212 -0.0497,-0.0212 -0.0651,0 -0.0154,0.0212 0.0154,0.0685 0,0.0895 -0.0143,0.0197 -0.2882,0.24337 -0.32505,0.26876 -0.0945,0.065 -0.0742,0.28145 -0.13001,0.35836 -0.0216,0.0298 -0.17334,0.0596 -0.19502,0.0897 -0.026,0.0359 -0.0351,0.11379 -0.13,0.17915 -0.0393,0.0271 -0.16497,-0.0414 -0.19502,0 -0.0154,0.0212 0.009,0.063 0,0.0897 -0.0472,0.13017 -0.20424,0.10237 -0.26005,0.17915 -0.0154,0.0212 0.009,0.063 0,0.0897 -0.0719,0.19807 -0.0404,0.0278 -0.13,0.0895 -0.27055,0.18642 0.0695,-0.006 -0.0651,0.17915 -0.0569,0.0784 -0.3331,0.19025 -0.39006,0.26874 -0.0216,0.0298 -0.0433,0.2389 -0.0651,0.26876 -0.0426,0.0587 -0.22746,0.0447 -0.26004,0.0897 -0.0325,0.0447 -0.0325,0.13441 -0.0651,0.17915 -0.13452,0.18535 0.005,-0.28325 -0.13001,0.0897 -0.009,0.0267 0.0154,0.0685 0,0.0897 -0.0325,0.0447 -0.0975,0.0447 -0.13,0.0897 -0.0217,0.0298 -0.0433,0.23889 -0.0651,0.26874 -0.0154,0.0212 -0.0497,-0.0212 -0.0651,0 -0.13027,0.17952 0.16397,0.76745 0.19503,0.89586 0.0286,0.11857 0,0.32193 0,0.44793"
       id="path21" /><path
       style="fill:#ac3b61;stroke-width:1.56846"
       d="m -285.49689,558.45687 -0.19503,1.43338"
       id="path22" /><path
       style="fill:#ac3b61;stroke-width:1.56846"
       d="m -285.04182,559.89025 -0.39007,-0.80628"
       id="path23" /><path
       style="fill:#ac3b61;stroke-width:1.56846"
       d="m -285.23685,558.81522 c -0.0651,0.1195 -0.28171,0.26875 -0.19504,0.35834 0.0867,0.0897 0.2435,-0.4919 0.19504,-0.35834 -0.0914,0.25197 -0.22577,0.47041 -0.32505,0.71667 -0.0166,0.0412 -0.0211,0.50853 0,0.53753 0.0806,0.11102 0.51687,0.18356 0.6501,0"
       id="path24" /><path
       style="fill:#ac3b61;stroke-width:1.56846"
       d="m -285.23685,541.34604 c -0.0867,-0.0897 -0.19504,-0.38822 -0.26004,-0.26876 -0.0651,0.1195 0.33665,0.37434 0.26004,0.26876 -0.16289,-0.22446 -0.3572,-0.40265 -0.52009,-0.62711 -0.0273,-0.0376 -0.0453,-0.21447 -0.0649,-0.26875 -0.13528,-0.37284 0.004,0.0957 -0.13,-0.0897 -0.0517,-0.0713 -0.0834,-0.38356 -0.13001,-0.44793 -0.0154,-0.0212 -0.0497,0.0212 -0.0651,0 -0.0325,-0.0447 0.0325,-0.22397 0,-0.26876 -0.0867,-0.1195 -0.0651,0.14932 -0.0651,-0.0895 0,-0.20186 -0.0457,-0.71669 0.13,-0.71669"
       id="path25" /><path
       style="fill:#ac3b61;stroke-width:1.56846"
       d="m -284.45674,557.20268 c 0.0433,-0.1195 0.21671,-0.29863 0.13001,-0.35834 -0.0867,-0.0597 -0.17335,0.47778 -0.13001,0.35834 0.0867,-0.2389 0.17336,-0.4778 0.26005,-0.71669 0.0216,0 0.0497,0.0212 0.0651,0 0.0216,-0.0298 0.0433,-0.2389 0.0651,-0.26876 0.0426,-0.0587 0.22746,-0.0448 0.26003,-0.0895 0.0325,-0.0447 0.0325,-0.1344 0.0651,-0.17915 0.0377,-0.0519 0.22235,-0.12722 0.26003,-0.17915 0.0325,-0.0447 0.0325,-0.1344 0.0651,-0.17914 0.0154,-0.0212 0.0497,0.0212 0.0651,0 0.0216,-0.0298 0.0433,-0.2389 0.0651,-0.26875 0.0154,-0.0212 0.0457,0.0129 0.0651,0 0.078,-0.0538 0.11704,-0.21501 0.19503,-0.26876 0.0384,-0.0265 0.23848,-0.1495 0.26005,-0.17915 0.004,-0.006 0.12653,-0.26392 0.13,-0.26876 0.0154,-0.0212 0.0497,0.0212 0.0651,0 0.0216,-0.0298 0.0433,-0.2389 0.0651,-0.26876 0.0154,-0.0212 0.0497,0.0212 0.0651,0 0.0154,-0.0212 -0.009,-0.0628 0,-0.0897 0.015,-0.0412 0.43459,-0.4786 0.52006,-0.5375 0.12279,-0.0845 0.14308,-0.28675 0.19504,-0.35834 0.0325,-0.0447 0.16252,0.0448 0.19503,0 0.0325,-0.0447 0.0325,-0.1344 0.0651,-0.17914 0.0306,-0.0422 0.0994,0.0422 0.13,0 0.0325,-0.0448 0.0325,-0.13441 0.0649,-0.17915 0.0403,-0.0556 0.22883,-0.13607 0.26003,-0.17915 0.0154,-0.0212 -0.0154,-0.0685 0,-0.0897 0.0306,-0.0422 0.0994,0.0422 0.13,0 0.0154,-0.0212 -0.0154,-0.0685 0,-0.0895 0.0154,-0.0212 0.0457,0.0129 0.0651,0 0.0512,-0.0352 0.23016,-0.13791 0.26005,-0.17915 0.0154,-0.0212 -0.0154,-0.0685 0,-0.0897 0.0224,-0.0309 0.32505,-0.0696 0.32505,-0.26876"
       id="path26" /><path
       style="fill:#ac3b61;stroke-width:1.56846"
       d="m -284.65177,557.38184 c 0.0867,-0.0895 0.32505,-0.14932 0.26005,-0.26876 -0.0651,-0.11949 -0.34672,0.35836 -0.26005,0.26876 0.3592,-0.37124 0.40113,-0.45555 0.6501,-0.62709 0.0768,-0.0529 0.12332,-0.20287 0.19503,-0.26876 0.0752,-0.0692 0.3517,-0.2159 0.39006,-0.26876 0.0325,-0.0448 0.0325,-0.13441 0.0651,-0.17915 0.0426,-0.0587 0.22748,-0.0447 0.26005,-0.0897 0.0325,-0.0447 0.0325,-0.13441 0.0651,-0.17915 0.0306,-0.0422 0.0913,0.0267 0.13,0 0.0548,-0.0377 0.0752,-0.1414 0.13001,-0.17915 0.0194,-0.0129 0.0497,0.0212 0.0651,0 0.0154,-0.0212 -0.0154,-0.0685 0,-0.0897 0.0258,-0.0355 0.34563,-0.20752 0.39007,-0.26876 0.0154,-0.0212 -0.0154,-0.0685 0,-0.0897 0.0216,-0.0298 0.17336,-0.0597 0.19502,-0.0897 0.0154,-0.0212 -0.0154,-0.0685 0,-0.0897 0.0154,-0.0212 0.0497,0.0212 0.0651,0 0.004,-0.006 0.12653,-0.2639 0.13,-0.26876 0.0325,-0.0447 0.0975,-0.0447 0.13,-0.0897 0.0154,-0.0212 -0.0154,-0.0685 0,-0.0897 0.0154,-0.0212 0.0497,0.0212 0.0651,0 0.0306,-0.0422 -0.0306,-0.13699 0,-0.17915 0.13451,-0.18535 -0.005,0.28325 0.13001,-0.0897 0.0194,-0.0534 -0.0306,-0.13698 0,-0.17915 0.0154,-0.0212 0.0497,0.0212 0.0651,0 0.0306,-0.0422 -0.0306,-0.13698 0,-0.17915 0.0325,-0.0447 0.0975,-0.0447 0.13001,-0.0895 0.0608,-0.0838 0.0693,-0.36426 0.13,-0.44793 0.0154,-0.0212 0.0497,0.0212 0.0651,0 0.0154,-0.0212 -0.0154,-0.0685 0,-0.0897 0.0107,-0.0147 0.29622,-0.26877 0.32505,-0.26877"
       id="path27" /><path
       style="fill:#ac3b61;stroke-width:1.56846"
       d="m -284.19669,557.02351 c 0.0651,-0.1195 0.2817,-0.26876 0.19502,-0.35836 -0.0867,-0.0895 -0.28793,0.43517 -0.19502,0.35836 0.3598,-0.2975 0.396,-0.54161 0.65008,-0.71669 0.078,-0.0538 0.11705,-0.215 0.19504,-0.26876 0.0194,-0.0129 0.0497,0.0212 0.0651,0 0.0154,-0.0212 -0.0154,-0.0685 0,-0.0897 0.0154,-0.0212 0.0497,0.0212 0.0651,0 0.0154,-0.0212 -0.0154,-0.0685 0,-0.0897 0.015,-0.0206 0.23142,-0.0698 0.26005,-0.0897 0.0433,-0.0298 0.0307,-0.13202 0.0651,-0.17915 0.0461,-0.0635 0.18349,-0.16332 0.19503,-0.17915 0.0154,-0.0212 -0.009,-0.063 0,-0.0897 0.13528,-0.37284 -0.004,0.0957 0.13001,-0.0897 0.0649,-0.0895 0.0448,-0.26877 0.19503,-0.26877"
       id="path28" /><path
       style="fill:#ac3b61;stroke-width:1.56846"
       d="m -282.63646,555.23179 c -0.0651,0.1195 -0.28171,0.26876 -0.19503,0.35834 0.0867,0.0897 0.28793,-0.43515 0.19503,-0.35834 -0.22376,0.18501 -0.4684,0.39507 -0.5851,0.71669 -0.009,0.0267 0.0154,0.0685 0,0.0897 -0.0272,0.0376 -0.15561,0.0624 -0.19502,0.0897 -0.0548,0.0377 -0.0752,0.1414 -0.13,0.17915 -0.0387,0.0267 -0.0994,-0.0422 -0.13,0 -0.0142,0.0195 -0.0524,0.17049 -0.0651,0.17915 -0.0387,0.0267 -0.0913,-0.0267 -0.13001,0 -0.0194,0.0129 0.0154,0.0685 0,0.0897 -0.0871,0.12005 -0.32504,0.0729 -0.32504,0.44793"
       id="path29" /><path
       style="fill:#ac3b61;stroke-width:1.56846"
       d="m -282.24641,555.32139 c -0.0867,0.0597 -0.30338,0.0597 -0.26003,0.17915 0.0433,0.11949 0.33757,-0.2593 0.26003,-0.17915 -0.15669,0.16202 -0.50938,0.48534 -0.7151,0.62709 -0.0548,0.0377 -0.0752,0.14141 -0.13,0.17915 -0.0394,0.0271 -0.16779,0.0521 -0.19504,0.0895 -0.0154,0.0212 0.0154,0.0685 0,0.0897 -0.0306,0.0422 -0.0994,-0.0422 -0.13,0 -0.0154,0.0212 0.0154,0.0685 0,0.0897 -0.0154,0.0212 -0.0457,-0.0129 -0.0651,0 -0.0548,0.0377 -0.0752,0.1414 -0.13,0.17915 -0.0387,0.0267 -0.0913,-0.0267 -0.13,0 -0.15405,0.10605 -0.30104,0.34178 -0.45507,0.44793 -0.0512,0.0352 -0.26005,0.15171 -0.26005,0.26876"
       id="path30" /><path
       style="fill:#ac3b61;stroke-width:1.56846"
       d="m -284.13169,557.38184 c 0.0651,-0.11949 0.28171,-0.26876 0.19503,-0.35833 -0.0867,-0.0897 -0.24348,0.49188 -0.19503,0.35833 0.10836,-0.23889 0.2167,-0.47779 0.32505,-0.71669 0.0216,0 0.0497,0.0212 0.0651,0 0.0484,-0.0666 0.0933,-0.30772 0.13,-0.35833 0.0306,-0.0422 0.0994,0.0422 0.13001,0 0.0325,-0.0447 0.0325,-0.13441 0.0651,-0.17915 0.0306,-0.0422 0.0994,0.0422 0.13001,0 0.0154,-0.0212 -0.0154,-0.0685 0,-0.0897 0.0306,-0.0422 0.0994,0.0422 0.13,0 0.0154,-0.0212 -0.0154,-0.0685 0,-0.0897 0.0217,-0.0298 0.17336,-0.0597 0.19503,-0.0897 0.0154,-0.0212 -0.0154,-0.0685 0,-0.0897 0.0306,-0.0422 0.0913,0.0267 0.13001,0 0.0548,-0.0377 0.0752,-0.1414 0.13,-0.17915 0.0384,-0.0265 0.23847,-0.1495 0.26005,-0.17915 0.1345,-0.18535 -0.20555,0.007 0.0651,-0.17915 0.0387,-0.0267 0.0994,0.0422 0.13,0 0.0154,-0.0212 -0.0154,-0.0685 0,-0.0897 0.0377,-0.0519 0.22237,-0.12723 0.26005,-0.17915 0.0325,-0.0447 0.0325,-0.13441 0.0649,-0.17915 0.0306,-0.0422 0.0994,0.0422 0.13001,0 0.0216,-0.0298 0.0433,-0.2389 0.0651,-0.26876 0.0558,-0.077 0.21282,-0.049 0.26003,-0.17915 0.0196,-0.0543 0.0378,-0.23122 0.0651,-0.26876 0.1345,-0.18536 -0.005,0.28325 0.13,-0.0897 0.0198,-0.0543 0.0378,-0.23122 0.0651,-0.26876 0.0325,-0.0447 0.0975,-0.0447 0.13,-0.0897 0.0306,-0.0422 -0.0306,-0.13698 0,-0.17915 0.0154,-0.0212 0.0497,0.0212 0.0651,0 0.0301,-0.0414 -0.0196,-0.21466 0,-0.26876 0.0138,-0.0377 0.0513,-0.0517 0.0651,-0.0897 0.0261,-0.0716 -0.026,-0.1971 0,-0.26876 0.0659,-0.18136 0.13,-0.26236 0.13,-0.44793"
       id="path31" /><path
       style="fill:#ac3b61;stroke-width:1.56846"
       d="m -283.80664,557.02351 c 0.0651,-0.1195 0.28171,-0.26876 0.19503,-0.35836 -0.0867,-0.0895 -0.24348,0.4919 -0.19503,0.35836 0.10488,-0.28891 0.18041,-0.66182 0.39006,-0.80628 0.0194,-0.0129 0.0497,0.0212 0.0651,0 0.0377,-0.0519 0.0923,-0.30642 0.13001,-0.35834 0.13452,-0.18535 -0.005,0.28325 0.13,-0.0897 0.009,-0.0267 -0.0154,-0.0685 0,-0.0895 0.0217,-0.0298 0.17336,-0.0597 0.19502,-0.0897 0.0154,-0.0212 -0.0154,-0.0685 0,-0.0897 0.0306,-0.0422 0.0913,0.0267 0.13,0 0.27055,-0.18642 -0.0695,0.006 0.0651,-0.17915 0.0867,-0.1195 0.0651,0.14932 0.0651,-0.0897"
       id="path32" /><path
       style="fill:#ac3b61;stroke-width:1.56846"
       d="m -283.74162,556.84434 c 0.0651,-0.11949 0.2817,-0.26876 0.19501,-0.35835 -0.0867,-0.0897 -0.28793,0.43517 -0.19501,0.35835 0.17336,-0.20903 0.34672,-0.41808 0.52006,-0.62711 0,-0.0298 -0.0154,-0.0685 0,-0.0895 0.0541,-0.0747 0.20587,-0.0147 0.26005,-0.0897 0.0325,-0.0447 0.0325,-0.13441 0.0651,-0.17915 0.0306,-0.0422 0.0994,0.0422 0.13,0 0.0325,-0.0447 0.0325,-0.13441 0.0651,-0.17915 0.0342,-0.0471 0.0958,-0.0424 0.13,-0.0897"
       id="path33" /><path
       style="fill:#ac3b61;stroke-width:1.56846"
       d="m -284.65177,557.82977 c -0.0217,-0.11949 0.0216,-0.3882 -0.0651,-0.35833 -0.0867,0.0298 0.0651,0.48145 0.0651,0.35833 -0.17629,-1.94357 -0.16969,-0.33858 0,-0.80626 0.0194,-0.0534 -0.0306,-0.13699 0,-0.17915 0.13452,-0.18537 -0.005,0.28323 0.13,-0.0897 0.0335,-0.0924 0.0382,-0.20553 0.13001,-0.26876 0.10061,-0.0694 0.0937,0.0501 0.19503,-0.0897"
       id="path34" /><path
       style="fill:#ac3b61;stroke-width:1.56846"
       d="m -283.80664,557.11308 c -0.0867,0.0897 -0.32505,0.14932 -0.26003,0.26876 0.0651,0.1195 0.34672,-0.35833 0.26003,-0.26876 -0.17336,0.17915 -0.34902,0.3542 -0.52008,0.53752 -0.0242,0.026 -0.0375,0.0707 -0.0651,0.0897 -0.0194,0.0129 -0.0651,-0.0298 -0.0651,0 0,0.1554 0.11945,-0.25418 0.13,-0.26874 0.0154,-0.0212 0.0456,0.0129 0.0651,0 0.15626,-0.10771 0.30338,-0.2389 0.45507,-0.35835 z"
       id="path35" /><path
       style="fill:#ac3b61;stroke-width:1.56846"
       d="m -283.87164,556.75475 c -0.0867,0.0596 -0.30339,0.0596 -0.26005,0.17915 0.0433,0.11949 0.32856,-0.27361 0.26005,-0.17915 -0.12319,0.16976 -0.78013,0.79798 -0.78013,0.98543"
       id="path36" /><path
       style="fill:#ac3b61;stroke-width:1.56846"
       d="m -280.94621,553.08174 c 0.0867,-0.0897 0.32505,-0.14932 0.26003,-0.26876 -0.0651,-0.11949 -0.32772,0.38535 -0.26003,0.26876 0.15316,-0.26382 0.35719,-0.46416 0.52008,-0.71669 0.0144,-0.0223 -0.0154,-0.0685 0,-0.0897 0.0154,-0.0212 0.0497,0.0212 0.0651,0 0.0216,-0.0298 0.0433,-0.23888 0.0651,-0.26875 0.0325,-0.0447 0.0975,-0.0447 0.13,-0.0897 0.0732,-0.1009 -0.0998,-0.26876 0.0651,-0.26876"
       id="path37" /><path
       style="fill:#ac3b61;stroke-width:1.56846"
       d="m -281.07623,552.63381 c 0.0867,-0.0597 0.30338,-0.0597 0.26003,-0.17914 -0.0433,-0.1195 -0.34672,0.23889 -0.26003,0.17914 0.17336,-0.11949 0.34297,-0.24987 0.52008,-0.35835 0.0198,-0.0129 0.0497,0.0212 0.0651,0 0.0154,-0.0212 -0.0154,-0.0685 0,-0.0895 0.0154,-0.0212 0.0497,0.0212 0.0651,0 0.0154,-0.0212 -0.0154,-0.0685 0,-0.0897 0.0216,-0.0298 0.17336,-0.0597 0.19503,-0.0897 0.0311,-0.0431 0.0898,-0.30282 0.13,-0.35835 0.0353,-0.0486 0.12506,-0.0827 0.19504,-0.17915"
       id="path38" /><path
       style="fill:#ac3b61;stroke-width:1.56846"
       d="m -282.63646,555.41096 c -0.94022,0.52018 1.1387,-0.78459 -0.52008,0.35834 -0.1516,0.10439 -0.21061,0.27949 -0.32505,0.35835 -0.0309,0.0212 -0.32097,0.26315 -0.32505,0.26876 -0.0154,0.0212 0.0154,0.0685 0,0.0897 -0.25371,0.34963 -0.0349,-0.0208 -0.19503,0.0897 -0.27055,0.18642 0.0695,-0.006 -0.0651,0.17914 -0.0377,0.0519 -0.22237,0.12723 -0.26005,0.17915 -0.0154,0.0212 0.0154,0.0685 0,0.0897 -0.1345,0.18536 0.005,-0.28325 -0.13,0.0895 -0.009,0.0267 0.0154,0.0685 0,0.0897 -0.0216,0.0298 -0.0867,0.0597 -0.0649,0.0897 0.0134,0.0184 0.31186,0.0184 0.32505,0 0.13451,-0.18538 -0.20555,0.007 0.0651,-0.17915 0.0384,-0.0265 0.23848,-0.14951 0.26005,-0.17915 0.0154,-0.0212 -0.0154,-0.0685 0,-0.0897 0.0154,-0.0212 0.0456,0.0129 0.0649,0 0.0548,-0.0377 0.0752,-0.1414 0.13001,-0.17915 0.0648,-0.0445 0.3534,-0.21822 0.39006,-0.26874 0.0154,-0.0212 -0.0154,-0.0685 0,-0.0897 0.0306,-0.0422 0.0994,0.0422 0.13,0 0.0154,-0.0212 -0.0154,-0.0685 0,-0.0897 0.0492,-0.0678 0.13001,-0.0389 0.13001,-0.17915"
       id="path39" /></g></svg>
