<?xml version="1.0" encoding="UTF-8" standalone="no"?>
<!-- Created with Inkscape (http://www.inkscape.org/) -->

<svg
   width="196.959mm"
   height="113.413mm"
   viewBox="0 0 196.95901 113.413"
   version="1.1"
   id="svg1"
   xml:space="preserve"
   sodipodi:docname="researchbackground.svg"
   inkscape:version="1.4.3 (0d15f75, 2025-12-25)"
   xmlns:inkscape="http://www.inkscape.org/namespaces/inkscape"
   xmlns:sodipodi="http://sodipodi.sourceforge.net/DTD/sodipodi-0.dtd"
   xmlns="http://www.w3.org/2000/svg"
   xmlns:svg="http://www.w3.org/2000/svg"><sodipodi:namedview
     id="namedview1"
     pagecolor="#ffffff"
     bordercolor="#000000"
     borderopacity="0.25"
     inkscape:showpageshadow="2"
     inkscape:pageopacity="0.0"
     inkscape:pagecheckerboard="0"
     inkscape:deskcolor="#d1d1d1"
     inkscape:document-units="mm"
     inkscape:zoom="1.2845308"
     inkscape:cx="391.19342"
     inkscape:cy="193.45585"
     inkscape:window-width="1317"
     inkscape:window-height="976"
     inkscape:window-x="287"
     inkscape:window-y="25"
     inkscape:window-maximized="0"
     inkscape:current-layer="g1" /><defs
     id="defs1" /><g
     id="layer1"
     transform="translate(-13.269191,-107.60626)"><text
       xml:space="preserve"
       style="font-style:normal;font-variant:normal;font-weight:bold;font-stretch:normal;font-size:4.23333px;line-height:4.37444px;font-family:Georgia;-inkscape-font-specification:'Georgia Bold';text-align:center;writing-mode:lr-tb;direction:ltr;text-anchor:middle;fill:#ac3b61;fill-opacity:1;stroke-width:0.264582"
       x="44.875553"
       y="118.83725"
       id="text16"><tspan
         style="font-style:normal;font-variant:normal;font-weight:bold;font-stretch:normal;font-size:4.23333px;line-height:4.37444px;font-family:Georgia;-inkscape-font-specification:'Georgia Bold';fill:#ac3b61;fill-opacity:1;stroke-width:0.264582"
         x="44.875553"
         y="118.83725"
         id="tspan19">Philosophy &amp; Social Theory</tspan></text><text
       xml:space="preserve"
       style="font-style:normal;font-variant:normal;font-weight:bold;font-stretch:normal;font-size:4.23333px;line-height:4.37444px;font-family:Georgia;-inkscape-font-specification:'Georgia Bold';text-align:center;writing-mode:lr-tb;direction:ltr;text-anchor:middle;fill:#ac3b61;fill-opacity:1;stroke-width:0.264582"
       x="112.61249"
       y="143.0455"
       id="text16-3"><tspan
         style="font-style:normal;font-variant:normal;font-weight:bold;font-stretch:normal;font-size:4.23333px;line-height:4.37444px;font-family:Georgia;-inkscape-font-specification:'Georgia Bold';fill:#ac3b61;fill-opacity:1;stroke-width:0.264582"
         x="112.61249"
         y="143.0455"
         id="tspan19-6">Reflexive Research</tspan></text><text
       xml:space="preserve"
       style="font-style:normal;font-variant:normal;font-weight:normal;font-stretch:normal;font-size:3.52778px;line-height:4.5376px;font-family:Monospace;-inkscape-font-specification:Monospace;text-align:center;letter-spacing:0px;writing-mode:lr-tb;direction:ltr;text-anchor:middle;white-space:pre;inline-size:79.8666;fill:#838383;fill-opacity:1;stroke-width:0.264583"
       x="45.268539"
       y="124.49709"
       id="text23"
       transform="translate(0,1.5875)"><tspan
         x="45.268539"
         y="124.49709"
         id="tspan1">epistemology · ethnography
</tspan><tspan
         x="45.268539"
         y="129.03469"
         id="tspan2">inductive reasoning
</tspan><tspan
         x="45.268539"
         y="133.57229"
         id="tspan3">interpretive methods</tspan></text><text
       xml:space="preserve"
       style="font-style:normal;font-variant:normal;font-weight:bold;font-stretch:normal;font-size:4.23333px;line-height:4.37444px;font-family:Georgia;-inkscape-font-specification:'Georgia Bold';text-align:center;writing-mode:lr-tb;direction:ltr;text-anchor:middle;fill:#ac3b61;fill-opacity:1;stroke-width:0.264582"
       x="43.773739"
       y="166.16611"
       id="text16-83"><tspan
         style="font-style:normal;font-variant:normal;font-weight:bold;font-stretch:normal;font-size:4.23333px;line-height:4.37444px;font-family:Georgia;-inkscape-font-specification:'Georgia Bold';fill:#ac3b61;fill-opacity:1;stroke-width:0.264582"
         x="43.773739"
         y="166.16611"
         id="tspan19-8">Community Practitioner</tspan></text><text
       xml:space="preserve"
       style="font-style:normal;font-variant:normal;font-weight:normal;font-stretch:normal;font-size:3.52778px;line-height:4.5376px;font-family:Monospace;-inkscape-font-specification:Monospace;text-align:center;letter-spacing:0px;writing-mode:lr-tb;direction:ltr;text-anchor:middle;white-space:pre;inline-size:79.8666;fill:#838383;fill-opacity:1;stroke-width:0.264583"
       x="45.268539"
       y="124.49709"
       id="text23-1"
       transform="translate(-2.1601383,48.202784)"><tspan
         x="45.268539"
         y="124.49709"
         id="tspan4">cooperative organizing
</tspan><tspan
         x="45.268539"
         y="129.03469"
         id="tspan5">technology appropriation</tspan></text><text
       xml:space="preserve"
       style="font-size:3.52778px;line-height:4.54px;text-align:center;writing-mode:lr-tb;direction:ltr;text-anchor:middle;white-space:pre;inline-size:90.7781;fill:#838383;fill-opacity:1;stroke-width:0.264583"
       x="111.18568"
       y="124.40876"
       id="text23-9"
       transform="translate(2.2235132,25.764981)"><tspan
         x="111.18568"
         y="124.40876"
         id="tspan7"><tspan
           style="font-family:Monospace;-inkscape-font-specification:Monospace"
           id="tspan6">action research
</tspan></tspan><tspan
         x="111.18568"
         y="128.98501"
         id="tspan9"><tspan
           style="font-family:Monospace;-inkscape-font-specification:Monospace"
           id="tspan8">participatory design
</tspan></tspan><tspan
         x="111.18568"
         y="133.56126"
         id="tspan11"><tspan
           style="font-family:Monospace;-inkscape-font-specification:Monospace"
           id="tspan10">qualitative methods</tspan></tspan></text><text
       xml:space="preserve"
       style="font-style:normal;font-variant:normal;font-weight:bold;font-stretch:normal;font-size:4.23333px;line-height:4.37444px;font-family:Georgia;-inkscape-font-specification:'Georgia Bold';text-align:center;writing-mode:lr-tb;direction:ltr;text-anchor:middle;white-space:pre;inline-size:57.6061;fill:#ac3b61;fill-opacity:1;stroke-width:0.264582"
       x="175.35007"
       y="142.8732"
       id="text16-3-8"
       transform="translate(5.8208336,-2.6458334)"><tspan
         x="175.35007"
         y="142.8732"
         id="tspan12">Sociotechnical
</tspan><tspan
         x="175.35007"
         y="147.24764"
         id="tspan13">Systems Design</tspan></text><text
       xml:space="preserve"
       style="font-size:3.52778px;line-height:4.5376px;text-align:center;writing-mode:lr-tb;direction:ltr;text-anchor:middle;white-space:pre;inline-size:58.4604;fill:#838383;fill-opacity:1;stroke-width:0.264583"
       x="174.18416"
       y="124.09119"
       id="text23-9-6"
       transform="translate(6.9860135,28.410816)"><tspan
         x="174.18416"
         y="124.09119"
         id="tspan15"><tspan
           style="font-family:Monospace;-inkscape-font-specification:Monospace"
           id="tspan14">responsible technologies
</tspan></tspan><tspan
         x="174.18416"
         y="128.66503"
         id="tspan17"><tspan
           style="font-family:Monospace;-inkscape-font-specification:Monospace"
           id="tspan16">community-centred design
</tspan></tspan><tspan
         x="174.18416"
         y="133.23887"
         id="tspan20"><tspan
           style="font-family:Monospace;-inkscape-font-specification:Monospace"
           id="tspan18">capacity building</tspan></tspan></text><text
       xml:space="preserve"
       style="font-style:normal;font-variant:normal;font-weight:normal;font-stretch:normal;font-size:3.88056px;line-height:4.0099px;font-family:Chalkduster;-inkscape-font-specification:Chalkduster;text-align:center;writing-mode:lr-tb;direction:ltr;text-anchor:middle;fill:#858585;fill-opacity:1;stroke-width:0.264582"
       x="113.61623"
       y="205.98611"
       id="text16-8"><tspan
         style="font-style:normal;font-variant:normal;font-weight:normal;font-stretch:normal;font-size:3.88056px;line-height:4.0099px;font-family:Monospace;-inkscape-font-specification:Monospace;fill:#858585;fill-opacity:1;stroke-width:0.264582"
         x="113.61623"
         y="205.98611"
         id="tspan19-5">Participatory Design for Responsible Technologies</tspan></text></g><g
     id="g1"
     transform="matrix(0.26458332,0,0,0.26458334,214.1392,-111.31044)"><path
       id="path3"
       style="opacity:0.6;fill:#ac3b61;fill-opacity:1;fill-rule:nonzero;stroke:none;stroke-width:0.0042152"
       d="m -528.51279,511.15634 c -0.0168,0.0159 -0.0337,0.032 -0.05,0.0497 -0.25217,0.27466 -0.27603,0.66099 -0.0539,0.86219 0.5876,0.53457 1.17235,1.09226 1.73801,1.6575 0.0398,0.0398 0.0861,0.0697 0.13564,0.0916 0.21588,0.0952 0.50751,0.0255 0.71916,-0.19142 0.0213,-0.022 0.0409,-0.0446 0.0595,-0.0678 -0.0332,-0.0265 -0.0654,-0.0535 -0.0976,-0.0813 -0.0718,-0.0659 -0.15656,-0.11492 -0.23347,-0.1745 -0.0766,-0.0647 -0.15303,-0.12923 -0.2163,-0.20787 -0.0297,-0.036 -0.0656,-0.0635 -0.10487,-0.0886 -0.0708,-0.0512 -0.12941,-0.11731 -0.20174,-0.16715 -0.075,-0.0414 -0.13035,-0.10714 -0.19934,-0.15545 -0.1027,-0.0717 -0.19896,-0.15173 -0.29221,-0.23484 -0.0873,-0.0902 -0.17322,-0.18321 -0.25472,-0.27915 -0.0611,-0.0762 -0.14061,-0.13227 -0.21164,-0.19788 -0.0805,-0.066 -0.14169,-0.1516 -0.21349,-0.22655 -0.0635,-0.0844 -0.12879,-0.16694 -0.19406,-0.24979 -0.0534,-0.0702 -0.11187,-0.13658 -0.17749,-0.19478 -0.0583,-0.04 -0.10239,-0.0941 -0.15164,-0.14366 z"
       inkscape:transform-center-x="-3.6009331"
       inkscape:transform-center-y="1.2343516" /><path
       id="path4"
       style="opacity:0.6;fill:#ac3b61;fill-opacity:1;fill-rule:nonzero;stroke:none;stroke-width:0.0042152"
       d="m -538.6385,504.16003 c -0.15055,-0.0663 -0.30105,-0.13223 -0.45184,-0.19821 -0.18275,-0.0806 -0.36658,-0.15927 -0.55099,-0.23702 -0.18542,-0.077 -0.36969,-0.15588 -0.56211,-0.22002 -0.21009,-0.0711 -0.42464,-0.13434 -0.6243,-0.22485 -0.18938,-0.0835 -0.37919,-0.1673 -0.56859,-0.25068 -0.20155,-0.0887 -0.40328,-0.17738 -0.605,-0.26577 -0.17714,-0.0781 -0.35355,-0.15596 -0.53294,-0.23023 -0.20615,-0.085 -0.41197,-0.17099 -0.62369,-0.24575 -0.22692,-0.0809 -0.46019,-0.15049 -0.67785,-0.24846 -0.23384,-0.10311 -0.46771,-0.20602 -0.70258,-0.30739 -0.266,-0.11491 -0.53154,-0.23082 -0.80273,-0.33664 -0.27574,-0.10846 -0.55451,-0.21183 -0.83561,-0.3102 -0.23057,-0.0889 -0.45239,-0.19237 -0.68182,-0.28336 -0.18802,-0.0746 -0.37994,-0.14313 -0.57594,-0.20233 -0.25905,-0.0789 -0.52263,-0.14891 -0.77568,-0.24001 -0.16037,-0.0527 -0.31766,-0.11083 -0.47693,-0.16519 -0.0297,0.0396 -0.0552,0.0836 -0.0752,0.12975 -0.15195,0.3299 -0.0328,0.6667 0.26715,0.7521 l 3.5e-4,-5.8e-4 c 6.31353,1.80138 12.0617,4.70842 17.08745,8.63946 0.0297,0.0237 0.0621,0.0432 0.096,0.0581 0.23527,0.10374 0.55572,0.01 0.76413,-0.24048 0.0238,-0.028 0.0449,-0.0573 0.0637,-0.0871 -0.0668,-0.0456 -0.13626,-0.0881 -0.20648,-0.12934 -0.0781,-0.0427 -0.15886,-0.0834 -0.23999,-0.12169 -0.0872,-0.0506 -0.16095,-0.11781 -0.24489,-0.1728 -0.0645,-0.0412 -0.13346,-0.0762 -0.20308,-0.1094 -0.0974,-0.0604 -0.18825,-0.13046 -0.27223,-0.20746 -0.0464,-0.044 -0.0873,-0.0946 -0.1406,-0.13084 -0.075,-0.0696 -0.15133,-0.13747 -0.22273,-0.21072 -0.0906,-0.0765 -0.17134,-0.16237 -0.2504,-0.25078 -0.0736,-0.0834 -0.16936,-0.14268 -0.25628,-0.21093 -0.0955,-0.0789 -0.19686,-0.14984 -0.28858,-0.23312 -0.0915,-0.0867 -0.16688,-0.1894 -0.25684,-0.27743 -0.0912,-0.0907 -0.18184,-0.18228 -0.27133,-0.27458 -0.0879,-0.11224 -0.1958,-0.20451 -0.30081,-0.29949 -0.0171,-0.0159 -0.0337,-0.0323 -0.0507,-0.0487 l -0.18277,-0.0806 -0.44764,-0.19737 -0.33689,-0.14854 -0.23444,-0.10336 -0.26675,-0.11761 -0.29261,-0.12901 c -0.12258,-0.0516 -0.24467,-0.10314 -0.35979,-0.16691 -0.14869,-0.0849 -0.28867,-0.18087 -0.42855,-0.27768 -0.12833,-0.0978 -0.24831,-0.20589 -0.36822,-0.31331 -0.0893,-0.0802 -0.1431,-0.16694 -0.16764,-0.25136 l -0.47164,-0.20794 -0.54549,-0.24051 c -0.14821,-0.0653 -0.2966,-0.13079 -0.44487,-0.19614 -0.13454,-0.0592 -0.26889,-0.11863 -0.40337,-0.17784 z"
       inkscape:transform-center-x="-0.34938145"
       inkscape:transform-center-y="-0.75095138" /><path
       id="path5"
       style="opacity:0.6;fill:#ac3b61;fill-opacity:1;fill-rule:nonzero;stroke:none;stroke-width:0.0042152"
       inkscape:transform-center-x="1.5809974"
       inkscape:transform-center-y="1.6678182"
       d="m -565.35379,500.60108 c -1.01616,-8e-4 -1.93464,0.0239 -2.74107,0.0614 -3.52704,0.16366 -5.69263,0.59134 -5.7831,0.60944 -0.68438,0.137 -1.27116,0.70349 -1.47192,1.3606 0.0382,-0.008 0.0794,-0.0143 0.12212,-0.0173 0.0555,-0.003 0.11015,-0.0193 0.16572,-0.0205 0.0757,-0.007 0.1549,-0.0189 0.23115,-0.0393 0.0893,-0.0221 0.19391,-0.0495 0.27258,-0.063 0.0898,-0.0206 0.17868,-0.0394 0.26822,-0.0519 0.0584,-0.006 0.12071,-0.0236 0.17882,-0.0236 0.0931,-0.0193 0.18398,-0.032 0.27695,-0.0488 0.11963,-0.0144 0.24245,-0.0348 0.35541,-0.0157 0.0996,0.008 0.20126,0.0104 0.29877,0.0252 0.10052,-0.0236 0.19857,-0.0377 0.29875,-0.0535 l 0.003,-0.002 v -0.003 h 0.003 0.003 0.003 c 0.0426,-0.009 0.18033,-0.002 0.21589,-0.005 h 0.003 l 0.003,-0.003 c 0.0693,-0.0269 0.1571,-0.0331 0.23332,-0.0441 0.0895,-0.014 0.18038,-0.007 0.27042,-0.0315 0.12895,-0.0344 0.25535,-0.0246 0.38379,-0.0567 0.13688,-0.0315 0.27385,-0.0544 0.40996,-0.0709 0.1645,-0.0123 0.3286,-0.028 0.49064,-0.0268 0.16449,-0.005 0.32577,0.005 0.48193,0.0299 0.11,-5.8e-4 0.2108,0.0299 0.31837,0.0362 0.10844,0.0145 0.21922,0.0179 0.32928,0.0268 0.1319,0.0189 0.26463,0.034 0.39469,0.0583 0.10689,0.006 0.20834,0.0312 0.31183,0.0472 0.0597,-0.0116 0.12041,-0.0303 0.17881,-0.0331 0.0693,-0.007 0.13796,-0.0159 0.20718,-0.0251 0.10984,-0.027 0.21788,-0.0462 0.3271,-0.0614 0.11575,-0.0133 0.23042,-0.0199 0.34671,-0.0378 0.0704,-0.006 0.14061,-0.0118 0.21153,-0.0268 0.12305,-0.0349 0.24384,-0.0595 0.36635,-0.0725 0.11901,-0.021 0.23825,-0.0329 0.35762,-0.0693 0.13625,-0.0245 0.27179,-0.0553 0.40778,-0.074 0.13998,-0.0272 0.28124,-0.0456 0.42087,-0.0646 0.0903,-0.005 0.18177,-0.0173 0.27257,-0.0268 0.11621,-0.008 0.22835,-0.002 0.34236,0 0.0977,0.0115 0.19782,0.0151 0.29221,0.0362 0.12041,0.0161 0.24202,0.0315 0.35981,0.0551 0.13749,0.0162 0.2751,0.0235 0.41213,0.041 0.0461,0.003 0.0938,0.008 0.13952,0.0126 0.039,-0.0757 0.0795,-0.14905 0.11994,-0.22361 l 0.003,-0.003 v -0.002 -0.003 l 0.003,-0.002 0.005,-0.003 h 0.003 l 0.003,-0.002 0.003,0.002 c 0.014,0.002 0.0336,0.014 0.048,0.0173 h 0.003 0.003 c 0.17584,0.029 0.36208,0.0295 0.52552,0.0913 0.17387,0.0696 0.34753,0.13661 0.52553,0.19842 0.26855,0.0413 0.53847,0.0794 0.80684,0.12125 0.0997,-0.14831 0.32342,-0.26268 0.61931,-0.22676 0.17353,0.0214 0.3463,0.0419 0.519,0.0661 0.22539,0.0247 0.44549,0.0639 0.66946,0.0929 0.15611,0.0243 0.31311,0.0495 0.4732,0.0614 0.15427,0.0189 0.30807,0.0347 0.46228,0.0535 0.14418,0.0178 0.29026,0.0376 0.43397,0.0567 0.1557,0.0222 0.31188,0.0364 0.46665,0.0614 0.15443,0.0189 0.30559,0.0432 0.46229,0.0552 0.19398,0.0145 0.38039,0.0599 0.56914,0.0898 0.14962,0.0303 0.30259,0.0443 0.45359,0.0709 0.14775,0.0211 0.29679,0.0366 0.44485,0.0567 0.17272,0.0353 0.34908,0.0685 0.52117,0.10551 0.14713,0.0444 0.29992,0.0697 0.4514,0.10394 0.14464,0.0244 0.29135,0.0442 0.44049,0.0552 0.1743,-0.003 0.34727,-0.003 0.51682,0.0126 0.21281,0.0228 0.41143,0.0873 0.60621,0.15276 0.11016,0.038 0.21781,0.0776 0.32492,0.12125 0.11528,0.0214 0.23102,0.0414 0.34671,0.0614 0.10238,0.026 0.20467,0.0427 0.31184,0.0552 0.10938,0.0159 0.22402,0.0223 0.33365,0.0378 0.1173,0.0181 0.22613,0.0548 0.33363,0.0945 0.0954,0.0444 0.19958,0.0681 0.30311,0.0961 0.16687,0.0459 0.32984,0.10468 0.48845,0.16692 0.0281,0.0114 0.0545,0.0222 0.083,0.0331 0.037,0.005 0.0747,0.014 0.11124,0.0205 0.12538,0.0318 0.2548,0.0489 0.38162,0.0772 0.12522,0.0272 0.24371,0.0683 0.36197,0.11023 0.11792,0.0473 0.23413,0.0946 0.35765,0.13071 0.15365,0.0418 0.31313,0.068 0.46882,0.10551 0.099,0.0308 0.1985,0.0532 0.3031,0.0693 0.11777,0.0193 0.23729,0.0387 0.35327,0.063 0.0409,0.009 0.0774,0.0204 0.11124,0.0331 0.0923,0.0347 0.15846,0.0853 0.20064,0.14173 0.13983,0.0295 0.28334,0.0512 0.41868,0.0913 0.13998,0.038 0.26899,0.0946 0.39905,0.15118 0.14278,0.0569 0.28662,0.11209 0.44049,0.14645 0.19879,0.0638 0.39506,0.1329 0.58005,0.22205 0.14884,0.0656 0.29449,0.13081 0.44486,0.1937 0.13843,0.0588 0.27892,0.11609 0.42086,0.1685 0.20216,0.0751 0.40675,0.14642 0.61276,0.21417 0.17834,0.0658 0.35021,0.14216 0.52334,0.21732 l 0.52773,0.23149 0.60622,0.26771 0.495,0.21732 c 0.15734,0.0693 0.31584,0.14008 0.47319,0.20944 0.17717,0.078 0.3593,0.14393 0.53645,0.22204 0.15887,0.0699 0.31845,0.14154 0.47757,0.21102 0.18836,0.0807 0.37477,0.16151 0.56478,0.23937 0.16756,0.068 0.33581,0.13791 0.50809,0.19684 0.17447,0.0571 0.35588,0.10185 0.52117,0.17638 0.15381,0.0654 0.30941,0.12823 0.46667,0.18739 0.17169,0.0626 0.3443,0.11983 0.51899,0.17638 0.21726,0.0804 0.42099,0.18527 0.62803,0.28346 0.19997,0.0964 0.39618,0.19751 0.58878,0.3055 0.17384,0.0974 0.34957,0.18994 0.53861,0.26299 0.17183,0.0758 0.34279,0.15513 0.51245,0.23464 0.15925,0.0726 0.31613,0.14712 0.47102,0.22677 0.14091,0.0728 0.27953,0.15008 0.40778,0.24094 0.11637,0.0789 0.24624,0.13589 0.36635,0.20944 0.0842,0.0559 0.15888,0.12337 0.24423,0.17638 0.12958,0.0797 0.25763,0.16619 0.36416,0.274 0.10487,0.11308 0.2012,0.23275 0.28567,0.36378 0.0357,0.0526 0.0744,0.10427 0.11342,0.15433 0.0222,0.009 0.0479,0.0122 0.0698,0.0221 0.0354,0.0151 0.0715,0.0316 0.10673,0.0472 0.0306,0.0134 0.0589,0.026 0.0893,0.0393 0.0289,0.0128 0.0583,0.0249 0.0872,0.0378 l 0.10674,0.0472 c 0.0478,0.0187 0.0923,0.0416 0.13082,0.074 0.0236,0.0211 0.0513,0.0365 0.0785,0.0535 0.0292,0.0151 0.0552,0.036 0.0851,0.0504 0.0521,0.017 0.0952,0.0481 0.13735,0.0803 0.0423,0.0312 0.08,0.0694 0.12211,0.10078 0.0429,0.0337 0.085,0.0677 0.12429,0.10551 0.0339,0.0369 0.0718,0.0697 0.10674,0.10551 0.0346,0.0315 0.0617,0.071 0.0938,0.10551 0.0328,0.0228 0.0609,0.0494 0.0893,0.0772 0.028,0.0261 0.0587,0.0469 0.0873,0.0724 0.0298,0.0284 0.0609,0.0545 0.0872,0.0866 0.008,0.01 0.0162,0.0198 0.0241,0.0299 0.0259,0.0197 0.0519,0.038 0.0785,0.0567 0.0739,0.0421 0.14666,0.0876 0.21154,0.14173 0.0615,0.0486 0.12787,0.0931 0.17662,0.1559 0.0455,0.0562 0.10006,0.10157 0.14387,0.15905 0.045,0.0577 0.0932,0.1122 0.14169,0.16693 0.0469,0.0532 0.0948,0.10425 0.14169,0.15748 0.0368,0.0453 0.0732,0.0931 0.11777,0.13071 0.0485,0.0407 0.0935,0.0876 0.14169,0.12912 0.005,0.005 0.009,0.0102 0.0155,0.0142 0.0312,0.0186 0.0623,0.0404 0.0959,0.0552 0.0525,0.0255 0.10378,0.0525 0.15701,0.0772 0.0441,0.0201 0.0862,0.0432 0.13082,0.063 0.0346,0.0154 0.0697,0.0303 0.10471,0.0456 0.0449,0.0175 0.0864,0.0372 0.12212,0.0677 0.0157,0.0176 0.034,0.0326 0.0545,0.0441 0.0314,0.0164 0.0609,0.0362 0.0893,0.0567 0.0253,0.0272 0.0503,0.0518 0.0741,0.0803 0.0124,0.0164 0.0294,0.0285 0.0458,0.041 0.0323,0.0201 0.0656,0.0386 0.0915,0.0661 0.0311,0.0243 0.0548,0.0556 0.083,0.0835 0.0342,0.0244 0.0595,0.0565 0.0893,0.085 0.005,0.006 0.008,0.009 0.009,0.0111 l 0.003,0.002 0.003,0.002 v 0.002 h 0.003 v 0.002 c 0.0566,0.0453 0.0872,0.0937 0.0959,0.1433 0.0236,0.0128 0.0474,0.028 0.0698,0.0425 0.0461,0.0285 0.0865,0.0647 0.13299,0.0929 0.05,0.0327 0.0959,0.0693 0.13082,0.11811 0.025,0.0329 0.0483,0.0658 0.0741,0.0976 0.037,0.0381 0.0732,0.0792 0.10907,0.1181 0.0297,0.0372 0.0617,0.0725 0.0959,0.10551 0.0466,0.0491 0.0879,0.10389 0.13299,0.15433 0.0351,0.044 0.0732,0.083 0.11559,0.11968 0.0488,0.0493 0.092,0.10458 0.13517,0.15906 0.0416,0.0524 0.0826,0.10432 0.12647,0.15433 0.0419,0.0481 0.08,0.10127 0.12646,0.14487 0.05,0.0507 0.0976,0.10312 0.14822,0.15276 0.0472,0.0477 0.091,0.0989 0.14387,0.14015 0.0652,0.0503 0.1347,0.0954 0.2006,0.14488 0.0486,0.0419 0.0897,0.091 0.13082,0.14015 0.0357,0.0414 0.0741,0.0786 0.11342,0.11654 0.044,0.0419 0.0945,0.0778 0.13516,0.12283 0.042,0.0449 0.0873,0.0869 0.12212,0.13858 0.0378,0.0456 0.074,0.0925 0.11124,0.13858 0.0345,0.0444 0.0727,0.0844 0.11342,0.12283 0.039,0.0384 0.08,0.075 0.11559,0.11653 0.0416,0.036 0.0828,0.0702 0.12864,0.10079 0.0558,0.0398 0.12584,0.063 0.17881,0.10708 0.0491,0.0355 0.0941,0.0755 0.14387,0.11024 0.0444,0.0353 0.0861,0.0734 0.13081,0.10866 0.0433,0.0371 0.0903,0.0703 0.13517,0.10551 0.043,0.0395 0.0851,0.0784 0.12647,0.11968 0.0359,0.0409 0.0707,0.0846 0.10471,0.12756 0.0332,0.0359 0.0642,0.0741 0.0937,0.11338 0.0359,0.0376 0.0725,0.0751 0.10906,0.11181 0.0304,0.036 0.0615,0.0693 0.0915,0.10551 0.0384,0.0387 0.0763,0.0818 0.11559,0.11968 0.0451,0.0431 0.0918,0.0817 0.12647,0.13543 0.0339,0.0401 0.0652,0.0827 0.10036,0.12126 0.0474,0.0468 0.0991,0.0908 0.14822,0.13543 0.0544,0.0531 0.1072,0.10642 0.15055,0.17008 0.0159,0.0229 0.0309,0.0457 0.0458,0.0693 0.13797,0.12637 0.2741,0.2546 0.40125,0.39212 0.13516,0.1458 0.26825,0.2931 0.40124,0.44094 0.0985,0.10892 0.20334,0.21264 0.29873,0.3244 0.0893,0.10058 0.14791,0.22572 0.21807,0.34172 0.0761,0.12556 0.14838,0.25564 0.21807,0.38582 0.0806,0.15517 0.16098,0.30792 0.25078,0.45668 0.075,0.12477 0.1507,0.25064 0.22024,0.37952 0.0259,0.0184 0.0507,0.0385 0.0764,0.063 0.10208,0.098 0.20855,0.1927 0.30531,0.29606 0.073,0.0874 0.15443,0.16597 0.22896,0.25196 0.0833,0.0795 0.15381,0.16939 0.21589,0.26771 0.0617,0.11242 0.11342,0.2335 0.1788,0.3433 0.0635,0.11218 0.11667,0.23053 0.17445,0.34646 0.0491,0.11437 0.11404,0.218 0.16792,0.32912 0.0575,0.10204 0.10876,0.20993 0.15917,0.31653 0.05,0.10261 0.10798,0.19654 0.15039,0.30393 0.0277,0.085 0.0687,0.16251 0.10472,0.24251 0.0446,0.0871 0.0803,0.17909 0.11777,0.27087 0.0292,0.0647 0.0548,0.13397 0.0937,0.19212 0.0667,0.074 0.11544,0.16644 0.15919,0.25826 0.0345,0.0745 0.0898,0.13089 0.13299,0.19842 0.0165,0.0315 0.0326,0.0639 0.05,0.0945 0.0559,-0.006 0.11528,-0.003 0.17444,0.0205 0.0797,0.0305 0.15973,0.0907 0.23115,0.18741 0.0306,0.0405 0.0196,0.0228 0.0348,0.0504 0.0636,0.0665 0.1302,0.1337 0.19189,0.20314 0.37529,0.42396 -0.0454,0.89107 -0.44485,0.66141 -0.26292,0.0564 -0.543,0.0977 -0.33582,0.24409 -0.0493,-0.0311 -0.0957,-0.0634 -0.13734,-0.10394 -0.0525,-0.0536 -0.0531,-0.0672 -0.11777,-0.10078 -0.0637,-0.0422 -0.12693,-0.085 -0.18537,-0.13386 l -0.28347,-0.12598 c -0.0791,-0.012 -0.15521,-0.0285 -0.23115,-0.0488 -0.0828,-0.0327 -0.16918,-0.0535 -0.25949,-0.0677 -0.081,-0.0236 -0.1686,-0.0242 -0.25514,-0.0315 -0.0339,-0.003 -0.0674,-0.008 -0.10037,-0.0142 -0.0409,-0.003 -0.0803,-0.011 -0.11994,-0.0205 -0.0159,-0.005 -0.0322,-0.01 -0.048,-0.0142 -0.0797,-8.1e-4 -0.15054,-0.0331 -0.22897,-0.0362 -0.0864,-3.2e-4 -0.16475,-0.0277 -0.25078,-0.0284 -0.10487,0.006 -0.19934,-0.0257 -0.29875,-0.0362 -0.0903,-0.006 -0.17728,-0.02 -0.26385,-0.0378 -0.0611,-0.0174 -0.12926,-0.0156 -0.19408,-0.0236 h -0.003 c -0.009,-5.1e-4 -0.0269,-0.003 -0.048,-0.006 -0.20048,0.0909 -0.39319,0.10581 -0.58223,0.0567 -0.0688,0.003 -0.13718,0.006 -0.20497,0.003 -0.0861,0.0459 -0.19597,0.0761 -0.33147,0.0803 -0.13516,0.003 -0.26923,-6.6e-4 -0.40123,-0.011 -0.10471,-0.005 -0.21023,-0.002 -0.31619,0 -0.10052,-0.005 -0.19861,-0.012 -0.29875,-0.0173 -0.0743,0.015 -0.14698,0.002 -0.22026,0.009 -0.0674,0.003 -0.13828,0.0142 -0.20717,0.0268 -0.0906,0.0143 -0.18224,0.0302 -0.27257,0.0394 -0.0708,0.0126 -0.14418,0.0251 -0.21589,0.0362 -0.0684,0.011 -0.15381,0.0204 -0.24423,0.0331 -0.099,0.0161 -0.19783,0.0301 -0.29656,0.0441 -0.0738,0.003 -0.14807,0.02 -0.22242,0.0299 -0.0884,0.0168 -0.17395,0.0225 -0.25951,0.0189 l -0.003,0.003 h -0.003 c -0.0261,0.006 -0.14014,0.009 -0.15919,0.011 -0.069,0.0136 -0.16392,-0.008 -0.21153,0 -0.11201,0.005 -0.22364,-6.3e-4 -0.33145,-0.0142 -0.10596,-0.005 -0.21096,-0.006 -0.3162,-0.0126 -0.058,-0.007 -0.11792,-0.0121 -0.17663,-0.0173 -0.0376,0.0556 -0.0726,0.11167 -0.10907,0.1685 -0.0612,0.11011 -0.13175,0.21239 -0.20935,0.31181 1.16138,0.20838 2.32318,0.41819 3.48468,0.62675 1.24636,0.22399 2.4931,0.44706 3.73981,0.67086 0.11512,-0.1153 0.31475,-0.18627 0.56697,-0.14016 0.15712,0.0289 0.32078,0.0328 0.4841,0.041 0.20991,0.003 0.42293,-0.0157 0.63457,-0.022 0.18228,0.003 0.36251,0.0195 0.53861,0.0441 0.12212,0.0197 0.24961,0.0175 0.37943,0 0.16951,-0.0185 0.33853,-0.0534 0.50809,-0.0724 0.18134,-0.0201 0.35841,-0.0153 0.53209,0 0.25879,0.0144 0.51437,0.0392 0.7676,0.0724 0.0235,0.002 0.0402,0.005 0.0545,0.006 0.26549,-0.25143 0.46687,-0.55599 0.5844,-0.87715 -0.1058,-0.0608 -0.17568,-0.21113 -0.14837,-0.45668 0.005,-0.0496 -10e-4,-0.0947 0.009,-0.14488 0.009,-0.0642 0.009,-0.11033 0.0124,-0.17322 0.005,-0.0913 0.0185,-0.18492 0.0197,-0.27558 0.008,-0.0688 0.008,-0.13598 0.006,-0.20316 l -0.003,-0.009 c 2.3e-4,-0.006 5.1e-4,-0.0108 0,-0.0236 -0.003,-0.044 -0.005,-0.0892 -0.005,-0.13386 v -0.003 -0.002 c -6.5e-4,-0.003 -0.003,-0.0104 -0.005,-0.0142 v -0.002 c 9.1e-4,-0.10042 0.009,-0.20211 0.0174,-0.30393 0.0221,-0.10868 0.0244,-0.21682 0.0611,-0.32598 0.0286,-0.0897 0.0499,-0.18128 0.0785,-0.27086 -0.11792,-2.62635 -0.23307,-5.25537 -0.35107,-7.88173 -0.014,0.0185 -0.0292,0.0367 -0.0437,0.0552 -0.0318,0.0378 -0.0362,0.0492 -0.048,0.0788 -0.0764,0.11951 -0.0977,0.14324 -0.17226,0.24094 -0.0438,0.061 -0.0814,0.11622 -0.13735,0.1811 -0.041,0.064 -0.0951,0.12169 -0.15039,0.17952 0.008,-0.008 0.0124,-0.0123 0.0155,-0.0142 h 0.003 v 0.002 c -0.0155,0.0247 -0.11636,0.14708 -0.11994,0.15118 -0.003,0.003 -0.009,0.0105 -0.0124,0.0157 0.0477,-0.0672 -0.0635,0.0817 -0.083,0.10708 -0.009,0.01 -0.0171,0.0194 -0.0261,0.0284 0.009,0.10285 0.008,0.20279 -0.0174,0.30551 -0.0182,0.0821 -0.0391,0.16389 -0.0764,0.24252 -0.003,0.0441 -0.006,0.14514 -0.0109,0.15432 -0.0124,0.0982 -0.0311,0.19627 -0.0764,0.28976 -0.008,0.0156 -0.0155,0.0272 -0.0197,0.0347 -8.4e-4,0.0102 -0.003,0.0229 -0.005,0.0394 -0.005,0.0784 -0.0109,0.15688 -0.0261,0.23464 -0.0202,0.11887 -0.0421,0.23707 -0.0764,0.35432 -0.0213,0.0729 -0.05,0.13735 -0.085,0.19371 0.0303,0.0607 0.0576,0.12291 0.0741,0.19054 0.0228,0.0947 0.0463,0.18787 0.0632,0.28503 0.009,0.0901 0.0155,0.19391 0.005,0.27874 -9.2e-4,0.0718 0.005,0.14372 0.009,0.21417 0.003,0.0806 -10e-4,0.16305 0.005,0.24251 0.006,0.10309 7.8e-4,0.21039 0.0174,0.31024 0.0124,0.0964 0.0216,0.19088 0.0261,0.28975 0.014,0.0965 0.009,0.13323 0.0197,0.23622 7.6e-4,0.0722 -0.005,0.14339 -0.0124,0.21731 -0.003,0.0683 -0.003,0.11096 0.0109,0.20473 -0.008,0.0718 0.003,0.14295 0,0.21416 0.005,0.11651 -10e-4,0.2324 -0.0217,0.35275 h -0.005 c -10e-4,0.029 0.006,0.1323 0.006,0.19055 -7.6e-4,0.0136 -3.8e-4,0.0278 -0.003,0.0425 -0.005,0.0826 -0.0124,0.16622 -0.0155,0.24882 0.0426,0.058 0.0747,0.13655 0.0938,0.23936 0.014,0.0743 0.0407,0.14557 0.0458,0.22362 0.0183,0.13126 0.0364,0.2633 0.0371,0.39999 7.7e-4,0.12008 -0.0186,0.2225 -0.05,0.30708 0.0109,0.0322 0.02,0.0674 0.0284,0.10551 0.0326,0.14932 0.0109,0.31516 0.0326,0.46771 9.1e-4,0.0115 0.009,0.0262 0.0124,0.0378 0.11776,0.66316 -0.58271,0.93815 -0.70656,0.29763 -0.0901,0.10098 -0.17456,0.17074 -0.22461,0.14173 -0.0278,-0.0196 -0.0485,-0.073 -0.05,-0.17323 -9.2e-4,-0.0967 -6.4e-4,-0.0943 -0.006,-0.18739 -4e-4,-0.023 -0.009,-0.11923 -0.006,-0.13228 -0.014,-0.0661 -0.0292,-0.13163 -0.0458,-0.19685 -0.0124,-0.0452 -0.0261,-0.0902 -0.0415,-0.13386 -0.005,-0.006 -0.008,-0.0125 -0.009,-0.0157 -0.044,-0.1 -0.073,-0.20749 -0.0915,-0.31968 -0.008,-0.0775 -0.0172,-0.15819 -0.0458,-0.22677 -0.0514,-0.0904 -0.0578,-0.20344 -0.0893,-0.30393 -0.0267,-0.0911 -0.0463,-0.18677 -0.0915,-0.26771 -0.014,-0.0252 -0.0242,-0.053 -0.0348,-0.0803 -0.0766,-0.0219 -0.15132,-0.0504 -0.22243,-0.085 -0.0822,-0.0458 -0.16116,-0.0971 -0.23333,-0.1559 -0.0826,-0.0703 -0.10658,-0.1835 -0.16136,-0.27558 -0.0603,-0.0898 -0.0977,-0.19795 -0.15055,-0.29292 -0.0561,-0.10592 -0.11512,-0.20728 -0.15918,-0.32125 -0.0402,-0.10214 -0.0848,-0.19996 -0.12429,-0.30235 -0.0241,-0.0214 -0.0486,-0.0441 -0.0719,-0.0661 -0.18522,-0.17572 -0.20637,-0.37366 -0.13734,-0.52125 v -0.003 h -0.003 c -3.9804,-5.13842 -8.66415,-9.37226 -13.97138,-12.62178 -5.32886,-3.26268 -11.29044,-5.5441 -17.72211,-6.78097 -4.29272,-0.82578 -8.20588,-1.0614 -11.25433,-1.06454 z m 45.44465,10.82341 c -0.0124,5.8e-4 -0.0261,0.002 -0.0393,0.003 v 0.002 h -0.003 v 0.003 h -0.003 l -0.003,0.002 v 0.003 c 0.0165,-0.003 0.0337,-0.007 0.05,-0.0111 z m -1.17099,9.85334 c -0.014,0.0138 -0.0306,0.0272 -0.0458,0.0394 0.008,0.0118 0.016,0.0241 0.0241,0.0362 h 0.003 l -0.003,0.003 h 0.003 v 0.003 c 0.008,0.0143 0.016,0.0276 0.0261,0.041 0.006,0.009 0.014,0.0192 0.0217,0.0268 -0.009,-0.05 -0.0183,-0.0998 -0.0283,-0.14961 z m -2.66476,2.32436 c -0.003,0.0174 -0.003,0.0345 -0.006,0.052 0.0124,-0.003 0.0233,-0.003 0.0348,-0.003 -0.008,-0.0156 -0.0176,-0.0306 -0.0261,-0.0456 v -0.003 z m -0.85699,0.37165 c -0.003,0.0136 -0.005,0.0255 -0.009,0.0315 l -0.003,0.002 v 0.002 c 0.003,0.007 0.003,0.0116 0.005,0.0173 0.005,-0.0197 0.006,-0.0332 0.0109,-0.0504 h -0.003 z m -10.07894,0.71338 c -0.0272,0.005 -0.0635,0.0151 -0.0764,0.0205 h -0.003 v 0.002 c 0.0272,0.006 0.0528,-0.002 0.0785,-0.022 z m 11.68825,0.43463 c -0.003,0.0132 -0.009,0.0268 -0.0109,0.0394 0.0124,0.003 0.0242,0.008 0.037,0.011 -0.008,-0.0168 -0.0171,-0.0348 -0.0261,-0.0504 z m -8.54813,0.79526 c -0.014,0.006 -0.0295,0.0109 -0.0437,0.0173 -0.008,0.008 -0.014,0.0172 -0.0217,0.0252 0.0155,5.9e-4 0.0312,-6.6e-4 0.0437,-0.011 0.008,-8.1e-4 0.0158,-0.003 0.0241,-0.005 -4.8e-4,-0.009 -0.003,-0.0179 -0.003,-0.0268 z" /><path
       id="path5-6"
       style="opacity:0.6;fill:#ac3b61;fill-opacity:1;fill-rule:nonzero;stroke:none;stroke-width:0.00367214"
       d="m -551.09449,595.75771 c -0.006,0.008 -0.007,0.0154 -0.0128,0.0233 l -9.9e-4,2.9e-4 0.002,10e-4 -9.7e-4,2.8e-4 0.002,10e-4 -1.8e-4,10e-4 0.002,10e-4 0.002,10e-4 c 0.002,-0.0104 0.006,-0.0209 0.007,-0.0317 z m 2.40435,0.24554 c 0.0244,0.051 0.0436,0.10168 0.0602,0.15227 0.0172,0.0538 0.0458,0.1088 0.0715,0.16331 l 0.002,10e-4 -2.1e-4,10e-4 c 0.022,0.0236 0.0427,0.0476 0.0609,0.0714 0.0128,0.006 0.0233,0.0111 0.0356,0.0162 0.0693,0.0295 0.13924,0.0531 0.21011,0.0786 0.10219,0.0417 0.14876,0.0624 0.23365,0.0986 0.0629,0.0257 0.11722,0.0583 0.1937,0.0823 0.0909,0.0348 0.18372,0.0636 0.27581,0.10145 0.0959,0.0489 0.15524,0.0728 0.255,0.12317 0.11593,0.0585 0.21589,0.13116 0.31359,0.20364 0.0649,0.0541 0.0948,0.0718 0.15421,0.10601 0.086,0.0484 0.1647,0.10238 0.24297,0.1567 0.022,0.0189 0.0516,0.0355 0.0774,0.0538 0.009,0.005 0.0244,0.0155 0.0329,0.0195 0.0835,0.0512 0.13739,0.0734 0.22974,0.12242 0.1106,0.0608 0.21084,0.13134 0.30757,0.20232 0.0541,0.0337 0.10243,0.0549 0.16113,0.0828 0.0863,0.0385 0.1667,0.0928 0.25534,0.12705 0.11581,0.0552 0.23096,0.11146 0.34486,0.16947 0.0631,0.0258 0.15049,0.0917 0.22401,0.125 0.20283,0.053 0.40527,0.10578 0.60804,0.15797 0.17825,0.0502 0.35531,0.0933 0.53352,0.13712 0.16493,0.0384 0.32953,0.0853 0.49368,0.13886 0.13824,0.0401 0.27604,0.0826 0.41458,0.11596 0.0966,0.0305 0.19658,0.0455 0.29142,0.0602 0.13058,0.0141 0.25929,0.0168 0.39387,0.0446 0.11237,0.023 0.22412,0.0444 0.33667,0.0725 0.1023,0.0288 0.21858,0.0652 0.30693,0.10374 0.0784,0.0279 0.15673,0.0548 0.23477,0.0802 0.0892,0.0294 0.17799,0.0624 0.2669,0.0898 0.11533,0.0355 0.23008,0.08 0.34579,0.10858 0.11,0.0298 0.21857,0.0611 0.32842,0.0962 0.11083,0.0292 0.14791,0.0453 0.2647,0.0785 0.0792,0.0271 0.15817,0.0547 0.23572,0.0875 0.0738,0.0273 0.11639,0.0467 0.22445,0.0743 0.0756,0.0317 0.15813,0.0535 0.2352,0.0818 0.12916,0.0419 0.25341,0.0898 0.37714,0.14688 l -9.8e-4,3e-4 -0.005,-7e-4 -0.005,-6.9e-4 -0.002,-10e-4 -9.9e-4,2.9e-4 -0.002,-10e-4 -9.7e-4,2.9e-4 -9.7e-4,3e-4 c 0.0194,0.008 0.15653,0.0506 0.22444,0.0743 0.0146,0.006 0.0303,0.0112 0.0458,0.0176 0.0886,0.0339 0.17776,0.0704 0.26682,0.10373 0.0799,-10e-4 0.17849,0.009 0.2983,0.0373 0.0865,0.0209 0.17413,0.0332 0.26146,0.06 0.15071,0.0396 0.30319,0.0794 0.45298,0.13097 0.13156,0.0453 0.23579,0.0943 0.31607,0.1441 0.0394,0.006 0.083,0.0135 0.12815,0.0229 0.17591,0.0387 0.34976,0.11304 0.52501,0.159 0.0128,0.003 0.0285,0.009 0.0427,0.011 0.77093,0.18658 0.80117,0.68282 0.0528,0.50823 0.12063,0.14211 0.16552,0.24358 -0.14136,0.13993 -0.10621,-0.0363 -0.10231,-0.0361 -0.20599,-0.0686 -0.0251,-0.009 -0.13298,-0.0408 -0.14633,-0.0471 -0.0778,-0.0172 -0.15641,-0.0344 -0.23404,-0.0502 -0.0541,-0.0106 -0.1087,-0.02 -0.16254,-0.0277 -0.009,10e-5 -0.0156,-6e-4 -0.0194,-10e-4 -0.12646,-0.0135 -0.25574,-0.0382 -0.38561,-0.0706 -0.088,-0.0248 -0.17996,-0.0497 -0.26605,-0.0599 -0.11879,-0.006 -0.24535,-0.046 -0.36752,-0.0666 -0.11012,-0.0195 -0.2216,-0.0445 -0.32754,-0.0503 -0.0328,-0.002 -0.0679,-0.006 -0.10172,-0.0107 -0.0536,0.0344 -0.11379,0.0643 -0.1792,0.0908 -0.0821,0.0285 -0.16878,0.0531 -0.2611,0.071 -0.10881,0.0194 -0.24259,-0.009 -0.36458,-0.0136 -0.12149,-5.3e-4 -0.25333,-0.0211 -0.37762,-0.0278 -0.13768,-0.009 -0.27199,-0.0149 -0.41375,-0.0337 -0.12732,-0.0163 -0.25174,-0.0284 -0.37908,-0.0453 -0.0327,0.006 -0.0664,0.01 -0.0996,0.0145 -0.26409,0.0366 -0.48958,-0.0258 -0.62417,-0.12053 l -0.002,-10e-4 -9.7e-4,2.9e-4 c -7.16492,0.26877 -13.61345,1.27559 -19.22813,3.00477 -5.63748,1.73625 -10.44799,4.20005 -14.29849,7.32364 -3.427,2.77959 -5.44436,5.57973 -6.53329,7.4395 -1.1909,2.03335 -1.56445,3.40614 -1.5797,3.46359 -0.11616,0.43461 0.27639,0.97848 0.91698,1.34077 0.006,-0.0245 0.0149,-0.0498 0.0284,-0.0748 0.0185,-0.0321 0.022,-0.07 0.0421,-0.10144 0.0212,-0.0451 0.0385,-0.0931 0.0458,-0.14351 0.0118,-0.0584 0.0216,-0.12681 0.0373,-0.17589 0.0128,-0.058 0.0256,-0.11523 0.0467,-0.17005 0.0165,-0.0348 0.0219,-0.0761 0.0444,-0.10856 0.0152,-0.0593 0.0374,-0.11557 0.0552,-0.17389 0.0302,-0.0724 0.0548,-0.14887 0.1195,-0.20475 0.0478,-0.0524 0.0902,-0.10851 0.14416,-0.15739 0.0128,-0.0652 0.0369,-0.1255 0.0585,-0.1875 l -0.002,-10e-4 -0.002,-10e-4 2.2e-4,-0.001 2e-4,-10e-4 9.8e-4,-3e-4 c 0.007,-0.0288 0.0764,-0.11013 0.08,-0.12465 l -0.002,-10e-4 c -10e-4,-0.0489 0.0251,-0.10126 0.0427,-0.14801 0.0194,-0.0553 0.0615,-0.10258 0.0694,-0.16225 0.0128,-0.0852 0.0724,-0.15259 0.0871,-0.23659 0.0187,-0.0885 0.0461,-0.1737 0.0809,-0.25602 0.0504,-0.0966 0.0973,-0.19415 0.16172,-0.28424 0.0586,-0.0938 0.13199,-0.18051 0.22043,-0.25811 0.0422,-0.0617 0.11427,-0.10609 0.16302,-0.1638 0.058,-0.0551 0.10515,-0.11548 0.15759,-0.1736 0.072,-0.0666 0.13938,-0.13641 0.21642,-0.19985 0.0477,-0.0576 0.11486,-0.10431 0.17251,-0.15604 0.0118,-0.0377 0.0142,-0.0782 0.0337,-0.11184 0.0188,-0.0414 0.0369,-0.0824 0.0528,-0.1249 0.0128,-0.0716 0.0342,-0.13945 0.0599,-0.20629 0.0304,-0.0697 0.0664,-0.13703 0.0922,-0.20874 0.0207,-0.0417 0.0423,-0.0832 0.0534,-0.12855 0.009,-0.0821 0.0302,-0.15875 0.0637,-0.23213 0.023,-0.0745 0.058,-0.14569 0.0642,-0.22631 0.0263,-0.0855 0.0443,-0.17292 0.0766,-0.25603 0.0247,-0.0886 0.0592,-0.17398 0.0927,-0.25922 0.0295,-0.0523 0.0506,-0.10848 0.0758,-0.16274 0.0358,-0.0682 0.0877,-0.12802 0.1337,-0.19122 0.0506,-0.0502 0.0938,-0.10492 0.15366,-0.14962 0.0644,-0.0611 0.12716,-0.12305 0.19873,-0.17989 0.0709,-0.0707 0.13369,-0.14554 0.20613,-0.21546 0.0216,-0.0245 0.0452,-0.0491 0.068,-0.0729 -0.0677,-0.0506 -0.13256,-0.10165 -0.1983,-0.15266 l -0.002,-10e-4 -0.002,-10e-4 -0.002,-0.001 -0.002,-10e-4 9.9e-4,-3e-4 -9.9e-4,-0.004 2.2e-4,-10e-4 2e-4,-0.001 10e-4,-2.9e-4 9.8e-4,-2.9e-4 c 0.009,-0.008 0.0327,-0.0138 0.0398,-0.0219 0.10005,-0.0872 0.17233,-0.19134 0.30335,-0.25917 0.14361,-0.0707 0.28414,-0.14331 0.42089,-0.21928 0.14942,-0.13436 0.29707,-0.27021 0.44703,-0.40428 -0.12348,-0.11216 -0.1619,-0.28 -0.007,-0.43168 0.0907,-0.0888 0.17964,-0.17841 0.27314,-0.26572 0.1145,-0.11655 0.24333,-0.22379 0.36207,-0.3379 0.0871,-0.078 0.17473,-0.15627 0.24995,-0.2412 0.0806,-0.0791 0.15787,-0.15899 0.23844,-0.23798 0.0755,-0.0738 0.15419,-0.14753 0.23092,-0.22056 0.0848,-0.0785 0.16123,-0.16165 0.24861,-0.23864 0.0808,-0.0791 0.16601,-0.15369 0.23995,-0.23671 0.0913,-0.10288 0.21167,-0.18955 0.3176,-0.28369 0.0914,-0.0721 0.1663,-0.15272 0.25408,-0.22697 0.0803,-0.0745 0.15687,-0.1519 0.23629,-0.22701 0.10574,-0.0831 0.20851,-0.16864 0.31591,-0.2507 0.10574,-0.0654 0.1945,-0.14166 0.29083,-0.21326 0.083,-0.0716 0.16068,-0.14525 0.23062,-0.22441 0.0642,-0.0986 0.13157,-0.19552 0.21506,-0.2841 0.10764,-0.11025 0.25369,-0.1969 0.40089,-0.28086 0.0843,-0.0471 0.17097,-0.0918 0.26023,-0.13506 0.0681,-0.0564 0.13412,-0.11376 0.20098,-0.1708 0.0682,-0.0473 0.12645,-0.0989 0.18151,-0.15408 0.0598,-0.055 0.11166,-0.11622 0.17122,-0.17156 0.0655,-0.0587 0.1471,-0.10566 0.23225,-0.15064 0.0854,-0.0364 0.1526,-0.0853 0.22339,-0.13254 0.1151,-0.0758 0.24164,-0.14413 0.37131,-0.20908 0.0233,-0.0114 0.0471,-0.0217 0.07,-0.0335 0.0198,-0.0188 0.0424,-0.0368 0.0637,-0.0548 0.0835,-0.0579 0.15374,-0.12356 0.23388,-0.1837 0.0785,-0.0596 0.16921,-0.11145 0.26098,-0.16159 0.0973,-0.0479 0.19532,-0.0939 0.28276,-0.14922 0.10551,-0.07 0.19611,-0.1495 0.29756,-0.22226 0.0722,-0.0436 0.13469,-0.0907 0.1928,-0.14303 0.067,-0.0585 0.13498,-0.11783 0.20658,-0.17342 0.0251,-0.0196 0.052,-0.0355 0.0789,-0.0496 0.0738,-0.0383 0.15435,-0.056 0.23249,-0.0581 0.0866,-0.0669 0.16593,-0.13809 0.2624,-0.19844 0.0958,-0.0638 0.20755,-0.11478 0.31999,-0.16591 0.1177,-0.0581 0.23389,-0.11818 0.33125,-0.1911 0.14695,-0.0868 0.29895,-0.16906 0.46826,-0.23851 0.12944,-0.0582 0.25872,-0.11532 0.38591,-0.17543 0.11805,-0.055 0.23381,-0.11224 0.34624,-0.17161 0.16062,-0.0844 0.31822,-0.17121 0.47233,-0.26056 0.14121,-0.0746 0.29149,-0.14197 0.44092,-0.21013 l 0.45907,-0.20622 0.52765,-0.23705 0.43047,-0.19336 c 0.13696,-0.0615 0.2749,-0.12346 0.41186,-0.18501 0.15414,-0.0693 0.29814,-0.146 0.45237,-0.21528 0.13823,-0.0622 0.27695,-0.12382 0.41472,-0.1863 0.1614,-0.0746 0.32363,-0.14848 0.48255,-0.22504 0.13937,-0.0678 0.28004,-0.13507 0.4114,-0.20892 0.13015,-0.0758 0.24958,-0.15989 0.39528,-0.22389 0.13115,-0.0611 0.2605,-0.12423 0.38627,-0.1896 0.1351,-0.0721 0.2642,-0.14714 0.39386,-0.22325 0.17231,-0.0908 0.36629,-0.16436 0.55406,-0.2427 0.18314,-0.075 0.37094,-0.14642 0.56383,-0.21296 0.17399,-0.0601 0.34328,-0.12305 0.49658,-0.20089 0.1496,-0.0672 0.30273,-0.13184 0.45556,-0.19639 0.14121,-0.0614 0.28446,-0.12158 0.43173,-0.17784 0.1344,-0.051 0.2712,-0.0993 0.42035,-0.13644 0.13142,-0.035 0.24525,-0.0858 0.37233,-0.12496 0.0938,-0.0257 0.19689,-0.0414 0.28802,-0.0689 0.13738,-0.0421 0.28049,-0.0803 0.43977,-0.0988 0.16438,-0.0156 0.3339,-0.0243 0.50999,-0.0216 0.0713,1.6e-4 0.14193,-0.001 0.2118,-0.004 0.0187,-0.009 0.0314,-0.0225 0.0507,-0.0309 0.0301,-0.014 0.0624,-0.028 0.0931,-0.0417 0.0265,-0.0121 0.0522,-0.0234 0.0786,-0.0354 0.0251,-0.0113 0.0504,-0.0228 0.0758,-0.034 l 0.0928,-0.0418 c 0.0391,-0.0195 0.0809,-0.0357 0.13128,-0.0448 0.0323,-0.005 0.0593,-0.015 0.0885,-0.0237 0.0278,-0.0106 0.0624,-0.017 0.0896,-0.0282 0.0388,-0.0227 0.0886,-0.0355 0.14008,-0.0468 0.0506,-0.0118 0.10716,-0.017 0.1578,-0.0286 0.0535,-0.0111 0.10728,-0.0216 0.16375,-0.0292 0.0534,-0.005 0.10432,-0.0143 0.15701,-0.0202 0.0481,-0.007 0.1016,-0.007 0.15185,-0.0118 0.0377,-0.01 0.0767,-0.0156 0.11841,-0.021 0.0393,-0.006 0.0752,-0.0147 0.11415,-0.021 0.0426,-0.006 0.0838,-0.0132 0.12916,-0.0158 0.0142,-6.1e-4 0.0274,-0.002 0.0413,-0.003 0.0315,-0.007 0.0624,-0.014 0.093,-0.0218 0.0746,-0.0253 0.1521,-0.0483 0.23648,-0.0639 0.0771,-0.0159 0.15085,-0.0373 0.2384,-0.0407 0.0791,-0.004 0.15138,-0.0166 0.23128,-0.0193 0.0806,-0.003 0.15881,-0.01 0.2375,-0.0161 0.0764,-0.006 0.15046,-0.0133 0.22688,-0.0193 0.0637,-0.003 0.13015,-0.006 0.18853,-0.0162 0.0633,-0.0115 0.13071,-0.0181 0.19483,-0.0291 0.007,-5.2e-4 0.0155,-0.001 0.022,-0.003 0.0323,-0.0104 0.0688,-0.0188 0.098,-0.032 0.0483,-0.0196 0.0972,-0.0387 0.145,-0.059 0.0392,-0.017 0.0802,-0.032 0.11907,-0.0494 0.0304,-0.0136 0.0613,-0.0275 0.0915,-0.0411 0.0366,-0.0184 0.0738,-0.034 0.12106,-0.0423 0.0251,-0.002 0.0497,-0.006 0.0701,-0.0133 0.0301,-0.0113 0.062,-0.0207 0.0956,-0.0288 0.0395,-0.004 0.0773,-0.008 0.11782,-0.0106 0.0231,-10e-4 0.0415,-0.005 0.0616,-0.009 0.0344,-0.0104 0.0676,-0.022 0.10751,-0.0261 0.0386,-0.008 0.0821,-0.0101 0.12348,-0.0152 0.04,-0.01 0.0863,-0.0118 0.12901,-0.0177 0.009,-6.9e-4 0.0142,-6e-4 0.0159,-6.9e-4 l 9.9e-4,-3e-4 c 9.7e-4,-2.8e-4 0.005,1.8e-4 0.007,-10e-4 0.0715,-0.0144 0.13668,-0.0127 0.19438,10e-4 0.0231,-0.008 0.0478,-0.0153 0.0722,-0.0223 0.0489,-0.0149 0.10503,-0.0237 0.15401,-0.0389 0.0552,-0.0154 0.11308,-0.0275 0.18012,-0.0285 0.0457,-10e-4 0.0913,-0.002 0.13611,-0.005 0.0558,-0.006 0.11426,-0.011 0.17071,-0.0163 0.0521,-0.003 0.10384,-0.006 0.1533,-0.0125 0.0716,-0.007 0.14701,-0.01 0.21969,-0.0161 0.0619,-0.003 0.11993,-0.009 0.17645,-0.0188 0.0728,-0.008 0.14939,-0.0113 0.22577,-0.0148 0.0734,-0.003 0.14688,-0.006 0.21862,-0.0116 0.0688,-0.005 0.14064,-0.007 0.20631,-0.0161 0.0748,-0.009 0.15234,-0.0156 0.22635,-0.0252 0.0706,-0.008 0.14274,-0.0133 0.20843,-0.0271 0.0803,-0.0173 0.15584,-0.0395 0.23559,-0.0574 0.0648,-0.0112 0.13484,-0.0151 0.20459,-0.0194 0.0592,-0.004 0.11521,-0.0113 0.17197,-0.0189 0.0629,-0.009 0.12079,-0.0235 0.18594,-0.0292 0.0655,-0.006 0.12902,-0.0151 0.19907,-0.0149 0.0648,-0.003 0.13014,-0.006 0.19507,-0.009 0.0619,-0.002 0.12021,-0.01 0.17802,-0.0175 0.0571,-0.007 0.11414,-0.0154 0.17337,-0.0195 0.0557,-0.01 0.10906,-0.0198 0.16039,-0.0338 0.0651,-0.016 0.11628,-0.046 0.18497,-0.059 0.0579,-0.014 0.1188,-0.0242 0.1763,-0.0389 0.0558,-0.0114 0.11356,-0.0202 0.16944,-0.0318 0.0573,-0.0101 0.1119,-0.0233 0.16771,-0.035 0.0599,-0.009 0.12064,-0.0179 0.18187,-0.0253 0.0585,-0.005 0.11851,-0.007 0.17876,-0.01 0.0521,-0.005 0.10645,-0.008 0.16086,-0.01 0.0551,-0.006 0.11048,-0.0111 0.16466,-0.0175 0.051,-0.003 0.10065,-0.009 0.1518,-0.0118 0.0573,-0.007 0.11841,-0.0106 0.17506,-0.0182 0.0649,-0.009 0.12504,-0.0212 0.19711,-0.02 0.0571,-0.003 0.11556,-0.006 0.17123,-0.0104 0.0696,-0.009 0.13866,-0.0199 0.20661,-0.0304 0.0793,-0.0102 0.15825,-0.0193 0.24466,-0.0193 0.0314,-3e-4 0.0619,-2.7e-4 0.0936,3.7e-4 0.19176,-0.029 0.38444,-0.0563 0.58419,-0.0751 0.21191,-0.02 0.42432,-0.0387 0.63766,-0.0567 0.15731,-0.0136 0.31188,-0.0316 0.47115,-0.0424 0.14472,-0.0117 0.30487,0.002 0.459,0.007 0.1669,0.005 0.33552,0.0144 0.50495,0.025 0.201,0.014 0.40015,0.0272 0.59768,0.0337 0.16559,0.006 0.33226,0.0109 0.5002,0.0211 0.0301,-0.008 0.0628,-0.0134 0.0995,-0.0185 0.14676,-0.0197 0.29113,-0.0427 0.44175,-0.0574 0.12391,-0.008 0.24076,-0.0236 0.3637,-0.0325 0.11923,-0.0163 0.24659,-0.0216 0.37821,-0.0188 0.14694,0.008 0.29767,0.0254 0.44313,0.0306 0.14731,0.007 0.29728,0.0233 0.44648,0.0351 0.14417,0.0161 0.28289,0.0184 0.42533,0.0305 0.13384,0.007 0.27149,0.0201 0.40767,0.0325 0.13157,0.0111 0.25739,0.0146 0.39131,0.0318 0.10361,0.0167 0.20541,0.0231 0.30691,0.0334 0.11237,0.008 0.22651,0.0239 0.34138,0.038 0.082,0.008 0.16774,0.0199 0.24647,0.0202 0.10668,-0.009 0.22603,-10e-4 0.34341,0.009 0.095,0.009 0.17945,10e-6 0.27009,10e-4 0.041,0.003 0.0821,0.006 0.12235,0.007 0.0147,-0.0337 0.0419,-0.0649 0.0905,-0.089 0.0642,-0.033 0.16145,-0.0548 0.29488,-0.0579 0.0564,-10e-4 0.0322,-0.002 0.0683,-3.9e-4 0.0973,-0.0103 0.19574,-0.022 0.29564,-0.0301 0.60933,-0.0483 0.95671,0.36429 0.55041,0.50015 -0.0403,0.16842 -0.10301,0.34076 0.13753,0.2807 -0.0532,0.0156 -0.10705,0.0292 -0.16752,0.037 -0.0791,0.009 -0.0945,0.005 -0.1564,0.028 -0.0709,0.0195 -0.14208,0.0376 -0.21818,0.0517 l -0.24742,0.11113 c -0.0438,0.0397 -0.092,0.0762 -0.14363,0.11081 -0.0681,0.0338 -0.12348,0.0735 -0.17413,0.11851 -0.0572,0.0362 -0.0928,0.0854 -0.13455,0.13094 -0.0172,0.0176 -0.0338,0.0344 -0.0535,0.0503 -0.0188,0.0218 -0.0436,0.0407 -0.0693,0.0592 -0.0128,0.007 -0.0226,0.0142 -0.0338,0.0213 -0.0317,0.0442 -0.0959,0.0721 -0.13001,0.11475 -0.0339,0.0482 -0.0931,0.0818 -0.12731,0.12962 -0.0336,0.0611 -0.10503,0.10066 -0.15496,0.15223 -0.042,0.048 -0.0915,0.0918 -0.14478,0.13343 -0.0427,0.0275 -0.0676,0.0668 -0.10148,0.1 -0.002,0.004 -0.0128,0.0138 -0.0257,0.0259 0.0216,0.14664 -0.037,0.25876 -0.1639,0.34576 -0.023,0.0398 -0.0472,0.0789 -0.0762,0.11582 0.0169,0.0655 0.006,0.1387 -0.0413,0.21603 -0.0489,0.0768 -0.10479,0.1502 -0.16718,0.22011 -0.0458,0.0566 -0.0842,0.11635 -0.12334,0.17626 -0.0444,0.0543 -0.09,0.10745 -0.13482,0.16139 -0.0128,0.0471 -0.0543,0.083 -0.0755,0.12662 -0.0226,0.0389 -0.0374,0.0821 -0.0509,0.12527 -0.0199,0.056 -0.0381,0.11343 -0.0631,0.16742 -0.0142,0.0444 -0.028,0.0901 -0.0437,0.13441 -0.0148,0.0423 -0.0379,0.0939 -0.0585,0.14936 -0.0212,0.0613 -0.045,0.12114 -0.0681,0.18163 -0.0251,0.0426 -0.0347,0.091 -0.0528,0.13633 -0.0156,0.0558 -0.0436,0.10668 -0.0808,0.15312 l 0.002,10e-4 -2e-4,10e-4 c -0.005,0.0166 -0.0449,0.0817 -0.0498,0.0931 -0.0128,0.0437 -0.0738,0.0886 -0.0834,0.11826 -0.0381,0.0644 -0.0873,0.12432 -0.14373,0.17946 -0.0465,0.0574 -0.0886,0.1162 -0.13682,0.17239 -0.0305,0.0296 -0.0588,0.0608 -0.0873,0.0916 0.0462,0.0423 0.0943,0.0834 0.14227,0.12546 0.0966,0.0761 0.18136,0.15458 0.25994,0.23579 0.67894,-0.56973 1.35793,-1.13914 2.03713,-1.70886 0.72901,-0.61128 1.45797,-1.22301 2.1869,-1.83457 -0.0813,-0.10819 -0.0813,-0.24721 0.067,-0.37062 0.0927,-0.0768 0.15997,-0.16736 0.23234,-0.25552 0.0851,-0.11609 0.14834,-0.24162 0.22363,-0.3623 0.0745,-0.10063 0.16152,-0.19546 0.25678,-0.28452 0.0688,-0.0608 0.11593,-0.13191 0.14716,-0.21112 0.0456,-0.10175 0.0728,-0.21085 0.11794,-0.31284 0.0484,-0.10897 0.12262,-0.20514 0.20671,-0.29637 0.11628,-0.13917 0.24288,-0.27243 0.37756,-0.40129 0.0128,-0.0122 0.0215,-0.0216 0.0288,-0.0289 -0.17184,-0.24407 -0.42727,-0.47206 -0.73283,-0.65998 -0.10763,0.036 -0.29853,0.0183 -0.55639,-0.0905 -0.0521,-0.022 -0.10527,-0.0362 -0.15646,-0.0606 -0.0667,-0.0295 -0.1185,-0.0451 -0.18559,-0.0715 -0.0978,-0.0378 -0.1943,-0.0811 -0.29305,-0.11616 -0.0722,-0.0305 -0.14622,-0.0556 -0.22012,-0.0805 l -0.0118,-0.003 c -0.006,-0.002 -0.0128,-0.004 -0.0258,-0.009 -0.049,-0.0154 -0.0991,-0.0314 -0.14791,-0.0484 l -0.002,-10e-4 -9.6e-4,3e-4 c -0.006,-0.002 -0.0128,-0.004 -0.0185,-0.006 -0.10941,-0.0387 -0.21856,-0.0815 -0.3264,-0.12532 -0.11048,-0.0537 -0.22844,-0.0964 -0.3336,-0.15841 -0.087,-0.0501 -0.17901,-0.0964 -0.26584,-0.14654 -4.10449,-1.31345 -8.20802,-2.62654 -12.31246,-3.93963 z m 7.91435,4.1586 c 0.0118,0.0138 0.018,0.0273 0.0256,0.0409 0.0161,-4e-5 0.0328,-5e-5 0.049,10e-5 l 9.7e-4,-2.8e-4 0.002,10e-4 9.8e-4,-3e-4 10e-4,-2.9e-4 0.002,10e-4 0.001,-2.9e-4 c 0.0186,10e-4 0.0366,10e-4 0.0552,10e-4 0.0128,-1.6e-4 0.0262,-10e-4 0.037,-0.003 -0.0587,-0.0139 -0.11664,-0.0266 -0.17549,-0.04 z m 1.50882,2.37436 c 0.0184,0.008 0.0359,0.0156 0.0536,0.0241 0.001,-0.008 0.006,-0.0142 0.0118,-0.0207 -0.02,-0.001 -0.04,-0.002 -0.0596,-0.003 l -0.005,-7e-4 z m 0.0724,0.6202 c 0.0183,0.009 0.0295,0.0156 0.0329,0.0195 0.009,10e-4 0.0142,0.003 0.0214,0.004 -0.0193,-0.0109 -0.034,-0.0165 -0.0512,-0.0255 l -2.1e-4,10e-4 z m 0.79421,-0.0647 c 0.0212,0.0165 0.0427,0.0332 0.0649,0.0494 -0.009,-0.0137 -0.0172,-0.0273 -0.0271,-0.0421 -0.0118,-0.002 -0.0245,-0.006 -0.0366,-0.007 z m 1.08554,-0.39698 c 0.0142,0.007 0.0256,0.0143 0.0392,0.0206 0.009,-0.006 0.0181,-0.0103 0.0268,-0.0161 -0.0222,-0.002 -0.0443,-0.004 -0.0657,-0.005 z m -2.45133,5.07797 c 0.001,0.0112 0.002,0.0215 0.005,0.0324 0.006,0.007 0.0128,0.0147 0.018,0.0221 0.006,-0.008 0.0118,-0.0177 0.006,-0.0286 0.001,-0.005 0.001,-0.01 0.005,-0.0152 -0.0118,-0.003 -0.0202,-0.007 -0.0306,-0.0105 z m -2.56309,1.28839 c -0.006,0.0169 -0.009,0.0406 -0.007,0.0498 l -2.3e-4,10e-4 0.002,10e-4 c 0.0178,-0.0127 0.017,-0.0314 0.006,-0.0531 z"
       inkscape:transform-center-x="-1.3364345"
       inkscape:transform-center-y="0.90164974" /><path
       style="opacity:1;fill:#4d4d4d;fill-opacity:0.65625;stroke-width:1.36991"
       d="m -779.27398,762.2974 411.09427,0.80884 271.240891,-1.02392"
       id="path7"
       inkscape:transform-center-x="0.32394265"
       inkscape:transform-center-y="0.0074808181" /><path
       id="path6-6"
       style="fill:#ac3b61;fill-opacity:1;fill-rule:nonzero;stroke:none;stroke-width:0.00290685"
       d="m -298.1671,581.44897 -0.002,0.002 -0.002,0.002 -0.002,0.002 -0.002,0.002 -0.002,0.002 -0.002,0.002 -0.002,0.002 -0.002,0.002 -0.0205,10e-4 c 0.007,0.0531 0.0112,0.10402 0.012,0.15769 -2.4e-4,0.0157 -1.2e-4,0.0306 -7.4e-4,0.0464 h 0.002 l 0.002,2e-5 0.002,10e-6 0.002,1e-5 c 0.003,2.6e-4 0.009,10e-4 0.0115,0.002 l 0.002,2e-5 0.002,1e-5 0.002,10e-6 0.002,2e-5 -3e-5,0.002 h 0.002 l -3e-5,0.002 0.002,10e-6 -2e-5,0.002 0.002,2e-5 -3e-5,0.002 -2e-5,0.002 -4e-5,0.002 -2e-5,0.002 -0.002,0.002 -4e-5,0.002 c -0.003,0.012 -0.017,0.0256 -0.0297,0.0325 -0.003,0.0209 -0.003,0.0416 -0.005,0.0626 0.006,0.0147 0.0124,0.0301 0.021,0.0464 0.0152,0.0401 0.0357,0.0756 0.049,0.11594 0.0154,0.0386 0.0343,0.0731 0.0507,0.11123 0.0185,0.0419 0.0414,0.0784 0.0577,0.1229 0.007,0.0291 0.0272,0.0484 0.0352,0.0765 0.0126,0.0233 0.0286,0.0579 0.0423,0.0859 0.0194,0.0367 0.0387,0.0741 0.055,0.1136 0.0117,0.0293 0.0377,0.0547 0.054,0.0836 0.0312,0.0477 0.0637,0.0924 0.0953,0.13914 0.0355,0.0483 0.0725,0.0958 0.10834,0.14377 0.0337,0.0414 0.0672,0.0788 0.10148,0.11828 0.034,0.0426 0.0675,0.0864 0.0998,0.13218 0.0375,0.0503 0.0772,0.0972 0.11559,0.14608 0.0317,0.0473 0.0591,0.10091 0.0923,0.14609 0.0389,0.0511 0.0789,0.10013 0.11545,0.15536 0.0306,0.0426 0.06,0.0866 0.0926,0.12521 0.0354,0.0452 0.0697,0.0913 0.10708,0.13218 0.0543,0.0606 0.11145,0.11462 0.16308,0.18087 0.0528,0.0661 0.10661,0.12974 0.15994,0.19478 0.0431,0.0539 0.0879,0.10425 0.13295,0.15303 0.0508,0.0513 0.10013,0.10685 0.14882,0.1623 0.0256,0.0373 0.0537,0.0671 0.0813,0.10199 0.028,0.0336 0.0551,0.0703 0.0828,0.10436 0.032,0.0375 0.0652,0.0715 0.10027,0.10199 0.0393,0.0494 0.0719,0.10527 0.10362,0.16696 0.0146,0.0241 0.0282,0.0496 0.0425,0.0742 0.0613,0.0408 0.12208,0.0845 0.18133,0.13217 0.0289,0.0259 0.0414,0.0401 0.0488,0.0487 l 0.002,2e-5 c 0.003,-1.8e-4 0.011,-7.1e-4 0.0232,0.005 0.10048,0.0474 0.19078,0.13088 0.27897,0.21797 0.0305,0.0313 0.0804,0.0516 0.14676,0.10903 0.0391,0.0366 0.0777,0.0631 0.13493,0.12058 0.014,-3.3e-4 0.0303,0.003 0.0493,0.0139 0.0276,0.0152 0.0528,0.0363 0.0806,0.0557 0.0256,0.0196 0.0496,0.0411 0.0748,0.0626 0.0214,0.0175 0.0423,0.0364 0.0617,0.058 0.0152,0.0157 0.032,0.0326 0.0458,0.0486 0.0134,0.0126 0.0263,0.0274 0.0401,0.0418 0.011,0.0131 0.0247,0.0283 0.0357,0.0417 0.0131,0.0122 0.0275,0.0247 0.0386,0.037 0.0158,0.0193 0.0319,0.0374 0.0487,0.0557 0.0213,0.0255 0.0423,0.0475 0.0644,0.0718 0.0218,0.0234 0.0437,0.0467 0.0658,0.0696 0.0213,0.0245 0.0422,0.048 0.0644,0.0718 0.026,0.0271 0.0509,0.0561 0.0758,0.0858 0.0179,0.0231 0.0379,0.0428 0.0573,0.0625 0.0192,0.0202 0.0363,0.0392 0.0559,0.0603 0.0156,0.0167 0.0335,0.0334 0.0472,0.0511 0.01,0.0103 0.0176,0.0137 0.0289,0.0209 l 0.002,10e-6 c 0.006,0.004 0.0256,0.0248 0.0316,0.0301 h 0.002 c 0.0152,0.0111 0.0271,0.0283 0.0431,0.0394 0.0122,0.013 0.0264,0.0189 0.0404,0.0278 0.0158,0.0104 0.0293,0.0221 0.0461,0.0324 0.0354,0.0224 0.0422,0.0474 0.0363,0.0927 0.008,0.0131 0.0143,0.0295 0.0227,0.0464 0.0274,0.0506 0.019,0.077 0.009,0.14144 -0.0157,0.0365 -0.0385,0.0483 -0.0634,0.0533 l -0.002,-2e-5 -4e-5,0.002 c -0.005,0.004 -0.0201,0.009 -0.0235,0.0119 -0.0197,0.013 -0.0417,0.0165 -0.0616,0.0256 -0.0258,0.0119 -0.0535,0.0171 -0.0789,0.0209 -0.0217,0.003 -0.0431,0.006 -0.0656,0.006 -0.0276,0.001 -0.0548,-10e-4 -0.0828,-0.007 -0.0278,-0.003 -0.0531,-0.0141 -0.0812,-0.021 -0.0306,-0.006 -0.0621,-0.01 -0.093,-0.0125 -0.0312,1.7e-4 -0.0621,-0.008 -0.093,-0.0144 -0.0261,-0.005 -0.0532,-0.006 -0.0785,-0.007 -0.0335,-10e-4 -0.0671,-0.007 -0.1002,-0.0162 -0.0236,-0.007 -0.0463,-0.0172 -0.0695,-0.0278 -0.008,7e-5 -0.0174,-5e-5 -0.0262,-1e-5 -0.0299,1e-4 -0.059,-5.6e-4 -0.0888,-3.5e-4 l -0.0902,-3.9e-4 -0.0815,-1.6e-4 -0.0743,2e-5 c -0.0293,2.3e-4 -0.0575,-0.008 -0.0856,-0.0186 -0.0276,-0.0153 -0.0543,-0.0326 -0.0822,-0.051 -0.0142,-0.0111 -0.0293,-0.0215 -0.0433,-0.0278 -0.0143,-0.004 -0.028,-0.008 -0.0419,-0.0139 -0.0224,-0.007 -0.0425,-0.0214 -0.062,-0.0395 -3.3e-4,-0.0132 -0.002,-0.0264 -0.004,-0.0394 -0.0705,-0.0312 -0.14057,-0.0661 -0.20939,-0.10665 -0.0491,-0.0292 -0.10121,-0.0447 -0.15347,-0.0533 -0.0696,-0.01 -0.13812,-0.0137 -0.20795,-0.0162 -0.0806,-0.002 -0.16106,-0.004 -0.2416,-0.005 -0.10482,0.01 -0.20726,-0.0162 -0.30773,-0.058 -0.0416,-0.0215 -0.0836,-0.0363 -0.12746,-0.0418 -0.0782,-0.002 -0.15384,-0.0192 -0.22773,-0.0534 l -31.52594,0.003 c -0.0751,0.11313 -0.18788,0.20852 -0.34198,0.26209 -0.0952,0.0331 -0.18656,0.0909 -0.28024,0.13453 -0.0653,0.0199 -0.12533,0.0565 -0.18094,0.1159 -0.0819,0.0953 -0.17219,0.17002 -0.26023,0.24817 -0.0303,0.025 -0.0595,0.0518 -0.0886,0.0789 0.0284,0.0599 0.0553,0.12112 0.083,0.18319 0.0367,0.086 0.0735,0.19178 0.098,0.24581 0.0298,0.0572 0.0601,0.11314 0.089,0.17159 0.0767,-0.005 0.15373,-0.007 0.2302,-0.01 0.15821,-0.006 0.31514,-0.004 0.47326,-0.005 0.0718,-0.0502 0.16032,-0.0858 0.26513,-0.0998 0.12442,-0.0165 0.2484,-0.0125 0.37268,0.003 0.10501,0.0147 0.2108,0.0376 0.31492,0.0626 0.11461,0.0269 0.22773,0.0436 0.34454,0.0324 0.11383,-9.8e-4 0.22688,2e-5 0.34074,-9.7e-4 0.0845,2.4e-4 0.16909,4.9e-4 0.2534,-0.003 0.0927,-0.004 0.18552,-0.008 0.27838,-0.0185 0.088,-0.012 0.17489,-0.0312 0.26157,-0.0603 0.10468,-0.0282 0.20975,-0.0388 0.31501,-0.0324 0.071,-1.2e-4 0.14129,-2.6e-4 0.21258,-3.7e-4 0.0987,6.2e-4 0.19842,-0.002 0.29707,-0.003 0.10171,6.9e-4 0.20259,3.7e-4 0.30429,6e-5 0.0851,-0.002 0.17122,-0.003 0.25644,-0.0118 0.0827,-0.01 0.16436,-0.0188 0.2467,-0.0395 0.11948,-0.0333 0.23911,-0.0756 0.36061,-0.0626 0.12287,-7.4e-4 0.24553,-4.9e-4 0.36838,-2.3e-4 0.13504,-4.2e-4 0.26981,-8.5e-4 0.40474,3e-5 0.11879,10e-4 0.23782,-7e-4 0.35664,0.004 0.13911,0.005 0.2773,0.0134 0.41597,0.0278 0.16816,0.0178 0.33692,0.0405 0.50402,0.0742 0.14466,0.0241 0.29118,-0.003 0.43669,0.007 0.15537,-8.8e-4 0.31064,10e-4 0.46591,5e-5 0.14658,-10e-4 0.29325,-0.004 0.4398,-0.007 0.17086,-0.003 0.34198,-0.0135 0.51251,-1.2e-4 0.12827,0.0251 0.26066,-0.004 0.39011,0.006 l 0.37854,3e-5 0.37563,-4e-5 0.44699,-5e-5 0.47755,-4e-5 c 0.13113,-5.2e-4 0.2621,-5e-5 0.39312,-2.8e-4 0.14762,-8e-5 0.29641,8.6e-4 0.44406,-1.2e-4 0.15136,-9.9e-4 0.30149,9.9e-4 0.45282,-10e-5 0.13931,-10e-4 0.27872,-0.003 0.41801,-0.01 0.10094,-0.005 0.20297,-0.009 0.30336,-0.0325 0.13304,-0.033 0.26531,-0.0828 0.40011,-0.0742 0.16283,-6.8e-4 0.32635,6.5e-4 0.48921,-1.3e-4 0.17599,-3.4e-4 0.35128,-6.9e-4 0.52706,-3e-5 0.16723,-5.7e-4 0.33523,8.9e-4 0.50234,-0.002 0.14331,-0.002 0.28648,-0.006 0.42982,-0.0185 0.16336,-0.0141 0.32626,-0.0323 0.48877,-0.065 0.15075,-0.0266 0.30061,-0.034 0.45179,-0.0278 l 0.41496,3e-4 0.38003,-6.3e-4 c 0.13113,-5.2e-4 0.26181,-6e-5 0.3931,-2.7e-4 0.1629,-6.9e-4 0.32639,-10e-4 0.48921,-1.4e-4 0.18919,2e-5 0.37872,0.003 0.56776,0.004 0.23137,0.004 0.46162,0.006 0.69274,0.0185 0.19863,0.0123 0.39748,0.0319 0.59433,0.0717 0.15243,0.0282 0.3059,0.0224 0.45971,0.0229 0.18016,0.003 0.36008,0.004 0.53995,0.0138 0.18124,0.0108 0.36234,0.0258 0.54206,0.0625 0.16265,0.0296 0.32568,0.046 0.49012,0.0347 0.16897,-5.2e-4 0.33765,-10e-4 0.50668,-7e-5 0.1934,1.3e-4 0.3859,-4.7e-4 0.57942,0.002 0.18637,9.4e-4 0.37287,-8.2e-4 0.559,0.007 0.1464,0.006 0.29415,0.01 0.43897,0.0439 0.0881,0.0234 0.17823,0.0498 0.26198,0.0974 0.13754,0.0233 0.27442,0.054 0.4073,0.11357 0.0131,0.006 0.0258,0.0107 0.039,0.0162 0.0232,-3.9e-4 0.0467,-0.003 0.0699,-0.003 0.0465,-7.7e-4 0.0933,-0.003 0.13982,-0.002 0.0462,2.3e-4 0.0921,4.5e-4 0.13833,-3.3e-4 0.0509,-6.5e-4 0.10186,7e-4 0.15278,0.005 0.0602,0.004 0.12164,0.005 0.1819,0.007 0.0732,10e-4 0.14654,0.003 0.21982,0.002 0.0741,9.6e-4 0.14749,-9e-5 0.22132,-1.4e-4 0.0743,-3e-5 0.14838,-6e-5 0.22277,-9e-5 0.0842,2.3e-4 0.16909,-5.2e-4 0.25333,-2.8e-4 l 0.25917,-1.3e-4 0.24313,4.4e-4 0.23877,3.3e-4 c 0.0687,8.9e-4 0.1365,0.003 0.20538,-0.005 0.0598,-0.005 0.12104,-0.0151 0.18092,-0.0232 0.059,-0.008 0.11714,-0.009 0.17635,-0.0118 0.0609,-0.002 0.12236,-0.003 0.18348,-0.002 0.0662,-2.5e-4 0.13327,-4.7e-4 0.19945,2.9e-4 0.0543,-5.6e-4 0.10868,8.8e-4 0.16312,-0.003 0.0488,-0.004 0.0969,-0.007 0.14575,-0.01 0.0402,-0.003 0.0795,-0.003 0.11945,-0.003 0.0394,5e-5 0.0785,-0.003 0.11798,-0.003 0.0132,-1.4e-4 0.025,-3e-4 0.035,0.002 l 0.002,2e-5 c 0.11034,-0.002 0.22174,-0.002 0.33197,-0.002 0.12385,-0.0107 0.24922,0.0245 0.37284,-0.007 0.13009,-0.0291 0.25924,-0.0582 0.38998,-0.0766 0.11185,-0.0157 0.22452,-0.0211 0.33674,-0.0255 0.0967,-0.003 0.19317,-0.006 0.28984,-0.007 0.0974,-10e-4 0.19545,1.9e-4 0.29266,-2.4e-4 0.0792,10e-5 0.15845,-8e-4 0.23731,2.9e-4 0.0876,3.3e-4 0.17418,-3.8e-4 0.26208,-5e-5 l 0.16453,-6.4e-4 c 0.012,-0.0368 0.0428,-0.0672 0.0913,-0.0672 l 0.0859,2.8e-4 0.11358,-9.9e-4 0.10626,8.2e-4 0.099,6.2e-4 0.0844,2.4e-4 0.0859,2.8e-4 0.0641,7e-4 0.0597,5.8e-4 0.0684,-1.8e-4 0.067,-2.3e-4 c 0.024,-3.6e-4 0.0488,-7e-4 0.0727,0.004 0.10074,-0.0264 0.20207,-0.0338 0.30351,-0.0419 0.0759,-0.006 0.15291,-0.007 0.22874,-0.01 0.0242,-3.5e-4 0.0473,-7.4e-4 0.0699,0.002 0.006,-0.0366 0.0315,-0.0694 0.0725,-0.0765 0.007,-8.1e-4 0.0154,-3e-4 0.0232,-1e-5 0.0324,0.001 0.0639,0.008 0.0959,0.0125 0.0346,0.003 0.069,0.004 0.10317,0.0127 0.0247,0.006 0.05,0.0113 0.0754,0.0139 0.0237,0.002 0.0488,-7.1e-4 0.0713,0.002 0.0217,4.7e-4 0.0415,10e-5 0.0641,7e-4 0.0278,0.003 0.0546,0.0122 0.0827,0.0208 0.0261,0.008 0.0515,0.0197 0.0767,0.0278 0.0209,0.007 0.0414,0.007 0.064,0.01 0.0325,0.007 0.0658,0.0148 0.0987,0.0185 0.0266,0.003 0.0518,0.003 0.08,0.004 0.0214,8e-4 0.0415,0.005 0.064,0.006 0.0276,1.7e-4 0.0548,4.6e-4 0.083,2e-4 0.0316,2e-5 0.063,6.7e-4 0.0946,5.1e-4 0.0333,10e-6 0.066,7.5e-4 0.099,6.3e-4 l 0.0917,4.3e-4 0.0975,5.9e-4 c 0.0259,0.002 0.0532,0.008 0.0784,0.0121 0.032,0.003 0.0639,0.0124 0.0959,0.0144 0.0318,8e-4 0.0627,-3.3e-4 0.0946,5.1e-4 0.0292,1.1e-4 0.0584,5.5e-4 0.0873,3.2e-4 0.0281,2e-5 0.0563,4.9e-4 0.0844,2.4e-4 l 0.0713,-1.1e-4 0.0597,5.8e-4 0.0684,-1.9e-4 c 0.002,-0.008 0.003,-0.0136 0.007,-0.0208 l 0.002,-0.0138 3e-5,-0.002 2e-5,-0.002 0.002,-0.002 0.002,-0.002 0.004,-0.007 0.002,-0.002 4e-5,-0.002 0.002,10e-6 3e-5,-0.002 2e-5,-0.002 h 0.002 l 0.002,-0.002 0.002,-0.002 0.002,2e-5 0.002,-0.002 0.002,2e-5 0.006,-1e-5 0.009,1e-5 0.006,-0.002 0.009,10e-6 0.009,1e-5 0.002,10e-6 0.002,10e-6 0.002,2e-5 c 7e-4,5e-5 0.003,1e-5 0.004,-2e-5 l 0.002,2e-5 3e-5,-0.002 c 0.006,-0.002 0.0231,-0.006 0.0249,-0.007 0.007,-0.002 0.0299,-0.006 0.0365,-0.007 l 0.002,2e-5 3e-5,-0.002 c 0.0133,-0.005 0.0212,-0.0101 0.0265,-0.0139 0.0174,-0.0102 0.0372,-0.0182 0.0542,-0.0232 0.0156,-0.004 0.0297,-0.004 0.0466,-0.005 0.0147,-5.7e-4 0.0296,1.3e-4 0.0436,1.6e-4 0.016,-1.1e-4 0.0311,0 0.048,2.7e-4 0.008,-10e-6 0.0149,-4.2e-4 0.0218,0.003 0.008,-0.002 0.0178,-0.005 0.0278,-0.005 l 0.0233,-10e-6 0.0582,5.5e-4 0.0669,7.7e-4 0.008,2e-5 c 0.0174,-0.006 0.0354,-0.0119 0.0526,-0.0139 0.008,-7.9e-4 0.0141,-6.2e-4 0.0219,0 0.0231,0.003 0.0485,0.008 0.0696,0.0163 0.002,-2e-5 0.003,3e-5 0.004,0 0.0117,-2.4e-4 0.0241,-3.6e-4 0.0364,-2e-5 0.021,0.003 0.0442,0.007 0.0639,0.0139 0.0151,0.006 0.0294,0.0146 0.0435,0.0209 0.0219,0.0125 0.0407,0.0298 0.0543,0.0604 l -2e-5,0.002 0.002,1e-5 0.002,0.002 c 0.0176,0.018 0.0261,0.0451 0.025,0.0742 0.003,0.0108 0.002,0.023 0.005,0.0349 1.8e-4,0.0191 0.002,0.0388 0.001,0.0579 0.002,0.0357 -0.001,0.0716 -0.0148,0.102 l -5e-5,0.002 c -8.1e-4,0.005 -0.003,0.0145 -0.007,0.0231 -0.006,0.0133 -0.0152,0.0254 -0.021,0.0371 -0.008,0.0149 -0.0168,0.0285 -0.0255,0.0439 -0.0119,0.021 -0.0243,0.0419 -0.036,0.0626 -0.0109,0.0151 -0.0198,0.031 -0.0312,0.0441 l -3e-5,0.002 -0.002,-0.002 -2e-5,0.002 c -0.003,0.006 -0.007,0.0151 -0.008,0.0163 -0.007,0.0181 -0.0136,0.0345 -0.0212,0.0533 -0.0111,0.0239 -0.0216,0.0457 -0.0361,0.0673 -0.002,0.002 -0.0126,0.0194 -0.0164,0.0256 l -0.002,0.002 c -0.009,0.0224 -0.015,0.0456 -0.0257,0.0648 -0.0121,0.0205 -0.0241,0.038 -0.0302,0.0625 -0.0158,0.0399 -0.0341,0.0789 -0.057,0.10897 -0.0207,0.0317 -0.0396,0.067 -0.0599,0.0997 -0.0231,0.0342 -0.0464,0.0669 -0.0713,0.0973 -0.0199,0.0256 -0.038,0.0518 -0.058,0.0789 -0.0161,0.0192 -0.0303,0.041 -0.0475,0.0603 -0.0201,0.0265 -0.0423,0.0518 -0.0623,0.0765 -0.0236,0.0286 -0.0469,0.0581 -0.0699,0.0881 -0.0273,0.0347 -0.053,0.0694 -0.0818,0.1044 -0.033,0.0414 -0.0671,0.0815 -0.10237,0.11827 -0.0343,0.0348 -0.0677,0.0709 -0.10073,0.109 -0.0387,0.0429 -0.0773,0.0896 -0.11711,0.12986 -0.0323,0.0337 -0.064,0.0649 -0.0977,0.095 -0.0301,0.0298 -0.0608,0.0575 -0.0916,0.0858 -0.0396,0.0343 -0.0811,0.0625 -0.12368,0.0859 -0.0372,0.0178 -0.0757,0.0307 -0.11285,0.0464 -0.0339,0.0206 -0.0619,0.0617 -0.0946,0.0859 -0.0354,0.03 -0.0692,0.0614 -0.10344,0.0951 -0.048,0.045 -0.096,0.091 -0.14343,0.13684 -0.0445,0.0449 -0.0876,0.0945 -0.12901,0.1461 -0.0405,0.047 -0.0791,0.0983 -0.12023,0.14378 -0.0441,0.0439 -0.0857,0.092 -0.13028,0.13452 -0.0421,0.0409 -0.0869,0.0759 -0.12994,0.11369 -0.0396,0.0315 -0.0777,0.0644 -0.11521,0.10196 -0.0341,0.035 -0.0681,0.0731 -0.10078,0.11126 -0.0399,0.0498 -0.0801,0.0974 -0.1217,0.1438 -0.032,0.0357 -0.064,0.0747 -0.0978,0.10658 -0.0274,0.0279 -0.0542,0.0538 -0.0828,0.0812 -0.0245,0.0284 -0.0411,0.0666 -0.0613,0.10196 -0.0222,0.0353 -0.0442,0.0693 -0.0701,0.0997 -0.0201,0.0229 -0.0393,0.045 -0.0594,0.0695 -0.0218,0.0247 -0.0437,0.0503 -0.0667,0.0719 -0.0304,0.0309 -0.0603,0.0631 -0.0904,0.0951 -0.0356,0.0365 -0.0718,0.0726 -0.10798,0.10667 -0.0295,0.0298 -0.0579,0.0627 -0.0874,0.0927 -0.0265,0.0278 -0.0514,0.0561 -0.0799,0.0813 -0.0235,0.0232 -0.0492,0.044 -0.0709,0.0672 -0.0192,0.0172 -0.0376,0.033 -0.0576,0.0511 -0.0124,0.0122 -0.0271,0.0227 -0.0413,0.0348 -0.0158,0.0158 -0.0302,0.0312 -0.0473,0.0464 -0.0163,0.0145 -0.0315,0.0307 -0.0488,0.0441 -0.0131,0.0103 -0.0259,0.0197 -0.0398,0.0278 -0.007,0.0121 -0.0146,0.0247 -0.021,0.0371 -0.0201,0.0425 -0.0456,0.078 -0.0659,0.1206 -0.0202,0.0443 -0.0472,0.0807 -0.0676,0.12291 -0.0203,0.0361 -0.0354,0.0787 -0.0529,0.11826 -0.0229,0.0559 -0.0478,0.10946 -0.0739,0.16234 -0.0171,0.0347 -0.0335,0.0709 -0.0496,0.10667 0.0364,0.056 0.069,0.11909 0.0975,0.18551 0.30469,-0.2908 0.61051,-0.5833 0.91526,-0.87434 l 0.002,-0.002 c 0.005,-0.008 0.0109,-0.016 0.0164,-0.0231 0.0118,-0.0149 0.0256,-0.0302 0.0371,-0.044 0.0107,-0.0118 0.0226,-0.0259 0.0341,-0.0371 0.0114,-0.0119 0.0195,-0.0161 0.028,-0.0278 0.008,-0.01 0.017,-0.0201 0.0252,-0.0302 0.0104,-0.0141 0.017,-0.0302 0.0312,-0.0441 0.012,-0.0119 0.0169,-0.0187 0.034,-0.0347 0.006,-0.005 0.0151,-0.0142 0.0237,-0.0232 0.008,-0.008 0.0188,-0.018 0.0192,-0.0185 0.0103,-0.0121 0.0226,-0.0264 0.0311,-0.0395 0.013,-0.0172 0.0272,-0.0326 0.0415,-0.0487 0.009,-0.0105 0.0211,-0.0222 0.0297,-0.0347 0.0114,-0.0126 0.0168,-0.0274 0.0283,-0.0394 0.0114,-0.0122 0.0165,-0.019 0.0222,-0.0278 0.0121,-0.0186 0.0272,-0.0329 0.0414,-0.0464 0.008,-0.01 0.0137,-0.014 0.0252,-0.0302 0.0126,-0.0153 0.027,-0.0256 0.0385,-0.0416 0.0132,-0.01 0.0228,-0.0296 0.037,-0.0394 0.008,-0.008 0.0202,-0.0211 0.0222,-0.0232 0.0111,-0.012 0.0225,-0.0217 0.031,-0.0348 0.0141,-0.0165 0.0258,-0.0329 0.04,-0.0464 0.0114,-0.0104 0.0227,-0.0281 0.0341,-0.0394 0.0112,-0.0135 0.0257,-0.0346 0.037,-0.0418 0.012,-0.0104 0.021,-0.0175 0.0324,-0.0277 0.0135,-0.013 0.0299,-0.0272 0.0443,-0.0348 0.0111,-0.007 0.0196,-0.0196 0.031,-0.0232 0.0121,-0.01 0.0196,-0.0157 0.0309,-0.0256 0.0103,-0.01 0.0224,-0.0162 0.0309,-0.0278 0.0143,-0.013 0.0255,-0.0257 0.037,-0.0418 0.0107,-0.013 0.0256,-0.0242 0.0371,-0.037 0.0107,-0.012 0.0211,-0.024 0.0326,-0.0348 0.0135,-0.0151 0.0257,-0.0315 0.04,-0.044 0.0152,-0.0147 0.0273,-0.0329 0.0444,-0.0464 0.0162,-0.0163 0.0331,-0.0328 0.0503,-0.0464 0.0106,-0.0125 0.0256,-0.0242 0.0371,-0.037 0.0148,-0.0172 0.03,-0.0308 0.0445,-0.0487 0.0158,-0.0161 0.0316,-0.033 0.0459,-0.0487 0.0158,-0.0152 0.033,-0.032 0.0474,-0.0487 0.0171,-0.0184 0.0332,-0.0395 0.0505,-0.058 0.008,-0.0105 0.0195,-0.0203 0.0282,-0.0324 0.0108,-0.0134 0.0241,-0.0286 0.0356,-0.0395 0.0123,-0.0127 0.027,-0.021 0.0384,-0.0371 0.0125,-0.0131 0.0271,-0.0256 0.0414,-0.0394 0.0149,-0.0148 0.0301,-0.0291 0.0445,-0.0441 0.015,-0.0173 0.0288,-0.0358 0.046,-0.0511 0.0143,-0.0134 0.0299,-0.0247 0.0414,-0.0418 0.0129,-0.0164 0.0272,-0.0316 0.0414,-0.0464 0.004,-0.005 0.024,-0.0318 0.0326,-0.0394 0.014,-0.0103 0.0228,-0.0286 0.037,-0.0394 0.003,-0.004 0.011,-0.01 0.0133,-0.0118 l 0.002,2e-5 c 0.0143,-0.0239 0.0304,-0.0434 0.0476,-0.0626 0.0197,-0.0203 0.0394,-0.0429 0.0619,-0.0487 0.0187,-0.007 0.0359,-0.0198 0.0557,-0.0255 0.0153,-0.004 0.0302,-0.007 0.0454,-0.01 0.0195,-0.0215 0.0388,-0.0439 0.0593,-0.065 0.0386,-0.0405 0.078,-0.0784 0.11691,-0.11828 0.0353,-0.0383 0.0703,-0.0778 0.10665,-0.11359 0.0263,-0.0272 0.0527,-0.0567 0.0785,-0.0859 0.0147,-0.0139 0.0286,-0.0296 0.043,-0.044 0.0188,-0.0204 0.0389,-0.0393 0.0562,-0.0603 0.0171,-0.019 0.0347,-0.0358 0.0517,-0.0532 0.0163,-0.0198 0.0347,-0.0396 0.0518,-0.0557 0.0177,-0.0167 0.0332,-0.0403 0.0504,-0.0557 0.0136,-0.0163 0.0275,-0.0334 0.0415,-0.0487 0.007,-0.0205 0.0174,-0.0344 0.0285,-0.0487 0.009,-0.006 0.0166,-0.0181 0.0251,-0.0209 l 0.002,10e-6 c 6.7e-4,2e-5 0.003,-1.5e-4 0.004,-2e-5 l 0.002,3e-5 h 0.002 l 0.002,2e-5 0.002,2e-5 h 0.002 l 0.002,0.002 c 0.004,-0.005 0.0123,-0.0135 0.0163,-0.0164 l 0.002,2e-5 4e-5,-0.002 0.002,3e-5 0.002,-0.002 c 4.7e-4,-8.9e-4 8e-4,-0.004 0.002,-0.005 l 0.002,3e-5 c 0.002,-0.0353 0.0159,-0.0763 0.0455,-0.11368 0.0147,-0.0188 0.0317,-0.0367 0.0459,-0.0533 0.0197,-0.0205 0.0406,-0.0396 0.0606,-0.0603 0.0132,-0.0153 0.0272,-0.0304 0.0414,-0.0417 0.0171,-0.0181 0.0346,-0.0341 0.0517,-0.0532 0.0217,-0.0208 0.0423,-0.047 0.0651,-0.0649 0.0203,-0.0152 0.042,-0.0279 0.0618,-0.0419 0.0192,-0.0179 0.0405,-0.0355 0.0576,-0.0557 0.0221,-0.0219 0.0452,-0.0436 0.0651,-0.0672 0.0183,-0.0208 0.039,-0.0402 0.0563,-0.0603 0.0232,-0.0272 0.0468,-0.0524 0.0697,-0.0788 0.0258,-0.0286 0.0514,-0.06 0.0772,-0.0905 0.0225,-0.0281 0.0425,-0.0619 0.0683,-0.0835 0.0166,-0.0164 0.0303,-0.0377 0.0474,-0.0533 0.0149,-0.0182 0.0301,-0.0351 0.0446,-0.0557 0.0144,-0.0234 0.029,-0.0484 0.0433,-0.0719 0.0133,-0.0229 0.0231,-0.0495 0.0375,-0.0719 0.0133,-0.0219 0.0272,-0.0421 0.039,-0.0649 0.0151,-0.0269 0.032,-0.0524 0.0463,-0.0788 0.0178,-0.0301 0.035,-0.0595 0.0525,-0.0904 0.02,-0.0338 0.0411,-0.0665 0.0614,-0.0997 0.0237,-0.0359 0.0499,-0.0699 0.0702,-0.10898 0.0224,-0.0379 0.046,-0.0743 0.0716,-0.10668 0.003,-0.0394 0.005,-0.0803 0.006,-0.12058 0.002,-0.16944 -0.0144,-0.33443 -0.0489,-0.4893 -0.004,0.006 -0.0107,0.0118 -0.0177,0.0185 -0.0162,0.0154 -0.0371,0.003 -0.0568,-0.002 l -0.002,-0.002 -0.002,-0.007 c -0.003,-0.004 -0.008,-0.007 -0.0101,-0.0103 l -0.002,-0.005 5e-5,-0.002 c -0.01,-0.008 -0.0209,-0.0171 -0.0317,-0.0231 -0.0193,-0.0124 -0.0367,-0.0262 -0.0532,-0.044 -0.01,-0.011 -0.0217,-0.0223 -0.03,-0.0394 -0.0168,-0.0214 -0.0317,-0.0451 -0.0455,-0.0717 -0.012,-0.0239 -0.0244,-0.0507 -0.038,-0.0742 -0.0137,-0.0268 -0.033,-0.0483 -0.0438,-0.0789 -0.01,-0.0252 -0.0186,-0.0511 -0.0294,-0.0764 -0.0111,-0.0307 -0.0213,-0.0622 -0.032,-0.0927 -0.0162,-0.038 -0.0403,-0.067 -0.0596,-0.0997 -0.0281,-0.04 -0.0555,-0.0792 -0.084,-0.1183 -0.0196,-0.0263 -0.0421,-0.0494 -0.0615,-0.0743 -0.0196,-0.0233 -0.0392,-0.0454 -0.0586,-0.0695 -0.0232,-0.0274 -0.0466,-0.0547 -0.0715,-0.0812 -0.0254,-0.0293 -0.0493,-0.0595 -0.0742,-0.0905 -0.0205,-0.024 -0.0408,-0.0488 -0.0629,-0.0719 -0.0218,-0.0276 -0.0421,-0.0519 -0.0642,-0.0811 -0.0257,-0.0335 -0.0536,-0.067 -0.0785,-0.0997 -0.0259,-0.0301 -0.0525,-0.0579 -0.0801,-0.0882 -0.0235,-0.0234 -0.0497,-0.0444 -0.0718,-0.0696 -0.0325,-0.0358 -0.0481,-0.0768 -0.0505,-0.11361 -1.44074,-1.41818 -2.88125,-2.83662 -4.32151,-4.25488 z m -0.45647,0.86503 c -0.0155,0.0269 -0.032,0.0541 -0.0449,0.0835 l 0.002,10e-6 0.002,-0.002 c 0.0135,-0.027 0.0289,-0.0531 0.0422,-0.0812 z m 3.54519,4.54483 -3e-5,0.002 0.002,2e-5 2e-5,-0.002 z m -2.01542,5.10892 -1e-5,0.002 h 0.002 l 2e-5,-0.002 z m -3.58732,3.35126 -3e-5,0.002 -3e-5,0.002 0.002,2e-5 4e-5,-0.002 2e-5,-0.002 z"
       inkscape:transform-center-y="0.79367156"
       inkscape:transform-center-x="0.0068243428" /><path
       style="fill:#ac3b61"
       d="m -293.92048,588.95296 c -0.0649,0.0324 -0.22706,0.0324 -0.19462,0.0973 0.0324,0.0649 0.24591,-0.1486 0.19462,-0.0973 -0.13075,0.13076 -0.3552,0.17519 -0.4379,0.34059 -0.0144,0.0287 -0.0812,0.17848 -0.0973,0.19462 -0.0115,0.0115 -0.0372,-0.0115 -0.0487,0 -0.0115,0.0115 0.0115,0.0372 0,0.0487 -0.10067,0.10067 0.004,-0.15384 -0.0973,0.0487 -0.007,0.0145 0.0115,0.0372 0,0.0487 -0.0115,0.0115 -0.0372,-0.0115 -0.0486,0 -0.0115,0.0115 0.0115,0.0372 0,0.0487 -0.0115,0.0115 -0.0372,-0.0115 -0.0487,0 -0.0487,0.0487 0.0487,0.0486 0,0.0973 -0.0115,0.0115 -0.0342,-0.007 -0.0487,0 -0.20249,0.10124 0.052,-0.003 -0.0487,0.0973 -0.0115,0.0115 -0.0342,-0.007 -0.0487,0 -0.0772,0.0386 -0.11386,0.16251 -0.14597,0.19462 -0.0243,0.0243 -0.073,0.0243 -0.0973,0.0487 -0.0127,0.0127 -0.12437,0.22168 -0.14597,0.24328 -0.0115,0.0115 -0.0372,-0.0115 -0.0487,0 -0.0115,0.0115 0.0115,0.0372 0,0.0487 -0.0107,0.0107 -0.2157,0.13218 -0.24328,0.14597 -0.041,0.0205 -0.0563,0.0768 -0.0973,0.0973 -0.0145,0.007 -0.0372,-0.0115 -0.0487,0 -0.0115,0.0115 0.0115,0.0372 0,0.0487 -0.0115,0.0115 -0.0372,-0.0115 -0.0487,0 -0.0115,0.0115 0.0115,0.0372 0,0.0486 -0.0107,0.0107 -0.2157,0.13218 -0.24328,0.14597 -0.0707,0.0353 -0.0555,0.15286 -0.0973,0.19463 -0.0162,0.0162 -0.12974,0.0324 -0.14596,0.0487 -0.0195,0.0195 -0.0263,0.0618 -0.0973,0.0973 -0.0294,0.0147 -0.12347,-0.0225 -0.14596,0 -0.0115,0.0115 0.007,0.0342 0,0.0487 -0.0353,0.0707 -0.15286,0.0556 -0.19463,0.0973 -0.0115,0.0115 0.007,0.0342 0,0.0487 -0.0538,0.10758 -0.0302,0.0151 -0.0973,0.0486 -0.20249,0.10125 0.052,-0.003 -0.0487,0.0973 -0.0426,0.0426 -0.24931,0.10333 -0.29194,0.14596 -0.0162,0.0162 -0.0324,0.12975 -0.0487,0.14597 -0.0319,0.0319 -0.17024,0.0243 -0.19462,0.0487 -0.0243,0.0243 -0.0243,0.073 -0.0487,0.0973 -0.10068,0.10067 0.004,-0.15384 -0.0973,0.0487 -0.007,0.0145 0.0115,0.0372 0,0.0487 -0.0243,0.0243 -0.073,0.0243 -0.0973,0.0487 -0.0162,0.0162 -0.0324,0.12975 -0.0487,0.14596 -0.0115,0.0115 -0.0372,-0.0115 -0.0487,0 -0.0975,0.0975 0.12272,0.41682 0.14597,0.48656 0.0214,0.0644 0,0.17485 0,0.24328"
       id="path21" /><path
       style="fill:#ac3b61"
       d="m -297.76429,592.2129 -0.14597,0.7785"
       id="path22" /><path
       style="fill:#ac3b61"
       d="m -297.4237,592.9914 -0.29194,-0.43791"
       id="path23" /><path
       style="fill:#ac3b61"
       d="m -297.56967,592.40753 c -0.0487,0.0649 -0.21084,0.14596 -0.14597,0.19462 0.0649,0.0487 0.18224,-0.26716 0.14597,-0.19462 -0.0684,0.13685 -0.16897,0.25549 -0.24328,0.38924 -0.0124,0.0224 -0.0158,0.27619 0,0.29194 0.0603,0.0603 0.38685,0.0997 0.48656,0"
       id="path24" /><path
       style="fill:#ac3b61"
       d="m -297.56967,582.91963 c -0.0649,-0.0487 -0.14597,-0.21085 -0.19462,-0.14597 -0.0487,0.0649 0.25196,0.20331 0.19462,0.14597 -0.12191,-0.12191 -0.26734,-0.21869 -0.38925,-0.3406 -0.0204,-0.0204 -0.0339,-0.11648 -0.0486,-0.14596 -0.10125,-0.2025 0.003,0.052 -0.0973,-0.0487 -0.0387,-0.0387 -0.0624,-0.20832 -0.0973,-0.24328 -0.0115,-0.0115 -0.0372,0.0115 -0.0487,0 -0.0243,-0.0243 0.0243,-0.12164 0,-0.14597 -0.0649,-0.0649 -0.0487,0.0811 -0.0487,-0.0486 0,-0.10963 -0.0342,-0.38925 0.0973,-0.38925"
       id="path25" /><path
       style="fill:#ac3b61"
       d="m -296.9858,591.53172 c 0.0324,-0.0649 0.16219,-0.16219 0.0973,-0.19462 -0.0649,-0.0324 -0.12974,0.25949 -0.0973,0.19462 0.0649,-0.12975 0.12975,-0.2595 0.19463,-0.38925 0.0162,0 0.0372,0.0115 0.0487,0 0.0162,-0.0162 0.0324,-0.12975 0.0487,-0.14597 0.0319,-0.0319 0.17024,-0.0243 0.19462,-0.0486 0.0243,-0.0243 0.0243,-0.073 0.0487,-0.0973 0.0282,-0.0282 0.16642,-0.0691 0.19462,-0.0973 0.0243,-0.0243 0.0243,-0.073 0.0487,-0.0973 0.0115,-0.0115 0.0372,0.0115 0.0487,0 0.0162,-0.0162 0.0324,-0.12975 0.0487,-0.14596 0.0115,-0.0115 0.0342,0.007 0.0487,0 0.0584,-0.0292 0.0876,-0.11678 0.14597,-0.14597 0.0287,-0.0144 0.17849,-0.0812 0.19463,-0.0973 0.003,-0.003 0.0947,-0.14334 0.0973,-0.14597 0.0115,-0.0115 0.0372,0.0115 0.0487,0 0.0162,-0.0162 0.0324,-0.12975 0.0487,-0.14597 0.0115,-0.0115 0.0372,0.0115 0.0487,0 0.0115,-0.0115 -0.007,-0.0341 0,-0.0487 0.0112,-0.0224 0.32527,-0.25994 0.38924,-0.29193 0.0919,-0.0459 0.10708,-0.15574 0.14597,-0.19462 0.0243,-0.0243 0.12164,0.0243 0.14597,0 0.0243,-0.0243 0.0243,-0.073 0.0487,-0.0973 0.0229,-0.0229 0.0744,0.0229 0.0973,0 0.0243,-0.0243 0.0243,-0.073 0.0486,-0.0973 0.0302,-0.0302 0.17127,-0.0739 0.19462,-0.0973 0.0115,-0.0115 -0.0115,-0.0372 0,-0.0487 0.0229,-0.0229 0.0744,0.0229 0.0973,0 0.0115,-0.0115 -0.0115,-0.0372 0,-0.0486 0.0115,-0.0115 0.0342,0.007 0.0487,0 0.0383,-0.0191 0.17226,-0.0749 0.19463,-0.0973 0.0115,-0.0115 -0.0115,-0.0372 0,-0.0487 0.0168,-0.0168 0.24328,-0.0378 0.24328,-0.14597"
       id="path26" /><path
       style="fill:#ac3b61"
       d="m -297.13177,591.62903 c 0.0649,-0.0486 0.24328,-0.0811 0.19463,-0.14597 -0.0487,-0.0649 -0.2595,0.19463 -0.19463,0.14597 0.26884,-0.20163 0.30022,-0.24742 0.48656,-0.34059 0.0575,-0.0287 0.0923,-0.11018 0.14597,-0.14597 0.0563,-0.0376 0.26323,-0.11726 0.29194,-0.14597 0.0243,-0.0243 0.0243,-0.073 0.0487,-0.0973 0.0319,-0.0319 0.17025,-0.0243 0.19463,-0.0487 0.0243,-0.0243 0.0243,-0.073 0.0487,-0.0973 0.0229,-0.0229 0.0683,0.0145 0.0973,0 0.041,-0.0205 0.0563,-0.0768 0.0973,-0.0973 0.0145,-0.007 0.0372,0.0115 0.0487,0 0.0115,-0.0115 -0.0115,-0.0372 0,-0.0487 0.0193,-0.0193 0.25868,-0.11271 0.29194,-0.14597 0.0115,-0.0115 -0.0115,-0.0372 0,-0.0487 0.0162,-0.0162 0.12975,-0.0324 0.14596,-0.0487 0.0115,-0.0115 -0.0115,-0.0372 0,-0.0487 0.0115,-0.0115 0.0372,0.0115 0.0487,0 0.003,-0.003 0.0947,-0.14333 0.0973,-0.14597 0.0243,-0.0243 0.073,-0.0243 0.0973,-0.0487 0.0115,-0.0115 -0.0115,-0.0372 0,-0.0487 0.0115,-0.0115 0.0372,0.0115 0.0487,0 0.0229,-0.0229 -0.0229,-0.0744 0,-0.0973 0.10067,-0.10067 -0.004,0.15384 0.0973,-0.0487 0.0145,-0.029 -0.0229,-0.0744 0,-0.0973 0.0115,-0.0115 0.0372,0.0115 0.0487,0 0.0229,-0.0229 -0.0229,-0.0744 0,-0.0973 0.0243,-0.0243 0.073,-0.0243 0.0973,-0.0486 0.0455,-0.0455 0.0519,-0.19784 0.0973,-0.24328 0.0115,-0.0115 0.0372,0.0115 0.0487,0 0.0115,-0.0115 -0.0115,-0.0372 0,-0.0487 0.008,-0.008 0.2217,-0.14597 0.24328,-0.14597"
       id="path27" /><path
       style="fill:#ac3b61"
       d="m -296.79117,591.43441 c 0.0487,-0.0649 0.21084,-0.14597 0.14596,-0.19463 -0.0649,-0.0486 -0.2155,0.23635 -0.14596,0.19463 0.26929,-0.16158 0.29638,-0.29416 0.48655,-0.38925 0.0584,-0.0292 0.0876,-0.11677 0.14597,-0.14597 0.0145,-0.007 0.0372,0.0115 0.0487,0 0.0115,-0.0115 -0.0115,-0.0372 0,-0.0487 0.0115,-0.0115 0.0372,0.0115 0.0487,0 0.0115,-0.0115 -0.0115,-0.0372 0,-0.0487 0.0112,-0.0112 0.1732,-0.0379 0.19463,-0.0487 0.0324,-0.0162 0.023,-0.0717 0.0487,-0.0973 0.0345,-0.0345 0.13733,-0.0887 0.14597,-0.0973 0.0115,-0.0115 -0.007,-0.0342 0,-0.0487 0.10125,-0.2025 -0.003,0.052 0.0973,-0.0487 0.0486,-0.0486 0.0335,-0.14597 0.14597,-0.14597"
       id="path28" /><path
       style="fill:#ac3b61"
       d="m -295.62343,590.46129 c -0.0487,0.0649 -0.21084,0.14597 -0.14597,0.19462 0.0649,0.0487 0.2155,-0.23634 0.14597,-0.19462 -0.16747,0.10048 -0.35057,0.21457 -0.43791,0.38925 -0.007,0.0145 0.0115,0.0372 0,0.0487 -0.0204,0.0204 -0.11647,0.0339 -0.14596,0.0487 -0.041,0.0205 -0.0563,0.0768 -0.0973,0.0973 -0.029,0.0145 -0.0744,-0.0229 -0.0973,0 -0.0106,0.0106 -0.0392,0.0926 -0.0487,0.0973 -0.029,0.0145 -0.0683,-0.0145 -0.0973,0 -0.0145,0.007 0.0115,0.0372 0,0.0487 -0.0652,0.0652 -0.24328,0.0396 -0.24328,0.24328"
       id="path29" /><path
       style="fill:#ac3b61"
       d="m -295.3315,590.50995 c -0.0649,0.0324 -0.22706,0.0324 -0.19462,0.0973 0.0324,0.0649 0.25265,-0.14083 0.19462,-0.0973 -0.11727,0.088 -0.38124,0.2636 -0.53521,0.34059 -0.041,0.0205 -0.0563,0.0768 -0.0973,0.0973 -0.0295,0.0147 -0.12558,0.0283 -0.14597,0.0486 -0.0115,0.0115 0.0115,0.0372 0,0.0487 -0.0229,0.0229 -0.0744,-0.0229 -0.0973,0 -0.0115,0.0115 0.0115,0.0372 0,0.0487 -0.0115,0.0115 -0.0342,-0.007 -0.0487,0 -0.041,0.0205 -0.0563,0.0768 -0.0973,0.0973 -0.029,0.0145 -0.0683,-0.0145 -0.0973,0 -0.11529,0.0576 -0.22531,0.18563 -0.34059,0.24328 -0.0383,0.0191 -0.19463,0.0824 -0.19463,0.14597"
       id="path30" /><path
       style="fill:#ac3b61"
       d="m -296.74252,591.62903 c 0.0487,-0.0649 0.21084,-0.14597 0.14597,-0.19462 -0.0649,-0.0487 -0.18223,0.26715 -0.14597,0.19462 0.0811,-0.12975 0.16219,-0.2595 0.24328,-0.38925 0.0162,0 0.0372,0.0115 0.0487,0 0.0362,-0.0362 0.0698,-0.16713 0.0973,-0.19462 0.0229,-0.0229 0.0744,0.0229 0.0973,0 0.0243,-0.0243 0.0243,-0.073 0.0487,-0.0973 0.0229,-0.0229 0.0744,0.0229 0.0973,0 0.0115,-0.0115 -0.0115,-0.0372 0,-0.0487 0.0229,-0.0229 0.0744,0.0229 0.0973,0 0.0115,-0.0115 -0.0115,-0.0372 0,-0.0487 0.0162,-0.0162 0.12975,-0.0324 0.14597,-0.0487 0.0115,-0.0115 -0.0115,-0.0372 0,-0.0487 0.0229,-0.0229 0.0683,0.0145 0.0973,0 0.041,-0.0205 0.0563,-0.0768 0.0973,-0.0973 0.0287,-0.0144 0.17848,-0.0812 0.19463,-0.0973 0.10067,-0.10067 -0.15384,0.004 0.0487,-0.0973 0.029,-0.0145 0.0744,0.0229 0.0973,0 0.0115,-0.0115 -0.0115,-0.0372 0,-0.0487 0.0282,-0.0282 0.16643,-0.0691 0.19463,-0.0973 0.0243,-0.0243 0.0243,-0.073 0.0486,-0.0973 0.0229,-0.0229 0.0744,0.0229 0.0973,0 0.0162,-0.0162 0.0324,-0.12975 0.0487,-0.14597 0.0418,-0.0418 0.15929,-0.0266 0.19462,-0.0973 0.0147,-0.0295 0.0283,-0.12558 0.0487,-0.14597 0.10067,-0.10067 -0.004,0.15384 0.0973,-0.0487 0.0148,-0.0295 0.0283,-0.12558 0.0487,-0.14597 0.0243,-0.0243 0.073,-0.0243 0.0973,-0.0487 0.0229,-0.0229 -0.0229,-0.0744 0,-0.0973 0.0115,-0.0115 0.0372,0.0115 0.0487,0 0.0225,-0.0225 -0.0147,-0.11659 0,-0.14597 0.0103,-0.0205 0.0384,-0.0281 0.0487,-0.0487 0.0195,-0.0389 -0.0195,-0.10705 0,-0.14597 0.0493,-0.0985 0.0973,-0.14249 0.0973,-0.24328"
       id="path31" /><path
       style="fill:#ac3b61"
       d="m -296.49924,591.43441 c 0.0487,-0.0649 0.21084,-0.14597 0.14597,-0.19463 -0.0649,-0.0486 -0.18223,0.26716 -0.14597,0.19463 0.0785,-0.15691 0.13503,-0.35945 0.29194,-0.43791 0.0145,-0.007 0.0372,0.0115 0.0487,0 0.0282,-0.0282 0.0691,-0.16642 0.0973,-0.19462 0.10068,-0.10067 -0.004,0.15384 0.0973,-0.0487 0.007,-0.0145 -0.0115,-0.0372 0,-0.0486 0.0162,-0.0162 0.12975,-0.0324 0.14596,-0.0487 0.0115,-0.0115 -0.0115,-0.0372 0,-0.0487 0.0229,-0.0229 0.0683,0.0145 0.0973,0 0.20249,-0.10125 -0.052,0.003 0.0487,-0.0973 0.0649,-0.0649 0.0487,0.0811 0.0487,-0.0487"
       id="path32" /><path
       style="fill:#ac3b61"
       d="m -296.45058,591.3371 c 0.0487,-0.0649 0.21084,-0.14597 0.14596,-0.19463 -0.0649,-0.0487 -0.2155,0.23635 -0.14596,0.19463 0.12975,-0.11353 0.2595,-0.22707 0.38924,-0.3406 0,-0.0162 -0.0115,-0.0372 0,-0.0486 0.0405,-0.0406 0.15408,-0.008 0.19463,-0.0487 0.0243,-0.0243 0.0243,-0.073 0.0487,-0.0973 0.0229,-0.0229 0.0744,0.0229 0.0973,0 0.0243,-0.0243 0.0243,-0.073 0.0487,-0.0973 0.0256,-0.0256 0.0717,-0.023 0.0973,-0.0487"
       id="path33" /><path
       style="fill:#ac3b61"
       d="m -297.13177,591.87231 c -0.0162,-0.0649 0.0162,-0.21084 -0.0487,-0.19462 -0.0649,0.0162 0.0487,0.26149 0.0487,0.19462 -0.13194,-1.0556 -0.127,-0.18389 0,-0.4379 0.0145,-0.029 -0.0229,-0.0744 0,-0.0973 0.10068,-0.10068 -0.004,0.15383 0.0973,-0.0487 0.0251,-0.0502 0.0286,-0.11163 0.0973,-0.14597 0.0753,-0.0377 0.0701,0.0272 0.14597,-0.0487"
       id="path34" /><path
       style="fill:#ac3b61"
       d="m -296.49924,591.48306 c -0.0649,0.0487 -0.24328,0.0811 -0.19462,0.14597 0.0487,0.0649 0.2595,-0.19462 0.19462,-0.14597 -0.12975,0.0973 -0.26122,0.19237 -0.38925,0.29194 -0.0181,0.0141 -0.0281,0.0384 -0.0487,0.0487 -0.0145,0.007 -0.0487,-0.0162 -0.0487,0 0,0.0844 0.0894,-0.13805 0.0973,-0.14596 0.0115,-0.0115 0.0341,0.007 0.0487,0 0.11695,-0.0585 0.22706,-0.12975 0.34059,-0.19463 z"
       id="path35" /><path
       style="fill:#ac3b61"
       d="m -296.54789,591.28844 c -0.0649,0.0324 -0.22707,0.0324 -0.19463,0.0973 0.0324,0.0649 0.24591,-0.1486 0.19463,-0.0973 -0.0922,0.0922 -0.58388,0.4334 -0.58388,0.53521"
       id="path36" /><path
       style="fill:#ac3b61"
       d="m -294.35838,589.29355 c 0.0649,-0.0487 0.24328,-0.0811 0.19462,-0.14597 -0.0487,-0.0649 -0.24528,0.20929 -0.19462,0.14597 0.11463,-0.14329 0.26734,-0.2521 0.38925,-0.38925 0.0108,-0.0121 -0.0115,-0.0372 0,-0.0487 0.0115,-0.0115 0.0372,0.0115 0.0487,0 0.0162,-0.0162 0.0324,-0.12974 0.0487,-0.14596 0.0243,-0.0243 0.073,-0.0243 0.0973,-0.0487 0.0548,-0.0548 -0.0747,-0.14597 0.0487,-0.14597"
       id="path37" /><path
       style="fill:#ac3b61"
       d="m -294.45569,589.05027 c 0.0649,-0.0324 0.22706,-0.0324 0.19462,-0.0973 -0.0324,-0.0649 -0.2595,0.12975 -0.19462,0.0973 0.12975,-0.0649 0.25669,-0.13571 0.38925,-0.19463 0.0148,-0.007 0.0372,0.0115 0.0487,0 0.0115,-0.0115 -0.0115,-0.0372 0,-0.0486 0.0115,-0.0115 0.0372,0.0115 0.0487,0 0.0115,-0.0115 -0.0115,-0.0372 0,-0.0487 0.0162,-0.0162 0.12975,-0.0324 0.14597,-0.0487 0.0233,-0.0234 0.0672,-0.16447 0.0973,-0.19463 0.0264,-0.0264 0.0936,-0.0449 0.14597,-0.0973"
       id="path38" /><path
       style="fill:#ac3b61"
       d="m -295.62343,590.5586 c -0.7037,0.28252 0.85225,-0.42613 -0.38925,0.19462 -0.11346,0.0567 -0.15763,0.1518 -0.24328,0.19463 -0.0231,0.0115 -0.24023,0.14292 -0.24328,0.14597 -0.0115,0.0115 0.0115,0.0372 0,0.0487 -0.18989,0.18989 -0.0261,-0.0113 -0.14597,0.0487 -0.20249,0.10125 0.052,-0.003 -0.0487,0.0973 -0.0282,0.0282 -0.16643,0.0691 -0.19463,0.0973 -0.0115,0.0115 0.0115,0.0372 0,0.0487 -0.10067,0.10067 0.004,-0.15384 -0.0973,0.0486 -0.007,0.0145 0.0115,0.0372 0,0.0487 -0.0162,0.0162 -0.0649,0.0324 -0.0486,0.0487 0.01,0.01 0.23341,0.01 0.24328,0 0.10067,-0.10068 -0.15384,0.004 0.0487,-0.0973 0.0287,-0.0144 0.17849,-0.0812 0.19463,-0.0973 0.0115,-0.0115 -0.0115,-0.0372 0,-0.0487 0.0115,-0.0115 0.0341,0.007 0.0486,0 0.041,-0.0205 0.0563,-0.0768 0.0973,-0.0973 0.0485,-0.0242 0.2645,-0.11852 0.29194,-0.14596 0.0115,-0.0115 -0.0115,-0.0372 0,-0.0487 0.0229,-0.0229 0.0744,0.0229 0.0973,0 0.0115,-0.0115 -0.0115,-0.0372 0,-0.0487 0.0368,-0.0368 0.0973,-0.0211 0.0973,-0.0973"
       id="path39" /></g></svg>
