<?xml version="1.0" encoding="UTF-8" standalone="no"?>
<!-- Created with Inkscape (http://www.inkscape.org/) -->

<svg
   width="196.959mm"
   height="62.412998mm"
   viewBox="0 0 196.95901 62.412998"
   version="1.1"
   id="svg1"
   xml:space="preserve"
   sodipodi:docname="researchbackground.svg"
   inkscape:version="1.4.3 (0d15f75, 2025-12-25)"
   xmlns:inkscape="http://www.inkscape.org/namespaces/inkscape"
   xmlns:sodipodi="http://sodipodi.sourceforge.net/DTD/sodipodi-0.dtd"
   xmlns="http://www.w3.org/2000/svg"
   xmlns:svg="http://www.w3.org/2000/svg"><sodipodi:namedview
     id="namedview1"
     pagecolor="#ffffff"
     bordercolor="#000000"
     borderopacity="0.25"
     inkscape:showpageshadow="2"
     inkscape:pageopacity="0.0"
     inkscape:pagecheckerboard="0"
     inkscape:deskcolor="#d1d1d1"
     inkscape:document-units="mm"
     inkscape:zoom="1.2845308"
     inkscape:cx="391.19343"
     inkscape:cy="142.85372"
     inkscape:window-width="1317"
     inkscape:window-height="976"
     inkscape:window-x="287"
     inkscape:window-y="64"
     inkscape:window-maximized="0"
     inkscape:current-layer="layer1" /><defs
     id="defs1" /><g
     id="layer1"
     transform="translate(-13.269191,-107.60626)"><text
       xml:space="preserve"
       style="font-style:normal;font-variant:normal;font-weight:bold;font-stretch:normal;font-size:4.23333px;line-height:4.37444px;font-family:Georgia;-inkscape-font-specification:'Georgia Bold';text-align:center;writing-mode:lr-tb;direction:ltr;text-anchor:middle;fill:#ac3b61;fill-opacity:1;stroke-width:0.264582"
       x="45.40472"
       y="118.83725"
       id="text16"><tspan
         style="font-style:normal;font-variant:normal;font-weight:bold;font-stretch:normal;font-size:4.23333px;line-height:4.37444px;font-family:Georgia;-inkscape-font-specification:'Georgia Bold';fill:#ac3b61;fill-opacity:1;stroke-width:0.264582"
         x="45.40472"
         y="118.83725"
         id="tspan19">Philosophy &amp; Social Theory</tspan></text><text
       xml:space="preserve"
       style="font-style:normal;font-variant:normal;font-weight:bold;font-stretch:normal;font-size:4.23333px;line-height:4.37444px;font-family:Georgia;-inkscape-font-specification:'Georgia Bold';text-align:center;writing-mode:lr-tb;direction:ltr;text-anchor:middle;fill:#ac3b61;fill-opacity:1;stroke-width:0.264582"
       x="110.91814"
       y="118.86802"
       id="text16-3"><tspan
         style="font-style:normal;font-variant:normal;font-weight:bold;font-stretch:normal;font-size:4.23333px;line-height:4.37444px;font-family:Georgia;-inkscape-font-specification:'Georgia Bold';fill:#ac3b61;fill-opacity:1;stroke-width:0.264582"
         x="110.91814"
         y="118.86802"
         id="tspan19-6">Reflexive Methods</tspan></text><text
       xml:space="preserve"
       style="font-size:3.52778px;line-height:4.5376px;text-align:center;writing-mode:lr-tb;direction:ltr;text-anchor:middle;fill:#9f9f9f;fill-opacity:1;stroke-width:0.264583"
       x="45.268539"
       y="124.49709"
       id="text23"><tspan
         id="tspan23"
         style="font-size:3.52778px;line-height:4.5376px;fill:#9f9f9f;fill-opacity:1;stroke-width:0.264583"
         x="45.268539"
         y="124.49709">epistemology · ethnography</tspan><tspan
         style="font-size:3.52778px;line-height:4.5376px;fill:#9f9f9f;fill-opacity:1;stroke-width:0.264583"
         x="45.268539"
         y="128.12717"
         id="tspan24">inductive reasoning</tspan><tspan
         style="font-size:3.52778px;line-height:4.5376px;fill:#9f9f9f;fill-opacity:1;stroke-width:0.264583"
         x="45.268539"
         y="131.75725"
         id="tspan25">interpretive methods</tspan></text><text
       xml:space="preserve"
       style="font-size:3.52778px;line-height:4.54px;text-align:center;writing-mode:lr-tb;direction:ltr;text-anchor:middle;fill:#9f9f9f;fill-opacity:1;stroke-width:0.264583"
       x="111.18568"
       y="124.40876"
       id="text23-9"><tspan
         style="font-size:3.52778px;fill:#9f9f9f;fill-opacity:1;stroke-width:0.264583"
         x="111.18568"
         y="124.40876"
         id="tspan25-5">action research</tspan><tspan
         style="font-size:3.52778px;fill:#9f9f9f;fill-opacity:1;stroke-width:0.264583"
         x="111.18568"
         y="128.03883"
         id="tspan27">participatory design</tspan><tspan
         style="font-size:3.52778px;fill:#9f9f9f;fill-opacity:1;stroke-width:0.264583"
         x="111.18568"
         y="131.66891"
         id="tspan28">qualitative methods</tspan></text><text
       xml:space="preserve"
       style="font-style:normal;font-variant:normal;font-weight:bold;font-stretch:normal;font-size:4.23333px;line-height:4.37444px;font-family:Georgia;-inkscape-font-specification:'Georgia Bold';text-align:center;writing-mode:lr-tb;direction:ltr;text-anchor:middle;fill:#ac3b61;fill-opacity:1;stroke-width:0.264582"
       x="174.18489"
       y="118.69572"
       id="text16-3-8"><tspan
         style="font-style:normal;font-variant:normal;font-weight:bold;font-stretch:normal;font-size:4.23333px;line-height:4.37444px;font-family:Georgia;-inkscape-font-specification:'Georgia Bold';fill:#ac3b61;fill-opacity:1;stroke-width:0.264582"
         x="174.18489"
         y="118.69572"
         id="tspan19-6-3">Sociotechnical Systems Design</tspan></text><text
       xml:space="preserve"
       style="font-size:3.52778px;line-height:4.5376px;text-align:center;writing-mode:lr-tb;direction:ltr;text-anchor:middle;fill:#9f9f9f;fill-opacity:1;stroke-width:0.264583"
       x="174.18416"
       y="124.09119"
       id="text23-9-6"><tspan
         style="font-size:3.52778px;line-height:4.5376px;fill:#9f9f9f;fill-opacity:1;stroke-width:0.264583"
         x="174.18416"
         y="124.09119"
         id="tspan25-5-4">responsible technologies</tspan><tspan
         style="font-size:3.52778px;line-height:4.5376px;fill:#9f9f9f;fill-opacity:1;stroke-width:0.264583"
         x="174.18416"
         y="127.72128"
         id="tspan30">community-centred design</tspan><tspan
         style="font-size:3.52778px;line-height:4.5376px;fill:#9f9f9f;fill-opacity:1;stroke-width:0.264583"
         x="174.18416"
         y="131.35135"
         id="tspan31">capacity building</tspan></text><text
       xml:space="preserve"
       style="font-style:normal;font-variant:normal;font-weight:normal;font-stretch:normal;font-size:4.23333px;line-height:4.37444px;font-family:Chalkduster;-inkscape-font-specification:Chalkduster;text-align:center;writing-mode:lr-tb;direction:ltr;text-anchor:middle;fill:#858585;fill-opacity:1;stroke-width:0.264582"
       x="113.61623"
       y="156.86414"
       id="text16-8"><tspan
         style="font-style:normal;font-variant:normal;font-weight:normal;font-stretch:normal;font-size:4.23333px;line-height:4.37444px;font-family:Chalkduster;-inkscape-font-specification:Chalkduster;fill:#858585;fill-opacity:1;stroke-width:0.264582"
         x="113.61623"
         y="156.86414"
         id="tspan19-5">Human-Computer Interaction Researcher</tspan></text></g><g
     id="g1"
     transform="matrix(0.26458332,0,0,0.26458334,214.1392,-111.31044)"><path
       id="path3"
       style="opacity:0.6;fill:#4a7c59;fill-opacity:1;fill-rule:nonzero;stroke:none;stroke-width:0.00422551"
       d="m -534.60065,433.97929 c -0.007,0.0197 -0.0142,0.0396 -0.0198,0.0605 -0.0865,0.32612 0.10454,0.66153 0.42579,0.7488 0.8509,0.23287 1.7119,0.48633 2.55905,0.75329 0.0596,0.0187 0.11974,0.0269 0.17886,0.0269 0.25667,0 0.49383,-0.16753 0.57393,-0.4298 0.008,-0.0265 0.014,-0.0528 0.0187,-0.0795 -0.0461,-0.01 -0.0914,-0.0209 -0.13718,-0.0324 -0.1042,-0.029 -0.21151,-0.0388 -0.31713,-0.0605 -0.10823,-0.0262 -0.21609,-0.0522 -0.31934,-0.0951 -0.0479,-0.0195 -0.0971,-0.0293 -0.14815,-0.0358 -0.0955,-0.0169 -0.18723,-0.0509 -0.28311,-0.0661 -0.0937,-0.007 -0.1824,-0.042 -0.27434,-0.0571 -0.13677,-0.0223 -0.27193,-0.0541 -0.40603,-0.0896 -0.13237,-0.0437 -0.265,-0.0903 -0.39506,-0.14102 -0.0998,-0.0417 -0.20602,-0.0594 -0.30944,-0.0884 -0.11267,-0.0258 -0.21778,-0.0753 -0.32703,-0.11192 -0.10663,-0.0477 -0.21404,-0.0931 -0.32152,-0.1388 -0.0893,-0.0394 -0.18111,-0.0738 -0.27544,-0.0985 -0.0771,-0.0121 -0.14882,-0.0414 -0.22277,-0.0649 z" /><path
       id="path4"
       style="opacity:0.6;fill:#4a7c59;fill-opacity:1;fill-rule:nonzero;stroke:none;stroke-width:0.00422551"
       d="m -548.03901,431.8392 c -0.17898,1.5e-4 -0.35764,4.3e-4 -0.53662,8.4e-4 -0.2173,0 -0.43454,0.002 -0.65183,0.005 -0.21782,0.004 -0.43561,0.006 -0.65293,0.0235 -0.23788,0.0182 -0.47561,0.0447 -0.71439,0.0426 -0.22512,2e-5 -0.45086,-1.1e-4 -0.67598,0 -0.23956,1.3e-4 -0.47922,3.7e-4 -0.71877,8.3e-4 -0.21061,0 -0.42039,-7e-5 -0.63099,0.004 -0.24183,0.005 -0.48392,0.009 -0.72535,0.0247 -0.25919,0.0162 -0.51816,0.0443 -0.77805,0.0426 -0.27803,0 -0.55597,1.6e-4 -0.83399,0.002 -0.31496,0.002 -0.63,0.003 -0.94484,0.0146 -0.32057,0.0111 -0.64121,0.0276 -0.96129,0.0492 -0.26704,0.0108 -0.53391,0.006 -0.80108,0.0146 -0.21894,0.007 -0.43823,0.0206 -0.65621,0.0436 -0.28844,0.0299 -0.57629,0.0689 -0.86584,0.0862 -0.1807,0.0152 -0.36152,0.0247 -0.5421,0.0381 -0.006,0.0446 -0.006,0.0912 8.3e-4,0.13767 0.0387,0.33549 0.33757,0.57574 0.66828,0.53614 v -8.4e-4 c 6.96324,-0.83017 14.00338,-0.51513 20.9268,0.93462 0.0412,0.009 0.0826,0.0134 0.1229,0.0134 0.27972,0 0.53057,-0.19894 0.58928,-0.48802 0.007,-0.0326 0.0107,-0.0651 0.0121,-0.0974 -0.0885,-0.0137 -0.17756,-0.0237 -0.26666,-0.0324 -0.0975,-0.007 -0.19626,-0.0113 -0.2941,-0.0134 -0.11043,-0.0103 -0.21726,-0.0396 -0.327,-0.0548 -0.0837,-0.0108 -0.16821,-0.0147 -0.25241,-0.0168 -0.12556,-0.0147 -0.25007,-0.0401 -0.372,-0.0739 -0.0682,-0.0199 -0.13489,-0.0474 -0.20521,-0.0582 -0.10928,-0.0309 -0.21901,-0.0598 -0.32702,-0.0951 -0.12791,-0.0309 -0.25169,-0.0734 -0.3753,-0.11864 -0.11567,-0.0431 -0.23896,-0.0575 -0.35883,-0.0828 -0.1339,-0.0311 -0.26891,-0.0533 -0.40164,-0.0895 -0.13442,-0.0392 -0.26244,-0.0979 -0.39615,-0.13879 -0.13619,-0.0427 -0.27261,-0.0863 -0.40822,-0.13096 -0.14518,-0.0621 -0.29815,-0.0999 -0.44992,-0.14103 -0.0251,-0.007 -0.0496,-0.0148 -0.0746,-0.0224 h -0.21728 -0.53222 -0.40054 -0.27873 -0.31714 -0.34788 c -0.14437,0.002 -0.28829,0.004 -0.43235,-0.007 -0.18744,-0.0164 -0.37283,-0.0453 -0.55856,-0.075 -0.17534,-0.0348 -0.34854,-0.0815 -0.52125,-0.1276 -0.12896,-0.0345 -0.22749,-0.0878 -0.29739,-0.14999 h -0.56076 -0.64854 c -0.17626,0 -0.35266,-2e-5 -0.52892,0 -0.15984,3e-5 -0.31971,-8e-5 -0.47956,0 z" /><path
       id="path5"
       style="opacity:0.6;fill:#4a7c59;fill-opacity:1;fill-rule:nonzero;stroke:none;stroke-width:0.00422551"
       d="m -526.53501,430.70088 c -0.32529,0.0119 -0.6511,0.11794 -0.93495,0.3246 0.019,0.0202 0.0384,0.0411 0.0571,0.0616 0.0728,0.0844 0.1385,0.17358 0.2052,0.26304 0.0423,0.0609 0.0795,0.11078 0.13058,0.17013 0.0518,0.0732 0.0963,0.15155 0.13719,0.23169 0.0289,0.047 0.0576,0.0978 0.091,0.14215 0.0428,0.077 0.0815,0.15548 0.12399,0.23282 0.006,0.0124 0.0128,0.0281 0.0208,0.0447 0.0407,0.0571 0.0824,0.11302 0.1262,0.16789 0.0948,0.11674 0.18506,0.23634 0.27763,0.35481 0.0654,0.0804 0.13191,0.16019 0.19314,0.24401 0.0584,0.0867 0.12193,0.17007 0.18545,0.25296 0.062,0.04 0.12446,0.0967 0.18545,0.17237 0.0388,0.0479 0.0806,0.0928 0.11743,0.14215 0.008,0.0105 0.0176,0.0207 0.0263,0.0313 0.009,0.007 0.0191,0.0157 0.0285,0.0235 0.13834,0.10496 0.24741,0.24306 0.35993,0.37497 0.10568,0.13702 0.20169,0.28083 0.28861,0.43093 0.0448,0.0804 0.0916,0.15978 0.13937,0.2384 0.0643,0.0807 0.12214,0.16593 0.18106,0.25072 0.0584,0.0923 0.11816,0.1837 0.17888,0.27423 0.0139,0.0222 0.0277,0.0449 0.0417,0.0671 0.0218,-0.0138 0.0447,-0.0286 0.0681,-0.0437 0.0229,0.0376 0.0433,0.0754 0.0625,0.11305 0.0356,0.037 0.0745,0.11216 0.14485,0.23169 0.0392,0.0646 0.0789,0.12921 0.11851,0.19364 0.0164,0.0187 0.0327,0.0373 0.0494,0.0559 0.10422,0.11816 0.2062,0.23861 0.31605,0.35146 0.12314,0.14168 0.24679,0.28342 0.37089,0.42421 0.10297,0.12627 0.21384,0.2449 0.32373,0.36489 0.10352,0.10923 0.19852,0.22576 0.28532,0.34922 0.0786,0.0991 0.15317,0.20055 0.23923,0.29325 0.0513,0.0721 0.12505,0.12971 0.19204,0.18581 0.0997,0.0706 0.20875,0.12935 0.29738,0.2149 0.0738,0.0716 0.14995,0.14112 0.21948,0.21714 0.0592,0.0725 0.12326,0.15902 0.15912,0.23505 0.0382,0.0613 0.0785,0.12083 0.12071,0.17909 0.0471,0.067 0.0888,0.13761 0.13827,0.20259 0.0627,0.0849 0.11562,0.17701 0.18654,0.2552 0.0648,0.0769 0.12763,0.15542 0.18656,0.23729 0.0662,0.0765 0.0825,0.10823 0.14925,0.1914 0.0409,0.0606 0.079,0.12241 0.11192,0.18804 0.0346,0.0589 0.0522,0.0961 0.11742,0.17013 0.0326,0.0635 0.0831,0.11891 0.11962,0.18021 0.0689,0.0967 0.12519,0.19886 0.17338,0.3078 -0.006,-0.004 -0.007,-0.008 -0.01,-0.009 l -8.1e-4,-8.4e-4 h -8.3e-4 v 8.4e-4 c 0.007,0.017 0.0834,0.11749 0.11742,0.17013 0.007,0.0119 0.0147,0.0251 0.022,0.0381 0.0423,0.0712 0.0805,0.14496 0.12291,0.21603 0.0723,0.0331 0.148,0.087 0.22275,0.16678 0.0541,0.0578 0.11778,0.10713 0.1657,0.17124 0.0899,0.10408 0.18157,0.20825 0.25789,0.32348 0.067,0.10125 0.10582,0.19551 0.1229,0.27871 0.0284,0.0228 0.0578,0.0481 0.0868,0.0772 0.11352,0.11395 0.18705,0.26194 0.29188,0.38281 0.008,0.009 0.0175,0.0205 0.0264,0.0291 0.47799,0.51662 -0.0325,1.01126 -0.50369,0.51599 -0.047,0.19033 -0.11701,0.30894 -0.27546,0.075 -0.0549,-0.0812 -0.0496,-0.0802 -0.10643,-0.1567 -0.0131,-0.0192 -0.0745,-0.0965 -0.0791,-0.10857 v -8.3e-4 c -0.0499,-0.0506 -0.0998,-0.10214 -0.15144,-0.1511 -0.0366,-0.0337 -0.0744,-0.0651 -0.11302,-0.0963 -0.007,-0.004 -0.0131,-0.008 -0.0165,-0.0101 -0.0967,-0.0682 -0.18276,-0.14935 -0.26226,-0.23729 -0.0508,-0.0624 -0.10615,-0.12516 -0.1712,-0.17238 -0.0987,-0.0572 -0.1671,-0.15176 -0.25239,-0.22497 -0.0756,-0.067 -0.1462,-0.14098 -0.23374,-0.19252 -0.0269,-0.0163 -0.0527,-0.0346 -0.078,-0.0537 -0.0846,0.01 -0.16938,0.0141 -0.25568,0.0101 -0.10298,-0.008 -0.20547,-0.0231 -0.30617,-0.0459 -0.11699,-0.0286 -0.20454,-0.11385 -0.30726,-0.17125 -0.10647,-0.0535 -0.1995,-0.13076 -0.30177,-0.1914 -0.11164,-0.0686 -0.22459,-0.13275 -0.32922,-0.21267 -0.0946,-0.0713 -0.1913,-0.1375 -0.28532,-0.2093 -0.0345,-0.009 -0.0689,-0.0192 -0.10314,-0.0292 -0.27221,-0.0795 -0.40392,-0.23904 -0.4203,-0.38951 v -8.4e-4 h -8.2e-4 l -8.3e-4,-8.3e-4 c -6.60288,-2.85982 -13.37004,-4.69219 -20.18277,-5.46102 -6.84039,-0.77189 -13.73818,-0.47829 -20.50101,0.87305 -6.01848,1.20228 -10.81687,3.0387 -13.78293,4.36747 -3.24315,1.45267 -5.05362,2.62163 -5.1291,2.67063 -0.57114,0.37083 -0.81219,1.06775 -0.63868,1.69797 0.0316,-0.021 0.0667,-0.0407 0.10536,-0.0593 0.0504,-0.024 0.0953,-0.06 0.14705,-0.0817 0.0674,-0.0344 0.13449,-0.0718 0.19534,-0.11753 0.0724,-0.052 0.15582,-0.11486 0.22275,-0.15557 0.0734,-0.0509 0.14725,-0.0993 0.22496,-0.14328 0.0517,-0.0271 0.101,-0.0645 0.15583,-0.0862 0.0773,-0.0509 0.15729,-0.0968 0.23594,-0.14551 0.10501,-0.0567 0.20861,-0.12063 0.32592,-0.14663 0.0988,-0.0299 0.19598,-0.0645 0.29628,-0.0884 0.0819,-0.0574 0.16864,-0.10602 0.2546,-0.1567 v -8.3e-4 -8.4e-4 -8.3e-4 l 8.1e-4,-8.3e-4 c 0.0237,-0.0225 0.18965,-0.0771 0.2096,-0.0907 l 8.1e-4,-8.3e-4 v -8.4e-4 -8.3e-4 c 0.0507,-0.0483 0.13044,-0.0877 0.19644,-0.12536 0.0769,-0.0451 0.16529,-0.0725 0.23703,-0.12648 0.10293,-0.0771 0.22883,-0.11533 0.33251,-0.19028 0.11188,-0.0778 0.22716,-0.14924 0.34676,-0.21378 0.14868,-0.0717 0.29607,-0.14549 0.44992,-0.20483 0.15292,-0.0652 0.31014,-0.11786 0.47187,-0.15446 0.10351,-0.0416 0.21531,-0.0536 0.32043,-0.0884 0.11049,-0.0282 0.21805,-0.0651 0.32703,-0.0985 0.13505,-0.0333 0.26865,-0.0715 0.40491,-0.0996 0.10438,-0.0347 0.21382,-0.051 0.32044,-0.0761 0.0498,-0.0321 0.0967,-0.07 0.15034,-0.094 0.0614,-0.0318 0.12196,-0.0647 0.18216,-0.0985 0.0888,-0.0637 0.18168,-0.11999 0.27654,-0.17349 0.102,-0.0544 0.20618,-0.10382 0.30616,-0.1623 0.0628,-0.0318 0.12666,-0.0617 0.18546,-0.10073 0.097,-0.0754 0.19857,-0.14158 0.30725,-0.19812 0.10093,-0.062 0.20793,-0.11511 0.30069,-0.19027 0.11526,-0.0715 0.2253,-0.14954 0.34348,-0.21603 0.11742,-0.0751 0.23954,-0.14353 0.36103,-0.21154 0.0825,-0.0379 0.1608,-0.0825 0.24142,-0.12425 0.10506,-0.0506 0.21565,-0.0873 0.32481,-0.1276 0.0987,-0.0267 0.1954,-0.0599 0.29631,-0.0772 0.12275,-0.0312 0.24546,-0.0633 0.3698,-0.0873 0.13889,-0.0375 0.27564,-0.0834 0.41481,-0.11977 0.0457,-0.0142 0.0912,-0.0274 0.13716,-0.0403 -0.005,-0.0785 -0.007,-0.15695 -0.01,-0.23505 -3e-5,-5.7e-4 3e-5,-0.002 0,-0.002 v -8.4e-4 -8.3e-4 -8.3e-4 -8.4e-4 h 8.2e-4 v -8.3e-4 l 8.2e-4,-8.3e-4 v -8.4e-4 l 8.2e-4,-8.3e-4 h 8.2e-4 l 8.2e-4,-0.004 c 0.0146,-0.008 0.0488,-0.002 0.067,-0.007 0.18229,-0.0409 0.35788,-0.1111 0.54651,-0.11976 0.2028,-0.006 0.40552,-0.015 0.60794,-0.0291 0.27664,-0.0652 0.55281,-0.13231 0.8296,-0.197 0.0122,-0.16249 0.15918,-0.34206 0.4587,-0.42197 0.17576,-0.0467 0.35126,-0.0937 0.52782,-0.13767 0.22669,-0.0631 0.45705,-0.11233 0.68477,-0.17126 0.16096,-0.0377 0.32164,-0.0746 0.47955,-0.12424 0.15626,-0.0416 0.3113,-0.086 0.46747,-0.1276 0.14609,-0.0386 0.29365,-0.0745 0.44005,-0.11193 0.1595,-0.0392 0.31609,-0.0867 0.47626,-0.12311 0.15643,-0.0416 0.31393,-0.077 0.46857,-0.12536 0.19139,-0.06 0.38998,-0.0926 0.5849,-0.13768 0.15821,-0.0301 0.31225,-0.0748 0.46967,-0.10857 0.15123,-0.0372 0.30114,-0.0792 0.45212,-0.11753 0.18283,-0.0344 0.36552,-0.0736 0.5487,-0.10633 0.16366,-0.0173 0.32401,-0.052 0.48611,-0.0795 0.15026,-0.0333 0.29965,-0.0711 0.44662,-0.11752 0.16287,-0.0678 0.32703,-0.13152 0.49603,-0.18133 0.21378,-0.06 0.43483,-0.0801 0.65512,-0.0974 0.12517,-0.009 0.25,-0.0137 0.37531,-0.0168 0.12081,-0.0249 0.24171,-0.0522 0.36213,-0.0784 0.11124,-0.0162 0.21776,-0.0422 0.32591,-0.0716 0.11216,-0.0273 0.2225,-0.063 0.33469,-0.0907 0.12094,-0.0284 0.24405,-0.0394 0.36763,-0.0459 0.11463,0.002 0.22683,-0.0151 0.34018,-0.0302 0.18309,-0.0234 0.36763,-0.0338 0.55197,-0.0403 0.0328,-8.3e-4 0.0659,-8.3e-4 0.0988,-0.002 0.0381,-0.009 0.076,-0.0175 0.11412,-0.0257 0.13601,-0.0199 0.26945,-0.0527 0.40494,-0.0761 0.13341,-0.0236 0.26883,-0.035 0.40383,-0.0436 0.13752,-0.004 0.2737,-0.007 0.41041,-0.0224 0.16842,-0.0219 0.33475,-0.0564 0.5026,-0.0828 0.11047,-0.0108 0.21705,-0.0317 0.32482,-0.0571 0.12196,-0.0277 0.24458,-0.0545 0.36761,-0.0772 0.0434,-0.008 0.085,-0.0127 0.124,-0.0146 0.10638,-0.005 0.19558,0.0127 0.26668,0.0447 0.14845,-0.0272 0.2965,-0.0596 0.44661,-0.0761 0.15321,-0.0201 0.30556,-0.0218 0.45981,-0.0224 0.16639,-0.005 0.33376,-0.0143 0.4982,-0.0426 0.22313,-0.0202 0.44525,-0.0333 0.66939,-0.0269 0.17692,0 0.35421,5.7e-4 0.53112,-0.002 0.16333,-0.002 0.3263,-0.007 0.48944,-0.0157 0.23259,-0.0119 0.46575,-0.0275 0.69791,-0.047 0.20498,-0.0108 0.40932,-0.005 0.61453,-0.006 h 0.62659 0.72099 0.58818 c 0.18705,0 0.37479,10e-6 0.56186,0 0.2106,-3e-5 0.42037,-0.007 0.63099,-0.007 0.18881,-1.3e-4 0.37743,5.7e-4 0.56622,0 0.22266,-0.002 0.44567,-0.002 0.6683,-0.007 0.19596,-0.005 0.39277,-0.01 0.58819,-0.0247 0.19638,-0.0169 0.39186,-0.0461 0.58929,-0.0447 0.18155,-0.002 0.36294,-0.006 0.54429,-0.0146 0.19684,-0.0111 0.39292,-0.0286 0.58929,-0.0459 0.24981,-0.013 0.49956,0.002 0.7495,0.007 0.24234,0.007 0.48472,0.0186 0.72646,0.0381 0.21813,0.0175 0.43608,0.0311 0.65514,0.0224 0.2043,2e-5 0.40911,-3.2e-4 0.61341,0.003 0.19064,0.002 0.38127,0.004 0.57174,0.0134 0.17338,0.009 0.3465,0.0214 0.51796,0.0504 0.1536,0.0234 0.30778,0.0252 0.46199,0.0426 0.11045,0.0158 0.21814,0.0452 0.32811,0.0582 0.16649,0.0191 0.33351,0.0437 0.49382,0.0951 0.16163,0.0565 0.32068,0.12221 0.47296,0.20148 0.0628,0.0312 0.1275,0.0595 0.19203,0.0873 0.026,-5.7e-4 0.0517,-8.3e-4 0.078,-8.3e-4 0.0417,-3.4e-4 0.0843,8e-5 0.12619,0 0.0363,-5e-5 0.0724,0 0.10864,0 0.0344,0 0.0686,1e-5 0.10315,0 h 0.1262 c 0.0555,-0.002 0.11013,-5.8e-4 0.16461,0.0123 0.0341,0.009 0.0691,0.0125 0.10425,0.0168 0.0359,0.002 0.0725,0.006 0.10863,0.007 0.0586,-0.005 0.11584,0.003 0.17339,0.0146 0.0573,0.0106 0.11298,0.0295 0.17009,0.0403 0.0593,0.0126 0.11849,0.0286 0.17668,0.0459 0.0523,0.0187 0.1063,0.0297 0.15911,0.047 0.0503,0.0137 0.0966,0.0376 0.14596,0.0548 0.0436,0.007 0.0862,0.0183 0.12839,0.0313 0.0408,0.0117 0.082,0.0182 0.12291,0.0291 0.0439,0.013 0.088,0.0241 0.13058,0.0414 0.0131,0.005 0.0256,0.0108 0.0384,0.0168 0.0353,0.007 0.071,0.013 0.10645,0.019 0.0931,0.008 0.18636,0.0187 0.27761,0.0403 0.0851,0.0182 0.17166,0.03 0.25241,0.0649 0.0738,0.0306 0.15168,0.0506 0.22496,0.0828 0.0745,0.0321 0.15106,0.0591 0.22715,0.0873 0.0738,0.0275 0.1468,0.0553 0.22057,0.0828 0.0599,0.0247 0.12039,0.0497 0.18327,0.0649 0.0683,0.0164 0.13571,0.0376 0.2041,0.0548 0.007,0.002 0.015,0.006 0.023,0.007 0.0399,0.004 0.0806,0.007 0.12071,0.007 0.0638,0.002 0.12716,0.005 0.19095,0.006 0.053,4.7e-4 0.1061,0.002 0.15913,0.002 0.0413,8e-5 0.0826,0 0.12398,0 0.052,-0.002 0.1029,-5.8e-4 0.15364,0.0123 0.0245,0.009 0.049,0.0147 0.0746,0.0168 0.0388,0.002 0.077,0.007 0.11524,0.0134 0.0389,0.0134 0.0782,0.0262 0.11632,0.0414 0.0213,0.009 0.0422,0.0124 0.0647,0.0168 0.0415,0.005 0.0819,0.009 0.1218,0.0224 0.0427,0.009 0.0834,0.0262 0.1251,0.0392 0.0458,0.008 0.0886,0.0262 0.13278,0.0392 0.0188,0.006 0.0112,0.005 0.0252,0.007 0.0786,0.0172 0.13424,0.0487 0.17009,0.0873 0.0295,0.002 0.0597,0.005 0.0889,0.009 0.0593,0.007 0.11709,0.0237 0.17667,0.0302 0.0652,0.009 0.12987,0.0222 0.18984,0.0504 0.0419,0.0184 0.0841,0.0376 0.1262,0.0548 0.056,0.0184 0.11119,0.0376 0.1668,0.0571 0.0486,0.0203 0.0975,0.0396 0.14816,0.0548 0.0711,0.0242 0.1401,0.0548 0.21069,0.0806 0.0576,0.0241 0.1164,0.0441 0.17668,0.0593 0.0734,0.0234 0.14403,0.0541 0.21508,0.084 0.0682,0.0288 0.13604,0.0569 0.20519,0.0828 0.0663,0.0249 0.13157,0.0555 0.19972,0.075 0.0753,0.0242 0.14942,0.0509 0.22497,0.0739 0.071,0.0227 0.1412,0.0486 0.21399,0.0638 0.0895,0.0182 0.18029,0.0308 0.26995,0.0481 0.0691,0.0173 0.13464,0.0432 0.20081,0.0694 0.0567,0.0217 0.11411,0.0397 0.17229,0.0571 0.0646,0.0191 0.13178,0.0297 0.19534,0.0526 0.0645,0.0223 0.12944,0.0409 0.19095,0.0716 0.0609,0.0245 0.12036,0.0521 0.18106,0.0772 0.057,0.0247 0.11706,0.0431 0.17666,0.0605 0.0579,0.018 0.11553,0.0342 0.17229,0.056 0.0592,0.015 0.11846,0.0293 0.17887,0.0381 0.0746,0.013 0.15274,0.005 0.22717,0.0224 0.066,0.0117 0.13013,0.0295 0.19644,0.0403 0.0615,0.0134 0.12253,0.0295 0.18434,0.0426 0.0615,0.0152 0.12358,0.0262 0.18546,0.0392 0.0626,0.0173 0.12467,0.0342 0.18655,0.0537 0.0567,0.0212 0.11312,0.0446 0.16899,0.0683 0.0513,0.018 0.10168,0.0383 0.15144,0.0605 0.0548,0.0184 0.10961,0.0387 0.1646,0.056 0.0486,0.0191 0.0988,0.0354 0.14705,0.0548 0.0577,0.0184 0.11415,0.0397 0.17229,0.0571 0.0666,0.0197 0.134,0.0346 0.19641,0.0671 0.0541,0.0212 0.10806,0.0443 0.16243,0.0638 0.0707,0.0219 0.14281,0.041 0.21399,0.0604 0.0807,0.0247 0.15986,0.0507 0.23593,0.0884 0.0275,0.0135 0.0552,0.0271 0.0823,0.0414 0.20025,0.0554 0.39967,0.11247 0.59586,0.18133 0.20831,0.0729 0.41589,0.14848 0.62331,0.22386 0.15323,0.0554 0.30896,0.10338 0.4609,0.1623 0.1401,0.0517 0.26572,0.13515 0.39616,0.20706 0.14127,0.0778 0.28025,0.15996 0.41809,0.24401 0.16198,0.10113 0.32341,0.2021 0.49052,0.29437 0.13993,0.0775 0.28001,0.15538 0.417,0.23841 0.0346,0.006 0.0711,0.0146 0.10863,0.0257 0.15055,0.0448 0.30245,0.0841 0.45103,0.13544 0.11738,0.0467 0.23763,0.0826 0.35554,0.12759 0.12261,0.0362 0.24033,0.0866 0.35335,0.14663 0.12058,0.072 0.23524,0.15318 0.35775,0.22162 0.12192,0.0712 0.23685,0.153 0.35554,0.22946 0.10956,0.0784 0.22894,0.13992 0.34128,0.21378 0.11076,0.0648 0.21698,0.13805 0.32372,0.20931 0.10395,0.0681 0.21216,0.12652 0.31166,0.20147 0.0732,0.0615 0.15429,0.1115 0.23265,0.16565 0.0903,0.057 0.17408,0.12325 0.26007,0.18693 0.0634,0.0438 0.12754,0.0918 0.19643,0.12647 0.10394,0.0377 0.20089,0.0965 0.29299,0.15782 0.0735,0.0502 0.15655,0.0788 0.23485,0.11978 0.033,0.0205 0.0666,0.0397 0.0999,0.0593 0.049,-0.0267 0.10822,-0.0431 0.17667,-0.0459 0.0923,-0.004 0.20058,0.0165 0.32151,0.0716 0.0512,0.0227 0.0317,0.0117 0.0614,0.0292 0.0969,0.0325 0.19632,0.065 0.293,0.10073 0.58907,0.21849 0.44844,0.76942 -0.056,0.72418 -0.2173,0.1457 -0.45673,0.2859 -0.17996,0.33244 -0.0637,-0.008 -0.12693,-0.0193 -0.18876,-0.0381 -0.0793,-0.0258 -0.0871,-0.036 -0.16679,-0.0403 -0.0836,-0.0119 -0.16682,-0.0252 -0.2491,-0.0447 h -0.33689 c -0.0814,0.0194 -0.16397,0.0336 -0.2469,0.0447 -0.0963,0.003 -0.18769,0.0176 -0.28094,0.0392 -0.0896,0.0102 -0.1731,0.0423 -0.25897,0.0683 -0.0337,0.01 -0.0683,0.0181 -0.10315,0.0247 -0.0408,0.0119 -0.0825,0.0201 -0.12511,0.0269 -0.0177,0.002 -0.0351,0.004 -0.0526,0.006 -0.0759,0.0287 -0.16111,0.0282 -0.23703,0.0548 -0.0819,0.0319 -0.17078,0.0389 -0.25239,0.0705 -0.0957,0.0444 -0.20204,0.0513 -0.30177,0.0795 -0.089,0.028 -0.17943,0.0498 -0.27105,0.0671 -0.0673,0.008 -0.13073,0.0353 -0.19643,0.0526 v 8.4e-4 h -8.2e-4 c -0.007,0.003 -0.0256,0.007 -0.0505,0.0123 -0.13927,0.15144 -0.31102,0.23637 -0.51685,0.26527 -0.18746,0.086 -0.38397,0.14754 -0.5794,0.21267 -0.17582,0.0583 -0.35307,0.11522 -0.52894,0.17349 -0.16996,0.0656 -0.34673,0.11179 -0.52345,0.15445 -0.19891,0.0546 -0.40147,0.0939 -0.60026,0.14888 -0.19584,0.0565 -0.39439,0.10067 -0.59147,0.15222 -0.21413,0.0472 -0.42562,0.10634 -0.63977,0.15334 -0.16807,0.033 -0.33442,0.0728 -0.5004,0.11529 -0.21496,0.0574 -0.42974,0.11504 -0.64416,0.1746 -0.25375,0.0708 -0.50796,0.1412 -0.76486,0.19924 -0.21058,0.0554 -0.42324,0.10096 -0.63428,0.15446 -0.2543,0.0691 -0.51255,0.11862 -0.77035,0.17126 -0.22878,0.0501 -0.46112,0.0893 -0.68805,0.14774 -0.16008,0.0392 -0.31885,0.0822 -0.47845,0.12312 -0.15766,0.0356 -0.31782,0.061 -0.47407,0.10297 -0.1462,0.0386 -0.29338,0.0725 -0.44113,0.1041 -0.12979,0.0234 -0.26144,0.0259 -0.39286,0.028 -0.01,1.7e-4 -0.0189,-1.7e-4 -0.0287,0 0.30154,0.53589 0.86813,0.8764 1.48474,0.8764 0.11572,0 0.23441,-0.0124 0.35225,-0.037 2.25286,-0.4764 4.50472,-0.95289 6.75759,-1.42933 1.30186,-0.27514 2.60453,-0.55061 3.90662,-0.82604 0.045,-0.14032 0.19374,-0.27633 0.45761,-0.33131 0.16445,-0.0342 0.32282,-0.0916 0.48174,-0.1455 0.1998,-0.0761 0.39182,-0.16961 0.58819,-0.25409 0.17382,-0.0656 0.35217,-0.11858 0.53223,-0.16342 0.12627,-0.0288 0.24473,-0.0789 0.35774,-0.14215 0.14997,-0.0788 0.2914,-0.17256 0.44114,-0.25184 0.16031,-0.0845 0.32997,-0.14411 0.5026,-0.19587 0.25255,-0.0843 0.50827,-0.1587 0.76596,-0.22499 0.0235,-0.007 0.0416,-0.0117 0.056,-0.0157 0.11195,-0.31146 0.13228,-0.64399 0.0658,-0.95923 -0.13361,-0.0119 -0.28194,-0.11128 -0.39177,-0.32907 -0.0222,-0.044 -0.0551,-0.0815 -0.0735,-0.1276 -0.0264,-0.0578 -0.0555,-0.0961 -0.0856,-0.15109 -0.0452,-0.0793 -0.0839,-0.16243 -0.13279,-0.23954 -0.0333,-0.0635 -0.0728,-0.12353 -0.11302,-0.18244 l 0.007,0.008 c -0.002,-0.003 -0.009,-0.0123 -0.0197,-0.0269 -0.0265,-0.0364 -0.0527,-0.0733 -0.078,-0.11081 -0.005,-0.004 -0.008,-0.0103 -0.0121,-0.0168 -0.0539,-0.0855 -0.10534,-0.17337 -0.15254,-0.26304 -0.0394,-0.1 -0.0972,-0.19293 -0.12292,-0.29885 -0.0227,-0.0864 -0.0532,-0.17102 -0.0756,-0.25743 -2.40699,-3.35002 -4.81449,-6.69931 -7.22179,-10.049 -0.34859,-0.48488 -0.89793,-0.73319 -1.4474,-0.713 z m 4.55519,9.06067 c -0.006,0.0182 -0.0128,0.0356 -0.0209,0.0526 0.0142,0.007 0.0287,0.0152 0.0428,0.0224 h 8.1e-4 v 8.3e-4 h 8.2e-4 8.3e-4 8.1e-4 l 8.2e-4,8.3e-4 h 8.2e-4 8.3e-4 v 8.4e-4 h 8.1e-4 c 0.016,0.009 0.0315,0.0181 0.0483,0.0257 0.011,0.005 0.0227,0.0105 0.0339,0.0146 -0.0374,-0.0397 -0.0751,-0.0794 -0.11303,-0.11865 z m -1.23345,2.9594 c 0.007,0.0161 0.0151,0.0328 0.022,0.0492 0.0107,-0.007 0.0209,-0.0124 0.0318,-0.0168 -0.0162,-0.01 -0.032,-0.0195 -0.0483,-0.0291 -0.002,-8.3e-4 -0.005,-0.002 -0.006,-0.003 z m -0.64965,0.61114 c 0.0134,0.0135 0.0255,0.0272 0.0361,0.0381 -0.0101,-0.0142 -0.024,-0.0318 -0.0361,-0.0381 z m 0.045,0.0224 c 0.006,0.017 0.008,0.0288 0.008,0.0336 v 8.3e-4 c 0.006,0.005 0.009,0.009 0.0131,0.0134 -0.006,-0.0186 -0.0128,-0.0307 -0.0176,-0.047 l -8.3e-4,8.3e-4 h -8.1e-4 l -8.2e-4,-8.3e-4 z m 0.76926,0.2843 c 8.2e-4,0.0253 0.003,0.0507 0.005,0.0761 0.007,-0.0171 0.0138,-0.035 0.0209,-0.0537 -0.007,-0.007 -0.0163,-0.015 -0.0241,-0.0224 z m 1.38487,0.0873 c 0.006,0.0124 0.008,0.0243 0.0121,0.037 0.0138,-0.002 0.0278,-0.002 0.0417,-0.004 -0.0175,-0.0117 -0.0356,-0.0222 -0.0538,-0.0324 z" /><path
       id="path3-9"
       style="opacity:1;fill:#4a7c59;fill-opacity:1;fill-rule:nonzero;stroke:none;stroke-width:0.00532292"
       d="m -307.54693,522.52012 c -0.009,-0.025 -0.0179,-0.0501 -0.0248,-0.0766 -0.10821,-0.4133 0.13091,-0.83839 0.53312,-0.94899 1.06545,-0.29512 2.14354,-0.61635 3.20428,-0.95467 0.0745,-0.0238 0.14992,-0.0341 0.22395,-0.0341 0.32137,0 0.61834,0.21232 0.71864,0.54471 0.0106,0.0336 0.0178,0.067 0.0234,0.10065 -0.0576,0.0127 -0.11448,0.0265 -0.17177,0.041 -0.13047,0.0367 -0.26484,0.0492 -0.39708,0.0766 -0.13552,0.0331 -0.27058,0.0662 -0.39985,0.12056 -0.06,0.0247 -0.12156,0.0372 -0.18549,0.0454 -0.11964,0.0214 -0.23445,0.0645 -0.35451,0.0837 -0.11729,0.008 -0.22838,0.0532 -0.34352,0.0723 -0.17124,0.0283 -0.34048,0.0684 -0.50839,0.11348 -0.16574,0.0555 -0.33182,0.11449 -0.49464,0.17873 -0.12493,0.0527 -0.25798,0.0752 -0.38749,0.11207 -0.14106,0.0327 -0.27267,0.0954 -0.40946,0.14185 -0.13353,0.0604 -0.26801,0.11797 -0.40261,0.17589 -0.11187,0.0499 -0.22676,0.0935 -0.34487,0.12482 -0.0966,0.0153 -0.18634,0.0524 -0.27894,0.0822 z" /><path
       id="path4-2"
       style="opacity:1;fill:#4a7c59;fill-opacity:1;fill-rule:nonzero;stroke:none;stroke-width:0.00532292"
       d="m -324.37346,525.23233 c -0.2241,-1.9e-4 -0.4478,-5.3e-4 -0.67191,-9.1e-4 -0.27208,0 -0.5441,-0.004 -0.81617,-0.006 -0.27274,-0.006 -0.54546,-0.007 -0.81756,-0.0297 -0.29784,-0.023 -0.59551,-0.0568 -0.89451,-0.0539 -0.28187,-4e-5 -0.56453,1.4e-4 -0.8464,0 -0.29998,-1.8e-4 -0.60004,-4.6e-4 -0.90001,-9.2e-4 -0.26369,0 -0.52638,10e-5 -0.79007,-0.006 -0.3028,-0.006 -0.60592,-0.0121 -0.90824,-0.0312 -0.32452,-0.0205 -0.64879,-0.0562 -0.97421,-0.0539 -0.34812,0 -0.69613,-2.2e-4 -1.04425,-0.004 -0.39436,-0.004 -0.78885,-0.005 -1.18306,-0.0185 -0.4014,-0.014 -0.80287,-0.0349 -1.20366,-0.0625 -0.33436,-0.0137 -0.66852,-0.007 -1.00305,-0.0185 -0.27415,-0.01 -0.54872,-0.0261 -0.82168,-0.0554 -0.36114,-0.0379 -0.72157,-0.0873 -1.08411,-0.10923 -0.22628,-0.0191 -0.45268,-0.0314 -0.67879,-0.0482 -0.007,-0.0567 -0.007,-0.11561 8.8e-4,-0.17448 0.0485,-0.42518 0.42268,-0.72966 0.83679,-0.67948 v 9.2e-4 c 8.71885,1.05212 17.53398,0.65285 26.20298,-1.18447 0.0515,-0.0109 0.10348,-0.017 0.15389,-0.017 0.35023,0 0.66436,0.25211 0.73786,0.61847 0.008,0.0415 0.0134,0.0826 0.0151,0.12341 -0.11081,0.0173 -0.22234,0.0302 -0.3339,0.041 -0.12212,0.008 -0.24574,0.0144 -0.36824,0.017 -0.13828,0.0132 -0.27204,0.0503 -0.40946,0.0694 -0.10477,0.0137 -0.21061,0.0185 -0.31603,0.0213 -0.15723,0.0188 -0.31312,0.0508 -0.4658,0.0937 -0.0855,0.0252 -0.16889,0.0601 -0.25695,0.0738 -0.13683,0.0392 -0.27422,0.0758 -0.40947,0.12056 -0.16015,0.0392 -0.31514,0.093 -0.46992,0.15036 -0.14484,0.0545 -0.29921,0.0729 -0.44931,0.10496 -0.16765,0.0395 -0.33671,0.0676 -0.50289,0.11347 -0.16831,0.0498 -0.32863,0.12403 -0.49603,0.1759 -0.17053,0.0542 -0.34134,0.10942 -0.51114,0.16598 -0.1818,0.0788 -0.37332,0.12657 -0.56336,0.17873 -0.0313,0.01 -0.0622,0.0189 -0.0935,0.0284 h -0.27207 -0.6664 -0.50154 -0.349 -0.3971 -0.43557 c -0.18079,-0.004 -0.36098,-0.006 -0.54137,0.008 -0.2347,0.0208 -0.46684,0.0574 -0.69939,0.0951 -0.21955,0.0442 -0.43641,0.10323 -0.65267,0.16171 -0.16149,0.0437 -0.28486,0.11129 -0.37237,0.1901 h -0.70213 -0.81206 c -0.22069,0 -0.4416,10e-6 -0.66227,0 -0.20017,-4e-5 -0.40034,1.1e-4 -0.60048,0 z" /><path
       id="path5-4"
       style="opacity:1;fill:#4a7c59;fill-opacity:1;fill-rule:nonzero;stroke:none;stroke-width:0.00444882"
       d="m -301.00291,527.1925 c -0.35826,-0.012 -0.71708,-0.11871 -1.02969,-0.32672 0.0209,-0.0202 0.0423,-0.0413 0.0629,-0.0619 0.0802,-0.0849 0.15254,-0.17471 0.226,-0.26475 0.0466,-0.0613 0.0875,-0.11151 0.14382,-0.17124 0.057,-0.0737 0.10606,-0.15255 0.15107,-0.23321 0.0319,-0.0473 0.0633,-0.0984 0.10027,-0.14307 0.0472,-0.0775 0.0897,-0.1565 0.13655,-0.23433 0.007,-0.0125 0.0142,-0.0282 0.0229,-0.0451 0.0448,-0.0574 0.0907,-0.11376 0.13898,-0.16899 0.10437,-0.1175 0.20381,-0.23786 0.30576,-0.35711 0.0721,-0.0808 0.14529,-0.16122 0.21271,-0.2456 0.0644,-0.0872 0.13429,-0.17118 0.20425,-0.2546 0.0683,-0.0403 0.13707,-0.0973 0.20425,-0.17349 0.0426,-0.0482 0.0887,-0.0934 0.12931,-0.14309 0.009,-0.0106 0.0194,-0.0208 0.029,-0.0316 0.0103,-0.007 0.021,-0.0157 0.0314,-0.0236 0.15237,-0.10565 0.27247,-0.24463 0.3964,-0.3774 0.11638,-0.13792 0.22213,-0.28266 0.31785,-0.43373 0.0493,-0.0808 0.10099,-0.16083 0.15349,-0.23997 0.0709,-0.0812 0.13454,-0.167 0.19941,-0.25234 0.0643,-0.0929 0.13013,-0.1849 0.197,-0.27601 0.0154,-0.0224 0.0305,-0.0453 0.0459,-0.0676 0.024,0.0139 0.0492,0.0287 0.0749,0.044 0.0252,-0.0378 0.0477,-0.0759 0.0688,-0.11378 0.0391,-0.0372 0.082,-0.11289 0.15953,-0.2332 0.0433,-0.0651 0.0868,-0.13006 0.13052,-0.1949 0.018,-0.019 0.036,-0.0375 0.0543,-0.0563 0.11479,-0.11891 0.22708,-0.24015 0.34806,-0.35374 0.13563,-0.14259 0.2718,-0.28525 0.4085,-0.42696 0.11339,-0.12709 0.23549,-0.24649 0.35651,-0.36726 0.11401,-0.10993 0.21863,-0.22722 0.31425,-0.35149 0.0866,-0.0998 0.16866,-0.20185 0.26346,-0.29516 0.0565,-0.0726 0.13774,-0.13055 0.2115,-0.18702 0.10981,-0.0711 0.22988,-0.13019 0.32751,-0.2163 0.0813,-0.0721 0.16514,-0.14204 0.24172,-0.21855 0.0652,-0.0729 0.13576,-0.16005 0.17524,-0.23658 0.042,-0.0617 0.0864,-0.12161 0.13294,-0.18026 0.0518,-0.0673 0.0978,-0.1385 0.15227,-0.2039 0.0691,-0.0854 0.12736,-0.17816 0.20545,-0.25686 0.0714,-0.0774 0.14056,-0.15643 0.20546,-0.23882 0.0729,-0.077 0.0909,-0.10895 0.16438,-0.19266 0.0451,-0.0611 0.087,-0.12321 0.12326,-0.18926 0.0382,-0.0592 0.0576,-0.0967 0.12932,-0.17124 0.0358,-0.0638 0.0915,-0.11968 0.13172,-0.18138 0.0759,-0.0973 0.1379,-0.20015 0.19096,-0.3098 -0.006,0.005 -0.008,0.007 -0.0109,0.009 l -7.8e-4,7.2e-4 h -7.7e-4 v -7.2e-4 c 0.008,-0.0171 0.0918,-0.11826 0.12931,-0.17125 0.008,-0.012 0.0163,-0.0252 0.0242,-0.0383 0.0466,-0.0716 0.0886,-0.1459 0.13537,-0.21743 0.0796,-0.0332 0.16301,-0.0876 0.24533,-0.16786 0.0596,-0.0582 0.12971,-0.10783 0.18248,-0.17237 0.099,-0.10476 0.19997,-0.2096 0.28402,-0.32558 0.0737,-0.1019 0.11655,-0.19677 0.13537,-0.28052 0.0312,-0.023 0.0636,-0.0485 0.0955,-0.0777 0.12503,-0.11468 0.20602,-0.26364 0.32148,-0.38529 0.009,-0.009 0.0192,-0.0206 0.0291,-0.0293 0.52643,-0.51998 -0.0358,-1.01783 -0.55472,-0.51934 -0.0517,-0.19157 -0.12887,-0.31096 -0.30336,-0.0755 -0.0605,0.0817 -0.0547,0.0807 -0.11723,0.15772 -0.0145,0.0193 -0.082,0.0972 -0.0871,0.10927 v 7.4e-4 c -0.0549,0.0509 -0.10992,0.10279 -0.16677,0.15208 -0.0404,0.0339 -0.082,0.0656 -0.12448,0.0969 -0.008,0.005 -0.0145,0.008 -0.0181,0.0101 -0.10651,0.0687 -0.20127,0.15032 -0.28883,0.23884 -0.0558,0.0627 -0.1169,0.12597 -0.18854,0.1735 -0.10872,0.0577 -0.18404,0.15274 -0.27796,0.22642 -0.0833,0.0673 -0.16102,0.14191 -0.25743,0.19378 -0.0296,0.0165 -0.0581,0.0349 -0.0859,0.0542 -0.0932,-0.01 -0.18653,-0.0142 -0.28159,-0.0101 -0.11342,0.008 -0.22629,0.0233 -0.3372,0.0462 -0.12885,0.0287 -0.22526,0.1146 -0.33839,0.17237 -0.11725,0.0538 -0.21971,0.13161 -0.33235,0.19264 -0.12293,0.0691 -0.24735,0.13361 -0.36257,0.21406 -0.10412,0.0717 -0.21069,0.13839 -0.31424,0.21066 -0.0379,0.009 -0.0758,0.0194 -0.11358,0.0293 -0.2998,0.0799 -0.44486,0.24059 -0.46289,0.39205 v 7.2e-4 h -7.8e-4 l -7.7e-4,7.4e-4 c -7.27194,2.87843 -14.72479,4.72272 -22.22783,5.49654 -7.5335,0.77691 -15.13022,0.48141 -22.57831,-0.87872 -6.62831,-1.21011 -11.91291,-3.05847 -15.1795,-4.39588 -3.57176,-1.46212 -5.56569,-2.63869 -5.64882,-2.688 -0.62902,-0.37325 -0.89448,-1.07469 -0.70338,-1.70902 0.0349,0.0211 0.0734,0.041 0.11603,0.0597 0.0555,0.0241 0.10492,0.0604 0.16195,0.0822 0.0742,0.0347 0.14811,0.0723 0.21512,0.11829 0.0797,0.0523 0.17161,0.1156 0.24534,0.15659 0.0808,0.0512 0.16218,0.1 0.24775,0.1442 0.0569,0.0272 0.11123,0.065 0.17161,0.0867 0.0852,0.0512 0.17324,0.0974 0.25984,0.14647 0.11567,0.0571 0.22976,0.12141 0.35895,0.14757 0.10878,0.0301 0.21584,0.0648 0.32631,0.089 0.0903,0.0578 0.18574,0.10671 0.28038,0.15773 v 7.3e-4 7.2e-4 7.4e-4 l 7.8e-4,7.2e-4 c 0.0261,0.0226 0.20886,0.0776 0.23084,0.0912 l 7.8e-4,7.2e-4 v 7.4e-4 7.3e-4 c 0.0558,0.0486 0.14364,0.0882 0.21633,0.12617 0.0847,0.0453 0.18204,0.0729 0.26105,0.1273 0.11336,0.0776 0.252,0.11609 0.36621,0.19151 0.12319,0.0783 0.25017,0.15022 0.38188,0.21519 0.16375,0.0722 0.32607,0.14643 0.49552,0.20616 0.16841,0.0657 0.34156,0.11861 0.51968,0.15545 0.114,0.0418 0.23713,0.0539 0.3529,0.089 0.12169,0.0282 0.24015,0.0656 0.36015,0.0991 0.14875,0.0336 0.29587,0.0718 0.44595,0.10028 0.11496,0.0349 0.23549,0.0513 0.35289,0.0766 0.0548,0.0323 0.10651,0.0705 0.16559,0.0946 0.0676,0.0321 0.13432,0.0652 0.20062,0.0991 0.0978,0.0641 0.2001,0.12077 0.30454,0.17461 0.11235,0.0547 0.2271,0.1045 0.3372,0.16336 0.0692,0.0321 0.13949,0.0622 0.20425,0.10138 0.10689,0.0759 0.21871,0.14251 0.3384,0.19941 0.11114,0.0624 0.22898,0.11586 0.33114,0.19151 0.12696,0.0719 0.24814,0.15051 0.37829,0.21743 0.12932,0.0757 0.26382,0.14448 0.39761,0.21293 0.0908,0.0382 0.1771,0.083 0.26588,0.12505 0.11571,0.051 0.2375,0.0878 0.35773,0.12843 0.10864,0.0269 0.2152,0.0602 0.32631,0.0777 0.13521,0.0314 0.27036,0.0637 0.40729,0.0878 0.15296,0.0377 0.30356,0.084 0.45684,0.12053 0.0503,0.0144 0.10047,0.0276 0.15107,0.0407 -0.004,0.079 -0.007,0.15796 -0.0109,0.23658 -4e-5,5.7e-4 3e-5,0.002 0,0.003 v 7.3e-4 7.3e-4 7.3e-4 7.3e-4 h 7.7e-4 v 7.3e-4 l 7.7e-4,7.3e-4 v 7.3e-4 l 7.8e-4,7.4e-4 h 7.8e-4 l 7.7e-4,0.005 c 0.0161,0.007 0.0536,0.002 0.0738,0.006 0.20075,0.0411 0.39414,0.11182 0.60186,0.12053 0.22337,0.006 0.44663,0.0151 0.66954,0.0293 0.30468,0.0657 0.60885,0.13317 0.91368,0.19828 0.0135,0.16354 0.17531,0.34429 0.50517,0.42471 0.19357,0.047 0.38685,0.0943 0.58132,0.13857 0.24965,0.0634 0.50335,0.11306 0.75414,0.17237 0.17728,0.038 0.35423,0.0752 0.52813,0.12505 0.17211,0.0418 0.34286,0.0866 0.51485,0.12843 0.16091,0.0388 0.32341,0.075 0.48465,0.11265 0.17565,0.0396 0.3481,0.0873 0.52451,0.12392 0.17227,0.0418 0.34575,0.0775 0.51604,0.12618 0.2108,0.0603 0.42951,0.0932 0.64417,0.13858 0.17424,0.0303 0.3439,0.0753 0.51726,0.10927 0.16656,0.0374 0.33166,0.0797 0.49794,0.11829 0.20134,0.0347 0.40254,0.0741 0.60427,0.10702 0.18027,0.0175 0.35686,0.0523 0.5354,0.08 0.16549,0.0336 0.32999,0.0716 0.49188,0.11828 0.17936,0.0683 0.36016,0.13237 0.54627,0.18251 0.23544,0.0603 0.47889,0.0805 0.72151,0.098 0.13785,0.009 0.27533,0.0139 0.41333,0.0169 0.13306,0.025 0.26621,0.0526 0.39883,0.0789 0.12251,0.0164 0.23983,0.0424 0.35893,0.0721 0.12353,0.0275 0.24504,0.0634 0.36861,0.0912 0.13318,0.0285 0.26877,0.0396 0.40487,0.0462 0.12627,-0.002 0.24981,0.0151 0.37466,0.0304 0.20163,0.0236 0.40487,0.034 0.60789,0.0407 0.0361,7.3e-4 0.0725,7.3e-4 0.10878,0.003 0.0419,0.008 0.0837,0.0176 0.1257,0.0259 0.14979,0.0201 0.29674,0.0531 0.44595,0.0766 0.14692,0.0237 0.29608,0.0352 0.44475,0.0439 0.15147,0.005 0.30143,0.007 0.45201,0.0225 0.18547,0.0221 0.36866,0.0567 0.55351,0.0833 0.12167,0.0109 0.23905,0.032 0.35773,0.0574 0.13432,0.028 0.26936,0.0548 0.40487,0.0777 0.0479,0.008 0.0936,0.0129 0.13658,0.0147 0.11714,0.006 0.21539,-0.0129 0.29368,-0.0451 0.16349,0.0275 0.32654,0.0601 0.49187,0.0766 0.16874,0.0201 0.33652,0.022 0.50639,0.0225 0.18325,0.006 0.36759,0.0144 0.54869,0.0428 0.24573,0.0202 0.49037,0.0336 0.73721,0.0271 0.19486,0 0.39012,-5.7e-4 0.58495,0.003 0.17987,0.003 0.35935,0.006 0.53903,0.0157 0.25614,0.012 0.51294,0.0277 0.76863,0.0473 0.22575,0.0109 0.45078,0.006 0.6768,0.006 h 0.69008 0.79403 0.64779 c 0.206,0 0.41275,-2e-5 0.61877,0 0.23196,2e-5 0.46298,0.006 0.69494,0.006 0.20794,1.3e-4 0.41567,-5.6e-4 0.62361,0 0.24521,0.003 0.49082,0.003 0.736,0.006 0.21582,0.006 0.43257,0.01 0.6478,0.0248 0.21627,0.017 0.43157,0.0463 0.64899,0.0451 0.19993,0.003 0.39972,0.006 0.59945,0.0147 0.21678,0.0111 0.43274,0.0287 0.64899,0.0462 0.27512,0.0131 0.55019,-0.003 0.82546,-0.006 0.26688,-0.007 0.53383,-0.0187 0.80006,-0.0383 0.24024,-0.0176 0.48026,-0.0313 0.72151,-0.0225 0.22501,-3e-5 0.45058,3.1e-4 0.67559,-0.004 0.20995,-0.003 0.41988,-0.005 0.62967,-0.0135 0.19093,-0.009 0.38159,-0.0215 0.57043,-0.0507 0.16917,-0.0236 0.33895,-0.0254 0.50879,-0.0428 0.12165,-0.0159 0.24027,-0.0455 0.36135,-0.0586 0.18338,-0.0192 0.36732,-0.044 0.54387,-0.0958 0.17802,-0.0568 0.35318,-0.12299 0.52088,-0.20279 0.0692,-0.0314 0.14041,-0.0598 0.21151,-0.0878 0.0287,5.8e-4 0.0569,7.4e-4 0.0859,7.4e-4 0.046,3.3e-4 0.0928,-9e-5 0.13898,0 0.0401,5e-5 0.0797,0 0.11964,0 0.0379,0 0.0756,-2e-5 0.11361,0 h 0.13898 c 0.0612,0.003 0.12129,5.7e-4 0.18128,-0.0124 0.0376,-0.008 0.0761,-0.0126 0.11482,-0.0169 0.0396,-0.003 0.0798,-0.006 0.11964,-0.006 0.0645,0.006 0.12758,-0.004 0.19096,-0.0147 0.0632,-0.0107 0.12442,-0.0296 0.18732,-0.0406 0.0653,-0.0126 0.1305,-0.0287 0.19458,-0.0462 0.0575,-0.0189 0.11708,-0.0299 0.17525,-0.0473 0.0554,-0.0137 0.10639,-0.0378 0.16073,-0.0552 0.048,-0.006 0.095,-0.0185 0.1414,-0.0316 0.0449,-0.0117 0.0903,-0.0184 0.13537,-0.0293 0.0484,-0.0131 0.0969,-0.0243 0.14381,-0.0417 0.0145,-0.006 0.0282,-0.0109 0.0423,-0.0169 0.0389,-0.006 0.0781,-0.0131 0.11723,-0.0191 0.10255,-0.008 0.20525,-0.0188 0.30576,-0.0407 0.0937,-0.0183 0.18904,-0.0302 0.27798,-0.0653 0.0813,-0.0307 0.16704,-0.0509 0.24775,-0.0833 0.082,-0.0323 0.16635,-0.0594 0.25017,-0.0878 0.0813,-0.0277 0.16167,-0.0557 0.24292,-0.0833 0.066,-0.0247 0.13257,-0.05 0.20182,-0.0653 0.0753,-0.0165 0.14946,-0.0378 0.22481,-0.0552 0.008,-0.003 0.0164,-0.006 0.0253,-0.007 0.0439,-0.005 0.0887,-0.006 0.13294,-0.007 0.0703,-0.003 0.14003,-0.006 0.21027,-0.006 0.0584,-4.9e-4 0.11685,-0.003 0.17526,-0.003 0.0454,-10e-5 0.091,0 0.13655,0 0.0572,0.003 0.11332,5.7e-4 0.1692,-0.0124 0.027,-0.008 0.0539,-0.0149 0.0821,-0.0169 0.0427,-0.003 0.0847,-0.006 0.12689,-0.0135 0.0429,-0.0135 0.0861,-0.0265 0.12812,-0.0417 0.0234,-0.008 0.0465,-0.0125 0.0712,-0.0169 0.0457,-0.006 0.0902,-0.009 0.13414,-0.0225 0.0471,-0.009 0.0919,-0.0263 0.1378,-0.0395 0.0504,-0.008 0.0976,-0.0264 0.14622,-0.0396 0.0207,-0.006 0.0124,-0.006 0.0278,-0.006 0.0866,-0.0173 0.14785,-0.0491 0.18733,-0.0878 0.0324,-0.003 0.0656,-0.006 0.0979,-0.009 0.0654,-0.007 0.12896,-0.0239 0.19458,-0.0304 0.0717,-0.009 0.14302,-0.0224 0.20908,-0.0507 0.0461,-0.0186 0.0925,-0.0378 0.13899,-0.0552 0.0616,-0.0186 0.12244,-0.0378 0.18369,-0.0574 0.0536,-0.0204 0.10744,-0.0399 0.16316,-0.0552 0.0784,-0.0244 0.1543,-0.0552 0.23204,-0.081 0.0633,-0.0242 0.12821,-0.0445 0.19459,-0.0597 0.0808,-0.0236 0.15863,-0.0545 0.23687,-0.0844 0.075,-0.029 0.14983,-0.0573 0.22601,-0.0833 0.073,-0.025 0.14487,-0.0558 0.21995,-0.0755 0.0829,-0.0244 0.16454,-0.0512 0.24776,-0.0744 0.0781,-0.0229 0.15549,-0.049 0.23566,-0.0642 0.0986,-0.0183 0.19857,-0.0311 0.2973,-0.0485 0.0761,-0.0175 0.14828,-0.0435 0.22117,-0.0698 0.0625,-0.0219 0.12567,-0.04 0.18975,-0.0574 0.0711,-0.0191 0.14512,-0.0298 0.21512,-0.0529 0.0711,-0.0225 0.14255,-0.0411 0.2103,-0.0721 0.0671,-0.0247 0.13256,-0.0523 0.1994,-0.0777 0.0627,-0.0247 0.12894,-0.0433 0.19458,-0.0609 0.0637,-0.0181 0.12724,-0.0345 0.18974,-0.0563 0.0652,-0.0151 0.13046,-0.0295 0.197,-0.0383 0.0821,-0.0131 0.1682,-0.006 0.25018,-0.0225 0.0727,-0.0117 0.14331,-0.0296 0.21633,-0.0407 0.0677,-0.0135 0.13496,-0.0296 0.20303,-0.0428 0.0678,-0.0152 0.1361,-0.0263 0.20426,-0.0395 0.0688,-0.0175 0.13729,-0.0345 0.20544,-0.0541 0.0626,-0.0214 0.12459,-0.045 0.18612,-0.0687 0.0565,-0.0181 0.11199,-0.0385 0.16678,-0.0609 0.0603,-0.0186 0.12072,-0.0389 0.1813,-0.0563 0.0535,-0.0192 0.10878,-0.0356 0.16193,-0.0552 0.0635,-0.0186 0.12572,-0.04 0.18975,-0.0574 0.0734,-0.0199 0.14758,-0.0349 0.21633,-0.0676 0.0596,-0.0214 0.119,-0.0446 0.17887,-0.0642 0.0779,-0.0221 0.15729,-0.0412 0.23567,-0.0608 0.089,-0.0247 0.17606,-0.051 0.25984,-0.0889 0.0303,-0.0136 0.0607,-0.0272 0.0906,-0.0417 0.22054,-0.0557 0.44017,-0.1132 0.65625,-0.1825 0.22942,-0.0733 0.45801,-0.14945 0.68646,-0.22531 0.16875,-0.0557 0.34026,-0.10407 0.5076,-0.16336 0.1543,-0.0521 0.29264,-0.13604 0.43628,-0.20841 0.1556,-0.0783 0.30866,-0.161 0.46048,-0.24561 0.1784,-0.10178 0.35618,-0.20341 0.54021,-0.29628 0.1541,-0.0781 0.3084,-0.15639 0.45926,-0.23995 0.0382,-0.006 0.0784,-0.0147 0.11964,-0.0259 0.16581,-0.0452 0.33309,-0.0846 0.49672,-0.13632 0.12927,-0.047 0.26171,-0.0831 0.39158,-0.12842 0.13503,-0.0364 0.26467,-0.0872 0.38914,-0.14758 0.13282,-0.0724 0.25908,-0.15418 0.394,-0.22307 0.1343,-0.0716 0.26084,-0.15399 0.39157,-0.23094 0.12067,-0.0789 0.25213,-0.14084 0.37586,-0.21519 0.12198,-0.0652 0.23897,-0.13894 0.35653,-0.21066 0.11448,-0.0684 0.23364,-0.12735 0.34323,-0.20278 0.0806,-0.0619 0.16993,-0.11224 0.25621,-0.16673 0.0994,-0.0573 0.19173,-0.12406 0.28644,-0.18815 0.0699,-0.0441 0.14047,-0.0924 0.21634,-0.1273 0.11447,-0.038 0.22123,-0.0971 0.32267,-0.15884 0.0809,-0.0506 0.17241,-0.0794 0.25864,-0.12055 0.0363,-0.0206 0.0733,-0.04 0.10998,-0.0597 0.0539,0.0269 0.11918,0.0433 0.19457,0.0462 0.10162,0.005 0.2209,-0.0166 0.35411,-0.0721 0.0563,-0.0229 0.0349,-0.0118 0.0676,-0.0294 0.10671,-0.0326 0.21622,-0.0654 0.32269,-0.10138 0.64876,-0.21992 0.49387,-0.77442 -0.0615,-0.7289 -0.23933,-0.14664 -0.50303,-0.28775 -0.1982,-0.33459 -0.0702,0.008 -0.1398,0.0195 -0.20788,0.0383 -0.0874,0.026 -0.096,0.0362 -0.1837,0.0407 -0.0921,0.012 -0.18372,0.0254 -0.27434,0.0451 h -0.37102 c -0.0896,-0.0195 -0.18059,-0.0338 -0.27192,-0.0451 -0.10606,-0.004 -0.20671,-0.0177 -0.3094,-0.0395 -0.0987,-0.0102 -0.19065,-0.0426 -0.28523,-0.0687 -0.0371,-0.01 -0.0751,-0.0182 -0.11359,-0.0248 -0.0449,-0.0119 -0.0909,-0.0201 -0.13778,-0.0271 -0.0196,-0.003 -0.0387,-0.005 -0.0579,-0.006 -0.0836,-0.029 -0.17745,-0.0282 -0.26106,-0.0552 -0.0903,-0.0322 -0.18808,-0.0392 -0.27796,-0.071 -0.10543,-0.0447 -0.22251,-0.0517 -0.33235,-0.08 -0.098,-0.0282 -0.1976,-0.0501 -0.29851,-0.0676 -0.0741,-0.008 -0.14398,-0.0356 -0.21633,-0.0531 v -7.4e-4 h -7.8e-4 c -0.007,-0.004 -0.0282,-0.007 -0.0556,-0.0124 -0.15338,-0.15242 -0.34253,-0.23791 -0.56923,-0.26699 -0.20646,-0.0866 -0.42287,-0.1485 -0.63811,-0.21405 -0.19362,-0.0587 -0.38884,-0.11598 -0.58253,-0.17462 -0.18716,-0.0661 -0.38186,-0.11252 -0.57648,-0.15546 -0.21908,-0.0548 -0.44216,-0.0945 -0.66109,-0.14985 -0.21567,-0.0568 -0.43434,-0.10132 -0.65141,-0.15321 -0.23581,-0.0476 -0.46873,-0.10704 -0.70458,-0.15433 -0.1851,-0.0332 -0.36831,-0.0733 -0.5511,-0.11605 -0.23675,-0.0578 -0.47329,-0.11579 -0.70944,-0.17573 -0.27946,-0.0713 -0.55944,-0.14212 -0.84236,-0.20053 -0.23191,-0.0557 -0.46613,-0.10162 -0.69855,-0.15548 -0.28006,-0.0696 -0.56448,-0.11938 -0.84841,-0.17237 -0.25198,-0.0503 -0.50784,-0.0899 -0.75777,-0.1487 -0.17629,-0.0396 -0.35115,-0.0828 -0.52692,-0.12391 -0.17363,-0.0358 -0.35002,-0.0614 -0.52212,-0.10365 -0.16101,-0.0388 -0.3231,-0.0729 -0.48582,-0.10477 -0.14293,-0.0236 -0.28793,-0.0261 -0.43267,-0.0282 -0.0105,-1.9e-4 -0.0209,1.6e-4 -0.0315,0 0.33209,-0.53939 0.95609,-0.88211 1.63517,-0.88211 0.12744,0 0.25817,0.0125 0.38795,0.0372 2.48114,0.47949 4.96117,0.95908 7.44232,1.43863 1.43377,0.27692 2.86843,0.55419 4.30247,0.83141 0.0496,0.14123 0.21336,0.27813 0.50397,0.33346 0.18111,0.0345 0.35552,0.0922 0.53055,0.14645 0.22005,0.0766 0.43151,0.1707 0.64779,0.25574 0.19142,0.0661 0.38786,0.11935 0.58616,0.16449 0.13907,0.029 0.26953,0.0794 0.39398,0.14307 0.16517,0.0794 0.32093,0.17368 0.48585,0.25347 0.17656,0.085 0.3634,0.14505 0.55352,0.19715 0.27815,0.0849 0.55979,0.15972 0.84357,0.22645 0.0259,0.006 0.0458,0.0117 0.0616,0.0157 0.12332,0.3135 0.1457,0.64819 0.0724,0.96548 -0.14713,0.012 -0.3105,0.112 -0.43146,0.3312 -0.0245,0.0442 -0.0607,0.082 -0.0809,0.12844 -0.029,0.0582 -0.0612,0.0967 -0.0942,0.15208 -0.0498,0.0798 -0.0924,0.16348 -0.14626,0.24109 -0.0367,0.0638 -0.0802,0.12434 -0.12447,0.18362 l 0.008,-0.007 c -0.003,0.004 -0.0103,0.0123 -0.0217,0.0271 -0.0292,0.0367 -0.0581,0.0738 -0.0859,0.11153 -0.004,0.005 -0.009,0.0105 -0.0133,0.0169 -0.0593,0.0861 -0.116,0.1745 -0.16798,0.26476 -0.0434,0.10065 -0.10704,0.19417 -0.13536,0.30079 -0.0251,0.0869 -0.0585,0.17213 -0.0833,0.2591 -2.65088,3.3718 -5.30234,6.74288 -7.95354,10.11435 -0.38393,0.48804 -0.98893,0.73795 -1.5941,0.71763 z m 5.01673,-9.11959 c -0.007,-0.0184 -0.0142,-0.0358 -0.023,-0.0531 0.0157,-0.007 0.0315,-0.0152 0.0472,-0.0225 h 7.8e-4 v -7.3e-4 h 7.7e-4 7.7e-4 7.7e-4 l 7.8e-4,-7.3e-4 h 7.7e-4 7.7e-4 v -7.4e-4 h 7.8e-4 c 0.0176,-0.009 0.0348,-0.0182 0.0532,-0.0259 0.0121,-0.006 0.0251,-0.0105 0.0374,-0.0147 -0.0412,0.04 -0.0827,0.0799 -0.12449,0.11941 z m -1.35842,-2.97866 c 0.008,-0.0161 0.0167,-0.033 0.0242,-0.0496 0.0118,0.006 0.023,0.0125 0.035,0.0169 -0.0178,0.01 -0.0352,0.0196 -0.0532,0.0293 -0.003,7.2e-4 -0.004,0.003 -0.007,0.004 z m -0.71547,-0.61512 c 0.0148,-0.0136 0.0281,-0.0275 0.0398,-0.0383 -0.0112,0.0144 -0.0264,0.0321 -0.0398,0.0383 z m 0.0496,-0.0225 c 0.006,-0.0171 0.009,-0.029 0.009,-0.0338 v -7.3e-4 c 0.006,-0.006 0.0103,-0.009 0.0145,-0.0135 -0.007,0.0187 -0.0141,0.031 -0.0194,0.0473 l -7.7e-4,-7.4e-4 h -7.8e-4 l -7.8e-4,7.4e-4 z m 0.8472,-0.28615 c 7.9e-4,-0.0255 0.004,-0.051 0.004,-0.0766 0.007,0.0172 0.0152,0.0352 0.0229,0.0542 -0.008,0.007 -0.0179,0.0151 -0.0265,0.0225 z m 1.52522,-0.0878 c 0.006,-0.0125 0.009,-0.0245 0.0133,-0.0372 0.0151,0.002 0.0306,0.003 0.0459,0.005 -0.0193,0.0118 -0.0391,0.0224 -0.0593,0.0326 z" /><path
       style="opacity:1;fill:#4d4d4d;fill-opacity:0.65625;stroke-width:1.36991"
       d="m -786.98068,578.54807 411.09427,0.80884 271.24089,-1.02392"
       id="path7"
       inkscape:transform-center-x="0.32394265"
       inkscape:transform-center-y="0.0074808181" /></g></svg>
