<?xml version="1.0" encoding="UTF-8" standalone="no"?>
<!-- Created with Inkscape (http://www.inkscape.org/) -->

<svg
   width="181.25945mm"
   height="23.413408mm"
   viewBox="0 0 181.25945 23.413408"
   version="1.1"
   id="svg1"
   xml:space="preserve"
   xmlns="http://www.w3.org/2000/svg"
   xmlns:svg="http://www.w3.org/2000/svg"><defs
     id="defs1" /><g
     id="layer1"
     transform="translate(-13.269191,-111.31044)"><text
       xml:space="preserve"
       style="font-style:normal;font-variant:normal;font-weight:bold;font-stretch:normal;font-size:3.52778px;line-height:3.64537px;font-family:Georgia;-inkscape-font-specification:'Georgia Bold';text-align:center;writing-mode:lr-tb;direction:ltr;text-anchor:middle;fill:#ac3b61;fill-opacity:1;stroke-width:0.264582"
       x="37.99638"
       y="118.83725"
       id="text16"><tspan
         style="font-style:normal;font-variant:normal;font-weight:bold;font-stretch:normal;font-size:3.52778px;line-height:3.64537px;font-family:Georgia;-inkscape-font-specification:'Georgia Bold';fill:#ac3b61;fill-opacity:1;stroke-width:0.264582"
         x="37.99638"
         y="118.83725"
         id="tspan19">Philosophy &amp; Social Theory</tspan></text><text
       xml:space="preserve"
       style="font-style:normal;font-variant:normal;font-weight:bold;font-stretch:normal;font-size:3.52778px;line-height:3.64537px;font-family:Georgia;-inkscape-font-specification:'Georgia Bold';text-align:center;writing-mode:lr-tb;direction:ltr;text-anchor:middle;fill:#ac3b61;fill-opacity:1;stroke-width:0.264582"
       x="103.50982"
       y="118.86802"
       id="text16-3"><tspan
         style="font-style:normal;font-variant:normal;font-weight:bold;font-stretch:normal;font-size:3.52778px;line-height:3.64537px;font-family:Georgia;-inkscape-font-specification:'Georgia Bold';fill:#ac3b61;fill-opacity:1;stroke-width:0.264582"
         x="103.50982"
         y="118.86802"
         id="tspan19-6">Reflexive Methods</tspan></text><text
       xml:space="preserve"
       style="font-size:2.82222px;line-height:3.63008px;text-align:center;writing-mode:lr-tb;direction:ltr;text-anchor:middle;fill:#000000;stroke-width:0.264583"
       x="37.860199"
       y="124.49709"
       id="text23"><tspan
         id="tspan23"
         style="font-size:2.82222px;line-height:3.63008px;fill:#7d7d7d;fill-opacity:1;stroke-width:0.264583"
         x="37.860199"
         y="124.49709">epistemology · ethnography</tspan><tspan
         style="font-size:2.82222px;line-height:3.63008px;fill:#7d7d7d;fill-opacity:1;stroke-width:0.264583"
         x="37.860199"
         y="128.12717"
         id="tspan24">inductive reasoning</tspan><tspan
         style="font-size:2.82222px;line-height:3.63008px;fill:#7d7d7d;fill-opacity:1;stroke-width:0.264583"
         x="37.860199"
         y="131.75725"
         id="tspan25">interpretive methods</tspan></text><text
       xml:space="preserve"
       style="font-size:2.82222px;line-height:3.63008px;text-align:center;writing-mode:lr-tb;direction:ltr;text-anchor:middle;fill:#000000;stroke-width:0.264583"
       x="103.77734"
       y="123.87959"
       id="text23-9"><tspan
         style="font-size:2.82222px;line-height:3.63008px;fill:#7d7d7d;fill-opacity:1;stroke-width:0.264583"
         x="103.77734"
         y="123.87959"
         id="tspan25-5">action research</tspan><tspan
         style="font-size:2.82222px;line-height:3.63008px;fill:#7d7d7d;fill-opacity:1;stroke-width:0.264583"
         x="103.77734"
         y="127.50967"
         id="tspan27">participatory design</tspan><tspan
         style="font-size:2.82222px;line-height:3.63008px;fill:#7d7d7d;fill-opacity:1;stroke-width:0.264583"
         x="103.77734"
         y="131.13976"
         id="tspan28">qualitative methods</tspan></text><text
       xml:space="preserve"
       style="font-style:normal;font-variant:normal;font-weight:bold;font-stretch:normal;font-size:3.52778px;line-height:3.64537px;font-family:Georgia;-inkscape-font-specification:'Georgia Bold';text-align:center;writing-mode:lr-tb;direction:ltr;text-anchor:middle;fill:#ac3b61;fill-opacity:1;stroke-width:0.264582"
       x="166.77666"
       y="118.69572"
       id="text16-3-8"><tspan
         style="font-style:normal;font-variant:normal;font-weight:bold;font-stretch:normal;font-size:3.52778px;line-height:3.64537px;font-family:Georgia;-inkscape-font-specification:'Georgia Bold';fill:#ac3b61;fill-opacity:1;stroke-width:0.264582"
         x="166.77666"
         y="118.69572"
         id="tspan19-6-3">Sociotechnical Systems Design</tspan></text><text
       xml:space="preserve"
       style="font-size:2.82222px;line-height:3.63008px;text-align:center;writing-mode:lr-tb;direction:ltr;text-anchor:middle;fill:#000000;stroke-width:0.264583"
       x="166.77592"
       y="123.56203"
       id="text23-9-6"><tspan
         style="font-size:2.82222px;line-height:3.63008px;fill:#7d7d7d;fill-opacity:1;stroke-width:0.264583"
         x="166.77592"
         y="123.56203"
         id="tspan25-5-4">responsible technologies</tspan><tspan
         style="font-size:2.82222px;line-height:3.63008px;fill:#7d7d7d;fill-opacity:1;stroke-width:0.264583"
         x="166.77592"
         y="127.19211"
         id="tspan30">community-centred design</tspan><tspan
         style="font-size:2.82222px;line-height:3.63008px;fill:#7d7d7d;fill-opacity:1;stroke-width:0.264583"
         x="166.77592"
         y="130.82219"
         id="tspan31">capacity building</tspan></text></g><g
     id="g1"
     transform="matrix(0.26458332,0,0,0.26458334,206.73082,-111.31044)"><path
       id="path3"
       style="opacity:0.6;fill:#4a7c59;fill-opacity:1;fill-rule:nonzero;stroke:none;stroke-width:0.00453315"
       d="m -532.64931,423.97929 c -0.009,0.0197 -0.0164,0.0396 -0.0228,0.0605 -0.0995,0.32612 0.12033,0.66153 0.49005,0.7488 0.97931,0.23287 1.97025,0.48633 2.94523,0.75329 0.0685,0.0187 0.13781,0.0269 0.20586,0.0269 0.29539,0 0.56835,-0.16753 0.66053,-0.4298 0.01,-0.0265 0.0162,-0.0528 0.0215,-0.0795 -0.053,-0.01 -0.10522,-0.0209 -0.15788,-0.0324 -0.11992,-0.029 -0.24343,-0.0388 -0.36499,-0.0605 -0.12456,-0.0262 -0.24869,-0.0522 -0.36752,-0.0951 -0.0551,-0.0195 -0.11173,-0.0293 -0.17051,-0.0358 -0.10995,-0.0169 -0.21549,-0.0509 -0.32584,-0.0661 -0.10782,-0.007 -0.20992,-0.042 -0.31574,-0.0571 -0.1574,-0.0223 -0.31297,-0.0541 -0.4673,-0.0896 -0.15235,-0.0437 -0.305,-0.0903 -0.45467,-0.14102 -0.11481,-0.0417 -0.23711,-0.0594 -0.35615,-0.0884 -0.12966,-0.0258 -0.25063,-0.0753 -0.37637,-0.11192 -0.12273,-0.0477 -0.24634,-0.0931 -0.37005,-0.1388 -0.10283,-0.0394 -0.20844,-0.0738 -0.317,-0.0985 -0.0888,-0.0121 -0.17128,-0.0414 -0.25639,-0.0649 z" /><path
       id="path4"
       style="opacity:0.6;fill:#4a7c59;fill-opacity:1;fill-rule:nonzero;stroke:none;stroke-width:0.00453315"
       d="m -548.11562,421.8392 c -0.20599,1.5e-4 -0.41161,4.3e-4 -0.6176,8.4e-4 -0.25009,0 -0.50012,0.002 -0.7502,0.005 -0.25069,0.004 -0.50134,0.006 -0.75145,0.0235 -0.27378,0.0182 -0.54739,0.0447 -0.8222,0.0426 -0.2591,2e-5 -0.5189,-1.1e-4 -0.77799,0 -0.27572,1.3e-4 -0.55154,3.7e-4 -0.82725,8.3e-4 -0.24238,0 -0.48383,-7e-5 -0.72621,0.004 -0.27832,0.005 -0.55694,0.009 -0.83481,0.0247 -0.2983,0.0162 -0.59635,0.0443 -0.89546,0.0426 -0.31999,0 -0.63987,1.6e-4 -0.95984,0.002 -0.36249,0.002 -0.72508,0.003 -1.08743,0.0146 -0.36895,0.0111 -0.73797,0.0276 -1.10636,0.0492 -0.30733,0.0108 -0.61448,0.006 -0.92196,0.0146 -0.25199,0.007 -0.50437,0.0206 -0.75525,0.0436 -0.33196,0.0299 -0.66325,0.0689 -0.99649,0.0862 -0.20798,0.0152 -0.41608,0.0247 -0.62391,0.0381 -0.006,0.0446 -0.006,0.0912 9.5e-4,0.13767 0.0446,0.33549 0.38851,0.57574 0.76914,0.53614 v -8.4e-4 c 8.01404,-0.83017 16.11659,-0.51513 24.08481,0.93462 0.0474,0.009 0.0951,0.0134 0.14145,0.0134 0.32192,0 0.61064,-0.19894 0.67821,-0.48802 0.008,-0.0326 0.0123,-0.0651 0.0139,-0.0974 -0.10185,-0.0137 -0.20436,-0.0237 -0.30691,-0.0324 -0.11224,-0.007 -0.22587,-0.0113 -0.33847,-0.0134 -0.1271,-0.0103 -0.25005,-0.0396 -0.37635,-0.0548 -0.0963,-0.0108 -0.19359,-0.0147 -0.29049,-0.0168 -0.14452,-0.0147 -0.28781,-0.0401 -0.42815,-0.0739 -0.0786,-0.0199 -0.15524,-0.0474 -0.23618,-0.0582 -0.12577,-0.0309 -0.25205,-0.0598 -0.37637,-0.0951 -0.1472,-0.0309 -0.28966,-0.0734 -0.43193,-0.11864 -0.13313,-0.0431 -0.27502,-0.0575 -0.41299,-0.0828 -0.15409,-0.0311 -0.30949,-0.0533 -0.46224,-0.0895 -0.1547,-0.0392 -0.30205,-0.0979 -0.45593,-0.13879 -0.15675,-0.0427 -0.31375,-0.0863 -0.46982,-0.13096 -0.1671,-0.0621 -0.34315,-0.0999 -0.51782,-0.14103 -0.0288,-0.007 -0.0571,-0.0148 -0.0859,-0.0224 h -0.25006 -0.61254 -0.46099 -0.32079 -0.365 -0.40037 c -0.16616,0.002 -0.3318,0.004 -0.4976,-0.007 -0.21573,-0.0164 -0.42909,-0.0453 -0.64285,-0.075 -0.2018,-0.0348 -0.40114,-0.0815 -0.59991,-0.1276 -0.14843,-0.0345 -0.26183,-0.0878 -0.34227,-0.14999 h -0.64538 -0.74641 c -0.20286,0 -0.40589,-2e-5 -0.60874,0 -0.18397,3e-5 -0.36796,-8e-5 -0.55193,0 z" /><path
       id="path5"
       style="opacity:0.6;fill:#4a7c59;fill-opacity:1;fill-rule:nonzero;stroke:none;stroke-width:0.00453315"
       d="m -523.3665,420.70088 c -0.37438,0.0119 -0.74935,0.11794 -1.07604,0.3246 0.0219,0.0202 0.0442,0.0411 0.0657,0.0616 0.0838,0.0844 0.15941,0.17358 0.23617,0.26304 0.0486,0.0609 0.0914,0.11078 0.15029,0.17013 0.0596,0.0732 0.11085,0.15155 0.15788,0.23169 0.0333,0.047 0.0663,0.0978 0.10478,0.14215 0.0493,0.077 0.0938,0.15548 0.1427,0.23282 0.007,0.0124 0.0147,0.0281 0.024,0.0447 0.0468,0.0571 0.0948,0.11302 0.14525,0.16789 0.10907,0.11674 0.21299,0.23634 0.31953,0.35481 0.0753,0.0804 0.15182,0.16019 0.22228,0.24401 0.0673,0.0867 0.14033,0.17007 0.21344,0.25296 0.0714,0.04 0.14325,0.0967 0.21344,0.17237 0.0446,0.0479 0.0927,0.0928 0.13514,0.14215 0.01,0.0105 0.0202,0.0207 0.0303,0.0313 0.0109,0.007 0.0219,0.0157 0.0328,0.0235 0.15922,0.10496 0.28474,0.24306 0.41425,0.37497 0.12162,0.13702 0.23213,0.28083 0.33216,0.43093 0.0515,0.0804 0.10553,0.15978 0.1604,0.2384 0.074,0.0807 0.14058,0.16593 0.20839,0.25072 0.0672,0.0923 0.13599,0.1837 0.20587,0.27423 0.016,0.0222 0.0319,0.0449 0.048,0.0671 0.0251,-0.0138 0.0514,-0.0286 0.0783,-0.0437 0.0264,0.0376 0.0498,0.0754 0.072,0.11305 0.041,0.037 0.0858,0.11216 0.16671,0.23169 0.0451,0.0646 0.0908,0.12921 0.13639,0.19364 0.0188,0.0187 0.0377,0.0373 0.0568,0.0559 0.11995,0.11816 0.23731,0.23861 0.36374,0.35146 0.14172,0.14168 0.28403,0.28342 0.42687,0.42421 0.1185,0.12627 0.2461,0.2449 0.37257,0.36489 0.11914,0.10923 0.22848,0.22576 0.32839,0.34922 0.0905,0.0991 0.17627,0.20055 0.27532,0.29325 0.0591,0.0721 0.14393,0.12971 0.22102,0.18581 0.11476,0.0706 0.24025,0.12935 0.34226,0.2149 0.0849,0.0716 0.17258,0.14112 0.2526,0.21714 0.0681,0.0725 0.14187,0.15902 0.18313,0.23505 0.044,0.0613 0.0904,0.12083 0.13893,0.17909 0.0542,0.067 0.10217,0.13761 0.15913,0.20259 0.0722,0.0849 0.13308,0.17701 0.2147,0.2552 0.0746,0.0769 0.14689,0.15542 0.21471,0.23729 0.0762,0.0765 0.095,0.10823 0.17177,0.1914 0.0471,0.0606 0.0909,0.12241 0.12881,0.18804 0.0398,0.0589 0.0601,0.0961 0.13514,0.17013 0.0375,0.0635 0.0957,0.11891 0.13767,0.18021 0.0793,0.0967 0.14409,0.19886 0.19955,0.3078 -0.006,-0.004 -0.008,-0.008 -0.0114,-0.009 l -9.4e-4,-8.4e-4 h -9.5e-4 v 8.4e-4 c 0.008,0.017 0.096,0.11749 0.13514,0.17013 0.008,0.0119 0.0169,0.0251 0.0253,0.0381 0.0487,0.0712 0.0926,0.14496 0.14146,0.21603 0.0832,0.0331 0.17034,0.087 0.25637,0.16678 0.0623,0.0578 0.13555,0.10713 0.19071,0.17124 0.10347,0.10408 0.20896,0.20825 0.2968,0.32348 0.0771,0.10125 0.12179,0.19551 0.14145,0.27871 0.0327,0.0228 0.0665,0.0481 0.0998,0.0772 0.13064,0.11395 0.21528,0.26194 0.33593,0.38281 0.01,0.009 0.0201,0.0205 0.0303,0.0291 0.55012,0.51662 -0.0375,1.01126 -0.5797,0.51599 -0.0541,0.19033 -0.13467,0.30894 -0.31702,0.075 -0.0632,-0.0812 -0.0571,-0.0802 -0.1225,-0.1567 -0.0151,-0.0192 -0.0858,-0.0965 -0.091,-0.10857 v -8.3e-4 c -0.0574,-0.0506 -0.11487,-0.10214 -0.17428,-0.1511 -0.0422,-0.0337 -0.0857,-0.0651 -0.13009,-0.0963 -0.009,-0.004 -0.0151,-0.008 -0.0189,-0.0101 -0.1113,-0.0682 -0.21035,-0.14935 -0.30185,-0.23729 -0.0584,-0.0624 -0.12216,-0.12516 -0.19703,-0.17238 -0.11362,-0.0572 -0.19232,-0.15176 -0.29048,-0.22497 -0.087,-0.067 -0.16826,-0.14098 -0.26901,-0.19252 -0.031,-0.0163 -0.0607,-0.0346 -0.0897,-0.0537 -0.0974,0.01 -0.19494,0.0141 -0.29427,0.0101 -0.11852,-0.008 -0.23648,-0.0231 -0.35237,-0.0459 -0.13465,-0.0286 -0.23541,-0.11385 -0.35363,-0.17125 -0.12254,-0.0535 -0.22961,-0.13076 -0.34731,-0.1914 -0.12848,-0.0686 -0.25848,-0.13275 -0.3789,-0.21267 -0.10881,-0.0713 -0.22017,-0.1375 -0.32837,-0.2093 -0.0397,-0.009 -0.0793,-0.0192 -0.11872,-0.0292 -0.31328,-0.0795 -0.46487,-0.23904 -0.48372,-0.38951 v -8.4e-4 h -9.4e-4 l -9.5e-4,-8.3e-4 c -7.59931,-2.85982 -15.38769,-4.69219 -23.22852,-5.46102 -7.87265,-0.77189 -15.81137,-0.47829 -23.59477,0.87305 -6.92671,1.20228 -12.44922,3.0387 -15.86288,4.36747 -3.73256,1.45267 -5.81625,2.62163 -5.90312,2.67063 -0.65733,0.37083 -0.93476,1.06775 -0.73506,1.69797 0.0364,-0.021 0.0767,-0.0407 0.12126,-0.0593 0.058,-0.024 0.10965,-0.06 0.16924,-0.0817 0.0776,-0.0344 0.15479,-0.0718 0.22481,-0.11753 0.0833,-0.052 0.17934,-0.11486 0.25637,-0.15557 0.0845,-0.0509 0.16948,-0.0993 0.25891,-0.14328 0.0595,-0.0271 0.11624,-0.0645 0.17935,-0.0862 0.089,-0.0509 0.18103,-0.0968 0.27154,-0.14551 0.12086,-0.0567 0.24009,-0.12063 0.3751,-0.14663 0.11368,-0.0299 0.22556,-0.0645 0.341,-0.0884 0.0943,-0.0574 0.19409,-0.10602 0.29301,-0.1567 v -8.3e-4 -8.4e-4 -8.3e-4 l 9.4e-4,-8.3e-4 c 0.0273,-0.0225 0.21827,-0.0771 0.24123,-0.0907 l 9.4e-4,-8.3e-4 v -8.4e-4 -8.3e-4 c 0.0583,-0.0483 0.15012,-0.0877 0.22608,-0.12536 0.0886,-0.0451 0.19023,-0.0725 0.2728,-0.12648 0.11846,-0.0771 0.26335,-0.11533 0.38269,-0.19028 0.12876,-0.0778 0.26144,-0.14924 0.39909,-0.21378 0.17111,-0.0717 0.34075,-0.14549 0.51781,-0.20483 0.17599,-0.0652 0.35695,-0.11786 0.54308,-0.15446 0.11913,-0.0416 0.24781,-0.0536 0.36879,-0.0884 0.12716,-0.0282 0.25096,-0.0651 0.37637,-0.0985 0.15544,-0.0333 0.3092,-0.0715 0.46602,-0.0996 0.12013,-0.0347 0.24609,-0.051 0.36879,-0.0761 0.0573,-0.0321 0.11129,-0.07 0.17304,-0.094 0.0707,-0.0318 0.14036,-0.0647 0.20964,-0.0985 0.10218,-0.0637 0.2091,-0.11999 0.31827,-0.17349 0.1174,-0.0544 0.23731,-0.10382 0.35237,-0.1623 0.0723,-0.0318 0.14577,-0.0617 0.21345,-0.10073 0.11169,-0.0754 0.22854,-0.14158 0.35362,-0.19812 0.11616,-0.062 0.2393,-0.11511 0.34606,-0.19027 0.13266,-0.0715 0.2593,-0.14954 0.39531,-0.21603 0.13514,-0.0751 0.27569,-0.14353 0.41552,-0.21154 0.0949,-0.0379 0.18506,-0.0825 0.27784,-0.12425 0.12092,-0.0506 0.2482,-0.0873 0.37384,-0.1276 0.11353,-0.0267 0.22489,-0.0599 0.34101,-0.0772 0.14128,-0.0312 0.28251,-0.0633 0.42561,-0.0873 0.15985,-0.0375 0.31724,-0.0834 0.47741,-0.11977 0.0526,-0.0142 0.10499,-0.0274 0.15787,-0.0403 -0.005,-0.0785 -0.008,-0.15695 -0.0114,-0.23505 -4e-5,-5.7e-4 4e-5,-0.002 0,-0.002 v -8.4e-4 -8.3e-4 -8.3e-4 -8.4e-4 h 9.4e-4 v -8.3e-4 l 9.5e-4,-8.3e-4 v -8.4e-4 l 9.4e-4,-8.3e-4 h 9.4e-4 l 9.5e-4,-0.004 c 0.0168,-0.008 0.0562,-0.002 0.0771,-0.007 0.20979,-0.0409 0.41188,-0.1111 0.62897,-0.11976 0.23341,-0.006 0.46672,-0.015 0.69968,-0.0291 0.31839,-0.0652 0.63624,-0.13231 0.9548,-0.197 0.0141,-0.16249 0.1832,-0.34206 0.52792,-0.42197 0.20228,-0.0467 0.40427,-0.0937 0.60748,-0.13767 0.2609,-0.0631 0.52602,-0.11233 0.7881,-0.17126 0.18525,-0.0377 0.37018,-0.0746 0.55192,-0.12424 0.17984,-0.0416 0.35827,-0.086 0.53802,-0.1276 0.16814,-0.0386 0.33796,-0.0745 0.50645,-0.11193 0.18357,-0.0392 0.36379,-0.0867 0.54813,-0.12311 0.18004,-0.0416 0.36131,-0.077 0.53929,-0.12536 0.22027,-0.06 0.44883,-0.0926 0.67316,-0.13768 0.18208,-0.0301 0.35937,-0.0748 0.54055,-0.10857 0.17405,-0.0372 0.34658,-0.0792 0.52035,-0.11753 0.21041,-0.0344 0.42067,-0.0736 0.63149,-0.10633 0.18836,-0.0173 0.37291,-0.052 0.55948,-0.0795 0.17294,-0.0333 0.34486,-0.0711 0.51402,-0.11752 0.18744,-0.0678 0.37638,-0.13152 0.57088,-0.18133 0.24604,-0.06 0.50045,-0.0801 0.75399,-0.0974 0.14405,-0.009 0.28772,-0.0137 0.43193,-0.0168 0.13905,-0.0249 0.2782,-0.0522 0.41679,-0.0784 0.12803,-0.0162 0.25062,-0.0422 0.37509,-0.0716 0.12909,-0.0273 0.25607,-0.063 0.3852,-0.0907 0.13919,-0.0284 0.28088,-0.0394 0.4231,-0.0459 0.13194,0.002 0.26106,-0.0151 0.39152,-0.0302 0.21072,-0.0234 0.42311,-0.0338 0.63527,-0.0403 0.0378,-8.3e-4 0.0758,-8.3e-4 0.11367,-0.002 0.0438,-0.009 0.0875,-0.0175 0.13135,-0.0257 0.15653,-0.0199 0.31011,-0.0527 0.46604,-0.0761 0.15355,-0.0236 0.30941,-0.035 0.46477,-0.0436 0.15828,-0.004 0.315,-0.007 0.47235,-0.0224 0.19384,-0.0219 0.38526,-0.0564 0.57844,-0.0828 0.12714,-0.0108 0.24981,-0.0317 0.37384,-0.0571 0.14037,-0.0277 0.28149,-0.0545 0.42309,-0.0772 0.0499,-0.008 0.0978,-0.0127 0.14272,-0.0146 0.12242,-0.005 0.22509,0.0127 0.30691,0.0447 0.17086,-0.0272 0.34125,-0.0596 0.51402,-0.0761 0.17633,-0.0201 0.35166,-0.0218 0.52919,-0.0224 0.1915,-0.005 0.38413,-0.0143 0.57338,-0.0426 0.2568,-0.0202 0.51244,-0.0333 0.77041,-0.0269 0.20362,0 0.40766,5.7e-4 0.61127,-0.002 0.18797,-0.002 0.37554,-0.007 0.5633,-0.0157 0.26768,-0.0119 0.53603,-0.0275 0.80324,-0.047 0.2359,-0.0108 0.47108,-0.005 0.70726,-0.006 h 0.72115 0.82978 0.67695 c 0.21528,0 0.43135,10e-6 0.64664,0 0.24239,-3e-5 0.48381,-0.007 0.72621,-0.007 0.21731,-1.3e-4 0.43439,5.7e-4 0.65168,0 0.25626,-0.002 0.51292,-0.002 0.76915,-0.007 0.22553,-0.005 0.45204,-0.01 0.67696,-0.0247 0.226,-0.0169 0.45099,-0.0461 0.67821,-0.0447 0.20894,-0.002 0.41771,-0.006 0.62643,-0.0146 0.22654,-0.0111 0.45222,-0.0286 0.67821,-0.0459 0.28751,-0.013 0.57496,0.002 0.86262,0.007 0.2789,0.007 0.55786,0.0186 0.83608,0.0381 0.25105,0.0175 0.50188,0.0311 0.754,0.0224 0.23513,2e-5 0.47085,-3.2e-4 0.70599,0.003 0.21941,0.002 0.4388,0.004 0.65801,0.0134 0.19954,0.009 0.39879,0.0214 0.59612,0.0504 0.17678,0.0234 0.35423,0.0252 0.53171,0.0426 0.12712,0.0158 0.25107,0.0452 0.37762,0.0582 0.19162,0.0191 0.38385,0.0437 0.56835,0.0951 0.18603,0.0565 0.36907,0.12221 0.54433,0.20148 0.0723,0.0312 0.14674,0.0595 0.22102,0.0873 0.0299,-5.7e-4 0.0595,-8.3e-4 0.0897,-8.3e-4 0.048,-3.4e-4 0.0971,8e-5 0.14524,0 0.0418,-5e-5 0.0833,0 0.12504,0 0.0396,0 0.079,1e-5 0.11872,0 h 0.14523 c 0.0639,-0.002 0.12676,-5.8e-4 0.18946,0.0123 0.0393,0.009 0.0795,0.0125 0.11998,0.0168 0.0413,0.002 0.0834,0.006 0.12503,0.007 0.0674,-0.005 0.13332,0.003 0.19954,0.0146 0.066,0.0106 0.13003,0.0295 0.19577,0.0403 0.0682,0.0126 0.13636,0.0286 0.20333,0.0459 0.0601,0.0187 0.12235,0.0297 0.18313,0.047 0.0579,0.0137 0.11119,0.0376 0.16798,0.0548 0.0501,0.007 0.0992,0.0183 0.14777,0.0313 0.0469,0.0117 0.0944,0.0182 0.14146,0.0291 0.0506,0.013 0.1013,0.0241 0.15028,0.0414 0.0151,0.005 0.0295,0.0108 0.0442,0.0168 0.0407,0.007 0.0817,0.013 0.12251,0.019 0.10716,0.008 0.21448,0.0187 0.31951,0.0403 0.0979,0.0182 0.19756,0.03 0.2905,0.0649 0.0849,0.0306 0.17456,0.0506 0.2589,0.0828 0.0858,0.0321 0.17385,0.0591 0.26144,0.0873 0.0849,0.0275 0.16895,0.0553 0.25385,0.0828 0.069,0.0247 0.13855,0.0497 0.21092,0.0649 0.0787,0.0164 0.15619,0.0376 0.23491,0.0548 0.008,0.002 0.0172,0.006 0.0265,0.007 0.046,0.004 0.0927,0.007 0.13893,0.007 0.0734,0.002 0.14635,0.005 0.21976,0.006 0.061,4.7e-4 0.12211,0.002 0.18314,0.002 0.0476,8e-5 0.0951,0 0.1427,0 0.0598,-0.002 0.11842,-5.8e-4 0.17682,0.0123 0.0282,0.009 0.0564,0.0147 0.0859,0.0168 0.0446,0.002 0.0886,0.007 0.13262,0.0134 0.0448,0.0134 0.09,0.0262 0.13387,0.0414 0.0245,0.009 0.0485,0.0124 0.0745,0.0168 0.0478,0.005 0.0942,0.009 0.14019,0.0224 0.0492,0.009 0.096,0.0262 0.14398,0.0392 0.0527,0.008 0.10196,0.0262 0.15282,0.0392 0.0216,0.006 0.0129,0.005 0.029,0.007 0.0905,0.0172 0.1545,0.0487 0.19576,0.0873 0.0339,0.002 0.0686,0.005 0.10228,0.009 0.0682,0.007 0.13476,0.0237 0.20334,0.0302 0.075,0.009 0.14946,0.0222 0.21849,0.0504 0.0482,0.0184 0.0967,0.0376 0.14524,0.0548 0.0644,0.0184 0.12797,0.0376 0.19198,0.0571 0.0559,0.0203 0.11226,0.0396 0.1705,0.0548 0.0819,0.0242 0.16125,0.0548 0.24249,0.0806 0.0663,0.0241 0.13397,0.0441 0.20334,0.0593 0.0845,0.0234 0.16577,0.0541 0.24754,0.084 0.0784,0.0288 0.15657,0.0569 0.23616,0.0828 0.0763,0.0249 0.15142,0.0555 0.22986,0.075 0.0866,0.0242 0.17196,0.0509 0.25892,0.0739 0.0817,0.0227 0.1625,0.0486 0.24628,0.0638 0.10304,0.0182 0.2075,0.0308 0.31069,0.0481 0.0795,0.0173 0.15495,0.0432 0.23111,0.0694 0.0652,0.0217 0.13133,0.0397 0.19829,0.0571 0.0744,0.0191 0.15167,0.0297 0.22481,0.0526 0.0743,0.0223 0.14898,0.0409 0.21977,0.0716 0.0701,0.0245 0.13853,0.0521 0.20838,0.0772 0.0656,0.0247 0.13474,0.0431 0.20333,0.0605 0.0666,0.018 0.13297,0.0342 0.19829,0.056 0.0681,0.015 0.13634,0.0293 0.20586,0.0381 0.0859,0.013 0.17579,0.005 0.26145,0.0224 0.076,0.0117 0.14977,0.0295 0.22608,0.0403 0.0708,0.0134 0.14103,0.0295 0.21216,0.0426 0.0708,0.0152 0.14224,0.0262 0.21345,0.0392 0.072,0.0173 0.14348,0.0342 0.2147,0.0537 0.0653,0.0212 0.1302,0.0446 0.1945,0.0683 0.0591,0.018 0.11702,0.0383 0.17429,0.0605 0.0631,0.0184 0.12615,0.0387 0.18944,0.056 0.056,0.0191 0.11369,0.0354 0.16924,0.0548 0.0664,0.0184 0.13138,0.0397 0.19829,0.0571 0.0766,0.0197 0.15422,0.0346 0.22606,0.0671 0.0623,0.0212 0.12436,0.0443 0.18693,0.0638 0.0813,0.0219 0.16436,0.041 0.24628,0.0604 0.0929,0.0247 0.18399,0.0507 0.27153,0.0884 0.0316,0.0135 0.0635,0.0271 0.0947,0.0414 0.23047,0.0554 0.45999,0.11247 0.68579,0.18133 0.23975,0.0729 0.47864,0.14848 0.71737,0.22386 0.17635,0.0554 0.35558,0.10338 0.53045,0.1623 0.16125,0.0517 0.30582,0.13515 0.45594,0.20706 0.16259,0.0778 0.32254,0.15996 0.48119,0.24401 0.18643,0.10113 0.37222,0.2021 0.56454,0.29437 0.16104,0.0775 0.32227,0.15538 0.47993,0.23841 0.0398,0.006 0.0819,0.0146 0.12503,0.0257 0.17326,0.0448 0.34808,0.0841 0.51908,0.13544 0.1351,0.0467 0.27349,0.0826 0.40921,0.12759 0.14111,0.0362 0.27659,0.0866 0.40667,0.14663 0.13878,0.072 0.27073,0.15318 0.41173,0.22162 0.14033,0.0712 0.27259,0.153 0.4092,0.22946 0.12609,0.0784 0.26348,0.13992 0.39278,0.21378 0.12747,0.0648 0.24972,0.13805 0.37258,0.20931 0.11962,0.0681 0.24416,0.12652 0.35868,0.20147 0.0842,0.0615 0.17758,0.1115 0.26775,0.16565 0.10391,0.057 0.20036,0.12325 0.29933,0.18693 0.073,0.0438 0.14678,0.0918 0.22607,0.12647 0.11962,0.0377 0.2312,0.0965 0.33721,0.15782 0.0846,0.0502 0.18017,0.0788 0.27028,0.11978 0.038,0.0205 0.0766,0.0397 0.11493,0.0593 0.0564,-0.0267 0.12456,-0.0431 0.20333,-0.0459 0.10619,-0.004 0.23085,0.0165 0.37004,0.0716 0.059,0.0227 0.0365,0.0117 0.0707,0.0292 0.1115,0.0325 0.22594,0.065 0.33721,0.10073 0.67796,0.21849 0.51611,0.76942 -0.0644,0.72418 -0.2501,0.1457 -0.52567,0.2859 -0.20713,0.33244 -0.0733,-0.008 -0.14608,-0.0193 -0.21723,-0.0381 -0.0913,-0.0258 -0.10033,-0.036 -0.19197,-0.0403 -0.0962,-0.0119 -0.19199,-0.0252 -0.28669,-0.0447 h -0.38773 c -0.0937,0.0194 -0.18872,0.0336 -0.28416,0.0447 -0.11083,0.003 -0.21601,0.0176 -0.32333,0.0392 -0.10315,0.0102 -0.19923,0.0423 -0.29806,0.0683 -0.0388,0.01 -0.0786,0.0181 -0.11871,0.0247 -0.0469,0.0119 -0.095,0.0201 -0.14398,0.0269 -0.0204,0.002 -0.0404,0.004 -0.0606,0.006 -0.0874,0.0287 -0.18542,0.0282 -0.2728,0.0548 -0.0943,0.0319 -0.19656,0.0389 -0.29048,0.0705 -0.11018,0.0444 -0.23253,0.0513 -0.34731,0.0795 -0.10239,0.028 -0.20651,0.0498 -0.31196,0.0671 -0.0775,0.008 -0.15045,0.0353 -0.22607,0.0526 v 8.4e-4 h -9.5e-4 c -0.008,0.003 -0.0295,0.007 -0.0581,0.0123 -0.16029,0.15144 -0.35795,0.23637 -0.59485,0.26527 -0.21575,0.086 -0.44191,0.14754 -0.66684,0.21267 -0.20234,0.0583 -0.40635,0.11522 -0.60876,0.17349 -0.1956,0.0656 -0.39905,0.11179 -0.60243,0.15445 -0.22894,0.0546 -0.46206,0.0939 -0.69085,0.14888 -0.22539,0.0565 -0.45391,0.10067 -0.68073,0.15222 -0.24644,0.0472 -0.48984,0.10634 -0.73632,0.15334 -0.19342,0.033 -0.38488,0.0728 -0.57591,0.11529 -0.2474,0.0574 -0.49459,0.11504 -0.74137,0.1746 -0.29204,0.0708 -0.58462,0.1412 -0.88028,0.19924 -0.24235,0.0554 -0.48711,0.10096 -0.73,0.15446 -0.29268,0.0691 -0.58989,0.11862 -0.8866,0.17126 -0.26331,0.0501 -0.53071,0.0893 -0.79188,0.14774 -0.18424,0.0392 -0.36697,0.0822 -0.55066,0.12312 -0.18145,0.0356 -0.36577,0.061 -0.54561,0.10297 -0.16826,0.0386 -0.33765,0.0725 -0.5077,0.1041 -0.14937,0.0234 -0.30089,0.0259 -0.45214,0.028 -0.0111,1.7e-4 -0.0217,-1.7e-4 -0.033,0 0.34705,0.53589 0.99914,0.8764 1.7088,0.8764 0.13318,0 0.26979,-0.0124 0.40541,-0.037 2.59284,-0.4764 5.18452,-0.95289 7.77736,-1.42933 1.49833,-0.27514 2.99757,-0.55061 4.49617,-0.82604 0.0518,-0.14032 0.22297,-0.27633 0.52666,-0.33131 0.18926,-0.0342 0.37153,-0.0916 0.55444,-0.1455 0.22995,-0.0761 0.45094,-0.16961 0.67695,-0.25409 0.20004,-0.0656 0.40532,-0.11858 0.61255,-0.16342 0.14532,-0.0288 0.28166,-0.0789 0.41172,-0.14215 0.1726,-0.0788 0.33538,-0.17256 0.50771,-0.25184 0.18451,-0.0845 0.37977,-0.14411 0.57845,-0.19587 0.29067,-0.0843 0.58498,-0.1587 0.88154,-0.22499 0.027,-0.007 0.0479,-0.0117 0.0644,-0.0157 0.12885,-0.31146 0.15225,-0.64399 0.0758,-0.95923 -0.15377,-0.0119 -0.32449,-0.11128 -0.45089,-0.32907 -0.0255,-0.044 -0.0634,-0.0815 -0.0846,-0.1276 -0.0303,-0.0578 -0.0639,-0.0961 -0.0985,-0.15109 -0.052,-0.0793 -0.0965,-0.16243 -0.15283,-0.23954 -0.0383,-0.0635 -0.0838,-0.12353 -0.13007,-0.18244 l 0.009,0.008 c -0.002,-0.003 -0.0109,-0.0123 -0.0227,-0.0269 -0.0305,-0.0364 -0.0607,-0.0733 -0.0897,-0.11081 -0.005,-0.004 -0.01,-0.0103 -0.0139,-0.0168 -0.0621,-0.0855 -0.12123,-0.17337 -0.17556,-0.26304 -0.0453,-0.1 -0.11186,-0.19293 -0.14146,-0.29885 -0.0262,-0.0864 -0.0612,-0.17102 -0.087,-0.25743 -2.77022,-3.35002 -5.54104,-6.69931 -8.31161,-10.049 -0.4012,-0.48488 -1.03344,-0.73319 -1.66584,-0.713 z m 5.2426,9.06067 c -0.007,0.0182 -0.0147,0.0356 -0.024,0.0526 0.0164,0.007 0.033,0.0152 0.0493,0.0224 h 9.4e-4 v 8.3e-4 h 9.5e-4 9.4e-4 9.4e-4 l 9.5e-4,8.3e-4 h 9.4e-4 9.5e-4 v 8.4e-4 h 9.4e-4 c 0.0184,0.009 0.0363,0.0181 0.0556,0.0257 0.0127,0.005 0.0262,0.0105 0.0391,0.0146 -0.043,-0.0397 -0.0864,-0.0794 -0.13009,-0.11865 z m -1.41958,2.9594 c 0.008,0.0161 0.0174,0.0328 0.0253,0.0492 0.0123,-0.007 0.0241,-0.0124 0.0366,-0.0168 -0.0186,-0.01 -0.0368,-0.0195 -0.0556,-0.0291 -0.002,-8.3e-4 -0.005,-0.002 -0.007,-0.003 z m -0.74768,0.61114 c 0.0154,0.0135 0.0294,0.0272 0.0415,0.0381 -0.0116,-0.0142 -0.0276,-0.0318 -0.0415,-0.0381 z m 0.0518,0.0224 c 0.006,0.017 0.01,0.0288 0.01,0.0336 v 8.3e-4 c 0.006,0.005 0.0109,0.009 0.0151,0.0134 -0.007,-0.0186 -0.0147,-0.0307 -0.0202,-0.047 l -9.5e-4,8.3e-4 h -9.4e-4 l -9.4e-4,-8.3e-4 z m 0.88535,0.2843 c 9.4e-4,0.0253 0.003,0.0507 0.005,0.0761 0.008,-0.0171 0.0159,-0.035 0.024,-0.0537 -0.009,-0.007 -0.0187,-0.015 -0.0278,-0.0224 z m 1.59386,0.0873 c 0.006,0.0124 0.01,0.0243 0.0139,0.037 0.0159,-0.002 0.032,-0.002 0.048,-0.004 -0.0201,-0.0117 -0.041,-0.0222 -0.0619,-0.0324 z" /><path
       id="path3-9"
       style="opacity:1;fill:#4a7c59;fill-opacity:1;fill-rule:nonzero;stroke:none;stroke-width:0.00591822"
       d="m -304.49658,504.11267 c -0.0107,-0.0272 -0.0203,-0.0545 -0.0282,-0.0833 -0.12303,-0.44935 0.14885,-0.9115 0.60618,-1.03175 1.21144,-0.32086 2.43725,-0.6701 3.64334,-1.03792 0.0847,-0.0259 0.17046,-0.0371 0.25464,-0.0371 0.3654,0 0.70306,0.23084 0.8171,0.59221 0.0121,0.0365 0.0202,0.0728 0.0266,0.10943 -0.0655,0.0138 -0.13015,0.0288 -0.1953,0.0446 -0.14835,0.0399 -0.30113,0.0535 -0.45149,0.0833 -0.15409,0.036 -0.30765,0.072 -0.45464,0.13107 -0.0682,0.0268 -0.13821,0.0404 -0.21091,0.0494 -0.13602,0.0233 -0.26658,0.0701 -0.40308,0.091 -0.13337,0.009 -0.25968,0.0578 -0.39059,0.0786 -0.1947,0.0308 -0.38714,0.0744 -0.57806,0.12338 -0.18845,0.0603 -0.37728,0.12447 -0.56242,0.19431 -0.14204,0.0573 -0.29332,0.0818 -0.44058,0.12184 -0.16038,0.0356 -0.31004,0.10369 -0.46557,0.15422 -0.15182,0.0657 -0.30473,0.12826 -0.45777,0.19123 -0.1272,0.0543 -0.25784,0.1017 -0.39213,0.13571 -0.10987,0.0166 -0.21188,0.057 -0.31716,0.0894 z" /><path
       id="path4-2"
       style="opacity:1;fill:#4a7c59;fill-opacity:1;fill-rule:nonzero;stroke:none;stroke-width:0.00591822"
       d="m -323.62876,507.0614 c -0.25481,-2.1e-4 -0.50917,-5.8e-4 -0.76398,-10e-4 -0.30936,0 -0.61866,-0.004 -0.92801,-0.007 -0.31011,-0.006 -0.62019,-0.008 -0.92958,-0.0323 -0.33866,-0.025 -0.67711,-0.0617 -1.01708,-0.0586 -0.3205,-4e-5 -0.64188,1.5e-4 -0.96238,0 -0.34108,-1.9e-4 -0.68226,-5e-4 -1.02333,-10e-4 -0.29983,0 -0.59851,1.1e-4 -0.89833,-0.006 -0.34429,-0.007 -0.68895,-0.0131 -1.03269,-0.0339 -0.369,-0.0223 -0.7377,-0.0611 -1.1077,-0.0586 -0.39583,0 -0.79152,-2.4e-4 -1.18735,-0.004 -0.4484,-0.004 -0.89693,-0.005 -1.34516,-0.0201 -0.4564,-0.0152 -0.91289,-0.038 -1.3686,-0.0679 -0.38017,-0.0149 -0.76012,-0.008 -1.14048,-0.0201 -0.31172,-0.0105 -0.62392,-0.0284 -0.93428,-0.0602 -0.41063,-0.0412 -0.82044,-0.0949 -1.23266,-0.11875 -0.25728,-0.0208 -0.51471,-0.0341 -0.7718,-0.0524 -0.007,-0.0616 -0.007,-0.12569 0.001,-0.18969 0.0552,-0.46226 0.4806,-0.79329 0.95145,-0.73873 v 10e-4 c 9.91355,1.14386 19.93658,0.70978 29.79345,-1.28777 0.0586,-0.0118 0.11766,-0.0185 0.17497,-0.0185 0.39823,0 0.75539,0.2741 0.83897,0.6724 0.009,0.0451 0.0152,0.0898 0.0172,0.13417 -0.12599,0.0188 -0.2528,0.0328 -0.37965,0.0446 -0.13885,0.009 -0.27941,0.0156 -0.4187,0.0185 -0.15723,0.0143 -0.30932,0.0547 -0.46556,0.0755 -0.11913,0.0149 -0.23947,0.0201 -0.35934,0.0232 -0.17877,0.0204 -0.35603,0.0552 -0.52963,0.10182 -0.0972,0.0274 -0.19203,0.0653 -0.29216,0.0802 -0.15557,0.0426 -0.31179,0.0824 -0.46557,0.13108 -0.1821,0.0426 -0.35832,0.10111 -0.53431,0.16347 -0.16469,0.0593 -0.34021,0.0792 -0.51088,0.11411 -0.19062,0.043 -0.38285,0.0735 -0.5718,0.12337 -0.19137,0.0541 -0.37365,0.13484 -0.564,0.19124 -0.19389,0.0589 -0.38811,0.11896 -0.58118,0.18045 -0.2067,0.0857 -0.42448,0.13761 -0.64055,0.19431 -0.0356,0.0105 -0.0707,0.0205 -0.10624,0.0309 h -0.30934 -0.75772 -0.57026 -0.39683 -0.45151 -0.49525 c -0.20556,-0.004 -0.41045,-0.006 -0.61555,0.009 -0.26687,0.0226 -0.53081,0.0624 -0.79522,0.10334 -0.24964,0.048 -0.49622,0.11224 -0.74211,0.17582 -0.18361,0.0475 -0.32389,0.12099 -0.42339,0.20667 h -0.79835 -0.92332 c -0.25094,0 -0.50211,2e-5 -0.75303,0 -0.22759,-4e-5 -0.45518,1.2e-4 -0.68275,0 z" /><path
       id="path5-4"
       style="opacity:1;fill:#4a7c59;fill-opacity:1;fill-rule:nonzero;stroke:none;stroke-width:0.00494636"
       d="m -297.05586,509.1925 c -0.40736,-0.013 -0.81534,-0.12906 -1.17079,-0.35521 0.0238,-0.022 0.0481,-0.0449 0.0715,-0.0673 0.0912,-0.0923 0.17345,-0.18995 0.25697,-0.28784 0.053,-0.0666 0.0995,-0.12123 0.16353,-0.18617 0.0648,-0.0801 0.1206,-0.16585 0.17177,-0.25355 0.0362,-0.0514 0.072,-0.10696 0.114,-0.15554 0.0537,-0.0843 0.10207,-0.17015 0.15527,-0.25477 0.007,-0.0136 0.0161,-0.0307 0.0261,-0.049 0.0509,-0.0624 0.10313,-0.12368 0.15803,-0.18372 0.11867,-0.12775 0.23174,-0.25861 0.34766,-0.38826 0.082,-0.0879 0.16519,-0.17528 0.24185,-0.26701 0.0733,-0.0948 0.15269,-0.18611 0.23224,-0.27681 0.0776,-0.0438 0.15585,-0.1058 0.23223,-0.18862 0.0485,-0.0524 0.10089,-0.10152 0.14703,-0.15556 0.0106,-0.0115 0.022,-0.0226 0.033,-0.0343 0.0118,-0.008 0.0238,-0.0171 0.0357,-0.0257 0.17325,-0.11486 0.30981,-0.26596 0.45072,-0.41031 0.13233,-0.14994 0.25257,-0.30731 0.3614,-0.47155 0.056,-0.0879 0.11483,-0.17485 0.17453,-0.26089 0.0806,-0.0883 0.15297,-0.18157 0.22673,-0.27435 0.0731,-0.10097 0.14796,-0.20102 0.22399,-0.30008 0.0175,-0.0244 0.0347,-0.0492 0.0522,-0.0735 0.0273,0.0151 0.0559,0.0312 0.0851,0.0478 0.0287,-0.0411 0.0542,-0.0825 0.0783,-0.1237 0.0445,-0.0404 0.0933,-0.12274 0.1814,-0.25354 0.0492,-0.0708 0.0987,-0.1414 0.1484,-0.2119 0.0204,-0.0206 0.041,-0.0408 0.0617,-0.0612 0.13052,-0.12928 0.2582,-0.2611 0.39576,-0.38459 0.15421,-0.15503 0.30904,-0.31013 0.46447,-0.4642 0.12893,-0.13817 0.26776,-0.26798 0.40537,-0.39928 0.12963,-0.11952 0.24858,-0.24704 0.3573,-0.38214 0.0985,-0.10849 0.19178,-0.21946 0.29956,-0.3209 0.0643,-0.0789 0.15661,-0.14194 0.24048,-0.20333 0.12486,-0.0773 0.26139,-0.14154 0.37239,-0.23516 0.0924,-0.0784 0.18777,-0.15443 0.27484,-0.23761 0.0741,-0.0793 0.15436,-0.17401 0.19925,-0.25721 0.0478,-0.0671 0.0983,-0.13222 0.15116,-0.19598 0.0589,-0.0732 0.11117,-0.15058 0.17314,-0.22168 0.0786,-0.0929 0.1448,-0.1937 0.2336,-0.27926 0.0812,-0.0841 0.15982,-0.17008 0.23361,-0.25965 0.0829,-0.0837 0.10337,-0.11845 0.1869,-0.20946 0.0513,-0.0664 0.0989,-0.13395 0.14016,-0.20576 0.0434,-0.0644 0.0654,-0.10512 0.14703,-0.18618 0.0407,-0.0694 0.10408,-0.13011 0.14978,-0.19719 0.0863,-0.1058 0.15679,-0.21761 0.21712,-0.33682 -0.006,0.005 -0.009,0.008 -0.0124,0.01 l -8.8e-4,7.9e-4 h -8.8e-4 v -7.9e-4 c 0.009,-0.0186 0.10443,-0.12857 0.14703,-0.18618 0.009,-0.013 0.0185,-0.0274 0.0275,-0.0416 0.053,-0.0779 0.10077,-0.15862 0.15391,-0.23639 0.0905,-0.0361 0.18535,-0.0952 0.27895,-0.1825 0.0678,-0.0633 0.14748,-0.11723 0.20749,-0.1874 0.1126,-0.11389 0.22736,-0.22788 0.32293,-0.35397 0.0839,-0.11079 0.13252,-0.21393 0.15392,-0.30498 0.0355,-0.025 0.0723,-0.0527 0.10856,-0.0845 0.14215,-0.12468 0.23425,-0.28663 0.36553,-0.41889 0.0106,-0.0103 0.0218,-0.0224 0.033,-0.0318 0.59856,-0.56533 -0.0407,-1.10659 -0.63074,-0.56463 -0.0588,-0.20828 -0.14652,-0.33808 -0.34493,-0.0821 -0.0688,0.0888 -0.0622,0.0877 -0.13328,0.17147 -0.0165,0.021 -0.0933,0.10563 -0.099,0.1188 v 8e-4 c -0.0625,0.0553 -0.12498,0.11176 -0.18962,0.16534 -0.046,0.0369 -0.0932,0.0713 -0.14154,0.10535 -0.01,0.005 -0.0165,0.009 -0.0206,0.011 -0.1211,0.0747 -0.22886,0.16342 -0.32842,0.25966 -0.0634,0.0682 -0.13291,0.13696 -0.21437,0.18863 -0.12362,0.0627 -0.20926,0.16606 -0.31605,0.24617 -0.0947,0.0732 -0.18308,0.15428 -0.2927,0.21068 -0.0337,0.0179 -0.0661,0.038 -0.0976,0.0589 -0.10597,-0.0108 -0.2121,-0.0154 -0.32018,-0.011 -0.12896,0.009 -0.25729,0.0253 -0.3834,0.0502 -0.1465,0.0312 -0.25613,0.12459 -0.38476,0.1874 -0.13332,0.0585 -0.24982,0.14308 -0.37789,0.20944 -0.13978,0.0751 -0.28124,0.14526 -0.41225,0.23272 -0.11839,0.078 -0.23956,0.15046 -0.35729,0.22903 -0.0431,0.0102 -0.0862,0.0211 -0.12916,0.0318 -0.34087,0.0869 -0.50581,0.26158 -0.52631,0.42624 v 7.9e-4 h -8.8e-4 l -8.8e-4,8e-4 c -8.26838,3.12944 -16.74246,5.13456 -25.2736,5.97586 -8.56578,0.84466 -17.20344,0.52339 -25.6721,-0.95535 -7.53656,-1.31563 -13.54528,-3.32518 -17.25948,-4.77922 -4.06118,-1.58962 -6.32833,-2.86879 -6.42284,-2.9224 -0.71521,-0.4058 -1.01705,-1.16841 -0.79977,-1.85805 0.0397,0.0229 0.0834,0.0446 0.13193,0.0649 0.0631,0.0262 0.1193,0.0657 0.18414,0.0894 0.0844,0.0377 0.16841,0.0786 0.2446,0.12861 0.0906,0.0569 0.19513,0.12568 0.27895,0.17024 0.0919,0.0557 0.18441,0.10867 0.2817,0.15678 0.0647,0.0296 0.12648,0.0707 0.19514,0.0943 0.0969,0.0557 0.19697,0.1059 0.29544,0.15924 0.13151,0.0621 0.26124,0.132 0.40813,0.16044 0.12369,0.0327 0.24542,0.0705 0.37102,0.0968 0.10267,0.0628 0.21119,0.11601 0.31881,0.17148 v 7.9e-4 7.9e-4 8e-4 l 8.8e-4,7.9e-4 c 0.0296,0.0246 0.23748,0.0844 0.26247,0.0992 l 8.8e-4,7.9e-4 v 8e-4 7.9e-4 c 0.0634,0.0529 0.16333,0.0959 0.24598,0.13718 0.0964,0.0493 0.20699,0.0793 0.29682,0.1384 0.12889,0.0844 0.28653,0.12621 0.41638,0.20821 0.14009,0.0851 0.28446,0.16332 0.43422,0.23395 0.18618,0.0785 0.37075,0.1592 0.56341,0.22414 0.19149,0.0714 0.38837,0.12896 0.5909,0.16901 0.12962,0.0454 0.26962,0.0586 0.40125,0.0968 0.13836,0.0307 0.27306,0.0713 0.4095,0.10779 0.16913,0.0365 0.33642,0.0781 0.50706,0.10902 0.13071,0.038 0.26775,0.0558 0.40125,0.0833 0.0624,0.0351 0.1211,0.0766 0.18827,0.10288 0.0769,0.0349 0.15273,0.0709 0.22811,0.10779 0.11117,0.0697 0.22752,0.1313 0.34628,0.18984 0.12774,0.0595 0.25821,0.11361 0.3834,0.1776 0.0787,0.0349 0.1586,0.0676 0.23224,0.11022 0.12153,0.0825 0.24867,0.15494 0.38476,0.2168 0.12638,0.0678 0.26036,0.12597 0.37652,0.20821 0.14435,0.0782 0.28214,0.16364 0.43012,0.2364 0.14704,0.0823 0.29997,0.15707 0.45209,0.23149 0.10325,0.0415 0.20137,0.0903 0.30232,0.13596 0.13156,0.0554 0.27004,0.0955 0.40675,0.13963 0.12352,0.0292 0.24469,0.0655 0.37102,0.0845 0.15374,0.0341 0.3074,0.0693 0.46309,0.0955 0.17393,0.041 0.34516,0.0913 0.51944,0.13104 0.0572,0.0156 0.11424,0.03 0.17178,0.0442 -0.004,0.0859 -0.008,0.17174 -0.0124,0.25721 -4e-5,6.2e-4 4e-5,0.002 0,0.003 v 8e-4 7.9e-4 7.9e-4 8e-4 h 8.8e-4 v 7.9e-4 l 8.8e-4,8e-4 v 7.9e-4 l 8.8e-4,8e-4 h 8.8e-4 l 8.8e-4,0.005 c 0.0183,0.008 0.061,0.002 0.0839,0.007 0.22826,0.0447 0.44815,0.12157 0.68434,0.13104 0.25397,0.006 0.50782,0.0164 0.76128,0.0318 0.34643,0.0714 0.69227,0.14478 1.03887,0.21557 0.0154,0.1778 0.19934,0.37431 0.5744,0.46175 0.22009,0.0511 0.43986,0.10253 0.66097,0.15065 0.28386,0.0689 0.57233,0.12292 0.85748,0.1874 0.20157,0.0413 0.40277,0.0817 0.6005,0.13596 0.19569,0.0454 0.38983,0.0941 0.5854,0.13962 0.18295,0.0422 0.36772,0.0815 0.55105,0.12248 0.19972,0.043 0.3958,0.0949 0.59638,0.13473 0.19588,0.0454 0.39313,0.0843 0.58676,0.13718 0.23968,0.0656 0.48836,0.10136 0.73243,0.15066 0.19811,0.0329 0.39102,0.0819 0.58814,0.1188 0.18938,0.0407 0.3771,0.0867 0.56617,0.12861 0.22893,0.0377 0.4577,0.0806 0.68707,0.11635 0.20497,0.019 0.40576,0.0569 0.60876,0.087 0.18817,0.0365 0.37521,0.0779 0.55928,0.12859 0.20393,0.0742 0.40951,0.14392 0.62113,0.19843 0.2677,0.0656 0.5445,0.0875 0.82037,0.10656 0.15674,0.01 0.31306,0.0151 0.46997,0.0184 0.15129,0.0272 0.30268,0.0572 0.45347,0.0858 0.1393,0.0178 0.2727,0.0461 0.40812,0.0784 0.14045,0.0299 0.27862,0.0689 0.41912,0.0992 0.15143,0.031 0.3056,0.0431 0.46035,0.0502 0.14356,-0.002 0.28404,0.0164 0.42599,0.0331 0.22926,0.0256 0.46035,0.037 0.69119,0.0442 0.0411,7.9e-4 0.0825,7.9e-4 0.12369,0.003 0.0476,0.009 0.0952,0.0191 0.14291,0.0282 0.17032,0.0218 0.33741,0.0577 0.50707,0.0833 0.16705,0.0258 0.33664,0.0383 0.50569,0.0477 0.17222,0.005 0.34273,0.008 0.51394,0.0245 0.21089,0.024 0.41918,0.0617 0.62936,0.0906 0.13834,0.0119 0.2718,0.0348 0.40675,0.0624 0.15272,0.0304 0.30627,0.0596 0.46034,0.0845 0.0544,0.009 0.10645,0.014 0.15529,0.016 0.1332,0.006 0.24491,-0.014 0.33393,-0.049 0.1859,0.0299 0.37129,0.0653 0.55927,0.0833 0.19186,0.0219 0.38262,0.0239 0.57578,0.0245 0.20836,0.006 0.41796,0.0157 0.62387,0.0465 0.2794,0.022 0.55756,0.0365 0.83823,0.0295 0.22155,0 0.44357,-6.2e-4 0.66509,0.003 0.20453,0.003 0.4086,0.007 0.61289,0.0171 0.29124,0.013 0.58323,0.0301 0.87396,0.0514 0.25668,0.0118 0.51255,0.006 0.76954,0.006 h 0.78464 0.90283 0.73655 c 0.23423,0 0.46931,-2e-5 0.70357,0 0.26374,2e-5 0.5264,0.007 0.79015,0.007 0.23643,1.5e-4 0.47263,-6.1e-4 0.70906,0 0.27881,0.003 0.55807,0.003 0.83686,0.007 0.24539,0.006 0.49184,0.0104 0.73656,0.0269 0.2459,0.0185 0.4907,0.0503 0.73792,0.049 0.22733,0.003 0.45449,0.006 0.68159,0.016 0.24648,0.0121 0.49203,0.0312 0.73792,0.0502 0.31282,0.0142 0.62557,-0.003 0.93856,-0.007 0.30346,-0.008 0.60698,-0.0203 0.9097,-0.0416 0.27315,-0.0191 0.54606,-0.034 0.82037,-0.0245 0.25584,-3e-5 0.51232,3.4e-4 0.76816,-0.004 0.23872,-0.003 0.47742,-0.005 0.71594,-0.0147 0.2171,-0.0102 0.43389,-0.0234 0.6486,-0.0551 0.19235,-0.0256 0.3854,-0.0276 0.57851,-0.0465 0.13832,-0.0173 0.27319,-0.0495 0.41087,-0.0637 0.2085,-0.0209 0.41765,-0.0478 0.61839,-0.10411 0.20241,-0.0618 0.40157,-0.13372 0.59226,-0.22047 0.0787,-0.0341 0.15965,-0.065 0.24048,-0.0955 0.0326,6.3e-4 0.0647,8e-4 0.0976,8e-4 0.0523,3.6e-4 0.1056,-10e-5 0.15803,0 0.0455,5e-5 0.0906,0 0.13604,0 0.0431,0 0.086,-2e-5 0.12917,0 h 0.15802 c 0.0696,0.003 0.13792,6.2e-4 0.20613,-0.0135 0.0428,-0.009 0.0865,-0.0137 0.13055,-0.0184 0.045,-0.003 0.0908,-0.006 0.13604,-0.007 0.0734,0.006 0.14506,-0.004 0.21712,-0.016 0.0719,-0.0116 0.14147,-0.0322 0.21299,-0.0442 0.0742,-0.0137 0.14838,-0.0312 0.22124,-0.0502 0.0653,-0.0205 0.13312,-0.0325 0.19926,-0.0514 0.063,-0.0149 0.12097,-0.0411 0.18275,-0.06 0.0546,-0.007 0.10799,-0.0201 0.16079,-0.0343 0.051,-0.0127 0.10266,-0.02 0.15391,-0.0318 0.0551,-0.0142 0.11022,-0.0264 0.16351,-0.0453 0.0165,-0.006 0.0321,-0.0119 0.0481,-0.0184 0.0443,-0.007 0.0888,-0.0142 0.13329,-0.0208 0.1166,-0.009 0.23337,-0.0204 0.34765,-0.0442 0.10656,-0.0199 0.21494,-0.0328 0.31607,-0.071 0.0924,-0.0334 0.18993,-0.0553 0.2817,-0.0906 0.0933,-0.0351 0.18915,-0.0646 0.28445,-0.0955 0.0924,-0.0301 0.18382,-0.0605 0.27621,-0.0906 0.0751,-0.0269 0.15074,-0.0544 0.22948,-0.071 0.0857,-0.0179 0.16994,-0.0411 0.2556,-0.06 0.009,-0.003 0.0186,-0.006 0.0288,-0.008 0.05,-0.005 0.10089,-0.007 0.15116,-0.008 0.0799,-0.003 0.15922,-0.006 0.23909,-0.006 0.0664,-5.3e-4 0.13286,-0.003 0.19927,-0.003 0.0517,-10e-5 0.10348,0 0.15526,0 0.065,0.003 0.12884,6.2e-4 0.19239,-0.0135 0.0307,-0.009 0.0613,-0.0162 0.0934,-0.0184 0.0485,-0.003 0.0964,-0.007 0.14428,-0.0147 0.0488,-0.0147 0.0979,-0.0288 0.14567,-0.0453 0.0266,-0.009 0.0528,-0.0136 0.081,-0.0184 0.052,-0.006 0.10254,-0.0103 0.15253,-0.0245 0.0536,-0.01 0.10443,-0.0286 0.15667,-0.043 0.0573,-0.009 0.11093,-0.0287 0.16626,-0.043 0.0235,-0.006 0.0141,-0.006 0.0316,-0.007 0.0985,-0.0188 0.16811,-0.0534 0.21299,-0.0955 0.0369,-0.003 0.0747,-0.006 0.11129,-0.01 0.0743,-0.008 0.14663,-0.026 0.22124,-0.0331 0.0815,-0.01 0.16262,-0.0244 0.23773,-0.0551 0.0524,-0.0202 0.10527,-0.0411 0.15803,-0.06 0.0701,-0.0202 0.13923,-0.0411 0.20887,-0.0624 0.0609,-0.0222 0.12215,-0.0434 0.18551,-0.06 0.0891,-0.0265 0.17545,-0.06 0.26384,-0.0881 0.072,-0.0263 0.14577,-0.0484 0.22125,-0.0649 0.0919,-0.0256 0.18037,-0.0592 0.26933,-0.0918 0.0853,-0.0315 0.17036,-0.0623 0.25697,-0.0906 0.083,-0.0272 0.16474,-0.0607 0.25009,-0.0821 0.0942,-0.0265 0.18709,-0.0557 0.28171,-0.0809 0.0888,-0.0249 0.17681,-0.0533 0.26796,-0.0698 0.11212,-0.0199 0.22577,-0.0338 0.33804,-0.0527 0.0865,-0.019 0.1686,-0.0473 0.25147,-0.0759 0.071,-0.0238 0.14289,-0.0435 0.21575,-0.0624 0.0809,-0.0208 0.165,-0.0324 0.2446,-0.0575 0.0808,-0.0245 0.16209,-0.0447 0.23911,-0.0784 0.0763,-0.0268 0.15073,-0.0569 0.22673,-0.0845 0.0713,-0.0269 0.1466,-0.0471 0.22124,-0.0662 0.0724,-0.0197 0.14467,-0.0375 0.21574,-0.0612 0.0741,-0.0164 0.14834,-0.0321 0.22399,-0.0416 0.0934,-0.0142 0.19125,-0.006 0.28447,-0.0245 0.0827,-0.0127 0.16294,-0.0322 0.24597,-0.0442 0.077,-0.0147 0.15345,-0.0322 0.23085,-0.0465 0.0771,-0.0165 0.15475,-0.0286 0.23224,-0.043 0.0783,-0.019 0.15611,-0.0375 0.2336,-0.0588 0.0712,-0.0233 0.14166,-0.0489 0.21162,-0.0747 0.0643,-0.0197 0.12733,-0.0419 0.18964,-0.0662 0.0686,-0.0202 0.13725,-0.0423 0.20613,-0.0612 0.0609,-0.0209 0.12369,-0.0387 0.18412,-0.06 0.0722,-0.0202 0.14295,-0.0435 0.21575,-0.0624 0.0834,-0.0216 0.16781,-0.038 0.24597,-0.0735 0.0678,-0.0233 0.13531,-0.0485 0.20339,-0.0698 0.0885,-0.024 0.17883,-0.0448 0.26796,-0.0661 0.10113,-0.0269 0.20018,-0.0555 0.29544,-0.0967 0.0344,-0.0148 0.0691,-0.0296 0.10301,-0.0453 0.25077,-0.0606 0.50049,-0.12307 0.74617,-0.19842 0.26086,-0.0797 0.52078,-0.16248 0.78053,-0.24496 0.19187,-0.0606 0.38689,-0.11314 0.57715,-0.1776 0.17545,-0.0566 0.33275,-0.14791 0.49607,-0.22659 0.17692,-0.0851 0.35095,-0.17504 0.52357,-0.26702 0.20284,-0.11066 0.40499,-0.22115 0.61424,-0.32212 0.17521,-0.0849 0.35065,-0.17003 0.52218,-0.26088 0.0434,-0.006 0.0892,-0.016 0.13604,-0.0282 0.18852,-0.0491 0.37873,-0.092 0.56478,-0.14821 0.14699,-0.0511 0.29757,-0.0903 0.44524,-0.13962 0.15353,-0.0396 0.30093,-0.0948 0.44247,-0.16044 0.15101,-0.0787 0.29457,-0.16763 0.44798,-0.24253 0.1527,-0.0779 0.29658,-0.16742 0.44523,-0.25108 0.1372,-0.0858 0.28667,-0.15312 0.42736,-0.23395 0.13869,-0.0709 0.27171,-0.15106 0.40538,-0.22903 0.13016,-0.0744 0.26565,-0.13846 0.39026,-0.22047 0.0917,-0.0673 0.19322,-0.12202 0.29132,-0.18127 0.11306,-0.0623 0.218,-0.13487 0.32569,-0.20455 0.0794,-0.048 0.15971,-0.10047 0.24598,-0.1384 0.13015,-0.0413 0.25154,-0.10562 0.36689,-0.1727 0.092,-0.055 0.19603,-0.0863 0.29407,-0.13106 0.0413,-0.0224 0.0833,-0.0435 0.12505,-0.0649 0.0613,0.0293 0.13552,0.0471 0.22124,0.0502 0.11554,0.005 0.25117,-0.018 0.40263,-0.0784 0.0641,-0.0249 0.0397,-0.0128 0.0769,-0.0319 0.12132,-0.0355 0.24584,-0.0711 0.3669,-0.11023 0.73765,-0.23909 0.56155,-0.84195 -0.07,-0.79246 -0.27211,-0.15943 -0.57195,-0.31284 -0.22535,-0.36377 -0.0798,0.009 -0.15895,0.0212 -0.23637,0.0416 -0.0994,0.0283 -0.10915,0.0394 -0.20886,0.0442 -0.10467,0.013 -0.2089,0.0276 -0.31193,0.049 h -0.42187 c -0.10195,-0.0212 -0.20533,-0.0368 -0.30918,-0.049 -0.12059,-0.004 -0.23503,-0.0192 -0.35179,-0.043 -0.11223,-0.0111 -0.21678,-0.0463 -0.32431,-0.0747 -0.0422,-0.0109 -0.0855,-0.0198 -0.12917,-0.0269 -0.051,-0.013 -0.10336,-0.0219 -0.15665,-0.0295 -0.0222,-0.003 -0.044,-0.005 -0.0659,-0.006 -0.0951,-0.0315 -0.20176,-0.0307 -0.29683,-0.06 -0.10266,-0.035 -0.21386,-0.0426 -0.31605,-0.0772 -0.11988,-0.0486 -0.25299,-0.0562 -0.37789,-0.087 -0.1114,-0.0307 -0.22468,-0.0545 -0.33942,-0.0735 -0.0843,-0.009 -0.1637,-0.0387 -0.24597,-0.0577 v -8e-4 h -8.8e-4 c -0.008,-0.004 -0.0321,-0.008 -0.0632,-0.0135 -0.17441,-0.16572 -0.38948,-0.25866 -0.64723,-0.29028 -0.23476,-0.0942 -0.48082,-0.16145 -0.72556,-0.23271 -0.22015,-0.0638 -0.44212,-0.1261 -0.66235,-0.18985 -0.21281,-0.0719 -0.43418,-0.12233 -0.65547,-0.16902 -0.24909,-0.0596 -0.50274,-0.10271 -0.75168,-0.16291 -0.24522,-0.0618 -0.49386,-0.11016 -0.74066,-0.16657 -0.26813,-0.0517 -0.53296,-0.11638 -0.80113,-0.16779 -0.21046,-0.0361 -0.41878,-0.0797 -0.62662,-0.12617 -0.26919,-0.0628 -0.53814,-0.12589 -0.80664,-0.19106 -0.31776,-0.0775 -0.6361,-0.15451 -0.95779,-0.21802 -0.26368,-0.0606 -0.53,-0.11048 -0.79427,-0.16903 -0.31844,-0.0757 -0.64182,-0.12979 -0.96466,-0.1874 -0.2865,-0.0547 -0.57743,-0.0977 -0.8616,-0.16167 -0.20045,-0.043 -0.39927,-0.09 -0.59913,-0.13472 -0.19742,-0.0389 -0.39798,-0.0667 -0.59365,-0.11269 -0.18308,-0.0422 -0.36738,-0.0793 -0.5524,-0.1139 -0.16252,-0.0257 -0.32738,-0.0284 -0.49195,-0.0307 -0.012,-2e-4 -0.0237,1.8e-4 -0.0358,0 0.37761,-0.58642 1.08711,-0.95903 1.85924,-0.95903 0.14491,0 0.29354,0.0136 0.44111,0.0404 2.82112,0.52131 5.64098,1.04272 8.4621,1.56409 1.63024,0.30106 3.26148,0.60251 4.89202,0.90391 0.0564,0.15355 0.24259,0.30238 0.57302,0.36254 0.20592,0.0375 0.40424,0.1002 0.60325,0.15922 0.2502,0.0833 0.49064,0.18559 0.73655,0.27804 0.21766,0.0719 0.44101,0.12976 0.66648,0.17883 0.15813,0.0315 0.30647,0.0863 0.44797,0.15555 0.1878,0.0863 0.36491,0.18883 0.55242,0.27558 0.20076,0.0924 0.4132,0.15769 0.62937,0.21434 0.31626,0.0923 0.63649,0.17365 0.95916,0.24619 0.0294,0.007 0.0521,0.0127 0.07,0.0171 0.14021,0.34083 0.16566,0.70471 0.0824,1.04967 -0.1673,0.013 -0.35305,0.12177 -0.49058,0.36008 -0.0278,0.0481 -0.069,0.0891 -0.092,0.13964 -0.033,0.0633 -0.0696,0.10515 -0.10715,0.16534 -0.0566,0.0868 -0.10503,0.17774 -0.16629,0.26212 -0.0417,0.0694 -0.0912,0.13518 -0.14153,0.19963 l 0.009,-0.008 c -0.003,0.004 -0.0118,0.0134 -0.0247,0.0295 -0.0332,0.0399 -0.0661,0.0802 -0.0976,0.12125 -0.004,0.005 -0.0106,0.0114 -0.0151,0.0184 -0.0675,0.0936 -0.1319,0.18971 -0.19101,0.28784 -0.0493,0.10943 -0.12171,0.21111 -0.15391,0.32702 -0.0285,0.0945 -0.0665,0.18715 -0.0947,0.2817 -3.01412,3.66584 -6.02889,7.33089 -9.04338,10.99637 -0.43653,0.5306 -1.12443,0.8023 -1.81252,0.78021 z m 5.70415,-9.91486 c -0.007,-0.02 -0.0161,-0.0389 -0.0261,-0.0577 0.0179,-0.008 0.0358,-0.0165 0.0537,-0.0245 h 8.8e-4 v -8e-4 h 8.8e-4 8.8e-4 8.8e-4 l 8.8e-4,-7.9e-4 h 8.8e-4 8.8e-4 v -8e-4 h 8.8e-4 c 0.02,-0.0103 0.0396,-0.0198 0.0605,-0.0282 0.0138,-0.006 0.0286,-0.0114 0.0426,-0.016 -0.0468,0.0435 -0.094,0.0869 -0.14154,0.12983 z m -1.54456,-3.23841 c 0.009,-0.0175 0.0189,-0.0359 0.0275,-0.0539 0.0134,0.007 0.0262,0.0136 0.0398,0.0184 -0.0202,0.0109 -0.04,0.0213 -0.0605,0.0318 -0.003,7.9e-4 -0.004,0.003 -0.007,0.004 z m -0.81351,-0.66876 c 0.0168,-0.0148 0.032,-0.0299 0.0452,-0.0416 -0.0127,0.0156 -0.03,0.0349 -0.0452,0.0416 z m 0.0564,-0.0245 c 0.006,-0.0186 0.0106,-0.0315 0.0106,-0.0367 v -7.9e-4 c 0.006,-0.006 0.0118,-0.01 0.0165,-0.0147 -0.007,0.0203 -0.0161,0.0337 -0.022,0.0514 l -8.8e-4,-8e-4 h -8.8e-4 l -8.8e-4,8e-4 z m 0.96329,-0.3111 c 8.8e-4,-0.0277 0.004,-0.0555 0.004,-0.0833 0.008,0.0187 0.0173,0.0383 0.0261,0.0589 -0.009,0.008 -0.0203,0.0164 -0.0302,0.0245 z m 1.7342,-0.0955 c 0.006,-0.0136 0.0106,-0.0266 0.0151,-0.0404 0.0172,0.002 0.0348,0.003 0.0522,0.005 -0.0219,0.0128 -0.0445,0.0244 -0.0674,0.0354 z" /></g></svg>
